#N canvas 31 31 1243 747 12;
#X obj 970 80 init;
#N canvas 379 23 836 523 sensor 1;
#X obj 111 155 snapshot~;
#X obj 320 18 loadbang;
#X obj 320 114 tgl 16 0 empty empty empty 0 -8 0 10 #fcfcfc #000000 #000000 0 1;
#X obj 211 156 snapshot~;
#N canvas 62 323 709 452 calib 0;
#X obj 170 189 > 0;
#X obj 179 139 t a a a;
#X obj 203 191 spigot;
#X obj 89 141 t a a a;
#X obj 113 192 spigot;
#X obj 80 191 < 1;
#X obj 204 225 f;
#X obj 115 223 f;
#X text 113 246 min;
#X text 203 250 max;
#X floatatom 237 229 5 0 0 0 - - - 0;
#X floatatom 146 223 5 0 0 0 - - - 0;
#X msg 144 169 1;
#X msg 248 169 0;
#X obj 111 42 inlet;
#X obj 110 98 t a a;
#X obj 204 321 outlet;
#X obj 335 53 inlet;
#X obj 110 70 spigot;
#X obj 284 65 t a a;
#X obj 317 89 sel 1 0;
#X obj 117 323 outlet;
#X obj 351 276 -;
#X obj 348 244 t b a;
#X obj 351 363 outlet;
#X obj 351 304 / 3;
#X obj 352 329 clip 0.08 0.5;
#X connect 0 0 2 1;
#X connect 1 1 2 0;
#X connect 1 2 0 0;
#X connect 2 0 0 1;
#X connect 2 0 6 1;
#X connect 2 0 10 0;
#X connect 3 1 4 0;
#X connect 3 2 5 0;
#X connect 4 0 5 1;
#X connect 4 0 7 1;
#X connect 4 0 11 0;
#X connect 5 0 4 1;
#X connect 6 0 16 0;
#X connect 6 0 22 0;
#X connect 7 0 21 0;
#X connect 7 0 23 0;
#X connect 12 0 5 1;
#X connect 13 0 0 1;
#X connect 14 0 18 0;
#X connect 15 0 3 0;
#X connect 15 1 1 0;
#X connect 17 0 19 0;
#X connect 18 0 15 0;
#X connect 19 0 18 1;
#X connect 19 1 20 0;
#X connect 20 0 13 0;
#X connect 20 0 12 0;
#X connect 20 1 6 0;
#X connect 20 1 7 0;
#X connect 22 0 25 0;
#X connect 23 0 22 0;
#X connect 23 1 22 1;
#X connect 25 0 26 0;
#X connect 26 0 24 0;
#X restore 226 185 pd calib;
#X obj 322 167 r calib;
#X msg 409 214 val1 \$1;
#X msg 471 215 val2 \$1;
#X obj 410 151 metro 200;
#X obj 410 177 f;
#X obj 472 178 f;
#X obj 274 258 - 0.1;
#X obj 277 217 t b a;
#N canvas 163 23 1040 617 calib 0;
#X obj 170 189 > 0;
#X obj 179 139 t a a a;
#X obj 203 191 spigot;
#X obj 89 141 t a a a;
#X obj 113 192 spigot;
#X obj 73 191 < 1;
#X obj 204 225 f;
#X obj 115 223 f;
#X text 113 246 min;
#X text 203 250 max;
#X floatatom 237 226 5 0 0 0 - - - 0;
#X floatatom 147 223 5 0 0 0 - - - 0;
#X msg 350 165 1;
#X msg 314 168 0;
#X obj 111 28 inlet;
#X obj 110 98 t a a;
#X obj 204 321 outlet;
#X obj 335 53 inlet;
#X obj 110 70 spigot;
#X obj 284 65 t a a;
#X obj 317 89 sel 1 0;
#X obj 117 323 outlet;
#X obj 420 276 -;
#X obj 417 244 t b a;
#X obj 420 382 outlet;
#X obj 420 304 / 3;
#X obj 420 343 clip 0.08 0.5;
#X connect 0 0 2 1;
#X connect 1 1 2 0;
#X connect 1 2 0 0;
#X connect 2 0 0 1;
#X connect 2 0 6 1;
#X connect 2 0 10 0;
#X connect 3 1 4 0;
#X connect 3 2 5 0;
#X connect 4 0 5 1;
#X connect 4 0 7 1;
#X connect 4 0 11 0;
#X connect 5 0 4 1;
#X connect 6 0 16 0;
#X connect 6 0 22 0;
#X connect 7 0 21 0;
#X connect 7 0 23 0;
#X connect 12 0 5 1;
#X connect 13 0 0 1;
#X connect 14 0 18 0;
#X connect 15 0 3 0;
#X connect 15 1 1 0;
#X connect 17 0 19 0;
#X connect 18 0 15 0;
#X connect 19 0 18 1;
#X connect 19 1 20 0;
#X connect 20 0 13 0;
#X connect 20 0 12 0;
#X connect 20 1 6 0;
#X connect 20 1 7 0;
#X connect 22 0 25 0;
#X connect 23 0 22 0;
#X connect 23 1 22 1;
#X connect 25 0 26 0;
#X connect 26 0 24 0;
#X restore 122 185 pd calib;
#X obj 151 257 - 0.1;
#X obj 161 219 t b a;
#N canvas 113 152 1076 540 RecCalib 0;
#X obj 71 285 textfile;
#X obj 70 201 list trim;
#X obj 94 176 list prepend set;
#X obj 75 432 textfile;
#X msg 76 410 bang;
#X msg 116 410 rewind;
#X obj 113 368 t b b b;
#X obj 70 149 list;
#X obj 71 77 change;
#X obj 81 124 delay 500;
#X obj 70 34 inlet;
#X obj 170 34 inlet;
#X obj 213 34 inlet;
#X obj 66 493 outlet;
#X obj 136 493 outlet;
#X obj 114 344 loadbang;
#X obj 71 101 sel 0;
#X msg 196 414 read sensorCalib.txt cr;
#X msg 148 229 write sensorCalib.txt cr, f 34;
#X msg 148 202 write /root/Bela/projects/symphony/sensorCalib.txt cr, f 55;
#X msg 195 391 read /root/Bela/projects/symphony/sensorCalib.txt cr;
#X obj 163 129 pack 0 0;
#X obj 67 453 unpack 0 0;
#X connect 1 0 0 0;
#X connect 2 0 1 0;
#X connect 3 0 22 0;
#X connect 4 0 3 0;
#X connect 5 0 3 0;
#X connect 6 0 4 0;
#X connect 6 1 5 0;
#X connect 6 2 20 0;
#X connect 7 0 2 0;
#X connect 8 0 16 0;
#X connect 9 0 19 0;
#X connect 10 0 8 0;
#X connect 11 0 21 0;
#X connect 12 0 21 1;
#X connect 15 0 6 0;
#X connect 16 0 9 0;
#X connect 16 0 7 0;
#X connect 17 0 3 0;
#X connect 18 0 0 0;
#X connect 19 0 0 0;
#X connect 20 0 3 0;
#X connect 21 0 7 1;
#X connect 22 0 13 0;
#X connect 22 1 14 0;
#X restore 322 277 pd RecCalib;
#X obj 408 19 inlet;
#X obj 409 247 s message;
#X text 79 61 analog input number will change!;
#X obj 319 138 metro 40;
#X obj 112 83 adc~ 9 10, f 14;
#X obj 111 128 average~ 6000;
#X obj 210 127 average~ 6000;
#X obj 113 401 s sensor1;
#X obj 227 401 s sensor2;
#X obj 114 373 change;
#X obj 227 374 change;
#X obj 635 58 r mode;
#X obj 635 80 change;
#X obj 635 102 t b;
#X obj 705 57 r string_mode;
#X obj 705 79 change;
#X obj 706 102 t b;
#X obj 113 295 < 0.79;
#X obj 226 295 < 0.79;
#X obj 320 47 del 10000;
#X obj 227 338 switch 2 1;
#X obj 113 338 switch 2 1;
#X obj 20 295 r takeover;
#X obj 20 319 + 1;
#X obj 179 312 r st1;
#X obj 293 313 r st2;
#X msg 496 362 1;
#X obj 496 334 t b;
#X msg 505 414 0;
#X obj 496 442 t a;
#X obj 495 467 s sensorActive;
#X text 601 377 sends signal to zmq send;
#X text 544 357 if you do not touch sensor for 10 min;
#X obj 495 296 loadbang;
#X obj 504 387 del 600000;
#X connect 0 0 13 0;
#X connect 0 0 9 1;
#X connect 0 0 34 0;
#X connect 1 0 36 0;
#X connect 2 0 20 0;
#X connect 3 0 4 0;
#X connect 3 0 10 1;
#X connect 3 0 35 0;
#X connect 4 1 11 0;
#X connect 4 2 12 0;
#X connect 5 0 4 1;
#X connect 5 0 13 1;
#X connect 5 0 16 0;
#X connect 6 0 18 0;
#X connect 7 0 18 0;
#X connect 8 0 9 0;
#X connect 8 0 10 0;
#X connect 9 0 6 0;
#X connect 10 0 7 0;
#X connect 11 0 16 2;
#X connect 11 0 35 1;
#X connect 12 0 11 0;
#X connect 12 1 11 1;
#X connect 13 1 14 0;
#X connect 13 2 15 0;
#X connect 14 0 16 1;
#X connect 14 0 34 1;
#X connect 15 0 14 0;
#X connect 15 1 14 1;
#X connect 16 0 34 1;
#X connect 16 1 35 1;
#X connect 17 0 8 0;
#X connect 20 0 0 0;
#X connect 20 0 3 0;
#X connect 21 0 22 0;
#X connect 21 1 23 0;
#X connect 22 0 0 0;
#X connect 23 0 3 0;
#X connect 26 0 24 0;
#X connect 26 0 44 0;
#X connect 27 0 25 0;
#X connect 27 0 44 0;
#X connect 28 0 29 0;
#X connect 29 0 30 0;
#X connect 31 0 32 0;
#X connect 32 0 33 0;
#X connect 34 0 38 1;
#X connect 35 0 37 1;
#X connect 36 0 2 0;
#X connect 37 0 27 0;
#X connect 38 0 26 0;
#X connect 39 0 40 0;
#X connect 40 0 38 0;
#X connect 40 0 37 0;
#X connect 41 0 38 2;
#X connect 42 0 37 2;
#X connect 43 0 46 0;
#X connect 44 0 43 0;
#X connect 44 0 51 0;
#X connect 45 0 46 0;
#X connect 46 0 47 0;
#X connect 50 0 44 0;
#X connect 51 0 45 0;
#X restore 35 100 pd sensor;
#X obj 825 223 s mode;
#X obj 889 29 loadbang;
#X obj 42 74 tgl 19 0 empty empty empty 0 -10 0 12 #fcfcfc #000000 #000000 0 1;
#X text 59 73 send sensor reading to communciation;
#X obj 36 51 r debug;
#X obj 437 547 *~;
#X obj 552 534 line~;
#X obj 553 481 loadbang;
#X msg 615 511 \$1 100;
#X obj 617 481 r volume;
#N canvas 47 74 450 300 limiter 0;
#X obj 62 191 *~;
#X obj 92 69 env~;
#X obj 92 91 dbtorms;
#X obj 92 135 -;
#X obj 92 157 lop~ 20;
#X msg 92 113 1 \$1;
#X obj 62 4 inlet~;
#X obj 62 266 outlet~;
#X connect 0 0 7 0;
#X connect 1 0 2 0;
#X connect 2 0 5 0;
#X connect 3 0 4 0;
#X connect 4 0 0 1;
#X connect 5 0 3 0;
#X connect 6 0 1 0;
#X connect 6 0 0 0;
#X restore 212 410 pd limiter;
#X obj 437 575 dac~;
#X msg 867 120 1;
#X msg 868 144 2;
#X msg 869 169 3;
#N canvas 243 23 986 752 LED_show 0;
#X obj 161 41 inlet strip1;
#X obj 282 38 inlet strip2;
#X obj 413 35 inlet action1;
#X obj 566 35 inlet action2;
#X obj 702 34 inlet reset;
#X obj 333 403 netsend -u -b;
#X msg 93 330 connect bela.local 7562;
#X obj 110 203 loadbang;
#X msg 149 268 connect 127.0.0.1 7562;
#X msg 143 381 disconnect;
#X obj 330 299 oscformat leds setRaw rgb;
#N canvas 329 23 903 749 LEDrgblist 0;
#X obj 225 63 inlet;
#X obj 204 628 outlet;
#X obj 631 76 inlet;
#X msg 329 69 0.8 1 0 255 0 0 0 0 0 0 0 0 0 1 1 1;
#X msg 301 38 0.2 0.1 0.3 255 0 0 0 0 0 0 0 0 0 1 1 1;
#N canvas 148 23 1132 647 rgbLED 0;
#X obj 297 441 outlet;
#X obj 237 20 inlet list;
#X obj 286 257 zl iter 1;
#X obj 300 113 zl slice 1;
#X obj 108 442 outlet;
#X obj 330 140 zl rev;
#X obj 233 79 zl slice 3;
#X obj 285 361 zl group 36;
#X msg 219 363 zlclear;
#X obj 295 401 t b a;
#X msg 370 46 0.8 1 0 255 1 0 1 1 0 0 0 0 0 1 1 1;
#X obj 298 303 RGBmult;
#X msg 370 81 0.2 0.5 0 255 1 1 1 1 0 0 1 0 1 1 1 0;
#X obj 308 199 list;
#X obj 232 146 t b b a;
#X obj 235 50 t a b;
#X obj 204 278 list;
#X connect 1 0 15 0;
#X connect 2 0 11 0;
#X connect 3 0 16 1;
#X connect 3 1 5 0;
#X connect 5 0 13 1;
#X connect 6 0 14 0;
#X connect 6 1 3 0;
#X connect 7 0 9 0;
#X connect 8 0 7 0;
#X connect 9 1 0 0;
#X connect 10 0 15 0;
#X connect 11 0 7 0;
#X connect 12 0 15 0;
#X connect 13 0 2 0;
#X connect 14 0 16 0;
#X connect 14 1 13 0;
#X connect 14 2 11 1;
#X connect 15 0 6 0;
#X connect 15 1 8 0;
#X connect 16 0 4 0;
#X restore 188 160 pd rgbLED;
#X msg 305 100 0.8 1 0 255 1 0 1 1 0 0 0 0 0 1 1 0;
#X obj 281 320 list_replace;
#X msg 385 259 0.8 1 0 0.8 1 0;
#X obj 498 210 loadbang;
#X obj 279 230 list;
#X obj 652 109 tgl 19 0 empty empty empty 0 -10 0 12 #fcfcfc #000000 #000000 0 1;
#X obj 664 161 + 1;
#X obj 212 266 gate 2 1;
#X obj 632 133 t b a;
#X msg 553 260 0;
#X obj 342 369 t b a;
#X obj 134 338 list;
#X obj 481 611 line;
#X msg 482 587 255 \, 0 5000;
#X msg 585 590 255 1000;
#X obj 702 543 r LEDfadeout;
#X obj 705 574 r LEDfadein;
#X obj 681 615 bng 19 250 50 0 empty empty empty 0 -10 0 12 #fcfcfc #000000 #000000;
#X obj 594 546 bng 19 250 50 0 empty empty empty 0 -10 0 12 #fcfcfc #000000 #000000;
#X obj 210 440 list prepend 12;
#X obj 197 394 list prepend 255;
#X connect 0 0 5 0;
#X connect 2 0 14 0;
#X connect 3 0 5 0;
#X connect 5 1 10 1;
#X connect 5 1 13 1;
#X connect 6 0 5 0;
#X connect 7 0 17 1;
#X connect 7 0 26 0;
#X connect 8 0 7 1;
#X connect 9 0 15 0;
#X connect 9 0 8 0;
#X connect 10 0 13 1;
#X connect 11 0 14 0;
#X connect 12 0 13 0;
#X connect 13 0 17 1;
#X connect 13 0 26 0;
#X connect 13 1 7 0;
#X connect 14 0 10 0;
#X connect 14 1 12 0;
#X connect 15 0 7 2;
#X connect 16 0 17 0;
#X connect 16 1 26 1;
#X connect 17 0 26 0;
#X connect 18 0 16 0;
#X connect 19 0 18 0;
#X connect 20 0 18 0;
#X connect 21 0 19 0;
#X connect 22 0 20 0;
#X connect 23 0 20 0;
#X connect 24 0 19 0;
#X connect 25 0 1 0;
#X connect 26 0 25 0;
#X restore 479 193 pd LEDrgblist;
#X obj 413 63 change;
#X obj 567 61 change;
#N canvas 211 23 892 640 LEDrgblist 0;
#N canvas 148 131 1132 647 rgbLED 0;
#X obj 332 446 outlet;
#X obj 234 25 inlet list;
#X obj 286 257 zl iter 1;
#X obj 300 113 zl slice 1;
#X obj 108 442 outlet;
#X obj 330 140 zl rev;
#X obj 233 79 zl slice 3;
#X obj 285 361 zl group 36;
#X msg 219 363 zlclear;
#X obj 295 401 t b a;
#X msg 360 38 0.8 1 0 255 1 0 1 1 0 0 0 0 0 1 1 1;
#X obj 298 303 RGBmult;
#X msg 370 81 0.2 0.5 0 255 1 1 1 1 0 0 1 0 1 1 1 0;
#X obj 308 199 list;
#X obj 216 143 t b b a;
#X obj 233 52 t a a;
#X obj 149 296 list;
#X connect 1 0 15 0;
#X connect 2 0 11 0;
#X connect 3 0 16 1;
#X connect 3 1 5 0;
#X connect 5 0 13 1;
#X connect 6 0 14 0;
#X connect 6 1 3 0;
#X connect 7 0 9 0;
#X connect 8 0 7 0;
#X connect 9 1 0 0;
#X connect 10 0 15 0;
#X connect 11 0 7 0;
#X connect 12 0 15 0;
#X connect 13 0 2 0;
#X connect 14 0 16 0;
#X connect 14 1 13 0;
#X connect 14 2 11 1;
#X connect 15 0 6 0;
#X connect 15 1 8 0;
#X connect 16 0 4 0;
#X restore 184 152 pd rgbLED;
#X obj 90 43 inlet;
#X obj 196 498 outlet;
#X obj 631 76 inlet;
#X msg 301 38 0.2 0.1 0.3 255 0 0 0 0 0 0 0 0 0 1 1 1;
#X msg 278 8 0.2 0.1 0.3 255 0 0 0 0 0 0 0 0 0 0 0 0;
#X msg 305 100 0.8 1 0 255 1 1 1 1 1 0 0 0 1 1 1 1;
#X msg 329 69 0.8 1 0 255 0 1 1 1 0 0 0 0 0 1 1 0;
#X obj 265 297 list_replace;
#X msg 385 259 0.8 1 0 0.8 1 0;
#X obj 498 210 loadbang;
#X obj 268 230 list;
#X obj 652 109 tgl 19 0 empty empty empty 0 -10 0 12 #fcfcfc #000000 #000000 0 1;
#X obj 664 161 + 1;
#X obj 212 266 gate 2 1;
#X obj 632 133 t b a;
#X msg 553 260 0;
#X obj 197 356 list prepend 255;
#X obj 206 407 list prepend 0;
#X obj 349 355 t b a;
#X obj 122 336 list;
#X obj 489 350 line;
#X msg 490 326 255 \, 0 5000;
#X msg 593 329 255 1000;
#X obj 710 282 r LEDfadeout;
#X obj 713 313 r LEDfadein;
#X obj 689 354 bng 19 250 50 0 empty empty empty 0 -10 0 12 #fcfcfc #000000 #000000;
#X obj 602 285 bng 19 250 50 0 empty empty empty 0 -10 0 12 #fcfcfc #000000 #000000;
#X floatatom 189 228 5 0 0 0 - - - 0;
#X connect 0 1 11 1;
#X connect 0 1 14 1;
#X connect 1 0 0 0;
#X connect 3 0 15 0;
#X connect 4 0 0 0;
#X connect 5 0 0 0;
#X connect 6 0 0 0;
#X connect 7 0 0 0;
#X connect 8 0 17 0;
#X connect 8 0 20 1;
#X connect 9 0 8 1;
#X connect 10 0 16 0;
#X connect 10 0 9 0;
#X connect 11 0 14 1;
#X connect 12 0 15 0;
#X connect 13 0 14 0;
#X connect 14 0 17 0;
#X connect 14 0 20 1;
#X connect 14 1 8 0;
#X connect 15 0 11 0;
#X connect 15 1 13 0;
#X connect 16 0 8 2;
#X connect 17 0 18 0;
#X connect 18 0 2 0;
#X connect 19 0 20 0;
#X connect 19 1 17 1;
#X connect 20 0 17 0;
#X connect 21 0 19 0;
#X connect 22 0 21 0;
#X connect 23 0 21 0;
#X connect 24 0 22 0;
#X connect 25 0 23 0;
#X connect 26 0 23 0;
#X connect 27 0 22 0;
#X restore 326 192 pd LEDrgblist;
#X msg 703 63 0 0 0 0 0 0 0 0 0 0 0 0 0 0 0 0;
#X msg 95 355 connect 192.168.0.120 7562;
#X msg 227 132 1 1 1 255 1 1 1 1 1 1 1 1 1 1 1 1;
#X connect 0 0 14 0;
#X connect 1 0 11 0;
#X connect 2 0 12 0;
#X connect 3 0 13 0;
#X connect 4 0 15 0;
#X connect 6 0 5 0;
#X connect 7 0 8 0;
#X connect 8 0 5 0;
#X connect 9 0 5 0;
#X connect 10 0 5 0;
#X connect 11 0 10 0;
#X connect 12 0 14 1;
#X connect 13 0 11 1;
#X connect 14 0 10 0;
#X connect 15 0 11 0;
#X connect 15 0 14 0;
#X connect 16 0 5 0;
#X connect 17 0 14 0;
#X restore 581 710 pd LED_show;
#X obj 581 622 r LEDstrip1;
#X obj 679 622 r LEDstrip2;
#X obj 714 689 r LEDaction1;
#X obj 713 712 r LEDaction2;
#X obj 771 619 r LEDreset;
#X text 587 729 LED output;
#N canvas 47 74 1050 704 ID_flash 0;
#X obj 268 65 r flash;
#X obj 268 89 t b b b;
#X obj 74 511 outlet;
#X obj 373 162 t b b b;
#X obj 317 117 del 200;
#X obj 422 190 del 200;
#X obj 466 222 t b b b;
#X obj 513 244 del 200;
#X obj 562 277 t b b b;
#X obj 611 305 del 200;
#X obj 292 143 del 100, f 9;
#X obj 398 216 del 100, f 9;
#X obj 490 276 del 100, f 9;
#X obj 586 331 del 100, f 9;
#X obj 75 436 LED_color;
#X msg 65 213 1 1 1 1 1 1 1 1 1 1 1 1;
#X msg 178 337 0 0 0 0 0 0 0 0 0 0 0 0;
#X obj 180 402 loadbang;
#X obj 339 399 r inst;
#X obj 335 428 sel 0 1 2 3;
#X msg 323 478 1 1 1;
#X msg 393 543 0.5 0 1;
#X msg 179 427 1 1 0;
#X msg 365 511 1 0 0;
#X connect 0 0 1 0;
#X connect 1 0 15 0;
#X connect 1 1 10 0;
#X connect 1 2 4 0;
#X connect 3 0 15 0;
#X connect 3 1 11 0;
#X connect 3 2 5 0;
#X connect 4 0 3 0;
#X connect 5 0 6 0;
#X connect 6 0 15 0;
#X connect 6 1 12 0;
#X connect 6 2 7 0;
#X connect 7 0 8 0;
#X connect 8 0 15 0;
#X connect 8 1 13 0;
#X connect 8 2 9 0;
#X connect 10 0 16 0;
#X connect 11 0 16 0;
#X connect 12 0 16 0;
#X connect 13 0 16 0;
#X connect 14 0 2 0;
#X connect 15 0 14 0;
#X connect 16 0 14 0;
#X connect 17 0 22 0;
#X connect 18 0 19 0;
#X connect 19 0 20 0;
#X connect 19 2 23 0;
#X connect 19 3 21 0;
#X connect 20 0 14 1;
#X connect 21 0 14 1;
#X connect 22 0 14 1;
#X connect 23 0 14 1;
#X restore 343 649 pd ID_flash;
#X msg 865 95 0;
#N canvas 394 85 886 580 LED_initialfade 0;
#X obj 86 482 outlet;
#X obj 129 104 t b b;
#X obj 129 37 loadbang;
#X obj 91 156 line;
#X obj 174 136 del 3000;
#X msg 175 161 0 1000;
#X obj 256 136 del 5100;
#X obj 129 71 del 6000;
#X obj 192 447 LED_color;
#X msg 79 290 1 1 1 1 1 1 1 1 1 1 1 1;
#X msg 271 282 0 0 0 0 0 0 0 0 0 0 0 0 0;
#X msg 92 131 1 1000;
#X obj 221 408 pack 0 0 0;
#X obj 81 223 t b a a a;
#X obj 400 409 outlet;
#X obj 255 96 bng 19 250 50 0 empty empty empty 0 -10 0 12 #fcfcfc #000000 #000000;
#X obj 370 187 line;
#X msg 369 165 255 1000;
#X msg 443 167 0 1000;
#X obj 370 211 i;
#X obj 356 237 t b a;
#X obj 527 242 r inst;
#X obj 523 286 sel 0 1 2 3;
#X obj 203 365 t b a;
#X connect 1 0 11 0;
#X connect 1 0 17 0;
#X connect 1 1 4 0;
#X connect 1 1 6 0;
#X connect 2 0 7 0;
#X connect 3 0 13 0;
#X connect 4 0 5 0;
#X connect 4 0 18 0;
#X connect 5 0 3 0;
#X connect 6 0 10 0;
#X connect 6 0 14 0;
#X connect 7 0 1 0;
#X connect 8 0 0 0;
#X connect 9 0 8 0;
#X connect 10 0 8 0;
#X connect 11 0 3 0;
#X connect 12 0 8 1;
#X connect 13 0 9 0;
#X connect 13 2 12 1;
#X connect 13 3 23 0;
#X connect 15 0 1 0;
#X connect 16 0 19 0;
#X connect 17 0 16 0;
#X connect 19 0 20 0;
#X connect 21 0 22 0;
#X connect 23 0 12 0;
#X connect 23 1 12 2;
#X restore 439 623 pd LED_initialfade;
#X obj 970 27 zmqReceiver;
#X obj 970 54 zmqSender;
#X obj 581 646 spigot;
#X msg 633 647 1;
#X msg 730 647 1;
#X obj 679 647 spigot;
#X msg 553 510 1 100;
#X msg 821 646 1;
#X obj 770 645 spigot;
#X obj 889 56 del 5000;
#X msg 871 193 4;
#X obj 1071 29 loadbang;
#X obj 1036 184 s my_id;
#X obj 730 70 s string_mode;
#X obj 730 23 loadbang;
#X msg 730 46 1;
#X obj 39 226 mode_violin;
#X obj 221 243 mode_voiceviolin;
#X obj 968 326 r role;
#X obj 968 377 print role;
#X obj 1063 370 print instrument;
#X obj 968 280 print id;
#X obj 1063 340 r insttype;
#X obj 968 226 r my_id;
#X obj 968 352 list trim;
#X obj 967 255 i;
#X obj 940 227 bng 19 250 50 0 empty empty empty 0 -10 0 12 #fcfcfc #000000 #000000;
#X obj 969 424 r inst;
#X obj 969 448 print inst;
#X msg 878 215 5;
#X msg 878 252 6;
#X msg 1101 126 3;
#X obj 1102 183 s inst;
#X obj 36 391 *~ 1;
#X obj 68 283 r string_vol;
#X obj 68 366 line;
#X msg 68 342 \$1 10;
#X obj 134 314 r ImAki;
#X obj 134 356 - 1;
#X obj 134 380 abs;
#X obj 68 318 spigot 1;
#N canvas 394 85 886 580 LED_initial_tester 0;
#X obj 86 482 outlet;
#X obj 129 104 t b b;
#X obj 129 37 loadbang;
#X obj 192 447 LED_color;
#X msg 81 157 1 1 1 1 1 1 1 1 1 1 1 1;
#X msg 298 353 0 0 0 0 0 0 0 0 0 0 0 0 0;
#X obj 400 409 outlet;
#X obj 255 96 bng 19 250 50 0 empty empty empty 0 -10 0 12 #fcfcfc #000000 #000000;
#X msg 150 216 1 0 0;
#X obj 291 153 del 1000;
#X msg 212 236 0 1 0;
#X obj 266 190 t b b;
#X obj 349 189 del 1000;
#X obj 347 229 t b b;
#X msg 270 281 0 0 1;
#X obj 392 286 del 1000;
#X obj 397 319 t b b;
#X obj 129 71 del 6000;
#X connect 1 0 4 0;
#X connect 1 1 8 0;
#X connect 1 1 9 0;
#X connect 2 0 17 0;
#X connect 3 0 0 0;
#X connect 4 0 3 0;
#X connect 5 0 3 0;
#X connect 7 0 1 0;
#X connect 8 0 3 1;
#X connect 9 0 11 0;
#X connect 9 0 12 0;
#X connect 10 0 3 1;
#X connect 11 0 4 0;
#X connect 11 1 10 0;
#X connect 12 0 13 0;
#X connect 12 0 15 0;
#X connect 13 0 4 0;
#X connect 13 1 14 0;
#X connect 14 0 3 1;
#X connect 15 0 16 0;
#X connect 16 0 5 0;
#X connect 16 1 6 0;
#X connect 17 0 1 0;
#X restore 357 714 pd LED_initial_tester;
#X msg 1037 126 80;
#X obj 134 335 t a a;
#X obj 165 358 sel 1;
#X msg 165 381 1;
#X obj 349 243 mode_callResp;
#X msg 749 173 9;
#X obj 562 277 mode_sequencer, f 30;
#X obj 562 240 r playLoop;
#X obj 641 241 r resetD;
#X obj 711 242 r jam;
#X obj 759 243 r ImAki;
#X obj 542 136 s takeover;
#X obj 542 109 tgl 19 0 empty empty empty 0 -10 0 12 #fcfcfc #000000 #000000 0 1;
#X obj 278 152 s st1;
#X obj 346 150 s st2;
#X obj 279 117 tgl 19 0 empty empty empty 0 -10 0 12 #fcfcfc #000000 #000000 0 1;
#X obj 349 112 tgl 19 0 empty empty empty 0 -10 0 12 #fcfcfc #000000 #000000 0 1;
#X obj 69 260 r string_vol_voice;
#X obj 449 221 r playLoop;
#X obj 448 243 mode_dx7_2;
#X obj 516 184 r loopHead;
#X obj 1042 225 r sendID;
#X obj 1042 249 t b;
#X obj 1043 295 s ImHere;
#X obj 1043 271 i;
#X obj 841 297 r my_id;
#X obj 841 321 % 6;
#X obj 835 348 sel 0 1 2 3 4 5;
#X msg 790 408 group2;
#X msg 794 381 group1;
#X msg 849 382 group3;
#X msg 845 409 group4;
#X msg 904 382 group5;
#X msg 900 409 group6;
#X obj 839 451 s subgroup;
#X text 69 18 symphony V2 main patch revised April 30 2024 after premier;
#N canvas 484 164 450 300 shutdown 0;
#X obj 88 34 r shutdown;
#X obj 88 109 shell;
#X obj 88 57 t b;
#X obj 84 160 print shell;
#X msg 88 83 /root/Bela/scripts/halt_board.sh;
#X connect 0 0 2 0;
#X connect 1 0 3 0;
#X connect 2 0 4 0;
#X connect 4 0 1 0;
#X restore 610 26 pd shutdown;
#X obj 218 308 gate~;
#X obj 217 282 r sensorActive;
#X obj 284 313 gate~;
#X connect 3 0 36 0;
#X connect 4 0 1 0;
#X connect 6 0 1 0;
#X connect 7 0 13 0;
#X connect 7 0 13 1;
#X connect 8 0 7 1;
#X connect 9 0 33 0;
#X connect 10 0 8 0;
#X connect 11 0 10 0;
#X connect 12 0 7 0;
#X connect 14 0 2 0;
#X connect 15 0 2 0;
#X connect 16 0 2 0;
#X connect 18 0 29 0;
#X connect 19 0 32 0;
#X connect 20 0 17 2;
#X connect 21 0 17 3;
#X connect 22 0 35 0;
#X connect 24 0 17 0;
#X connect 24 0 17 1;
#X connect 25 0 2 0;
#X connect 26 0 17 0;
#X connect 26 0 17 1;
#X connect 26 1 30 0;
#X connect 26 1 31 0;
#X connect 26 1 34 0;
#X connect 29 0 17 0;
#X connect 30 0 29 1;
#X connect 31 0 32 1;
#X connect 32 0 17 1;
#X connect 33 0 8 0;
#X connect 34 0 35 1;
#X connect 35 0 17 4;
#X connect 36 0 14 0;
#X connect 37 0 2 0;
#X connect 38 0 69 0;
#X connect 38 0 58 0;
#X connect 41 0 42 0;
#X connect 42 0 40 0;
#X connect 43 0 60 0;
#X connect 44 0 106 1;
#X connect 45 0 51 0;
#X connect 49 0 47 0;
#X connect 50 0 52 0;
#X connect 50 0 93 1;
#X connect 51 0 46 0;
#X connect 52 0 48 0;
#X connect 53 0 52 0;
#X connect 54 0 55 0;
#X connect 56 0 2 0;
#X connect 57 0 2 0;
#X connect 58 0 59 0;
#X connect 60 0 12 0;
#X connect 61 0 67 0;
#X connect 62 0 60 1;
#X connect 63 0 62 0;
#X connect 64 0 70 0;
#X connect 65 0 66 0;
#X connect 66 0 67 1;
#X connect 67 0 63 0;
#X connect 69 0 39 0;
#X connect 70 0 65 0;
#X connect 70 1 71 0;
#X connect 71 0 72 0;
#X connect 72 0 63 0;
#X connect 73 0 108 1;
#X connect 74 0 2 0;
#X connect 75 0 12 0;
#X connect 76 0 75 0;
#X connect 77 0 75 1;
#X connect 78 0 75 2;
#X connect 79 0 75 3;
#X connect 81 0 80 0;
#X connect 84 0 82 0;
#X connect 85 0 83 0;
#X connect 86 0 62 0;
#X connect 87 0 88 0;
#X connect 88 0 12 0;
#X connect 89 0 88 1;
#X connect 90 0 91 0;
#X connect 91 0 93 0;
#X connect 93 0 92 0;
#X connect 94 0 95 0;
#X connect 95 0 96 0;
#X connect 96 0 98 0;
#X connect 96 1 97 0;
#X connect 96 2 99 0;
#X connect 96 3 100 0;
#X connect 96 4 101 0;
#X connect 96 5 102 0;
#X connect 97 0 103 0;
#X connect 98 0 103 0;
#X connect 99 0 103 0;
#X connect 100 0 103 0;
#X connect 101 0 103 0;
#X connect 102 0 103 0;
#X connect 106 0 12 0;
#X connect 107 0 106 0;
#X connect 107 0 108 0;
#X connect 108 0 12 0;
