#N canvas 0 23 1195 755 12;
#X obj 970 80 init;
#N canvas 446 117 834 446 sensor 0;
#X obj 111 155 snapshot~;
#X obj 302 66 loadbang;
#X obj 302 113 tgl 16 0 empty empty empty 0 -8 0 10 #fcfcfc #000000 #000000 0 1;
#X obj 207 156 snapshot~;
#N canvas 62 323 709 452 calib 0;
#X obj 170 189 > 0;
#X obj 179 139 t a a a;
#X obj 203 191 spigot;
#X obj 89 141 t a a a;
#X obj 113 192 spigot;
#X obj 80 191 < 1;
#X obj 204 225 f;
#X obj 115 223 f;
#X text 113 246 min;
#X text 203 250 max;
#X floatatom 237 229 5 0 0 0 - - - 0;
#X floatatom 146 223 5 0 0 0 - - - 0;
#X msg 144 169 1;
#X msg 248 169 0;
#X obj 111 42 inlet;
#X obj 110 98 t a a;
#X obj 204 321 outlet;
#X obj 335 53 inlet;
#X obj 110 70 spigot;
#X obj 284 65 t a a;
#X obj 317 89 sel 1 0;
#X obj 117 323 outlet;
#X obj 351 276 -;
#X obj 348 244 t b a;
#X obj 351 363 outlet;
#X obj 351 304 / 3;
#X obj 352 329 clip 0.08 0.5;
#X connect 0 0 2 1;
#X connect 1 1 2 0;
#X connect 1 2 0 0;
#X connect 2 0 0 1;
#X connect 2 0 6 1;
#X connect 2 0 10 0;
#X connect 3 1 4 0;
#X connect 3 2 5 0;
#X connect 4 0 5 1;
#X connect 4 0 7 1;
#X connect 4 0 11 0;
#X connect 5 0 4 1;
#X connect 6 0 16 0;
#X connect 6 0 22 0;
#X connect 7 0 21 0;
#X connect 7 0 23 0;
#X connect 12 0 5 1;
#X connect 13 0 0 1;
#X connect 14 0 18 0;
#X connect 15 0 3 0;
#X connect 15 1 1 0;
#X connect 17 0 19 0;
#X connect 18 0 15 0;
#X connect 19 0 18 1;
#X connect 19 1 20 0;
#X connect 20 0 13 0;
#X connect 20 0 12 0;
#X connect 20 1 6 0;
#X connect 20 1 7 0;
#X connect 22 0 25 0;
#X connect 23 0 22 0;
#X connect 23 1 22 1;
#X connect 25 0 26 0;
#X connect 26 0 24 0;
#X restore 226 185 pd calib;
#X obj 322 180 r calib;
#X msg 409 212 val1 \$1;
#X msg 471 213 val2 \$1;
#X obj 410 149 metro 200;
#X obj 409 175 f;
#X obj 472 175 f;
#X obj 273 258 - 0.1;
#X obj 119 297 < 0.7;
#X obj 229 296 < 0.7;
#X obj 272 220 t b a;
#N canvas 163 23 1040 617 calib 0;
#X obj 170 189 > 0;
#X obj 179 139 t a a a;
#X obj 203 191 spigot;
#X obj 89 141 t a a a;
#X obj 113 192 spigot;
#X obj 73 191 < 1;
#X obj 204 225 f;
#X obj 115 223 f;
#X text 113 246 min;
#X text 203 250 max;
#X floatatom 237 226 5 0 0 0 - - - 0;
#X floatatom 147 223 5 0 0 0 - - - 0;
#X msg 350 165 1;
#X msg 314 168 0;
#X obj 111 28 inlet;
#X obj 110 98 t a a;
#X obj 204 321 outlet;
#X obj 335 53 inlet;
#X obj 110 70 spigot;
#X obj 284 65 t a a;
#X obj 317 89 sel 1 0;
#X obj 117 323 outlet;
#X obj 420 276 -;
#X obj 417 244 t b a;
#X obj 420 382 outlet;
#X obj 420 304 / 3;
#X obj 420 343 clip 0.08 0.5;
#X connect 0 0 2 1;
#X connect 1 1 2 0;
#X connect 1 2 0 0;
#X connect 2 0 0 1;
#X connect 2 0 6 1;
#X connect 2 0 10 0;
#X connect 3 1 4 0;
#X connect 3 2 5 0;
#X connect 4 0 5 1;
#X connect 4 0 7 1;
#X connect 4 0 11 0;
#X connect 5 0 4 1;
#X connect 6 0 16 0;
#X connect 6 0 22 0;
#X connect 7 0 21 0;
#X connect 7 0 23 0;
#X connect 12 0 5 1;
#X connect 13 0 0 1;
#X connect 14 0 18 0;
#X connect 15 0 3 0;
#X connect 15 1 1 0;
#X connect 17 0 19 0;
#X connect 18 0 15 0;
#X connect 19 0 18 1;
#X connect 19 1 20 0;
#X connect 20 0 13 0;
#X connect 20 0 12 0;
#X connect 20 1 6 0;
#X connect 20 1 7 0;
#X connect 22 0 25 0;
#X connect 23 0 22 0;
#X connect 23 1 22 1;
#X connect 25 0 26 0;
#X connect 26 0 24 0;
#X restore 122 185 pd calib;
#X obj 151 265 - 0.1;
#X obj 171 225 t b a;
#N canvas 113 152 1076 540 RecCalib 0;
#X obj 71 285 textfile;
#X obj 70 201 list trim;
#X obj 94 176 list prepend set;
#X obj 75 432 textfile;
#X msg 76 410 bang;
#X msg 116 410 rewind;
#X obj 113 368 t b b b;
#X obj 70 149 list;
#X obj 71 77 change;
#X obj 81 124 delay 500;
#X obj 70 34 inlet;
#X obj 170 34 inlet;
#X obj 213 34 inlet;
#X obj 66 493 outlet;
#X obj 136 493 outlet;
#X obj 114 344 loadbang;
#X obj 71 101 sel 0;
#X msg 196 414 read sensorCalib.txt cr;
#X msg 148 229 write sensorCalib.txt cr, f 34;
#X msg 148 202 write /root/Bela/projects/symphony/sensorCalib.txt cr, f 55;
#X msg 195 391 read /root/Bela/projects/symphony/sensorCalib.txt cr;
#X obj 163 129 pack 0 0;
#X obj 67 453 unpack 0 0;
#X connect 1 0 0 0;
#X connect 2 0 1 0;
#X connect 3 0 22 0;
#X connect 4 0 3 0;
#X connect 5 0 3 0;
#X connect 6 0 4 0;
#X connect 6 1 5 0;
#X connect 6 2 20 0;
#X connect 7 0 2 0;
#X connect 8 0 16 0;
#X connect 9 0 19 0;
#X connect 10 0 8 0;
#X connect 11 0 21 0;
#X connect 12 0 21 1;
#X connect 15 0 6 0;
#X connect 16 0 9 0;
#X connect 16 0 7 0;
#X connect 17 0 3 0;
#X connect 18 0 0 0;
#X connect 19 0 0 0;
#X connect 20 0 3 0;
#X connect 21 0 7 1;
#X connect 22 0 13 0;
#X connect 22 1 14 0;
#X restore 323 286 pd RecCalib;
#X obj 116 389 outlet sensor1;
#X obj 230 385 outlet sensor2;
#X obj 413 67 inlet;
#X obj 410 244 s message;
#X text 79 61 analog input number will change!;
#X obj 301 137 metro 40;
#X obj 112 83 adc~ 9 10;
#X obj 112 128 average~ 6000;
#X obj 207 128 average~ 6000;
#X connect 0 0 15 0;
#X connect 0 0 9 1;
#X connect 0 0 12 0;
#X connect 1 0 2 0;
#X connect 2 0 24 0;
#X connect 3 0 4 0;
#X connect 3 0 10 1;
#X connect 3 0 13 0;
#X connect 4 1 11 0;
#X connect 4 2 14 0;
#X connect 5 0 4 1;
#X connect 5 0 15 1;
#X connect 5 0 18 0;
#X connect 6 0 22 0;
#X connect 7 0 22 0;
#X connect 8 0 9 0;
#X connect 8 0 10 0;
#X connect 9 0 6 0;
#X connect 10 0 7 0;
#X connect 11 0 13 1;
#X connect 11 0 18 2;
#X connect 12 0 19 0;
#X connect 13 0 20 0;
#X connect 14 0 11 0;
#X connect 14 1 11 1;
#X connect 15 1 16 0;
#X connect 15 2 17 0;
#X connect 16 0 12 1;
#X connect 16 0 18 1;
#X connect 17 0 16 0;
#X connect 17 1 16 1;
#X connect 18 0 12 1;
#X connect 18 1 13 1;
#X connect 21 0 8 0;
#X connect 24 0 0 0;
#X connect 24 0 3 0;
#X connect 25 0 26 0;
#X connect 25 1 27 0;
#X connect 26 0 0 0;
#X connect 27 0 3 0;
#X restore 35 100 pd sensor;
#X obj 35 166 s sensor1;
#X obj 109 164 s sensor2;
#X obj 824 144 s mode;
#X obj 903 25 loadbang;
#X obj 42 74 tgl 19 0 empty empty empty 0 -10 0 12 #fcfcfc #000000 #000000 0 1;
#X text 59 73 send sensor reading to communciation;
#X obj 36 51 r debug;
#X obj 529 550 *~;
#X obj 607 558 line~;
#X obj 608 505 loadbang;
#X msg 670 535 \$1 100;
#X obj 672 505 r volume;
#N canvas 47 74 450 300 limiter 0;
#X obj 62 191 *~;
#X obj 92 69 env~;
#X obj 92 91 dbtorms;
#X obj 92 135 -;
#X obj 92 157 lop~ 20;
#X msg 92 113 1 \$1;
#X obj 62 4 inlet~;
#X obj 62 266 outlet~;
#X connect 0 0 7 0;
#X connect 1 0 2 0;
#X connect 2 0 5 0;
#X connect 3 0 4 0;
#X connect 4 0 0 1;
#X connect 5 0 3 0;
#X connect 6 0 1 0;
#X connect 6 0 0 0;
#X restore 526 465 pd limiter;
#X obj 527 439 clip~ -1 1;
#X obj 424 213 r sensor1;
#X obj 689 239 r sensor2;
#X obj 529 578 dac~;
#X msg 866 41 1;
#X msg 867 65 2;
#X msg 868 90 3;
#N canvas 243 23 986 752 LED_show 0;
#X obj 161 41 inlet strip1;
#X obj 282 38 inlet strip2;
#X obj 413 35 inlet action1;
#X obj 566 35 inlet action2;
#X obj 702 34 inlet reset;
#X obj 333 403 netsend -u -b;
#X msg 93 330 connect bela.local 7562;
#X obj 110 203 loadbang;
#X msg 149 268 connect 127.0.0.1 7562;
#X msg 143 381 disconnect;
#X obj 330 299 oscformat leds setRaw rgb;
#N canvas 329 23 903 749 LEDrgblist 0;
#X obj 225 63 inlet;
#X obj 279 431 outlet;
#X obj 631 76 inlet;
#X msg 329 69 0.8 1 0 255 0 0 0 0 0 0 0 0 0 1 1 1;
#X msg 301 38 0.2 0.1 0.3 255 0 0 0 0 0 0 0 0 0 1 1 1;
#N canvas 148 23 1132 647 rgbLED 0;
#X obj 297 441 outlet;
#X obj 237 20 inlet list;
#X obj 286 257 zl iter 1;
#X obj 300 113 zl slice 1;
#X obj 108 442 outlet;
#X obj 330 140 zl rev;
#X obj 233 79 zl slice 3;
#X obj 285 361 zl group 36;
#X msg 219 363 zlclear;
#X obj 295 401 t b a;
#X msg 370 46 0.8 1 0 255 1 0 1 1 0 0 0 0 0 1 1 1;
#X obj 298 303 RGBmult;
#X msg 370 81 0.2 0.5 0 255 1 1 1 1 0 0 1 0 1 1 1 0;
#X obj 308 199 list;
#X obj 232 146 t b b a;
#X obj 235 50 t a b;
#X obj 204 278 list;
#X connect 1 0 15 0;
#X connect 2 0 11 0;
#X connect 3 0 16 1;
#X connect 3 1 5 0;
#X connect 5 0 13 1;
#X connect 6 0 14 0;
#X connect 6 1 3 0;
#X connect 7 0 9 0;
#X connect 8 0 7 0;
#X connect 9 1 0 0;
#X connect 10 0 15 0;
#X connect 11 0 7 0;
#X connect 12 0 15 0;
#X connect 13 0 2 0;
#X connect 14 0 16 0;
#X connect 14 1 13 0;
#X connect 14 2 11 1;
#X connect 15 0 6 0;
#X connect 15 1 8 0;
#X connect 16 0 4 0;
#X restore 188 160 pd rgbLED;
#X msg 305 100 0.8 1 0 255 1 0 1 1 0 0 0 0 0 1 1 0;
#X obj 281 320 list_replace;
#X msg 385 259 0.8 1 0 0.8 1 0;
#X obj 498 210 loadbang;
#X obj 279 230 list;
#X obj 652 109 tgl 19 0 empty empty empty 0 -10 0 12 #fcfcfc #000000 #000000 0 1;
#X obj 664 161 + 1;
#X obj 212 266 gate 2 1;
#X obj 632 133 t b a;
#X obj 197 356 list prepend 12 255;
#X msg 553 260 0;
#X connect 0 0 5 0;
#X connect 2 0 14 0;
#X connect 3 0 5 0;
#X connect 5 1 10 1;
#X connect 5 1 13 1;
#X connect 6 0 5 0;
#X connect 7 0 15 0;
#X connect 8 0 7 1;
#X connect 9 0 16 0;
#X connect 9 0 8 0;
#X connect 10 0 13 1;
#X connect 11 0 14 0;
#X connect 12 0 13 0;
#X connect 13 0 15 0;
#X connect 13 1 7 0;
#X connect 14 0 10 0;
#X connect 14 1 12 0;
#X connect 15 0 1 0;
#X connect 16 0 7 2;
#X restore 479 193 pd LEDrgblist;
#X obj 413 63 change;
#X obj 567 61 change;
#N canvas 388 23 892 640 LEDrgblist 0;
#N canvas 148 131 1132 647 rgbLED 0;
#X obj 332 446 outlet;
#X obj 234 25 inlet list;
#X obj 286 257 zl iter 1;
#X obj 300 113 zl slice 1;
#X obj 108 442 outlet;
#X obj 330 140 zl rev;
#X obj 233 79 zl slice 3;
#X obj 285 361 zl group 36;
#X msg 219 363 zlclear;
#X obj 295 401 t b a;
#X msg 360 38 0.8 1 0 255 1 0 1 1 0 0 0 0 0 1 1 1;
#X obj 298 303 RGBmult;
#X msg 370 81 0.2 0.5 0 255 1 1 1 1 0 0 1 0 1 1 1 0;
#X obj 308 199 list;
#X obj 216 143 t b b a;
#X obj 233 52 t a a;
#X obj 149 296 list;
#X connect 1 0 15 0;
#X connect 2 0 11 0;
#X connect 3 0 16 1;
#X connect 3 1 5 0;
#X connect 5 0 13 1;
#X connect 6 0 14 0;
#X connect 6 1 3 0;
#X connect 7 0 9 0;
#X connect 8 0 7 0;
#X connect 9 1 0 0;
#X connect 10 0 15 0;
#X connect 11 0 7 0;
#X connect 12 0 15 0;
#X connect 13 0 2 0;
#X connect 14 0 16 0;
#X connect 14 1 13 0;
#X connect 14 2 11 1;
#X connect 15 0 6 0;
#X connect 15 1 8 0;
#X connect 16 0 4 0;
#X restore 184 152 pd rgbLED;
#X obj 90 43 inlet;
#X obj 196 498 outlet;
#X obj 631 76 inlet;
#X msg 301 38 0.2 0.1 0.3 255 0 0 0 0 0 0 0 0 0 1 1 1;
#X msg 278 8 0.2 0.1 0.3 255 0 0 0 0 0 0 0 0 0 0 0 0;
#X msg 305 100 0.8 1 0 255 1 1 1 1 1 0 0 0 1 1 1 1;
#X msg 329 69 0.8 1 0 255 0 1 1 1 0 0 0 0 0 1 1 0;
#X obj 265 297 list_replace;
#X msg 385 259 0.8 1 0 0.8 1 0;
#X obj 498 210 loadbang;
#X obj 268 230 list;
#X obj 652 109 tgl 19 0 empty empty empty 0 -10 0 12 #fcfcfc #000000 #000000 0 1;
#X obj 664 161 + 1;
#X obj 212 266 gate 2 1;
#X obj 632 133 t b a;
#X obj 197 356 list prepend 0 255;
#X msg 553 260 0;
#X connect 0 1 11 1;
#X connect 0 1 14 1;
#X connect 1 0 0 0;
#X connect 3 0 15 0;
#X connect 4 0 0 0;
#X connect 5 0 0 0;
#X connect 6 0 0 0;
#X connect 7 0 0 0;
#X connect 8 0 16 0;
#X connect 9 0 8 1;
#X connect 10 0 17 0;
#X connect 10 0 9 0;
#X connect 11 0 14 1;
#X connect 12 0 15 0;
#X connect 13 0 14 0;
#X connect 14 0 16 0;
#X connect 14 1 8 0;
#X connect 15 0 11 0;
#X connect 15 1 13 0;
#X connect 16 0 2 0;
#X connect 17 0 8 2;
#X restore 326 192 pd LEDrgblist;
#X msg 703 63 0 0 0 0 0 0 0 0 0 0 0 0 0 0 0 0;
#X msg 95 355 connect 192.168.0.120 7562;
#X msg 227 132 1 1 1 255 1 1 1 1 1 1 1 1 1 1 1 1;
#X connect 0 0 14 0;
#X connect 1 0 11 0;
#X connect 2 0 12 0;
#X connect 3 0 13 0;
#X connect 4 0 15 0;
#X connect 6 0 5 0;
#X connect 7 0 8 0;
#X connect 8 0 5 0;
#X connect 9 0 5 0;
#X connect 10 0 5 0;
#X connect 11 0 10 0;
#X connect 12 0 14 1;
#X connect 13 0 11 1;
#X connect 14 0 10 0;
#X connect 15 0 11 0;
#X connect 15 0 14 0;
#X connect 16 0 5 0;
#X connect 17 0 14 0;
#X restore 581 710 pd LED_show;
#X obj 581 622 r LEDstrip1;
#X obj 679 622 r LEDstrip2;
#X obj 714 689 r LEDaction1;
#X obj 713 712 r LEDaction2;
#X obj 770 623 r LEDreset;
#X text 587 729 LED output;
#X obj 762 395 mode3_sequencer, f 23;
#X obj 844 371 r mode;
#X obj 893 370 r resetD;
#N canvas 47 74 1050 704 ID_flash 0;
#X obj 268 65 r flash;
#X obj 268 89 t b b b;
#X obj 74 511 outlet;
#X obj 373 162 t b b b;
#X obj 317 117 del 200;
#X obj 422 190 del 200;
#X obj 466 222 t b b b;
#X obj 513 244 del 200;
#X obj 562 277 t b b b;
#X obj 611 305 del 200;
#X obj 292 143 del 100, f 9;
#X obj 398 216 del 100, f 9;
#X obj 490 276 del 100, f 9;
#X obj 586 331 del 100, f 9;
#X obj 75 436 LED_color;
#X msg 65 213 1 1 1 1 1 1 1 1 1 1 1 1;
#X msg 178 337 0 0 0 0 0 0 0 0 0 0 0 0;
#X obj 180 402 loadbang;
#X msg 179 427 1 1 1;
#X connect 0 0 1 0;
#X connect 1 0 15 0;
#X connect 1 1 10 0;
#X connect 1 2 4 0;
#X connect 3 0 15 0;
#X connect 3 1 11 0;
#X connect 3 2 5 0;
#X connect 4 0 3 0;
#X connect 5 0 6 0;
#X connect 6 0 15 0;
#X connect 6 1 12 0;
#X connect 6 2 7 0;
#X connect 7 0 8 0;
#X connect 8 0 15 0;
#X connect 8 1 13 0;
#X connect 8 2 9 0;
#X connect 10 0 16 0;
#X connect 11 0 16 0;
#X connect 12 0 16 0;
#X connect 13 0 16 0;
#X connect 14 0 2 0;
#X connect 15 0 14 0;
#X connect 16 0 14 0;
#X connect 17 0 18 0;
#X connect 18 0 14 1;
#X restore 375 661 pd ID_flash;
#X msg 864 16 0;
#N canvas 394 85 886 457 LED_initialfade 0;
#X obj 122 408 outlet;
#X obj 129 104 t b b;
#X obj 129 37 loadbang;
#X obj 91 156 line;
#X obj 174 136 del 3000;
#X msg 175 161 0 1000;
#X obj 256 136 del 5100;
#X obj 129 71 del 6000;
#X obj 228 373 LED_color;
#X msg 79 290 1 1 1 1 1 1 1 1 1 1 1 1;
#X msg 271 282 0 0 0 0 0 0 0 0 0 0 0 0 0;
#X msg 92 131 1 1000;
#X obj 257 334 pack 0 0 0;
#X obj 81 223 t b a a a;
#X obj 400 409 outlet;
#X obj 255 96 bng 19 250 50 0 empty empty empty 0 -10 0 12 #fcfcfc #000000 #000000;
#X obj 370 187 line;
#X msg 369 165 255 1000;
#X msg 443 167 0 1000;
#X obj 370 211 i;
#X obj 356 237 t b a;
#X connect 1 0 11 0;
#X connect 1 0 17 0;
#X connect 1 1 4 0;
#X connect 1 1 6 0;
#X connect 2 0 7 0;
#X connect 3 0 13 0;
#X connect 4 0 5 0;
#X connect 4 0 18 0;
#X connect 5 0 3 0;
#X connect 6 0 10 0;
#X connect 6 0 14 0;
#X connect 7 0 1 0;
#X connect 8 0 0 0;
#X connect 9 0 8 0;
#X connect 10 0 8 0;
#X connect 11 0 3 0;
#X connect 12 0 8 1;
#X connect 13 0 9 0;
#X connect 13 1 12 0;
#X connect 13 2 12 1;
#X connect 13 3 12 2;
#X connect 15 0 1 0;
#X connect 16 0 19 0;
#X connect 17 0 16 0;
#X connect 19 0 20 0;
#X restore 432 627 pd LED_initialfade;
#N canvas 394 85 886 457 LED_initial_tester 0;
#X obj 205 562 outlet;
#X obj 129 104 t b b, f 7;
#X obj 130 13 loadbang;
#X msg 60 161 r 255 1 1 1 1 1 1 1 1 1 1 1 1;
#X msg 123 211 g 255 1 1 1 1 1 1 1 1 1 1 1 1;
#X msg 179 270 b 255 1 1 1 1 1 1 1 1 1 1 1 1;
#X msg 223 328 rg 255 1 1 1 1 1 1 1 1 1 1 1 1;
#X msg 278 384 gb 255 1 1 1 1 1 1 1 1 1 1 1 1;
#X msg 363 449 rb 255 1 1 1 1 1 1 1 1 1 1 1 1;
#X msg 364 507 rgb 255 1 1 1 1 1 1 1 1 1 1 1 1;
#X msg 74 184 rgb 0 0 0 0 0 0 0 0 0 0 0 0 0;
#X obj 320 153 del 100;
#X obj 308 129 del 2000;
#X msg 130 232 rgb 0 0 0 0 0 0 0 0 0 0 0 0 0;
#X obj 397 229 del 100;
#X msg 198 295 rgb 0 0 0 0 0 0 0 0 0 0 0 0 0;
#X obj 465 282 del 100;
#X msg 233 353 rgb 0 0 0 0 0 0 0 0 0 0 0 0 0;
#X msg 288 411 rgb 0 0 0 0 0 0 0 0 0 0 0 0 0;
#X obj 390 206 del 2000;
#X obj 452 260 del 2000;
#X obj 483 317 del 2000;
#X obj 490 349 del 100;
#X obj 512 376 del 2000;
#X obj 525 406 del 100;
#X obj 618 443 del 2000;
#X msg 375 473 rgb 0 0 0 0 0 0 0 0 0 0 0 0 0;
#X obj 628 467 del 100;
#X obj 731 513 del 2000;
#X msg 374 531 rgb 0 0 0 0 0 0 0 0 0 0 0 0 0;
#X obj 130 59 del 6000;
#X connect 1 0 3 0;
#X connect 1 1 12 0;
#X connect 2 0 30 0;
#X connect 3 0 0 0;
#X connect 4 0 0 0;
#X connect 5 0 0 0;
#X connect 6 0 0 0;
#X connect 7 0 0 0;
#X connect 8 0 0 0;
#X connect 9 0 0 0;
#X connect 10 0 0 0;
#X connect 11 0 4 0;
#X connect 11 0 19 0;
#X connect 12 0 10 0;
#X connect 12 0 11 0;
#X connect 13 0 0 0;
#X connect 14 0 5 0;
#X connect 14 0 20 0;
#X connect 15 0 0 0;
#X connect 16 0 6 0;
#X connect 16 0 21 0;
#X connect 17 0 0 0;
#X connect 18 0 0 0;
#X connect 19 0 13 0;
#X connect 19 0 14 0;
#X connect 20 0 16 0;
#X connect 20 0 15 0;
#X connect 21 0 17 0;
#X connect 21 0 22 0;
#X connect 22 0 7 0;
#X connect 22 0 23 0;
#X connect 23 0 18 0;
#X connect 23 0 24 0;
#X connect 24 0 8 0;
#X connect 24 0 25 0;
#X connect 25 0 26 0;
#X connect 25 0 27 0;
#X connect 26 0 0 0;
#X connect 27 0 9 0;
#X connect 27 0 28 0;
#X connect 28 0 29 0;
#X connect 29 0 0 0;
#X connect 30 0 1 0;
#X restore 411 717 pd LED_initial_tester;
#X obj 970 27 zmqReceiver;
#X obj 970 54 zmqSender;
#X obj 581 646 spigot;
#X msg 633 647 1;
#X msg 730 647 1;
#X obj 679 647 spigot;
#X obj 934 394 r jam;
#X msg 608 534 1 100;
#X msg 821 646 1;
#X obj 770 645 spigot;
#X obj 903 52 del 5000;
#X msg 870 114 4;
#X obj 363 215 r mode;
#X obj 634 239 r mode;
#X obj 1070 268 r my_id;
#X msg 1148 396 3;
#X obj 1013 476 s inst;
#X obj 1071 29 loadbang;
#X obj 1073 79 s my_id;
#X obj 1148 339 > 60;
#X obj 1067 111 r my_id;
#X obj 1068 163 sel 1 0;
#X msg 1068 190 actor;
#X obj 1067 213 prepend symbol;
#X msg 1117 189 audience;
#X obj 735 531 print vol;
#X obj 357 313 change;
#X obj 422 313 change;
#X obj 624 313 change;
#X obj 679 313 change;
#X msg 1070 55 59;
#X obj 1068 133 < 7;
#X obj 1127 236 print role;
#X obj 1068 235 s role;
#X obj 763 418 *~ 1;
#X obj 379 260 gate 2;
#X obj 637 262 gate 2;
#X obj 756 369 r playLoop;
#X obj 243 362 r string_mode;
#X obj 534 80 s string_mode;
#X obj 536 36 loadbang;
#X msg 538 58 1;
#X text 69 18 symphony main patch Sept30;
#X obj 243 391 mode_violin;
#X msg 259 295 0;
#X obj 255 249 loadbang;
#X obj 998 367 sel 1;
#X obj 1148 368 sel 1;
#X msg 997 431 0;
#X obj 1063 314 t a a;
#X obj 1094 341 > 15;
#X obj 1065 364 &&;
#X obj 1064 388 sel 1;
#X msg 1066 414 2;
#X obj 998 342 < 16;
#X obj 1051 342 < 61;
#X msg 1149 438 cello;
#X msg 1098 438 viola;
#X msg 1005 393 violin;
#X obj 1097 507 s insttype;
#X obj 1097 478 prepend symbol;
#X obj 905 255 del 1000;
#X obj 877 219 t a b;
#X obj 874 265 i;
#X obj 875 289 == 5;
#X obj 876 314 sel 1;
#X obj 1066 531 print insttype;
#X connect 1 0 2 0;
#X connect 1 1 3 0;
#X connect 5 0 46 0;
#X connect 6 0 1 0;
#X connect 8 0 1 0;
#X connect 9 0 18 0;
#X connect 9 0 18 1;
#X connect 10 0 9 1;
#X connect 11 0 43 0;
#X connect 12 0 10 0;
#X connect 13 0 12 0;
#X connect 13 0 61 0;
#X connect 14 0 9 0;
#X connect 15 0 14 0;
#X connect 16 0 71 1;
#X connect 17 0 72 1;
#X connect 19 0 4 0;
#X connect 20 0 4 0;
#X connect 21 0 4 0;
#X connect 23 0 38 0;
#X connect 24 0 41 0;
#X connect 25 0 22 2;
#X connect 26 0 22 3;
#X connect 27 0 45 0;
#X connect 29 0 70 0;
#X connect 30 0 29 4;
#X connect 31 0 29 5;
#X connect 32 0 22 0;
#X connect 32 0 22 1;
#X connect 33 0 4 0;
#X connect 34 0 22 0;
#X connect 34 0 22 1;
#X connect 34 1 39 0;
#X connect 34 1 40 0;
#X connect 34 1 44 0;
#X connect 38 0 22 0;
#X connect 39 0 38 1;
#X connect 40 0 41 1;
#X connect 41 0 22 1;
#X connect 42 0 29 6;
#X connect 43 0 10 0;
#X connect 44 0 45 1;
#X connect 45 0 22 4;
#X connect 46 0 19 0;
#X connect 47 0 4 0;
#X connect 48 0 71 0;
#X connect 49 0 72 0;
#X connect 50 0 55 0;
#X connect 50 0 85 0;
#X connect 50 0 90 0;
#X connect 51 0 52 0;
#X connect 53 0 66 0;
#X connect 55 0 83 0;
#X connect 56 0 67 0;
#X connect 57 0 58 0;
#X connect 57 1 60 0;
#X connect 58 0 59 0;
#X connect 59 0 68 0;
#X connect 59 0 69 0;
#X connect 60 0 59 0;
#X connect 62 0 79 1;
#X connect 63 0 29 1;
#X connect 64 0 79 2;
#X connect 65 0 29 2;
#X connect 66 0 54 0;
#X connect 67 0 57 0;
#X connect 70 0 15 0;
#X connect 71 0 62 0;
#X connect 71 1 63 0;
#X connect 72 0 64 0;
#X connect 72 1 65 0;
#X connect 73 0 29 0;
#X connect 74 0 79 0;
#X connect 76 0 77 0;
#X connect 77 0 75 0;
#X connect 79 0 15 0;
#X connect 80 0 62 0;
#X connect 80 0 63 0;
#X connect 80 0 64 0;
#X connect 80 0 65 0;
#X connect 81 0 80 0;
#X connect 82 0 84 0;
#X connect 82 0 94 0;
#X connect 83 0 51 0;
#X connect 83 0 92 0;
#X connect 84 0 52 0;
#X connect 85 0 91 0;
#X connect 85 1 86 0;
#X connect 86 0 87 1;
#X connect 87 0 88 0;
#X connect 88 0 89 0;
#X connect 88 0 93 0;
#X connect 89 0 52 0;
#X connect 90 0 82 0;
#X connect 91 0 87 0;
#X connect 92 0 96 0;
#X connect 93 0 96 0;
#X connect 94 0 96 0;
#X connect 96 0 95 0;
#X connect 96 0 102 0;
#X connect 97 0 99 0;
#X connect 98 0 99 1;
#X connect 98 1 97 0;
#X connect 99 0 100 0;
#X connect 100 0 101 0;
#X connect 101 0 92 0;
#X connect 101 0 51 0;
