#N canvas 529 23 751 557 12;
#X obj 355 326 route all;
#X obj 112 43 r my_id;
#X obj 39 32 inlet;
#X obj 39 74 route 1;
#X obj 209 77 r role;
#X obj 355 250 r insttype;
#X obj 208 152 route all;
#X obj 369 468 print could not route \$1;
#X obj 309 300 route s;
#X obj 355 275 prepend symbol;
#X obj 162 127 route s;
#X obj 209 102 prepend symbol;
#X obj 39 399 t a;
#X obj 39 463 outlet;
#X obj 404 150 prepend symbol;
#X obj 404 126 r subgroup;
#X obj 552 326 prepend symbol;
#X obj 552 302 r subgroup;
#X obj 267 178 route __invalidsub__;
#X obj 415 353 route __invalidsub__;
#X obj 499 124 print mysubgroup;
#X connect 0 0 12 0;
#X connect 0 1 19 0;
#X connect 1 0 3 1;
#X connect 2 0 3 0;
#X connect 3 0 12 0;
#X connect 3 1 10 0;
#X connect 4 0 11 0;
#X connect 5 0 9 0;
#X connect 6 0 8 0;
#X connect 6 1 18 0;
#X connect 8 0 12 0;
#X connect 8 1 0 0;
#X connect 9 0 8 1;
#X connect 10 0 8 0;
#X connect 10 1 6 0;
#X connect 11 0 10 1;
#X connect 12 0 13 0;
#X connect 14 0 18 1;
#X connect 15 0 14 0;
#X connect 15 0 20 0;
#X connect 16 0 19 1;
#X connect 17 0 16 0;
#X connect 18 0 8 0;
#X connect 19 0 12 0;
