#N canvas 164 23 920 635 12;
#X obj 297 203 route all;
#X obj 190 21 r my_id;
#X obj 100 32 inlet;
#X obj 94 309 outlet;
#X obj 100 64 route 1;
#X obj 163 85 route audience;
#X obj 280 41 r role;
#X obj 415 40 r insttype;
#X obj 198 174 route violin;
#X obj 302 291 t a;
#X obj 264 115 route all;
#X connect 0 0 3 0;
#X connect 0 0 9 0;
#X connect 1 0 4 1;
#X connect 2 0 4 0;
#X connect 4 0 3 0;
#X connect 4 0 9 0;
#X connect 4 1 5 0;
#X connect 5 0 8 0;
#X connect 5 1 10 0;
#X connect 6 0 5 1;
#X connect 7 0 8 1;
#X connect 8 0 3 0;
#X connect 8 0 9 0;
#X connect 8 1 0 0;
#X connect 10 0 8 0;
