#N canvas 347 23 933 755 12;
#X obj 39 20 loadbang;
#X obj 40 71 metro 1000;
#X msg 39 44 1;
#X msg 188 33 0;
#X obj 42 279 ether;
#X msg 42 252 wlan0;
#X obj 41 139 ipinfo;
#X msg 41 111 wlan0;
#X msg 100 109 en0;
#X obj 41 226 delay 500;
#X obj 60 750 s my_id;
#X obj 41 829 s wifi_ready;
#X obj 155 224 s my_ip;
#X obj 88 196 unpack s s;
#X obj 42 170 t b b l;
#X obj 99 298 print ether;
#X obj 113 157 print IP;
#X obj 74 396 route -1;
#X obj 127 458 t b a;
#X msg 60 721 201;
#X obj 74 372 text search maclut;
#X obj 363 388 loadbang;
#X msg 363 414 read maclut.txt;
#X obj 363 440 text define maclut;
#X obj 394 683 s inst;
#X obj 248 519 s role;
#X obj 370 584 s insttype;
#X msg 349 174 symbol 5C:62:8B:9E:21:2A;
#X msg 349 201 symbol 5C:62:8B:D8:59:34;
#X msg 349 228 symbol 5C:62:8B:D8:37:57;
#X obj 338 608 route violin violin2 viola cello;
#X obj 338 559 t a a;
#X msg 338 638 0;
#X msg 448 638 2;
#X msg 500 638 3;
#X msg 389 638 1;
#X obj 73 665 spigot;
#X obj 42 329 t b a b;
#X msg 140 636 0;
#X msg 104 635 1;
#X obj 132 772 s role;
#X obj 41 483 t b b;
#X text 76 697 default;
#X obj 159 519 s my_id;
#X msg 132 745 symbol audience;
#X msg 100 722 symbol violin;
#X obj 288 762 print;
#X msg 287 735 mac-address not found. use default values.;
#X msg 349 255 symbol 5C:62:8B:9E:21:99;
#X msg 349 282 symbol 5C:62:8B:9E:21:3D;
#X text 537 226 audience cello;
#X text 537 199 audience violine;
#X text 537 253 audience violin2;
#X text 537 280 audience viola;
#X text 537 172 actor violine;
#X msg 349 145 symbol 5C:62:8B:9E:02:4F;
#X text 537 145 actor cello;
#X obj 565 671 print else;
#X obj 338 525 list trim;
#X msg 351 90 symbol 5C:62:8B:67:9F:F8;
#X obj 127 423 text get maclut 1 4;
#X obj 159 490 unpack float symbol symbol symbol;
#X obj 417 525 list trim;
#X text 483 526 not using at the moment;
#X connect 0 0 2 0;
#X connect 1 0 7 0;
#X connect 2 0 1 0;
#X connect 3 0 1 0;
#X connect 4 0 15 0;
#X connect 4 0 37 0;
#X connect 5 0 4 0;
#X connect 6 0 14 0;
#X connect 6 0 16 0;
#X connect 7 0 6 0;
#X connect 8 0 6 0;
#X connect 9 0 5 0;
#X connect 13 1 12 0;
#X connect 14 0 9 0;
#X connect 14 1 3 0;
#X connect 14 2 13 0;
#X connect 17 0 19 0;
#X connect 17 1 60 0;
#X connect 18 0 38 0;
#X connect 18 1 61 0;
#X connect 19 0 10 0;
#X connect 20 0 17 0;
#X connect 21 0 22 0;
#X connect 22 0 23 0;
#X connect 27 0 37 0;
#X connect 28 0 37 0;
#X connect 29 0 37 0;
#X connect 30 0 32 0;
#X connect 30 1 35 0;
#X connect 30 2 33 0;
#X connect 30 3 34 0;
#X connect 30 4 57 0;
#X connect 31 0 30 0;
#X connect 31 1 26 0;
#X connect 32 0 24 0;
#X connect 33 0 24 0;
#X connect 34 0 24 0;
#X connect 35 0 24 0;
#X connect 36 0 19 0;
#X connect 36 0 45 0;
#X connect 36 0 44 0;
#X connect 36 0 47 0;
#X connect 37 0 41 0;
#X connect 37 1 20 0;
#X connect 37 2 39 0;
#X connect 38 0 36 1;
#X connect 39 0 36 1;
#X connect 41 0 11 0;
#X connect 41 1 36 0;
#X connect 44 0 40 0;
#X connect 45 0 31 0;
#X connect 47 0 46 0;
#X connect 48 0 37 0;
#X connect 49 0 37 0;
#X connect 55 0 37 0;
#X connect 58 0 31 0;
#X connect 59 0 37 0;
#X connect 60 0 18 0;
#X connect 61 0 43 0;
#X connect 61 1 25 0;
#X connect 61 2 58 0;
#X connect 61 3 62 0;
