#N canvas 509 57 477 657 12;
#X obj 39 20 loadbang;
#X obj 40 71 metro 1000;
#X msg 39 44 1;
#X msg 188 33 0;
#X obj 42 279 ether;
#X msg 42 252 wlan0;
#X obj 41 139 ipinfo;
#X msg 41 111 wlan0;
#X msg 100 109 en0;
#X obj 41 226 delay 500;
#X obj 109 566 s my_id;
#X obj 77 600 s wifi_ready;
#X obj 172 567 print ID;
#X obj 155 224 s my_ip;
#X obj 88 196 unpack s s;
#X obj 42 170 t b b l;
#X obj 146 297 print ether;
#X obj 113 157 print IP;
#X obj 95 430 text get maclut 1;
#X obj 42 403 route -1;
#X obj 24 520 print cantfind;
#X obj 95 457 t b a;
#X msg 34 462 201;
#X obj 42 379 text search maclut;
#X obj 289 327 loadbang;
#X msg 289 353 read maclut.txt;
#X obj 289 379 text define maclut;
#X connect 0 0 2 0;
#X connect 1 0 7 0;
#X connect 2 0 1 0;
#X connect 3 0 1 0;
#X connect 4 0 16 0;
#X connect 4 0 23 0;
#X connect 5 0 4 0;
#X connect 6 0 15 0;
#X connect 6 0 17 0;
#X connect 7 0 6 0;
#X connect 8 0 6 0;
#X connect 9 0 5 0;
#X connect 14 1 13 0;
#X connect 15 0 9 0;
#X connect 15 1 3 0;
#X connect 15 2 14 0;
#X connect 18 0 21 0;
#X connect 19 0 22 0;
#X connect 19 1 18 0;
#X connect 21 0 11 0;
#X connect 21 1 12 0;
#X connect 21 1 10 0;
#X connect 22 0 10 0;
#X connect 22 0 20 0;
#X connect 23 0 19 0;
#X connect 24 0 25 0;
#X connect 25 0 26 0;
