#N canvas 284 23 888 555 12;
#X obj 102 308 list trim;
#X obj 321 202 list append 255;
#X obj 298 76 inlet color;
#X obj 105 56 inlet list;
#X obj 100 374 outlet;
#X text 394 74 RGB color value between 0-1;
#X obj 101 283 list prepend 0.5 0.5 0.5 255;
#X obj 623 68 inlet intensity;
#X obj 623 97 t b a;
#X obj 334 170 list;
#X obj 104 108 t a b;
#X msg 471 344 <index> <intensity> r g b r g b r g b;
#X connect 0 0 4 0;
#X connect 1 0 6 1;
#X connect 2 0 1 0;
#X connect 2 0 9 1;
#X connect 3 0 10 0;
#X connect 6 0 0 0;
#X connect 7 0 8 0;
#X connect 8 0 9 0;
#X connect 8 1 1 1;
#X connect 9 0 1 0;
#X connect 10 0 6 0;
#X connect 10 1 9 0;
