#N canvas 277 238 747 498 12;
#X msg 473 123 1 2 3 4 5 6 7 8 9;
#X obj 37 250 list split;
#X obj 623 153 list split 1;
#X msg 621 125 2 10 11;
#X obj 216 239 list length;
#X obj 184 212 t a a;
#X obj 37 379 list;
#X obj 70 288 list split;
#X obj 571 91 t b b;
#X obj 566 44 bng 19 250 50 0 empty empty empty 0 -10 0 12 #fcfcfc #000000 #000000;
#X obj 103 327 list prepend;
#X obj 68 207 list length;
#X obj 36 181 t a a;
#X obj 37 417 list split;
#X obj 36 36 inlet list;
#X text 120 417 make sure list is same length as input-list;
#X obj 340 36 inlet index;
#X obj 340 89 i;
#X obj 184 36 inlet replace-data;
#X obj 37 455 outlet;
#X connect 0 0 12 0;
#X connect 1 0 6 0;
#X connect 1 1 7 0;
#X connect 2 0 17 0;
#X connect 2 1 5 0;
#X connect 3 0 2 0;
#X connect 4 0 7 1;
#X connect 5 0 10 1;
#X connect 5 1 4 0;
#X connect 6 0 13 0;
#X connect 7 1 10 0;
#X connect 8 0 0 0;
#X connect 8 1 3 0;
#X connect 9 0 8 0;
#X connect 10 0 6 1;
#X connect 11 0 13 1;
#X connect 12 0 1 0;
#X connect 12 1 11 0;
#X connect 13 0 19 0;
#X connect 14 0 12 0;
#X connect 16 0 17 0;
#X connect 17 0 1 1;
#X connect 18 0 5 0;
