#N canvas 419 23 771 744 12;
#X obj 27 80 select 0 1 2 3 4 5 6 7 8 9 10 11;
#X obj 244 506 list;
#X obj 31 -28 inlet;
#X obj 301 627 outlet;
#X obj 429 73 select 0 1 2 3 4 5 6 7 8 9 10 11;
#X msg 428 444 1 0 0 0 0 0 0 0 0 0 0 0;
#X msg 446 415 0 1 0 0 0 0 0 0 0 0 0 0;
#X msg 464 386 0 0 1 0 0 0 0 0 0 0 0 0;
#X msg 484 357 0 0 0 1 0 0 0 0 0 0 0 0;
#X msg 504 328 0 0 0 0 1 0 0 0 0 0 0 0;
#X msg 524 299 0 0 0 0 0 1 0 0 0 0 0 0;
#X msg 544 270 0 0 0 0 0 0 1 0 0 0 0 0;
#X msg 564 241 0 0 0 0 0 0 0 1 0 0 0 0;
#X msg 584 212 0 0 0 0 0 0 0 0 1 0 0 0;
#X msg 624 154 0 0 0 0 0 0 0 0 0 0 1 0;
#X msg 604 183 0 0 0 0 0 0 0 0 0 1 0 0;
#X msg 644 125 1 1 1 1 1 1 1 1 1 1 1 1;
#X obj 646 499 list;
#X msg 222 161 0 0 0 0 0 0 0 0 0 0 0.5 0;
#X msg 202 190 0 0 0 0 0 0 0 0 0 0.5 0 0;
#X msg 182 219 0 0 0 0 0 0 0 0 0.5 0 0 0;
#X msg 162 248 0 0 0 0 0 0 0 0.5 0 0 0 0;
#X msg 142 277 0 0 0 0 0 0 0.5 0 0 0 0 0;
#X msg 122 306 0 0 0 0 0 0.5 0 0 0 0 0 0;
#X msg 102 335 0 0 0 0 0.5 0 0 0 0 0 0 0;
#X msg 82 364 0 0 0 0.5 0 0 0 0 0 0 0 0;
#X msg 62 393 0 0 0.5 0 0 0 0 0 0 0 0 0;
#X msg 44 422 0 0.5 0 0 0 0 0 0 0 0 0 0;
#X msg 26 451 0.5 0 0 0 0 0 0 0 0 0 0 0;
#X msg 242 132 0.5 0.5 0.5 0.5 0.5 0.5 0.5 0.5 0.5 0.5 0.5 0.5;
#X obj 263 36 gate 2 1;
#X obj 261 -28 r beatActive;
#X obj 261 -4 + 1;
#X connect 0 0 28 0;
#X connect 0 1 27 0;
#X connect 0 2 26 0;
#X connect 0 3 25 0;
#X connect 0 4 24 0;
#X connect 0 5 23 0;
#X connect 0 6 22 0;
#X connect 0 7 21 0;
#X connect 0 8 20 0;
#X connect 0 9 19 0;
#X connect 0 10 18 0;
#X connect 0 11 29 0;
#X connect 1 0 3 0;
#X connect 2 0 30 1;
#X connect 4 0 5 0;
#X connect 4 1 6 0;
#X connect 4 2 7 0;
#X connect 4 3 8 0;
#X connect 4 4 9 0;
#X connect 4 5 10 0;
#X connect 4 6 11 0;
#X connect 4 7 12 0;
#X connect 4 8 13 0;
#X connect 4 9 15 0;
#X connect 4 10 14 0;
#X connect 4 11 16 0;
#X connect 5 0 17 0;
#X connect 6 0 17 0;
#X connect 7 0 17 0;
#X connect 8 0 17 0;
#X connect 9 0 17 0;
#X connect 10 0 17 0;
#X connect 11 0 17 0;
#X connect 12 0 17 0;
#X connect 13 0 17 0;
#X connect 14 0 17 0;
#X connect 15 0 17 0;
#X connect 16 0 17 0;
#X connect 17 0 3 0;
#X connect 18 0 1 0;
#X connect 19 0 1 0;
#X connect 20 0 1 0;
#X connect 21 0 1 0;
#X connect 22 0 1 0;
#X connect 23 0 1 0;
#X connect 24 0 1 0;
#X connect 25 0 1 0;
#X connect 26 0 1 0;
#X connect 27 0 1 0;
#X connect 28 0 1 0;
#X connect 29 0 1 0;
#X connect 30 0 0 0;
#X connect 30 1 4 0;
#X connect 31 0 32 0;
#X connect 32 0 30 0;
