#N canvas 110 387 1280 755 12;
#X declare -lib zexy;
#X obj 513 782 outlet~;
#X obj 518 462 vline~;
#X obj 561 244 bng 19 250 50 0 empty empty empty 0 -10 0 12 #fcfcfc #000000 #000000;
#X msg 601 434 stop;
#X obj 747 462 vline~;
#X msg 830 434 stop;
#X obj 750 586 *~ 1;
#X msg 747 434 0 \, \$2 \$3;
#X msg 518 434 0 \, \$2 \$3;
#X obj 518 395 pack 0 f f;
#X obj 747 395 pack 0 f f;
#X obj 728 317 expr $f2 / 48;
#X obj 957 511 hsl 162 19 0 1 0 0 empty empty empty -2 -10 0 12 #fcfcfc #000000 #000000 0 1;
#X obj 954 538 - 1;
#X obj 954 565 abs;
#X obj 957 592 hsl 162 19 0 1 0 0 empty empty empty -2 -10 0 12 #fcfcfc #000000 #000000 0 1;
#X floatatom 645 288 9 0 0 0 - - - 0;
#X obj 570 316 del 4010;
#X obj 690 148 tgl 19 0 empty empty empty 0 -10 0 12 #fcfcfc #000000 #000000 0 1;
#X obj 951 333 sel 1 0;
#X obj 954 459 line;
#X obj 951 307 t a;
#N canvas 185 23 1163 755 voiceViolinLoader 1;
#N canvas 698 241 450 278 (subpatch) 0;
#X array shauhin_voice 302252 float 2;
#X coords 0 1 302252 -1 200 140 1 0 0;
#X restore 708 624 graph;
#X obj 58 544 soundfiler;
#X floatatom 79 572 16 0 0 0 - - - 0;
#N canvas 635 172 450 278 (subpatch) 0;
#X array shauhin_violin 302258 float 2;
#X coords 0 1 302258 -1 200 140 1 0 0;
#X restore 499 622 graph;
#X obj 410 544 soundfiler;
#X floatatom 410 566 16 0 0 0 - - - 0;
#X obj 58 751 outlet;
#X obj 58 136 random 9;
#X msg 91 108 seed \$1;
#X obj 57 84 t b a;
#X obj 203 93 bng 19 250 50 0 empty empty empty 0 -10 0 12 #fcfcfc #000000 #000000;
#X msg 153 79 4;
#X floatatom 138 134 5 0 0 0 - - - 0;
#X obj 388 110 inlet;
#X msg 203 71 9;
#X obj 58 58 r my_id;
#X obj 541 105 t b;
#X msg 322 306 read -resize 001.wav shauhin_voice;
#X msg 283 333 read -resize 002.wav shauhin_voice;
#X msg 672 308 read -resize 001_Vp.wav shauhin_violin;
#X msg 633 335 read -resize 002_Vp.wav shauhin_violin;
#X msg 258 358 read -resize 004.wav shauhin_voice;
#X msg 608 360 read -resize 004_Vp.wav shauhin_violin;
#X obj 461 162 counter 0 2;
#X obj 463 203 sel 0 1 2;
#X obj 540 79 r mode2next;
#X msg 392 166 0;
#X obj 470 18 r my_id;
#X obj 470 42 % 3;
#X obj 615 113 r mode2sample;
#X obj 463 110 i;
#X obj 464 81 t b a;
#X floatatom 495 138 5 0 0 0 - - - 0;
#X msg 419 24 13;
#X obj 642 155 hradio 19 1 0 3 empty empty empty 0 -10 0 12 #fcfcfc #000000 #000000 0;
#X obj 561 49 bng 19 250 50 0 empty empty empty 0 -10 0 12 #fcfcfc #000000 #000000;
#X obj 416 217 bng 19 250 50 0 empty empty empty 0 -10 0 12 #fcfcfc #000000 #000000;
#X obj 551 129 bng 19 250 50 0 empty empty empty 0 -10 0 12 #fcfcfc #000000 #000000;
#X connect 1 0 2 0;
#X connect 1 0 6 0;
#X connect 4 0 5 0;
#X connect 7 0 12 0;
#X connect 8 0 7 0;
#X connect 9 0 7 0;
#X connect 9 1 8 0;
#X connect 10 0 7 0;
#X connect 11 0 9 0;
#X connect 13 0 26 0;
#X connect 14 0 9 0;
#X connect 15 0 9 0;
#X connect 16 0 30 0;
#X connect 16 0 37 0;
#X connect 17 0 1 0;
#X connect 18 0 1 0;
#X connect 19 0 4 0;
#X connect 20 0 4 0;
#X connect 21 0 1 0;
#X connect 22 0 4 0;
#X connect 23 0 24 0;
#X connect 24 0 17 0;
#X connect 24 0 19 0;
#X connect 24 1 18 0;
#X connect 24 1 20 0;
#X connect 24 1 36 0;
#X connect 24 2 21 0;
#X connect 24 2 22 0;
#X connect 25 0 16 0;
#X connect 27 0 28 0;
#X connect 28 0 31 0;
#X connect 29 0 24 0;
#X connect 30 0 32 0;
#X connect 30 0 24 0;
#X connect 31 0 30 0;
#X connect 31 1 30 1;
#X connect 33 0 28 0;
#X connect 34 0 24 0;
#X connect 35 0 16 0;
#X restore 730 260 pd voiceViolinLoader;
#X obj 518 490 tabread4~ shauhin_voice;
#X obj 747 490 tabread4~ shauhin_violin;
#X obj 695 209 t b b;
#X obj 1140 219 switch~;
#X text 1029 -16 mode;
#X obj 38 449 s LEDstrip1;
#X obj 217 448 s LEDstrip2;
#X obj 217 417 LED_color;
#X obj 38 417 LED_color;
#X obj 80 346 loadbang;
#X obj 260 346 loadbang;
#X obj 216 317 t a b;
#X obj 38 317 t a b;
#X msg 144 374 0.8 1 0;
#X msg 327 375 0.4 1 0;
#X msg 71 374 0 0.8 0.8;
#X msg 249 375 0.1 0.5 1;
#X obj 122 79 sel 2;
#X msg 118 105 1;
#X obj 151 104 t b b;
#N canvas 13 77 1127 701 ledstrip1 0;
#X obj 81 7 inlet;
#X obj 639 659 outlet;
#X obj 78 651 outlet;
#X obj 572 42 inlet;
#X obj 280 650 outlet;
#X obj 132 32 tgl 19 0 empty empty empty 0 -10 0 12 #fcfcfc #000000 #000000 0 1;
#X obj 131 65 tgl 19 0 empty empty empty 0 -10 0 12 #fcfcfc #000000 #000000 0 1;
#X obj 81 64 t a a;
#X obj 130 131 tgl 19 0 empty empty empty 0 -10 0 12 #fcfcfc #000000 #000000 0 1;
#X obj 80 130 t a a;
#X obj 131 198 tgl 19 0 empty empty empty 0 -10 0 12 #fcfcfc #000000 #000000 0 1;
#X obj 81 197 t a a;
#X obj 131 318 tgl 19 0 empty empty empty 0 -10 0 12 #fcfcfc #000000 #000000 0 1;
#X obj 81 317 t a a;
#X obj 130 384 tgl 19 0 empty empty empty 0 -10 0 12 #fcfcfc #000000 #000000 0 1;
#X obj 80 383 t a a;
#X obj 295 92 tgl 19 0 empty empty empty 0 -10 0 12 #fcfcfc #000000 #000000 0 1;
#X obj 245 91 t a a;
#X obj 296 161 tgl 19 0 empty empty empty 0 -10 0 12 #fcfcfc #000000 #000000 0 1;
#X obj 246 160 t a a;
#X obj 296 228 tgl 19 0 empty empty empty 0 -10 0 12 #fcfcfc #000000 #000000 0 1;
#X obj 246 227 t a a;
#X obj 295 294 tgl 19 0 empty empty empty 0 -10 0 12 #fcfcfc #000000 #000000 0 1;
#X obj 245 293 t a a;
#X obj 296 361 tgl 19 0 empty empty empty 0 -10 0 12 #fcfcfc #000000 #000000 0 1;
#X obj 246 360 t a a;
#X obj 221 592 tgl 19 0 empty empty empty 0 -10 0 12 #fcfcfc #000000 #000000 0 1;
#X obj 248 499 t a b a;
#X obj 130 257 tgl 19 0 empty empty empty 0 -10 0 12 #fcfcfc #000000 #000000 0 1;
#X obj 80 256 t a a;
#X msg 573 112 clear;
#X obj 247 418 route 0;
#X msg 248 472 0;
#X obj 572 78 t b b;
#X msg 533 73 0;
#X msg 635 112 0 0 0 0 0 0 0 0 0 0 0 0;
#X obj 686 575 pak 0 0 0 0 0 0 0 0 0 0 0 0, f 49;
#X msg 161 501 1;
#X obj 160 473 sel 1;
#X obj 81 95 pipe 100;
#X obj 80 161 pipe 100;
#X obj 81 228 pipe 100;
#X obj 80 287 pipe 100;
#X obj 81 348 pipe 100;
#X obj 246 66 pipe 100;
#X obj 245 122 pipe 100;
#X obj 246 191 pipe 100;
#X obj 246 258 pipe 100;
#X obj 245 324 pipe 100;
#X obj 246 391 pipe 100;
#X obj 247 448 delay 200;
#X obj 965 58 inlet;
#X obj 662 617 spigot;
#X obj 81 36 t a b;
#X msg 772 620 1;
#X msg 804 618 0;
#X obj 784 667 change;
#X obj 789 642 tgl 19 0 empty empty empty 0 -10 0 12 #fcfcfc #000000 #000000 0 1;
#X connect 0 0 53 0;
#X connect 3 0 33 0;
#X connect 5 0 7 0;
#X connect 7 0 39 0;
#X connect 7 1 6 0;
#X connect 7 1 36 0;
#X connect 9 0 40 0;
#X connect 9 1 8 0;
#X connect 9 1 36 1;
#X connect 11 0 41 0;
#X connect 11 1 10 0;
#X connect 11 1 36 2;
#X connect 13 0 43 0;
#X connect 13 1 12 0;
#X connect 13 1 36 4;
#X connect 15 0 44 0;
#X connect 15 1 14 0;
#X connect 15 1 36 5;
#X connect 17 0 45 0;
#X connect 17 0 38 0;
#X connect 17 1 16 0;
#X connect 17 1 36 6;
#X connect 19 0 46 0;
#X connect 19 1 18 0;
#X connect 19 1 36 7;
#X connect 21 0 47 0;
#X connect 21 1 20 0;
#X connect 21 1 36 8;
#X connect 23 0 48 0;
#X connect 23 1 22 0;
#X connect 23 1 36 9;
#X connect 25 0 49 0;
#X connect 25 1 24 0;
#X connect 25 1 36 10;
#X connect 26 0 4 0;
#X connect 27 0 2 0;
#X connect 27 2 36 11;
#X connect 29 0 42 0;
#X connect 29 1 28 0;
#X connect 29 1 36 3;
#X connect 30 0 39 0;
#X connect 30 0 40 0;
#X connect 30 0 41 0;
#X connect 30 0 42 0;
#X connect 30 0 43 0;
#X connect 30 0 44 0;
#X connect 30 0 45 0;
#X connect 30 0 46 0;
#X connect 30 0 47 0;
#X connect 30 0 48 0;
#X connect 30 0 49 0;
#X connect 31 0 50 0;
#X connect 31 1 27 0;
#X connect 32 0 27 0;
#X connect 32 0 26 0;
#X connect 33 0 35 0;
#X connect 33 0 34 0;
#X connect 33 1 30 0;
#X connect 33 1 55 0;
#X connect 34 0 7 0;
#X connect 35 0 1 0;
#X connect 36 0 52 0;
#X connect 37 0 26 0;
#X connect 38 0 37 0;
#X connect 39 0 9 0;
#X connect 40 0 11 0;
#X connect 41 0 29 0;
#X connect 42 0 13 0;
#X connect 43 0 15 0;
#X connect 44 0 17 0;
#X connect 45 0 19 0;
#X connect 46 0 21 0;
#X connect 47 0 23 0;
#X connect 48 0 25 0;
#X connect 49 0 31 0;
#X connect 50 0 32 0;
#X connect 51 0 39 1;
#X connect 51 0 40 1;
#X connect 51 0 41 1;
#X connect 51 0 42 1;
#X connect 51 0 43 1;
#X connect 51 0 44 1;
#X connect 51 0 45 1;
#X connect 51 0 46 1;
#X connect 51 0 47 1;
#X connect 51 0 48 1;
#X connect 51 0 49 1;
#X connect 52 0 1 0;
#X connect 53 0 7 0;
#X connect 53 1 54 0;
#X connect 54 0 57 0;
#X connect 55 0 57 0;
#X connect 56 0 52 1;
#X connect 57 0 56 0;
#X restore 32 152 pd ledstrip1;
#X obj 72 221 &&;
#X obj 72 191 t b a;
#X obj 72 251 s LEDaction1;
#N canvas 314 84 1127 701 ledstrip2 0;
#X obj 81 7 inlet;
#X obj 639 659 outlet;
#X obj 78 651 outlet;
#X obj 572 42 inlet;
#X obj 280 650 outlet;
#X obj 132 32 tgl 19 0 empty empty empty 0 -10 0 12 #fcfcfc #000000 #000000 0 1;
#X obj 131 65 tgl 19 0 empty empty empty 0 -10 0 12 #fcfcfc #000000 #000000 0 1;
#X obj 81 64 t a a;
#X obj 130 131 tgl 19 0 empty empty empty 0 -10 0 12 #fcfcfc #000000 #000000 0 1;
#X obj 80 130 t a a;
#X obj 131 198 tgl 19 0 empty empty empty 0 -10 0 12 #fcfcfc #000000 #000000 0 1;
#X obj 81 197 t a a;
#X obj 131 318 tgl 19 0 empty empty empty 0 -10 0 12 #fcfcfc #000000 #000000 0 1;
#X obj 81 317 t a a;
#X obj 130 384 tgl 19 0 empty empty empty 0 -10 0 12 #fcfcfc #000000 #000000 0 1;
#X obj 80 383 t a a;
#X obj 295 92 tgl 19 0 empty empty empty 0 -10 0 12 #fcfcfc #000000 #000000 0 1;
#X obj 245 91 t a a;
#X obj 296 161 tgl 19 0 empty empty empty 0 -10 0 12 #fcfcfc #000000 #000000 0 1;
#X obj 246 160 t a a;
#X obj 296 228 tgl 19 0 empty empty empty 0 -10 0 12 #fcfcfc #000000 #000000 0 1;
#X obj 246 227 t a a;
#X obj 295 294 tgl 19 0 empty empty empty 0 -10 0 12 #fcfcfc #000000 #000000 0 1;
#X obj 245 293 t a a;
#X obj 296 361 tgl 19 0 empty empty empty 0 -10 0 12 #fcfcfc #000000 #000000 0 1;
#X obj 246 360 t a a;
#X obj 221 592 tgl 19 0 empty empty empty 0 -10 0 12 #fcfcfc #000000 #000000 0 1;
#X obj 248 499 t a b a;
#X obj 130 257 tgl 19 0 empty empty empty 0 -10 0 12 #fcfcfc #000000 #000000 0 1;
#X obj 80 256 t a a;
#X msg 573 112 clear;
#X obj 247 418 route 0;
#X msg 248 472 0;
#X obj 572 78 t b b;
#X msg 533 73 0;
#X msg 635 112 0 0 0 0 0 0 0 0 0 0 0 0;
#X obj 686 575 pak 0 0 0 0 0 0 0 0 0 0 0 0, f 49;
#X msg 161 501 1;
#X obj 160 473 sel 1;
#X obj 81 95 pipe 100;
#X obj 80 161 pipe 100;
#X obj 81 228 pipe 100;
#X obj 80 287 pipe 100;
#X obj 81 348 pipe 100;
#X obj 246 66 pipe 100;
#X obj 245 122 pipe 100;
#X obj 246 191 pipe 100;
#X obj 246 258 pipe 100;
#X obj 245 324 pipe 100;
#X obj 246 391 pipe 100;
#X obj 247 448 delay 200;
#X obj 965 58 inlet;
#X obj 662 617 spigot;
#X obj 81 36 t a b;
#X msg 772 620 1;
#X msg 804 618 0;
#X obj 784 667 change;
#X obj 789 642 tgl 19 0 empty empty empty 0 -10 0 12 #fcfcfc #000000 #000000 0 1;
#X connect 0 0 53 0;
#X connect 3 0 33 0;
#X connect 5 0 7 0;
#X connect 7 0 39 0;
#X connect 7 1 6 0;
#X connect 7 1 36 0;
#X connect 9 0 40 0;
#X connect 9 1 8 0;
#X connect 9 1 36 1;
#X connect 11 0 41 0;
#X connect 11 1 10 0;
#X connect 11 1 36 2;
#X connect 13 0 43 0;
#X connect 13 1 12 0;
#X connect 13 1 36 4;
#X connect 15 0 44 0;
#X connect 15 1 14 0;
#X connect 15 1 36 5;
#X connect 17 0 45 0;
#X connect 17 0 38 0;
#X connect 17 1 16 0;
#X connect 17 1 36 6;
#X connect 19 0 46 0;
#X connect 19 1 18 0;
#X connect 19 1 36 7;
#X connect 21 0 47 0;
#X connect 21 1 20 0;
#X connect 21 1 36 8;
#X connect 23 0 48 0;
#X connect 23 1 22 0;
#X connect 23 1 36 9;
#X connect 25 0 49 0;
#X connect 25 1 24 0;
#X connect 25 1 36 10;
#X connect 26 0 4 0;
#X connect 27 0 2 0;
#X connect 27 2 36 11;
#X connect 29 0 42 0;
#X connect 29 1 28 0;
#X connect 29 1 36 3;
#X connect 30 0 39 0;
#X connect 30 0 40 0;
#X connect 30 0 41 0;
#X connect 30 0 42 0;
#X connect 30 0 43 0;
#X connect 30 0 44 0;
#X connect 30 0 45 0;
#X connect 30 0 46 0;
#X connect 30 0 47 0;
#X connect 30 0 48 0;
#X connect 30 0 49 0;
#X connect 31 0 50 0;
#X connect 31 1 27 0;
#X connect 32 0 27 0;
#X connect 32 0 26 0;
#X connect 33 0 35 0;
#X connect 33 0 34 0;
#X connect 33 1 30 0;
#X connect 33 1 55 0;
#X connect 34 0 7 0;
#X connect 35 0 1 0;
#X connect 36 0 52 0;
#X connect 37 0 26 0;
#X connect 38 0 37 0;
#X connect 39 0 9 0;
#X connect 40 0 11 0;
#X connect 41 0 29 0;
#X connect 42 0 13 0;
#X connect 43 0 15 0;
#X connect 44 0 17 0;
#X connect 45 0 19 0;
#X connect 46 0 21 0;
#X connect 47 0 23 0;
#X connect 48 0 25 0;
#X connect 49 0 31 0;
#X connect 50 0 32 0;
#X connect 51 0 39 1;
#X connect 51 0 40 1;
#X connect 51 0 41 1;
#X connect 51 0 42 1;
#X connect 51 0 43 1;
#X connect 51 0 44 1;
#X connect 51 0 45 1;
#X connect 51 0 46 1;
#X connect 51 0 47 1;
#X connect 51 0 48 1;
#X connect 51 0 49 1;
#X connect 52 0 1 0;
#X connect 53 0 7 0;
#X connect 53 1 54 0;
#X connect 54 0 57 0;
#X connect 55 0 57 0;
#X connect 56 0 52 1;
#X connect 57 0 56 0;
#X restore 168 143 pd ledstrip2;
#X obj 208 221 &&;
#X obj 208 191 t b a;
#X obj 208 251 s LEDaction2;
#X msg 127 45 2;
#X obj 641 113 ||;
#X obj 641 87 t b a;
#X msg 82 44 0;
#X obj 514 627 *~ 0;
#X obj 951 281 tgl 19 0 empty empty empty 0 -10 0 12 #fcfcfc #000000 #000000 0 1;
#X msg 1007 425 1 500;
#X obj 1017 130 sel 1;
#X obj 1009 162 del 100;
#X msg 1054 425 1 50;
#X obj 651 170 spigot;
#X obj 514 758 *~;
#X obj 1147 700 line;
#X msg 1102 670 1 100;
#X msg 1189 672 0 1000;
#X obj 1146 644 sel 1 0;
#X obj 752 614 *~ 0.3;
#X obj 954 483 expr $f1 *$f1 * $f1;
#X msg 954 425 0 4000;
#X obj 774 560 scale 0 1 0.3 1;
#X obj 729 292 t b a;
#X msg 923 155 stop;
#X obj 925 129 sel 0;
#X obj 1163 154 del 1001;
#X msg 1178 181 0;
#X msg 1140 189 1;
#X obj 1140 130 sel 1 0;
#X obj 1321 214 r my_id;
#X msg 1304 446 seed \$1;
#X obj 1279 498 + 1000;
#X obj 1279 474 random 6000;
#X obj 16 -17 declare -lib zexy;
#X obj 1321 270 time, f 7;
#X obj 1368 328 *;
#X obj 1368 297 i;
#X obj 1321 242 t b a, f 9;
#X msg 1283 216 1;
#X obj 1335 600 del;
#X obj 1335 570 t b a;
#X obj 938 239 t b b;
#X obj 1261 215 bng 19 250 50 0 empty empty empty 0 -10 0 12 #fcfcfc #000000 #000000;
#X floatatom 1293 522 5 0 0 0 - - - 0;
#X obj 1279 404 gate 2 1;
#X obj 1404 423 *;
#X obj 1404 398 t b a;
#X msg 1404 448 seed \$1;
#X obj 1279 378 + 1;
#X floatatom 1373 524 5 0 0 0 - - - 0;
#X obj 1373 476 random 4000;
#X obj 1373 500 + 800;
#X obj 1199 219 tgl 19 0 empty empty empty 0 -10 0 12 #fcfcfc #000000 #000000 0 1;
#X obj 1071 69 &;
#X msg 1090 14 1;
#X obj 1091 -11 loadbang;
#X obj 1044 70 tgl 19 0 empty empty empty 0 -10 0 12 #fcfcfc #000000 #000000 0 1;
#X obj 1088 42 << 1;
#X obj 1158 555 r mode12cross;
#X obj 567 735 sig~;
#X obj 1226 580 r mode2on;
#X obj 1231 318 r mode2auto;
#X obj 1027 5 r mode;
#X obj 568 -19 r sensor1;
#X obj 656 -19 r sensor2;
#X obj 648 47 spigot;
#X obj 580 65 spigot;
#X obj 805 14 r mode2bow;
#X obj 1069 94 > 0;
#X msg 1233 617 1 1000;
#X msg 1158 612 1 \$1;
#X connect 1 0 23 0;
#X connect 2 0 9 0;
#X connect 2 0 10 0;
#X connect 2 0 17 0;
#X connect 3 0 1 0;
#X connect 4 0 24 0;
#X connect 5 0 4 0;
#X connect 6 0 67 0;
#X connect 7 0 4 0;
#X connect 8 0 1 0;
#X connect 9 0 8 0;
#X connect 10 0 7 0;
#X connect 11 0 9 2;
#X connect 11 0 16 0;
#X connect 11 0 10 2;
#X connect 12 0 13 0;
#X connect 12 0 70 0;
#X connect 13 0 14 0;
#X connect 14 0 15 0;
#X connect 15 0 55 1;
#X connect 16 0 17 1;
#X connect 17 0 61 0;
#X connect 18 0 61 1;
#X connect 19 0 69 0;
#X connect 19 1 57 0;
#X connect 20 0 68 0;
#X connect 21 0 19 0;
#X connect 21 0 97 0;
#X connect 22 0 9 1;
#X connect 22 0 10 1;
#X connect 22 0 71 0;
#X connect 23 0 55 0;
#X connect 24 0 6 0;
#X connect 25 0 2 0;
#X connect 30 0 29 0;
#X connect 31 0 28 0;
#X connect 32 0 38 0;
#X connect 33 0 39 0;
#X connect 34 0 30 0;
#X connect 34 1 39 0;
#X connect 35 0 31 0;
#X connect 35 1 38 0;
#X connect 36 0 31 1;
#X connect 37 0 30 1;
#X connect 38 0 31 1;
#X connect 39 0 30 1;
#X connect 40 0 41 0;
#X connect 40 1 42 0;
#X connect 41 0 43 0;
#X connect 41 0 47 0;
#X connect 42 1 43 1;
#X connect 42 1 47 1;
#X connect 43 1 45 0;
#X connect 43 2 35 0;
#X connect 44 0 46 0;
#X connect 45 0 44 0;
#X connect 45 1 44 1;
#X connect 47 1 49 0;
#X connect 47 2 34 0;
#X connect 48 0 50 0;
#X connect 49 0 48 0;
#X connect 49 1 48 1;
#X connect 51 0 40 0;
#X connect 52 0 19 0;
#X connect 53 0 52 0;
#X connect 53 1 52 1;
#X connect 54 0 40 0;
#X connect 55 0 62 0;
#X connect 56 0 21 0;
#X connect 57 0 20 0;
#X connect 58 0 59 0;
#X connect 58 0 60 0;
#X connect 59 0 25 0;
#X connect 60 0 20 0;
#X connect 61 0 2 0;
#X connect 62 0 0 0;
#X connect 63 0 108 0;
#X connect 64 0 63 0;
#X connect 65 0 63 0;
#X connect 66 1 65 0;
#X connect 67 0 62 0;
#X connect 68 0 12 0;
#X connect 69 0 20 0;
#X connect 70 0 6 1;
#X connect 71 0 11 0;
#X connect 71 1 11 1;
#X connect 72 0 17 0;
#X connect 72 0 88 0;
#X connect 73 0 72 0;
#X connect 74 0 75 0;
#X connect 75 0 26 0;
#X connect 75 0 101 0;
#X connect 76 0 26 0;
#X connect 76 0 101 0;
#X connect 77 0 76 0;
#X connect 77 1 74 0;
#X connect 78 0 86 0;
#X connect 79 0 81 0;
#X connect 80 0 89 0;
#X connect 80 0 92 0;
#X connect 81 0 80 0;
#X connect 83 3 85 0;
#X connect 84 0 79 0;
#X connect 84 0 95 0;
#X connect 85 0 84 0;
#X connect 86 0 83 0;
#X connect 86 1 84 1;
#X connect 87 0 86 0;
#X connect 88 0 90 0;
#X connect 89 0 88 0;
#X connect 89 1 88 1;
#X connect 90 0 93 1;
#X connect 90 1 56 0;
#X connect 91 0 93 1;
#X connect 93 0 81 0;
#X connect 93 1 99 0;
#X connect 94 0 96 0;
#X connect 95 0 94 0;
#X connect 95 1 94 1;
#X connect 96 0 99 0;
#X connect 97 0 93 0;
#X connect 99 0 100 0;
#X connect 100 0 89 0;
#X connect 100 0 98 0;
#X connect 102 0 117 0;
#X connect 103 0 106 0;
#X connect 104 0 103 0;
#X connect 105 0 117 0;
#X connect 106 0 102 1;
#X connect 107 0 119 0;
#X connect 108 0 62 1;
#X connect 109 0 118 0;
#X connect 110 0 93 1;
#X connect 111 0 102 0;
#X connect 112 0 115 0;
#X connect 113 0 114 0;
#X connect 114 0 53 0;
#X connect 115 0 52 0;
#X connect 116 0 114 1;
#X connect 116 0 115 1;
#X connect 117 0 58 0;
#X connect 117 0 18 0;
#X connect 117 0 66 0;
#X connect 117 0 73 0;
#X connect 117 0 77 0;
#X connect 118 0 63 0;
#X connect 119 0 63 0;
