#N canvas 0 23 1280 755 12;
#X obj 72 684 inlet;
#X obj 119 685 tgl 19 0 empty empty empty 0 -10 0 12 #fcfcfc #000000 #000000 0 1;
#X obj 516 688 inlet;
#X text 512 663 instrument num;
#X obj 648 887 switch~;
#X text 511 709 ignore;
#X text 67 659 play/stop;
#X text 226 659 sensor1;
#X text 367 662 sensor2;
#X text 650 663 mode;
#X obj 72 715 sel 0 1;
#N canvas 51 97 1181 681 counter 0;
#X obj 159 129 t b b b;
#X floatatom 242 182 5 0 0 0 - - - 0;
#X obj 188 200 /;
#X floatatom 242 219 5 0 0 0 - - - 0;
#X obj 188 229 i;
#X floatatom 242 248 5 0 0 0 - - - 0;
#X obj 242 153 inlet;
#X obj 158 100 inlet;
#X msg 119 230 0;
#X obj 159 276 metro;
#X msg 188 171 60000;
#X msg 208 276 0;
#X obj 159 305 i;
#X obj 194 305 + 1;
#X floatatom 161 333 5 0 0 0 - - - 0;
#X text 54 22 Due to the absence of a Vanilla counter here is one from cheetomoskeeto;
#X text 346 110 BPM;
#X text 239 134 Recalculate;
#X text 156 76 Start clock;
#X obj 48 194 inlet;
#X text 47 171 Stop;
#X obj 349 135 inlet;
#X obj 274 98 bng 19 250 50 0 empty empty empty 0 -10 0 12 #fcfcfc #000000 #000000;
#X obj 89 85 bng 19 250 50 0 empty empty empty 0 -10 0 12 #fcfcfc #000000 #000000;
#X obj 303 80 inlet;
#X text 302 58 Reset;
#X obj 159 419 outlet;
#X obj 398 134 loadbang;
#X text 396 109 Default BPM;
#X msg 398 163 360;
#X obj 159 362 % 12;
#X obj 274 320 r reset_counter;
#X floatatom 185 386 5 0 0 0 - - - 0;
#X connect 0 0 9 0;
#X connect 0 1 10 0;
#X connect 0 2 1 0;
#X connect 1 0 2 1;
#X connect 2 0 3 0;
#X connect 2 0 4 0;
#X connect 4 0 5 0;
#X connect 4 0 9 1;
#X connect 6 0 1 0;
#X connect 7 0 0 0;
#X connect 8 0 9 0;
#X connect 9 0 12 0;
#X connect 10 0 2 0;
#X connect 11 0 12 1;
#X connect 11 0 14 0;
#X connect 12 0 13 0;
#X connect 12 0 14 0;
#X connect 13 0 12 1;
#X connect 14 0 30 0;
#X connect 19 0 8 0;
#X connect 21 0 1 0;
#X connect 22 0 1 0;
#X connect 22 0 0 0;
#X connect 23 0 0 0;
#X connect 24 0 11 0;
#X connect 27 0 29 0;
#X connect 29 0 1 0;
#X connect 30 0 26 0;
#X connect 30 0 32 0;
#X connect 31 0 11 0;
#X restore 1395 326 pd counter;
#X f 17;
#X obj 1344 295 bng 19 250 50 0 empty empty empty 0 -10 0 12 #fcfcfc #000000 #000000;
#X text 1346 275 Start;
#X msg 1464 36 60;
#X text 1387 38 BPM input;
#X obj 1405 297 bng 19 250 50 0 empty empty empty 0 -10 0 12 #fcfcfc #000000 #000000;
#X text 1404 276 Recalculate BPM;
#X msg 1464 94 120;
#X obj 1299 295 bng 19 250 50 0 empty empty empty 0 -10 0 12 #fcfcfc #000000 #000000;
#X text 1288 274 Stop, f 5;
#X obj 1531 294 bng 19 250 50 0 empty empty empty 0 -10 0 12 #fcfcfc #000000 #000000;
#X text 1527 274 Reset;
#X msg 1464 123 240;
#X msg 1464 65 90;
#X obj 1308 326 s stop;
#X obj 1264 139 r bpm;
#X obj 1264 168 t b b b;
#X text 19 10 Drumline;
#X obj 1359 350 hsl 162 19 0 12 0 0 empty empty empty -2 -10 0 12 #fcfcfc #000000 #000000 0 1;
#X obj 1396 381 s bar;
#X obj 72 71 r bar;
#X floatatom 25 107 5 0 0 0 - - - 0;
#X floatatom 73 161 5 0 0 0 - - - 0;
#X obj 238 167 bng 19 250 50 0 empty empty empty 0 -10 0 12 #fcfcfc #000000 #000000;
#X obj 237 138 spigot;
#X obj 477 72 r bar;
#X floatatom 430 108 5 0 0 0 - - - 0;
#X text 68 50 Kick;
#X obj 1165 560 r kick;
#N canvas 103 332 450 446 kick 0;
#X obj 134 212 vline~;
#X obj 172 328 *~;
#X obj 172 307 cos~;
#X obj 172 286 *~;
#X obj 172 264 *~;
#X obj 172 242 *~;
#X msg 134 190 1 0 0 \, 0 \$1 0;
#X obj 172 350 outlet~;
#X obj 228 397 switch~;
#X obj 228 349 env~;
#X obj 228 373 > 0.1;
#X msg 134 147 1;
#X obj 134 125 inlet;
#X obj 192 29 inlet;
#X obj 251 102 loadbang;
#X msg 194 127 2.4;
#X msg 135 169 70;
#X connect 0 0 1 1;
#X connect 0 0 5 0;
#X connect 0 0 3 1;
#X connect 1 0 7 0;
#X connect 1 0 9 0;
#X connect 2 0 1 0;
#X connect 3 0 2 0;
#X connect 4 0 3 0;
#X connect 5 0 4 1;
#X connect 5 0 4 0;
#X connect 6 0 0 0;
#X connect 9 0 10 0;
#X connect 10 0 8 0;
#X connect 11 0 8 0;
#X connect 11 0 16 0;
#X connect 12 0 11 0;
#X connect 13 0 15 0;
#X connect 14 0 15 0;
#X connect 15 0 5 1;
#X connect 16 0 6 0;
#X restore 993 589 pd kick;
#X obj 238 191 s kick;
#X text 473 51 Snare;
#N canvas 237 74 450 704 snare 0;
#X obj 193 234 vline~;
#X obj 175 460 *~;
#X obj 211 296 cos~;
#X obj 161 169 t f f;
#X obj 211 276 *~;
#X obj 175 482 outlet~;
#X obj 231 529 switch~;
#X obj 231 481 env~;
#X obj 231 505 > 0.1;
#X msg 229 425 1;
#X obj 183 87 t b b b;
#X obj 183 41 inlet;
#X obj 193 392 *~;
#X obj 175 439 cos~;
#X obj 193 345 +~;
#X obj 175 365 *~;
#X obj 193 414 *~;
#X obj 193 322 sig~ 5;
#X obj 229 192 /;
#X obj 183 115 del 5;
#X msg 183 63 1;
#X msg 183 140 90;
#X msg 229 140 70;
#X msg 285 140 6;
#X msg 193 212 1 0 0 \, 0 \$1 3;
#X obj 257 91 loadbang;
#X obj 146 504 s~ \$0-snfb;
#X obj 175 254 r~ \$0-snfb;
#X connect 0 0 4 0;
#X connect 0 0 12 0;
#X connect 0 0 12 1;
#X connect 1 0 5 0;
#X connect 1 0 7 0;
#X connect 1 0 26 0;
#X connect 2 0 14 1;
#X connect 3 0 18 0;
#X connect 3 1 24 0;
#X connect 4 0 2 0;
#X connect 7 0 8 0;
#X connect 8 0 6 0;
#X connect 9 0 6 0;
#X connect 10 0 19 0;
#X connect 10 1 23 0;
#X connect 10 2 9 0;
#X connect 11 0 20 0;
#X connect 12 0 16 0;
#X connect 12 0 16 1;
#X connect 13 0 1 0;
#X connect 14 0 15 1;
#X connect 15 0 13 0;
#X connect 16 0 1 1;
#X connect 17 0 14 0;
#X connect 18 0 4 1;
#X connect 19 0 21 0;
#X connect 19 0 22 0;
#X connect 20 0 10 0;
#X connect 21 0 3 0;
#X connect 22 0 3 0;
#X connect 23 0 18 1;
#X connect 24 0 0 0;
#X connect 25 0 20 0;
#X connect 27 0 15 0;
#X restore 807 557 pd snare;
#X obj 1069 545 r snare;
#N canvas 103 332 450 446 hihat 0;
#X obj 168 152 noise~;
#X obj 168 282 *~, f 5;
#X obj 170 73 inlet;
#X obj 168 326 outlet~;
#X obj 202 258 line~;
#X msg 202 219 1;
#X obj 170 94 t b b;
#X obj 168 194 hip~ 8000;
#X obj 168 173 hip~ 8000;
#X obj 168 303 *~ 0.4;
#X obj 240 83 vsl 15 128 0 127 0 0 empty empty empty 0 -9 0 10 #fcfcfc #000000 #000000 0 1;
#X msg 240 219 0 \$1;
#X obj 273 24 loadbang;
#X msg 273 53 127;
#X connect 0 0 8 0;
#X connect 1 0 9 0;
#X connect 2 0 6 0;
#X connect 4 0 1 1;
#X connect 5 0 4 0;
#X connect 6 0 10 0;
#X connect 6 1 5 0;
#X connect 7 0 1 0;
#X connect 8 0 7 0;
#X connect 9 0 3 0;
#X connect 10 0 11 0;
#X connect 11 0 4 0;
#X connect 12 0 13 0;
#X connect 13 0 10 0;
#X restore 901 545 pd hihat;
#X obj 1228 560 r hihat;
#X obj 856 66 r bar;
#X floatatom 809 102 5 0 0 0 - - - 0;
#X text 852 45 Hi-Hat;
#X text 19 274 Sequences;
#X floatatom 472 162 5 0 0 0 - - - 0;
#X obj 644 167 bng 19 250 50 0 empty empty empty 0 -10 0 12 #fcfcfc #000000 #000000;
#X obj 643 139 spigot;
#X obj 472 138 tabread snareSequence;
#X obj 641 201 s snare;
#X floatatom 856 156 5 0 0 0 - - - 0;
#X obj 1015 225 bng 19 250 50 0 empty empty empty 0 -10 0 12 #fcfcfc #000000 #000000;
#X obj 1013 143 spigot;
#X obj 1015 249 s hihat;
#X obj 73 137 tabread kickSequence;
#X obj 856 132 tabread hatSequence;
#X text 110 11 The last position sends the message back to the subcscription server;
#X obj 1098 103 bng 19 250 50 0 empty empty empty 0 -10 0 12 #fcfcfc #000000 #000000;
#X obj 1097 132 bng 19 250 50 0 empty empty empty 0 -10 0 12 #fcfcfc #000000 #000000;
#X obj 715 109 bng 19 250 50 0 empty empty empty 0 -10 0 12 #fcfcfc #000000 #000000;
#X obj 714 138 bng 19 250 50 0 empty empty empty 0 -10 0 12 #fcfcfc #000000 #000000;
#X obj 310 108 bng 19 250 50 0 empty empty empty 0 -10 0 12 #fcfcfc #000000 #000000;
#X obj 311 137 bng 19 250 50 0 empty empty empty 0 -10 0 12 #fcfcfc #000000 #000000;
#X obj 311 166 s kickmsg;
#X obj 713 167 s snaremsg;
#X obj 1098 161 s hatmsg;
#X msg 1465 152 360;
#X text 1140 959 The missing components are: Identifying *just* the performer's instruments Receiving the pattern the zmq controller and applying it to the correct sequence;
#X msg 1510 143 \$1 1000;
#X floatatom 1542 172 5 0 0 0 - - - 0;
#X floatatom 1577 200 5 0 0 0 - - - 0;
#X obj 1510 229 line 0 100;
#X msg 1465 181 420;
#X msg 1526 326 0;
#X obj 105 744 s \$0-start;
#X obj 21 744 s \$0-stop;
#X obj 1189 217 r \$0-stop;
#X obj 1362 161 r \$0-start;
#X obj 796 693 inlet;
#X obj 795 751 s resetDrum;
#X obj 796 722 t b;
#X obj 766 751 bng 19 250 50 0 empty empty empty 0 -10 0 12 #fcfcfc #000000 #000000;
#X obj 257 799 s mode3sensor1;
#X obj 397 799 s mode3sensor2;
#X obj 1419 414 r mode3sensor1;
#X obj 969 386 r mode3sensor2;
#X obj 72 108 select 0 1 2 3 4 5 6 7 8 9 10 11;
#X text 56 788 Receive network sequences;
#X obj 477 109 select 0 1 2 3 4 5 6 7 8 9 10 11;
#X obj 856 103 select 0 1 2 3 4 5 6 7 8 9 10 11;
#X text 1068 519 Output audio;
#X text 792 667 reset drums;
#X obj 61 817 r seq;
#X obj 61 987 array set kickSequence;
#X floatatom 136 959 5 0 0 0 - - - 0;
#X floatatom 185 902 5 0 0 0 - - - 0;
#X obj 106 930 array set snareSequence;
#X floatatom 226 901 5 0 0 0 - - - 0;
#X obj 152 875 array set hatSequence;
#X obj 40 207 s LEDreset;
#X text 25 630 ==== Network Messages ==== DO NOT MOVE THEM \, THE INLETS ARE VERY IMPORTANT, f 76;
#N canvas 463 214 817 564 handleLED 0;
#X obj 26 10 r bar;
#X obj 26 39 select 0 1 2 3 4 5 6 7 8 9 10 11;
#X msg 26 389 1 0 0 0 0 0 0 0 0 0 0 0;
#X msg 44 360 0 1 0 0 0 0 0 0 0 0 0 0;
#X msg 62 331 0 0 1 0 0 0 0 0 0 0 0 0;
#X msg 82 302 0 0 0 1 0 0 0 0 0 0 0 0;
#X msg 102 273 0 0 0 0 1 0 0 0 0 0 0 0;
#X msg 122 244 0 0 0 0 0 1 0 0 0 0 0 0;
#X msg 142 215 0 0 0 0 0 0 1 0 0 0 0 0;
#X msg 162 186 0 0 0 0 0 0 0 1 0 0 0 0;
#X msg 182 157 0 0 0 0 0 0 0 0 1 0 0 0;
#X msg 222 99 0 0 0 0 0 0 0 0 0 0 1 0;
#X msg 202 128 0 0 0 0 0 0 0 0 0 1 0 0;
#X msg 242 70 1 1 1 1 1 1 1 1 1 1 1 1;
#X text 320 283 Quickly reset the light values to low state;
#X msg 323 338 0 0 0 0 0 0 0 0 0 0 0 0;
#X obj 415 496 s LEDstrip1;
#X obj 192 535 s LEDstrip2;
#X obj 244 444 list;
#X obj 132 488 list;
#X obj 411 442 LED_color;
#X obj 193 502 LED_color;
#X msg 496 434 0.2 0.8 0.8;
#X msg 290 518 0.7 0 1;
#X obj 291 496 loadbang;
#X obj 498 411 loadbang;
#X obj 323 309 r \$0-stop;
#X obj 533 338 s LEDreset;
#X obj 532 312 del 100;
#X connect 0 0 1 0;
#X connect 1 0 2 0;
#X connect 1 1 3 0;
#X connect 1 2 4 0;
#X connect 1 3 5 0;
#X connect 1 4 6 0;
#X connect 1 5 7 0;
#X connect 1 6 8 0;
#X connect 1 7 9 0;
#X connect 1 8 10 0;
#X connect 1 9 12 0;
#X connect 1 10 11 0;
#X connect 1 11 13 0;
#X connect 2 0 18 0;
#X connect 2 0 19 0;
#X connect 3 0 18 0;
#X connect 3 0 19 0;
#X connect 4 0 18 0;
#X connect 4 0 19 0;
#X connect 5 0 18 0;
#X connect 5 0 19 0;
#X connect 6 0 18 0;
#X connect 6 0 19 0;
#X connect 7 0 18 0;
#X connect 7 0 19 0;
#X connect 8 0 18 0;
#X connect 8 0 19 0;
#X connect 9 0 18 0;
#X connect 9 0 19 0;
#X connect 10 0 18 0;
#X connect 10 0 19 0;
#X connect 11 0 18 0;
#X connect 11 0 19 0;
#X connect 12 0 18 0;
#X connect 12 0 19 0;
#X connect 13 0 18 0;
#X connect 13 0 19 0;
#X connect 15 0 20 0;
#X connect 18 0 20 0;
#X connect 18 0 21 0;
#X connect 19 0 21 0;
#X connect 20 0 16 0;
#X connect 21 0 17 0;
#X connect 22 0 20 1;
#X connect 23 0 21 1;
#X connect 24 0 23 0;
#X connect 25 0 22 0;
#X connect 26 0 15 0;
#X connect 26 0 28 0;
#X connect 28 0 27 0;
#X restore 852 986 pd handleLED;
#X text 849 960 The LED chase;
#X obj 65 489 array get kickSequence;
#X floatatom 139 461 5 0 0 0 - - - 0;
#X obj 64 460 bng 19 250 50 0 empty empty empty 0 -10 0 12 #fcfcfc #000000 #000000;
#X obj 66 518 list prepend kick;
#X obj 66 547 list trim;
#X obj 43 432 r sendKickSequence;
#X text 39 408 Send network sequences;
#X floatatom 349 461 5 0 0 0 - - - 0;
#X obj 274 460 bng 19 250 50 0 empty empty empty 0 -10 0 12 #fcfcfc #000000 #000000;
#X obj 276 547 list trim;
#X text 249 408 Send network sequences;
#X obj 253 432 r sendSnareSequence;
#X obj 275 489 array get snareSequence;
#X obj 276 518 list prepend snare;
#X obj 66 576 s seq_message \$1;
#X obj 276 576 s seq_message \$1;
#X obj 1532 352 s reset_counter;
#X obj 1137 748 outlet~;
#X obj 940 694 inlet;
#X text 936 668 jam mode;
#X obj 966 721 tgl 19 0 empty empty empty 0 -10 0 12 #fcfcfc #000000 #000000 0 1;
#X obj 939 743 t a;
#X obj 1418 449 spigot 1;
#X obj 938 768 s \$0-jamstate;
#X obj 1529 384 r \$0-jamstate;
#X obj 1529 408 - 1;
#X obj 1529 432 abs;
#X obj 969 408 spigot 1;
#X obj 1463 561 r mode3sensor1;
#X obj 1464 588 spigot;
#X obj 1515 587 r \$0-jamstate;
#X obj 297 705 tgl 19 0 empty empty empty 0 -10 0 12 #fcfcfc #000000 #000000 0 1;
#X obj 415 703 tgl 19 0 empty empty empty 0 -10 0 12 #fcfcfc #000000 #000000 0 1;
#X obj 1555 634 spigot;
#X obj 1606 633 r \$0-jamstate;
#X obj 1554 607 r mode3sensor2;
#X obj 1084 390 r \$0-jamstate;
#X obj 1084 414 - 1;
#X obj 1084 438 abs;
#N canvas 399 174 867 604 inputKick 0;
#X obj 105 119 tabwrite kickSequence;
#X obj 267 119 r bar;
#X obj 49 121 s kick;
#X obj 105 90 spigot;
#X obj 105 65 t a a;
#X obj 48 92 sel 1;
#X obj 53 17 inlet;
#X connect 1 0 0 1;
#X connect 3 0 0 0;
#X connect 3 0 5 0;
#X connect 4 0 3 0;
#X connect 4 1 3 1;
#X connect 5 0 2 0;
#X connect 6 0 4 0;
#X restore 906 474 pd inputKick;
#N canvas 302 189 500 484 Sequencer_Kick 0;
#X obj 12 44 r resetKicks;
#X msg 12 73 \; kickSequence const 0;
#X floatatom 87 156 5 0 0 0 - - - 0;
#X obj 12 155 bng 19 250 50 0 empty empty empty 0 -10 0 12 #fcfcfc #000000 #000000;
#X obj 12 184 array get kickSequence;
#X obj 12 126 r kickmsg;
#X obj 12 213 print kickSequence \$1;
#X obj 245 74 bng 19 250 50 0 empty empty empty 0 -10 0 12 #fcfcfc #000000 #000000;
#X obj 205 103 bng 19 250 50 0 empty empty empty 0 -10 0 12 #fcfcfc #000000 #000000;
#X obj 248 192 sel 0;
#N canvas 912 88 593 637 compareArray 0;
#X obj 339 183 inlet;
#X obj 256 128 inlet;
#X obj 262 299 outlet;
#X obj 260 241 list-compare;
#X obj 261 270 tgl 19 0 empty empty empty 0 -10 0 12 #fcfcfc #000000 #000000 0 1;
#X connect 0 0 3 1;
#X connect 1 0 3 0;
#X connect 3 0 4 0;
#X connect 4 0 2 0;
#X restore 248 163 pd compareArray;
#X obj 245 105 array get kickSequence;
#X obj 205 134 array get kickSequence-prev;
#X floatatom 319 77 5 0 0 0 - - - 0;
#X obj 244 45 t b b;
#X obj 258 222 print dont send kick;
#X msg 228 279 copy kickSequence;
#X obj 228 308 arraycopy kickSequence-prev;
#X msg 10 270 \; kickSequence-prev const 0;
#X obj 10 241 loadbang;
#X obj 209 222 t b b;
#X obj 110 44 r resetDrum;
#X obj 244 16 r kickmsg;
#N canvas 0 433 500 229 kickSequences 0;
#N canvas 614 639 450 278 (subpatch) 0;
#X array kickSequence 12 float 2;
#X coords 0 2 12 -1 200 140 1 0 0;
#X restore 16 28 graph;
#N canvas 0 22 450 278 (subpatch) 0;
#X array kickSequence-prev 12 float 3;
#A 0 0 0 0 0 0 0 0 0 0 0 0 0;
#X coords 0 2 12 -1 200 140 1 0 0;
#X restore 244 29 graph;
#X restore 12 15 pd kickSequences;
#X obj 241 251 s sendKickSequence;
#X connect 0 0 1 0;
#X connect 2 0 4 1;
#X connect 3 0 4 0;
#X connect 5 0 3 0;
#X connect 7 0 11 0;
#X connect 8 0 12 0;
#X connect 9 0 20 0;
#X connect 10 0 9 0;
#X connect 11 0 10 0;
#X connect 12 0 10 1;
#X connect 13 0 11 1;
#X connect 13 0 12 1;
#X connect 14 0 11 0;
#X connect 14 1 12 0;
#X connect 16 0 17 0;
#X connect 19 0 18 0;
#X connect 20 0 16 0;
#X connect 20 1 24 0;
#X connect 21 0 1 0;
#X connect 22 0 14 0;
#X restore 25 305 pd Sequencer_Kick;
#N canvas 60 390 712 380 Sequencer_Snare 0;
#X obj 14 -78 r resetSnares;
#X msg 14 -49 \; snareSequence const 0;
#X floatatom 93 34 5 0 0 0 - - - 0;
#X obj 14 33 bng 19 250 50 0 empty empty empty 0 -10 0 12 #fcfcfc #000000 #000000;
#X obj 14 62 array get snareSequence;
#X obj 14 91 print snareSequence \$1;
#X obj 14 4 r snaremsg;
#X obj 249 -19 array get snareSequence;
#X obj 249 -50 bng 19 250 50 0 empty empty empty 0 -10 0 12 #fcfcfc #000000 #000000;
#X obj 209 -21 bng 19 250 50 0 empty empty empty 0 -10 0 12 #fcfcfc #000000 #000000;
#X obj 252 68 sel 0;
#N canvas 687 88 593 637 compareArray 0;
#X obj 339 183 inlet;
#X obj 256 128 inlet;
#X obj 262 299 outlet;
#X obj 260 241 list-compare;
#X obj 261 270 tgl 19 0 empty empty empty 0 -10 0 12 #fcfcfc #000000 #000000 0 1;
#X connect 0 0 3 1;
#X connect 1 0 3 0;
#X connect 3 0 4 0;
#X connect 4 0 2 0;
#X restore 252 39 pd compareArray;
#X obj 262 98 print dont send snare;
#X obj 209 10 array get snareSequence-prev;
#X floatatom 328 -47 5 0 0 0 - - - 0;
#X obj 248 -79 t b b;
#X obj 232 187 arraycopy snareSequence-prev;
#X msg 232 158 copy snareSequence;
#X msg 14 149 \; snareSequence-prev const 0;
#X obj 14 120 loadbang;
#X obj 248 -108 r snaremsg;
#X obj 213 99 t b b;
#X obj 119 -78 r resetDrum;
#N canvas 188 82 276 375 snareSequences 0;
#N canvas 14 764 450 278 (subpatch) 0;
#X array snareSequence 16 float 2;
#X coords 0 2 16 -1 200 140 1 0 0;
#X restore 17 25 graph;
#N canvas 0 22 450 278 (subpatch) 0;
#X array snareSequence-prev 16 float 3;
#A 0 0 0 0 0 0 0 0 0 0 0 0 0 0 0 0 0;
#X coords 0 2 16 -1 200 140 1 0 0;
#X restore 16 192 graph;
#X restore 14 -107 pd snareSequences;
#X obj 245 128 s sendSnareSequence;
#X obj 355 62 tgl 19 0 empty empty empty 0 -10 0 12 #fcfcfc #000000 #000000 0 1;
#X connect 0 0 1 0;
#X connect 2 0 4 1;
#X connect 3 0 4 0;
#X connect 6 0 3 0;
#X connect 7 0 11 0;
#X connect 8 0 7 0;
#X connect 9 0 13 0;
#X connect 10 0 21 0;
#X connect 11 0 10 0;
#X connect 11 0 25 0;
#X connect 13 0 11 1;
#X connect 14 0 7 1;
#X connect 14 0 13 1;
#X connect 15 0 7 0;
#X connect 15 1 13 0;
#X connect 17 0 16 0;
#X connect 19 0 18 0;
#X connect 20 0 15 0;
#X connect 21 0 17 0;
#X connect 21 1 24 0;
#X connect 22 0 1 0;
#X restore 168 307 pd Sequencer_Snare;
#N canvas 590 45 650 473 Sequencer_hihat 0;
#X obj 10 49 r resetHats;
#X msg 10 78 \; hatSequence const 0;
#X floatatom 83 161 5 0 0 0 - - - 0;
#X obj 11 160 bng 19 250 50 0 empty empty empty 0 -10 0 12 #fcfcfc #000000 #000000;
#X obj 11 131 r hatmsg;
#X obj 11 189 array get hatSequence;
#X obj 11 218 print hatSequence \$1;
#X obj 249 77 bng 19 250 50 0 empty empty empty 0 -10 0 12 #fcfcfc #000000 #000000;
#X obj 284 77 bng 19 250 50 0 empty empty empty 0 -10 0 12 #fcfcfc #000000 #000000;
#X obj 252 195 sel 0;
#X floatatom 322 80 5 0 0 0 - - - 0;
#X obj 248 48 t b b;
#X obj 233 311 arraycopy hatSequence-prev;
#X msg 233 282 copy hatSequence;
#X obj 11 247 loadbang;
#X msg 11 276 \; hatSequence-prev const 0;
#X obj 213 225 t b b;
#X obj 101 49 r resetDrum;
#N canvas 217 111 476 230 hatSequences 0;
#N canvas 817 814 450 278 (subpatch) 0;
#X array hatSequence 12 float 2;
#X coords 0 2 12 -1 200 140 1 0 0;
#X restore 19 26 graph;
#N canvas 830 114 450 278 (subpatch) 0;
#X array hatSequence-prev 12 float 3;
#A 0 0 0 0 0 0 0 0 0 0 0 0 0;
#X coords 0 2 12 -1 200 140 1 0 0;
#X restore 241 27 graph;
#X restore 10 20 pd hatSequences;
#X obj 255 254 s sendHatSequence;
#X obj 282 138 array get hatSequence-prev;
#X obj 248 19 r hatmsg;
#N canvas 687 88 593 637 compareArray 0;
#X obj 339 183 inlet;
#X obj 256 128 inlet;
#X obj 262 299 outlet;
#X obj 260 241 list-compare;
#X obj 261 270 tgl 19 0 empty empty empty 0 -10 0 12 #fcfcfc #000000 #000000 0 1;
#X connect 0 0 3 1;
#X connect 1 0 3 0;
#X connect 3 0 4 0;
#X connect 4 0 2 0;
#X restore 252 167 pd compareArray;
#X obj 249 107 array get hatSequence;
#X connect 0 0 1 0;
#X connect 2 0 5 1;
#X connect 3 0 5 0;
#X connect 4 0 3 0;
#X connect 7 0 23 0;
#X connect 8 0 20 0;
#X connect 9 0 16 0;
#X connect 10 0 20 1;
#X connect 10 0 23 1;
#X connect 11 0 23 0;
#X connect 11 1 20 0;
#X connect 13 0 12 0;
#X connect 14 0 15 0;
#X connect 16 0 13 0;
#X connect 16 1 19 0;
#X connect 17 0 1 0;
#X connect 20 0 22 1;
#X connect 21 0 11 0;
#X connect 22 0 9 0;
#X connect 23 0 22 0;
#X restore 179 347 pd Sequencer_hihat;
#N canvas 357 25 682 356 Sequencer_H_Kick 0;
#X floatatom 87 156 5 0 0 0 - - - 0;
#X obj 12 155 bng 19 250 50 0 empty empty empty 0 -10 0 12 #fcfcfc #000000 #000000;
#X obj 12 126 r kickmsg;
#X obj 245 74 bng 19 250 50 0 empty empty empty 0 -10 0 12 #fcfcfc #000000 #000000;
#X obj 205 103 bng 19 250 50 0 empty empty empty 0 -10 0 12 #fcfcfc #000000 #000000;
#X obj 248 192 sel 0;
#N canvas 687 88 593 637 compareArray 0;
#X obj 339 183 inlet;
#X obj 256 128 inlet;
#X obj 262 299 outlet;
#X obj 260 241 list-compare;
#X obj 261 270 tgl 19 0 empty empty empty 0 -10 0 12 #fcfcfc #000000 #000000 0 1;
#X connect 0 0 3 1;
#X connect 1 0 3 0;
#X connect 3 0 4 0;
#X connect 4 0 2 0;
#X restore 248 163 pd compareArray;
#X floatatom 319 77 5 0 0 0 - - - 0;
#X obj 244 45 t b b;
#X obj 10 241 loadbang;
#X obj 209 222 t b b;
#X obj 139 45 r resetDrum;
#X obj 244 16 r H_kickmsg;
#X obj 12 44 r resetHighKicks;
#N canvas 0 433 500 229 HighkickSequences 0;
#N canvas 614 500 450 278 (subpatch) 0;
#X array HighKickSequence 12 float 2;
#X coords 0 2 12 -1 200 140 1 0 0;
#X restore 16 28 graph;
#N canvas 677 218 450 278 (subpatch) 0;
#X array HighKickSequence-prev 12 float 3;
#A 0 0 0 0 0 0 0 0 0 0 0 0 0;
#X coords 0 2 12 -1 200 140 1 0 0;
#X restore 244 29 graph;
#X restore 12 15 pd HighkickSequences;
#X msg 12 73 \; HighKickSequence const 0;
#X obj 12 184 array get HighKickSequence;
#X obj 241 251 s sendHighKickSequence;
#X msg 228 279 copy HighKickSequence;
#X obj 228 308 arraycopy HighKickSequence-prev;
#X msg 10 270 \; HighKickSequence-prev const 0;
#X obj 245 105 array get HighKickSequence;
#X obj 205 134 array get HighKickSequence-prev;
#X connect 0 0 16 1;
#X connect 1 0 16 0;
#X connect 2 0 1 0;
#X connect 3 0 21 0;
#X connect 4 0 22 0;
#X connect 5 0 10 0;
#X connect 6 0 5 0;
#X connect 7 0 21 1;
#X connect 7 0 22 1;
#X connect 8 0 21 0;
#X connect 8 1 22 0;
#X connect 9 0 20 0;
#X connect 10 0 18 0;
#X connect 10 1 17 0;
#X connect 11 0 15 0;
#X connect 12 0 8 0;
#X connect 13 0 15 0;
#X connect 18 0 19 0;
#X connect 21 0 6 0;
#X connect 22 0 6 1;
#X restore 27 348 pd Sequencer_H_Kick;
#X obj 1293 558 r HighKick;
#N canvas 196 141 450 446 HighKick 0;
#X obj 134 212 vline~;
#X obj 172 328 *~;
#X obj 172 307 cos~;
#X obj 172 286 *~;
#X obj 172 264 *~;
#X obj 172 242 *~;
#X msg 134 190 1 0 0 \, 0 \$1 0;
#X obj 172 350 outlet~;
#X obj 228 397 switch~;
#X obj 228 349 env~;
#X obj 228 373 > 0.1;
#X msg 134 147 1;
#X obj 134 125 inlet;
#X obj 192 29 inlet;
#X obj 251 102 loadbang;
#X msg 135 169 70;
#X msg 194 127 3.5;
#X connect 0 0 1 1;
#X connect 0 0 5 0;
#X connect 0 0 3 1;
#X connect 1 0 7 0;
#X connect 1 0 9 0;
#X connect 2 0 1 0;
#X connect 3 0 2 0;
#X connect 4 0 3 0;
#X connect 5 0 4 1;
#X connect 5 0 4 0;
#X connect 6 0 0 0;
#X connect 9 0 10 0;
#X connect 10 0 8 0;
#X connect 11 0 8 0;
#X connect 11 0 15 0;
#X connect 12 0 11 0;
#X connect 13 0 16 0;
#X connect 14 0 16 0;
#X connect 15 0 6 0;
#X connect 16 0 5 1;
#X restore 971 543 pd HighKick;
#X obj 383 234 r bar;
#X floatatom 336 270 5 0 0 0 - - - 0;
#X floatatom 384 324 5 0 0 0 - - - 0;
#X obj 549 330 bng 19 250 50 0 empty empty empty 0 -10 0 12 #fcfcfc #000000 #000000;
#X obj 548 301 spigot;
#X obj 621 271 bng 19 250 50 0 empty empty empty 0 -10 0 12 #fcfcfc #000000 #000000;
#X obj 622 300 bng 19 250 50 0 empty empty empty 0 -10 0 12 #fcfcfc #000000 #000000;
#X obj 383 271 select 0 1 2 3 4 5 6 7 8 9 10 11;
#X obj 351 370 s LEDreset;
#X text 379 213 HighKick;
#X obj 361 301 tabread HighKickSequence;
#X obj 549 354 s HighKick;
#X obj 621 329 s H_kickmsg;
#X floatatom 553 467 5 0 0 0 - - - 0;
#X obj 478 466 bng 19 250 50 0 empty empty empty 0 -10 0 12 #fcfcfc #000000 #000000;
#X obj 480 553 list trim;
#X text 453 414 Send network sequences;
#X obj 480 583 s seq_message \$1;
#X obj 457 438 r sendHighKickSequence;
#X obj 479 494 array get HighKickSequence;
#X obj 480 524 list prepend H_kick;
#X floatatom 756 465 5 0 0 0 - - - 0;
#X obj 681 464 bng 19 250 50 0 empty empty empty 0 -10 0 12 #fcfcfc #000000 #000000;
#X obj 683 551 list trim;
#X text 656 412 Send network sequences;
#X obj 684 576 s seq_message \$1;
#X obj 683 492 array get hatSequence;
#X obj 683 522 list prepend hat;
#X obj 665 439 r sendHatSequence;
#N canvas 399 174 867 604 inputHighKick 0;
#X obj 292 117 r bar;
#X obj 105 90 spigot;
#X obj 105 65 t a a;
#X obj 48 92 sel 1;
#X obj 53 17 inlet;
#X obj 105 118 tabwrite HighKickSequence;
#X obj 19 120 s HighKick;
#X connect 0 0 5 1;
#X connect 1 0 3 0;
#X connect 1 0 5 0;
#X connect 2 0 1 0;
#X connect 2 1 1 1;
#X connect 3 0 6 0;
#X connect 4 0 2 0;
#X restore 1012 472 pd inputHighKick;
#N canvas 259 98 906 521 inputSnare 0;
#X obj 278 138 r bar;
#X obj 111 138 tabwrite snareSequence;
#X obj 110 107 spigot;
#X obj 110 78 t a a;
#X obj 45 136 s snare;
#X obj 48 111 sel 1;
#X obj 122 45 inlet;
#X connect 0 0 1 1;
#X connect 2 0 1 0;
#X connect 2 0 5 0;
#X connect 3 0 2 0;
#X connect 3 1 2 1;
#X connect 5 0 4 0;
#X connect 6 0 3 0;
#X restore 1380 508 pd inputSnare;
#N canvas 751 98 906 521 inputHihat 0;
#X obj 278 138 r bar;
#X obj 110 107 spigot;
#X obj 110 78 t a a;
#X obj 48 111 sel 1;
#X obj 122 45 inlet;
#X obj 111 138 tabwrite hatSequence;
#X obj 45 136 s hihat;
#X connect 0 0 5 1;
#X connect 1 0 3 0;
#X connect 1 0 5 0;
#X connect 2 0 1 0;
#X connect 2 1 1 1;
#X connect 3 0 6 0;
#X connect 4 0 2 0;
#X restore 1487 509 pd inputHihat;
#X obj 61 846 route kick snare hat H_kick;
#X obj 282 907 array set HighKickSequence;
#X obj 932 585 *~ 4;
#X obj 976 444 gate 2;
#X obj 1423 477 gate 2;
#X obj 1054 674 *~ 0.4;
#N canvas 31 160 1246 538 voice1 0;
#X obj 268 216 outlet~;
#X obj 269 93 vline~;
#X obj 272 -66 bng 19 250 50 0 empty empty empty 0 -10 0 12 #fcfcfc #000000 #000000;
#X msg 352 65 stop;
#X msg 269 64 0 \, \$2 \$3;
#X obj 269 36 pack 0 f f;
#X obj 335 12 expr $f2 / 48;
#X floatatom 396 39 5 0 0 0 - - - 0;
#X obj 274 -95 t b b;
#X obj -107 227 soundfiler;
#X floatatom -107 249 16 0 0 0 - - - 0;
#X obj -108 271 t b a;
#N canvas 635 172 450 278 (subpatch) 0;
#X array voice1 25067 float 2;
#X coords 0 1 25067 -1 200 140 1 0 0;
#X restore -109 317 graph;
#X obj 267 -154 inlet;
#X obj -325 -149 r inst;
#X obj -325 -119 sel 0 1 2 3;
#X msg -61 24 read -resize l016.wav voice1;
#X msg -100 51 read -resize l016.wav voice1;
#X msg -125 76 read -resize h016.wav voice1;
#X msg -163 102 read -resize a016.wav voice1;
#X obj 269 122 tabread4~ voice1;
#X connect 1 0 20 0;
#X connect 2 0 5 0;
#X connect 3 0 1 0;
#X connect 4 0 1 0;
#X connect 5 0 4 0;
#X connect 6 0 5 2;
#X connect 6 0 7 0;
#X connect 8 0 2 0;
#X connect 9 0 10 0;
#X connect 10 0 11 0;
#X connect 11 0 6 0;
#X connect 11 1 6 1;
#X connect 11 1 5 1;
#X connect 13 0 8 0;
#X connect 14 0 15 0;
#X connect 15 0 16 0;
#X connect 15 1 17 0;
#X connect 15 2 18 0;
#X connect 15 3 19 0;
#X connect 16 0 9 0;
#X connect 17 0 9 0;
#X connect 18 0 9 0;
#X connect 19 0 9 0;
#X connect 20 0 0 0;
#X restore 1046 625 pd voice1;
#N canvas 275 47 672 454 voice2 0;
#X obj 268 216 outlet~;
#X obj 269 93 vline~;
#X obj 272 -66 bng 19 250 50 0 empty empty empty 0 -10 0 12 #fcfcfc #000000 #000000;
#X msg 352 65 stop;
#X msg 269 64 0 \, \$2 \$3;
#X obj 269 36 pack 0 f f;
#X obj 335 12 expr $f2 / 48;
#X floatatom 396 39 5 0 0 0 - - - 0;
#X obj 274 -95 t b b;
#X obj -107 227 soundfiler;
#X floatatom -107 249 16 0 0 0 - - - 0;
#X obj -108 271 t b a;
#N canvas 635 172 450 278 (subpatch) 0;
#X array voice2 41183 float 2;
#X coords 0 1 41183 -1 200 140 1 0 0;
#X restore -109 317 graph;
#X obj 267 -154 inlet;
#X obj -325 -149 r inst;
#X obj -325 -119 sel 0 1 2 3;
#X msg -100 51 read -resize l017.wav voice2;
#X msg -125 76 read -resize h017.wav voice2;
#X msg -163 102 read -resize a017.wav voice2;
#X obj 269 122 tabread4~ voice2;
#X msg -61 24 read -resize l017.wav voice2;
#X connect 1 0 19 0;
#X connect 2 0 5 0;
#X connect 3 0 1 0;
#X connect 4 0 1 0;
#X connect 5 0 4 0;
#X connect 6 0 5 2;
#X connect 6 0 7 0;
#X connect 8 0 2 0;
#X connect 9 0 10 0;
#X connect 10 0 11 0;
#X connect 11 0 6 0;
#X connect 11 1 6 1;
#X connect 11 1 5 1;
#X connect 13 0 8 0;
#X connect 14 0 15 0;
#X connect 15 0 20 0;
#X connect 15 1 16 0;
#X connect 15 2 17 0;
#X connect 15 3 18 0;
#X connect 16 0 9 0;
#X connect 17 0 9 0;
#X connect 18 0 9 0;
#X connect 19 0 0 0;
#X connect 20 0 9 0;
#X restore 1148 625 pd voice2;
#N canvas 275 47 725 497 voice3 0;
#X obj 268 216 outlet~;
#X obj 269 93 vline~;
#X obj 272 -66 bng 19 250 50 0 empty empty empty 0 -10 0 12 #fcfcfc #000000 #000000;
#X msg 352 65 stop;
#X msg 269 64 0 \, \$2 \$3;
#X obj 269 36 pack 0 f f;
#X obj 335 12 expr $f2 / 48;
#X floatatom 396 39 5 0 0 0 - - - 0;
#X obj 274 -95 t b b;
#X obj -107 227 soundfiler;
#X floatatom -107 249 16 0 0 0 - - - 0;
#X obj -108 271 t b a;
#N canvas 635 172 450 278 (subpatch) 0;
#X array voice3 29545 float 2;
#X coords 0 1 29545 -1 200 140 1 0 0;
#X restore -109 317 graph;
#X obj 267 -154 inlet;
#X obj -325 -149 r inst;
#X obj -325 -119 sel 0 1 2 3;
#X obj 273 122 tabread4~ voice3;
#X msg -61 24 read -resize l018.wav voice3;
#X msg -100 51 read -resize l018.wav voice3;
#X msg -125 76 read -resize h018.wav voice3;
#X msg -163 102 read -resize a018.wav voice3;
#X connect 1 0 16 0;
#X connect 2 0 5 0;
#X connect 3 0 1 0;
#X connect 4 0 1 0;
#X connect 5 0 4 0;
#X connect 6 0 5 2;
#X connect 6 0 7 0;
#X connect 8 0 2 0;
#X connect 9 0 10 0;
#X connect 10 0 11 0;
#X connect 11 0 6 0;
#X connect 11 1 6 1;
#X connect 11 1 5 1;
#X connect 13 0 8 0;
#X connect 14 0 15 0;
#X connect 15 0 17 0;
#X connect 15 1 18 0;
#X connect 15 2 19 0;
#X connect 15 3 20 0;
#X connect 16 0 0 0;
#X connect 17 0 9 0;
#X connect 18 0 9 0;
#X connect 19 0 9 0;
#X connect 20 0 9 0;
#X restore 1246 627 pd voice3;
#N canvas 275 47 450 300 voice4 0;
#X obj 268 216 outlet~;
#X obj 269 93 vline~;
#X obj 272 -66 bng 19 250 50 0 empty empty empty 0 -10 0 12 #fcfcfc #000000 #000000;
#X msg 352 65 stop;
#X msg 269 64 0 \, \$2 \$3;
#X obj 269 36 pack 0 f f;
#X obj 335 12 expr $f2 / 48;
#X floatatom 396 39 5 0 0 0 - - - 0;
#X obj 274 -95 t b b;
#X obj -107 227 soundfiler;
#X floatatom -107 249 16 0 0 0 - - - 0;
#X obj -108 271 t b a;
#N canvas 635 172 450 278 (subpatch) 0;
#X array voice4 28649 float 2;
#X coords 0 1 28649 -1 200 140 1 0 0;
#X restore -109 317 graph;
#X obj 267 -154 inlet;
#X obj -325 -149 r inst;
#X obj -325 -119 sel 0 1 2 3;
#X obj 273 122 tabread4~ voice4;
#X msg -61 24 read -resize l019.wav voice4;
#X msg -100 51 read -resize l019.wav voice4;
#X msg -125 76 read -resize h019.wav voice4;
#X msg -163 102 read -resize a019.wav voice4;
#X connect 1 0 16 0;
#X connect 2 0 5 0;
#X connect 3 0 1 0;
#X connect 4 0 1 0;
#X connect 5 0 4 0;
#X connect 6 0 5 2;
#X connect 6 0 7 0;
#X connect 8 0 2 0;
#X connect 9 0 10 0;
#X connect 10 0 11 0;
#X connect 11 0 6 0;
#X connect 11 1 6 1;
#X connect 11 1 5 1;
#X connect 13 0 8 0;
#X connect 14 0 15 0;
#X connect 15 0 17 0;
#X connect 15 1 18 0;
#X connect 15 2 19 0;
#X connect 15 3 20 0;
#X connect 16 0 0 0;
#X connect 17 0 9 0;
#X connect 18 0 9 0;
#X connect 19 0 9 0;
#X connect 20 0 9 0;
#X restore 1334 627 pd voice4;
#X obj 1133 682 *~ 1;
#N canvas 74 23 1206 755 sample_voice1 0;
#X obj 785 188 outlet~;
#X obj 786 65 vline~;
#X obj 778 -53 bng 19 250 50 0 empty empty empty 0 -10 0 12 #fcfcfc #000000 #000000;
#X msg 869 37 stop;
#X msg 786 36 0 \, \$2 \$3;
#X obj 786 8 pack 0 f f;
#X obj 852 -16 expr $f2 / 48;
#X floatatom 913 11 5 0 0 0 - - - 0;
#X obj 774 -82 t b b;
#X obj -107 227 soundfiler;
#X floatatom -107 249 16 0 0 0 - - - 0;
#X obj -108 271 t b a;
#N canvas 635 172 450 278 (subpatch) 0;
#X array samplevoice1 38099 float 2;
#X coords 0 1 38099 -1 200 140 1 0 0;
#X restore -109 317 graph;
#X obj 767 -141 inlet;
#X obj 786 94 tabread4~ samplevoice1;
#X msg -327 -61 read -resize l001.wav samplevoice1;
#X msg -327 -36 read -resize l001.wav samplevoice1;
#X msg -327 -11 read -resize h001.wav samplevoice1;
#X msg -327 14 read -resize a001.wav samplevoice1;
#X obj -327 -86 gate 4 1;
#X obj -143 -153 inlet;
#X obj -63 -84 gate 4 1;
#X msg -63 -59 read -resize l005.wav samplevoice1;
#X msg -63 -34 read -resize l005.wav samplevoice1;
#X msg -63 -9 read -resize h005.wav samplevoice1;
#X msg -64 14 read -resize a005.wav samplevoice1;
#X obj -325 -128 t b a;
#X msg -194 -146 1;
#X obj -326 -150 r inst;
#X obj 770 -111 sel 1;
#X obj -143 -128 sel 1 2 3 4;
#X obj 200 -83 gate 4 1;
#X msg 199 15 read -resize a010.wav samplevoice1;
#X msg 200 -58 read -resize l0016.wav samplevoice1;
#X msg 200 -8 read -resize h009.wav samplevoice1;
#X msg 200 -33 read -resize l0016.wav samplevoice1;
#X obj 461 -83 gate 4 1;
#X msg 460 15 read -resize a029.wav samplevoice1;
#X msg 461 -8 read -resize h024.wav samplevoice1;
#X msg 461 -58 read -resize l028.wav samplevoice1;
#X msg 461 -33 read -resize l028.wav samplevoice1;
#X connect 1 0 14 0;
#X connect 2 0 5 0;
#X connect 3 0 1 0;
#X connect 4 0 1 0;
#X connect 5 0 4 0;
#X connect 6 0 5 2;
#X connect 6 0 7 0;
#X connect 8 0 2 0;
#X connect 9 0 10 0;
#X connect 10 0 11 0;
#X connect 11 0 6 0;
#X connect 11 1 6 1;
#X connect 11 1 5 1;
#X connect 13 0 29 0;
#X connect 14 0 0 0;
#X connect 15 0 9 0;
#X connect 16 0 9 0;
#X connect 17 0 9 0;
#X connect 18 0 9 0;
#X connect 19 0 15 0;
#X connect 19 1 16 0;
#X connect 19 2 17 0;
#X connect 19 3 18 0;
#X connect 20 0 30 0;
#X connect 21 0 22 0;
#X connect 21 1 23 0;
#X connect 21 2 24 0;
#X connect 21 3 25 0;
#X connect 22 0 9 0;
#X connect 23 0 9 0;
#X connect 24 0 9 0;
#X connect 25 0 9 0;
#X connect 26 0 27 0;
#X connect 26 1 19 0;
#X connect 26 1 21 0;
#X connect 26 1 31 0;
#X connect 26 1 36 0;
#X connect 27 0 30 0;
#X connect 28 0 26 0;
#X connect 29 0 8 0;
#X connect 30 0 19 1;
#X connect 30 1 21 1;
#X connect 30 2 31 1;
#X connect 30 3 36 1;
#X connect 31 0 33 0;
#X connect 31 1 35 0;
#X connect 31 2 34 0;
#X connect 31 3 32 0;
#X connect 32 0 9 0;
#X connect 33 0 9 0;
#X connect 34 0 9 0;
#X connect 35 0 9 0;
#X connect 36 0 39 0;
#X connect 36 1 40 0;
#X connect 36 2 38 0;
#X connect 36 3 37 0;
#X connect 37 0 9 0;
#X connect 38 0 9 0;
#X connect 39 0 9 0;
#X connect 40 0 9 0;
#X restore 1432 649 pd sample_voice1;
#X msg 892 824 1;
#X obj 891 849 + 1;
#X floatatom 891 933 5 0 0 0 - - - 0;
#X obj 1431 672 *~ 1;
#X obj 1551 721 *~ 1;
#X obj 1177 465 r inst;
#X obj 1178 489 % 2;
#X obj 1178 513 + 1;
#X obj 893 800 r sequenceNext;
#X obj 1221 375 r role;
#X obj 1220 401 sel actor;
#X obj 1295 400 r my_id;
#X obj 1295 424 % 2;
#X obj 1295 448 + 1;
#X obj 1368 450 i;
#N canvas 31 160 1182 618 sample_voice2 0;
#X obj 778 315 outlet~;
#X obj 779 192 vline~;
#X obj 792 -24 bng 19 250 50 0 empty empty empty 0 -10 0 12 #fcfcfc #000000 #000000;
#X msg 862 164 stop;
#X msg 779 163 0 \, \$2 \$3;
#X obj 779 135 pack 0 f f;
#X obj 845 111 expr $f2 / 48;
#X floatatom 906 138 5 0 0 0 - - - 0;
#X obj 794 -53 t b b;
#X obj -328 228 soundfiler;
#X floatatom -328 250 16 0 0 0 - - - 0;
#X obj -329 272 t b a;
#N canvas 635 172 450 278 (subpatch) 0;
#X array samplevoice2 80575 float 2;
#X coords 0 1 80575 -1 200 140 1 0 0;
#X restore -109 317 graph;
#X obj 794 -102 inlet;
#X obj -325 -119 gate 4 1;
#X obj -140 -180 inlet;
#X obj -70 -116 gate 4 1;
#X obj 794 -77 sel 1;
#X msg -347 -81 read -resize l002.wav samplevoice2;
#X msg -348 -55 read -resize l002.wav samplevoice2;
#X msg -348 -30 read -resize h002.wav samplevoice2;
#X msg -351 -4 read -resize a002.wav samplevoice2;
#X msg -83 -76 read -resize l006.wav samplevoice2;
#X msg -84 -52 read -resize l006.wav samplevoice2;
#X msg -86 -27 read -resize h006.wav samplevoice2;
#X msg -87 -1 read -resize a006.wav samplevoice2;
#X obj 779 221 tabread4~ samplevoice2;
#X obj -326 -178 r inst;
#X obj -325 -161 t b a;
#X msg -202 -162 1;
#X obj -133 -155 sel 1 2 3 4;
#X obj 196 -116 gate 4 1;
#X msg 179 -1 read -resize a011.wav samplevoice2;
#X msg 180 -27 read -resize h012.wav samplevoice2;
#X msg 182 -52 read -resize l015.wav samplevoice2;
#X msg 183 -76 read -resize l015.wav samplevoice2;
#X obj 451 -117 gate 4 1;
#X msg 434 -2 read -resize a023.wav samplevoice2;
#X msg 435 -28 read -resize h022.wav samplevoice2;
#X msg 437 -53 read -resize l026.wav samplevoice2;
#X msg 438 -77 read -resize l026.wav samplevoice2;
#X connect 1 0 26 0;
#X connect 2 0 5 0;
#X connect 3 0 1 0;
#X connect 4 0 1 0;
#X connect 5 0 4 0;
#X connect 6 0 5 2;
#X connect 6 0 7 0;
#X connect 8 0 2 0;
#X connect 9 0 10 0;
#X connect 10 0 11 0;
#X connect 11 0 6 0;
#X connect 11 1 6 1;
#X connect 11 1 5 1;
#X connect 13 0 17 0;
#X connect 14 0 18 0;
#X connect 14 1 19 0;
#X connect 14 2 20 0;
#X connect 14 3 21 0;
#X connect 15 0 30 0;
#X connect 16 0 22 0;
#X connect 16 1 23 0;
#X connect 16 2 24 0;
#X connect 16 3 25 0;
#X connect 17 0 8 0;
#X connect 18 0 9 0;
#X connect 19 0 9 0;
#X connect 20 0 9 0;
#X connect 21 0 9 0;
#X connect 22 0 9 0;
#X connect 23 0 9 0;
#X connect 24 0 9 0;
#X connect 25 0 9 0;
#X connect 26 0 0 0;
#X connect 27 0 28 0;
#X connect 28 0 29 0;
#X connect 28 1 14 0;
#X connect 28 1 16 0;
#X connect 28 1 31 0;
#X connect 28 1 36 0;
#X connect 29 0 30 0;
#X connect 30 0 14 1;
#X connect 30 1 16 1;
#X connect 30 2 31 1;
#X connect 30 3 36 1;
#X connect 31 0 35 0;
#X connect 31 1 34 0;
#X connect 31 2 33 0;
#X connect 31 3 32 0;
#X connect 32 0 9 0;
#X connect 33 0 9 0;
#X connect 34 0 9 0;
#X connect 35 0 9 0;
#X connect 36 0 40 0;
#X connect 36 1 39 0;
#X connect 36 2 38 0;
#X connect 36 3 37 0;
#X connect 37 0 9 0;
#X connect 38 0 9 0;
#X connect 39 0 9 0;
#X connect 40 0 9 0;
#X restore 1548 696 pd sample_voice2;
#X msg 1379 481 1;
#X msg 918 430 1;
#X obj 898 902 + 1;
#X obj 891 874 % 4;
#X obj 228 684 r sensor1;
#X obj 370 682 r sensor2;
#X obj 241 764 spigot;
#X obj 383 763 spigot;
#X obj 650 686 r mode;
#X obj 648 858 > 0;
#X obj 350 881 print unknown seq command;
#X text 668 979 mode enable;
#X obj 648 1077 &;
#X msg 667 1022 1;
#X obj 668 997 loadbang;
#X obj 665 1050 << 2;
#X obj 650 955 r mode;
#X obj 648 1107 > 0;
#X obj 679 857 tgl 19 0 empty empty empty 0 -10 0 12 #fcfcfc #000000 #000000 0 1;
#X obj 649 724 t a;
#X obj 652 819 ||;
#X obj 653 792 t b a;
#X obj 623 765 == 5;
#X obj 664 764 == 6;
#X msg 706 686 4;
#X msg 706 709 5;
#X msg 705 735 6;
#X connect 0 0 10 0;
#X connect 1 0 10 0;
#X connect 10 0 81 0;
#X connect 10 1 80 0;
#X connect 11 0 29 0;
#X connect 11 0 30 0;
#X connect 12 0 11 1;
#X connect 12 0 125 0;
#X connect 14 0 74 0;
#X connect 16 0 11 2;
#X connect 18 0 74 0;
#X connect 19 0 11 0;
#X connect 19 0 25 0;
#X connect 21 0 11 3;
#X connect 21 0 79 0;
#X connect 21 0 125 0;
#X connect 23 0 74 0;
#X connect 24 0 74 0;
#X connect 26 0 27 0;
#X connect 27 0 12 0;
#X connect 27 1 16 0;
#X connect 27 2 19 0;
#X connect 31 0 32 0;
#X connect 31 0 92 0;
#X connect 32 0 60 0;
#X connect 33 0 35 1;
#X connect 34 0 41 0;
#X connect 35 0 34 0;
#X connect 36 0 37 0;
#X connect 36 0 94 0;
#X connect 37 0 54 0;
#X connect 39 0 40 0;
#X connect 40 0 189 0;
#X connect 43 0 192 0;
#X connect 44 0 43 0;
#X connect 45 0 189 0;
#X connect 46 0 45 0;
#X connect 47 0 48 0;
#X connect 47 0 95 0;
#X connect 48 0 61 0;
#X connect 51 0 53 1;
#X connect 52 0 55 0;
#X connect 53 0 52 0;
#X connect 54 0 51 0;
#X connect 56 0 58 1;
#X connect 57 0 59 0;
#X connect 58 0 57 0;
#X connect 60 0 33 0;
#X connect 61 0 56 0;
#X connect 72 0 74 0;
#X connect 74 0 77 0;
#X connect 75 0 77 1;
#X connect 76 0 77 2;
#X connect 77 0 11 4;
#X connect 77 0 12 0;
#X connect 78 0 74 0;
#X connect 79 0 29 0;
#X connect 82 0 19 0;
#X connect 83 0 12 0;
#X connect 84 0 86 0;
#X connect 86 0 85 0;
#X connect 87 0 85 0;
#X connect 90 0 131 0;
#X connect 91 0 136 0;
#X connect 92 0 35 0;
#X connect 92 1 35 0;
#X connect 92 1 105 0;
#X connect 92 2 35 0;
#X connect 92 3 35 0;
#X connect 92 4 35 0;
#X connect 92 5 35 0;
#X connect 92 6 35 0;
#X connect 92 7 35 0;
#X connect 92 8 35 0;
#X connect 92 9 35 0;
#X connect 92 10 35 0;
#X connect 92 11 35 0;
#X connect 92 11 68 0;
#X connect 92 11 69 0;
#X connect 92 12 67 0;
#X connect 94 0 53 0;
#X connect 94 1 53 0;
#X connect 94 2 53 0;
#X connect 94 3 53 0;
#X connect 94 4 53 0;
#X connect 94 5 53 0;
#X connect 94 6 53 0;
#X connect 94 7 53 0;
#X connect 94 8 53 0;
#X connect 94 9 53 0;
#X connect 94 10 53 0;
#X connect 94 11 53 0;
#X connect 94 11 66 0;
#X connect 94 11 70 0;
#X connect 94 12 65 0;
#X connect 95 0 58 0;
#X connect 95 1 58 0;
#X connect 95 2 58 0;
#X connect 95 3 58 0;
#X connect 95 4 58 0;
#X connect 95 5 58 0;
#X connect 95 6 58 0;
#X connect 95 7 58 0;
#X connect 95 8 58 0;
#X connect 95 9 58 0;
#X connect 95 10 58 0;
#X connect 95 11 58 0;
#X connect 95 11 64 0;
#X connect 95 11 71 0;
#X connect 95 12 63 0;
#X connect 98 0 187 0;
#X connect 100 0 99 1;
#X connect 101 0 102 1;
#X connect 103 0 104 1;
#X connect 109 0 112 0;
#X connect 110 0 109 1;
#X connect 111 0 109 0;
#X connect 112 0 113 0;
#X connect 113 0 123 0;
#X connect 114 0 109 0;
#X connect 116 0 121 1;
#X connect 117 0 121 0;
#X connect 118 0 124 0;
#X connect 120 0 121 0;
#X connect 121 0 122 0;
#X connect 122 0 118 0;
#X connect 127 0 130 0;
#X connect 129 0 130 0;
#X connect 130 0 132 0;
#X connect 131 0 191 1;
#X connect 133 0 134 0;
#X connect 134 0 135 0;
#X connect 136 0 190 1;
#X connect 137 0 138 0;
#X connect 138 0 198 1;
#X connect 139 0 138 1;
#X connect 140 0 88 0;
#X connect 141 0 89 0;
#X connect 142 0 214 1;
#X connect 143 0 142 1;
#X connect 144 0 142 0;
#X connect 145 0 146 0;
#X connect 146 0 147 0;
#X connect 153 0 154 0;
#X connect 154 0 189 0;
#X connect 155 0 156 0;
#X connect 155 0 162 0;
#X connect 156 0 165 0;
#X connect 157 0 159 1;
#X connect 158 0 166 0;
#X connect 159 0 158 0;
#X connect 162 0 159 0;
#X connect 162 1 159 0;
#X connect 162 1 163 0;
#X connect 162 2 159 0;
#X connect 162 3 159 0;
#X connect 162 4 159 0;
#X connect 162 5 159 0;
#X connect 162 6 159 0;
#X connect 162 7 159 0;
#X connect 162 8 159 0;
#X connect 162 9 159 0;
#X connect 162 10 159 0;
#X connect 162 11 159 0;
#X connect 162 11 161 0;
#X connect 162 11 167 0;
#X connect 162 12 160 0;
#X connect 165 0 157 0;
#X connect 168 0 174 1;
#X connect 169 0 174 0;
#X connect 170 0 172 0;
#X connect 173 0 174 0;
#X connect 174 0 175 0;
#X connect 175 0 170 0;
#X connect 176 0 181 1;
#X connect 177 0 181 0;
#X connect 178 0 180 0;
#X connect 181 0 182 0;
#X connect 182 0 178 0;
#X connect 183 0 181 0;
#X connect 187 0 99 0;
#X connect 187 1 102 0;
#X connect 187 2 104 0;
#X connect 187 3 188 0;
#X connect 187 4 225 0;
#X connect 189 0 192 0;
#X connect 190 0 148 0;
#X connect 190 1 184 0;
#X connect 191 0 185 0;
#X connect 191 1 186 0;
#X connect 192 0 126 0;
#X connect 193 0 197 0;
#X connect 194 0 197 0;
#X connect 195 0 197 0;
#X connect 196 0 197 0;
#X connect 197 0 126 0;
#X connect 198 0 202 0;
#X connect 199 0 200 0;
#X connect 200 0 218 0;
#X connect 202 0 126 0;
#X connect 203 0 126 0;
#X connect 204 0 205 0;
#X connect 205 0 206 0;
#X connect 207 0 199 0;
#X connect 208 0 209 0;
#X connect 210 0 211 0;
#X connect 211 0 212 0;
#X connect 212 0 213 0;
#X connect 213 0 191 0;
#X connect 213 0 190 0;
#X connect 214 0 203 0;
#X connect 215 0 191 0;
#X connect 216 0 190 0;
#X connect 217 0 198 0;
#X connect 217 0 214 0;
#X connect 218 0 200 1;
#X connect 218 0 201 0;
#X connect 218 0 217 0;
#X connect 219 0 221 0;
#X connect 220 0 222 0;
#X connect 221 0 88 0;
#X connect 222 0 89 0;
#X connect 223 0 234 0;
#X connect 224 0 4 0;
#X connect 224 0 222 1;
#X connect 224 0 221 1;
#X connect 224 0 233 0;
#X connect 227 0 232 0;
#X connect 228 0 230 0;
#X connect 229 0 228 0;
#X connect 230 0 227 1;
#X connect 231 0 227 0;
#X connect 234 0 237 0;
#X connect 234 0 238 0;
#X connect 235 0 224 0;
#X connect 236 0 235 0;
#X connect 236 1 235 1;
#X connect 237 0 235 0;
#X connect 238 0 236 0;
#X connect 239 0 234 0;
#X connect 240 0 234 0;
#X connect 241 0 234 0;
