#N canvas 100 23 1180 704 12;
#X declare -lib zexy;
#X obj 517 743 outlet~;
#X obj 425 309 hsl 162 19 0 1 0 0 empty empty empty -2 -10 0 12 #fcfcfc #000000 #000000 0 1;
#X obj 422 336 - 1;
#X obj 422 363 abs;
#X obj 425 388 hsl 162 19 0 1 0 0 empty empty empty -2 -10 0 12 #fcfcfc #000000 #000000 0 1;
#X obj 423 198 sel 1 0;
#X obj 422 257 line;
#X obj 1155 146 switch~;
#X text 1068 -16 mode;
#X obj 426 146 ||;
#X obj 514 541 *~ 0;
#X msg 475 223 1 500;
#X msg 526 223 1 50;
#X obj 1048 699 line;
#X obj 422 281 expr $f1 *$f1 * $f1;
#X msg 422 223 0 4000;
#X msg 1222 127 0;
#X msg 1154 72 1;
#X obj 1154 18 sel 1 0;
#X obj 16 -17 declare -lib zexy;
#X obj 1176 107 tgl 19 0 empty empty empty 0 -10 0 12 #fcfcfc #000000 #000000 0 1;
#X obj 1066 5 r mode;
#X obj 524 -20 r sensor1;
#X obj 674 -19 r sensor2;
#X obj 201 -14 r mode2bow;
#X obj 475 86 gate 2 1;
#X obj 627 86 gate 2 1;
#X obj 674 144 ||;
#X obj 712 125 t b a;
#X obj 1335 50 s mode12cross;
#X obj 1040 604 hsl 162 19 0 1 0 0 empty empty empty -2 -10 0 12 #fcfcfc #000000 #000000 0 1;
#X obj 1062 312 r mode12cross;
#X obj 1064 349 spigot;
#X obj 1066 53 == 2;
#X msg 1009 11 2;
#X msg 990 44 1;
#X msg 1020 565 1 \$1;
#X msg 1214 570 0 5000;
#X obj 1281 101 del 5001;
#X obj 358 22 + 1;
#X obj 1089 108 sel 1 0;
#X obj 713 230 sel 0 1;
#X obj 516 718 *~;
#X msg 952 501 0 100;
#X msg 736 281 stop;
#X msg 1146 568 0 100, f 6;
#X obj 714 204 spigot;
#X obj 867 10 s startPoint;
#X obj 625 415 r startPoint;
#X obj 626 439 == 0;
#X obj 1219 -5 r startPoint;
#X obj 1221 65 gate 2 1;
#X obj 1220 43 + 1;
#X obj 1220 19 == 0;
#X obj 830 470 tgl 19 0 empty empty empty 0 -10 0 12 #fcfcfc #000000 #000000 0 1;
#N canvas 446 478 450 300 soundChoice_voice 0;
#X obj 189 225 outlet;
#X msg 196 89 001.wav;
#X msg 210 113 002.wav;
#X msg 216 139 003.wav;
#X obj 48 14 r my_id;
#X obj 49 80 % 5;
#X obj 49 104 + 1;
#X obj 49 128 t b a;
#X msg 226 164 004.wav;
#X msg 232 190 005.wav;
#X obj 196 37 gate 5 1;
#X connect 1 0 0 0;
#X connect 2 0 0 0;
#X connect 3 0 0 0;
#X connect 4 0 5 0;
#X connect 5 0 6 0;
#X connect 6 0 7 0;
#X connect 7 0 10 1;
#X connect 7 1 10 0;
#X connect 8 0 0 0;
#X connect 9 0 0 0;
#X connect 10 0 1 0;
#X connect 10 1 2 0;
#X connect 10 2 3 0;
#X connect 10 3 8 0;
#X connect 10 4 9 0;
#X restore 476 440 pd soundChoice_voice;
#X obj 627 463 tgl 19 0 empty empty empty 0 -10 0 12 #fcfcfc #000000 #000000 0 1;
#X msg 718 349 1;
#X obj 426 171 t a a;
#X obj 1051 543 s mode2bow;
#X msg 865 -18 0;
#X msg 903 -19 2;
#X obj 798 132 r startPoint;
#X obj 1222 101 del 101;
#X obj 1146 472 r startPoint;
#X obj 1147 542 gate 2 1;
#X obj 1146 520 + 1;
#X obj 1146 496 == 0;
#X obj 512 488 soundLooper voice;
#X obj 727 559 *~ 1;
#N canvas 446 478 450 300 soundChoice_violin 0;
#X msg 196 89 001_Vp.wav;
#X msg 210 113 002_Vp.wav;
#X msg 216 139 003_Vp.wav;
#X obj 189 225 outlet;
#X obj 348 55 loadbang;
#X msg 232 165 004_Vp.wav;
#X msg 246 189 005_Vp.wav;
#X obj 196 40 gate 5 1;
#X obj 50 18 r my_id;
#X obj 49 80 % 5;
#X obj 49 104 + 1;
#X obj 49 128 t b a;
#X connect 0 0 3 0;
#X connect 1 0 3 0;
#X connect 2 0 3 0;
#X connect 4 0 0 0;
#X connect 5 0 3 0;
#X connect 6 0 3 0;
#X connect 7 0 0 0;
#X connect 7 1 1 0;
#X connect 7 2 2 0;
#X connect 7 3 5 0;
#X connect 7 4 6 0;
#X connect 8 0 9 0;
#X connect 9 0 10 0;
#X connect 10 0 11 0;
#X connect 11 0 7 1;
#X connect 11 1 7 0;
#X restore 728 443 pd soundChoice_violin;
#X obj 728 494 soundLooper aaa;
#X obj 516 623 *~ 0.5;
#X msg 938 527 0.5 10000;
#X obj 525 13 spigot;
#X obj 676 8 spigot;
#X msg 1120 209 0;
#X obj 714 313 del 6000;
#X msg 763 349 0;
#X obj 736 256 t b b b;
#X obj 630 -13 tgl 19 0 empty empty empty 0 -10 0 12 #fcfcfc #000000 #000000 0 1;
#X obj 495 -17 tgl 19 0 empty empty empty 0 -10 0 12 #fcfcfc #000000 #000000 0 1;
#X obj 1106 51 tgl 19 0 empty empty empty 0 -10 0 12 #fcfcfc #000000 #000000 0 1;
#X floatatom 358 46 5 0 0 0 - - - 0;
#X obj 627 188 tgl 19 0 empty empty empty 0 -10 0 12 #fcfcfc #000000 #000000 0 1;
#X obj 621 165 bng 19 250 50 0 empty empty empty 0 -10 0 12 #fcfcfc #000000 #000000;
#X obj 243 34 sel 1 0;
#X obj 201 9 t a a a;
#X msg 266 66 0;
#X msg 1335 24 20000;
#X obj 1019 467 t a b;
#X msg 1052 521 1;
#X obj 1042 411 gate 2 1;
#X obj 1076 440 i;
#X obj 938 383 + 1;
#X obj 976 334 == 0;
#X obj 937 360 spigot;
#X obj 939 430 spigot;
#X msg 1029 377 1;
#X obj 938 407 sel 1;
#X obj 1294 152 s mode2bow;
#X msg 1293 128 0;
#X obj 1063 80 t a a a b;
#X msg 1159 429 stop;
#X floatatom 954 479 5 0 0 0 - - - 0;
#X obj 1027 502 bng 19 250 50 0 empty empty empty 0 -10 0 12 #fcfcfc #000000 #000000;
#X msg 1013 413 0;
#X obj 939 453 t b b;
#X obj 215 123 s string_vol_voice;
#X obj 1244 229 s string_vol_voice;
#X msg 1245 203 1 100;
#X msg 216 97 0 3000;
#X msg 1291 65 stop;
#X obj 799 154 t a a;
#X obj 798 189 > 0;
#X obj 695 268 bng 19 250 50 0 empty empty empty 0 -10 0 12 #fcfcfc #000000 #000000;
#X obj 683 349 bng 19 250 50 0 empty empty empty 0 -10 0 12 #fcfcfc #000000 #000000;
#X obj 631 269 counter;
#X obj 630 305 i;
#X obj 569 345 print protest;
#X obj 479 126 t b a b;
#X obj 793 10 t a a;
#X obj 794 34 sel 0;
#X msg 796 57 0;
#X obj 1088 186 t b b;
#X obj 363 566 snapshot~;
#X obj 110 694 hsl 162 19 -1 1 0 0 empty empty empty -2 -10 0 12 #fcfcfc #000000 #000000 0 1;
#X obj 362 590 abs;
#X obj 362 642 > 0;
#X msg 366 514 1;
#X obj 363 541 metro 100;
#X obj 23 125 s string_mode;
#X msg 25 98 0;
#X floatatom 310 664 5 0 0 0 - - - 0;
#X msg 399 513 0;
#X floatatom 411 705 5 0 0 0 - - - 0;
#X obj 361 682 bng 19 250 50 0 empty empty empty 0 -10 0 12 #fcfcfc #000000 #000000;
#X obj 752 529 scale 0 1 0.2 0.7;
#X obj 31 28 tgl 19 0 empty empty empty 0 -10 0 12 #fcfcfc #000000 #000000 0 1;
#X obj 31 52 s mode2bow;
#X obj 177 259 s LEDaction1;
#X obj 273 261 s LEDaction2;
#X obj 1062 377 t b a;
#X obj 1051 499 del 3000;
#X obj 140 194 s OchLEDfadeAmount;
#X obj 141 170 line 1 100;
#X msg 142 149 1 \, 0 3000;
#X connect 1 0 2 0;
#X connect 2 0 3 0;
#X connect 3 0 4 0;
#X connect 4 0 10 1;
#X connect 5 0 15 0;
#X connect 5 1 11 0;
#X connect 6 0 14 0;
#X connect 9 0 58 0;
#X connect 10 0 72 0;
#X connect 11 0 6 0;
#X connect 12 0 6 0;
#X connect 13 0 30 0;
#X connect 13 0 42 1;
#X connect 14 0 1 0;
#X connect 14 0 137 0;
#X connect 15 0 6 0;
#X connect 16 0 7 0;
#X connect 16 0 20 0;
#X connect 17 0 7 0;
#X connect 17 0 20 0;
#X connect 18 0 17 0;
#X connect 18 1 51 1;
#X connect 18 1 65 1;
#X connect 18 1 103 0;
#X connect 18 1 106 0;
#X connect 21 0 33 0;
#X connect 22 0 74 0;
#X connect 23 0 75 0;
#X connect 24 0 87 0;
#X connect 25 0 27 0;
#X connect 25 1 9 0;
#X connect 26 0 28 0;
#X connect 26 1 120 0;
#X connect 27 0 46 0;
#X connect 27 0 84 0;
#X connect 27 0 85 0;
#X connect 27 0 96 0;
#X connect 28 0 27 0;
#X connect 28 1 27 1;
#X connect 31 0 32 0;
#X connect 32 0 142 0;
#X connect 33 0 82 0;
#X connect 33 0 102 0;
#X connect 34 0 33 0;
#X connect 35 0 33 0;
#X connect 36 0 13 0;
#X connect 37 0 13 0;
#X connect 38 0 16 0;
#X connect 38 0 101 0;
#X connect 38 0 110 0;
#X connect 39 0 25 0;
#X connect 39 0 26 0;
#X connect 39 0 83 0;
#X connect 40 0 124 0;
#X connect 40 0 101 0;
#X connect 40 1 44 0;
#X connect 41 0 77 0;
#X connect 41 0 115 0;
#X connect 41 1 79 0;
#X connect 41 1 117 0;
#X connect 42 0 0 0;
#X connect 43 0 13 0;
#X connect 44 0 77 0;
#X connect 45 0 13 0;
#X connect 46 0 41 0;
#X connect 48 0 49 0;
#X connect 49 0 54 0;
#X connect 49 0 56 0;
#X connect 50 0 53 0;
#X connect 51 0 63 0;
#X connect 51 1 38 0;
#X connect 52 0 51 0;
#X connect 53 0 52 0;
#X connect 54 0 71 1;
#X connect 55 0 68 0;
#X connect 56 0 68 1;
#X connect 57 0 54 0;
#X connect 58 0 5 0;
#X connect 60 0 47 0;
#X connect 61 0 47 0;
#X connect 62 0 113 0;
#X connect 63 0 16 0;
#X connect 63 0 110 0;
#X connect 64 0 67 0;
#X connect 65 0 45 0;
#X connect 65 1 37 0;
#X connect 66 0 65 0;
#X connect 67 0 66 0;
#X connect 68 0 10 0;
#X connect 69 0 72 0;
#X connect 70 0 71 0;
#X connect 71 0 69 0;
#X connect 72 0 42 0;
#X connect 73 0 13 0;
#X connect 74 0 25 1;
#X connect 75 0 26 1;
#X connect 76 0 75 0;
#X connect 76 0 74 0;
#X connect 77 0 73 0;
#X connect 77 0 57 0;
#X connect 77 0 116 0;
#X connect 78 0 54 0;
#X connect 79 0 44 0;
#X connect 79 1 78 0;
#X connect 79 2 43 0;
#X connect 80 0 75 0;
#X connect 81 0 74 0;
#X connect 86 0 111 0;
#X connect 86 1 88 0;
#X connect 87 1 39 0;
#X connect 87 2 86 0;
#X connect 88 0 25 1;
#X connect 88 0 26 1;
#X connect 89 0 29 0;
#X connect 90 0 36 0;
#X connect 90 0 104 0;
#X connect 90 1 105 0;
#X connect 90 1 143 0;
#X connect 91 0 59 0;
#X connect 92 0 90 0;
#X connect 92 1 93 1;
#X connect 93 0 90 0;
#X connect 94 0 92 0;
#X connect 94 0 99 0;
#X connect 95 0 96 1;
#X connect 96 0 94 0;
#X connect 97 0 107 0;
#X connect 98 0 97 1;
#X connect 99 0 97 0;
#X connect 101 0 100 0;
#X connect 102 0 18 0;
#X connect 102 0 32 1;
#X connect 102 1 40 0;
#X connect 102 2 121 0;
#X connect 102 3 112 0;
#X connect 103 0 143 0;
#X connect 106 0 97 1;
#X connect 107 0 106 0;
#X connect 107 1 93 0;
#X connect 110 0 109 0;
#X connect 111 0 108 0;
#X connect 112 0 38 0;
#X connect 112 0 63 0;
#X connect 113 0 114 0;
#X connect 113 1 95 0;
#X connect 114 0 46 1;
#X connect 117 0 118 1;
#X connect 118 0 119 0;
#X connect 120 0 9 0;
#X connect 120 1 9 1;
#X connect 120 2 118 0;
#X connect 121 0 122 0;
#X connect 121 1 75 1;
#X connect 121 1 74 1;
#X connect 122 0 123 0;
#X connect 123 0 26 1;
#X connect 123 0 25 1;
#X connect 124 0 12 0;
#X connect 124 1 76 0;
#X connect 125 0 127 0;
#X connect 127 0 135 0;
#X connect 127 0 128 0;
#X connect 128 0 133 0;
#X connect 128 0 136 0;
#X connect 129 0 130 0;
#X connect 130 0 125 0;
#X connect 132 0 131 0;
#X connect 134 0 130 0;
#X connect 137 0 69 1;
#X connect 138 0 139 0;
#X connect 142 0 98 0;
#X connect 142 1 92 1;
#X connect 143 0 91 0;
#X connect 145 0 144 0;
#X connect 146 0 145 0;
