#N canvas 95 107 1148 671 12;
#X obj 676 89 r mode;
#X obj 336 388 string_synth;
#X obj 403 453 sig~;
#X msg 474 432 1;
#X msg 435 432 3;
#X obj 367 490 *~;
#X obj 502 338 r inst;
#X obj 502 361 == 3;
#X obj 502 384 sel 1 0;
#X obj 369 552 outlet~;
#X obj 676 300 switch~;
#X text 682 133 mode enable;
#N canvas 226 23 1026 755 StringNote 1;
#X obj 594 10 inlet;
#X obj 711 12 inlet;
#X obj 638 12 tgl 19 0 empty empty empty 0 -10 0 12 #fcfcfc #000000 #000000 0 1;
#X obj 758 12 tgl 19 0 empty empty empty 0 -10 0 12 #fcfcfc #000000 #000000 0 1;
#X obj 302 638 pack;
#X msg 156 829 0 0 0 0 0 0 0 0 0 0 0 0;
#X msg 461 816 0 0 0 0 0 0 0 0 0 0 0 0;
#X obj 146 965 s LEDstrip1;
#X obj 403 962 s LEDstrip2;
#X obj 404 913 LED_color;
#X obj 146 913 LED_color;
#X obj 174 854 loadbang;
#X floatatom 306 432 5 0 0 0 - - - 0;
#X msg 419 519 stop;
#X obj 462 848 loadbang;
#X obj 583 317 r my_ID;
#X msg 584 342 seed \$1;
#X obj 642 747 outlet;
#X obj 305 409 random 10;
#N canvas 89 120 450 300 violin_notes 0;
#X msg 55 107 60;
#X msg 131 109 64;
#X msg 198 108 67;
#X msg 276 109 71;
#X msg 236 108 69;
#X msg 310 110 72;
#X msg 92 108 62;
#X msg 162 109 65;
#X msg 344 108 74;
#X msg 386 109 76;
#X msg 420 110 77;
#X obj 168 68 sel 0 1 2 3 4 5 6 7 8 9;
#X obj 153 13 inlet;
#X obj 116 238 outlet;
#X connect 0 0 13 0;
#X connect 1 0 13 0;
#X connect 2 0 13 0;
#X connect 3 0 13 0;
#X connect 4 0 13 0;
#X connect 5 0 13 0;
#X connect 6 0 13 0;
#X connect 7 0 13 0;
#X connect 8 0 13 0;
#X connect 9 0 13 0;
#X connect 10 0 13 0;
#X connect 11 0 0 0;
#X connect 11 1 6 0;
#X connect 11 2 1 0;
#X connect 11 3 7 0;
#X connect 11 4 2 0;
#X connect 11 5 4 0;
#X connect 11 6 3 0;
#X connect 11 7 5 0;
#X connect 11 8 8 0;
#X connect 11 9 9 0;
#X connect 11 10 10 0;
#X connect 12 0 11 0;
#X restore 267 559 pd violin_notes;
#X obj 901 648 pack;
#X floatatom 940 440 5 0 0 0 - - - 0;
#X msg 984 548 stop;
#X obj 939 417 random 10;
#N canvas 89 120 450 300 violin_notes 0;
#X msg 55 107 60;
#X msg 131 109 64;
#X msg 198 108 67;
#X msg 276 109 71;
#X msg 236 108 69;
#X msg 310 110 72;
#X msg 92 108 62;
#X msg 162 109 65;
#X msg 344 108 74;
#X msg 386 109 76;
#X msg 420 110 77;
#X obj 168 68 sel 0 1 2 3 4 5 6 7 8 9;
#X obj 153 13 inlet;
#X obj 116 238 outlet;
#X connect 0 0 13 0;
#X connect 1 0 13 0;
#X connect 2 0 13 0;
#X connect 3 0 13 0;
#X connect 4 0 13 0;
#X connect 5 0 13 0;
#X connect 6 0 13 0;
#X connect 7 0 13 0;
#X connect 8 0 13 0;
#X connect 9 0 13 0;
#X connect 10 0 13 0;
#X connect 11 0 0 0;
#X connect 11 1 6 0;
#X connect 11 2 1 0;
#X connect 11 3 7 0;
#X connect 11 4 2 0;
#X connect 11 5 4 0;
#X connect 11 6 3 0;
#X connect 11 7 5 0;
#X connect 11 8 8 0;
#X connect 11 9 9 0;
#X connect 11 10 10 0;
#X connect 12 0 11 0;
#X restore 849 573 pd violin_notes;
#X obj 870 396 + 3;
#X msg 871 419 seed \$1;
#N canvas 110 143 450 300 cello_notes 0;
#X obj 51 177 outlet;
#X obj 46 31 inlet;
#X msg 81 110 50;
#X msg 120 111 52;
#X msg 151 111 53;
#X msg 187 110 55;
#X msg 225 110 57;
#X msg 265 111 59;
#X msg 299 112 60;
#X msg 44 109 49;
#X msg 340 113 62;
#X msg 374 114 64;
#X obj 48 72 sel 0 1 2 3 4 5 6 7 8 9, f 42;
#X connect 1 0 12 0;
#X connect 2 0 0 0;
#X connect 3 0 0 0;
#X connect 4 0 0 0;
#X connect 5 0 0 0;
#X connect 6 0 0 0;
#X connect 7 0 0 0;
#X connect 8 0 0 0;
#X connect 9 0 0 0;
#X connect 10 0 0 0;
#X connect 11 0 0 0;
#X connect 12 0 9 0;
#X connect 12 1 2 0;
#X connect 12 2 3 0;
#X connect 12 3 4 0;
#X connect 12 4 5 0;
#X connect 12 5 6 0;
#X connect 12 6 7 0;
#X connect 12 7 8 0;
#X connect 12 8 10 0;
#X connect 12 9 11 0;
#X restore 379 559 pd cello_notes;
#X obj 334 511 gate 2 1;
#X obj 887 548 gate 2 1;
#N canvas 110 143 450 300 cello_notes 0;
#X obj 51 177 outlet;
#X obj 46 31 inlet;
#X msg 81 110 50;
#X msg 120 111 52;
#X msg 151 111 53;
#X msg 187 110 55;
#X msg 225 110 57;
#X msg 265 111 59;
#X msg 299 112 60;
#X msg 44 109 49;
#X msg 340 113 62;
#X msg 374 114 64;
#X obj 48 72 sel 0 1 2 3 4 5 6 7 8 9, f 42;
#X connect 1 0 12 0;
#X connect 2 0 0 0;
#X connect 3 0 0 0;
#X connect 4 0 0 0;
#X connect 5 0 0 0;
#X connect 6 0 0 0;
#X connect 7 0 0 0;
#X connect 8 0 0 0;
#X connect 9 0 0 0;
#X connect 10 0 0 0;
#X connect 11 0 0 0;
#X connect 12 0 9 0;
#X connect 12 1 2 0;
#X connect 12 2 3 0;
#X connect 12 3 4 0;
#X connect 12 4 5 0;
#X connect 12 5 6 0;
#X connect 12 6 7 0;
#X connect 12 7 8 0;
#X connect 12 8 10 0;
#X connect 12 9 11 0;
#X restore 976 576 pd cello_notes;
#X obj 247 455 r inst;
#X obj 246 480 sel 3;
#X msg 241 504 2;
#X msg 276 503 1;
#X obj 836 475 r inst;
#X obj 835 500 sel 3;
#X msg 832 524 2;
#X msg 865 523 1;
#X msg 381 411 5;
#X obj 302 613 makenote 80 20000;
#X obj 901 623 makenote 80 20000;
#X msg 1011 416 5;
#X msg 409 410 4;
#X msg 1043 416 4;
#X obj 206 83 hradio 19 1 0 7 empty empty empty 0 -10 0 12 #fcfcfc #000000 #000000 0;
#X obj 144 335 counter 0 7;
#X msg 209 289 set 0;
#X obj 208 153 sel 4;
#X obj 643 447 i;
#N canvas 153 44 1127 701 ledstrip1 0;
#X obj 81 32 inlet;
#X obj 639 659 outlet;
#X obj 78 651 outlet;
#X obj 572 42 inlet;
#X obj 280 650 outlet;
#X obj 132 32 tgl 19 0 empty empty empty 0 -10 0 12 #fcfcfc #000000 #000000 0 1;
#X obj 131 65 tgl 19 0 empty empty empty 0 -10 0 12 #fcfcfc #000000 #000000 0 1;
#X obj 81 64 t a a;
#X obj 130 131 tgl 19 0 empty empty empty 0 -10 0 12 #fcfcfc #000000 #000000 0 1;
#X obj 80 130 t a a;
#X obj 131 198 tgl 19 0 empty empty empty 0 -10 0 12 #fcfcfc #000000 #000000 0 1;
#X obj 81 197 t a a;
#X obj 131 318 tgl 19 0 empty empty empty 0 -10 0 12 #fcfcfc #000000 #000000 0 1;
#X obj 81 317 t a a;
#X obj 130 384 tgl 19 0 empty empty empty 0 -10 0 12 #fcfcfc #000000 #000000 0 1;
#X obj 80 383 t a a;
#X obj 295 92 tgl 19 0 empty empty empty 0 -10 0 12 #fcfcfc #000000 #000000 0 1;
#X obj 245 91 t a a;
#X obj 296 161 tgl 19 0 empty empty empty 0 -10 0 12 #fcfcfc #000000 #000000 0 1;
#X obj 246 160 t a a;
#X obj 296 228 tgl 19 0 empty empty empty 0 -10 0 12 #fcfcfc #000000 #000000 0 1;
#X obj 246 227 t a a;
#X obj 295 294 tgl 19 0 empty empty empty 0 -10 0 12 #fcfcfc #000000 #000000 0 1;
#X obj 245 293 t a a;
#X obj 296 361 tgl 19 0 empty empty empty 0 -10 0 12 #fcfcfc #000000 #000000 0 1;
#X obj 246 360 t a a;
#X obj 221 592 tgl 19 0 empty empty empty 0 -10 0 12 #fcfcfc #000000 #000000 0 1;
#X obj 248 499 t a b a;
#X obj 130 257 tgl 19 0 empty empty empty 0 -10 0 12 #fcfcfc #000000 #000000 0 1;
#X obj 80 256 t a a;
#X msg 573 112 clear;
#X obj 247 418 route 0;
#X msg 248 472 0;
#X obj 572 78 t b b;
#X msg 533 73 0;
#X msg 635 112 0 0 0 0 0 0 0 0 0 0 0 0;
#X obj 655 625 pak 0 0 0 0 0 0 0 0 0 0 0 0, f 49;
#X msg 161 501 1;
#X obj 160 473 sel 1;
#X obj 81 95 pipe 100;
#X obj 80 161 pipe 100;
#X obj 81 228 pipe 100;
#X obj 80 287 pipe 100;
#X obj 81 348 pipe 100;
#X obj 246 66 pipe 100;
#X obj 245 122 pipe 100;
#X obj 246 191 pipe 100;
#X obj 246 258 pipe 100;
#X obj 245 324 pipe 100;
#X obj 246 391 pipe 100;
#X obj 247 448 delay 200;
#X obj 965 58 inlet;
#X connect 0 0 7 0;
#X connect 3 0 33 0;
#X connect 5 0 7 0;
#X connect 7 0 39 0;
#X connect 7 1 6 0;
#X connect 7 1 36 0;
#X connect 9 0 40 0;
#X connect 9 1 8 0;
#X connect 9 1 36 1;
#X connect 11 0 41 0;
#X connect 11 1 10 0;
#X connect 11 1 36 2;
#X connect 13 0 43 0;
#X connect 13 1 12 0;
#X connect 13 1 36 4;
#X connect 15 0 44 0;
#X connect 15 1 14 0;
#X connect 15 1 36 5;
#X connect 17 0 45 0;
#X connect 17 0 38 0;
#X connect 17 1 16 0;
#X connect 17 1 36 6;
#X connect 19 0 46 0;
#X connect 19 1 18 0;
#X connect 19 1 36 7;
#X connect 21 0 47 0;
#X connect 21 1 20 0;
#X connect 21 1 36 8;
#X connect 23 0 48 0;
#X connect 23 1 22 0;
#X connect 23 1 36 9;
#X connect 25 0 49 0;
#X connect 25 1 24 0;
#X connect 25 1 36 10;
#X connect 26 0 4 0;
#X connect 27 0 2 0;
#X connect 27 2 36 11;
#X connect 29 0 42 0;
#X connect 29 1 28 0;
#X connect 29 1 36 3;
#X connect 30 0 39 0;
#X connect 30 0 40 0;
#X connect 30 0 41 0;
#X connect 30 0 42 0;
#X connect 30 0 43 0;
#X connect 30 0 44 0;
#X connect 30 0 45 0;
#X connect 30 0 46 0;
#X connect 30 0 47 0;
#X connect 30 0 48 0;
#X connect 30 0 49 0;
#X connect 31 0 50 0;
#X connect 31 1 27 0;
#X connect 32 0 27 0;
#X connect 32 0 26 0;
#X connect 33 0 35 0;
#X connect 33 0 34 0;
#X connect 33 1 30 0;
#X connect 34 0 7 0;
#X connect 35 0 1 0;
#X connect 36 0 1 0;
#X connect 37 0 26 0;
#X connect 38 0 37 0;
#X connect 39 0 9 0;
#X connect 40 0 11 0;
#X connect 41 0 29 0;
#X connect 42 0 13 0;
#X connect 43 0 15 0;
#X connect 44 0 17 0;
#X connect 45 0 19 0;
#X connect 46 0 21 0;
#X connect 47 0 23 0;
#X connect 48 0 25 0;
#X connect 49 0 31 0;
#X connect 50 0 32 0;
#X connect 51 0 39 1;
#X connect 51 0 40 1;
#X connect 51 0 41 1;
#X connect 51 0 42 1;
#X connect 51 0 43 1;
#X connect 51 0 44 1;
#X connect 51 0 45 1;
#X connect 51 0 46 1;
#X connect 51 0 47 1;
#X connect 51 0 48 1;
#X connect 51 0 49 1;
#X restore 3 239 pd ledstrip1;
#X obj 145 292 sel 1;
#X obj 40 265 tgl 19 0 empty empty empty 0 -10 0 12 #fcfcfc #000000 #000000 0 1;
#X floatatom 223 124 5 0 0 0 - - - 0;
#X obj 213 178 bng 19 250 50 0 empty empty empty 0 -10 0 12 #fcfcfc #000000 #000000;
#X msg 285 281 1;
#X obj 270 306 del 200;
#X msg 271 332 0;
#X obj 208 240 t b b;
#X msg 272 199 1;
#X msg 303 200 0;
#X obj 271 245 t b b;
#X obj 271 221 metro 1200;
#N canvas 153 44 1127 701 ledstrip2 0;
#X obj 81 32 inlet;
#X obj 639 659 outlet;
#X obj 78 651 outlet;
#X obj 572 42 inlet;
#X obj 280 650 outlet;
#X obj 132 32 tgl 19 0 empty empty empty 0 -10 0 12 #fcfcfc #000000 #000000 0 1;
#X obj 131 65 tgl 19 0 empty empty empty 0 -10 0 12 #fcfcfc #000000 #000000 0 1;
#X obj 81 64 t a a;
#X obj 130 131 tgl 19 0 empty empty empty 0 -10 0 12 #fcfcfc #000000 #000000 0 1;
#X obj 80 130 t a a;
#X obj 131 198 tgl 19 0 empty empty empty 0 -10 0 12 #fcfcfc #000000 #000000 0 1;
#X obj 81 197 t a a;
#X obj 131 318 tgl 19 0 empty empty empty 0 -10 0 12 #fcfcfc #000000 #000000 0 1;
#X obj 81 317 t a a;
#X obj 130 384 tgl 19 0 empty empty empty 0 -10 0 12 #fcfcfc #000000 #000000 0 1;
#X obj 80 383 t a a;
#X obj 295 92 tgl 19 0 empty empty empty 0 -10 0 12 #fcfcfc #000000 #000000 0 1;
#X obj 245 91 t a a;
#X obj 296 161 tgl 19 0 empty empty empty 0 -10 0 12 #fcfcfc #000000 #000000 0 1;
#X obj 246 160 t a a;
#X obj 296 228 tgl 19 0 empty empty empty 0 -10 0 12 #fcfcfc #000000 #000000 0 1;
#X obj 246 227 t a a;
#X obj 295 294 tgl 19 0 empty empty empty 0 -10 0 12 #fcfcfc #000000 #000000 0 1;
#X obj 245 293 t a a;
#X obj 296 361 tgl 19 0 empty empty empty 0 -10 0 12 #fcfcfc #000000 #000000 0 1;
#X obj 246 360 t a a;
#X obj 221 592 tgl 19 0 empty empty empty 0 -10 0 12 #fcfcfc #000000 #000000 0 1;
#X obj 248 499 t a b a;
#X obj 130 257 tgl 19 0 empty empty empty 0 -10 0 12 #fcfcfc #000000 #000000 0 1;
#X obj 80 256 t a a;
#X msg 573 112 clear;
#X obj 247 418 route 0;
#X msg 248 472 0;
#X obj 572 78 t b b;
#X msg 533 73 0;
#X msg 635 112 0 0 0 0 0 0 0 0 0 0 0 0;
#X obj 655 625 pak 0 0 0 0 0 0 0 0 0 0 0 0, f 49;
#X msg 161 501 1;
#X obj 160 473 sel 1;
#X obj 81 95 pipe 100;
#X obj 80 161 pipe 100;
#X obj 81 228 pipe 100;
#X obj 80 287 pipe 100;
#X obj 81 348 pipe 100;
#X obj 246 66 pipe 100;
#X obj 245 122 pipe 100;
#X obj 246 191 pipe 100;
#X obj 246 258 pipe 100;
#X obj 245 324 pipe 100;
#X obj 246 391 pipe 100;
#X obj 247 448 delay 200;
#X obj 965 58 inlet;
#X connect 0 0 7 0;
#X connect 3 0 33 0;
#X connect 5 0 7 0;
#X connect 7 0 39 0;
#X connect 7 1 6 0;
#X connect 7 1 36 0;
#X connect 9 0 40 0;
#X connect 9 1 8 0;
#X connect 9 1 36 1;
#X connect 11 0 41 0;
#X connect 11 1 10 0;
#X connect 11 1 36 2;
#X connect 13 0 43 0;
#X connect 13 1 12 0;
#X connect 13 1 36 4;
#X connect 15 0 44 0;
#X connect 15 1 14 0;
#X connect 15 1 36 5;
#X connect 17 0 45 0;
#X connect 17 0 38 0;
#X connect 17 1 16 0;
#X connect 17 1 36 6;
#X connect 19 0 46 0;
#X connect 19 1 18 0;
#X connect 19 1 36 7;
#X connect 21 0 47 0;
#X connect 21 1 20 0;
#X connect 21 1 36 8;
#X connect 23 0 48 0;
#X connect 23 1 22 0;
#X connect 23 1 36 9;
#X connect 25 0 49 0;
#X connect 25 1 24 0;
#X connect 25 1 36 10;
#X connect 26 0 4 0;
#X connect 27 0 2 0;
#X connect 27 2 36 11;
#X connect 29 0 42 0;
#X connect 29 1 28 0;
#X connect 29 1 36 3;
#X connect 30 0 39 0;
#X connect 30 0 40 0;
#X connect 30 0 41 0;
#X connect 30 0 42 0;
#X connect 30 0 43 0;
#X connect 30 0 44 0;
#X connect 30 0 45 0;
#X connect 30 0 46 0;
#X connect 30 0 47 0;
#X connect 30 0 48 0;
#X connect 30 0 49 0;
#X connect 31 0 50 0;
#X connect 31 1 27 0;
#X connect 32 0 27 0;
#X connect 32 0 26 0;
#X connect 33 0 35 0;
#X connect 33 0 34 0;
#X connect 33 1 30 0;
#X connect 34 0 7 0;
#X connect 35 0 1 0;
#X connect 36 0 1 0;
#X connect 37 0 26 0;
#X connect 38 0 37 0;
#X connect 39 0 9 0;
#X connect 40 0 11 0;
#X connect 41 0 29 0;
#X connect 42 0 13 0;
#X connect 43 0 15 0;
#X connect 44 0 17 0;
#X connect 45 0 19 0;
#X connect 46 0 21 0;
#X connect 47 0 23 0;
#X connect 48 0 25 0;
#X connect 49 0 31 0;
#X connect 50 0 32 0;
#X connect 51 0 39 1;
#X connect 51 0 40 1;
#X connect 51 0 41 1;
#X connect 51 0 42 1;
#X connect 51 0 43 1;
#X connect 51 0 44 1;
#X connect 51 0 45 1;
#X connect 51 0 46 1;
#X connect 51 0 47 1;
#X connect 51 0 48 1;
#X connect 51 0 49 1;
#X restore 103 239 pd ledstrip2;
#X obj 399 125 gate 2 1;
#X obj 476 152 sel 0;
#X msg 476 175 1;
#X obj 349 154 sel 0;
#X msg 349 177 2;
#X obj 152 265 tgl 19 0 empty empty empty 0 -10 0 12 #fcfcfc #000000 #000000 0 1;
#X obj 631 664 pack;
#N canvas 89 120 616 311 violin_notes 0;
#X msg 55 107 60;
#X msg 131 109 64;
#X msg 198 108 67;
#X msg 276 109 71;
#X msg 236 108 69;
#X msg 310 110 72;
#X msg 92 108 62;
#X msg 162 109 65;
#X msg 344 108 74;
#X msg 386 109 76;
#X msg 420 110 77;
#X obj 168 68 sel 0 1 2 3 4 5 6 7 8 9;
#X obj 153 13 inlet;
#X obj 116 238 outlet;
#X connect 0 0 13 0;
#X connect 1 0 13 0;
#X connect 2 0 13 0;
#X connect 3 0 13 0;
#X connect 4 0 13 0;
#X connect 5 0 13 0;
#X connect 6 0 13 0;
#X connect 7 0 13 0;
#X connect 8 0 13 0;
#X connect 9 0 13 0;
#X connect 10 0 13 0;
#X connect 11 0 0 0;
#X connect 11 1 6 0;
#X connect 11 2 1 0;
#X connect 11 3 7 0;
#X connect 11 4 2 0;
#X connect 11 5 4 0;
#X connect 11 6 3 0;
#X connect 11 7 5 0;
#X connect 11 8 8 0;
#X connect 11 9 9 0;
#X connect 11 10 10 0;
#X connect 12 0 11 0;
#X restore 596 585 pd violin_notes;
#N canvas 110 143 450 300 cello_notes 0;
#X obj 51 177 outlet;
#X obj 46 31 inlet;
#X msg 81 110 50;
#X msg 120 111 52;
#X msg 151 111 53;
#X msg 187 110 55;
#X msg 225 110 57;
#X msg 265 111 59;
#X msg 299 112 60;
#X msg 44 109 49;
#X msg 340 113 62;
#X msg 374 114 64;
#X obj 48 72 sel 0 1 2 3 4 5 6 7 8 9, f 42;
#X connect 1 0 12 0;
#X connect 2 0 0 0;
#X connect 3 0 0 0;
#X connect 4 0 0 0;
#X connect 5 0 0 0;
#X connect 6 0 0 0;
#X connect 7 0 0 0;
#X connect 8 0 0 0;
#X connect 9 0 0 0;
#X connect 10 0 0 0;
#X connect 11 0 0 0;
#X connect 12 0 9 0;
#X connect 12 1 2 0;
#X connect 12 2 3 0;
#X connect 12 3 4 0;
#X connect 12 4 5 0;
#X connect 12 5 6 0;
#X connect 12 6 7 0;
#X connect 12 7 8 0;
#X connect 12 8 10 0;
#X connect 12 9 11 0;
#X restore 708 585 pd cello_notes;
#X obj 577 537 gate 2 1;
#X obj 565 460 r inst;
#X obj 564 485 sel 3;
#X msg 559 509 2;
#X msg 594 508 1;
#X obj 631 639 makenote 80 20000;
#X msg 724 516 stop;
#X floatatom 666 482 5 0 0 0 - - - 0;
#X obj 144 794 t a b;
#X obj 408 797 t a b;
#N canvas 123 23 1104 755 orchestrasong 1;
#X obj 26 105 midifile;
#X obj 25 -25 loadbang;
#X obj 15 236 unpack;
#X obj 671 -29 inlet;
#X obj 809 -28 inlet;
#X obj 146 117 print info;
#X obj 732 0 tgl 19 0 empty empty empty 0 -10 0 12 #fcfcfc #000000 #000000 0 1;
#X obj 865 3 tgl 19 0 empty empty empty 0 -10 0 12 #fcfcfc #000000 #000000 0 1;
#X obj 346 240 &&;
#X obj 25 145 route 144 128;
#X obj 15 210 route 147;
#X obj 440 238 &&;
#N canvas 153 77 1127 701 ledstrip2 0;
#X obj 81 32 inlet;
#X obj 642 674 outlet;
#X obj 105 654 outlet;
#X obj 570 40 inlet;
#X obj 333 647 outlet;
#X obj 131 65 tgl 19 0 empty empty empty 0 -10 0 12 #fcfcfc #000000 #000000 0 1;
#X obj 81 95 pipe 125;
#X obj 81 64 t a a;
#X obj 130 131 tgl 19 0 empty empty empty 0 -10 0 12 #fcfcfc #000000 #000000 0 1;
#X obj 80 161 pipe 125;
#X obj 80 130 t a a;
#X obj 131 198 tgl 19 0 empty empty empty 0 -10 0 12 #fcfcfc #000000 #000000 0 1;
#X obj 81 228 pipe 125;
#X obj 81 197 t a a;
#X obj 131 318 tgl 19 0 empty empty empty 0 -10 0 12 #fcfcfc #000000 #000000 0 1;
#X obj 81 348 pipe 125;
#X obj 81 317 t a a;
#X obj 130 384 tgl 19 0 empty empty empty 0 -10 0 12 #fcfcfc #000000 #000000 0 1;
#X obj 246 66 pipe 125;
#X obj 80 383 t a a;
#X obj 295 92 tgl 19 0 empty empty empty 0 -10 0 12 #fcfcfc #000000 #000000 0 1;
#X obj 245 122 pipe 125;
#X obj 245 91 t a a;
#X obj 296 161 tgl 19 0 empty empty empty 0 -10 0 12 #fcfcfc #000000 #000000 0 1;
#X obj 246 191 pipe 125;
#X obj 246 160 t a a;
#X obj 296 228 tgl 19 0 empty empty empty 0 -10 0 12 #fcfcfc #000000 #000000 0 1;
#X obj 246 258 pipe 125;
#X obj 246 227 t a a;
#X obj 295 294 tgl 19 0 empty empty empty 0 -10 0 12 #fcfcfc #000000 #000000 0 1;
#X obj 245 324 pipe 125;
#X obj 245 293 t a a;
#X obj 296 361 tgl 19 0 empty empty empty 0 -10 0 12 #fcfcfc #000000 #000000 0 1;
#X obj 246 391 pipe 125;
#X obj 246 354 t a a;
#X obj 307 496 tgl 19 0 empty empty empty 0 -10 0 12 #fcfcfc #000000 #000000 0 1;
#X obj 248 499 t a b a;
#X obj 130 257 tgl 19 0 empty empty empty 0 -10 0 12 #fcfcfc #000000 #000000 0 1;
#X obj 80 287 pipe 125;
#X obj 80 256 t a a;
#X msg 573 112 clear;
#X obj 275 537 ||;
#X obj 247 418 route 0;
#X msg 248 472 0;
#X obj 572 78 t b b;
#X msg 533 73 0;
#X msg 635 112 0 0 0 0 0 0 0 0 0 0 0 0;
#X obj 655 625 pak 0 0 0 0 0 0 0 0 0 0 0 0, f 49;
#X obj 133 32 tgl 19 0 empty empty empty 0 -10 0 12 #fcfcfc #000000 #000000 0 1;
#X msg 645 170 set 0 0 0 0 0 0 0 0 0 0 0 0;
#X obj 247 447 delay 300;
#X connect 0 0 7 0;
#X connect 3 0 44 0;
#X connect 6 0 10 0;
#X connect 7 0 6 0;
#X connect 7 1 5 0;
#X connect 7 1 47 0;
#X connect 9 0 13 0;
#X connect 10 0 9 0;
#X connect 10 1 8 0;
#X connect 10 1 47 1;
#X connect 12 0 39 0;
#X connect 13 0 12 0;
#X connect 13 1 11 0;
#X connect 13 1 47 2;
#X connect 15 0 19 0;
#X connect 16 0 15 0;
#X connect 16 1 14 0;
#X connect 16 1 47 4;
#X connect 18 0 22 0;
#X connect 19 0 18 0;
#X connect 19 1 17 0;
#X connect 19 1 47 5;
#X connect 21 0 25 0;
#X connect 22 0 21 0;
#X connect 22 1 20 0;
#X connect 22 1 47 6;
#X connect 24 0 28 0;
#X connect 25 0 24 0;
#X connect 25 1 23 0;
#X connect 25 1 47 7;
#X connect 27 0 31 0;
#X connect 28 0 27 0;
#X connect 28 1 26 0;
#X connect 28 1 47 8;
#X connect 30 0 34 0;
#X connect 31 0 30 0;
#X connect 31 1 29 0;
#X connect 31 1 47 9;
#X connect 31 1 41 0;
#X connect 33 0 42 0;
#X connect 34 0 33 0;
#X connect 34 1 32 0;
#X connect 34 1 47 10;
#X connect 36 0 2 0;
#X connect 36 1 41 0;
#X connect 36 2 35 0;
#X connect 36 2 41 1;
#X connect 36 2 47 11;
#X connect 38 0 16 0;
#X connect 39 0 38 0;
#X connect 39 1 37 0;
#X connect 39 1 47 3;
#X connect 40 0 6 0;
#X connect 40 0 9 0;
#X connect 40 0 12 0;
#X connect 40 0 38 0;
#X connect 40 0 15 0;
#X connect 40 0 18 0;
#X connect 40 0 21 0;
#X connect 40 0 24 0;
#X connect 40 0 27 0;
#X connect 40 0 30 0;
#X connect 40 0 33 0;
#X connect 41 0 4 0;
#X connect 42 0 50 0;
#X connect 42 1 36 0;
#X connect 43 0 36 0;
#X connect 44 0 46 0;
#X connect 44 0 45 0;
#X connect 44 0 49 0;
#X connect 44 1 40 0;
#X connect 46 0 1 0;
#X connect 47 0 1 0;
#X connect 48 0 7 0;
#X connect 49 0 47 0;
#X connect 50 0 43 0;
#X restore 400 170 pd ledstrip2;
#N canvas 153 77 1127 701 ledstrip1 0;
#X obj 81 32 inlet;
#X obj 639 659 outlet;
#X obj 78 651 outlet;
#X obj 572 42 inlet;
#X obj 280 650 outlet;
#X obj 132 32 tgl 19 0 empty empty empty 0 -10 0 12 #fcfcfc #000000 #000000 0 1;
#X obj 131 65 tgl 19 0 empty empty empty 0 -10 0 12 #fcfcfc #000000 #000000 0 1;
#X obj 81 95 pipe 125;
#X obj 81 64 t a a;
#X obj 130 131 tgl 19 0 empty empty empty 0 -10 0 12 #fcfcfc #000000 #000000 0 1;
#X obj 80 161 pipe 125;
#X obj 80 130 t a a;
#X obj 131 198 tgl 19 0 empty empty empty 0 -10 0 12 #fcfcfc #000000 #000000 0 1;
#X obj 81 228 pipe 125;
#X obj 81 197 t a a;
#X obj 131 318 tgl 19 0 empty empty empty 0 -10 0 12 #fcfcfc #000000 #000000 0 1;
#X obj 81 348 pipe 125;
#X obj 81 317 t a a;
#X obj 130 384 tgl 19 0 empty empty empty 0 -10 0 12 #fcfcfc #000000 #000000 0 1;
#X obj 246 66 pipe 125;
#X obj 80 383 t a a;
#X obj 295 92 tgl 19 0 empty empty empty 0 -10 0 12 #fcfcfc #000000 #000000 0 1;
#X obj 245 122 pipe 125;
#X obj 245 91 t a a;
#X obj 296 161 tgl 19 0 empty empty empty 0 -10 0 12 #fcfcfc #000000 #000000 0 1;
#X obj 246 191 pipe 125;
#X obj 246 160 t a a;
#X obj 296 228 tgl 19 0 empty empty empty 0 -10 0 12 #fcfcfc #000000 #000000 0 1;
#X obj 246 258 pipe 125;
#X obj 246 227 t a a;
#X obj 295 294 tgl 19 0 empty empty empty 0 -10 0 12 #fcfcfc #000000 #000000 0 1;
#X obj 245 324 pipe 125;
#X obj 245 293 t a a;
#X obj 296 361 tgl 19 0 empty empty empty 0 -10 0 12 #fcfcfc #000000 #000000 0 1;
#X obj 246 391 pipe 125;
#X obj 246 361 t a a;
#X obj 307 496 tgl 19 0 empty empty empty 0 -10 0 12 #fcfcfc #000000 #000000 0 1;
#X obj 248 499 t a b a;
#X obj 130 257 tgl 19 0 empty empty empty 0 -10 0 12 #fcfcfc #000000 #000000 0 1;
#X obj 80 287 pipe 125;
#X obj 80 256 t a a;
#X msg 573 112 clear;
#X obj 275 537 ||;
#X obj 247 418 route 0;
#X msg 248 472 0;
#X obj 572 78 t b b;
#X msg 533 73 0;
#X msg 635 112 0 0 0 0 0 0 0 0 0 0 0 0;
#X obj 655 625 pak 0 0 0 0 0 0 0 0 0 0 0 0, f 49;
#X msg 664 193 set 0 0 0 0 0 0 0 0 0 0 0 0;
#X obj 247 447 delay 300;
#X connect 0 0 8 0;
#X connect 3 0 45 0;
#X connect 5 0 8 0;
#X connect 7 0 11 0;
#X connect 8 0 7 0;
#X connect 8 1 6 0;
#X connect 8 1 48 0;
#X connect 10 0 14 0;
#X connect 11 0 10 0;
#X connect 11 1 9 0;
#X connect 11 1 48 1;
#X connect 13 0 40 0;
#X connect 14 0 13 0;
#X connect 14 1 12 0;
#X connect 14 1 48 2;
#X connect 16 0 20 0;
#X connect 17 0 16 0;
#X connect 17 1 15 0;
#X connect 17 1 48 4;
#X connect 19 0 23 0;
#X connect 20 0 19 0;
#X connect 20 1 18 0;
#X connect 20 1 48 5;
#X connect 22 0 26 0;
#X connect 23 0 22 0;
#X connect 23 1 21 0;
#X connect 23 1 48 6;
#X connect 25 0 29 0;
#X connect 26 0 25 0;
#X connect 26 1 24 0;
#X connect 26 1 48 7;
#X connect 28 0 32 0;
#X connect 29 0 28 0;
#X connect 29 1 27 0;
#X connect 29 1 48 8;
#X connect 31 0 35 0;
#X connect 32 0 31 0;
#X connect 32 1 30 0;
#X connect 32 1 48 9;
#X connect 32 1 42 0;
#X connect 34 0 43 0;
#X connect 35 0 34 0;
#X connect 35 1 33 0;
#X connect 35 1 48 10;
#X connect 37 0 2 0;
#X connect 37 1 42 0;
#X connect 37 2 36 0;
#X connect 37 2 42 1;
#X connect 37 2 48 11;
#X connect 39 0 17 0;
#X connect 40 0 39 0;
#X connect 40 1 38 0;
#X connect 40 1 48 3;
#X connect 41 0 7 0;
#X connect 41 0 10 0;
#X connect 41 0 13 0;
#X connect 41 0 39 0;
#X connect 41 0 16 0;
#X connect 41 0 19 0;
#X connect 41 0 22 0;
#X connect 41 0 25 0;
#X connect 41 0 28 0;
#X connect 41 0 31 0;
#X connect 41 0 34 0;
#X connect 42 0 4 0;
#X connect 43 0 50 0;
#X connect 43 1 37 0;
#X connect 44 0 37 0;
#X connect 45 0 47 0;
#X connect 45 0 46 0;
#X connect 45 0 49 0;
#X connect 45 1 41 0;
#X connect 47 0 1 0;
#X connect 48 0 1 0;
#X connect 49 0 48 0;
#X connect 50 0 44 0;
#X restore 303 167 pd ledstrip1;
#X text 1006 -31 instrument num;
#X obj 958 4 sel 0 1 2 3;
#X obj 1087 65 s instnum;
#X obj 80 179 r instnum;
#X msg 1020 69 2;
#X msg 973 70 1;
#X obj 298 609 s LEDstrip1;
#X obj 490 605 s LEDstrip2;
#X obj 343 304 s LEDaction1;
#X obj 442 306 s LEDaction2;
#X text 1094 35 midi channel;
#X obj 752 80 ||;
#X obj 806 39 t b a;
#X msg 21 60 track -1;
#X obj 25 21 t b b;
#X msg 124 231 clear;
#X obj 345 209 t b a;
#X obj 439 211 t b a;
#X obj 394 231 tgl 19 0 empty empty empty 0 -10 0 12 #fcfcfc #000000 #000000 0 1;
#X obj 491 230 tgl 19 0 empty empty empty 0 -10 0 12 #fcfcfc #000000 #000000 0 1;
#X obj 53 406 pack 0 0;
#X obj 106 357 switch 2 1;
#X msg 139 322 0;
#X obj 239 323 + 1;
#X obj 139 299 t b a a;
#X obj 239 393 i;
#X obj 239 413 t b a;
#X obj 239 346 change;
#X obj 52 560 outlet;
#X obj 26 324 r midiplayreset;
#X msg 405 199 0;
#X msg 25 350 0;
#X obj 125 206 r midiplayreset;
#N canvas 47 74 995 502 muteMidi 0;
#X obj 88 197 pack 55 0;
#X text 165 173 mute!;
#X obj 89 171 uzi 127 0;
#X obj 89 148 t b;
#X obj 90 35 inlet;
#X obj 90 58 t b;
#X obj 88 226 outlet midinotes;
#X obj 193 58 t b;
#X obj 192 31 inlet;
#X obj 225 81 del 100;
#X obj 247 106 del 100;
#X connect 0 0 6 0;
#X connect 2 2 0 0;
#X connect 3 0 2 0;
#X connect 4 0 5 0;
#X connect 5 0 3 0;
#X connect 7 0 3 0;
#X connect 7 0 9 0;
#X connect 8 0 7 0;
#X connect 9 0 3 0;
#X connect 9 0 10 0;
#X connect 10 0 3 0;
#X restore 100 513 pd muteMidi;
#X obj 52 483 spigot;
#X obj 985 98 t a;
#X text 717 -29 sensor1;
#X text 860 -26 sensor2;
#N canvas 110 143 1129 552 bowMoveData 0;
#X obj 173 174 > 64;
#X obj 126 174 > 64;
#X obj 235 148 route 54 55;
#X obj 127 148 route 102 103;
#X obj 149 124 gate 2 1;
#X obj 276 173 > 64;
#X obj 236 174 > 64;
#X text 145 199 bow movement choice;
#X text 156 215 this will change;
#X obj 93 55 inlet;
#X obj 241 49 inlet;
#X obj 115 293 outlet LED1;
#X obj 247 298 outlet LED2;
#X connect 0 0 12 0;
#X connect 1 0 11 0;
#X connect 2 0 6 0;
#X connect 2 1 5 0;
#X connect 3 0 1 0;
#X connect 3 1 0 0;
#X connect 4 0 3 0;
#X connect 4 1 2 0;
#X connect 5 0 12 0;
#X connect 6 0 11 0;
#X connect 9 0 4 0;
#X connect 10 0 4 1;
#X restore 304 117 pd bowMoveData;
#X obj 423 133 r midiplayreset;
#X obj 36 170 t a;
#X obj 490 522 LED_color;
#X obj 298 520 LED_color;
#X obj 375 452 loadbang;
#X obj 239 368 sel 2 1;
#X obj 210 31 i;
#X obj 331 -32 loadbang;
#X obj 232 66 tgl 19 0 empty empty empty 0 -10 0 12 #fcfcfc #000000 #000000 0 1;
#X obj 516 -23 inlet playmode;
#X obj 521 39 sel 1 0;
#X obj 511 6 t a a;
#X obj 526 69 s midiplayreset;
#X obj 685 236 route end;
#X obj 683 284 t b;
#X obj 684 260 route 7;
#X obj 673 309 s LEDreset;
#X obj 672 214 r midiplayreset;
#X obj 957 -31 r inst;
#X obj 671 -2 t a;
#X obj 809 2 t a;
#X obj 299 446 t a b;
#X obj 489 446 t a b;
#X msg 549 482 0.1 0.5 1;
#X msg 358 479 0 0.8 0.8;
#X obj 476 -18 tgl 19 0 empty empty empty 0 -10 0 12 #fcfcfc #000000 #000000 0 1;
#X obj 247 209 > 10;
#X obj 210 239 gate 2 1;
#X obj 277 256 sel 0;
#X msg 307 283 1;
#X obj 198 262 sel 0;
#X msg 255 286 2;
#X floatatom 157 144 10 0 0 0 - - - 0;
#X msg 101 81 track 8;
#X obj 330 -6 t b b;
#N canvas 41 274 740 384 tactselector 1;
#X text 410 127 550_3 tact55;
#X obj 216 -6 r startPoint;
#X obj 216 24 sel 0 1 2 3;
#X obj 154 255 outlet;
#X obj 486 262 outlet;
#X obj 169 56 t b b;
#X obj 224 59 t b b;
#X obj 276 58 t b b;
#X obj 324 56 t b b;
#X obj 159 18 inlet;
#X msg 288 139 77300;
#X obj 10 23 inlet loadbang;
#X obj 45 69 t b b;
#X msg 293 227 55000;
#X text 407 168 550_4 tact339;
#X msg 303 356 read symphony_550_3.mid;
#X msg 281 395 read symphony_550_4.mid;
#X msg 314 313 read symphony_550_1.mid;
#X text 405 89 40 tact1;
#X text 647 209 40 tact14 of the old;
#X msg 360 124 42000;
#X msg 595 201 53600;
#X msg 422 45 3300;
#X msg 519 87 325200;
#X msg 357 167 370000;
#X msg 80 115 read Sym40_Takt_1-44_MidiTracks.mid;
#X msg 359 88 3300;
#X connect 1 0 2 0;
#X connect 2 0 5 0;
#X connect 2 1 6 0;
#X connect 2 2 7 0;
#X connect 2 3 8 0;
#X connect 5 0 26 0;
#X connect 5 0 25 0;
#X connect 5 1 25 0;
#X connect 6 0 25 0;
#X connect 6 0 20 0;
#X connect 6 1 25 0;
#X connect 7 0 23 0;
#X connect 7 1 25 0;
#X connect 8 0 24 0;
#X connect 8 1 25 0;
#X connect 9 0 2 0;
#X connect 11 0 12 0;
#X connect 12 0 26 0;
#X connect 12 1 25 0;
#X connect 20 0 4 0;
#X connect 23 0 4 0;
#X connect 24 0 4 0;
#X connect 25 0 3 0;
#X connect 26 0 4 0;
#X restore 105 -22 pd tactselector;
#X obj 231 -24 hradio 19 1 0 4 empty empty empty 0 -10 0 12 #fcfcfc #000000 #000000 0;
#N canvas 41 274 740 384 tactselector 0;
#X msg 69 158 read symphony_550_3.mid;
#X msg 47 197 read symphony_550_4.mid;
#X msg 80 115 read symphony_550_1.mid;
#X msg 359 88 3300;
#X text 405 89 550_1 tact1;
#X text 410 127 550_3 tact55;
#X msg 511 86 53600;
#X obj 216 -6 r startPoint;
#X obj 216 24 sel 0 1 2 3;
#X obj 154 255 outlet;
#X obj 486 262 outlet;
#X text 563 83 550_1 tact14 of the old;
#X obj 148 60 t b b;
#X obj 224 59 t b b;
#X obj 279 60 t b b;
#X obj 337 59 t b b;
#X obj 159 18 inlet;
#X msg 288 139 77300;
#X msg 360 124 81300;
#X obj 10 23 inlet loadbang;
#X obj 45 69 t b b;
#X msg 357 167 754000;
#X msg 293 227 55000;
#X text 407 168 550_4 tact339;
#X msg 303 356 read symphony_550_3.mid;
#X msg 281 395 read symphony_550_4.mid;
#X msg 314 313 read symphony_550_1.mid;
#X connect 0 0 9 0;
#X connect 1 0 9 0;
#X connect 2 0 9 0;
#X connect 3 0 10 0;
#X connect 6 0 10 0;
#X connect 7 0 8 0;
#X connect 8 0 12 0;
#X connect 8 1 13 0;
#X connect 8 2 14 0;
#X connect 8 3 15 0;
#X connect 12 0 3 0;
#X connect 12 1 2 0;
#X connect 13 0 6 0;
#X connect 13 1 2 0;
#X connect 14 0 18 0;
#X connect 14 1 0 0;
#X connect 15 0 21 0;
#X connect 15 1 1 0;
#X connect 16 0 8 0;
#X connect 18 0 10 0;
#X connect 19 0 20 0;
#X connect 20 0 3 0;
#X connect 20 1 2 0;
#X connect 21 0 10 0;
#X restore 971 272 pd tactselector;
#X msg 989 221 149;
#X msg 1025 221 150;
#X msg 1064 223 151;
#X msg 944 222 148;
#X msg 929 32 147;
#X msg 974 31 148;
#X msg 1010 31 149;
#X msg 1049 33 150;
#X obj 1075 1 hradio 19 1 0 4 empty empty empty 0 -10 0 12 #fcfcfc #000000 #000000 0;
#X obj 369 268 tgl 19 0 empty empty empty 0 -10 0 12 #fcfcfc #000000 #000000 0 1;
#X obj 462 269 tgl 19 0 empty empty empty 0 -10 0 12 #fcfcfc #000000 #000000 0 1;
#X obj 365 47 route end;
#X obj 306 74 print;
#X obj 366 70 route 11;
#X obj 380 98 bng 19 250 50 0 empty empty empty 0 -10 0 12 #fcfcfc #000000 #000000;
#X obj 233 89 metro 1;
#X obj 92 255 pipe f f 1;
#X connect 0 0 9 0;
#X connect 0 1 85 0;
#X connect 0 2 5 0;
#X connect 0 2 102 0;
#X connect 1 0 28 0;
#X connect 2 0 107 0;
#X connect 2 1 79 0;
#X connect 2 1 107 1;
#X connect 3 0 72 0;
#X connect 4 0 73 0;
#X connect 6 0 72 0;
#X connect 7 0 73 0;
#X connect 8 0 22 0;
#X connect 8 0 100 0;
#X connect 9 0 54 0;
#X connect 9 1 54 0;
#X connect 9 2 10 0;
#X connect 10 0 2 0;
#X connect 11 0 23 0;
#X connect 11 0 101 0;
#X connect 12 1 31 0;
#X connect 12 2 75 0;
#X connect 13 1 30 0;
#X connect 13 2 74 0;
#X connect 15 0 95 0;
#X connect 15 0 19 0;
#X connect 15 1 96 0;
#X connect 15 1 19 0;
#X connect 15 2 97 0;
#X connect 15 2 19 0;
#X connect 15 3 98 0;
#X connect 15 3 18 0;
#X connect 17 0 10 1;
#X connect 18 0 49 0;
#X connect 19 0 49 0;
#X connect 25 0 37 0;
#X connect 26 0 25 0;
#X connect 26 1 25 1;
#X connect 27 0 0 0;
#X connect 28 0 27 0;
#X connect 28 1 88 0;
#X connect 29 0 107 0;
#X connect 30 0 8 0;
#X connect 30 1 8 1;
#X connect 30 1 32 0;
#X connect 31 0 11 0;
#X connect 31 1 11 1;
#X connect 31 1 33 0;
#X connect 34 0 48 0;
#X connect 35 0 34 1;
#X connect 36 0 35 1;
#X connect 37 0 35 0;
#X connect 37 0 41 0;
#X connect 38 0 36 0;
#X connect 38 1 39 1;
#X connect 38 2 35 2;
#X connect 39 0 40 0;
#X connect 40 0 34 0;
#X connect 40 1 34 1;
#X connect 41 0 58 0;
#X connect 43 0 45 0;
#X connect 43 0 47 1;
#X connect 44 0 11 1;
#X connect 44 0 8 1;
#X connect 45 0 34 0;
#X connect 46 0 29 0;
#X connect 47 0 42 0;
#X connect 48 0 42 0;
#X connect 49 0 52 0;
#X connect 52 0 13 0;
#X connect 52 1 12 0;
#X connect 53 0 13 1;
#X connect 53 0 12 1;
#X connect 53 0 44 0;
#X connect 54 0 52 1;
#X connect 55 0 21 0;
#X connect 56 0 20 0;
#X connect 57 0 77 0;
#X connect 57 0 76 0;
#X connect 58 0 39 0;
#X connect 58 1 47 0;
#X connect 59 0 0 0;
#X connect 60 0 87 0;
#X connect 61 0 106 0;
#X connect 62 0 64 0;
#X connect 63 0 59 0;
#X connect 63 1 65 0;
#X connect 64 0 61 0;
#X connect 64 1 63 0;
#X connect 64 1 48 1;
#X connect 66 0 68 0;
#X connect 67 0 69 0;
#X connect 68 0 67 0;
#X connect 70 0 69 0;
#X connect 71 0 15 0;
#X connect 72 0 25 0;
#X connect 72 0 8 0;
#X connect 73 0 26 0;
#X connect 73 0 11 0;
#X connect 74 0 56 0;
#X connect 74 1 77 0;
#X connect 75 0 55 0;
#X connect 75 1 76 0;
#X connect 76 0 55 1;
#X connect 77 0 56 1;
#X connect 78 0 64 0;
#X connect 79 0 80 1;
#X connect 80 0 83 0;
#X connect 80 0 13 0;
#X connect 80 1 81 0;
#X connect 80 1 12 0;
#X connect 81 0 82 0;
#X connect 82 0 80 0;
#X connect 83 0 84 0;
#X connect 84 0 80 0;
#X connect 86 0 0 0;
#X connect 88 0 0 0;
#X connect 88 1 59 1;
#X connect 89 0 88 1;
#X connect 95 0 16 0;
#X connect 96 0 16 0;
#X connect 97 0 16 0;
#X connect 98 0 16 0;
#X connect 99 0 15 0;
#X connect 102 0 104 0;
#X connect 104 0 103 0;
#X connect 104 0 105 0;
#X connect 106 0 0 0;
#X connect 107 0 34 0;
#X connect 107 1 38 0;
#X restore 735 722 pd orchestrasong;
#X obj 683 865 s LEDaction1;
#X obj 782 867 s LEDaction2;
#X obj 504 466 &&;
#X obj 506 436 t b a;
#X obj 757 396 &&;
#X obj 763 366 t b a;
#X obj 703 699 == 5;
#X obj 411 373 sel 1 0;
#X obj 492 503 sel 1 0;
#X obj 296 372 sel 1 0;
#X obj 865 333 sel 1 0;
#X obj 933 362 sel 1 0;
#X obj 1007 358 sel 1 0;
#X obj 719 478 sel 1 0;
#X obj 206 -24 inlet string_mode;
#X obj 90 64 s LEDreset;
#N canvas 47 74 995 502 muteMidi 0;
#X obj 88 197 pack 55 0;
#X text 165 173 mute!;
#X obj 89 171 uzi 127 0;
#X obj 89 148 t b;
#X obj 90 35 inlet;
#X obj 90 58 t b;
#X obj 88 226 outlet midinotes;
#X obj 193 58 t b;
#X obj 192 31 inlet;
#X obj 225 81 del 100;
#X obj 247 106 del 100;
#X obj 37 65 bng 19 250 50 0 empty empty empty 0 -10 0 12 #fcfcfc #000000 #000000;
#X connect 0 0 6 0;
#X connect 2 2 0 0;
#X connect 3 0 2 0;
#X connect 4 0 5 0;
#X connect 5 0 3 0;
#X connect 7 0 3 0;
#X connect 7 0 9 0;
#X connect 8 0 7 0;
#X connect 9 0 3 0;
#X connect 9 0 10 0;
#X connect 10 0 3 0;
#X connect 11 0 3 0;
#X restore 51 37 pd muteMidi;
#X obj 94 11 t b b b;
#X obj 357 777 t a b;
#X obj 64 767 t a b;
#X obj 39 135 sel 2;
#X msg 35 161 1;
#X obj 68 160 t b b;
#N canvas 408 184 1127 701 ledstrip1 0;
#X obj 81 7 inlet;
#X obj 639 659 outlet;
#X obj 78 651 outlet;
#X obj 572 42 inlet;
#X obj 280 650 outlet;
#X obj 132 32 tgl 19 0 empty empty empty 0 -10 0 12 #fcfcfc #000000 #000000 0 1;
#X obj 131 65 tgl 19 0 empty empty empty 0 -10 0 12 #fcfcfc #000000 #000000 0 1;
#X obj 81 64 t a a;
#X obj 130 131 tgl 19 0 empty empty empty 0 -10 0 12 #fcfcfc #000000 #000000 0 1;
#X obj 80 130 t a a;
#X obj 131 198 tgl 19 0 empty empty empty 0 -10 0 12 #fcfcfc #000000 #000000 0 1;
#X obj 81 197 t a a;
#X obj 131 318 tgl 19 0 empty empty empty 0 -10 0 12 #fcfcfc #000000 #000000 0 1;
#X obj 81 317 t a a;
#X obj 130 384 tgl 19 0 empty empty empty 0 -10 0 12 #fcfcfc #000000 #000000 0 1;
#X obj 80 383 t a a;
#X obj 295 92 tgl 19 0 empty empty empty 0 -10 0 12 #fcfcfc #000000 #000000 0 1;
#X obj 245 91 t a a;
#X obj 296 161 tgl 19 0 empty empty empty 0 -10 0 12 #fcfcfc #000000 #000000 0 1;
#X obj 246 160 t a a;
#X obj 296 228 tgl 19 0 empty empty empty 0 -10 0 12 #fcfcfc #000000 #000000 0 1;
#X obj 246 227 t a a;
#X obj 295 294 tgl 19 0 empty empty empty 0 -10 0 12 #fcfcfc #000000 #000000 0 1;
#X obj 245 293 t a a;
#X obj 296 361 tgl 19 0 empty empty empty 0 -10 0 12 #fcfcfc #000000 #000000 0 1;
#X obj 246 360 t a a;
#X obj 221 592 tgl 19 0 empty empty empty 0 -10 0 12 #fcfcfc #000000 #000000 0 1;
#X obj 248 499 t a b a;
#X obj 130 257 tgl 19 0 empty empty empty 0 -10 0 12 #fcfcfc #000000 #000000 0 1;
#X obj 80 256 t a a;
#X msg 573 112 clear;
#X obj 247 418 route 0;
#X msg 248 472 0;
#X obj 572 78 t b b;
#X msg 533 73 0;
#X msg 635 112 0 0 0 0 0 0 0 0 0 0 0 0;
#X obj 686 575 pak 0 0 0 0 0 0 0 0 0 0 0 0, f 49;
#X msg 161 501 1;
#X obj 160 473 sel 1;
#X obj 81 95 pipe 100;
#X obj 80 161 pipe 100;
#X obj 81 228 pipe 100;
#X obj 80 287 pipe 100;
#X obj 81 348 pipe 100;
#X obj 246 66 pipe 100;
#X obj 245 122 pipe 100;
#X obj 246 191 pipe 100;
#X obj 246 258 pipe 100;
#X obj 245 324 pipe 100;
#X obj 246 391 pipe 100;
#X obj 247 448 delay 200;
#X obj 965 58 inlet;
#X obj 662 617 spigot;
#X obj 81 36 t a b;
#X msg 772 620 1;
#X msg 804 618 0;
#X obj 784 667 change;
#X obj 789 642 tgl 19 0 empty empty empty 0 -10 0 12 #fcfcfc #000000 #000000 0 1;
#X connect 0 0 53 0;
#X connect 3 0 33 0;
#X connect 5 0 7 0;
#X connect 7 0 39 0;
#X connect 7 1 6 0;
#X connect 7 1 36 0;
#X connect 9 0 40 0;
#X connect 9 1 8 0;
#X connect 9 1 36 1;
#X connect 11 0 41 0;
#X connect 11 1 10 0;
#X connect 11 1 36 2;
#X connect 13 0 43 0;
#X connect 13 1 12 0;
#X connect 13 1 36 4;
#X connect 15 0 44 0;
#X connect 15 1 14 0;
#X connect 15 1 36 5;
#X connect 17 0 45 0;
#X connect 17 0 38 0;
#X connect 17 1 16 0;
#X connect 17 1 36 6;
#X connect 19 0 46 0;
#X connect 19 1 18 0;
#X connect 19 1 36 7;
#X connect 21 0 47 0;
#X connect 21 1 20 0;
#X connect 21 1 36 8;
#X connect 23 0 48 0;
#X connect 23 1 22 0;
#X connect 23 1 36 9;
#X connect 25 0 49 0;
#X connect 25 1 24 0;
#X connect 25 1 36 10;
#X connect 26 0 4 0;
#X connect 27 0 2 0;
#X connect 27 2 36 11;
#X connect 29 0 42 0;
#X connect 29 1 28 0;
#X connect 29 1 36 3;
#X connect 30 0 39 0;
#X connect 30 0 40 0;
#X connect 30 0 41 0;
#X connect 30 0 42 0;
#X connect 30 0 43 0;
#X connect 30 0 44 0;
#X connect 30 0 45 0;
#X connect 30 0 46 0;
#X connect 30 0 47 0;
#X connect 30 0 48 0;
#X connect 30 0 49 0;
#X connect 31 0 50 0;
#X connect 31 1 27 0;
#X connect 32 0 27 0;
#X connect 32 0 26 0;
#X connect 33 0 35 0;
#X connect 33 0 34 0;
#X connect 33 1 30 0;
#X connect 33 1 55 0;
#X connect 34 0 7 0;
#X connect 35 0 1 0;
#X connect 36 0 52 0;
#X connect 37 0 26 0;
#X connect 38 0 37 0;
#X connect 39 0 9 0;
#X connect 40 0 11 0;
#X connect 41 0 29 0;
#X connect 42 0 13 0;
#X connect 43 0 15 0;
#X connect 44 0 17 0;
#X connect 45 0 19 0;
#X connect 46 0 21 0;
#X connect 47 0 23 0;
#X connect 48 0 25 0;
#X connect 49 0 31 0;
#X connect 50 0 32 0;
#X connect 51 0 39 1;
#X connect 51 0 40 1;
#X connect 51 0 41 1;
#X connect 51 0 42 1;
#X connect 51 0 43 1;
#X connect 51 0 44 1;
#X connect 51 0 45 1;
#X connect 51 0 46 1;
#X connect 51 0 47 1;
#X connect 51 0 48 1;
#X connect 51 0 49 1;
#X connect 52 0 1 0;
#X connect 53 0 7 0;
#X connect 53 1 54 0;
#X connect 54 0 57 0;
#X connect 55 0 57 0;
#X connect 56 0 52 1;
#X connect 57 0 56 0;
#X restore 7 327 pd ledstrip1;
#X obj 21 603 &&;
#X obj 23 573 t b a;
#X obj 355 371 sel 1 0;
#X obj 12 672 s LEDaction1;
#N canvas 314 84 1127 701 ledstrip2 0;
#X obj 81 7 inlet;
#X obj 639 659 outlet;
#X obj 78 651 outlet;
#X obj 572 42 inlet;
#X obj 280 650 outlet;
#X obj 132 32 tgl 19 0 empty empty empty 0 -10 0 12 #fcfcfc #000000 #000000 0 1;
#X obj 131 65 tgl 19 0 empty empty empty 0 -10 0 12 #fcfcfc #000000 #000000 0 1;
#X obj 81 64 t a a;
#X obj 130 131 tgl 19 0 empty empty empty 0 -10 0 12 #fcfcfc #000000 #000000 0 1;
#X obj 80 130 t a a;
#X obj 131 198 tgl 19 0 empty empty empty 0 -10 0 12 #fcfcfc #000000 #000000 0 1;
#X obj 81 197 t a a;
#X obj 131 318 tgl 19 0 empty empty empty 0 -10 0 12 #fcfcfc #000000 #000000 0 1;
#X obj 81 317 t a a;
#X obj 130 384 tgl 19 0 empty empty empty 0 -10 0 12 #fcfcfc #000000 #000000 0 1;
#X obj 80 383 t a a;
#X obj 295 92 tgl 19 0 empty empty empty 0 -10 0 12 #fcfcfc #000000 #000000 0 1;
#X obj 245 91 t a a;
#X obj 296 161 tgl 19 0 empty empty empty 0 -10 0 12 #fcfcfc #000000 #000000 0 1;
#X obj 246 160 t a a;
#X obj 296 228 tgl 19 0 empty empty empty 0 -10 0 12 #fcfcfc #000000 #000000 0 1;
#X obj 246 227 t a a;
#X obj 295 294 tgl 19 0 empty empty empty 0 -10 0 12 #fcfcfc #000000 #000000 0 1;
#X obj 245 293 t a a;
#X obj 296 361 tgl 19 0 empty empty empty 0 -10 0 12 #fcfcfc #000000 #000000 0 1;
#X obj 246 360 t a a;
#X obj 221 592 tgl 19 0 empty empty empty 0 -10 0 12 #fcfcfc #000000 #000000 0 1;
#X obj 248 499 t a b a;
#X obj 130 257 tgl 19 0 empty empty empty 0 -10 0 12 #fcfcfc #000000 #000000 0 1;
#X obj 80 256 t a a;
#X msg 573 112 clear;
#X obj 247 418 route 0;
#X msg 248 472 0;
#X obj 572 78 t b b;
#X msg 533 73 0;
#X msg 635 112 0 0 0 0 0 0 0 0 0 0 0 0;
#X obj 686 575 pak 0 0 0 0 0 0 0 0 0 0 0 0, f 49;
#X msg 161 501 1;
#X obj 160 473 sel 1;
#X obj 81 95 pipe 100;
#X obj 80 161 pipe 100;
#X obj 81 228 pipe 100;
#X obj 80 287 pipe 100;
#X obj 81 348 pipe 100;
#X obj 246 66 pipe 100;
#X obj 245 122 pipe 100;
#X obj 246 191 pipe 100;
#X obj 246 258 pipe 100;
#X obj 245 324 pipe 100;
#X obj 246 391 pipe 100;
#X obj 247 448 delay 200;
#X obj 965 58 inlet;
#X obj 662 617 spigot;
#X obj 81 36 t a b;
#X msg 772 620 1;
#X msg 804 618 0;
#X obj 784 667 change;
#X obj 789 642 tgl 19 0 empty empty empty 0 -10 0 12 #fcfcfc #000000 #000000 0 1;
#X connect 0 0 53 0;
#X connect 3 0 33 0;
#X connect 5 0 7 0;
#X connect 7 0 39 0;
#X connect 7 1 6 0;
#X connect 7 1 36 0;
#X connect 9 0 40 0;
#X connect 9 1 8 0;
#X connect 9 1 36 1;
#X connect 11 0 41 0;
#X connect 11 1 10 0;
#X connect 11 1 36 2;
#X connect 13 0 43 0;
#X connect 13 1 12 0;
#X connect 13 1 36 4;
#X connect 15 0 44 0;
#X connect 15 1 14 0;
#X connect 15 1 36 5;
#X connect 17 0 45 0;
#X connect 17 0 38 0;
#X connect 17 1 16 0;
#X connect 17 1 36 6;
#X connect 19 0 46 0;
#X connect 19 1 18 0;
#X connect 19 1 36 7;
#X connect 21 0 47 0;
#X connect 21 1 20 0;
#X connect 21 1 36 8;
#X connect 23 0 48 0;
#X connect 23 1 22 0;
#X connect 23 1 36 9;
#X connect 25 0 49 0;
#X connect 25 1 24 0;
#X connect 25 1 36 10;
#X connect 26 0 4 0;
#X connect 27 0 2 0;
#X connect 27 2 36 11;
#X connect 29 0 42 0;
#X connect 29 1 28 0;
#X connect 29 1 36 3;
#X connect 30 0 39 0;
#X connect 30 0 40 0;
#X connect 30 0 41 0;
#X connect 30 0 42 0;
#X connect 30 0 43 0;
#X connect 30 0 44 0;
#X connect 30 0 45 0;
#X connect 30 0 46 0;
#X connect 30 0 47 0;
#X connect 30 0 48 0;
#X connect 30 0 49 0;
#X connect 31 0 50 0;
#X connect 31 1 27 0;
#X connect 32 0 27 0;
#X connect 32 0 26 0;
#X connect 33 0 35 0;
#X connect 33 0 34 0;
#X connect 33 1 30 0;
#X connect 33 1 55 0;
#X connect 34 0 7 0;
#X connect 35 0 1 0;
#X connect 36 0 52 0;
#X connect 37 0 26 0;
#X connect 38 0 37 0;
#X connect 39 0 9 0;
#X connect 40 0 11 0;
#X connect 41 0 29 0;
#X connect 42 0 13 0;
#X connect 43 0 15 0;
#X connect 44 0 17 0;
#X connect 45 0 19 0;
#X connect 46 0 21 0;
#X connect 47 0 23 0;
#X connect 48 0 25 0;
#X connect 49 0 31 0;
#X connect 50 0 32 0;
#X connect 51 0 39 1;
#X connect 51 0 40 1;
#X connect 51 0 41 1;
#X connect 51 0 42 1;
#X connect 51 0 43 1;
#X connect 51 0 44 1;
#X connect 51 0 45 1;
#X connect 51 0 46 1;
#X connect 51 0 47 1;
#X connect 51 0 48 1;
#X connect 51 0 49 1;
#X connect 52 0 1 0;
#X connect 53 0 7 0;
#X connect 53 1 54 0;
#X connect 54 0 57 0;
#X connect 55 0 57 0;
#X connect 56 0 52 1;
#X connect 57 0 56 0;
#X restore 115 368 pd ledstrip2;
#X msg 114 159 1;
#X obj 147 158 t b b;
#X obj 118 133 sel 3;
#X obj 136 600 &&;
#X obj 138 570 t b a;
#X obj 85 605 &&;
#X obj 87 575 t b a;
#X obj 184 600 &&;
#X obj 186 570 t b a;
#X obj 136 660 s LEDaction2;
#X msg 411 768 0 0 0 0 0 0 0 0 0 0 1 1;
#X msg 254 885 0.8 1 0;
#X msg 538 873 0.4 1 0;
#X msg 174 884 0 0.8 0.8;
#X msg 463 873 0.1 0.5 1;
#X obj 582 80 t a;
#X obj 710 77 t a;
#X obj 226 787 bng 19 250 50 0 empty empty empty 0 -10 0 12 #fcfcfc #000000 #000000;
#X obj 268 853 bng 19 250 50 0 empty empty empty 0 -10 0 12 #fcfcfc #000000 #000000;
#X msg 145 764 0 0 0 0 0 0 0 0 1 1 1 1;
#X obj 415 257 gate 6 1;
#X obj 866 268 gate 6 1;
#N canvas 395 23 749 755 audition 0;
#X obj 26 105 midifile;
#X obj 25 -7 loadbang;
#X obj 54 231 unpack;
#X obj 671 -29 inlet;
#X obj 809 -28 inlet;
#X obj 539 -29 inlet;
#X obj 430 43 sel 1;
#X obj 553 -4 t a a a;
#X obj 550 25 sel 0;
#X obj 598 -31 tgl 19 0 empty empty empty 0 -10 0 12 #fcfcfc #000000 #000000 0 1;
#X obj 732 0 tgl 19 0 empty empty empty 0 -10 0 12 #fcfcfc #000000 #000000 0 1;
#X obj 865 3 tgl 19 0 empty empty empty 0 -10 0 12 #fcfcfc #000000 #000000 0 1;
#X obj 401 317 &&;
#X obj 495 315 &&;
#N canvas 153 77 1127 701 ledstrip2 0;
#X obj 81 32 inlet;
#X obj 642 674 outlet;
#X obj 105 654 outlet;
#X obj 570 40 inlet;
#X obj 333 647 outlet;
#X obj 131 65 tgl 19 0 empty empty empty 0 -10 0 12 #fcfcfc #000000 #000000 0 1;
#X obj 81 64 t a a;
#X obj 130 131 tgl 19 0 empty empty empty 0 -10 0 12 #fcfcfc #000000 #000000 0 1;
#X obj 80 130 t a a;
#X obj 131 198 tgl 19 0 empty empty empty 0 -10 0 12 #fcfcfc #000000 #000000 0 1;
#X obj 81 197 t a a;
#X obj 131 318 tgl 19 0 empty empty empty 0 -10 0 12 #fcfcfc #000000 #000000 0 1;
#X obj 81 317 t a a;
#X obj 130 384 tgl 19 0 empty empty empty 0 -10 0 12 #fcfcfc #000000 #000000 0 1;
#X obj 80 383 t a a;
#X obj 295 92 tgl 19 0 empty empty empty 0 -10 0 12 #fcfcfc #000000 #000000 0 1;
#X obj 245 91 t a a;
#X obj 296 161 tgl 19 0 empty empty empty 0 -10 0 12 #fcfcfc #000000 #000000 0 1;
#X obj 246 160 t a a;
#X obj 296 228 tgl 19 0 empty empty empty 0 -10 0 12 #fcfcfc #000000 #000000 0 1;
#X obj 246 227 t a a;
#X obj 295 294 tgl 19 0 empty empty empty 0 -10 0 12 #fcfcfc #000000 #000000 0 1;
#X obj 245 293 t a a;
#X obj 296 361 tgl 19 0 empty empty empty 0 -10 0 12 #fcfcfc #000000 #000000 0 1;
#X obj 246 360 t a a;
#X obj 307 496 tgl 19 0 empty empty empty 0 -10 0 12 #fcfcfc #000000 #000000 0 1;
#X obj 248 499 t a b a;
#X obj 130 257 tgl 19 0 empty empty empty 0 -10 0 12 #fcfcfc #000000 #000000 0 1;
#X obj 80 256 t a a;
#X msg 573 112 clear;
#X obj 275 537 ||;
#X obj 247 418 route 0;
#X msg 248 472 0;
#X obj 572 78 t b b;
#X msg 533 73 0;
#X msg 635 112 0 0 0 0 0 0 0 0 0 0 0 0;
#X obj 655 625 pak 0 0 0 0 0 0 0 0 0 0 0 0, f 49;
#X obj 133 32 tgl 19 0 empty empty empty 0 -10 0 12 #fcfcfc #000000 #000000 0 1;
#X msg 645 170 set 0 0 0 0 0 0 0 0 0 0 0 0;
#X obj 247 447 delay 300;
#X obj 80 160 pipe 145;
#X obj 83 228 pipe 145;
#X obj 80 287 pipe 145;
#X obj 82 347 pipe 145;
#X obj 247 66 pipe 145;
#X obj 245 122 pipe 145;
#X obj 246 191 pipe 145;
#X obj 246 257 pipe 145;
#X obj 245 324 pipe 145;
#X obj 246 392 pipe 145;
#X obj 82 95 pipe 150;
#X connect 0 0 6 0;
#X connect 3 0 33 0;
#X connect 6 0 50 0;
#X connect 6 1 5 0;
#X connect 6 1 36 0;
#X connect 8 0 40 0;
#X connect 8 1 7 0;
#X connect 8 1 36 1;
#X connect 10 0 41 0;
#X connect 10 1 9 0;
#X connect 10 1 36 2;
#X connect 12 0 43 0;
#X connect 12 1 11 0;
#X connect 12 1 36 4;
#X connect 14 0 44 0;
#X connect 14 1 13 0;
#X connect 14 1 36 5;
#X connect 16 0 45 0;
#X connect 16 1 15 0;
#X connect 16 1 36 6;
#X connect 18 0 46 0;
#X connect 18 1 17 0;
#X connect 18 1 36 7;
#X connect 20 0 47 0;
#X connect 20 1 19 0;
#X connect 20 1 36 8;
#X connect 22 0 48 0;
#X connect 22 1 21 0;
#X connect 22 1 36 9;
#X connect 24 0 49 0;
#X connect 24 1 23 0;
#X connect 24 1 30 0;
#X connect 24 1 36 10;
#X connect 26 0 2 0;
#X connect 26 1 30 0;
#X connect 26 2 25 0;
#X connect 26 2 30 1;
#X connect 28 0 42 0;
#X connect 28 1 27 0;
#X connect 28 1 36 3;
#X connect 29 0 40 0;
#X connect 29 0 41 0;
#X connect 29 0 42 0;
#X connect 29 0 43 0;
#X connect 29 0 44 0;
#X connect 29 0 45 0;
#X connect 29 0 46 0;
#X connect 29 0 47 0;
#X connect 29 0 48 0;
#X connect 29 0 49 0;
#X connect 29 0 50 0;
#X connect 30 0 4 0;
#X connect 30 0 36 11;
#X connect 31 0 39 0;
#X connect 31 1 26 0;
#X connect 32 0 26 0;
#X connect 33 0 35 0;
#X connect 33 0 34 0;
#X connect 33 0 38 0;
#X connect 33 1 29 0;
#X connect 35 0 1 0;
#X connect 36 0 1 0;
#X connect 37 0 6 0;
#X connect 38 0 36 0;
#X connect 39 0 32 0;
#X connect 40 0 10 0;
#X connect 41 0 28 0;
#X connect 42 0 12 0;
#X connect 43 0 14 0;
#X connect 44 0 16 0;
#X connect 45 0 18 0;
#X connect 46 0 20 0;
#X connect 47 0 22 0;
#X connect 48 0 24 0;
#X connect 49 0 31 0;
#X connect 50 0 8 0;
#X restore 455 247 pd ledstrip2;
#N canvas 153 77 1127 701 ledstrip1 0;
#X obj 81 32 inlet;
#X obj 639 659 outlet;
#X obj 78 651 outlet;
#X obj 572 42 inlet;
#X obj 280 650 outlet;
#X obj 132 32 tgl 19 0 empty empty empty 0 -10 0 12 #fcfcfc #000000 #000000 0 1;
#X obj 131 65 tgl 19 0 empty empty empty 0 -10 0 12 #fcfcfc #000000 #000000 0 1;
#X obj 81 64 t a a;
#X obj 130 131 tgl 19 0 empty empty empty 0 -10 0 12 #fcfcfc #000000 #000000 0 1;
#X obj 80 130 t a a;
#X obj 131 198 tgl 19 0 empty empty empty 0 -10 0 12 #fcfcfc #000000 #000000 0 1;
#X obj 81 197 t a a;
#X obj 131 318 tgl 19 0 empty empty empty 0 -10 0 12 #fcfcfc #000000 #000000 0 1;
#X obj 81 317 t a a;
#X obj 130 384 tgl 19 0 empty empty empty 0 -10 0 12 #fcfcfc #000000 #000000 0 1;
#X obj 80 383 t a a;
#X obj 295 92 tgl 19 0 empty empty empty 0 -10 0 12 #fcfcfc #000000 #000000 0 1;
#X obj 245 91 t a a;
#X obj 296 161 tgl 19 0 empty empty empty 0 -10 0 12 #fcfcfc #000000 #000000 0 1;
#X obj 246 160 t a a;
#X obj 296 228 tgl 19 0 empty empty empty 0 -10 0 12 #fcfcfc #000000 #000000 0 1;
#X obj 246 227 t a a;
#X obj 295 294 tgl 19 0 empty empty empty 0 -10 0 12 #fcfcfc #000000 #000000 0 1;
#X obj 245 293 t a a;
#X obj 296 361 tgl 19 0 empty empty empty 0 -10 0 12 #fcfcfc #000000 #000000 0 1;
#X obj 246 360 t a a;
#X obj 307 496 tgl 19 0 empty empty empty 0 -10 0 12 #fcfcfc #000000 #000000 0 1;
#X obj 248 499 t a b a;
#X obj 130 257 tgl 19 0 empty empty empty 0 -10 0 12 #fcfcfc #000000 #000000 0 1;
#X obj 80 256 t a a;
#X msg 573 112 clear;
#X obj 287 546 ||;
#X obj 247 418 route 0;
#X msg 191 472 0;
#X obj 572 78 t b b;
#X msg 533 73 0;
#X msg 635 112 0 0 0 0 0 0 0 0 0 0 0 0;
#X obj 655 625 pak 0 0 0 0 0 0 0 0 0 0 0 0, f 49;
#X msg 664 193 set 0 0 0 0 0 0 0 0 0 0 0 0;
#X obj 190 447 delay 300;
#X obj 321 542 tgl 19 0 empty empty empty 0 -10 0 12 #fcfcfc #000000 #000000 0 1;
#X obj 80 161 pipe 145;
#X obj 81 228 pipe 145;
#X obj 80 287 pipe 145;
#X obj 82 348 pipe 145;
#X obj 246 66 pipe 145;
#X obj 245 122 pipe 145;
#X obj 246 191 pipe 145;
#X obj 246 257 pipe 145;
#X obj 245 324 pipe 145;
#X obj 246 391 pipe 145;
#X obj 81 95 pipe 150;
#X connect 0 0 7 0;
#X connect 3 0 34 0;
#X connect 5 0 7 0;
#X connect 7 0 51 0;
#X connect 7 1 6 0;
#X connect 7 1 37 0;
#X connect 9 0 41 0;
#X connect 9 1 8 0;
#X connect 9 1 37 1;
#X connect 11 0 42 0;
#X connect 11 1 10 0;
#X connect 11 1 37 2;
#X connect 13 0 44 0;
#X connect 13 1 12 0;
#X connect 13 1 37 4;
#X connect 15 0 45 0;
#X connect 15 1 14 0;
#X connect 15 1 37 5;
#X connect 17 0 46 0;
#X connect 17 1 16 0;
#X connect 17 1 37 6;
#X connect 19 0 47 0;
#X connect 19 1 18 0;
#X connect 19 1 37 7;
#X connect 21 0 48 0;
#X connect 21 1 20 0;
#X connect 21 1 37 8;
#X connect 23 0 49 0;
#X connect 23 1 22 0;
#X connect 23 1 37 9;
#X connect 25 0 50 0;
#X connect 25 1 24 0;
#X connect 25 1 31 0;
#X connect 25 1 37 10;
#X connect 27 0 2 0;
#X connect 27 1 31 0;
#X connect 27 2 31 1;
#X connect 27 2 26 0;
#X connect 29 0 43 0;
#X connect 29 1 28 0;
#X connect 29 1 37 3;
#X connect 30 0 41 0;
#X connect 30 0 42 0;
#X connect 30 0 43 0;
#X connect 30 0 44 0;
#X connect 30 0 45 0;
#X connect 30 0 46 0;
#X connect 30 0 47 0;
#X connect 30 0 48 0;
#X connect 30 0 49 0;
#X connect 30 0 50 0;
#X connect 30 0 51 0;
#X connect 31 0 4 0;
#X connect 31 0 40 0;
#X connect 31 0 37 11;
#X connect 32 0 39 0;
#X connect 32 1 27 0;
#X connect 33 0 27 0;
#X connect 34 0 36 0;
#X connect 34 0 35 0;
#X connect 34 0 38 0;
#X connect 34 1 30 0;
#X connect 36 0 1 0;
#X connect 37 0 1 0;
#X connect 38 0 37 0;
#X connect 39 0 33 0;
#X connect 41 0 11 0;
#X connect 42 0 29 0;
#X connect 43 0 13 0;
#X connect 44 0 15 0;
#X connect 45 0 17 0;
#X connect 46 0 19 0;
#X connect 47 0 21 0;
#X connect 48 0 23 0;
#X connect 49 0 25 0;
#X connect 50 0 32 0;
#X connect 51 0 9 0;
#X restore 319 241 pd ledstrip1;
#X obj 298 609 s LEDstrip1;
#X obj 490 605 s LEDstrip2;
#X obj 398 381 s LEDaction1;
#X obj 497 383 s LEDaction2;
#X obj 743 600 s LEDreset;
#X obj 752 80 ||;
#X obj 806 39 t b a;
#X obj 25 21 t b b;
#X msg 133 227 clear;
#X obj 400 286 t b a;
#X obj 494 288 t b a;
#X obj 447 304 tgl 19 0 empty empty empty 0 -10 0 12 #fcfcfc #000000 #000000 0 1;
#X obj 227 83 metro 1;
#X obj 546 307 tgl 19 0 empty empty empty 0 -10 0 12 #fcfcfc #000000 #000000 0 1;
#X obj 53 406 pack 0 0;
#X obj 105 371 switch 2 1;
#X msg 138 349 0;
#X obj 265 300 + 1;
#X obj 139 331 t b a a;
#X obj 265 370 i;
#X obj 265 390 t b a;
#X obj 265 323 change;
#X obj 52 560 outlet;
#X text 500 -30 play;
#X msg 460 276 0;
#X msg 62 351 0;
#N canvas 47 74 995 502 muteMidi 0;
#X obj 88 197 pack 55 0;
#X text 165 173 mute!;
#X obj 89 171 uzi 127 0;
#X obj 89 148 t b;
#X obj 90 35 inlet;
#X obj 90 58 t b;
#X obj 88 226 outlet midinotes;
#X obj 193 58 t b;
#X obj 192 31 inlet;
#X obj 225 81 del 100;
#X obj 247 106 del 100;
#X connect 0 0 6 0;
#X connect 2 2 0 0;
#X connect 3 0 2 0;
#X connect 4 0 5 0;
#X connect 5 0 3 0;
#X connect 7 0 3 0;
#X connect 7 0 9 0;
#X connect 8 0 7 0;
#X connect 9 0 3 0;
#X connect 9 0 10 0;
#X connect 10 0 3 0;
#X restore 100 513 pd muteMidi;
#X obj 52 483 spigot;
#X text 717 -29 sensor1;
#X text 860 -26 sensor2;
#X obj 490 522 LED_color;
#X obj 302 519 LED_color;
#X msg 549 482 0 0.5 1;
#X obj 375 452 loadbang;
#X obj 265 345 sel 2 1;
#X msg 358 479 0.4 1 0;
#X msg 26 48 read cello_audition.mid;
#X floatatom 87 142 10 0 0 0 - - - 0;
#X obj 27 165 route 157;
#X msg 30 73 track 10;
#X obj 172 118 route bang;
#N canvas 431 406 824 369 LEDcounter 0;
#X msg 199 265 1 1 1 1 1 1 1 1 1 1 1 1;
#N canvas 229 268 814 510 tick1 0;
#X obj 55 65 t b b b;
#X msg 131 96 80;
#X msg 225 111 0;
#X obj 170 106 t b b;
#X msg 233 135 0 0 0 0 0 0 0 0 0 0 0 0;
#X obj 76 33 inlet;
#X obj 66 190 outlet;
#X obj 153 193 outlet;
#X msg 57 135 1 1 1 0 0 0 0 0 0 0 0 0;
#X obj 170 82 del 200;
#X connect 0 0 8 0;
#X connect 0 1 1 0;
#X connect 0 2 9 0;
#X connect 1 0 7 0;
#X connect 2 0 7 0;
#X connect 3 0 4 0;
#X connect 3 1 2 0;
#X connect 4 0 6 0;
#X connect 5 0 0 0;
#X connect 8 0 6 0;
#X connect 9 0 3 0;
#X restore 94 102 pd tick1;
#N canvas 229 268 814 510 tick2 0;
#X obj 55 65 t b b b;
#X msg 131 96 80;
#X obj 170 82 del 100;
#X msg 225 111 0;
#X obj 170 106 t b b;
#X msg 233 135 0 0 0 0 0 0 0 0 0 0 0 0;
#X obj 76 33 inlet;
#X obj 66 190 outlet;
#X obj 153 193 outlet;
#X msg 48 136 0 0 0 0 1 1 0 0 0 0 0 0;
#X connect 0 0 9 0;
#X connect 0 1 1 0;
#X connect 0 2 2 0;
#X connect 1 0 8 0;
#X connect 2 0 4 0;
#X connect 3 0 8 0;
#X connect 4 0 5 0;
#X connect 4 1 3 0;
#X connect 5 0 7 0;
#X connect 6 0 0 0;
#X connect 9 0 7 0;
#X restore 140 146 pd tick2;
#N canvas 229 268 814 510 tick3 0;
#X obj 55 65 t b b b;
#X msg 131 96 80;
#X obj 170 82 del 100;
#X msg 225 111 0;
#X obj 170 106 t b b;
#X msg 233 135 0 0 0 0 0 0 0 0 0 0 0 0;
#X obj 76 33 inlet;
#X obj 66 190 outlet;
#X obj 153 193 outlet;
#X msg 55 137 0 0 0 0 0 0 0 0 1 1 0 0;
#X connect 0 0 9 0;
#X connect 0 1 1 0;
#X connect 0 2 2 0;
#X connect 1 0 8 0;
#X connect 2 0 4 0;
#X connect 3 0 8 0;
#X connect 4 0 5 0;
#X connect 4 1 3 0;
#X connect 5 0 7 0;
#X connect 6 0 0 0;
#X connect 9 0 7 0;
#X restore 176 191 pd tick3;
#X obj 130 41 t b b;
#X obj 185 100 t b b;
#X obj 222 159 t b b;
#X obj 266 232 t b b;
#X msg 304 299 255;
#X obj 129 16 inlet;
#X obj 59 331 outlet list;
#X obj 226 343 outlet intensity;
#X obj 183 76 del 450;
#X obj 220 132 del 450;
#X obj 264 202 del 450;
#X connect 1 0 10 0;
#X connect 1 1 11 0;
#X connect 2 0 10 0;
#X connect 2 1 11 0;
#X connect 3 0 10 0;
#X connect 3 1 11 0;
#X connect 4 0 1 0;
#X connect 4 1 12 0;
#X connect 5 0 2 0;
#X connect 5 1 13 0;
#X connect 6 0 3 0;
#X connect 6 1 14 0;
#X connect 7 0 0 0;
#X connect 7 1 8 0;
#X connect 8 0 11 0;
#X connect 9 0 4 0;
#X connect 12 0 5 0;
#X connect 13 0 6 0;
#X connect 14 0 7 0;
#X restore 679 259 pd LEDcounter;
#X obj 53 261 pipe f f 1600;
#X obj 281 188 spigot;
#X msg 318 164 1;
#X msg 351 164 0;
#X obj 335 206 > 10;
#X obj 314 422 spigot;
#X obj 486 449 spigot;
#X obj 744 446 t b b;
#X msg 427 409 0;
#X obj 313 110 del 1600;
#X obj 680 230 del 250;
#X obj 781 561 del 300;
#X obj 743 523 del 200;
#X obj 140 288 route 0;
#X msg 126 309 0;
#X obj 185 309 clip 60 80;
#X obj 208 28 i;
#X obj 274 -13 loadbang;
#X obj 222 -36 r startPoint;
#X msg 346 12 53600;
#X obj 227 57 tgl 19 0 empty empty empty 0 -10 0 12 #fcfcfc #000000 #000000 0 1;
#X msg 274 12 73000;
#X obj 671 -2 t a;
#X obj 809 2 t a;
#X connect 0 0 54 0;
#X connect 0 1 53 0;
#X connect 0 2 56 0;
#X connect 1 0 23 0;
#X connect 2 0 58 0;
#X connect 2 1 58 1;
#X connect 2 1 59 0;
#X connect 3 0 80 0;
#X connect 4 0 81 0;
#X connect 5 0 7 0;
#X connect 6 0 67 0;
#X connect 6 0 68 0;
#X connect 6 0 74 0;
#X connect 7 0 8 0;
#X connect 7 1 78 0;
#X connect 7 2 6 0;
#X connect 7 2 43 1;
#X connect 8 0 24 0;
#X connect 8 0 42 1;
#X connect 8 0 41 0;
#X connect 8 0 14 1;
#X connect 8 0 15 1;
#X connect 8 0 61 0;
#X connect 8 0 65 0;
#X connect 9 0 7 0;
#X connect 10 0 80 0;
#X connect 11 0 81 0;
#X connect 12 0 18 0;
#X connect 13 0 19 0;
#X connect 14 1 26 0;
#X connect 14 2 64 0;
#X connect 15 1 25 0;
#X connect 15 2 63 0;
#X connect 21 0 33 0;
#X connect 22 0 21 0;
#X connect 22 1 21 1;
#X connect 23 0 55 0;
#X connect 23 1 52 0;
#X connect 24 0 58 0;
#X connect 25 0 12 0;
#X connect 25 1 12 1;
#X connect 25 1 27 0;
#X connect 26 0 13 0;
#X connect 26 1 13 1;
#X connect 26 1 29 0;
#X connect 28 0 0 0;
#X connect 30 0 43 0;
#X connect 31 0 30 1;
#X connect 32 0 31 1;
#X connect 33 0 31 0;
#X connect 33 0 37 0;
#X connect 34 0 32 0;
#X connect 34 1 35 1;
#X connect 34 2 31 2;
#X connect 35 0 36 0;
#X connect 36 0 30 0;
#X connect 36 1 30 1;
#X connect 37 0 50 0;
#X connect 40 0 13 1;
#X connect 40 0 12 1;
#X connect 41 0 30 0;
#X connect 42 0 38 0;
#X connect 43 0 38 0;
#X connect 46 0 17 0;
#X connect 47 0 16 0;
#X connect 48 0 46 1;
#X connect 49 0 51 0;
#X connect 49 0 48 0;
#X connect 50 0 35 0;
#X connect 50 1 42 0;
#X connect 51 0 47 1;
#X connect 52 0 0 0;
#X connect 54 0 2 0;
#X connect 55 0 0 0;
#X connect 56 0 20 0;
#X connect 57 0 46 0;
#X connect 57 0 47 0;
#X connect 57 1 46 2;
#X connect 57 1 47 2;
#X connect 58 0 30 0;
#X connect 58 1 71 0;
#X connect 59 0 62 0;
#X connect 60 0 59 1;
#X connect 60 0 63 1;
#X connect 60 0 64 1;
#X connect 61 0 59 1;
#X connect 62 0 15 0;
#X connect 62 0 14 0;
#X connect 63 0 47 0;
#X connect 64 0 46 0;
#X connect 65 0 70 0;
#X connect 65 1 66 0;
#X connect 66 0 63 1;
#X connect 66 0 64 1;
#X connect 67 0 60 0;
#X connect 68 0 57 0;
#X connect 69 0 20 0;
#X connect 70 0 20 0;
#X connect 70 0 69 0;
#X connect 71 0 72 0;
#X connect 71 1 73 0;
#X connect 72 0 34 0;
#X connect 73 0 34 0;
#X connect 74 0 0 0;
#X connect 75 0 79 0;
#X connect 76 0 74 1;
#X connect 77 0 74 1;
#X connect 78 0 28 0;
#X connect 79 0 74 1;
#X connect 80 0 21 0;
#X connect 80 0 12 0;
#X connect 81 0 22 0;
#X connect 81 0 13 0;
#X restore 873 727 pd audition;
#X obj 850 697 == 6;
#X obj 460 25 change;
#X obj 461 49 t b;
#X msg 462 77 0;
#X msg 673 231 0;
#X obj 644 188 t b a a b;
#X connect 0 0 128 0;
#X connect 1 0 129 0;
#X connect 2 0 128 0;
#X connect 3 0 129 0;
#X connect 4 0 17 0;
#X connect 5 0 10 0;
#X connect 5 0 131 0;
#X connect 6 0 9 0;
#X connect 9 0 8 0;
#X connect 10 0 7 0;
#X connect 11 0 126 0;
#X connect 13 0 40 0;
#X connect 14 0 127 0;
#X connect 15 0 16 0;
#X connect 15 0 25 0;
#X connect 16 0 18 0;
#X connect 18 0 12 0;
#X connect 18 0 28 1;
#X connect 19 0 40 0;
#X connect 20 0 17 0;
#X connect 22 0 41 0;
#X connect 23 0 21 0;
#X connect 23 0 29 1;
#X connect 24 0 41 0;
#X connect 25 0 26 0;
#X connect 26 0 23 0;
#X connect 27 0 40 0;
#X connect 28 0 19 0;
#X connect 28 1 27 0;
#X connect 29 0 24 0;
#X connect 29 1 30 0;
#X connect 30 0 41 0;
#X connect 31 0 32 0;
#X connect 32 0 33 0;
#X connect 32 1 34 0;
#X connect 33 0 28 0;
#X connect 34 0 28 0;
#X connect 35 0 36 0;
#X connect 36 0 37 0;
#X connect 36 1 38 0;
#X connect 37 0 29 0;
#X connect 38 0 29 0;
#X connect 39 0 28 1;
#X connect 40 0 4 0;
#X connect 40 1 4 1;
#X connect 41 0 20 0;
#X connect 41 1 20 1;
#X connect 42 0 29 1;
#X connect 43 0 28 1;
#X connect 44 0 29 1;
#X connect 45 0 48 0;
#X connect 45 0 53 0;
#X connect 45 0 90 0;
#X connect 45 0 101 0;
#X connect 45 0 104 0;
#X connect 45 0 115 0;
#X connect 45 0 136 0;
#X connect 45 0 137 0;
#X connect 45 0 141 0;
#X connect 46 0 49 1;
#X connect 47 0 46 0;
#X connect 48 0 54 0;
#X connect 48 0 58 0;
#X connect 48 0 59 0;
#X connect 48 1 60 0;
#X connect 49 0 73 1;
#X connect 49 0 80 0;
#X connect 50 1 52 0;
#X connect 50 1 51 0;
#X connect 50 1 87 0;
#X connect 50 2 103 0;
#X connect 51 0 46 0;
#X connect 55 0 64 1;
#X connect 56 0 57 0;
#X connect 57 0 64 1;
#X connect 58 0 47 0;
#X connect 59 0 62 0;
#X connect 60 0 62 0;
#X connect 61 0 56 0;
#X connect 61 1 55 0;
#X connect 62 0 61 0;
#X connect 63 1 51 0;
#X connect 63 1 69 0;
#X connect 63 1 89 0;
#X connect 63 2 102 0;
#X connect 64 0 67 0;
#X connect 64 0 50 0;
#X connect 64 1 65 0;
#X connect 64 1 63 0;
#X connect 65 0 66 0;
#X connect 66 0 64 0;
#X connect 67 0 68 0;
#X connect 68 0 64 0;
#X connect 70 0 17 0;
#X connect 71 0 78 0;
#X connect 72 0 78 0;
#X connect 73 0 71 0;
#X connect 73 1 72 0;
#X connect 74 0 75 0;
#X connect 75 0 76 0;
#X connect 75 1 77 0;
#X connect 76 0 73 0;
#X connect 77 0 73 0;
#X connect 78 0 70 0;
#X connect 78 1 70 1;
#X connect 79 0 78 0;
#X connect 81 0 10 0;
#X connect 81 1 124 0;
#X connect 82 0 9 0;
#X connect 82 1 125 0;
#X connect 83 0 17 0;
#X connect 86 0 84 0;
#X connect 86 0 92 0;
#X connect 87 0 86 0;
#X connect 87 1 86 1;
#X connect 88 0 85 0;
#X connect 88 0 97 0;
#X connect 89 0 88 0;
#X connect 89 1 88 1;
#X connect 90 0 83 0;
#X connect 91 0 43 0;
#X connect 91 1 13 0;
#X connect 92 0 49 0;
#X connect 92 1 79 0;
#X connect 93 0 18 0;
#X connect 93 0 132 0;
#X connect 93 1 13 0;
#X connect 93 1 5 0;
#X connect 94 0 23 0;
#X connect 94 0 123 0;
#X connect 94 1 6 0;
#X connect 94 1 22 0;
#X connect 95 0 42 0;
#X connect 95 1 22 0;
#X connect 96 0 44 0;
#X connect 96 1 22 0;
#X connect 97 0 49 0;
#X connect 97 1 79 0;
#X connect 98 0 45 0;
#X connect 100 0 17 0;
#X connect 101 0 99 0;
#X connect 101 1 100 0;
#X connect 101 2 13 0;
#X connect 101 2 79 0;
#X connect 101 2 22 0;
#X connect 102 0 9 0;
#X connect 102 1 127 0;
#X connect 103 0 10 0;
#X connect 103 1 126 0;
#X connect 104 0 105 0;
#X connect 104 1 106 0;
#X connect 105 0 107 0;
#X connect 106 1 107 1;
#X connect 107 1 109 0;
#X connect 107 1 119 0;
#X connect 107 2 103 0;
#X connect 108 0 110 0;
#X connect 108 0 111 0;
#X connect 109 0 108 0;
#X connect 109 1 108 1;
#X connect 110 0 39 0;
#X connect 110 1 13 0;
#X connect 112 1 117 0;
#X connect 112 1 121 0;
#X connect 112 2 102 0;
#X connect 113 0 112 0;
#X connect 114 1 112 1;
#X connect 115 0 113 0;
#X connect 115 1 114 0;
#X connect 116 0 95 0;
#X connect 116 0 122 0;
#X connect 117 0 116 0;
#X connect 117 1 116 1;
#X connect 118 0 91 0;
#X connect 118 0 111 0;
#X connect 119 0 118 0;
#X connect 119 1 118 1;
#X connect 120 0 96 0;
#X connect 120 0 122 0;
#X connect 121 0 120 0;
#X connect 121 1 120 1;
#X connect 123 0 82 0;
#X connect 124 0 10 1;
#X connect 125 0 9 1;
#X connect 126 0 10 1;
#X connect 127 0 9 1;
#X connect 128 0 133 1;
#X connect 129 0 134 1;
#X connect 132 0 81 0;
#X connect 132 0 130 0;
#X connect 133 0 93 0;
#X connect 133 1 108 0;
#X connect 133 2 118 0;
#X connect 133 3 86 0;
#X connect 133 4 83 1;
#X connect 133 5 135 1;
#X connect 134 0 94 0;
#X connect 134 1 116 0;
#X connect 134 2 120 0;
#X connect 134 3 88 0;
#X connect 134 4 83 2;
#X connect 134 5 135 2;
#X connect 135 0 17 0;
#X connect 136 0 135 0;
#X connect 137 0 138 0;
#X connect 138 0 139 0;
#X connect 140 0 134 1;
#X connect 140 0 133 1;
#X connect 141 0 140 0;
#X connect 141 1 133 0;
#X connect 141 2 134 0;
#X connect 141 3 140 0;
#X restore 367 294 pd StringNote;
#X obj 415 188 tgl 19 0 empty empty empty 0 -10 0 12 #fcfcfc #000000 #000000 0 1;
#X obj 178 222 hradio 19 1 0 7 empty empty empty 0 -10 0 12 #fcfcfc #000000 #000000 0;
#X obj 498 206 tgl 19 0 empty empty empty 0 -10 0 12 #fcfcfc #000000 #000000 0 1;
#X obj 676 234 &;
#X msg 695 179 1;
#X obj 696 154 loadbang;
#X obj 693 207 << 0;
#X obj 713 238 tgl 19 0 empty empty empty 0 -10 0 12 #fcfcfc #000000 #000000 0 1;
#X obj 615 339 r mode12cross;
#X obj 638 424 line;
#X obj 390 94 r sensor1;
#X obj 496 95 r sensor2;
#X obj 399 163 spigot;
#X obj 488 166 spigot;
#X obj 676 269 > 0;
#X msg 668 391 1 100;
#X obj 781 329 sel 1;
#X obj 255 93 r string_mode;
#X msg 609 387 0 \$1;
#X msg 617 120 1;
#X obj 617 286 tgl 19 0 empty empty empty 0 -10 0 12 #fcfcfc #000000 #000000 0 1;
#X connect 0 0 16 0;
#X connect 1 0 5 0;
#X connect 2 0 5 1;
#X connect 3 0 2 0;
#X connect 4 0 2 0;
#X connect 5 0 9 0;
#X connect 6 0 7 0;
#X connect 7 0 8 0;
#X connect 8 0 4 0;
#X connect 8 1 3 0;
#X connect 12 0 1 0;
#X connect 13 0 12 1;
#X connect 14 0 12 0;
#X connect 15 0 12 2;
#X connect 16 0 27 0;
#X connect 16 0 33 0;
#X connect 17 0 19 0;
#X connect 18 0 17 0;
#X connect 19 0 16 1;
#X connect 20 0 27 0;
#X connect 21 0 31 0;
#X connect 22 0 2 0;
#X connect 23 0 25 0;
#X connect 24 0 26 0;
#X connect 25 0 12 1;
#X connect 26 0 12 2;
#X connect 27 0 10 0;
#X connect 27 0 26 1;
#X connect 27 0 25 1;
#X connect 27 0 29 0;
#X connect 28 0 22 0;
#X connect 29 0 28 0;
#X connect 30 0 12 0;
#X connect 31 0 22 0;
#X connect 32 0 16 0;
