#N canvas -31 23 1280 755 12;
#X obj 72 684 inlet;
#X obj 120 685 tgl 19 0 empty empty empty 0 -10 0 12 #fcfcfc #000000 #000000 0 1;
#X obj 516 688 inlet;
#X text 512 663 instrument num;
#X obj 648 887 switch~;
#X text 511 709 ignore;
#X text 67 659 play/stop;
#X text 226 659 sensor1;
#X text 367 662 sensor2;
#X text 650 663 mode;
#X obj 72 715 sel 0 1;
#N canvas 51 97 1181 681 counter 0;
#X obj 159 129 t b b b;
#X floatatom 242 182 5 0 0 0 - - - 0;
#X obj 188 200 /;
#X floatatom 242 219 5 0 0 0 - - - 0;
#X obj 188 229 i;
#X floatatom 242 248 5 0 0 0 - - - 0;
#X obj 242 153 inlet;
#X obj 158 100 inlet;
#X msg 119 230 0;
#X obj 159 276 metro;
#X msg 188 171 60000;
#X msg 208 276 0;
#X obj 159 305 i;
#X obj 194 305 + 1;
#X floatatom 161 333 5 0 0 0 - - - 0;
#X text 54 22 Due to the absence of a Vanilla counter here is one from cheetomoskeeto;
#X text 346 110 BPM;
#X text 239 134 Recalculate;
#X text 156 76 Start clock;
#X obj 48 194 inlet;
#X text 47 171 Stop;
#X obj 349 135 inlet;
#X obj 274 98 bng 19 250 50 0 empty empty empty 0 -10 0 12 #fcfcfc #000000 #000000;
#X obj 89 85 bng 19 250 50 0 empty empty empty 0 -10 0 12 #fcfcfc #000000 #000000;
#X obj 303 80 inlet;
#X text 302 58 Reset;
#X obj 159 419 outlet;
#X obj 398 134 loadbang;
#X text 396 109 Default BPM;
#X obj 274 320 r reset_counter;
#X floatatom 185 386 5 0 0 0 - - - 0;
#X msg 440 164 360;
#X msg 398 163 360;
#X obj 159 362 % 16;
#X connect 0 0 9 0;
#X connect 0 1 10 0;
#X connect 0 2 1 0;
#X connect 1 0 2 1;
#X connect 2 0 3 0;
#X connect 2 0 4 0;
#X connect 4 0 5 0;
#X connect 4 0 9 1;
#X connect 6 0 1 0;
#X connect 7 0 0 0;
#X connect 8 0 9 0;
#X connect 9 0 12 0;
#X connect 10 0 2 0;
#X connect 11 0 12 1;
#X connect 11 0 14 0;
#X connect 12 0 13 0;
#X connect 12 0 14 0;
#X connect 13 0 12 1;
#X connect 14 0 33 0;
#X connect 19 0 8 0;
#X connect 21 0 1 0;
#X connect 22 0 1 0;
#X connect 22 0 0 0;
#X connect 23 0 0 0;
#X connect 24 0 11 0;
#X connect 27 0 32 0;
#X connect 29 0 11 0;
#X connect 32 0 1 0;
#X connect 33 0 26 0;
#X connect 33 0 30 0;
#X restore 1395 326 pd counter;
#X f 17;
#X obj 1344 295 bng 19 250 50 0 empty empty empty 0 -10 0 12 #fcfcfc #000000 #000000;
#X text 1346 275 Start;
#X msg 1464 36 60;
#X text 1387 38 BPM input;
#X obj 1405 297 bng 19 250 50 0 empty empty empty 0 -10 0 12 #fcfcfc #000000 #000000;
#X text 1404 276 Recalculate BPM;
#X msg 1464 94 120;
#X obj 1299 295 bng 19 250 50 0 empty empty empty 0 -10 0 12 #fcfcfc #000000 #000000;
#X text 1288 274 Stop, f 5;
#X obj 1531 294 bng 19 250 50 0 empty empty empty 0 -10 0 12 #fcfcfc #000000 #000000;
#X text 1527 274 Reset;
#X msg 1464 123 240;
#X msg 1464 65 90;
#X obj 1264 139 r bpm;
#X obj 1264 168 t b b b;
#X text 19 10 Drumline;
#X obj 1396 371 s bar;
#X obj 36 72 r bar;
#X floatatom 73 161 5 0 0 0 - - - 0;
#X obj 237 138 spigot;
#X obj 477 72 r bar;
#X text 68 50 Kick;
#X obj 1015 393 r kick;
#N canvas 103 332 450 446 kick 0;
#X obj 134 212 vline~;
#X obj 172 328 *~;
#X obj 172 307 cos~;
#X obj 172 286 *~;
#X obj 172 264 *~;
#X obj 172 242 *~;
#X msg 134 190 1 0 0 \, 0 \$1 0;
#X obj 172 350 outlet~;
#X obj 228 397 switch~;
#X obj 228 349 env~;
#X obj 228 373 > 0.1;
#X msg 134 147 1;
#X obj 134 125 inlet;
#X obj 192 29 inlet;
#X obj 251 102 loadbang;
#X msg 194 127 2.4;
#X msg 135 169 70;
#X connect 0 0 1 1;
#X connect 0 0 5 0;
#X connect 0 0 3 1;
#X connect 1 0 7 0;
#X connect 1 0 9 0;
#X connect 2 0 1 0;
#X connect 3 0 2 0;
#X connect 4 0 3 0;
#X connect 5 0 4 1;
#X connect 5 0 4 0;
#X connect 6 0 0 0;
#X connect 9 0 10 0;
#X connect 10 0 8 0;
#X connect 11 0 8 0;
#X connect 11 0 16 0;
#X connect 12 0 11 0;
#X connect 13 0 15 0;
#X connect 14 0 15 0;
#X connect 15 0 5 1;
#X connect 16 0 6 0;
#X restore 1060 589 pd kick;
#X obj 237 164 s kick;
#X text 473 51 Snare;
#X obj 881 393 r snare;
#X text 46 243 Sequences;
#X floatatom 472 162 5 0 0 0 - - - 0;
#X obj 643 139 spigot;
#X obj 472 138 tabread snareSequence;
#X obj 643 190 s snare;
#X obj 73 137 tabread kickSequence;
#X text 110 11 The last position sends the message back to the subcscription server;
#X obj 311 166 s kickmsg;
#X obj 713 167 s snaremsg;
#X msg 1465 152 360;
#X text 1140 959 The missing components are: Identifying *just* the performer's instruments Receiving the pattern the zmq controller and applying it to the correct sequence;
#X msg 1510 143 \$1 1000;
#X floatatom 1542 172 5 0 0 0 - - - 0;
#X floatatom 1577 200 5 0 0 0 - - - 0;
#X obj 1510 229 line 0 100;
#X msg 1465 181 420;
#X msg 1526 326 0;
#X obj 105 744 s \$0-start;
#X obj 21 744 s \$0-stop;
#X obj 1189 217 r \$0-stop;
#X obj 1362 161 r \$0-start;
#X obj 796 693 inlet;
#X obj 795 751 s resetDrum;
#X obj 796 722 t b;
#X obj 721 810 bng 19 250 50 0 empty empty empty 0 -10 0 12 #fcfcfc #000000 #000000;
#X obj 240 800 s mode3sensor1;
#X obj 378 799 s mode3sensor2;
#X text 56 788 Receive network sequences;
#X text 1052 420 Output audio;
#X text 792 667 reset drums;
#X obj 61 817 r seq;
#X obj 61 987 array set kickSequence;
#X floatatom 136 959 5 0 0 0 - - - 0;
#X floatatom 185 902 5 0 0 0 - - - 0;
#X obj 106 930 array set snareSequence;
#X floatatom 226 901 5 0 0 0 - - - 0;
#X obj 40 207 s LEDreset;
#X text 25 630 ==== Network Messages ==== DO NOT MOVE THEM \, THE INLETS ARE VERY IMPORTANT, f 76;
#N canvas 100 23 994 755 handleLED 0;
#X obj 26 10 r bar;
#X text 320 283 Quickly reset the light values to low state;
#X msg 372 700 0 0 0 0 0 0 0 0 0 0 0 0;
#X obj 145 721 s LEDstrip1;
#X obj 651 690 s LEDstrip2;
#X obj 153 684 LED_color;
#X obj 652 657 LED_color;
#X obj 372 671 r \$0-stop;
#X obj 553 712 s LEDreset;
#X obj 552 686 del 100;
#X obj 502 13 inlet sensor1;
#X obj 653 6 inlet sensor2;
#X obj 531 44 sel 1;
#X obj 674 51 sel 1;
#X obj 464 62 tgl 19 0 empty empty empty 0 -10 0 12 #fcfcfc #000000 #000000 0 1;
#X obj 718 38 tgl 19 0 empty empty empty 0 -10 0 12 #fcfcfc #000000 #000000 0 1;
#X msg 208 571 1 1 1 1 1 1 1 1 1 1 1 1;
#X msg 626 579 1 1 1 1 1 1 1 1 1 1 1 1;
#N canvas 167 23 864 672 colorPicker 0;
#X obj 122 32 inlet;
#X obj 121 462 outlet;
#X msg 428 213 0 0.5 1;
#X msg 534 248 0.5 0 1;
#X msg 632 268 0.7 0.7 1;
#X obj 433 121 sel 0 1 2 3 4 5 6 7;
#X obj 264 531 t a;
#X msg 715 340 0 0.7 1;
#X msg 492 385 0 0 1;
#X msg 687 525 0.7 1 1;
#X msg 360 182 1 0 1;
#X msg 557 463 0 1 0.5;
#X obj 401 62 random 7;
#X connect 0 0 12 0;
#X connect 2 0 6 0;
#X connect 3 0 6 0;
#X connect 4 0 6 0;
#X connect 5 0 10 0;
#X connect 5 1 2 0;
#X connect 5 2 3 0;
#X connect 5 3 4 0;
#X connect 5 4 7 0;
#X connect 5 5 8 0;
#X connect 5 6 11 0;
#X connect 5 7 9 0;
#X connect 6 0 1 0;
#X connect 7 0 6 0;
#X connect 8 0 6 0;
#X connect 9 0 6 0;
#X connect 10 0 6 0;
#X connect 11 0 6 0;
#X connect 12 0 5 0;
#X restore 492 138 pd colorPicker;
#N canvas 307 23 864 672 colorPicker 0;
#X msg 226 142 seed \$1;
#X floatatom 184 249 5 0 0 0 - - - 0;
#X obj 81 8 inlet;
#X obj 108 108 t b b b;
#X obj 140 585 outlet;
#X obj 238 114 r my_id;
#X obj 231 39 bng 19 250 50 0 empty empty empty 0 -10 0 12 #fcfcfc #000000 #000000;
#X msg 367 19 1;
#X obj 369 45 + 1;
#X obj 369 93 + 1;
#X floatatom 272 252 5 0 0 0 - - - 0;
#X obj 270 196 random 20;
#X obj 272 226 / 20;
#X floatatom 85 252 5 0 0 0 - - - 0;
#X obj 182 193 random 30;
#X obj 184 223 / 30;
#X obj 125 397 pack 0 0 0;
#X obj 105 312 * 0.5;
#X obj 83 196 random 100;
#X obj 85 226 / 100;
#X msg 428 213 0 0.5 1;
#X msg 534 248 0.5 0 1;
#X msg 632 268 0.7 0.7 1;
#X obj 433 121 sel 0 1 2 3 4 5 6 7;
#X obj 264 531 t a;
#X msg 715 340 0 0.7 1;
#X msg 492 385 0 0 1;
#X msg 687 525 0.7 1 1;
#X obj 369 69 % 8;
#X msg 360 182 1 0 1;
#X msg 557 463 0 1 0.5;
#X connect 2 0 3 0;
#X connect 3 0 18 0;
#X connect 3 1 14 0;
#X connect 3 2 11 0;
#X connect 3 2 7 0;
#X connect 5 0 0 0;
#X connect 6 0 3 0;
#X connect 7 0 8 0;
#X connect 8 0 28 0;
#X connect 9 0 23 0;
#X connect 11 0 12 0;
#X connect 12 0 10 0;
#X connect 12 0 16 2;
#X connect 14 0 15 0;
#X connect 15 0 1 0;
#X connect 15 0 16 1;
#X connect 17 0 16 0;
#X connect 18 0 19 0;
#X connect 19 0 13 0;
#X connect 19 0 17 0;
#X connect 20 0 24 0;
#X connect 21 0 24 0;
#X connect 22 0 24 0;
#X connect 23 0 29 0;
#X connect 23 1 20 0;
#X connect 23 2 21 0;
#X connect 23 3 22 0;
#X connect 23 4 25 0;
#X connect 23 5 26 0;
#X connect 23 6 30 0;
#X connect 23 7 27 0;
#X connect 24 0 4 0;
#X connect 25 0 24 0;
#X connect 26 0 24 0;
#X connect 27 0 24 0;
#X connect 28 0 9 0;
#X connect 28 0 8 1;
#X connect 29 0 24 0;
#X connect 30 0 24 0;
#X restore 699 170 pd colorPicker;
#X obj 438 541 r mode;
#X obj 440 573 sel 5;
#X obj 120 168 loop_led;
#X obj 643 70 t b b b;
#X obj 488 87 t b b b;
#X msg 732 485 0 0 0 0 0 0 0 0 0 0 0 0;
#X msg 409 469 0 0 0 0 0 0 0 0 0 0 0 0;
#X obj 830 140 del 100;
#X obj 566 108 del 100;
#X msg 269 627 0 0.2 1;
#X msg 768 618 0.15 0 0.5;
#X connect 2 0 5 0;
#X connect 2 0 6 0;
#X connect 5 0 3 0;
#X connect 6 0 4 0;
#X connect 7 0 2 0;
#X connect 7 0 9 0;
#X connect 9 0 8 0;
#X connect 10 0 24 0;
#X connect 11 0 23 0;
#X connect 12 0 24 0;
#X connect 13 0 23 0;
#X connect 14 0 12 0;
#X connect 15 0 13 0;
#X connect 16 0 5 0;
#X connect 16 0 6 0;
#X connect 17 0 6 0;
#X connect 17 0 5 0;
#X connect 18 0 5 1;
#X connect 19 0 6 1;
#X connect 20 0 21 0;
#X connect 21 0 29 0;
#X connect 21 0 30 0;
#X connect 23 0 17 0;
#X connect 23 1 30 0;
#X connect 23 2 27 0;
#X connect 24 0 16 0;
#X connect 24 1 29 0;
#X connect 24 2 28 0;
#X connect 25 0 6 0;
#X connect 25 0 5 0;
#X connect 26 0 5 0;
#X connect 26 0 6 0;
#X connect 27 0 25 0;
#X connect 28 0 26 0;
#X connect 29 0 5 1;
#X connect 29 0 6 1;
#X connect 30 0 6 1;
#X connect 30 0 5 1;
#X restore 1356 901 pd handleLED;
#X obj 29 354 array get kickSequence;
#X obj 30 381 list prepend kick;
#X obj 30 544 list trim;
#X obj 252 538 list trim;
#X obj 242 350 array get snareSequence;
#X obj 243 376 list prepend snare;
#X obj 30 570 s seq_message \$1;
#X obj 252 567 s seq_message \$1;
#X obj 1274 343 s reset_counter;
#X obj 910 615 outlet~;
#X obj 940 694 inlet;
#X text 936 668 jam mode;
#X obj 966 721 tgl 19 0 empty empty empty 0 -10 0 12 #fcfcfc #000000 #000000 0 1;
#X obj 939 743 t a;
#X obj 938 768 s \$0-jamstate;
#N canvas 399 174 867 604 inputKick 0;
#X obj 105 119 tabwrite kickSequence;
#X obj 267 119 r bar;
#X obj 49 121 s kick;
#X obj 105 90 spigot;
#X obj 105 65 t a a;
#X obj 48 92 sel 1;
#X obj 53 17 inlet;
#X connect 1 0 0 1;
#X connect 3 0 0 0;
#X connect 4 0 3 0;
#X connect 4 1 3 1;
#X connect 5 0 2 0;
#X connect 6 0 4 0;
#X restore 1194 741 pd inputKick;
#N canvas 42 294 500 484 Sequencer_Kick 0;
#X obj 12 44 r resetKicks;
#X msg 12 73 \; kickSequence const 0;
#X floatatom 87 156 5 0 0 0 - - - 0;
#X obj 12 155 bng 19 250 50 0 empty empty empty 0 -10 0 12 #fcfcfc #000000 #000000;
#X obj 12 184 array get kickSequence;
#X obj 12 126 r kickmsg;
#X msg 10 270 \; kickSequence-prev const 0;
#X obj 10 241 loadbang;
#X obj 110 44 r resetDrum;
#N canvas 0 433 500 229 kickSequences 0;
#N canvas 614 639 450 278 (subpatch) 0;
#X array kickSequence 16 float 2;
#X coords 0 2 16 -1 200 140 1 0 0;
#X restore 16 28 graph;
#N canvas 0 22 450 278 (subpatch) 0;
#X array kickSequence-prev 12 float 3;
#A 0 0 0 0 0 0 0 0 0 0 0 0 0;
#X coords 0 2 12 -1 200 140 1 0 0;
#X restore 244 29 graph;
#X restore 12 15 pd kickSequences;
#X connect 0 0 1 0;
#X connect 2 0 4 1;
#X connect 3 0 4 0;
#X connect 5 0 3 0;
#X connect 7 0 6 0;
#X connect 8 0 1 0;
#X restore 130 239 pd Sequencer_Kick;
#N canvas 60 390 712 380 Sequencer_Snare 0;
#X obj 14 -78 r resetSnares;
#X msg 14 -49 \; snareSequence const 0;
#X floatatom 93 34 5 0 0 0 - - - 0;
#X obj 14 33 bng 19 250 50 0 empty empty empty 0 -10 0 12 #fcfcfc #000000 #000000;
#X obj 14 62 array get snareSequence;
#X obj 14 91 print snareSequence \$1;
#X obj 14 4 r snaremsg;
#X msg 14 149 \; snareSequence-prev const 0;
#X obj 14 120 loadbang;
#X obj 119 -78 r resetDrum;
#N canvas 188 82 276 375 snareSequences 0;
#N canvas 14 500 450 278 (subpatch) 0;
#X array snareSequence 16 float 2;
#X coords 0 2 16 -1 200 140 1 0 0;
#X restore 17 25 graph;
#N canvas 404 465 450 278 (subpatch) 0;
#X array snareSequence-prev 12 float 3;
#A 0 0 0 0 0 0 0 0 0 0 0 0 0;
#X coords 0 2 12 -1 200 140 1 0 0;
#X restore 16 192 graph;
#X restore 14 -107 pd snareSequences;
#X connect 0 0 1 0;
#X connect 2 0 4 1;
#X connect 3 0 4 0;
#X connect 6 0 3 0;
#X connect 8 0 7 0;
#X connect 9 0 1 0;
#X restore 273 241 pd Sequencer_Snare;
#N canvas 259 98 906 521 inputSnare 0;
#X obj 278 138 r bar;
#X obj 111 138 tabwrite snareSequence;
#X obj 110 107 spigot;
#X obj 110 78 t a a;
#X obj 45 136 s snare;
#X obj 48 111 sel 1;
#X obj 122 45 inlet;
#X connect 0 0 1 1;
#X connect 2 0 1 0;
#X connect 3 0 2 0;
#X connect 3 1 2 1;
#X connect 5 0 4 0;
#X connect 6 0 3 0;
#X restore 1305 739 pd inputSnare;
#X obj 61 846 route kick snare hat H_kick;
#X obj 228 684 r sensor1;
#X obj 370 682 r sensor2;
#X obj 241 764 spigot;
#X obj 383 763 spigot;
#X obj 650 686 r mode;
#X obj 648 858 > 0;
#X obj 350 881 print unknown seq command;
#X text 668 979 mode enable;
#X obj 648 1077 &;
#X msg 667 1022 1;
#X obj 668 997 loadbang;
#X obj 665 1050 << 2;
#X obj 650 955 r mode;
#X obj 648 1107 > 0;
#X obj 679 857 tgl 19 0 empty empty empty 0 -10 0 12 #fcfcfc #000000 #000000 0 1;
#X obj 649 724 t a;
#X obj 652 819 ||;
#X obj 653 792 t b a;
#X obj 623 765 == 5;
#X obj 664 764 == 6;
#X msg 706 686 4;
#X msg 706 709 5;
#X msg 705 735 6;
#X obj 1305 590 spigot;
#X obj 1197 586 spigot;
#X text 1167 475 if you are aki \, you input looper;
#X obj 1195 613 spigot 1;
#X obj 1304 615 spigot 1;
#X obj 1373 586 r \$0-jamstate;
#X obj 1374 610 - 1;
#X obj 1374 634 abs;
#X obj 260 484 + 1;
#X obj 52 486 + 1;
#X obj 29 294 spigot;
#X obj 82 294 r ImAki;
#X obj 242 296 spigot;
#X obj 299 295 r ImAki;
#X obj 314 736 tgl 19 0 empty empty empty 0 -10 0 12 #fcfcfc #000000 #000000 0 1;
#X obj 470 723 tgl 19 0 empty empty empty 0 -10 0 12 #fcfcfc #000000 #000000 0 1;
#X obj 4 441 list prepend 200;
#X obj 248 440 list prepend 200;
#X obj 710 841 sel 0 1;
#X obj 1285 526 tgl 19 0 empty empty empty 0 -10 0 12 #fcfcfc #000000 #000000 0 1;
#X obj 29 328 spigot;
#X obj 242 325 spigot;
#X obj 149 311 r aki_send;
#X obj 1242 442 r ImAki;
#X obj 1244 501 t a;
#N canvas 196 141 450 446 HighKick 0;
#X obj 134 212 vline~;
#X obj 172 328 *~;
#X obj 172 307 cos~;
#X obj 172 286 *~;
#X obj 172 264 *~;
#X obj 172 242 *~;
#X msg 134 190 1 0 0 \, 0 \$1 0;
#X obj 172 350 outlet~;
#X obj 228 397 switch~;
#X obj 228 349 env~;
#X obj 228 373 > 0.1;
#X msg 134 147 1;
#X obj 134 125 inlet;
#X obj 192 29 inlet;
#X obj 251 102 loadbang;
#X msg 135 169 70;
#X msg 194 127 3.5;
#X connect 0 0 1 1;
#X connect 0 0 5 0;
#X connect 0 0 3 1;
#X connect 1 0 7 0;
#X connect 1 0 9 0;
#X connect 2 0 1 0;
#X connect 3 0 2 0;
#X connect 4 0 3 0;
#X connect 5 0 4 1;
#X connect 5 0 4 0;
#X connect 6 0 0 0;
#X connect 9 0 10 0;
#X connect 10 0 8 0;
#X connect 11 0 8 0;
#X connect 11 0 15 0;
#X connect 12 0 11 0;
#X connect 13 0 16 0;
#X connect 14 0 16 0;
#X connect 15 0 6 0;
#X connect 16 0 5 1;
#X restore 1065 612 pd HighKick;
#X obj 824 454 gate 2 1;
#X obj 964 439 gate 2 1;
#X obj 807 386 % 2;
#X obj 806 409 + 1;
#X obj 351 957 t b b;
#X msg 410 982 1;
#X msg 339 1008 0;
#X obj 410 1039 tgl 19 0 empty empty empty 0 -10 0 12 #fcfcfc #000000 #000000 0 1;
#X obj 411 1069 s beatActive;
#X msg 599 482 set 0;
#X floatatom 568 540 5 0 0 0 - - - 0;
#X obj 547 594 bng 19 250 50 0 empty empty empty 0 -10 0 12 #fcfcfc #000000 #000000;
#X obj 1031 318 s ImAki;
#X obj 1029 281 tgl 19 0 empty empty empty 0 -10 0 12 #fcfcfc #000000 #000000 0 1;
#X obj 807 360 r my_id;
#X obj 943 960 tgl 19 0 empty empty empty 0 -10 0 12 #fcfcfc #000000 #000000 0 1;
#X obj 945 1001 s beatActive;
#X obj 942 934 r ImAki;
#X obj 261 508 route 51;
#X obj 51 513 route 51;
#X obj 340 984 del 10000;
#X obj 455 227 r bar;
#X obj 455 249 % 4;
#X obj 455 273 sel 0;
#X obj 455 297 t b b;
#X obj 52 464 random 70;
#X obj 260 462 random 70;
#X obj 545 393 r kickmsg;
#X obj 546 419 spigot;
#X obj 603 419 r ImAki;
#X obj 546 446 spigot;
#X obj 607 446 r aki_send;
#X obj 1214 715 s kick;
#X obj 1327 714 s snare;
#X obj 816 814 bng 19 250 50 0 empty empty empty 0 -10 0 12 #fcfcfc #000000 #000000;
#X obj 1324 541 r mode3sensor1;
#X obj 1178 542 r mode3sensor2;
#N canvas 422 23 634 693 kick_synth 0;
#X floatatom 267 137 5 0 0 0 - - - 0;
#X text 270 197 fDec = 250;
#X floatatom 292 356 5 0 0 0 - - - 0;
#X text 339 352 pScale = 1;
#X obj 233 422 phasor~;
#X obj 214 107 bng 15 250 50 0 empty empty empty 17 7 0 10 #fcfcfc #000000 #000000;
#X obj 233 442 expr~ if ($v1 > 0.5 \, 0 \, 1);
#X obj 265 471 noise~;
#X floatatom 450 371 5 0 0 0 - - - 0;
#X obj 199 584 *~;
#X obj 357 535 osc~;
#X floatatom 488 471 5 0 0 0 - - - 0;
#X obj 210 46 inlet;
#X text 204 25 trig;
#X obj 265 115 inlet;
#X text 265 93 decay time;
#X obj 292 325 inlet;
#X text 290 305 pitchScale;
#X text 432 322 filterScale;
#X obj 432 336 inlet;
#X text 468 429 sineVol;
#X obj 199 661 outlet~;
#X obj 500 447 inlet;
#N canvas 0 23 450 300 vol_env 0;
#X obj 125 167 vline~;
#X obj 125 188 *~;
#X msg 115 115 0.5 \, 1 5 \, 0.5 60 5 \, 0 \$1 65;
#X obj 108 69 inlet;
#X obj 125 209 outlet~;
#X connect 0 0 1 0;
#X connect 0 0 1 1;
#X connect 1 0 4 0;
#X connect 2 0 0 0;
#X connect 3 0 2 0;
#X restore 51 502 pd vol_env;
#N canvas 0 23 613 532 pitch_env 0;
#X obj 37 37 inlet;
#X obj 33 100 vline~;
#X obj 34 210 mtof~;
#X msg 36 73 1 \, 0.5 5 \, 0 \$1 5;
#X obj 33 128 *~;
#X obj 34 322 outlet~;
#X obj 33 154 *~ 80;
#X obj 34 183 +~ 29;
#X connect 0 0 3 0;
#X connect 1 0 4 0;
#X connect 1 0 4 1;
#X connect 2 0 5 0;
#X connect 3 0 1 0;
#X connect 4 0 6 0;
#X connect 6 0 7 0;
#X connect 7 0 2 0;
#X restore 221 247 pd pitch_env;
#X obj 339 413 *~ 1.5;
#X msg 282 174 500;
#X obj 221 160 f 500;
#X obj 225 367 *~ 2;
#X obj 358 509 *~ 1;
#X obj 236 514 vcf~ 0.5;
#X obj 262 600 osc~ 10;
#X connect 0 0 27 1;
#X connect 2 0 28 1;
#X connect 4 0 6 0;
#X connect 5 0 27 0;
#X connect 6 0 30 0;
#X connect 7 0 30 0;
#X connect 8 0 25 1;
#X connect 9 0 21 0;
#X connect 10 0 9 1;
#X connect 11 0 29 1;
#X connect 12 0 5 0;
#X connect 14 0 0 0;
#X connect 16 0 2 0;
#X connect 19 0 8 0;
#X connect 22 0 11 0;
#X connect 23 0 9 0;
#X connect 24 0 25 0;
#X connect 24 0 28 0;
#X connect 24 0 29 0;
#X connect 25 0 30 1;
#X connect 26 0 27 1;
#X connect 27 0 24 0;
#X connect 27 0 23 0;
#X connect 28 0 4 0;
#X connect 29 0 10 0;
#X connect 30 1 9 1;
#X restore 993 497 pd kick_synth;
#X f 14;
#X obj 710 463 noisebits;
#N canvas 237 74 450 704 snare 0;
#X obj 193 234 vline~;
#X obj 175 460 *~;
#X obj 211 296 cos~;
#X obj 161 169 t f f;
#X obj 211 276 *~;
#X obj 175 482 outlet~;
#X obj 231 529 switch~;
#X obj 231 481 env~;
#X obj 231 505 > 0.1;
#X msg 229 425 1;
#X obj 183 87 t b b b;
#X obj 183 41 inlet;
#X obj 193 392 *~;
#X obj 175 439 cos~;
#X obj 193 345 +~;
#X obj 175 365 *~;
#X obj 193 414 *~;
#X obj 193 322 sig~ 5;
#X obj 229 192 /;
#X obj 183 115 del 5;
#X msg 183 63 1;
#X msg 183 140 90;
#X msg 229 140 70;
#X msg 285 140 6;
#X msg 193 212 1 0 0 \, 0 \$1 3;
#X obj 257 91 loadbang;
#X obj 146 504 s~ \$0-snfb;
#X obj 175 254 r~ \$0-snfb;
#X connect 0 0 4 0;
#X connect 0 0 12 0;
#X connect 0 0 12 1;
#X connect 1 0 5 0;
#X connect 1 0 7 0;
#X connect 1 0 26 0;
#X connect 2 0 14 1;
#X connect 3 0 18 0;
#X connect 3 1 24 0;
#X connect 4 0 2 0;
#X connect 7 0 8 0;
#X connect 8 0 6 0;
#X connect 9 0 6 0;
#X connect 10 0 19 0;
#X connect 10 1 23 0;
#X connect 10 2 9 0;
#X connect 11 0 20 0;
#X connect 12 0 16 0;
#X connect 12 0 16 1;
#X connect 13 0 1 0;
#X connect 14 0 15 1;
#X connect 15 0 13 0;
#X connect 16 0 1 1;
#X connect 17 0 14 0;
#X connect 18 0 4 1;
#X connect 19 0 21 0;
#X connect 19 0 22 0;
#X connect 20 0 10 0;
#X connect 21 0 3 0;
#X connect 22 0 3 0;
#X connect 23 0 18 1;
#X connect 24 0 0 0;
#X connect 25 0 20 0;
#X connect 27 0 15 0;
#X restore 1067 633 pd snare;
#N canvas 103 332 450 446 hihat 0;
#X obj 168 152 noise~;
#X obj 168 282 *~, f 5;
#X obj 170 73 inlet;
#X obj 168 326 outlet~;
#X obj 202 258 line~;
#X msg 202 219 1;
#X obj 170 94 t b b;
#X obj 168 194 hip~ 8000;
#X obj 168 173 hip~ 8000;
#X obj 168 303 *~ 0.4;
#X obj 240 83 vsl 15 128 0 127 0 0 empty empty empty 0 -9 0 10 #fcfcfc #000000 #000000 0 1;
#X msg 240 219 0 \$1;
#X obj 273 24 loadbang;
#X msg 273 53 127;
#X connect 0 0 8 0;
#X connect 1 0 9 0;
#X connect 2 0 6 0;
#X connect 4 0 1 1;
#X connect 5 0 4 0;
#X connect 6 0 10 0;
#X connect 6 1 5 0;
#X connect 7 0 1 0;
#X connect 8 0 7 0;
#X connect 9 0 3 0;
#X connect 10 0 11 0;
#X connect 11 0 4 0;
#X connect 12 0 13 0;
#X connect 13 0 10 0;
#X restore 1067 657 pd hihat;
#X obj 761 559 *~ 1;
#N canvas 325 155 921 623 FM 0;
#N canvas 291 193 645 473 FM_synth 0;
#X obj 66 363 osc~;
#X obj 266 245 osc~ 40;
#X text 118 83 freq;
#X obj 74 312 +~;
#X text 475 173 modulation index;
#X text 298 77 harmonicity;
#X obj 404 228 *~;
#X obj 266 282 *~;
#X obj 66 384 outlet~;
#X obj 74 80 inlet~;
#X obj 429 171 inlet~;
#X obj 253 141 *~ 4;
#X connect 0 0 8 0;
#X connect 1 0 7 0;
#X connect 3 0 0 0;
#X connect 6 0 7 1;
#X connect 7 0 3 1;
#X connect 9 0 3 0;
#X connect 9 0 11 0;
#X connect 10 0 6 1;
#X connect 11 0 1 0;
#X connect 11 0 6 0;
#X restore 97 336 pd FM_synth;
#N canvas 638 359 408 265 env 0;
#X obj 41 19 inlet;
#X obj 41 127 line~;
#X obj 41 169 *~;
#X obj 41 190 outlet~;
#X obj 41 148 *~;
#X obj 41 40 bng 15 250 50 0 empty empty empty 17 7 0 10 #fcfcfc #000000 #000000;
#X obj 114 78 del 10;
#X obj 41 76 pack 1 3;
#X obj 201 53 inlet;
#X floatatom 201 74 5 0 0 0 - - - 0;
#X text 238 74 decay time;
#X text 72 168 square the output;
#X text 67 151 square the output - steeper decay curve;
#X obj 112 98 pack 0 500;
#X connect 0 0 5 0;
#X connect 1 0 4 0;
#X connect 1 0 4 1;
#X connect 2 0 3 0;
#X connect 4 0 2 0;
#X connect 4 0 2 1;
#X connect 5 0 6 0;
#X connect 5 0 7 0;
#X connect 6 0 13 0;
#X connect 7 0 1 0;
#X connect 8 0 9 0;
#X connect 13 0 1 0;
#X restore 231 239 pd env;
#X obj 96 180 t f b;
#N canvas 638 359 408 265 env 0;
#X obj 41 19 inlet;
#X obj 41 127 line~;
#X obj 41 169 *~;
#X obj 41 190 outlet~;
#X obj 41 148 *~;
#X obj 41 40 bng 15 250 50 0 empty empty empty 17 7 0 10 #fcfcfc #000000 #000000;
#X obj 114 78 del 10;
#X obj 41 76 pack 1 3;
#X obj 201 53 inlet;
#X floatatom 201 74 5 0 0 0 - - - 0;
#X text 238 74 decay time;
#X text 72 168 square the output;
#X text 67 151 square the output - steeper decay curve;
#X obj 112 98 pack 0 500;
#X connect 0 0 5 0;
#X connect 1 0 4 0;
#X connect 1 0 4 1;
#X connect 2 0 3 0;
#X connect 4 0 2 0;
#X connect 4 0 2 1;
#X connect 5 0 6 0;
#X connect 5 0 7 0;
#X connect 6 0 13 0;
#X connect 7 0 1 0;
#X connect 8 0 9 0;
#X connect 9 0 13 1;
#X connect 13 0 1 0;
#X restore 327 360 pd env;
#X obj 101 397 *~;
#X obj 101 88 inlet;
#X obj 101 442 outlet~;
#X obj 222 295 *~ 9;
#X obj 99 122 t b;
#X msg 95 152 8.661;
#X connect 0 0 4 0;
#X connect 1 0 7 0;
#X connect 2 0 0 0;
#X connect 2 1 1 0;
#X connect 2 1 3 0;
#X connect 3 0 4 1;
#X connect 4 0 6 0;
#X connect 5 0 8 0;
#X connect 7 0 0 1;
#X connect 8 0 9 0;
#X connect 9 0 2 0;
#X restore 881 509 pd FM;
#X f 9;
#X msg 1044 451 1;
#X msg 965 463 2;
#X obj 72 108 select 0 1 2 3 4 5 6 7 8 9 10 11 12 13 14 15;
#X obj 477 109 select 0 1 2 3 4 5 6 7 8 9 10 11 12 13 14 15;
#X obj 548 510 counter 15;
#X obj 549 566 sel 15;
#X obj 1032 233 loadbang;
#X obj 184 709 loadbang;
#X obj 1448 861 r kick;
#X obj 1314 861 r snare;
#X obj 841 620 dac~;
#X obj 163 270 r kickmsg;
#X obj 31 409 t a b a b;
#X obj 170 485 + 1;
#X obj 122 440 list prepend 200;
#X obj 169 512 route 51;
#X obj 170 463 random 70;
#X obj 244 404 t a b a b;
#X obj 383 484 + 1;
#X obj 371 440 list prepend 200;
#X obj 384 508 route 51;
#X obj 383 462 random 70;
#X obj 855 240 timer;
#X floatatom 875 287 8 0 0 0 - - - 0;
#X obj 808 175 t a a;
#X obj 882 551 *~ 1;
#X obj 1327 641 i;
#X obj 1327 665 change;
#X obj 1327 689 sel 1;
#X obj 1213 645 i;
#X obj 1213 669 change;
#X obj 1213 693 sel 1;
#X obj 1261 624 r bar;
#X obj 1261 648 t b;
#X obj 992 520 *~ 0.3;
#X connect 0 0 10 0;
#X connect 1 0 10 0;
#X connect 10 0 57 0;
#X connect 10 1 56 0;
#X connect 10 1 156 0;
#X connect 11 0 28 0;
#X connect 12 0 11 1;
#X connect 12 0 86 0;
#X connect 14 0 50 0;
#X connect 16 0 11 2;
#X connect 18 0 50 0;
#X connect 19 0 11 0;
#X connect 21 0 11 3;
#X connect 21 0 55 0;
#X connect 21 0 86 0;
#X connect 23 0 50 0;
#X connect 24 0 50 0;
#X connect 25 0 26 0;
#X connect 26 0 12 0;
#X connect 26 1 16 0;
#X connect 26 2 19 0;
#X connect 29 0 44 0;
#X connect 29 0 192 0;
#X connect 30 0 31 1;
#X connect 31 0 36 0;
#X connect 32 0 42 0;
#X connect 32 0 193 0;
#X connect 34 0 148 1;
#X connect 34 0 184 0;
#X connect 34 0 189 0;
#X connect 38 0 147 1;
#X connect 38 0 185 0;
#X connect 40 0 41 1;
#X connect 41 0 43 0;
#X connect 42 0 40 0;
#X connect 44 0 30 0;
#X connect 48 0 50 0;
#X connect 50 0 53 0;
#X connect 51 0 53 1;
#X connect 52 0 53 2;
#X connect 53 0 11 4;
#X connect 53 0 12 0;
#X connect 54 0 50 0;
#X connect 58 0 19 0;
#X connect 59 0 12 0;
#X connect 60 0 62 0;
#X connect 62 0 61 0;
#X connect 69 0 97 0;
#X connect 71 0 70 1;
#X connect 72 0 73 1;
#X connect 78 0 79 0;
#X connect 79 0 202 0;
#X connect 80 0 84 0;
#X connect 81 0 85 0;
#X connect 82 0 83 0;
#X connect 83 0 207 0;
#X connect 88 0 91 0;
#X connect 90 0 91 0;
#X connect 91 0 92 0;
#X connect 97 0 70 0;
#X connect 97 0 151 0;
#X connect 97 1 73 0;
#X connect 97 1 151 0;
#X connect 98 0 100 0;
#X connect 99 0 101 0;
#X connect 100 0 64 0;
#X connect 101 0 65 0;
#X connect 102 0 113 0;
#X connect 103 0 4 0;
#X connect 103 0 101 1;
#X connect 103 0 100 1;
#X connect 103 0 112 0;
#X connect 103 0 139 0;
#X connect 106 0 111 0;
#X connect 107 0 109 0;
#X connect 108 0 107 0;
#X connect 109 0 106 1;
#X connect 110 0 106 0;
#X connect 113 0 116 0;
#X connect 113 0 117 0;
#X connect 114 0 103 0;
#X connect 115 0 114 0;
#X connect 115 1 114 1;
#X connect 116 0 114 0;
#X connect 117 0 115 0;
#X connect 118 0 113 0;
#X connect 119 0 113 0;
#X connect 120 0 113 0;
#X connect 121 0 125 0;
#X connect 122 0 124 0;
#X connect 124 0 93 0;
#X connect 124 0 219 1;
#X connect 125 0 96 0;
#X connect 125 0 216 1;
#X connect 126 0 127 0;
#X connect 127 0 128 0;
#X connect 128 0 125 1;
#X connect 128 0 124 1;
#X connect 129 0 165 0;
#X connect 130 0 166 0;
#X connect 131 0 141 0;
#X connect 132 0 131 1;
#X connect 133 0 142 0;
#X connect 134 0 133 1;
#X connect 135 0 64 0;
#X connect 136 0 65 0;
#X connect 137 0 80 0;
#X connect 138 0 81 0;
#X connect 139 0 63 0;
#X connect 139 1 61 0;
#X connect 141 0 78 0;
#X connect 142 0 82 0;
#X connect 143 0 141 1;
#X connect 143 0 142 1;
#X connect 144 0 145 0;
#X connect 145 0 122 1;
#X connect 145 0 121 1;
#X connect 145 0 140 0;
#X connect 148 0 191 0;
#X connect 148 1 190 0;
#X connect 149 0 150 0;
#X connect 150 0 147 0;
#X connect 151 0 167 0;
#X connect 151 1 152 0;
#X connect 152 0 154 0;
#X connect 153 0 154 0;
#X connect 154 0 155 0;
#X connect 156 0 194 0;
#X connect 158 0 61 0;
#X connect 160 0 159 0;
#X connect 161 0 149 0;
#X connect 164 0 162 0;
#X connect 165 1 138 1;
#X connect 166 1 137 1;
#X connect 167 0 61 0;
#X connect 167 0 153 0;
#X connect 168 0 169 0;
#X connect 169 0 170 0;
#X connect 170 0 171 0;
#X connect 172 0 130 0;
#X connect 173 0 129 0;
#X connect 174 0 175 0;
#X connect 175 0 177 0;
#X connect 176 0 175 1;
#X connect 177 0 194 0;
#X connect 178 0 177 1;
#X connect 181 0 61 0;
#X connect 182 0 121 0;
#X connect 183 0 122 0;
#X connect 184 0 224 0;
#X connect 185 0 188 0;
#X connect 188 0 215 0;
#X connect 189 0 215 0;
#X connect 190 0 148 0;
#X connect 191 0 148 0;
#X connect 192 0 31 0;
#X connect 192 1 31 0;
#X connect 192 1 75 0;
#X connect 192 2 31 0;
#X connect 192 3 31 0;
#X connect 192 4 31 0;
#X connect 192 5 31 0;
#X connect 192 6 31 0;
#X connect 192 7 31 0;
#X connect 192 8 31 0;
#X connect 192 9 31 0;
#X connect 192 10 31 0;
#X connect 192 11 31 0;
#X connect 192 12 31 0;
#X connect 192 13 31 0;
#X connect 192 14 31 0;
#X connect 192 15 46 0;
#X connect 192 15 31 0;
#X connect 193 0 41 0;
#X connect 193 1 41 0;
#X connect 193 2 41 0;
#X connect 193 3 41 0;
#X connect 193 4 41 0;
#X connect 193 5 41 0;
#X connect 193 6 41 0;
#X connect 193 7 41 0;
#X connect 193 8 41 0;
#X connect 193 9 41 0;
#X connect 193 10 41 0;
#X connect 193 11 41 0;
#X connect 193 12 41 0;
#X connect 193 13 41 0;
#X connect 193 14 41 0;
#X connect 193 15 47 0;
#X connect 193 15 41 0;
#X connect 194 0 157 0;
#X connect 194 0 195 0;
#X connect 195 0 158 0;
#X connect 198 0 77 1;
#X connect 199 0 77 0;
#X connect 201 0 131 0;
#X connect 201 0 133 0;
#X connect 202 0 137 0;
#X connect 202 1 172 0;
#X connect 202 2 204 0;
#X connect 202 3 206 0;
#X connect 203 0 205 0;
#X connect 204 0 80 0;
#X connect 205 1 204 1;
#X connect 206 0 203 0;
#X connect 207 0 138 0;
#X connect 207 1 173 0;
#X connect 207 2 209 0;
#X connect 207 3 211 0;
#X connect 208 0 210 0;
#X connect 209 0 81 0;
#X connect 210 1 209 1;
#X connect 211 0 208 0;
#X connect 212 0 213 0;
#X connect 214 0 212 0;
#X connect 214 1 212 1;
#X connect 215 0 87 0;
#X connect 215 0 200 0;
#X connect 215 0 200 1;
#X connect 216 0 217 0;
#X connect 217 0 218 0;
#X connect 218 0 180 0;
#X connect 219 0 220 0;
#X connect 220 0 221 0;
#X connect 221 0 179 0;
#X connect 222 0 223 0;
#X connect 223 0 219 0;
#X connect 223 0 216 0;
#X connect 224 0 215 0;
