#N canvas 68 97 1112 669 12;
#X obj 173 318 readsf~;
#X obj 174 201 list prepend open;
#X obj 174 263 t b a;
#X msg 174 289 1;
#X obj 174 232 list trim;
#X obj 225 93 symbol;
#X obj 174 122 gate 4 1;
#X obj 175 615 outlet~;
#X obj 217 17 r loadfile;
#X obj 92 78 r inst;
#X obj 92 102 + 1;
#X obj 439 61 r mode;
#X obj 440 316 switch~;
#X obj 439 241 > 0;
#X obj 467 274 tgl 19 0 empty empty empty 0 -10 0 12 #fcfcfc #000000 #000000 0 1;
#X msg 471 128 3;
#X obj 365 266 sel 0;
#X msg 345 294 0;
#X obj 221 55 spigot;
#X obj 436 176 == 4;
#X msg 320 176 \$1_La.wav;
#X msg 251 175 \$1_M.wav;
#X msg 175 176 \$1_Am.wav;
#X msg 498 96 4;
#X obj 482 175 == 5;
#X obj 437 210 ||;
#X obj 478 198 t b a;
#N canvas 47 74 1230 689 soundLoader_nie 0;
#N canvas 698 241 450 278 (subpatch) 0;
#X array nie 28649 float 2;
#X coords 0 1 28649 -1 200 140 1 0 0;
#X restore 652 452 graph;
#X obj 569 358 soundfiler;
#X floatatom 590 386 16 0 0 0 - - - 0;
#X obj 772 37 r inst;
#X obj 773 95 sel 0 1 2 3;
#X obj 393 504 vline~;
#X msg 476 476 stop;
#X msg 393 476 0 \, \$2 \$3;
#X obj 393 447 pack 0 f f;
#X obj 516 438 expr $f2 / 48;
#X obj 517 413 t b a;
#X obj 390 387 bng 19 250 50 0 empty empty empty 0 -10 0 12 #fcfcfc #000000 #000000;
#X obj 619 31 r spaceVoice;
#X obj 624 128 t b;
#X obj 527 605 / 20;
#X obj 530 559 bng 19 250 50 0 empty empty empty 0 -10 0 12 #fcfcfc #000000 #000000;
#X floatatom 584 646 5 0 0 0 - - - 0;
#X obj 391 412 t b b;
#X obj 394 573 *~ 0.5;
#X obj 527 581 random 10;
#X obj 527 629 + 0.2;
#X obj 351 636 outlet~;
#X obj 393 532 tabread4~ nie;
#X msg 568 328 read -resize nie_La.wav nie;
#X msg 593 303 read -resize nie_M.wav nie;
#X msg 632 276 read -resize nie_Am.wav nie;
#X connect 1 0 2 0;
#X connect 1 0 10 0;
#X connect 1 0 8 1;
#X connect 3 0 4 0;
#X connect 4 0 25 0;
#X connect 4 1 25 0;
#X connect 4 2 24 0;
#X connect 4 3 23 0;
#X connect 5 0 22 0;
#X connect 6 0 5 0;
#X connect 7 0 5 0;
#X connect 8 0 7 0;
#X connect 9 0 8 2;
#X connect 10 0 9 0;
#X connect 10 1 9 1;
#X connect 11 0 17 0;
#X connect 12 0 13 0;
#X connect 13 0 17 0;
#X connect 14 0 20 0;
#X connect 15 0 19 0;
#X connect 17 0 8 0;
#X connect 17 1 19 0;
#X connect 18 0 21 0;
#X connect 19 0 14 0;
#X connect 20 0 16 0;
#X connect 20 0 18 1;
#X connect 22 0 18 0;
#X connect 23 0 1 0;
#X connect 24 0 1 0;
#X connect 25 0 1 0;
#X restore 562 205 pd soundLoader_nie;
#N canvas 14 23 1230 689 soundLoader_short 0;
#N canvas 698 241 450 278 (subpatch) 0;
#X array words1 58831 float 2;
#X coords 0 1 58831 -1 200 140 1 0 0;
#X restore 420 627 graph;
#X obj 154 411 soundfiler;
#X obj 760 46 r inst;
#X obj 96 530 vline~;
#X msg 179 502 stop;
#X msg 96 502 0 \, \$2 \$3;
#X obj 96 473 pack 0 f f;
#X obj 177 460 expr $f2 / 48;
#X obj 178 435 t b a;
#X obj 93 413 bng 19 250 50 0 empty empty empty 0 -10 0 12 #fcfcfc #000000 #000000;
#X obj 94 438 t b b;
#X obj 81 776 outlet~;
#X obj 388 60 inlet;
#X obj 540 52 inlet;
#X obj 92 310 sel 0 1 2 3;
#X msg 92 336 read -resize gym_gelacht_Am.wav words1;
#X msg 92 360 read -resize gym_gelacht_M.wav words1;
#X msg 92 384 read -resize gym_gelacht_La.wav words1;
#X obj 96 558 tabread4~ words1;
#N canvas 698 241 450 278 (subpatch) 0;
#X array words2 58211 float 2;
#X coords 0 1 58211 -1 200 140 1 0 0;
#X restore 628 627 graph;
#N canvas 698 241 450 278 (subpatch) 0;
#X array words3 48120 float 2;
#X coords 0 1 48120 -1 200 140 1 0 0;
#X restore 838 630 graph;
#N canvas 698 241 450 278 (subpatch) 0;
#X array words4 71437 float 2;
#X coords 0 1 71437 -1 200 140 1 0 0;
#X restore 1044 630 graph;
#N canvas 698 241 450 278 (subpatch) 0;
#X array words5 73538 float 2;
#X coords 0 1 73538 -1 200 140 1 0 0;
#X restore 1252 628 graph;
#N canvas 698 241 450 278 (subpatch) 0;
#X array words6 61498 float 2;
#X coords 0 1 61498 -1 200 140 1 0 0;
#X restore 1459 631 graph;
#X obj 471 405 soundfiler;
#X obj 413 524 vline~;
#X msg 496 496 stop;
#X msg 413 496 0 \, \$2 \$3;
#X obj 413 467 pack 0 f f;
#X obj 494 454 expr $f2 / 48;
#X obj 495 429 t b a;
#X obj 410 407 bng 19 250 50 0 empty empty empty 0 -10 0 12 #fcfcfc #000000 #000000;
#X obj 411 432 t b b;
#X obj 409 304 sel 0 1 2 3;
#X obj 413 552 tabread4~ words2;
#X obj 766 395 soundfiler;
#X obj 708 514 vline~;
#X msg 791 486 stop;
#X msg 708 486 0 \, \$2 \$3;
#X obj 708 457 pack 0 f f;
#X obj 789 444 expr $f2 / 48;
#X obj 790 419 t b a;
#X obj 705 397 bng 19 250 50 0 empty empty empty 0 -10 0 12 #fcfcfc #000000 #000000;
#X obj 706 422 t b b;
#X obj 704 294 sel 0 1 2 3;
#X obj 708 542 tabread4~ words3;
#X obj 1071 390 soundfiler;
#X obj 1013 509 vline~;
#X msg 1096 481 stop;
#X msg 1013 481 0 \, \$2 \$3;
#X obj 1013 452 pack 0 f f;
#X obj 1094 439 expr $f2 / 48;
#X obj 1095 414 t b a;
#X obj 1010 392 bng 19 250 50 0 empty empty empty 0 -10 0 12 #fcfcfc #000000 #000000;
#X obj 1011 417 t b b;
#X obj 1009 289 sel 0 1 2 3;
#X obj 1013 537 tabread4~ words4;
#X obj 1369 388 soundfiler;
#X obj 1311 507 vline~;
#X msg 1394 479 stop;
#X msg 1311 479 0 \, \$2 \$3;
#X obj 1311 450 pack 0 f f;
#X obj 1392 437 expr $f2 / 48;
#X obj 1393 412 t b a;
#X obj 1308 390 bng 19 250 50 0 empty empty empty 0 -10 0 12 #fcfcfc #000000 #000000;
#X obj 1309 415 t b b;
#X obj 1307 287 sel 0 1 2 3;
#X obj 1311 535 tabread4~ words5;
#X obj 1658 382 soundfiler;
#X obj 1600 501 vline~;
#X msg 1683 473 stop;
#X msg 1600 473 0 \, \$2 \$3;
#X obj 1600 444 pack 0 f f;
#X obj 1681 431 expr $f2 / 48;
#X obj 1682 406 t b a;
#X obj 1597 384 bng 19 250 50 0 empty empty empty 0 -10 0 12 #fcfcfc #000000 #000000;
#X obj 1598 409 t b b;
#X obj 1596 281 sel 0 1 2 3;
#X obj 1600 529 tabread4~ words6;
#X msg 704 320 read -resize physik_nurdeco_Am.wav words3;
#X msg 704 344 read -resize physik_nurdeco_M.wav words3;
#X msg 704 368 read -resize physik_nurdeco_La.wav words3;
#X msg 1009 315 read -resize putzengeht_Am.wav words4, f 39;
#X msg 1009 339 read -resize putzengeht_M.wav words4;
#X msg 1009 363 read -resize putzengeht_La.wav words4;
#X msg 1307 313 read -resize schaffner_weissesjanicht_Am.wav words5;
#X msg 1307 337 read -resize schaffner_weissesjanicht_M.wav words5;
#X msg 1310 361 read -resize schaffner_weissesjanicht_La.wav words5;
#X msg 1596 307 read -resize Schul_bisaufdich_Am.wav words6;
#X msg 1596 331 read -resize Schul_bisaufdich_M.wav words6;
#X msg 1599 355 read -resize Schul_bisaufdich_La.wav words6;
#X obj 724 76 t a a a a a a;
#X obj 385 154 sel 0 1 2 3 4 5;
#X msg 690 42 0;
#X msg 643 49 3;
#X msg 409 330 read -resize music_luft_Am.wav words2, f 39;
#X msg 409 354 read -resize music_luft_M.wav words2;
#X msg 409 378 read -resize music_luft_La.wav words2;
#X obj 90 731 *~;
#X obj 275 733 line~;
#X msg 282 710 \$1 40;
#X connect 1 0 8 0;
#X connect 1 0 6 1;
#X connect 2 0 91 0;
#X connect 3 0 18 0;
#X connect 4 0 3 0;
#X connect 5 0 3 0;
#X connect 6 0 5 0;
#X connect 7 0 6 2;
#X connect 8 0 7 0;
#X connect 8 1 7 1;
#X connect 9 0 10 0;
#X connect 10 0 6 0;
#X connect 12 0 92 0;
#X connect 13 0 100 0;
#X connect 14 0 15 0;
#X connect 14 1 15 0;
#X connect 14 2 16 0;
#X connect 14 3 17 0;
#X connect 15 0 1 0;
#X connect 16 0 1 0;
#X connect 17 0 1 0;
#X connect 18 0 98 0;
#X connect 24 0 30 0;
#X connect 24 0 28 1;
#X connect 25 0 34 0;
#X connect 26 0 25 0;
#X connect 27 0 25 0;
#X connect 28 0 27 0;
#X connect 29 0 28 2;
#X connect 30 0 29 0;
#X connect 30 1 29 1;
#X connect 31 0 32 0;
#X connect 32 0 28 0;
#X connect 33 0 95 0;
#X connect 33 1 95 0;
#X connect 33 2 96 0;
#X connect 33 3 97 0;
#X connect 34 0 98 0;
#X connect 35 0 41 0;
#X connect 35 0 39 1;
#X connect 36 0 45 0;
#X connect 37 0 36 0;
#X connect 38 0 36 0;
#X connect 39 0 38 0;
#X connect 40 0 39 2;
#X connect 41 0 40 0;
#X connect 41 1 40 1;
#X connect 42 0 43 0;
#X connect 43 0 39 0;
#X connect 44 0 79 0;
#X connect 44 1 79 0;
#X connect 44 2 80 0;
#X connect 44 3 81 0;
#X connect 45 0 98 0;
#X connect 46 0 52 0;
#X connect 46 0 50 1;
#X connect 47 0 56 0;
#X connect 48 0 47 0;
#X connect 49 0 47 0;
#X connect 50 0 49 0;
#X connect 51 0 50 2;
#X connect 52 0 51 0;
#X connect 52 1 51 1;
#X connect 53 0 54 0;
#X connect 54 0 50 0;
#X connect 55 0 82 0;
#X connect 55 1 82 0;
#X connect 55 2 83 0;
#X connect 55 3 84 0;
#X connect 56 0 98 0;
#X connect 57 0 63 0;
#X connect 57 0 61 1;
#X connect 58 0 67 0;
#X connect 59 0 58 0;
#X connect 60 0 58 0;
#X connect 61 0 60 0;
#X connect 62 0 61 2;
#X connect 63 0 62 0;
#X connect 63 1 62 1;
#X connect 64 0 65 0;
#X connect 65 0 61 0;
#X connect 66 0 85 0;
#X connect 66 1 85 0;
#X connect 66 2 86 0;
#X connect 66 3 87 0;
#X connect 67 0 98 0;
#X connect 68 0 74 0;
#X connect 68 0 72 1;
#X connect 69 0 78 0;
#X connect 70 0 69 0;
#X connect 71 0 69 0;
#X connect 72 0 71 0;
#X connect 73 0 72 2;
#X connect 74 0 73 0;
#X connect 74 1 73 1;
#X connect 75 0 76 0;
#X connect 76 0 72 0;
#X connect 77 0 88 0;
#X connect 77 1 88 0;
#X connect 77 2 89 0;
#X connect 77 3 90 0;
#X connect 78 0 98 0;
#X connect 79 0 35 0;
#X connect 80 0 35 0;
#X connect 81 0 35 0;
#X connect 82 0 46 0;
#X connect 83 0 46 0;
#X connect 84 0 46 0;
#X connect 85 0 57 0;
#X connect 86 0 57 0;
#X connect 87 0 57 0;
#X connect 88 0 68 0;
#X connect 89 0 68 0;
#X connect 90 0 68 0;
#X connect 91 0 14 0;
#X connect 91 1 33 0;
#X connect 91 2 44 0;
#X connect 91 3 55 0;
#X connect 91 4 66 0;
#X connect 91 5 77 0;
#X connect 92 0 10 0;
#X connect 92 1 32 0;
#X connect 92 2 43 0;
#X connect 92 3 54 0;
#X connect 92 4 65 0;
#X connect 92 5 76 0;
#X connect 93 0 91 0;
#X connect 94 0 91 0;
#X connect 95 0 24 0;
#X connect 96 0 24 0;
#X connect 97 0 24 0;
#X connect 98 0 11 0;
#X connect 99 0 98 1;
#X connect 100 0 99 0;
#X restore 690 261 pd soundLoader_short;
#X obj 751 189 unpack 0 0;
#X obj 670 142 pack 0 1;
#X obj 674 99 hradio 19 1 0 8 empty empty empty 0 -10 0 12 #fcfcfc #000000 #000000 0;
#X obj 758 137 r wisper;
#X obj 172 366 *~ 1;
#X connect 0 0 33 0;
#X connect 1 0 4 0;
#X connect 2 0 3 0;
#X connect 2 1 0 0;
#X connect 3 0 0 0;
#X connect 4 0 2 0;
#X connect 5 0 6 1;
#X connect 6 0 22 0;
#X connect 6 1 22 0;
#X connect 6 2 21 0;
#X connect 6 3 20 0;
#X connect 8 0 18 0;
#X connect 9 0 10 0;
#X connect 10 0 6 0;
#X connect 11 0 19 0;
#X connect 11 0 24 0;
#X connect 13 0 12 0;
#X connect 13 0 14 0;
#X connect 13 0 16 0;
#X connect 13 0 18 1;
#X connect 15 0 19 0;
#X connect 16 0 17 0;
#X connect 18 0 5 0;
#X connect 19 0 25 0;
#X connect 20 0 1 0;
#X connect 21 0 1 0;
#X connect 22 0 1 0;
#X connect 23 0 19 0;
#X connect 24 0 26 0;
#X connect 25 0 13 0;
#X connect 26 0 25 0;
#X connect 26 1 25 1;
#X connect 27 0 7 0;
#X connect 28 0 7 0;
#X connect 29 0 28 0;
#X connect 29 1 28 1;
#X connect 30 0 29 0;
#X connect 31 0 30 0;
#X connect 32 0 29 0;
#X connect 33 0 7 0;
