#N canvas 0 23 1280 755 12;
#X obj 72 684 inlet;
#X obj 119 685 tgl 19 0 empty empty empty 0 -10 0 12 #fcfcfc #000000 #000000 0 1;
#X obj 516 688 inlet;
#X text 512 663 instrument num;
#X obj 648 887 switch~;
#X text 511 709 ignore;
#X text 67 659 play/stop;
#X text 226 659 sensor1;
#X text 367 662 sensor2;
#X text 650 663 mode;
#X obj 72 715 sel 0 1;
#N canvas 51 97 1181 681 counter 0;
#X obj 159 129 t b b b;
#X floatatom 242 182 5 0 0 0 - - - 0;
#X obj 188 200 /;
#X floatatom 242 219 5 0 0 0 - - - 0;
#X obj 188 229 i;
#X floatatom 242 248 5 0 0 0 - - - 0;
#X obj 242 153 inlet;
#X obj 158 100 inlet;
#X msg 119 230 0;
#X obj 159 276 metro;
#X msg 188 171 60000;
#X msg 208 276 0;
#X obj 159 305 i;
#X obj 194 305 + 1;
#X floatatom 161 333 5 0 0 0 - - - 0;
#X text 54 22 Due to the absence of a Vanilla counter here is one from cheetomoskeeto;
#X text 346 110 BPM;
#X text 239 134 Recalculate;
#X text 156 76 Start clock;
#X obj 48 194 inlet;
#X text 47 171 Stop;
#X obj 349 135 inlet;
#X obj 274 98 bng 19 250 50 0 empty empty empty 0 -10 0 12 #fcfcfc #000000 #000000;
#X obj 89 85 bng 19 250 50 0 empty empty empty 0 -10 0 12 #fcfcfc #000000 #000000;
#X obj 303 80 inlet;
#X text 302 58 Reset;
#X obj 159 419 outlet;
#X obj 398 134 loadbang;
#X text 396 109 Default BPM;
#X obj 159 362 % 12;
#X obj 274 320 r reset_counter;
#X floatatom 185 386 5 0 0 0 - - - 0;
#X msg 440 164 360;
#X msg 398 163 360;
#X connect 0 0 9 0;
#X connect 0 1 10 0;
#X connect 0 2 1 0;
#X connect 1 0 2 1;
#X connect 2 0 3 0;
#X connect 2 0 4 0;
#X connect 4 0 5 0;
#X connect 4 0 9 1;
#X connect 6 0 1 0;
#X connect 7 0 0 0;
#X connect 8 0 9 0;
#X connect 9 0 12 0;
#X connect 10 0 2 0;
#X connect 11 0 12 1;
#X connect 11 0 14 0;
#X connect 12 0 13 0;
#X connect 12 0 14 0;
#X connect 13 0 12 1;
#X connect 14 0 29 0;
#X connect 19 0 8 0;
#X connect 21 0 1 0;
#X connect 22 0 1 0;
#X connect 22 0 0 0;
#X connect 23 0 0 0;
#X connect 24 0 11 0;
#X connect 27 0 33 0;
#X connect 29 0 26 0;
#X connect 29 0 31 0;
#X connect 30 0 11 0;
#X connect 33 0 1 0;
#X restore 1395 326 pd counter;
#X f 17;
#X obj 1344 295 bng 19 250 50 0 empty empty empty 0 -10 0 12 #fcfcfc #000000 #000000;
#X text 1346 275 Start;
#X msg 1464 36 60;
#X text 1387 38 BPM input;
#X obj 1405 297 bng 19 250 50 0 empty empty empty 0 -10 0 12 #fcfcfc #000000 #000000;
#X text 1404 276 Recalculate BPM;
#X msg 1464 94 120;
#X obj 1299 295 bng 19 250 50 0 empty empty empty 0 -10 0 12 #fcfcfc #000000 #000000;
#X text 1288 274 Stop, f 5;
#X obj 1531 294 bng 19 250 50 0 empty empty empty 0 -10 0 12 #fcfcfc #000000 #000000;
#X text 1527 274 Reset;
#X msg 1464 123 240;
#X msg 1464 65 90;
#X obj 1308 326 s stop;
#X obj 1264 139 r bpm;
#X obj 1264 168 t b b b;
#X text 19 10 Drumline;
#X obj 1359 377 hsl 162 19 0 12 0 0 empty empty empty -2 -10 0 12 #fcfcfc #000000 #000000 0 1;
#X obj 1410 430 s bar;
#X obj 36 72 r bar;
#X floatatom 73 161 5 0 0 0 - - - 0;
#X obj 238 167 bng 19 250 50 0 empty empty empty 0 -10 0 12 #fcfcfc #000000 #000000;
#X obj 237 138 spigot;
#X obj 477 72 r bar;
#X text 68 50 Kick;
#X obj 1011 394 r kick;
#N canvas 103 332 450 446 kick 0;
#X obj 134 212 vline~;
#X obj 172 328 *~;
#X obj 172 307 cos~;
#X obj 172 286 *~;
#X obj 172 264 *~;
#X obj 172 242 *~;
#X msg 134 190 1 0 0 \, 0 \$1 0;
#X obj 172 350 outlet~;
#X obj 228 397 switch~;
#X obj 228 349 env~;
#X obj 228 373 > 0.1;
#X msg 134 147 1;
#X obj 134 125 inlet;
#X obj 192 29 inlet;
#X obj 251 102 loadbang;
#X msg 194 127 2.4;
#X msg 135 169 70;
#X connect 0 0 1 1;
#X connect 0 0 5 0;
#X connect 0 0 3 1;
#X connect 1 0 7 0;
#X connect 1 0 9 0;
#X connect 2 0 1 0;
#X connect 3 0 2 0;
#X connect 4 0 3 0;
#X connect 5 0 4 1;
#X connect 5 0 4 0;
#X connect 6 0 0 0;
#X connect 9 0 10 0;
#X connect 10 0 8 0;
#X connect 11 0 8 0;
#X connect 11 0 16 0;
#X connect 12 0 11 0;
#X connect 13 0 15 0;
#X connect 14 0 15 0;
#X connect 15 0 5 1;
#X connect 16 0 6 0;
#X restore 1062 479 pd kick;
#X obj 238 191 s kick;
#X text 473 51 Snare;
#N canvas 237 74 450 704 snare 0;
#X obj 193 234 vline~;
#X obj 175 460 *~;
#X obj 211 296 cos~;
#X obj 161 169 t f f;
#X obj 211 276 *~;
#X obj 175 482 outlet~;
#X obj 231 529 switch~;
#X obj 231 481 env~;
#X obj 231 505 > 0.1;
#X msg 229 425 1;
#X obj 183 87 t b b b;
#X obj 183 41 inlet;
#X obj 193 392 *~;
#X obj 175 439 cos~;
#X obj 193 345 +~;
#X obj 175 365 *~;
#X obj 193 414 *~;
#X obj 193 322 sig~ 5;
#X obj 229 192 /;
#X obj 183 115 del 5;
#X msg 183 63 1;
#X msg 183 140 90;
#X msg 229 140 70;
#X msg 285 140 6;
#X msg 193 212 1 0 0 \, 0 \$1 3;
#X obj 257 91 loadbang;
#X obj 146 504 s~ \$0-snfb;
#X obj 175 254 r~ \$0-snfb;
#X connect 0 0 4 0;
#X connect 0 0 12 0;
#X connect 0 0 12 1;
#X connect 1 0 5 0;
#X connect 1 0 7 0;
#X connect 1 0 26 0;
#X connect 2 0 14 1;
#X connect 3 0 18 0;
#X connect 3 1 24 0;
#X connect 4 0 2 0;
#X connect 7 0 8 0;
#X connect 8 0 6 0;
#X connect 9 0 6 0;
#X connect 10 0 19 0;
#X connect 10 1 23 0;
#X connect 10 2 9 0;
#X connect 11 0 20 0;
#X connect 12 0 16 0;
#X connect 12 0 16 1;
#X connect 13 0 1 0;
#X connect 14 0 15 1;
#X connect 15 0 13 0;
#X connect 16 0 1 1;
#X connect 17 0 14 0;
#X connect 18 0 4 1;
#X connect 19 0 21 0;
#X connect 19 0 22 0;
#X connect 20 0 10 0;
#X connect 21 0 3 0;
#X connect 22 0 3 0;
#X connect 23 0 18 1;
#X connect 24 0 0 0;
#X connect 25 0 20 0;
#X connect 27 0 15 0;
#X restore 877 488 pd snare;
#X obj 881 393 r snare;
#X text 19 274 Sequences;
#X floatatom 472 162 5 0 0 0 - - - 0;
#X obj 644 167 bng 19 250 50 0 empty empty empty 0 -10 0 12 #fcfcfc #000000 #000000;
#X obj 643 139 spigot;
#X obj 472 138 tabread snareSequence;
#X obj 641 201 s snare;
#X obj 73 137 tabread kickSequence;
#X text 110 11 The last position sends the message back to the subcscription server;
#X obj 311 166 s kickmsg;
#X obj 713 167 s snaremsg;
#X msg 1465 152 360;
#X text 1140 959 The missing components are: Identifying *just* the performer's instruments Receiving the pattern the zmq controller and applying it to the correct sequence;
#X msg 1510 143 \$1 1000;
#X floatatom 1542 172 5 0 0 0 - - - 0;
#X floatatom 1577 200 5 0 0 0 - - - 0;
#X obj 1510 229 line 0 100;
#X msg 1465 181 420;
#X msg 1526 326 0;
#X obj 105 744 s \$0-start;
#X obj 21 744 s \$0-stop;
#X obj 1189 217 r \$0-stop;
#X obj 1362 161 r \$0-start;
#X obj 796 693 inlet;
#X obj 795 751 s resetDrum;
#X obj 796 722 t b;
#X obj 721 810 bng 19 250 50 0 empty empty empty 0 -10 0 12 #fcfcfc #000000 #000000;
#X obj 240 800 s mode3sensor1;
#X obj 378 799 s mode3sensor2;
#X obj 1306 555 r mode3sensor1;
#X obj 1198 556 r mode3sensor2;
#X obj 72 108 select 0 1 2 3 4 5 6 7 8 9 10 11;
#X text 56 788 Receive network sequences;
#X obj 477 109 select 0 1 2 3 4 5 6 7 8 9 10 11;
#X text 1070 431 Output audio;
#X text 792 667 reset drums;
#X obj 61 817 r seq;
#X obj 61 987 array set kickSequence;
#X floatatom 136 959 5 0 0 0 - - - 0;
#X floatatom 185 902 5 0 0 0 - - - 0;
#X obj 106 930 array set snareSequence;
#X floatatom 226 901 5 0 0 0 - - - 0;
#X obj 40 207 s LEDreset;
#X text 25 630 ==== Network Messages ==== DO NOT MOVE THEM \, THE INLETS ARE VERY IMPORTANT, f 76;
#N canvas 100 23 994 755 handleLED 0;
#X obj 26 10 r bar;
#X text 320 283 Quickly reset the light values to low state;
#X msg 372 700 0 0 0 0 0 0 0 0 0 0 0 0;
#X obj 145 721 s LEDstrip1;
#X obj 651 690 s LEDstrip2;
#X obj 153 684 LED_color;
#X obj 652 657 LED_color;
#X msg 749 673 0.7 0 1;
#X obj 750 626 loadbang;
#X obj 372 671 r \$0-stop;
#X obj 553 712 s LEDreset;
#X obj 552 686 del 100;
#X obj 502 13 inlet sensor1;
#X obj 653 6 inlet sensor2;
#X obj 501 54 sel 1;
#X obj 653 34 sel 1;
#X obj 464 62 tgl 19 0 empty empty empty 0 -10 0 12 #fcfcfc #000000 #000000 0 1;
#X obj 718 38 tgl 19 0 empty empty empty 0 -10 0 12 #fcfcfc #000000 #000000 0 1;
#X msg 208 571 1 1 1 1 1 1 1 1 1 1 1 1;
#X msg 626 579 1 1 1 1 1 1 1 1 1 1 1 1;
#X obj 643 70 t b b;
#X obj 488 87 t b b;
#N canvas 167 23 864 672 colorPicker 0;
#X obj 122 32 inlet;
#X obj 121 462 outlet;
#X msg 428 213 0 0.5 1;
#X msg 534 248 0.5 0 1;
#X msg 632 268 0.7 0.7 1;
#X obj 433 121 sel 0 1 2 3 4 5 6 7;
#X obj 264 531 t a;
#X msg 715 340 0 0.7 1;
#X msg 492 385 0 0 1;
#X msg 687 525 0.7 1 1;
#X msg 360 182 1 0 1;
#X msg 557 463 0 1 0.5;
#X obj 401 62 random 7;
#X connect 0 0 12 0;
#X connect 2 0 6 0;
#X connect 3 0 6 0;
#X connect 4 0 6 0;
#X connect 5 0 10 0;
#X connect 5 1 2 0;
#X connect 5 2 3 0;
#X connect 5 3 4 0;
#X connect 5 4 7 0;
#X connect 5 5 8 0;
#X connect 5 6 11 0;
#X connect 5 7 9 0;
#X connect 6 0 1 0;
#X connect 7 0 6 0;
#X connect 8 0 6 0;
#X connect 9 0 6 0;
#X connect 10 0 6 0;
#X connect 11 0 6 0;
#X connect 12 0 5 0;
#X restore 492 138 pd colorPicker;
#N canvas 307 23 864 672 colorPicker 0;
#X msg 226 142 seed \$1;
#X floatatom 184 249 5 0 0 0 - - - 0;
#X obj 81 8 inlet;
#X obj 108 108 t b b b;
#X obj 140 585 outlet;
#X obj 238 114 r my_id;
#X obj 231 39 bng 19 250 50 0 empty empty empty 0 -10 0 12 #fcfcfc #000000 #000000;
#X msg 367 19 1;
#X obj 369 45 + 1;
#X obj 369 93 + 1;
#X floatatom 272 252 5 0 0 0 - - - 0;
#X obj 270 196 random 20;
#X obj 272 226 / 20;
#X floatatom 85 252 5 0 0 0 - - - 0;
#X obj 182 193 random 30;
#X obj 184 223 / 30;
#X obj 125 397 pack 0 0 0;
#X obj 105 312 * 0.5;
#X obj 83 196 random 100;
#X obj 85 226 / 100;
#X msg 428 213 0 0.5 1;
#X msg 534 248 0.5 0 1;
#X msg 632 268 0.7 0.7 1;
#X obj 433 121 sel 0 1 2 3 4 5 6 7;
#X obj 264 531 t a;
#X msg 715 340 0 0.7 1;
#X msg 492 385 0 0 1;
#X msg 687 525 0.7 1 1;
#X obj 369 69 % 8;
#X msg 360 182 1 0 1;
#X msg 557 463 0 1 0.5;
#X connect 2 0 3 0;
#X connect 3 0 18 0;
#X connect 3 1 14 0;
#X connect 3 2 11 0;
#X connect 3 2 7 0;
#X connect 5 0 0 0;
#X connect 6 0 3 0;
#X connect 7 0 8 0;
#X connect 8 0 28 0;
#X connect 9 0 23 0;
#X connect 11 0 12 0;
#X connect 12 0 10 0;
#X connect 12 0 16 2;
#X connect 14 0 15 0;
#X connect 15 0 1 0;
#X connect 15 0 16 1;
#X connect 17 0 16 0;
#X connect 18 0 19 0;
#X connect 19 0 13 0;
#X connect 19 0 17 0;
#X connect 20 0 24 0;
#X connect 21 0 24 0;
#X connect 22 0 24 0;
#X connect 23 0 29 0;
#X connect 23 1 20 0;
#X connect 23 2 21 0;
#X connect 23 3 22 0;
#X connect 23 4 25 0;
#X connect 23 5 26 0;
#X connect 23 6 30 0;
#X connect 23 7 27 0;
#X connect 24 0 4 0;
#X connect 25 0 24 0;
#X connect 26 0 24 0;
#X connect 27 0 24 0;
#X connect 28 0 9 0;
#X connect 28 0 8 1;
#X connect 29 0 24 0;
#X connect 30 0 24 0;
#X restore 699 170 pd colorPicker;
#X obj 438 541 r mode;
#X obj 440 573 sel 5;
#X msg 266 655 1 1 1;
#X obj 120 168 loop_led;
#X connect 0 0 27 0;
#X connect 2 0 5 0;
#X connect 2 0 6 0;
#X connect 5 0 3 0;
#X connect 6 0 4 0;
#X connect 7 0 6 1;
#X connect 8 0 7 0;
#X connect 8 0 26 0;
#X connect 9 0 2 0;
#X connect 9 0 11 0;
#X connect 11 0 10 0;
#X connect 12 0 14 0;
#X connect 13 0 15 0;
#X connect 14 0 21 0;
#X connect 15 0 20 0;
#X connect 16 0 14 0;
#X connect 17 0 15 0;
#X connect 18 0 5 0;
#X connect 19 0 6 0;
#X connect 20 0 19 0;
#X connect 20 1 23 0;
#X connect 21 0 18 0;
#X connect 21 1 22 0;
#X connect 22 0 5 1;
#X connect 23 0 6 1;
#X connect 24 0 25 0;
#X connect 25 0 26 0;
#X connect 25 0 7 0;
#X connect 26 0 5 1;
#X connect 27 0 5 0;
#X connect 27 0 6 0;
#X restore 1372 862 pd handleLED;
#X text 1369 734 The LED chase;
#X obj 36 465 array get kickSequence;
#X obj 37 492 list prepend kick;
#X obj 50 572 list trim;
#X obj 259 562 list trim;
#X obj 248 460 array get snareSequence;
#X obj 249 486 list prepend snare;
#X obj 50 601 s seq_message \$1;
#X obj 259 591 s seq_message \$1;
#X obj 1532 352 s reset_counter;
#X obj 910 587 outlet~;
#X obj 940 694 inlet;
#X text 936 668 jam mode;
#X obj 966 721 tgl 19 0 empty empty empty 0 -10 0 12 #fcfcfc #000000 #000000 0 1;
#X obj 939 743 t a;
#X obj 938 768 s \$0-jamstate;
#X obj 1529 384 r \$0-jamstate;
#X obj 1529 408 - 1;
#X obj 1529 432 abs;
#N canvas 399 174 867 604 inputKick 0;
#X obj 105 119 tabwrite kickSequence;
#X obj 267 119 r bar;
#X obj 49 121 s kick;
#X obj 105 90 spigot;
#X obj 105 65 t a a;
#X obj 48 92 sel 1;
#X obj 53 17 inlet;
#X connect 1 0 0 1;
#X connect 3 0 0 0;
#X connect 3 0 5 0;
#X connect 4 0 3 0;
#X connect 4 1 3 1;
#X connect 5 0 2 0;
#X connect 6 0 4 0;
#X restore 1195 673 pd inputKick;
#N canvas 11 294 500 484 Sequencer_Kick 0;
#X obj 12 44 r resetKicks;
#X msg 12 73 \; kickSequence const 0;
#X floatatom 87 156 5 0 0 0 - - - 0;
#X obj 12 155 bng 19 250 50 0 empty empty empty 0 -10 0 12 #fcfcfc #000000 #000000;
#X obj 12 184 array get kickSequence;
#X obj 12 126 r kickmsg;
#X obj 12 213 print kickSequence \$1;
#X obj 245 74 bng 19 250 50 0 empty empty empty 0 -10 0 12 #fcfcfc #000000 #000000;
#X obj 205 103 bng 19 250 50 0 empty empty empty 0 -10 0 12 #fcfcfc #000000 #000000;
#X obj 248 192 sel 0;
#N canvas 912 88 593 637 compareArray 0;
#X obj 339 183 inlet;
#X obj 256 128 inlet;
#X obj 262 299 outlet;
#X obj 260 241 list-compare;
#X obj 261 270 tgl 19 0 empty empty empty 0 -10 0 12 #fcfcfc #000000 #000000 0 1;
#X connect 0 0 3 1;
#X connect 1 0 3 0;
#X connect 3 0 4 0;
#X connect 4 0 2 0;
#X restore 248 163 pd compareArray;
#X obj 245 105 array get kickSequence;
#X obj 205 134 array get kickSequence-prev;
#X floatatom 319 77 5 0 0 0 - - - 0;
#X obj 244 45 t b b;
#X obj 313 196 print dont send kick;
#X msg 208 311 copy kickSequence;
#X obj 208 340 arraycopy kickSequence-prev;
#X msg 10 270 \; kickSequence-prev const 0;
#X obj 10 241 loadbang;
#X obj 209 222 t b b;
#X obj 110 44 r resetDrum;
#X obj 248 5 r kickmsg;
#N canvas 0 433 500 229 kickSequences 0;
#N canvas 614 639 450 278 (subpatch) 0;
#X array kickSequence 12 float 2;
#X coords 0 2 12 -1 200 140 1 0 0;
#X restore 16 28 graph;
#N canvas 0 22 450 278 (subpatch) 0;
#X array kickSequence-prev 12 float 3;
#A 0 0 0 0 0 0 0 0 0 0 0 0 0;
#X coords 0 2 12 -1 200 140 1 0 0;
#X restore 244 29 graph;
#X restore 12 15 pd kickSequences;
#X obj 241 271 s sendKickSequence;
#X obj 211 184 bng 19 250 50 0 empty empty empty 0 -10 0 12 #fcfcfc #000000 #000000;
#X obj 241 247 spigot;
#X obj 281 221 r ImAki;
#X connect 0 0 1 0;
#X connect 2 0 4 1;
#X connect 3 0 4 0;
#X connect 5 0 3 0;
#X connect 7 0 11 0;
#X connect 8 0 12 0;
#X connect 9 0 20 0;
#X connect 10 0 9 0;
#X connect 11 0 10 0;
#X connect 12 0 10 1;
#X connect 13 0 11 1;
#X connect 13 0 12 1;
#X connect 14 0 11 0;
#X connect 14 1 12 0;
#X connect 16 0 17 0;
#X connect 19 0 18 0;
#X connect 20 0 16 0;
#X connect 20 1 26 0;
#X connect 21 0 1 0;
#X connect 25 0 20 0;
#X connect 26 0 24 0;
#X connect 27 0 26 1;
#X restore 25 305 pd Sequencer_Kick;
#N canvas 60 390 712 380 Sequencer_Snare 0;
#X obj 14 -78 r resetSnares;
#X msg 14 -49 \; snareSequence const 0;
#X floatatom 93 34 5 0 0 0 - - - 0;
#X obj 14 33 bng 19 250 50 0 empty empty empty 0 -10 0 12 #fcfcfc #000000 #000000;
#X obj 14 62 array get snareSequence;
#X obj 14 91 print snareSequence \$1;
#X obj 14 4 r snaremsg;
#X obj 249 -19 array get snareSequence;
#X obj 249 -50 bng 19 250 50 0 empty empty empty 0 -10 0 12 #fcfcfc #000000 #000000;
#X obj 209 -21 bng 19 250 50 0 empty empty empty 0 -10 0 12 #fcfcfc #000000 #000000;
#X obj 252 68 sel 0;
#N canvas 687 88 593 637 compareArray 0;
#X obj 339 183 inlet;
#X obj 256 128 inlet;
#X obj 262 299 outlet;
#X obj 260 241 list-compare;
#X obj 261 270 tgl 19 0 empty empty empty 0 -10 0 12 #fcfcfc #000000 #000000 0 1;
#X connect 0 0 3 1;
#X connect 1 0 3 0;
#X connect 3 0 4 0;
#X connect 4 0 2 0;
#X restore 252 39 pd compareArray;
#X obj 262 98 print dont send snare;
#X obj 209 10 array get snareSequence-prev;
#X floatatom 328 -47 5 0 0 0 - - - 0;
#X obj 248 -79 t b b;
#X obj 232 248 arraycopy snareSequence-prev;
#X msg 232 219 copy snareSequence;
#X msg 14 149 \; snareSequence-prev const 0;
#X obj 14 120 loadbang;
#X obj 248 -108 r snaremsg;
#X obj 213 99 t b b;
#X obj 119 -78 r resetDrum;
#N canvas 188 82 276 375 snareSequences 0;
#N canvas 14 764 450 278 (subpatch) 0;
#X array snareSequence 12 float 2;
#X coords 0 2 12 -1 200 140 1 0 0;
#X restore 17 25 graph;
#N canvas 404 465 450 278 (subpatch) 0;
#X array snareSequence-prev 12 float 3;
#A 0 0 0 0 0 0 0 0 0 0 0 0 0;
#X coords 0 2 12 -1 200 140 1 0 0;
#X restore 16 192 graph;
#X restore 14 -107 pd snareSequences;
#X obj 245 189 s sendSnareSequence;
#X obj 355 62 tgl 19 0 empty empty empty 0 -10 0 12 #fcfcfc #000000 #000000 0 1;
#X obj 245 150 spigot;
#X obj 285 124 r ImAki;
#X connect 0 0 1 0;
#X connect 2 0 4 1;
#X connect 3 0 4 0;
#X connect 6 0 3 0;
#X connect 7 0 11 0;
#X connect 8 0 7 0;
#X connect 9 0 13 0;
#X connect 10 0 21 0;
#X connect 11 0 10 0;
#X connect 11 0 25 0;
#X connect 13 0 11 1;
#X connect 14 0 7 1;
#X connect 14 0 13 1;
#X connect 15 0 7 0;
#X connect 15 1 13 0;
#X connect 17 0 16 0;
#X connect 19 0 18 0;
#X connect 21 0 17 0;
#X connect 21 1 26 0;
#X connect 22 0 1 0;
#X connect 26 0 24 0;
#X connect 27 0 26 1;
#X restore 168 307 pd Sequencer_Snare;
#N canvas 259 98 906 521 inputSnare 0;
#X obj 278 138 r bar;
#X obj 111 138 tabwrite snareSequence;
#X obj 110 107 spigot;
#X obj 110 78 t a a;
#X obj 45 136 s snare;
#X obj 48 111 sel 1;
#X obj 122 45 inlet;
#X connect 0 0 1 1;
#X connect 2 0 1 0;
#X connect 2 0 5 0;
#X connect 3 0 2 0;
#X connect 3 1 2 1;
#X connect 5 0 4 0;
#X connect 6 0 3 0;
#X restore 1304 672 pd inputSnare;
#X obj 61 846 route kick snare hat H_kick;
#X obj 917 543 *~ 0.4;
#X obj 228 684 r sensor1;
#X obj 370 682 r sensor2;
#X obj 241 764 spigot;
#X obj 383 763 spigot;
#X obj 650 686 r mode;
#X obj 648 858 > 0;
#X obj 350 881 print unknown seq command;
#X text 668 979 mode enable;
#X obj 648 1077 &;
#X msg 667 1022 1;
#X obj 668 997 loadbang;
#X obj 665 1050 << 2;
#X obj 650 955 r mode;
#X obj 648 1107 > 0;
#X obj 679 857 tgl 19 0 empty empty empty 0 -10 0 12 #fcfcfc #000000 #000000 0 1;
#X obj 649 724 t a;
#X obj 652 819 ||;
#X obj 653 792 t b a;
#X obj 623 765 == 5;
#X obj 664 764 == 6;
#X msg 706 686 4;
#X msg 706 709 5;
#X msg 705 735 6;
#X obj 1305 590 spigot;
#X obj 1197 586 spigot;
#X text 1167 475 if you are aki \, you input looper;
#X obj 1196 630 spigot 1;
#X obj 1304 631 spigot 1;
#X obj 1373 586 r \$0-jamstate;
#X obj 1374 610 - 1;
#X obj 1374 634 abs;
#X obj 404 506 random 68;
#X obj 405 531 + 1;
#X obj 179 526 random 68;
#X obj 184 551 + 1;
#X obj 34 360 r kickmsg;
#X obj 35 391 spigot;
#X obj 88 391 r ImAki;
#X obj 249 360 r snaremsg;
#X obj 248 393 spigot;
#X obj 305 392 r ImAki;
#X obj 314 736 tgl 19 0 empty empty empty 0 -10 0 12 #fcfcfc #000000 #000000 0 1;
#X obj 470 723 tgl 19 0 empty empty empty 0 -10 0 12 #fcfcfc #000000 #000000 0 1;
#X obj 46 546 list prepend 200;
#X obj 259 534 list prepend 200;
#X obj 1326 711 r mode3sensor1;
#X obj 1454 710 r mode3sensor2;
#X obj 710 841 sel 0 1;
#X obj 1285 526 tgl 19 0 empty empty empty 0 -10 0 12 #fcfcfc #000000 #000000 0 1;
#X obj 35 428 spigot;
#X obj 248 422 spigot;
#X obj 155 408 r aki_send;
#X obj 1242 442 r ImAki;
#X obj 1244 501 t a;
#N canvas 103 332 450 446 hihat 0;
#X obj 168 152 noise~;
#X obj 168 282 *~, f 5;
#X obj 170 73 inlet;
#X obj 168 326 outlet~;
#X obj 202 258 line~;
#X msg 202 219 1;
#X obj 170 94 t b b;
#X obj 168 194 hip~ 8000;
#X obj 168 173 hip~ 8000;
#X obj 168 303 *~ 0.4;
#X obj 240 83 vsl 15 128 0 127 0 0 empty empty empty 0 -9 0 10 #fcfcfc #000000 #000000 0 1;
#X msg 240 219 0 \$1;
#X obj 273 24 loadbang;
#X msg 273 53 127;
#X connect 0 0 8 0;
#X connect 1 0 9 0;
#X connect 2 0 6 0;
#X connect 4 0 1 1;
#X connect 5 0 4 0;
#X connect 6 0 10 0;
#X connect 6 1 5 0;
#X connect 7 0 1 0;
#X connect 8 0 7 0;
#X connect 9 0 3 0;
#X connect 10 0 11 0;
#X connect 11 0 4 0;
#X connect 12 0 13 0;
#X connect 13 0 10 0;
#X restore 811 489 pd hihat;
#N canvas 196 141 450 446 HighKick 0;
#X obj 134 212 vline~;
#X obj 172 328 *~;
#X obj 172 307 cos~;
#X obj 172 286 *~;
#X obj 172 264 *~;
#X obj 172 242 *~;
#X msg 134 190 1 0 0 \, 0 \$1 0;
#X obj 172 350 outlet~;
#X obj 228 397 switch~;
#X obj 228 349 env~;
#X obj 228 373 > 0.1;
#X msg 134 147 1;
#X obj 134 125 inlet;
#X obj 192 29 inlet;
#X obj 251 102 loadbang;
#X msg 135 169 70;
#X msg 194 127 3.5;
#X connect 0 0 1 1;
#X connect 0 0 5 0;
#X connect 0 0 3 1;
#X connect 1 0 7 0;
#X connect 1 0 9 0;
#X connect 2 0 1 0;
#X connect 3 0 2 0;
#X connect 4 0 3 0;
#X connect 5 0 4 1;
#X connect 5 0 4 0;
#X connect 6 0 0 0;
#X connect 9 0 10 0;
#X connect 10 0 8 0;
#X connect 11 0 8 0;
#X connect 11 0 15 0;
#X connect 12 0 11 0;
#X connect 13 0 16 0;
#X connect 14 0 16 0;
#X connect 15 0 6 0;
#X connect 16 0 5 1;
#X restore 958 475 pd HighKick;
#X obj 824 454 gate 2 1;
#X obj 960 432 gate 2 1;
#X obj 807 386 % 2;
#X obj 806 409 + 1;
#X obj 276 985 t b b;
#X msg 335 1010 1;
#X msg 295 1089 0;
#X obj 420 1049 tgl 19 0 empty empty empty 0 -10 0 12 #fcfcfc #000000 #000000 0 1;
#X obj 421 1079 s beatActive;
#X obj 532 393 bng 19 250 50 0 empty empty empty 0 -10 0 12 #fcfcfc #000000 #000000;
#X msg 580 387 set 0;
#X floatatom 549 458 5 0 0 0 - - - 0;
#X obj 528 512 bng 19 250 50 0 empty empty empty 0 -10 0 12 #fcfcfc #000000 #000000;
#X obj 1195 383 s ImAki;
#X obj 1193 346 tgl 19 0 empty empty empty 0 -10 0 12 #fcfcfc #000000 #000000 0 1;
#X obj 802 359 r my_id;
#X obj 944 971 tgl 19 0 empty empty empty 0 -10 0 12 #fcfcfc #000000 #000000 0 1;
#X obj 945 1001 s beatActive;
#X obj 940 933 r ImAki;
#X obj 407 560 route 51;
#X obj 169 568 route 51;
#X obj 994 512 *~ 1.5;
#X obj 881 513 *~ 0.2;
#X obj 277 1055 del 10000;
#X obj 529 428 counter 16;
#X obj 530 484 sel 16;
#X obj 36 524 t a b b;
#X obj 254 510 t a b b;
#X obj 415 477 uzi 4;
#X obj 195 471 del 10;
#X obj 188 502 uzi 4;
#X connect 0 0 10 0;
#X connect 1 0 10 0;
#X connect 10 0 62 0;
#X connect 10 1 61 0;
#X connect 10 1 178 0;
#X connect 11 0 30 0;
#X connect 12 0 11 1;
#X connect 12 0 96 0;
#X connect 14 0 55 0;
#X connect 16 0 11 2;
#X connect 18 0 55 0;
#X connect 19 0 11 0;
#X connect 19 0 25 0;
#X connect 21 0 11 3;
#X connect 21 0 60 0;
#X connect 21 0 96 0;
#X connect 23 0 55 0;
#X connect 24 0 55 0;
#X connect 26 0 27 0;
#X connect 27 0 12 0;
#X connect 27 1 16 0;
#X connect 27 2 19 0;
#X connect 31 0 73 0;
#X connect 31 0 49 0;
#X connect 32 0 34 1;
#X connect 33 0 39 0;
#X connect 34 0 33 0;
#X connect 35 0 75 0;
#X connect 35 0 47 0;
#X connect 37 0 169 1;
#X connect 38 0 189 0;
#X connect 41 0 190 0;
#X connect 42 0 168 1;
#X connect 44 0 46 1;
#X connect 45 0 48 0;
#X connect 46 0 45 0;
#X connect 47 0 44 0;
#X connect 49 0 32 0;
#X connect 53 0 55 0;
#X connect 55 0 58 0;
#X connect 56 0 58 1;
#X connect 57 0 58 2;
#X connect 58 0 11 4;
#X connect 58 0 12 0;
#X connect 59 0 55 0;
#X connect 63 0 19 0;
#X connect 64 0 12 0;
#X connect 65 0 67 0;
#X connect 67 0 66 0;
#X connect 71 0 135 0;
#X connect 72 0 136 0;
#X connect 73 0 34 0;
#X connect 73 1 34 0;
#X connect 73 1 84 0;
#X connect 73 2 34 0;
#X connect 73 3 34 0;
#X connect 73 4 34 0;
#X connect 73 5 34 0;
#X connect 73 6 34 0;
#X connect 73 7 34 0;
#X connect 73 8 34 0;
#X connect 73 9 34 0;
#X connect 73 10 34 0;
#X connect 73 11 34 0;
#X connect 73 11 51 0;
#X connect 75 0 46 0;
#X connect 75 1 46 0;
#X connect 75 2 46 0;
#X connect 75 3 46 0;
#X connect 75 4 46 0;
#X connect 75 5 46 0;
#X connect 75 6 46 0;
#X connect 75 7 46 0;
#X connect 75 8 46 0;
#X connect 75 9 46 0;
#X connect 75 10 46 0;
#X connect 75 11 46 0;
#X connect 75 11 52 0;
#X connect 78 0 110 0;
#X connect 80 0 79 1;
#X connect 81 0 82 1;
#X connect 88 0 89 0;
#X connect 89 0 194 0;
#X connect 90 0 94 0;
#X connect 91 0 95 0;
#X connect 92 0 93 0;
#X connect 93 0 195 0;
#X connect 98 0 101 0;
#X connect 100 0 101 0;
#X connect 101 0 102 0;
#X connect 103 0 104 0;
#X connect 104 0 105 0;
#X connect 110 0 79 0;
#X connect 110 0 172 0;
#X connect 110 1 82 0;
#X connect 110 1 172 0;
#X connect 110 4 118 0;
#X connect 111 0 97 0;
#X connect 112 0 114 0;
#X connect 113 0 115 0;
#X connect 114 0 69 0;
#X connect 115 0 70 0;
#X connect 116 0 127 0;
#X connect 117 0 4 0;
#X connect 117 0 115 1;
#X connect 117 0 114 1;
#X connect 117 0 126 0;
#X connect 117 0 159 0;
#X connect 120 0 125 0;
#X connect 121 0 123 0;
#X connect 122 0 121 0;
#X connect 123 0 120 1;
#X connect 124 0 120 0;
#X connect 127 0 130 0;
#X connect 127 0 131 0;
#X connect 128 0 117 0;
#X connect 129 0 128 0;
#X connect 129 1 128 1;
#X connect 130 0 128 0;
#X connect 131 0 129 0;
#X connect 132 0 127 0;
#X connect 133 0 127 0;
#X connect 134 0 127 0;
#X connect 135 0 139 0;
#X connect 136 0 138 0;
#X connect 138 0 106 0;
#X connect 139 0 109 0;
#X connect 140 0 141 0;
#X connect 141 0 142 0;
#X connect 142 0 139 1;
#X connect 142 0 138 1;
#X connect 143 0 144 0;
#X connect 144 0 187 0;
#X connect 145 0 146 0;
#X connect 146 0 188 0;
#X connect 147 0 148 0;
#X connect 148 0 161 0;
#X connect 148 0 177 0;
#X connect 149 0 148 1;
#X connect 150 0 151 0;
#X connect 151 0 162 0;
#X connect 152 0 151 1;
#X connect 153 0 69 0;
#X connect 154 0 70 0;
#X connect 155 0 90 0;
#X connect 156 0 91 0;
#X connect 157 0 86 0;
#X connect 158 0 86 1;
#X connect 159 0 68 0;
#X connect 159 1 66 0;
#X connect 161 0 88 0;
#X connect 162 0 92 0;
#X connect 163 0 161 1;
#X connect 163 0 162 1;
#X connect 164 0 165 0;
#X connect 165 0 136 1;
#X connect 165 0 135 1;
#X connect 165 0 160 0;
#X connect 166 0 111 0;
#X connect 167 0 189 0;
#X connect 168 0 166 0;
#X connect 168 1 41 0;
#X connect 169 0 167 0;
#X connect 169 1 38 0;
#X connect 170 0 171 0;
#X connect 171 0 168 0;
#X connect 171 0 169 0;
#X connect 172 0 191 0;
#X connect 172 1 173 0;
#X connect 173 0 175 0;
#X connect 174 0 175 0;
#X connect 175 0 176 0;
#X connect 177 0 192 0;
#X connect 178 0 192 0;
#X connect 182 0 181 0;
#X connect 183 0 170 0;
#X connect 184 0 185 0;
#X connect 186 0 184 0;
#X connect 187 1 156 1;
#X connect 188 1 155 1;
#X connect 189 0 111 0;
#X connect 190 0 111 0;
#X connect 191 0 66 0;
#X connect 191 0 174 0;
#X connect 192 0 179 0;
#X connect 192 0 193 0;
#X connect 193 0 180 0;
#X connect 193 0 66 0;
#X connect 194 0 155 0;
#X connect 194 2 197 0;
#X connect 195 0 156 0;
#X connect 195 2 196 0;
#X connect 196 0 143 0;
#X connect 197 0 198 0;
#X connect 198 0 145 0;
