#N canvas 168 23 1112 669 12;
#X obj 218 75 symbol;
#X obj 161 124 gate 4 1;
#X obj 175 615 outlet~;
#X obj 219 24 r loadfile;
#X obj 92 78 r inst;
#X obj 92 102 + 1;
#X obj 439 61 r mode;
#X obj 440 316 switch~;
#X obj 439 241 > 0;
#X obj 467 274 tgl 19 0 empty empty empty 0 -10 0 12 #fcfcfc #000000 #000000 0 1;
#X msg 471 128 3;
#X obj 219 51 spigot;
#X msg 307 178 \$1_La.wav;
#X msg 238 177 \$1_M.wav;
#X msg 162 178 \$1_Am.wav;
#X msg 498 96 4;
#X obj 437 210 ||;
#X obj 478 198 t b a;
#X obj 751 189 unpack 0 0;
#X obj 670 142 pack 0 1;
#X obj 674 99 hradio 19 1 0 8 empty empty empty 0 -10 0 12 #fcfcfc #000000 #000000 0;
#X obj 758 137 r wisper;
#X obj 172 366 *~ 1;
#X obj 164 225 soundPlayer damptype;
#X msg 331 41 Gymnasium;
#X obj 216 100 t a b;
#X msg 73 185 1;
#X msg 329 67 Putzen;
#X obj 73 157 del 100;
#N canvas 0 23 1280 755 soundLoader_wisper 0;
#X obj 89 757 outlet~;
#X obj 388 60 inlet;
#X obj 927 37 inlet;
#X obj 385 154 sel 0 1 2 3 4 5;
#X obj 90 731 *~;
#X obj 930 707 line~;
#X obj 352 649 soundPlayer wisper;
#X obj 129 306 gate 4 1;
#X obj 130 251 r inst;
#X obj 130 281 + 1;
#X msg 129 331 gym_gelacht_Am.wav;
#X msg 129 355 gym_gelacht_M.wav;
#X msg 129 379 gym_gelacht_La.wav;
#X msg 287 335 music_luft_Am.wav;
#X msg 287 359 music_luft_M.wav;
#X msg 287 383 music_luft_La.wav;
#X obj 287 304 gate 4 1;
#X obj 288 249 r inst;
#X obj 288 279 + 1;
#X obj 435 296 gate 4 1;
#X obj 436 241 r inst;
#X obj 436 271 + 1;
#X msg 436 334 physik_nurdeco_Am.wav;
#X msg 436 358 physik_nurdeco_M.wav;
#X msg 436 382 physik_nurdeco_La.wav words3;
#X obj 128 409 t a;
#X obj 287 412 t a;
#X obj 436 408 t a;
#X msg 659 336 putzengeht_Am.wav;
#X msg 659 360 putzengeht_M.wav;
#X msg 659 384 putzengeht_La.wav;
#X obj 660 412 t a;
#X obj 658 306 gate 4 1;
#X obj 659 251 r inst;
#X obj 659 281 + 1;
#X obj 814 411 t a;
#X obj 812 305 gate 4 1;
#X obj 813 250 r inst;
#X obj 813 280 + 1;
#X msg 813 335 schaffner_weissesjanicht_Am.wav;
#X msg 813 359 schaffner_weissesjanicht_M.wav;
#X msg 813 383 schaffner_weissesjanicht_La.wav;
#X obj 1049 410 t a;
#X obj 1047 304 gate 4 1;
#X obj 1048 249 r inst;
#X obj 1048 279 + 1;
#X msg 1048 334 Schul_bisaufdich_Am.wav;
#X msg 1048 358 Schul_bisaufdich_M.wav;
#X msg 1048 382 Schul_bisaufdich_La.wav;
#X obj 386 107 t a b;
#X obj 352 588 del 200;
#X msg 930 684 \$1 100;
#X msg 354 620 1;
#X connect 1 0 49 0;
#X connect 2 0 51 0;
#X connect 3 0 7 1;
#X connect 3 1 16 1;
#X connect 3 2 19 1;
#X connect 3 3 32 1;
#X connect 3 4 36 1;
#X connect 3 5 43 1;
#X connect 4 0 0 0;
#X connect 5 0 4 1;
#X connect 6 0 4 0;
#X connect 7 0 10 0;
#X connect 7 1 10 0;
#X connect 7 2 11 0;
#X connect 7 3 12 0;
#X connect 8 0 9 0;
#X connect 9 0 7 0;
#X connect 10 0 25 0;
#X connect 11 0 25 0;
#X connect 12 0 25 0;
#X connect 13 0 26 0;
#X connect 14 0 26 0;
#X connect 15 0 26 0;
#X connect 16 0 13 0;
#X connect 16 1 13 0;
#X connect 16 2 14 0;
#X connect 16 3 15 0;
#X connect 17 0 18 0;
#X connect 18 0 16 0;
#X connect 19 0 22 0;
#X connect 19 1 22 0;
#X connect 19 2 23 0;
#X connect 19 3 24 0;
#X connect 20 0 21 0;
#X connect 21 0 19 0;
#X connect 22 0 27 0;
#X connect 23 0 27 0;
#X connect 24 0 27 0;
#X connect 25 0 6 1;
#X connect 26 0 6 1;
#X connect 27 0 6 1;
#X connect 28 0 31 0;
#X connect 29 0 31 0;
#X connect 30 0 31 0;
#X connect 31 0 6 1;
#X connect 32 0 28 0;
#X connect 32 1 28 0;
#X connect 32 2 29 0;
#X connect 32 3 30 0;
#X connect 33 0 34 0;
#X connect 34 0 32 0;
#X connect 35 0 6 1;
#X connect 36 0 39 0;
#X connect 36 1 39 0;
#X connect 36 2 40 0;
#X connect 36 3 41 0;
#X connect 37 0 38 0;
#X connect 38 0 36 0;
#X connect 39 0 35 0;
#X connect 40 0 35 0;
#X connect 41 0 35 0;
#X connect 42 0 6 1;
#X connect 43 0 46 0;
#X connect 43 1 46 0;
#X connect 43 2 47 0;
#X connect 43 3 48 0;
#X connect 44 0 45 0;
#X connect 45 0 43 0;
#X connect 46 0 42 0;
#X connect 47 0 42 0;
#X connect 48 0 42 0;
#X connect 49 0 3 0;
#X connect 49 1 50 0;
#X connect 50 0 52 0;
#X connect 51 0 5 0;
#X connect 52 0 6 0;
#X restore 690 261 pd soundLoader_wisper;
#X obj 436 176 == 7;
#X obj 482 175 == 8;
#X connect 0 0 25 0;
#X connect 1 0 14 0;
#X connect 1 1 14 0;
#X connect 1 2 13 0;
#X connect 1 3 12 0;
#X connect 3 0 11 0;
#X connect 4 0 5 0;
#X connect 5 0 1 0;
#X connect 6 0 30 0;
#X connect 6 0 31 0;
#X connect 8 0 7 0;
#X connect 8 0 9 0;
#X connect 8 0 11 1;
#X connect 10 0 30 0;
#X connect 11 0 0 0;
#X connect 12 0 23 1;
#X connect 13 0 23 1;
#X connect 14 0 23 1;
#X connect 15 0 30 0;
#X connect 16 0 8 0;
#X connect 17 0 16 0;
#X connect 17 1 16 1;
#X connect 18 0 29 0;
#X connect 18 1 29 1;
#X connect 19 0 18 0;
#X connect 20 0 19 0;
#X connect 21 0 18 0;
#X connect 22 0 2 0;
#X connect 23 0 22 0;
#X connect 24 0 0 0;
#X connect 25 0 1 1;
#X connect 25 1 28 0;
#X connect 26 0 23 0;
#X connect 27 0 0 0;
#X connect 28 0 26 0;
#X connect 29 0 2 0;
#X connect 30 0 16 0;
#X connect 31 0 17 0;
