#N canvas 118 64 1125 657 10;
#X obj 26 153 pack;
#X obj 26 202 - 1;
#X obj 26 220 pack f f f;
#X msg 661 483 all algorithm \$1;
#N canvas 276 77 1004 572 randomisation 0;
#X obj 37 37 inlet;
#X obj 54 450 outlet;
#X obj 55 420 list trim;
#X obj 171 188 text define pre;
#X obj 57 394 text get pre;
#X obj 59 334 bng 16 250 50 0 empty empty empty 0 -8 0 10 #fcfcfc #000000 #000000;
#X msg 171 159 read dx7_preset\$1.txt;
#X floatatom 163 50 5 0 25 0 - - - 0;
#X obj 103 87 t b a;
#X obj 58 358 uzi 38 0;
#X obj 216 84 % 26;
#X connect 0 0 8 0;
#X connect 2 0 1 0;
#X connect 4 0 2 0;
#X connect 5 0 9 0;
#X connect 6 0 3 0;
#X connect 7 0 8 0;
#X connect 8 0 5 0;
#X connect 8 1 10 0;
#X connect 9 2 4 0;
#X connect 10 0 6 0;
#X restore 279 379 pd randomisation;
#X obj 59 54 sel 1 0;
#X obj 166 56 sel 1 0;
#X msg 252 95 stop;
#X obj 156 149 pack;
#N canvas 152 189 450 300 algorithmPicker 0;
#X msg 413 106 9;
#X msg 447 105 24;
#X msg 218 105 32;
#X msg 184 105 31;
#X msg 83 103 27;
#X msg 378 107 23;
#X msg 51 105 22;
#X msg 20 106 21;
#X msg 117 104 20;
#X msg 478 108 14;
#X msg 250 107 13;
#X msg 509 108 12;
#X msg 539 109 11;
#X msg 314 108 8;
#X msg 280 108 7;
#X msg 149 105 5;
#X msg 345 109 1;
#X obj 104 156 outlet;
#X obj 96 75 sel 0 1 2 3 4 5 6 7 8 9 10 11 12 13 14 15 16, f 66;
#X obj 97 37 % 17;
#X obj 97 8 inlet;
#X connect 0 0 17 0;
#X connect 1 0 17 0;
#X connect 2 0 17 0;
#X connect 3 0 17 0;
#X connect 4 0 17 0;
#X connect 5 0 17 0;
#X connect 6 0 17 0;
#X connect 7 0 17 0;
#X connect 8 0 17 0;
#X connect 9 0 17 0;
#X connect 10 0 17 0;
#X connect 11 0 17 0;
#X connect 12 0 17 0;
#X connect 13 0 17 0;
#X connect 14 0 17 0;
#X connect 15 0 17 0;
#X connect 16 0 17 0;
#X connect 18 0 7 0;
#X connect 18 1 6 0;
#X connect 18 2 4 0;
#X connect 18 3 8 0;
#X connect 18 4 15 0;
#X connect 18 5 3 0;
#X connect 18 6 2 0;
#X connect 18 7 10 0;
#X connect 18 8 14 0;
#X connect 18 9 13 0;
#X connect 18 10 16 0;
#X connect 18 11 5 0;
#X connect 18 12 0 0;
#X connect 18 13 1 0;
#X connect 18 14 9 0;
#X connect 18 15 11 0;
#X connect 18 16 12 0;
#X connect 19 0 18 0;
#X connect 20 0 19 0;
#X restore 660 459 pd algorithmPicker;
#X obj 665 513 print algorithm;
#X obj 34 549 outlet~;
#X obj 60 11 r sensor1;
#X obj 166 12 r sensor2;
#X obj 60 34 spigot;
#X obj 166 35 spigot;
#X obj 534 242 switch~;
#X text 536 18 mode;
#X obj 536 41 r mode;
#X obj 565 212 tgl 19 0 empty empty empty 0 -10 0 12 #fcfcfc #000000 #000000 0 1;
#X obj 535 79 t a;
#X obj 538 174 ||;
#X obj 539 147 t b a;
#X msg 592 64 5;
#X obj 509 120 == 9;
#X msg 592 41 9;
#X obj 269 11 tgl 16 0 empty empty empty 0 -8 0 10 #fcfcfc #000000 #000000 0 1;
#X obj 8 9 tgl 16 0 empty empty empty 0 -8 0 10 #fcfcfc #000000 #000000 0 1;
#N canvas 100 23 994 755 sparkleLED 0;
#X obj 152 694 s LEDstrip1;
#X obj 651 690 s LEDstrip2;
#X obj 153 664 LED_color;
#X obj 652 657 LED_color;
#X obj 553 712 s LEDreset;
#X obj 552 686 del 100;
#X obj 502 13 inlet sensor1;
#X obj 653 6 inlet sensor2;
#X obj 502 33 sel 1;
#X obj 654 29 sel 1;
#X obj 464 62 tgl 19 0 empty empty empty 0 -10 0 12 #fcfcfc #000000 #000000 0 1;
#X obj 718 38 tgl 19 0 empty empty empty 0 -10 0 12 #fcfcfc #000000 #000000 0 1;
#X obj 653 52 t b b b;
#X obj 501 54 t b b b;
#X msg 181 634 0 0.2 1;
#X msg 687 631 0.15 0 0.5;
#N canvas 153 44 1127 701 LEDspread 0;
#X obj 81 32 inlet;
#X obj 639 659 outlet;
#X obj 572 42 inlet;
#X obj 132 32 tgl 19 0 empty empty empty 0 -10 0 12 #fcfcfc #000000 #000000 0 1;
#X obj 131 65 tgl 19 0 empty empty empty 0 -10 0 12 #fcfcfc #000000 #000000 0 1;
#X obj 81 64 t a a;
#X obj 130 131 tgl 19 0 empty empty empty 0 -10 0 12 #fcfcfc #000000 #000000 0 1;
#X obj 80 130 t a a;
#X obj 131 198 tgl 19 0 empty empty empty 0 -10 0 12 #fcfcfc #000000 #000000 0 1;
#X obj 81 197 t a a;
#X obj 131 318 tgl 19 0 empty empty empty 0 -10 0 12 #fcfcfc #000000 #000000 0 1;
#X obj 81 317 t a a;
#X obj 130 384 tgl 19 0 empty empty empty 0 -10 0 12 #fcfcfc #000000 #000000 0 1;
#X obj 80 383 t a a;
#X obj 130 257 tgl 19 0 empty empty empty 0 -10 0 12 #fcfcfc #000000 #000000 0 1;
#X obj 80 256 t a a;
#X msg 573 112 clear;
#X obj 572 78 t b b;
#X msg 533 73 0;
#X msg 635 112 0 0 0 0 0 0 0 0 0 0 0 0;
#X obj 655 625 pak 0 0 0 0 0 0 0 0 0 0 0 0, f 49;
#X obj 81 95 pipe 100;
#X obj 80 161 pipe 100;
#X obj 81 228 pipe 100;
#X obj 80 287 pipe 100;
#X obj 81 348 pipe 100;
#X obj 965 58 inlet;
#X connect 0 0 5 0;
#X connect 2 0 17 0;
#X connect 3 0 5 0;
#X connect 5 0 21 0;
#X connect 5 1 4 0;
#X connect 5 1 20 6;
#X connect 5 1 20 5;
#X connect 7 0 22 0;
#X connect 7 1 6 0;
#X connect 7 1 20 7;
#X connect 7 1 20 4;
#X connect 9 0 23 0;
#X connect 9 1 8 0;
#X connect 9 1 20 8;
#X connect 9 1 20 3;
#X connect 11 0 25 0;
#X connect 11 1 10 0;
#X connect 11 1 20 10;
#X connect 11 1 20 1;
#X connect 13 1 12 0;
#X connect 13 1 20 11;
#X connect 13 1 20 0;
#X connect 15 0 24 0;
#X connect 15 1 14 0;
#X connect 15 1 20 9;
#X connect 15 1 20 2;
#X connect 16 0 21 0;
#X connect 16 0 22 0;
#X connect 16 0 23 0;
#X connect 16 0 24 0;
#X connect 16 0 25 0;
#X connect 17 0 19 0;
#X connect 17 0 18 0;
#X connect 17 1 16 0;
#X connect 18 0 5 0;
#X connect 19 0 1 0;
#X connect 20 0 1 0;
#X connect 21 0 7 0;
#X connect 22 0 9 0;
#X connect 23 0 15 0;
#X connect 24 0 11 0;
#X connect 25 0 13 0;
#X connect 26 0 21 1;
#X connect 26 0 22 1;
#X connect 26 0 23 1;
#X connect 26 0 24 1;
#X connect 26 0 25 1;
#X restore 132 182 pd LEDspread;
#N canvas 153 44 1127 701 LEDspread 0;
#X obj 81 32 inlet;
#X obj 639 659 outlet;
#X obj 572 42 inlet;
#X obj 132 32 tgl 19 0 empty empty empty 0 -10 0 12 #fcfcfc #000000 #000000 0 1;
#X obj 131 65 tgl 19 0 empty empty empty 0 -10 0 12 #fcfcfc #000000 #000000 0 1;
#X obj 81 64 t a a;
#X obj 130 131 tgl 19 0 empty empty empty 0 -10 0 12 #fcfcfc #000000 #000000 0 1;
#X obj 80 130 t a a;
#X obj 131 198 tgl 19 0 empty empty empty 0 -10 0 12 #fcfcfc #000000 #000000 0 1;
#X obj 81 197 t a a;
#X obj 131 318 tgl 19 0 empty empty empty 0 -10 0 12 #fcfcfc #000000 #000000 0 1;
#X obj 81 317 t a a;
#X obj 130 384 tgl 19 0 empty empty empty 0 -10 0 12 #fcfcfc #000000 #000000 0 1;
#X obj 80 383 t a a;
#X obj 130 257 tgl 19 0 empty empty empty 0 -10 0 12 #fcfcfc #000000 #000000 0 1;
#X obj 80 256 t a a;
#X msg 573 112 clear;
#X obj 572 78 t b b;
#X msg 533 73 0;
#X msg 635 112 0 0 0 0 0 0 0 0 0 0 0 0;
#X obj 655 625 pak 0 0 0 0 0 0 0 0 0 0 0 0, f 49;
#X obj 81 95 pipe 100;
#X obj 80 161 pipe 100;
#X obj 81 228 pipe 100;
#X obj 80 287 pipe 100;
#X obj 81 348 pipe 100;
#X obj 965 58 inlet;
#X connect 0 0 5 0;
#X connect 2 0 17 0;
#X connect 3 0 5 0;
#X connect 5 0 21 0;
#X connect 5 1 4 0;
#X connect 5 1 20 6;
#X connect 5 1 20 5;
#X connect 7 0 22 0;
#X connect 7 1 6 0;
#X connect 7 1 20 7;
#X connect 7 1 20 4;
#X connect 9 0 23 0;
#X connect 9 1 8 0;
#X connect 9 1 20 8;
#X connect 9 1 20 3;
#X connect 11 0 25 0;
#X connect 11 1 10 0;
#X connect 11 1 20 10;
#X connect 11 1 20 1;
#X connect 13 1 12 0;
#X connect 13 1 20 11;
#X connect 13 1 20 0;
#X connect 15 0 24 0;
#X connect 15 1 14 0;
#X connect 15 1 20 9;
#X connect 15 1 20 2;
#X connect 16 0 21 0;
#X connect 16 0 22 0;
#X connect 16 0 23 0;
#X connect 16 0 24 0;
#X connect 16 0 25 0;
#X connect 17 0 19 0;
#X connect 17 0 18 0;
#X connect 17 1 16 0;
#X connect 18 0 5 0;
#X connect 19 0 1 0;
#X connect 20 0 1 0;
#X connect 21 0 7 0;
#X connect 22 0 9 0;
#X connect 23 0 15 0;
#X connect 24 0 11 0;
#X connect 25 0 13 0;
#X connect 26 0 21 1;
#X connect 26 0 22 1;
#X connect 26 0 23 1;
#X connect 26 0 24 1;
#X connect 26 0 25 1;
#X restore 713 158 pd LEDspread;
#X obj 450 517 loadbang;
#X msg 199 596 0.8 1 0;
#X msg 693 605 0.4 1 0;
#X connect 2 0 0 0;
#X connect 3 0 1 0;
#X connect 5 0 4 0;
#X connect 6 0 8 0;
#X connect 6 0 16 0;
#X connect 7 0 9 0;
#X connect 7 0 17 0;
#X connect 8 0 13 0;
#X connect 9 0 12 0;
#X connect 10 0 8 0;
#X connect 11 0 9 0;
#X connect 14 0 2 1;
#X connect 15 0 3 1;
#X connect 16 0 2 0;
#X connect 17 0 3 0;
#X connect 18 0 20 0;
#X connect 18 0 19 0;
#X connect 19 0 2 1;
#X connect 20 0 3 1;
#X restore 94 78 pd sparkleLED;
#X obj 550 119 == 6;
#X obj 440 13 r my_id;
#X obj 258 71 + 1;
#X obj 258 50 % 3;
#X msg 119 98 stop;
#X obj 29 494 *~ 0.3;
#X msg 922 265 50;
#X msg 889 264 47;
#X obj 888 221 t b b;
#X obj 920 248 del 100;
#X msg 824 250 58;
#X obj 826 181 sel 0 1 2 3 4 5 6 7;
#X obj 966 221 t b b;
#X obj 998 248 del 100;
#X obj 912 293 t a;
#X obj 857 148 counter 2 0;
#X obj 976 192 bng 16 250 50 0 empty empty empty 0 -8 0 10 #fcfcfc #000000 #000000;
#X msg 968 266 63;
#X msg 1000 265 67;
#N canvas 413 265 450 300 noteChoice1 0;
#X msg 38 182 36;
#X msg 85 180 48;
#X obj 57 98 gate 3 1;
#X msg 10 182 55;
#X obj 11 155 sel 0 1;
#X obj 64 155 sel 0 1;
#X obj 20 131 tgl 16 0 empty empty empty 0 -8 0 10 #fcfcfc #000000 #000000 0 1;
#X obj 64 131 tgl 16 0 empty empty empty 0 -8 0 10 #fcfcfc #000000 #000000 0 1;
#X msg 64 181 36;
#X msg 135 179 48;
#X obj 114 154 sel 0 1;
#X obj 114 130 tgl 16 0 empty empty empty 0 -8 0 10 #fcfcfc #000000 #000000 0 1;
#X msg 114 180 55;
#X obj 34 24 inlet;
#X obj 241 30 inlet;
#X obj 79 239 outlet;
#X connect 0 0 15 0;
#X connect 1 0 15 0;
#X connect 2 0 6 0;
#X connect 2 1 7 0;
#X connect 2 2 11 0;
#X connect 3 0 15 0;
#X connect 4 0 3 0;
#X connect 4 1 0 0;
#X connect 5 0 8 0;
#X connect 5 1 1 0;
#X connect 6 0 4 0;
#X connect 7 0 5 0;
#X connect 8 0 15 0;
#X connect 9 0 15 0;
#X connect 10 0 12 0;
#X connect 10 1 9 0;
#X connect 11 0 10 0;
#X connect 12 0 15 0;
#X connect 13 0 2 1;
#X connect 14 0 2 0;
#X restore 797 111 pd noteChoice1;
#N canvas 446 478 450 300 noteChoice2 0;
#X msg 92 157 40;
#X msg 121 157 52;
#X obj 65 84 gate 3 1;
#X msg 65 157 57;
#X obj 66 132 sel 0 1;
#X obj 63 109 tgl 16 0 empty empty empty 0 -8 0 10 #fcfcfc #000000 #000000 0 1;
#X obj 115 132 sel 0 1;
#X obj 112 109 tgl 16 0 empty empty empty 0 -8 0 10 #fcfcfc #000000 #000000 0 1;
#X msg 149 157 40;
#X msg 178 158 52;
#X obj 172 133 sel 0 1;
#X obj 169 110 tgl 16 0 empty empty empty 0 -8 0 10 #fcfcfc #000000 #000000 0 1;
#X msg 206 158 57;
#X obj 43 24 inlet;
#X obj 270 27 inlet;
#X obj 119 219 outlet;
#X connect 0 0 15 0;
#X connect 1 0 15 0;
#X connect 2 0 5 0;
#X connect 2 1 7 0;
#X connect 2 2 11 0;
#X connect 3 0 15 0;
#X connect 4 0 3 0;
#X connect 4 1 0 0;
#X connect 5 0 4 0;
#X connect 6 0 1 0;
#X connect 6 1 8 0;
#X connect 7 0 6 0;
#X connect 8 0 15 0;
#X connect 9 0 15 0;
#X connect 10 0 9 0;
#X connect 10 1 12 0;
#X connect 11 0 10 0;
#X connect 12 0 15 0;
#X connect 13 0 2 1;
#X connect 14 0 2 0;
#X restore 807 77 pd noteChoice2;
#N canvas 131 166 859 578 songChoice 0;
#X obj 294 32 inlet;
#X obj 186 239 outlet;
#X obj 167 35 inlet;
#X obj 354 33 inlet;
#N canvas 47 74 996 528 song_melody 0;
#X obj 85 277 t a;
#X obj 837 59 inlet;
#X obj 381 488 outlet;
#X obj 99 368 random 3;
#X obj 99 389 % 3;
#X obj 99 410 + 1;
#X obj 53 19 inlet;
#X obj 175 310 i;
#X obj 266 311 route 57 62;
#X obj 155 390 gate 3 1;
#X obj 201 367 t b b;
#X obj 169 417 t b b;
#X msg 140 417 57;
#X msg 169 443 57;
#X msg 198 443 53;
#X obj 154 472 t a;
#X obj 305 389 gate 3 1;
#X obj 309 364 t b b;
#X obj 300 465 t a;
#X msg 290 416 62;
#X obj 328 408 t b b;
#X obj 363 427 del 100;
#X msg 363 447 62;
#X msg 330 447 61;
#X msg 425 425 46;
#X obj 427 378 t b b;
#X obj 462 397 del 200;
#X obj 472 421 del 200;
#X obj 477 449 del 200;
#X obj 54 38 t a a;
#X obj 158 40 sel 1;
#X obj 55 57 metro 800;
#X msg 44 135 60;
#X msg 75 135 62;
#X msg 110 135 60;
#X msg 140 135 62;
#X msg 171 135 64;
#X msg 203 135 65;
#X msg 232 134 67;
#X msg 265 135 72;
#X msg 296 135 69;
#X msg 343 159 67;
#X msg 373 159 64;
#X msg 404 159 62;
#X obj 50 108 sel 0 1 2 3 4 5 6 7 8 9 10 11 12, f 64;
#X obj 53 83 counter 12 0;
#X msg 160 61 set 0;
#X obj 631 492 outlet;
#X obj 402 134 t a b;
#X obj 628 338 count 3;
#X obj 638 394 sel 3;
#X connect 0 0 7 1;
#X connect 1 0 7 0;
#X connect 3 0 4 0;
#X connect 4 0 5 0;
#X connect 5 0 9 0;
#X connect 5 0 16 0;
#X connect 6 0 29 0;
#X connect 7 0 2 0;
#X connect 8 0 10 0;
#X connect 8 1 17 0;
#X connect 8 2 2 0;
#X connect 9 0 12 0;
#X connect 9 1 11 0;
#X connect 10 0 9 1;
#X connect 10 1 3 0;
#X connect 11 0 13 0;
#X connect 11 1 14 0;
#X connect 12 0 15 0;
#X connect 13 0 15 0;
#X connect 14 0 15 0;
#X connect 15 0 2 0;
#X connect 16 0 19 0;
#X connect 16 1 20 0;
#X connect 16 2 25 0;
#X connect 17 0 16 1;
#X connect 18 0 2 0;
#X connect 19 0 18 0;
#X connect 20 0 23 0;
#X connect 20 1 21 0;
#X connect 21 0 22 0;
#X connect 22 0 18 0;
#X connect 23 0 18 0;
#X connect 24 0 18 0;
#X connect 25 0 24 0;
#X connect 25 1 26 0;
#X connect 26 0 24 0;
#X connect 26 0 27 0;
#X connect 27 0 24 0;
#X connect 27 0 28 0;
#X connect 28 0 24 0;
#X connect 29 0 31 0;
#X connect 29 1 30 0;
#X connect 30 0 46 0;
#X connect 31 0 45 0;
#X connect 32 0 0 0;
#X connect 33 0 0 0;
#X connect 34 0 0 0;
#X connect 35 0 0 0;
#X connect 36 0 0 0;
#X connect 37 0 0 0;
#X connect 38 0 0 0;
#X connect 39 0 0 0;
#X connect 40 0 0 0;
#X connect 41 0 0 0;
#X connect 42 0 0 0;
#X connect 43 0 0 0;
#X connect 44 0 32 0;
#X connect 44 1 33 0;
#X connect 44 2 34 0;
#X connect 44 3 35 0;
#X connect 44 4 36 0;
#X connect 44 5 37 0;
#X connect 44 6 38 0;
#X connect 44 7 39 0;
#X connect 44 8 40 0;
#X connect 44 10 41 0;
#X connect 44 11 42 0;
#X connect 44 12 48 0;
#X connect 45 0 44 0;
#X connect 46 0 45 0;
#X connect 48 0 43 0;
#X connect 48 1 49 0;
#X connect 49 0 50 0;
#X connect 50 0 47 0;
#X restore 175 142 pd song_melody;
#X obj 211 100 gate 2 1;
#N canvas 47 74 996 528 song 0;
#X msg 44 135 48;
#X msg 75 135 55;
#X msg 110 135 60;
#X msg 140 135 64;
#X obj 85 277 t a;
#X msg 171 135 41;
#X msg 232 134 62;
#X obj 421 11 inlet;
#X msg 203 135 57;
#X obj 381 488 outlet;
#X obj 50 108 sel 0 1 2 3 4 5 6, f 19;
#X obj 53 83 counter 6 0;
#X obj 99 368 random 3;
#X obj 99 389 % 3;
#X obj 99 410 + 1;
#X obj 53 19 inlet;
#X obj 175 310 i;
#X obj 266 311 route 57 62;
#X obj 155 390 gate 3 1;
#X obj 201 367 t b b;
#X obj 169 417 t b b;
#X msg 140 417 57;
#X msg 169 443 57;
#X msg 198 443 53;
#X obj 154 472 t a;
#X obj 305 389 gate 3 1;
#X obj 309 364 t b b;
#X obj 300 465 t a;
#X msg 290 416 62;
#X obj 328 408 t b b;
#X obj 363 427 del 100;
#X msg 363 447 62;
#X msg 330 447 61;
#X msg 425 425 46;
#X obj 427 378 t b b;
#X obj 462 397 del 200;
#X obj 472 421 del 200;
#X obj 477 449 del 200;
#X obj 54 38 t a a;
#X obj 137 31 sel 1;
#X obj 55 57 metro 800;
#X msg 137 50 set 0;
#X connect 0 0 4 0;
#X connect 1 0 4 0;
#X connect 2 0 4 0;
#X connect 3 0 4 0;
#X connect 4 0 16 1;
#X connect 5 0 4 0;
#X connect 6 0 4 0;
#X connect 7 0 16 0;
#X connect 8 0 4 0;
#X connect 10 0 0 0;
#X connect 10 1 1 0;
#X connect 10 2 2 0;
#X connect 10 3 3 0;
#X connect 10 4 5 0;
#X connect 10 5 8 0;
#X connect 10 6 6 0;
#X connect 11 0 10 0;
#X connect 12 0 13 0;
#X connect 13 0 14 0;
#X connect 14 0 18 0;
#X connect 14 0 25 0;
#X connect 15 0 38 0;
#X connect 16 0 17 0;
#X connect 17 0 19 0;
#X connect 17 1 26 0;
#X connect 17 2 9 0;
#X connect 18 0 21 0;
#X connect 18 1 20 0;
#X connect 19 0 18 1;
#X connect 19 1 12 0;
#X connect 20 0 22 0;
#X connect 20 1 23 0;
#X connect 21 0 24 0;
#X connect 22 0 24 0;
#X connect 23 0 24 0;
#X connect 24 0 9 0;
#X connect 25 0 28 0;
#X connect 25 1 29 0;
#X connect 25 2 34 0;
#X connect 26 0 25 1;
#X connect 27 0 9 0;
#X connect 28 0 27 0;
#X connect 29 0 32 0;
#X connect 29 1 30 0;
#X connect 30 0 31 0;
#X connect 31 0 27 0;
#X connect 32 0 27 0;
#X connect 33 0 27 0;
#X connect 34 0 33 0;
#X connect 34 1 35 0;
#X connect 35 0 33 0;
#X connect 35 0 36 0;
#X connect 36 0 33 0;
#X connect 36 0 37 0;
#X connect 37 0 33 0;
#X connect 38 0 40 0;
#X connect 38 1 39 0;
#X connect 39 0 41 0;
#X connect 40 0 11 0;
#X connect 41 0 11 0;
#X restore 113 141 pd song;
#X msg 289 189 1;
#X connect 0 0 5 1;
#X connect 2 0 5 0;
#X connect 3 0 4 0;
#X connect 3 0 6 0;
#X connect 4 0 1 0;
#X connect 4 1 7 0;
#X connect 5 0 6 1;
#X connect 5 1 4 1;
#X connect 6 0 1 0;
#X connect 7 0 5 0;
#X restore 938 524 pd songChoice;
#X obj 928 387 i;
#X obj 928 365 sel 1;
#X obj 928 408 % 11;
#X obj 928 429 == 0;
#X obj 928 450 sel 1;
#X obj 928 471 del 10000;
#X msg 929 490 2;
#X obj 671 7 inlet;
#X obj 672 65 i;
#X floatatom 672 91 5 0 0 0 - - - 0;
#X obj 672 44 / 2;
#N canvas 47 74 967 598 random_preset 0;
#X obj 550 71 t b b b b b b, f 50;
#X text 650 53 for each osc;
#X obj 825 95 t b b;
#X obj 780 96 t b b;
#X obj 727 95 t b b;
#X obj 665 95 t b b;
#X obj 607 92 t b b;
#X obj 547 98 t b b;
#X msg 576 128 6;
#X msg 636 122 5;
#X msg 694 125 4;
#X msg 756 125 3;
#X msg 809 126 2;
#X msg 854 125 1;
#N canvas 0 23 1106 623 randomise_osc 0;
#X obj 96 37 inlet;
#X obj 1057 260 inlet;
#X obj 120 439 outlet;
#X obj 115 136 random 4;
#X obj 115 157 sel 0 1 2 3;
#X msg 113 196 1;
#X floatatom 118 259 5 0 0 0 - - - 0;
#X obj 193 203 random 100;
#X obj 193 224 * 0.01;
#X obj 137 84 bng 15 250 50 0 empty empty empty 17 7 0 10 #fcfcfc #000000 #000000;
#X obj 119 300 pack f f;
#X msg 119 321 \$2 level \$1;
#X text 1049 237 osc num;
#X obj 348 162 sel 0 1 2 3;
#X msg 346 201 1;
#X floatatom 351 264 5 0 0 0 - - - 0;
#X obj 352 305 pack f f;
#X msg 352 326 \$2 ratio \$1;
#X msg 377 200 0.5;
#X obj 348 141 random 4;
#X obj 426 229 + 1;
#X obj 426 208 random 8;
#X obj 352 98 bng 15 250 50 0 empty empty empty 17 7 0 10 #fcfcfc #000000 #000000;
#X obj 523 113 t b b b b, f 74;
#X text 563 78 env;
#X text 533 134 a;
#X text 686 136 d;
#X text 826 137 s;
#X text 969 138 r;
#X obj 523 310 pack f f f f f, f 81;
#X msg 521 331 \$5 env \$1 \$2 \$3 \$4;
#X obj 515 181 random 8;
#X obj 515 202 sel 0 1 2 3 4 5 6 7;
#X msg 516 233 5;
#X obj 552 238 random 2000;
#X obj 664 167 random 100;
#X obj 664 188 * 0.01;
#X obj 664 214 *;
#X obj 664 244 *;
#X obj 664 265 * 3000;
#X obj 804 189 random 100;
#X obj 938 167 random 100;
#X obj 938 188 * 0.01;
#X obj 938 214 *;
#X obj 938 235 * 3000;
#X obj 351 284 i;
#X obj 155 242 clip 0.05 1;
#X connect 0 0 3 0;
#X connect 0 0 19 0;
#X connect 0 0 23 0;
#X connect 1 0 10 1;
#X connect 1 0 16 1;
#X connect 1 0 29 4;
#X connect 3 0 4 0;
#X connect 4 0 5 0;
#X connect 4 1 5 0;
#X connect 4 2 5 0;
#X connect 4 3 7 0;
#X connect 5 0 6 0;
#X connect 6 0 10 0;
#X connect 7 0 8 0;
#X connect 8 0 46 0;
#X connect 9 0 3 0;
#X connect 10 0 11 0;
#X connect 11 0 2 0;
#X connect 13 0 14 0;
#X connect 13 1 18 0;
#X connect 13 2 21 0;
#X connect 13 3 21 0;
#X connect 14 0 15 0;
#X connect 15 0 45 0;
#X connect 16 0 17 0;
#X connect 17 0 2 0;
#X connect 18 0 15 0;
#X connect 19 0 13 0;
#X connect 20 0 15 0;
#X connect 21 0 20 0;
#X connect 22 0 19 0;
#X connect 23 0 31 0;
#X connect 23 1 35 0;
#X connect 23 2 40 0;
#X connect 23 3 41 0;
#X connect 29 0 30 0;
#X connect 30 0 2 0;
#X connect 31 0 32 0;
#X connect 32 0 33 0;
#X connect 32 1 33 0;
#X connect 32 2 33 0;
#X connect 32 3 33 0;
#X connect 32 4 34 0;
#X connect 32 5 33 0;
#X connect 32 6 33 0;
#X connect 32 7 34 0;
#X connect 33 0 29 0;
#X connect 34 0 29 0;
#X connect 35 0 36 0;
#X connect 36 0 37 1;
#X connect 36 0 38 1;
#X connect 36 0 37 0;
#X connect 37 0 38 0;
#X connect 38 0 39 0;
#X connect 39 0 29 1;
#X connect 40 0 29 2;
#X connect 41 0 42 0;
#X connect 42 0 43 1;
#X connect 42 0 43 0;
#X connect 43 0 44 0;
#X connect 44 0 29 3;
#X connect 45 0 16 0;
#X connect 46 0 6 0;
#X restore 551 182 pd randomise_osc;
#X obj 551 203 list prepend all toOscs;
#X obj 557 13 inlet;
#X obj 547 253 outlet;
#X connect 0 0 7 0;
#X connect 0 1 6 0;
#X connect 0 2 5 0;
#X connect 0 3 4 0;
#X connect 0 4 3 0;
#X connect 0 5 2 0;
#X connect 2 0 14 0;
#X connect 2 1 13 0;
#X connect 3 0 14 0;
#X connect 3 1 12 0;
#X connect 4 0 14 0;
#X connect 4 1 11 0;
#X connect 5 0 14 0;
#X connect 5 1 10 0;
#X connect 6 0 14 0;
#X connect 6 1 9 0;
#X connect 7 0 14 0;
#X connect 7 1 8 0;
#X connect 8 0 14 1;
#X connect 9 0 14 1;
#X connect 10 0 14 1;
#X connect 11 0 14 1;
#X connect 12 0 14 1;
#X connect 13 0 14 1;
#X connect 14 0 15 0;
#X connect 15 0 17 0;
#X connect 16 0 0 0;
#X restore 660 425 pd random_preset;
#X obj 26 183 poly 2 1, f 10;
#X obj 29 396 clone dx7Poly 2;
#X text 498 309 autoplay;
#N canvas 20 174 996 528 song 0;
#X msg 44 135 48;
#X msg 75 135 55;
#X msg 110 135 60;
#X msg 140 135 64;
#X obj 85 277 t a;
#X msg 171 135 41;
#X msg 232 134 62;
#X obj 421 11 inlet;
#X msg 203 135 57;
#X obj 381 488 outlet;
#X obj 50 108 sel 0 1 2 3 4 5 6, f 19;
#X obj 99 368 random 3;
#X obj 99 389 % 3;
#X obj 99 410 + 1;
#X obj 23 19 inlet;
#X obj 174 269 i;
#X obj 266 311 route 57 62;
#X obj 155 390 gate 3 1;
#X obj 201 367 t b b;
#X obj 169 417 t b b;
#X msg 140 417 57;
#X msg 169 443 57;
#X msg 198 443 53;
#X obj 154 472 t a;
#X obj 305 389 gate 3 1;
#X obj 309 364 t b b;
#X obj 300 465 t a;
#X msg 290 416 62;
#X obj 328 408 t b b;
#X obj 363 427 del 100;
#X msg 363 447 62;
#X msg 330 447 61;
#X msg 425 425 46;
#X obj 427 378 t b b;
#X obj 462 397 del 200;
#X obj 472 421 del 200;
#X obj 477 449 del 200;
#X obj 107 18 t a a;
#X obj 137 31 sel 1;
#X obj 78 37 metro 800;
#X msg 137 50 set 0;
#X obj 24 62 t b;
#X obj 49 60 counter 6 0;
#X obj 23 43 change;
#X obj 220 290 spigot;
#X connect 0 0 4 0;
#X connect 1 0 4 0;
#X connect 2 0 4 0;
#X connect 3 0 4 0;
#X connect 4 0 15 0;
#X connect 5 0 4 0;
#X connect 6 0 4 0;
#X connect 7 0 44 1;
#X connect 8 0 4 0;
#X connect 10 0 0 0;
#X connect 10 1 1 0;
#X connect 10 2 2 0;
#X connect 10 3 3 0;
#X connect 10 4 5 0;
#X connect 10 5 8 0;
#X connect 10 6 6 0;
#X connect 11 0 12 0;
#X connect 12 0 13 0;
#X connect 13 0 17 0;
#X connect 13 0 24 0;
#X connect 14 0 43 0;
#X connect 14 0 10 0;
#X connect 15 0 44 0;
#X connect 16 0 18 0;
#X connect 16 1 25 0;
#X connect 16 2 9 0;
#X connect 17 0 20 0;
#X connect 17 1 19 0;
#X connect 18 0 17 1;
#X connect 18 1 11 0;
#X connect 19 0 21 0;
#X connect 19 1 22 0;
#X connect 20 0 23 0;
#X connect 21 0 23 0;
#X connect 22 0 23 0;
#X connect 23 0 9 0;
#X connect 24 0 27 0;
#X connect 24 1 28 0;
#X connect 24 2 33 0;
#X connect 25 0 24 1;
#X connect 26 0 9 0;
#X connect 27 0 26 0;
#X connect 28 0 31 0;
#X connect 28 1 29 0;
#X connect 29 0 30 0;
#X connect 30 0 26 0;
#X connect 31 0 26 0;
#X connect 32 0 26 0;
#X connect 33 0 32 0;
#X connect 33 1 34 0;
#X connect 34 0 32 0;
#X connect 34 0 35 0;
#X connect 35 0 32 0;
#X connect 35 0 36 0;
#X connect 36 0 32 0;
#X connect 37 0 39 0;
#X connect 37 1 38 0;
#X connect 38 0 40 0;
#X connect 41 0 42 0;
#X connect 43 0 41 0;
#X connect 44 0 16 0;
#X restore 723 366 pd song;
#N canvas 47 74 996 528 song_melody 0;
#X obj 85 277 t a;
#X obj 837 59 inlet;
#X obj 381 488 outlet;
#X obj 99 368 random 3;
#X obj 99 389 % 3;
#X obj 99 410 + 1;
#X obj 53 19 inlet;
#X obj 176 291 i;
#X obj 266 311 route 57 62;
#X obj 155 390 gate 3 1;
#X obj 201 367 t b b;
#X obj 169 417 t b b;
#X msg 140 417 57;
#X msg 169 443 57;
#X msg 198 443 53;
#X obj 154 472 t a;
#X obj 305 389 gate 3 1;
#X obj 309 364 t b b;
#X obj 300 465 t a;
#X msg 290 416 62;
#X obj 328 408 t b b;
#X obj 363 427 del 100;
#X msg 363 447 62;
#X msg 330 447 61;
#X msg 425 425 46;
#X obj 427 378 t b b;
#X obj 462 397 del 200;
#X obj 472 421 del 200;
#X obj 477 449 del 200;
#X obj 204 33 t a a;
#X obj 308 35 sel 1;
#X obj 205 52 metro 800;
#X msg 44 135 60;
#X msg 75 135 62;
#X msg 110 135 60;
#X msg 140 135 62;
#X msg 171 135 64;
#X msg 203 135 65;
#X msg 232 134 67;
#X msg 265 135 72;
#X msg 298 137 69;
#X msg 343 159 67;
#X msg 373 159 64;
#X msg 404 159 62;
#X obj 69 67 counter 12 0;
#X msg 310 56 set 0;
#X obj 631 492 outlet;
#X obj 402 134 t a b;
#X obj 628 338 count 3;
#X obj 638 394 sel 3;
#X obj 248 267 spigot;
#X obj 50 108 sel 1 2 3 4 5 6 7 8 9 10 11 12 13, f 64;
#X connect 0 0 7 0;
#X connect 1 0 50 1;
#X connect 3 0 4 0;
#X connect 4 0 5 0;
#X connect 5 0 9 0;
#X connect 5 0 16 0;
#X connect 6 0 29 0;
#X connect 6 0 51 0;
#X connect 7 0 50 0;
#X connect 8 0 10 0;
#X connect 8 1 17 0;
#X connect 8 2 2 0;
#X connect 9 0 12 0;
#X connect 9 1 11 0;
#X connect 10 0 9 1;
#X connect 10 1 3 0;
#X connect 11 0 13 0;
#X connect 11 1 14 0;
#X connect 12 0 15 0;
#X connect 13 0 15 0;
#X connect 14 0 15 0;
#X connect 15 0 2 0;
#X connect 16 0 19 0;
#X connect 16 1 20 0;
#X connect 16 2 25 0;
#X connect 17 0 16 1;
#X connect 18 0 2 0;
#X connect 19 0 18 0;
#X connect 20 0 23 0;
#X connect 20 1 21 0;
#X connect 21 0 22 0;
#X connect 22 0 18 0;
#X connect 23 0 18 0;
#X connect 24 0 18 0;
#X connect 25 0 24 0;
#X connect 25 1 26 0;
#X connect 26 0 24 0;
#X connect 26 0 27 0;
#X connect 27 0 24 0;
#X connect 27 0 28 0;
#X connect 28 0 24 0;
#X connect 29 0 31 0;
#X connect 29 1 30 0;
#X connect 30 0 45 0;
#X connect 32 0 0 0;
#X connect 33 0 0 0;
#X connect 34 0 0 0;
#X connect 35 0 0 0;
#X connect 36 0 0 0;
#X connect 37 0 0 0;
#X connect 38 0 0 0;
#X connect 39 0 0 0;
#X connect 40 0 0 0;
#X connect 41 0 0 0;
#X connect 42 0 0 0;
#X connect 43 0 0 0;
#X connect 44 0 51 0;
#X connect 47 0 43 0;
#X connect 47 1 48 0;
#X connect 48 0 49 0;
#X connect 49 0 46 0;
#X connect 50 0 2 0;
#X connect 51 0 32 0;
#X connect 51 1 33 0;
#X connect 51 2 34 0;
#X connect 51 3 35 0;
#X connect 51 4 36 0;
#X connect 51 5 37 0;
#X connect 51 6 38 0;
#X connect 51 7 39 0;
#X connect 51 8 40 0;
#X connect 51 10 41 0;
#X connect 51 11 42 0;
#X connect 51 12 47 0;
#X restore 624 366 pd song_melody;
#N canvas 48 41 996 528 song_oneNote 0;
#X msg 44 135 48;
#X msg 75 135 55;
#X msg 110 135 60;
#X msg 140 135 64;
#X obj 85 277 t a;
#X msg 171 135 41;
#X msg 232 134 62;
#X obj 421 11 inlet;
#X msg 203 135 57;
#X obj 381 488 outlet;
#X obj 50 108 sel 0 1 2 3 4 5 6, f 19;
#X obj 99 368 random 3;
#X obj 99 389 % 3;
#X obj 99 410 + 1;
#X obj 53 19 inlet;
#X obj 266 311 route 57 62;
#X obj 155 390 gate 3 1;
#X obj 201 367 t b b;
#X obj 169 417 t b b;
#X msg 140 417 57;
#X msg 169 443 57;
#X msg 198 443 53;
#X obj 154 472 t a;
#X obj 305 389 gate 3 1;
#X obj 309 364 t b b;
#X obj 300 465 t a;
#X msg 290 416 62;
#X obj 328 408 t b b;
#X obj 363 427 del 100;
#X msg 363 447 62;
#X msg 330 447 61;
#X msg 425 425 46;
#X obj 427 378 t b b;
#X obj 462 397 del 200;
#X obj 472 421 del 200;
#X obj 477 449 del 200;
#X obj 137 31 sel 1;
#X msg 137 50 set 0;
#X connect 0 0 4 0;
#X connect 1 0 4 0;
#X connect 2 0 4 0;
#X connect 3 0 4 0;
#X connect 4 0 15 0;
#X connect 5 0 4 0;
#X connect 6 0 4 0;
#X connect 7 0 10 0;
#X connect 8 0 4 0;
#X connect 10 0 0 0;
#X connect 10 1 1 0;
#X connect 10 2 2 0;
#X connect 10 3 3 0;
#X connect 10 4 5 0;
#X connect 10 5 8 0;
#X connect 10 6 6 0;
#X connect 11 0 12 0;
#X connect 12 0 13 0;
#X connect 13 0 16 0;
#X connect 13 0 23 0;
#X connect 14 0 36 0;
#X connect 15 0 17 0;
#X connect 15 1 24 0;
#X connect 15 2 9 0;
#X connect 16 0 19 0;
#X connect 16 1 18 0;
#X connect 17 0 16 1;
#X connect 17 1 11 0;
#X connect 18 0 20 0;
#X connect 18 1 21 0;
#X connect 19 0 22 0;
#X connect 20 0 22 0;
#X connect 21 0 22 0;
#X connect 22 0 9 0;
#X connect 23 0 26 0;
#X connect 23 1 27 0;
#X connect 23 2 32 0;
#X connect 24 0 23 1;
#X connect 25 0 9 0;
#X connect 26 0 25 0;
#X connect 27 0 30 0;
#X connect 27 1 28 0;
#X connect 28 0 29 0;
#X connect 29 0 25 0;
#X connect 30 0 25 0;
#X connect 31 0 25 0;
#X connect 32 0 31 0;
#X connect 32 1 33 0;
#X connect 33 0 31 0;
#X connect 33 0 34 0;
#X connect 34 0 31 0;
#X connect 34 0 35 0;
#X connect 35 0 31 0;
#X connect 36 0 37 0;
#X restore 26 99 pd song_oneNote;
#N canvas 48 41 996 528 song_oneNote 0;
#X msg 44 135 48;
#X msg 75 135 55;
#X msg 110 135 60;
#X msg 140 135 64;
#X obj 85 277 t a;
#X msg 171 135 41;
#X msg 232 134 62;
#X obj 421 11 inlet;
#X msg 203 135 57;
#X obj 381 488 outlet;
#X obj 50 108 sel 0 1 2 3 4 5 6, f 19;
#X obj 99 368 random 3;
#X obj 99 389 % 3;
#X obj 99 410 + 1;
#X obj 53 19 inlet;
#X obj 266 311 route 57 62;
#X obj 155 390 gate 3 1;
#X obj 201 367 t b b;
#X obj 169 417 t b b;
#X msg 140 417 57;
#X msg 169 443 57;
#X msg 198 443 53;
#X obj 154 472 t a;
#X obj 305 389 gate 3 1;
#X obj 309 364 t b b;
#X obj 300 465 t a;
#X msg 290 416 62;
#X obj 328 408 t b b;
#X obj 363 427 del 100;
#X msg 363 447 62;
#X msg 330 447 61;
#X msg 425 425 46;
#X obj 427 378 t b b;
#X obj 462 397 del 200;
#X obj 472 421 del 200;
#X obj 477 449 del 200;
#X obj 137 31 sel 1;
#X msg 137 50 set 0;
#X connect 0 0 4 0;
#X connect 1 0 4 0;
#X connect 2 0 4 0;
#X connect 3 0 4 0;
#X connect 4 0 15 0;
#X connect 5 0 4 0;
#X connect 6 0 4 0;
#X connect 7 0 10 0;
#X connect 8 0 4 0;
#X connect 10 0 0 0;
#X connect 10 1 1 0;
#X connect 10 2 2 0;
#X connect 10 3 3 0;
#X connect 10 4 5 0;
#X connect 10 5 8 0;
#X connect 10 6 6 0;
#X connect 11 0 12 0;
#X connect 12 0 13 0;
#X connect 13 0 16 0;
#X connect 13 0 23 0;
#X connect 14 0 36 0;
#X connect 15 0 17 0;
#X connect 15 1 24 0;
#X connect 15 2 9 0;
#X connect 16 0 19 0;
#X connect 16 1 18 0;
#X connect 17 0 16 1;
#X connect 17 1 11 0;
#X connect 18 0 20 0;
#X connect 18 1 21 0;
#X connect 19 0 22 0;
#X connect 20 0 22 0;
#X connect 21 0 22 0;
#X connect 22 0 9 0;
#X connect 23 0 26 0;
#X connect 23 1 27 0;
#X connect 23 2 32 0;
#X connect 24 0 23 1;
#X connect 25 0 9 0;
#X connect 26 0 25 0;
#X connect 27 0 30 0;
#X connect 27 1 28 0;
#X connect 28 0 29 0;
#X connect 29 0 25 0;
#X connect 30 0 25 0;
#X connect 31 0 25 0;
#X connect 32 0 31 0;
#X connect 32 1 33 0;
#X connect 33 0 31 0;
#X connect 33 0 34 0;
#X connect 34 0 31 0;
#X connect 34 0 35 0;
#X connect 35 0 31 0;
#X connect 36 0 37 0;
#X restore 155 97 pd song_oneNote;
#X text 801 18 melody \, play one by one;
#X obj 155 123 makenote 100 5000;
#X obj 25 126 makenote 100 5000;
#X obj 183 265 counter 6 0;
#X obj 234 218 sel 1;
#X msg 234 237 set 0;
#X obj 188 205 t b b;
#X obj 134 205 t b b;
#X obj 138 301 i;
#X obj 204 302 i;
#X connect 0 0 63 0;
#X connect 1 0 2 0;
#X connect 2 0 64 0;
#X connect 4 0 64 0;
#X connect 5 0 77 0;
#X connect 5 1 33 0;
#X connect 6 0 76 0;
#X connect 6 1 7 0;
#X connect 7 0 71 0;
#X connect 8 0 63 0;
#X connect 9 0 3 0;
#X connect 12 0 14 0;
#X connect 13 0 15 0;
#X connect 14 0 5 0;
#X connect 14 0 28 0;
#X connect 15 0 6 0;
#X connect 15 0 28 1;
#X connect 18 0 20 0;
#X connect 20 0 24 0;
#X connect 20 0 29 0;
#X connect 21 0 16 0;
#X connect 21 0 19 0;
#X connect 21 0 15 1;
#X connect 21 0 14 1;
#X connect 21 0 69 0;
#X connect 21 0 68 0;
#X connect 21 0 74 0;
#X connect 22 0 21 0;
#X connect 22 1 21 1;
#X connect 23 0 20 0;
#X connect 24 0 21 0;
#X connect 25 0 20 0;
#X connect 26 0 15 0;
#X connect 27 0 14 0;
#X connect 29 0 22 0;
#X connect 30 0 32 0;
#X connect 30 0 4 0;
#X connect 32 0 31 0;
#X connect 33 0 72 0;
#X connect 34 0 11 0;
#X connect 35 0 43 0;
#X connect 36 0 43 0;
#X connect 37 0 36 0;
#X connect 37 1 38 0;
#X connect 38 0 35 0;
#X connect 39 0 43 0;
#X connect 40 0 39 0;
#X connect 40 1 37 0;
#X connect 40 2 41 0;
#X connect 41 0 46 0;
#X connect 41 1 42 0;
#X connect 42 0 47 0;
#X connect 44 0 40 0;
#X connect 45 0 41 0;
#X connect 46 0 43 0;
#X connect 47 0 43 0;
#X connect 51 0 53 0;
#X connect 52 0 51 0;
#X connect 53 0 54 0;
#X connect 54 0 55 0;
#X connect 55 0 56 0;
#X connect 56 0 57 0;
#X connect 59 0 60 0;
#X connect 61 0 59 0;
#X connect 63 0 1 0;
#X connect 63 1 2 1;
#X connect 63 2 2 2;
#X connect 64 0 34 0;
#X connect 68 0 72 0;
#X connect 69 0 71 0;
#X connect 71 0 8 0;
#X connect 71 1 8 1;
#X connect 72 0 0 0;
#X connect 72 1 0 1;
#X connect 73 0 78 1;
#X connect 73 0 79 1;
#X connect 74 0 75 0;
#X connect 75 0 73 0;
#X connect 76 0 79 0;
#X connect 76 1 73 0;
#X connect 77 0 78 0;
#X connect 77 1 73 0;
#X connect 78 0 68 1;
#X connect 79 0 69 1;
