#N canvas 155 121 1125 657 10;
#X obj 26 202 - 1;
#X obj 26 220 pack f f f;
#X msg 661 483 all algorithm \$1;
#N canvas 276 77 1004 572 randomisation 0;
#X obj 37 37 inlet;
#X obj 54 450 outlet;
#X obj 55 420 list trim;
#X obj 171 188 text define pre;
#X obj 57 394 text get pre;
#X obj 59 334 bng 16 250 50 0 empty empty empty 0 -8 0 10 #fcfcfc #000000 #000000;
#X msg 171 159 read dx7_preset\$1.txt;
#X floatatom 163 51 5 0 26 0 - - - 0;
#X obj 103 87 t b a;
#X obj 58 358 uzi 38 0;
#X obj 199 106 % 26;
#X floatatom 246 110 5 0 0 0 - - - 0;
#X obj 228 54 t b;
#X msg 204 80 21;
#X connect 0 0 8 0;
#X connect 2 0 1 0;
#X connect 4 0 2 0;
#X connect 5 0 9 0;
#X connect 6 0 3 0;
#X connect 7 0 8 0;
#X connect 8 0 5 0;
#X connect 8 1 10 0;
#X connect 9 2 4 0;
#X connect 10 0 6 0;
#X connect 10 0 11 0;
#X connect 12 0 13 0;
#X connect 13 0 10 0;
#X restore 279 379 pd randomisation;
#N canvas 152 189 450 300 algorithmPicker 0;
#X msg 413 106 9;
#X msg 447 105 24;
#X msg 218 105 32;
#X msg 184 105 31;
#X msg 83 103 27;
#X msg 378 107 23;
#X msg 51 105 22;
#X msg 20 106 21;
#X msg 117 104 20;
#X msg 478 108 14;
#X msg 250 107 13;
#X msg 509 108 12;
#X msg 539 109 11;
#X msg 314 108 8;
#X msg 280 108 7;
#X msg 149 105 5;
#X msg 345 109 1;
#X obj 104 156 outlet;
#X obj 96 75 sel 0 1 2 3 4 5 6 7 8 9 10 11 12 13 14 15 16, f 66;
#X obj 97 37 % 17;
#X obj 97 8 inlet;
#X connect 0 0 17 0;
#X connect 1 0 17 0;
#X connect 2 0 17 0;
#X connect 3 0 17 0;
#X connect 4 0 17 0;
#X connect 5 0 17 0;
#X connect 6 0 17 0;
#X connect 7 0 17 0;
#X connect 8 0 17 0;
#X connect 9 0 17 0;
#X connect 10 0 17 0;
#X connect 11 0 17 0;
#X connect 12 0 17 0;
#X connect 13 0 17 0;
#X connect 14 0 17 0;
#X connect 15 0 17 0;
#X connect 16 0 17 0;
#X connect 18 0 7 0;
#X connect 18 1 6 0;
#X connect 18 2 4 0;
#X connect 18 3 8 0;
#X connect 18 4 15 0;
#X connect 18 5 3 0;
#X connect 18 6 2 0;
#X connect 18 7 10 0;
#X connect 18 8 14 0;
#X connect 18 9 13 0;
#X connect 18 10 16 0;
#X connect 18 11 5 0;
#X connect 18 12 0 0;
#X connect 18 13 1 0;
#X connect 18 14 9 0;
#X connect 18 15 11 0;
#X connect 18 16 12 0;
#X connect 19 0 18 0;
#X connect 20 0 19 0;
#X restore 660 459 pd algorithmPicker;
#X obj 665 513 print algorithm;
#X obj 27 598 outlet~;
#X obj 60 11 r sensor1;
#X obj 166 12 r sensor2;
#X obj 534 242 switch~;
#X text 536 18 mode;
#X obj 536 41 r mode;
#X obj 565 212 tgl 19 0 empty empty empty 0 -10 0 12 #fcfcfc #000000 #000000 0 1;
#X obj 535 79 t a;
#X obj 538 174 ||;
#X obj 539 147 t b a;
#X msg 592 64 5;
#X obj 509 120 == 9;
#X msg 592 41 9;
#X obj 269 11 tgl 16 0 empty empty empty 0 -8 0 10 #fcfcfc #000000 #000000 0 1;
#X obj 8 9 tgl 16 0 empty empty empty 0 -8 0 10 #fcfcfc #000000 #000000 0 1;
#X obj 550 119 == 6;
#X obj 440 13 r my_id;
#X msg 922 265 50;
#X msg 889 264 47;
#X obj 888 221 t b b;
#X obj 920 248 del 100;
#X msg 824 250 58;
#X obj 826 181 sel 0 1 2 3 4 5 6 7;
#X obj 966 221 t b b;
#X obj 998 248 del 100;
#X obj 912 293 t a;
#X obj 857 148 counter 2 0;
#X obj 976 192 bng 16 250 50 0 empty empty empty 0 -8 0 10 #fcfcfc #000000 #000000;
#X msg 968 266 63;
#X msg 1000 265 67;
#N canvas 413 265 450 300 noteChoice1 0;
#X msg 38 182 36;
#X msg 85 180 48;
#X obj 57 98 gate 3 1;
#X msg 10 182 55;
#X obj 11 155 sel 0 1;
#X obj 64 155 sel 0 1;
#X obj 20 131 tgl 16 0 empty empty empty 0 -8 0 10 #fcfcfc #000000 #000000 0 1;
#X obj 64 131 tgl 16 0 empty empty empty 0 -8 0 10 #fcfcfc #000000 #000000 0 1;
#X msg 64 181 36;
#X msg 135 179 48;
#X obj 114 154 sel 0 1;
#X obj 114 130 tgl 16 0 empty empty empty 0 -8 0 10 #fcfcfc #000000 #000000 0 1;
#X msg 114 180 55;
#X obj 34 24 inlet;
#X obj 241 30 inlet;
#X obj 79 239 outlet;
#X connect 0 0 15 0;
#X connect 1 0 15 0;
#X connect 2 0 6 0;
#X connect 2 1 7 0;
#X connect 2 2 11 0;
#X connect 3 0 15 0;
#X connect 4 0 3 0;
#X connect 4 1 0 0;
#X connect 5 0 8 0;
#X connect 5 1 1 0;
#X connect 6 0 4 0;
#X connect 7 0 5 0;
#X connect 8 0 15 0;
#X connect 9 0 15 0;
#X connect 10 0 12 0;
#X connect 10 1 9 0;
#X connect 11 0 10 0;
#X connect 12 0 15 0;
#X connect 13 0 2 1;
#X connect 14 0 2 0;
#X restore 797 111 pd noteChoice1;
#N canvas 446 478 450 300 noteChoice2 0;
#X msg 92 157 40;
#X msg 121 157 52;
#X obj 65 84 gate 3 1;
#X msg 65 157 57;
#X obj 66 132 sel 0 1;
#X obj 63 109 tgl 16 0 empty empty empty 0 -8 0 10 #fcfcfc #000000 #000000 0 1;
#X obj 115 132 sel 0 1;
#X obj 112 109 tgl 16 0 empty empty empty 0 -8 0 10 #fcfcfc #000000 #000000 0 1;
#X msg 149 157 40;
#X msg 178 158 52;
#X obj 172 133 sel 0 1;
#X obj 169 110 tgl 16 0 empty empty empty 0 -8 0 10 #fcfcfc #000000 #000000 0 1;
#X msg 206 158 57;
#X obj 43 24 inlet;
#X obj 270 27 inlet;
#X obj 119 219 outlet;
#X connect 0 0 15 0;
#X connect 1 0 15 0;
#X connect 2 0 5 0;
#X connect 2 1 7 0;
#X connect 2 2 11 0;
#X connect 3 0 15 0;
#X connect 4 0 3 0;
#X connect 4 1 0 0;
#X connect 5 0 4 0;
#X connect 6 0 1 0;
#X connect 6 1 8 0;
#X connect 7 0 6 0;
#X connect 8 0 15 0;
#X connect 9 0 15 0;
#X connect 10 0 9 0;
#X connect 10 1 12 0;
#X connect 11 0 10 0;
#X connect 12 0 15 0;
#X connect 13 0 2 1;
#X connect 14 0 2 0;
#X restore 807 77 pd noteChoice2;
#N canvas 131 166 859 578 songChoice 0;
#X obj 294 32 inlet;
#X obj 186 239 outlet;
#X obj 167 35 inlet;
#X obj 354 33 inlet;
#N canvas 47 74 996 528 song_melody 0;
#X obj 85 277 t a;
#X obj 837 59 inlet;
#X obj 381 488 outlet;
#X obj 99 368 random 3;
#X obj 99 389 % 3;
#X obj 99 410 + 1;
#X obj 53 19 inlet;
#X obj 175 310 i;
#X obj 266 311 route 57 62;
#X obj 155 390 gate 3 1;
#X obj 201 367 t b b;
#X obj 169 417 t b b;
#X msg 140 417 57;
#X msg 169 443 57;
#X msg 198 443 53;
#X obj 154 472 t a;
#X obj 305 389 gate 3 1;
#X obj 309 364 t b b;
#X obj 300 465 t a;
#X msg 290 416 62;
#X obj 328 408 t b b;
#X obj 363 427 del 100;
#X msg 363 447 62;
#X msg 330 447 61;
#X msg 425 425 46;
#X obj 427 378 t b b;
#X obj 462 397 del 200;
#X obj 472 421 del 200;
#X obj 477 449 del 200;
#X obj 54 38 t a a;
#X obj 158 40 sel 1;
#X obj 55 57 metro 800;
#X msg 44 135 60;
#X msg 75 135 62;
#X msg 110 135 60;
#X msg 140 135 62;
#X msg 171 135 64;
#X msg 203 135 65;
#X msg 232 134 67;
#X msg 265 135 72;
#X msg 296 135 69;
#X msg 343 159 67;
#X msg 373 159 64;
#X msg 404 159 62;
#X obj 50 108 sel 0 1 2 3 4 5 6 7 8 9 10 11 12, f 64;
#X obj 53 83 counter 12 0;
#X msg 160 61 set 0;
#X obj 631 492 outlet;
#X obj 402 134 t a b;
#X obj 628 338 count 3;
#X obj 638 394 sel 3;
#X connect 0 0 7 1;
#X connect 1 0 7 0;
#X connect 3 0 4 0;
#X connect 4 0 5 0;
#X connect 5 0 9 0;
#X connect 5 0 16 0;
#X connect 6 0 29 0;
#X connect 7 0 2 0;
#X connect 8 0 10 0;
#X connect 8 1 17 0;
#X connect 8 2 2 0;
#X connect 9 0 12 0;
#X connect 9 1 11 0;
#X connect 10 0 9 1;
#X connect 10 1 3 0;
#X connect 11 0 13 0;
#X connect 11 1 14 0;
#X connect 12 0 15 0;
#X connect 13 0 15 0;
#X connect 14 0 15 0;
#X connect 15 0 2 0;
#X connect 16 0 19 0;
#X connect 16 1 20 0;
#X connect 16 2 25 0;
#X connect 17 0 16 1;
#X connect 18 0 2 0;
#X connect 19 0 18 0;
#X connect 20 0 23 0;
#X connect 20 1 21 0;
#X connect 21 0 22 0;
#X connect 22 0 18 0;
#X connect 23 0 18 0;
#X connect 24 0 18 0;
#X connect 25 0 24 0;
#X connect 25 1 26 0;
#X connect 26 0 24 0;
#X connect 26 0 27 0;
#X connect 27 0 24 0;
#X connect 27 0 28 0;
#X connect 28 0 24 0;
#X connect 29 0 31 0;
#X connect 29 1 30 0;
#X connect 30 0 46 0;
#X connect 31 0 45 0;
#X connect 32 0 0 0;
#X connect 33 0 0 0;
#X connect 34 0 0 0;
#X connect 35 0 0 0;
#X connect 36 0 0 0;
#X connect 37 0 0 0;
#X connect 38 0 0 0;
#X connect 39 0 0 0;
#X connect 40 0 0 0;
#X connect 41 0 0 0;
#X connect 42 0 0 0;
#X connect 43 0 0 0;
#X connect 44 0 32 0;
#X connect 44 1 33 0;
#X connect 44 2 34 0;
#X connect 44 3 35 0;
#X connect 44 4 36 0;
#X connect 44 5 37 0;
#X connect 44 6 38 0;
#X connect 44 7 39 0;
#X connect 44 8 40 0;
#X connect 44 10 41 0;
#X connect 44 11 42 0;
#X connect 44 12 48 0;
#X connect 45 0 44 0;
#X connect 46 0 45 0;
#X connect 48 0 43 0;
#X connect 48 1 49 0;
#X connect 49 0 50 0;
#X connect 50 0 47 0;
#X restore 175 142 pd song_melody;
#X obj 211 100 gate 2 1;
#N canvas 47 74 996 528 song 0;
#X msg 44 135 48;
#X msg 75 135 55;
#X msg 110 135 60;
#X msg 140 135 64;
#X obj 85 277 t a;
#X msg 171 135 41;
#X msg 232 134 62;
#X obj 421 11 inlet;
#X msg 203 135 57;
#X obj 381 488 outlet;
#X obj 50 108 sel 0 1 2 3 4 5 6, f 19;
#X obj 53 83 counter 6 0;
#X obj 99 368 random 3;
#X obj 99 389 % 3;
#X obj 99 410 + 1;
#X obj 53 19 inlet;
#X obj 175 310 i;
#X obj 266 311 route 57 62;
#X obj 155 390 gate 3 1;
#X obj 201 367 t b b;
#X obj 169 417 t b b;
#X msg 140 417 57;
#X msg 169 443 57;
#X msg 198 443 53;
#X obj 154 472 t a;
#X obj 305 389 gate 3 1;
#X obj 309 364 t b b;
#X obj 300 465 t a;
#X msg 290 416 62;
#X obj 328 408 t b b;
#X obj 363 427 del 100;
#X msg 363 447 62;
#X msg 330 447 61;
#X msg 425 425 46;
#X obj 427 378 t b b;
#X obj 462 397 del 200;
#X obj 472 421 del 200;
#X obj 477 449 del 200;
#X obj 54 38 t a a;
#X obj 137 31 sel 1;
#X obj 55 57 metro 800;
#X msg 137 50 set 0;
#X connect 0 0 4 0;
#X connect 1 0 4 0;
#X connect 2 0 4 0;
#X connect 3 0 4 0;
#X connect 4 0 16 1;
#X connect 5 0 4 0;
#X connect 6 0 4 0;
#X connect 7 0 16 0;
#X connect 8 0 4 0;
#X connect 10 0 0 0;
#X connect 10 1 1 0;
#X connect 10 2 2 0;
#X connect 10 3 3 0;
#X connect 10 4 5 0;
#X connect 10 5 8 0;
#X connect 10 6 6 0;
#X connect 11 0 10 0;
#X connect 12 0 13 0;
#X connect 13 0 14 0;
#X connect 14 0 18 0;
#X connect 14 0 25 0;
#X connect 15 0 38 0;
#X connect 16 0 17 0;
#X connect 17 0 19 0;
#X connect 17 1 26 0;
#X connect 17 2 9 0;
#X connect 18 0 21 0;
#X connect 18 1 20 0;
#X connect 19 0 18 1;
#X connect 19 1 12 0;
#X connect 20 0 22 0;
#X connect 20 1 23 0;
#X connect 21 0 24 0;
#X connect 22 0 24 0;
#X connect 23 0 24 0;
#X connect 24 0 9 0;
#X connect 25 0 28 0;
#X connect 25 1 29 0;
#X connect 25 2 34 0;
#X connect 26 0 25 1;
#X connect 27 0 9 0;
#X connect 28 0 27 0;
#X connect 29 0 32 0;
#X connect 29 1 30 0;
#X connect 30 0 31 0;
#X connect 31 0 27 0;
#X connect 32 0 27 0;
#X connect 33 0 27 0;
#X connect 34 0 33 0;
#X connect 34 1 35 0;
#X connect 35 0 33 0;
#X connect 35 0 36 0;
#X connect 36 0 33 0;
#X connect 36 0 37 0;
#X connect 37 0 33 0;
#X connect 38 0 40 0;
#X connect 38 1 39 0;
#X connect 39 0 41 0;
#X connect 40 0 11 0;
#X connect 41 0 11 0;
#X restore 113 141 pd song;
#X msg 289 189 1;
#X connect 0 0 5 1;
#X connect 2 0 5 0;
#X connect 3 0 4 0;
#X connect 3 0 6 0;
#X connect 4 0 1 0;
#X connect 4 1 7 0;
#X connect 5 0 6 1;
#X connect 5 1 4 1;
#X connect 6 0 1 0;
#X connect 7 0 5 0;
#X restore 938 524 pd songChoice;
#X obj 928 387 i;
#X obj 928 365 sel 1;
#X obj 928 408 % 11;
#X obj 928 429 == 0;
#X obj 928 450 sel 1;
#X obj 928 471 del 10000;
#X msg 929 490 2;
#X obj 676 -7 inlet;
#X obj 672 117 i;
#X floatatom 672 143 5 0 0 0 - - - 0;
#N canvas 47 74 996 528 song 0;
#X msg 44 135 48;
#X msg 75 135 55;
#X msg 110 135 60;
#X msg 140 135 64;
#X obj 85 277 t a;
#X msg 171 135 41;
#X msg 232 134 62;
#X obj 421 11 inlet;
#X msg 203 135 57;
#X obj 381 488 outlet;
#X obj 50 108 sel 0 1 2 3 4 5 6, f 19;
#X obj 53 83 counter 6 0;
#X obj 99 368 random 3;
#X obj 99 389 % 3;
#X obj 99 410 + 1;
#X obj 53 19 inlet;
#X obj 175 310 i;
#X obj 266 311 route 57 62;
#X obj 155 390 gate 3 1;
#X obj 201 367 t b b;
#X obj 169 417 t b b;
#X msg 140 417 57;
#X msg 169 443 57;
#X msg 198 443 53;
#X obj 154 472 t a;
#X obj 305 389 gate 3 1;
#X obj 309 364 t b b;
#X obj 300 465 t a;
#X msg 290 416 62;
#X obj 328 408 t b b;
#X obj 363 427 del 100;
#X msg 363 447 62;
#X msg 330 447 61;
#X msg 425 425 46;
#X obj 427 378 t b b;
#X obj 462 397 del 200;
#X obj 472 421 del 200;
#X obj 477 449 del 200;
#X obj 54 38 t a a;
#X obj 137 31 sel 1;
#X obj 55 57 metro 800;
#X msg 137 50 set 0;
#X connect 0 0 4 0;
#X connect 1 0 4 0;
#X connect 2 0 4 0;
#X connect 3 0 4 0;
#X connect 4 0 16 1;
#X connect 5 0 4 0;
#X connect 6 0 4 0;
#X connect 7 0 16 0;
#X connect 8 0 4 0;
#X connect 10 0 0 0;
#X connect 10 1 1 0;
#X connect 10 2 2 0;
#X connect 10 3 3 0;
#X connect 10 4 5 0;
#X connect 10 5 8 0;
#X connect 10 6 6 0;
#X connect 11 0 10 0;
#X connect 12 0 13 0;
#X connect 13 0 14 0;
#X connect 14 0 18 0;
#X connect 14 0 25 0;
#X connect 15 0 38 0;
#X connect 16 0 17 0;
#X connect 17 0 19 0;
#X connect 17 1 26 0;
#X connect 17 2 9 0;
#X connect 18 0 21 0;
#X connect 18 1 20 0;
#X connect 19 0 18 1;
#X connect 19 1 12 0;
#X connect 20 0 22 0;
#X connect 20 1 23 0;
#X connect 21 0 24 0;
#X connect 22 0 24 0;
#X connect 23 0 24 0;
#X connect 24 0 9 0;
#X connect 25 0 28 0;
#X connect 25 1 29 0;
#X connect 25 2 34 0;
#X connect 26 0 25 1;
#X connect 27 0 9 0;
#X connect 28 0 27 0;
#X connect 29 0 32 0;
#X connect 29 1 30 0;
#X connect 30 0 31 0;
#X connect 31 0 27 0;
#X connect 32 0 27 0;
#X connect 33 0 27 0;
#X connect 34 0 33 0;
#X connect 34 1 35 0;
#X connect 35 0 33 0;
#X connect 35 0 36 0;
#X connect 36 0 33 0;
#X connect 36 0 37 0;
#X connect 37 0 33 0;
#X connect 38 0 40 0;
#X connect 38 1 39 0;
#X connect 39 0 41 0;
#X connect 40 0 11 0;
#X connect 41 0 11 0;
#X restore 832 360 pd song;
#N canvas 47 74 967 598 random_preset 0;
#X obj 550 71 t b b b b b b, f 50;
#X text 650 53 for each osc;
#X obj 825 95 t b b;
#X obj 780 96 t b b;
#X obj 727 95 t b b;
#X obj 665 95 t b b;
#X obj 607 92 t b b;
#X obj 547 98 t b b;
#X msg 576 128 6;
#X msg 636 122 5;
#X msg 694 125 4;
#X msg 756 125 3;
#X msg 809 126 2;
#X msg 854 125 1;
#N canvas 0 23 1106 623 randomise_osc 0;
#X obj 96 37 inlet;
#X obj 1057 260 inlet;
#X obj 120 439 outlet;
#X obj 115 136 random 4;
#X obj 115 157 sel 0 1 2 3;
#X msg 113 196 1;
#X floatatom 118 259 5 0 0 0 - - - 0;
#X obj 193 203 random 100;
#X obj 193 224 * 0.01;
#X obj 137 84 bng 15 250 50 0 empty empty empty 17 7 0 10 #fcfcfc #000000 #000000;
#X obj 119 300 pack f f;
#X msg 119 321 \$2 level \$1;
#X text 1049 237 osc num;
#X obj 348 162 sel 0 1 2 3;
#X msg 346 201 1;
#X floatatom 351 264 5 0 0 0 - - - 0;
#X obj 352 305 pack f f;
#X msg 352 326 \$2 ratio \$1;
#X msg 377 200 0.5;
#X obj 348 141 random 4;
#X obj 426 229 + 1;
#X obj 426 208 random 8;
#X obj 352 98 bng 15 250 50 0 empty empty empty 17 7 0 10 #fcfcfc #000000 #000000;
#X obj 523 113 t b b b b, f 74;
#X text 563 78 env;
#X text 533 134 a;
#X text 686 136 d;
#X text 826 137 s;
#X text 969 138 r;
#X obj 523 310 pack f f f f f, f 81;
#X msg 521 331 \$5 env \$1 \$2 \$3 \$4;
#X obj 515 181 random 8;
#X obj 515 202 sel 0 1 2 3 4 5 6 7;
#X msg 516 233 5;
#X obj 552 238 random 2000;
#X obj 664 167 random 100;
#X obj 664 188 * 0.01;
#X obj 664 214 *;
#X obj 664 244 *;
#X obj 664 265 * 3000;
#X obj 804 189 random 100;
#X obj 938 167 random 100;
#X obj 938 188 * 0.01;
#X obj 938 214 *;
#X obj 938 235 * 3000;
#X obj 351 284 i;
#X obj 155 242 clip 0.05 1;
#X connect 0 0 3 0;
#X connect 0 0 19 0;
#X connect 0 0 23 0;
#X connect 1 0 10 1;
#X connect 1 0 16 1;
#X connect 1 0 29 4;
#X connect 3 0 4 0;
#X connect 4 0 5 0;
#X connect 4 1 5 0;
#X connect 4 2 5 0;
#X connect 4 3 7 0;
#X connect 5 0 6 0;
#X connect 6 0 10 0;
#X connect 7 0 8 0;
#X connect 8 0 46 0;
#X connect 9 0 3 0;
#X connect 10 0 11 0;
#X connect 11 0 2 0;
#X connect 13 0 14 0;
#X connect 13 1 18 0;
#X connect 13 2 21 0;
#X connect 13 3 21 0;
#X connect 14 0 15 0;
#X connect 15 0 45 0;
#X connect 16 0 17 0;
#X connect 17 0 2 0;
#X connect 18 0 15 0;
#X connect 19 0 13 0;
#X connect 20 0 15 0;
#X connect 21 0 20 0;
#X connect 22 0 19 0;
#X connect 23 0 31 0;
#X connect 23 1 35 0;
#X connect 23 2 40 0;
#X connect 23 3 41 0;
#X connect 29 0 30 0;
#X connect 30 0 2 0;
#X connect 31 0 32 0;
#X connect 32 0 33 0;
#X connect 32 1 33 0;
#X connect 32 2 33 0;
#X connect 32 3 33 0;
#X connect 32 4 34 0;
#X connect 32 5 33 0;
#X connect 32 6 33 0;
#X connect 32 7 34 0;
#X connect 33 0 29 0;
#X connect 34 0 29 0;
#X connect 35 0 36 0;
#X connect 36 0 37 1;
#X connect 36 0 38 1;
#X connect 36 0 37 0;
#X connect 37 0 38 0;
#X connect 38 0 39 0;
#X connect 39 0 29 1;
#X connect 40 0 29 2;
#X connect 41 0 42 0;
#X connect 42 0 43 1;
#X connect 42 0 43 0;
#X connect 43 0 44 0;
#X connect 44 0 29 3;
#X connect 45 0 16 0;
#X connect 46 0 6 0;
#X restore 551 182 pd randomise_osc;
#X obj 551 203 list prepend all toOscs;
#X obj 557 13 inlet;
#X obj 547 253 outlet;
#X connect 0 0 7 0;
#X connect 0 1 6 0;
#X connect 0 2 5 0;
#X connect 0 3 4 0;
#X connect 0 4 3 0;
#X connect 0 5 2 0;
#X connect 2 0 14 0;
#X connect 2 1 13 0;
#X connect 3 0 14 0;
#X connect 3 1 12 0;
#X connect 4 0 14 0;
#X connect 4 1 11 0;
#X connect 5 0 14 0;
#X connect 5 1 10 0;
#X connect 6 0 14 0;
#X connect 6 1 9 0;
#X connect 7 0 14 0;
#X connect 7 1 8 0;
#X connect 8 0 14 1;
#X connect 9 0 14 1;
#X connect 10 0 14 1;
#X connect 11 0 14 1;
#X connect 12 0 14 1;
#X connect 13 0 14 1;
#X connect 14 0 15 0;
#X connect 15 0 17 0;
#X connect 16 0 0 0;
#X restore 660 425 pd random_preset;
#X obj 26 183 poly 2 1, f 10;
#X obj 29 396 clone dx7Poly 2;
#X text 783 17 autoplay version;
#X obj 674 97 / 2;
#N canvas 51 97 1181 681 counter 0;
#X obj 144 100 inlet;
#X msg 54 199 0;
#X msg 296 316 0;
#X text 142 76 Start clock;
#X obj 46 102 inlet;
#X text 45 79 Stop;
#X obj 303 100 inlet;
#X text 302 78 Reset;
#X obj 137 420 outlet;
#X obj 477 98 loadbang;
#X text 475 73 Default BPM;
#X obj 138 338 counter 15 0;
#X obj 137 302 metro 166;
#X msg 143 204 1;
#X obj 388 260 expr 60000/$f1;
#X obj 388 284 i;
#X floatatom 411 314 5 0 0 0 - - - 0;
#X obj 388 235 line;
#X msg 389 210 \$1 5000;
#X obj 389 181 * 4;
#X text 429 181 1/16 notes;
#X obj 400 99 inlet;
#X text 400 78 BPM;
#X msg 478 127 70;
#X connect 0 0 13 0;
#X connect 1 0 12 0;
#X connect 2 0 11 0;
#X connect 4 0 1 0;
#X connect 6 0 2 0;
#X connect 9 0 23 0;
#X connect 11 0 8 0;
#X connect 12 0 11 0;
#X connect 13 0 12 0;
#X connect 14 0 15 0;
#X connect 15 0 16 0;
#X connect 15 0 12 1;
#X connect 17 0 14 0;
#X connect 18 0 17 0;
#X connect 19 0 18 0;
#X connect 21 0 19 0;
#X connect 23 0 19 0;
#X restore 673 78 pd counter;
#X f 17;
#X obj 676 34 sel 0 1;
#X obj 342 56 t b;
#X obj 619 134 change;
#X obj 27 572 hip~ 20;
#X obj 28 546 lop~ 600;
#X obj 705 14 tgl 16 0 empty empty empty 0 -8 0 10 #fcfcfc #000000 #000000 0 1;
#N canvas 176 23 1104 755 orchestrasong 0;
#X obj 26 105 midifile;
#X obj 25 -25 loadbang;
#X obj 15 236 unpack;
#X obj 671 -29 inlet;
#X obj 809 -28 inlet;
#X obj 146 117 print info;
#X obj 732 0 tgl 19 0 empty empty empty 0 -10 0 12 #fcfcfc #000000 #000000 0 1;
#X obj 865 3 tgl 19 0 empty empty empty 0 -10 0 12 #fcfcfc #000000 #000000 0 1;
#X obj 346 240 &&;
#X obj 25 145 route 144 128;
#X obj 15 210 route 147;
#X obj 440 238 &&;
#N canvas 536 77 539 701 ledstrip2 0;
#X obj 81 32 inlet;
#X obj 642 674 outlet;
#X obj 105 654 outlet;
#X obj 570 40 inlet;
#X obj 333 647 outlet;
#X obj 131 65 tgl 19 0 empty empty empty 0 -10 0 12 #fcfcfc #000000 #000000 0 1;
#X obj 81 95 pipe 125;
#X obj 81 64 t a a;
#X obj 130 131 tgl 19 0 empty empty empty 0 -10 0 12 #fcfcfc #000000 #000000 0 1;
#X obj 80 161 pipe 125;
#X obj 80 130 t a a;
#X obj 131 198 tgl 19 0 empty empty empty 0 -10 0 12 #fcfcfc #000000 #000000 0 1;
#X obj 81 228 pipe 125;
#X obj 81 197 t a a;
#X obj 131 318 tgl 19 0 empty empty empty 0 -10 0 12 #fcfcfc #000000 #000000 0 1;
#X obj 81 348 pipe 125;
#X obj 81 317 t a a;
#X obj 130 384 tgl 19 0 empty empty empty 0 -10 0 12 #fcfcfc #000000 #000000 0 1;
#X obj 246 66 pipe 125;
#X obj 80 383 t a a;
#X obj 295 92 tgl 19 0 empty empty empty 0 -10 0 12 #fcfcfc #000000 #000000 0 1;
#X obj 245 122 pipe 125;
#X obj 245 91 t a a;
#X obj 296 161 tgl 19 0 empty empty empty 0 -10 0 12 #fcfcfc #000000 #000000 0 1;
#X obj 246 191 pipe 125;
#X obj 246 160 t a a;
#X obj 296 228 tgl 19 0 empty empty empty 0 -10 0 12 #fcfcfc #000000 #000000 0 1;
#X obj 246 258 pipe 125;
#X obj 246 227 t a a;
#X obj 295 294 tgl 19 0 empty empty empty 0 -10 0 12 #fcfcfc #000000 #000000 0 1;
#X obj 245 324 pipe 125;
#X obj 245 293 t a a;
#X obj 296 361 tgl 19 0 empty empty empty 0 -10 0 12 #fcfcfc #000000 #000000 0 1;
#X obj 246 391 pipe 125;
#X obj 246 354 t a a;
#X obj 307 496 tgl 19 0 empty empty empty 0 -10 0 12 #fcfcfc #000000 #000000 0 1;
#X obj 248 499 t a b a;
#X obj 130 257 tgl 19 0 empty empty empty 0 -10 0 12 #fcfcfc #000000 #000000 0 1;
#X obj 80 287 pipe 125;
#X obj 80 256 t a a;
#X msg 573 112 clear;
#X obj 275 537 ||;
#X obj 247 418 route 0;
#X msg 248 472 0;
#X obj 572 78 t b b;
#X msg 533 73 0;
#X msg 635 112 0 0 0 0 0 0 0 0 0 0 0 0;
#X obj 655 625 pak 0 0 0 0 0 0 0 0 0 0 0 0, f 49;
#X obj 133 32 tgl 19 0 empty empty empty 0 -10 0 12 #fcfcfc #000000 #000000 0 1;
#X msg 645 170 set 0 0 0 0 0 0 0 0 0 0 0 0;
#X obj 247 447 delay 500;
#X connect 0 0 7 0;
#X connect 3 0 44 0;
#X connect 6 0 10 0;
#X connect 7 0 6 0;
#X connect 7 1 5 0;
#X connect 7 1 47 0;
#X connect 9 0 13 0;
#X connect 10 0 9 0;
#X connect 10 1 8 0;
#X connect 10 1 47 1;
#X connect 12 0 39 0;
#X connect 13 0 12 0;
#X connect 13 1 11 0;
#X connect 13 1 47 2;
#X connect 15 0 19 0;
#X connect 16 0 15 0;
#X connect 16 1 14 0;
#X connect 16 1 47 4;
#X connect 18 0 22 0;
#X connect 19 0 18 0;
#X connect 19 1 17 0;
#X connect 19 1 47 5;
#X connect 21 0 25 0;
#X connect 22 0 21 0;
#X connect 22 1 20 0;
#X connect 22 1 47 6;
#X connect 24 0 28 0;
#X connect 25 0 24 0;
#X connect 25 1 23 0;
#X connect 25 1 47 7;
#X connect 27 0 31 0;
#X connect 28 0 27 0;
#X connect 28 1 26 0;
#X connect 28 1 47 8;
#X connect 30 0 34 0;
#X connect 31 0 30 0;
#X connect 31 1 29 0;
#X connect 31 1 47 9;
#X connect 33 0 42 0;
#X connect 34 0 33 0;
#X connect 34 1 32 0;
#X connect 34 1 47 10;
#X connect 34 1 41 0;
#X connect 36 0 2 0;
#X connect 36 1 41 0;
#X connect 36 2 35 0;
#X connect 36 2 41 1;
#X connect 36 2 47 11;
#X connect 38 0 16 0;
#X connect 39 0 38 0;
#X connect 39 1 37 0;
#X connect 39 1 47 3;
#X connect 40 0 6 0;
#X connect 40 0 9 0;
#X connect 40 0 12 0;
#X connect 40 0 38 0;
#X connect 40 0 15 0;
#X connect 40 0 18 0;
#X connect 40 0 21 0;
#X connect 40 0 24 0;
#X connect 40 0 27 0;
#X connect 40 0 30 0;
#X connect 40 0 33 0;
#X connect 41 0 4 0;
#X connect 42 0 50 0;
#X connect 42 1 36 0;
#X connect 43 0 36 0;
#X connect 44 0 46 0;
#X connect 44 0 45 0;
#X connect 44 0 49 0;
#X connect 44 1 40 0;
#X connect 46 0 1 0;
#X connect 47 0 1 0;
#X connect 48 0 7 0;
#X connect 49 0 47 0;
#X connect 50 0 43 0;
#X restore 400 170 pd ledstrip2;
#N canvas 36 71 520 701 ledstrip1 0;
#X obj 81 32 inlet;
#X obj 639 659 outlet;
#X obj 78 651 outlet;
#X obj 572 42 inlet;
#X obj 280 650 outlet;
#X obj 132 32 tgl 19 0 empty empty empty 0 -10 0 12 #fcfcfc #000000 #000000 0 1;
#X obj 131 65 tgl 19 0 empty empty empty 0 -10 0 12 #fcfcfc #000000 #000000 0 1;
#X obj 81 95 pipe 125;
#X obj 81 64 t a a;
#X obj 130 131 tgl 19 0 empty empty empty 0 -10 0 12 #fcfcfc #000000 #000000 0 1;
#X obj 80 161 pipe 125;
#X obj 80 130 t a a;
#X obj 131 198 tgl 19 0 empty empty empty 0 -10 0 12 #fcfcfc #000000 #000000 0 1;
#X obj 81 228 pipe 125;
#X obj 81 197 t a a;
#X obj 131 318 tgl 19 0 empty empty empty 0 -10 0 12 #fcfcfc #000000 #000000 0 1;
#X obj 81 348 pipe 125;
#X obj 81 317 t a a;
#X obj 130 384 tgl 19 0 empty empty empty 0 -10 0 12 #fcfcfc #000000 #000000 0 1;
#X obj 246 66 pipe 125;
#X obj 80 383 t a a;
#X obj 295 92 tgl 19 0 empty empty empty 0 -10 0 12 #fcfcfc #000000 #000000 0 1;
#X obj 245 122 pipe 125;
#X obj 245 91 t a a;
#X obj 296 161 tgl 19 0 empty empty empty 0 -10 0 12 #fcfcfc #000000 #000000 0 1;
#X obj 246 191 pipe 125;
#X obj 246 160 t a a;
#X obj 296 228 tgl 19 0 empty empty empty 0 -10 0 12 #fcfcfc #000000 #000000 0 1;
#X obj 246 258 pipe 125;
#X obj 246 227 t a a;
#X obj 295 294 tgl 19 0 empty empty empty 0 -10 0 12 #fcfcfc #000000 #000000 0 1;
#X obj 245 324 pipe 125;
#X obj 245 293 t a a;
#X obj 296 361 tgl 19 0 empty empty empty 0 -10 0 12 #fcfcfc #000000 #000000 0 1;
#X obj 246 391 pipe 125;
#X obj 246 361 t a a;
#X obj 307 496 tgl 19 0 empty empty empty 0 -10 0 12 #fcfcfc #000000 #000000 0 1;
#X obj 248 499 t a b a;
#X obj 130 257 tgl 19 0 empty empty empty 0 -10 0 12 #fcfcfc #000000 #000000 0 1;
#X obj 80 287 pipe 125;
#X obj 80 256 t a a;
#X msg 573 112 clear;
#X obj 275 537 ||;
#X obj 247 418 route 0;
#X msg 248 472 0;
#X obj 572 78 t b b;
#X msg 533 73 0;
#X msg 635 112 0 0 0 0 0 0 0 0 0 0 0 0;
#X obj 655 625 pak 0 0 0 0 0 0 0 0 0 0 0 0, f 49;
#X msg 664 193 set 0 0 0 0 0 0 0 0 0 0 0 0;
#X obj 247 447 delay 500;
#X connect 0 0 8 0;
#X connect 3 0 45 0;
#X connect 5 0 8 0;
#X connect 7 0 11 0;
#X connect 8 0 7 0;
#X connect 8 1 6 0;
#X connect 8 1 48 0;
#X connect 10 0 14 0;
#X connect 11 0 10 0;
#X connect 11 1 9 0;
#X connect 11 1 48 1;
#X connect 13 0 40 0;
#X connect 14 0 13 0;
#X connect 14 1 12 0;
#X connect 14 1 48 2;
#X connect 16 0 20 0;
#X connect 17 0 16 0;
#X connect 17 1 15 0;
#X connect 17 1 48 4;
#X connect 19 0 23 0;
#X connect 20 0 19 0;
#X connect 20 1 18 0;
#X connect 20 1 48 5;
#X connect 22 0 26 0;
#X connect 23 0 22 0;
#X connect 23 1 21 0;
#X connect 23 1 48 6;
#X connect 25 0 29 0;
#X connect 26 0 25 0;
#X connect 26 1 24 0;
#X connect 26 1 48 7;
#X connect 28 0 32 0;
#X connect 29 0 28 0;
#X connect 29 1 27 0;
#X connect 29 1 48 8;
#X connect 31 0 35 0;
#X connect 32 0 31 0;
#X connect 32 1 30 0;
#X connect 32 1 48 9;
#X connect 34 0 43 0;
#X connect 35 0 34 0;
#X connect 35 1 33 0;
#X connect 35 1 48 10;
#X connect 35 1 42 0;
#X connect 37 0 2 0;
#X connect 37 1 42 0;
#X connect 37 2 36 0;
#X connect 37 2 42 1;
#X connect 37 2 48 11;
#X connect 39 0 17 0;
#X connect 40 0 39 0;
#X connect 40 1 38 0;
#X connect 40 1 48 3;
#X connect 41 0 7 0;
#X connect 41 0 10 0;
#X connect 41 0 13 0;
#X connect 41 0 39 0;
#X connect 41 0 16 0;
#X connect 41 0 19 0;
#X connect 41 0 22 0;
#X connect 41 0 25 0;
#X connect 41 0 28 0;
#X connect 41 0 31 0;
#X connect 41 0 34 0;
#X connect 42 0 4 0;
#X connect 43 0 50 0;
#X connect 43 1 37 0;
#X connect 44 0 37 0;
#X connect 45 0 47 0;
#X connect 45 0 46 0;
#X connect 45 0 49 0;
#X connect 45 1 41 0;
#X connect 47 0 1 0;
#X connect 48 0 1 0;
#X connect 49 0 48 0;
#X connect 50 0 44 0;
#X restore 303 167 pd ledstrip1;
#X obj 80 179 r instnum;
#X obj 298 609 s LEDstrip1;
#X obj 490 605 s LEDstrip2;
#X obj 320 310 s LEDaction1;
#X obj 442 306 s LEDaction2;
#X obj 752 80 ||;
#X obj 806 39 t b a;
#X msg 21 60 track -1;
#X obj 25 21 t b b;
#X msg 124 231 clear;
#X obj 345 209 t b a;
#X obj 439 211 t b a;
#X obj 394 231 tgl 19 0 empty empty empty 0 -10 0 12 #fcfcfc #000000 #000000 0 1;
#X obj 491 230 tgl 19 0 empty empty empty 0 -10 0 12 #fcfcfc #000000 #000000 0 1;
#X obj 53 406 pack 0 0;
#X obj 106 357 switch 2 1;
#X msg 139 322 0;
#X obj 190 413 + 1;
#X obj 139 299 t b a a;
#X obj 190 483 i;
#X obj 190 503 t b a;
#X obj 190 436 change;
#X obj 52 560 outlet;
#X obj 26 324 r midiplayreset;
#X msg 405 199 0;
#X msg 25 350 0;
#X obj 92 209 r midiplayreset;
#N canvas 47 74 995 502 muteMidi 0;
#X obj 88 197 pack 55 0;
#X text 165 173 mute!;
#X obj 89 171 uzi 127 0;
#X obj 89 148 t b;
#X obj 90 35 inlet;
#X obj 90 58 t b;
#X obj 88 226 outlet midinotes;
#X obj 193 58 t b;
#X obj 192 31 inlet;
#X obj 225 81 del 100;
#X obj 247 106 del 100;
#X connect 0 0 6 0;
#X connect 2 2 0 0;
#X connect 3 0 2 0;
#X connect 4 0 5 0;
#X connect 5 0 3 0;
#X connect 7 0 3 0;
#X connect 7 0 9 0;
#X connect 8 0 7 0;
#X connect 9 0 3 0;
#X connect 9 0 10 0;
#X connect 10 0 3 0;
#X restore 161 524 pd muteMidi;
#X obj 52 483 spigot;
#X text 717 -29 sensor1;
#X text 860 -26 sensor2;
#N canvas 110 143 1129 552 bowMoveData 0;
#X obj 173 174 > 64;
#X obj 126 174 > 64;
#X obj 235 148 route 54 55;
#X obj 127 148 route 102 103;
#X obj 149 124 gate 2 1;
#X obj 276 173 > 64;
#X obj 236 174 > 64;
#X text 145 199 bow movement choice;
#X text 156 215 this will change;
#X obj 93 55 inlet;
#X obj 241 49 inlet;
#X obj 115 293 outlet LED1;
#X obj 247 298 outlet LED2;
#X connect 0 0 12 0;
#X connect 1 0 11 0;
#X connect 2 0 6 0;
#X connect 2 1 5 0;
#X connect 3 0 1 0;
#X connect 3 1 0 0;
#X connect 4 0 3 0;
#X connect 4 1 2 0;
#X connect 5 0 12 0;
#X connect 6 0 11 0;
#X connect 9 0 4 0;
#X connect 10 0 4 1;
#X restore 299 111 pd bowMoveData;
#X obj 423 133 r midiplayreset;
#X obj 36 170 t a;
#X obj 490 522 LED_color;
#X obj 298 520 LED_color;
#X obj 375 452 loadbang;
#X obj 190 458 sel 2 1;
#X obj 210 31 i;
#X obj 331 -32 loadbang;
#X obj 232 66 tgl 19 0 empty empty empty 0 -10 0 12 #fcfcfc #000000 #000000 0 1;
#X obj 516 -23 inlet playmode;
#X obj 521 39 sel 1 0;
#X obj 511 6 t a a;
#X obj 526 69 s midiplayreset;
#X obj 685 236 route end;
#X obj 683 284 t b;
#X obj 684 260 route 7;
#X obj 673 309 s LEDreset;
#X obj 672 214 r midiplayreset;
#X obj 671 -2 t a;
#X obj 809 2 t a;
#X obj 299 446 t a b;
#X obj 487 405 t a b;
#X msg 549 482 0.1 0.5 1;
#X msg 358 479 0 0.8 0.8;
#X obj 476 -18 tgl 19 0 empty empty empty 0 -10 0 12 #fcfcfc #000000 #000000 0 1;
#X obj 243 165 > 10;
#X floatatom 157 144 10 0 0 0 - - - 0;
#X msg 101 81 track 8;
#X obj 330 -6 t b b;
#N canvas 41 274 740 384 tactselector 0;
#X obj 216 -6 r startPoint;
#X obj 216 24 sel 0 1 2 3;
#X obj 73 257 outlet;
#X obj 548 269 outlet;
#X obj 171 55 t b b;
#X obj 216 55 t b b;
#X obj 265 53 t b b;
#X obj 312 54 t b b;
#X obj 159 18 inlet;
#X obj 19 5 inlet loadbang;
#X obj 45 69 t b b;
#X msg 63 108 read Sym40_Takt_1-44_MidiTracks.mid;
#X msg 25 108 3300;
#X msg 116 137 read Sym40_Takt_22-44_MidiTracks.mid;
#X msg 81 137 1;
#X msg 232 165 read Sym40_Takt_57-101_MidiTrack.mid;
#X msg 278 194 read Sym40_Takt_388-End_MidiTracks.mid;
#X msg 244 195 600;
#X msg 197 165 3000;
#X connect 0 0 1 0;
#X connect 1 0 4 0;
#X connect 1 1 5 0;
#X connect 1 2 6 0;
#X connect 1 3 7 0;
#X connect 4 0 12 0;
#X connect 4 1 11 0;
#X connect 5 0 14 0;
#X connect 5 1 13 0;
#X connect 6 0 18 0;
#X connect 6 1 15 0;
#X connect 7 0 16 0;
#X connect 7 1 17 0;
#X connect 8 0 1 0;
#X connect 9 0 10 0;
#X connect 10 0 12 0;
#X connect 10 1 11 0;
#X connect 11 0 2 0;
#X connect 12 0 3 0;
#X connect 13 0 2 0;
#X connect 14 0 3 0;
#X connect 15 0 2 0;
#X connect 16 0 2 0;
#X connect 17 0 3 0;
#X connect 18 0 3 0;
#X restore 105 -22 pd tactselector;
#X obj 231 -24 hradio 19 1 0 4 empty empty empty 0 -10 0 12 #fcfcfc #000000 #000000 0;
#N canvas 41 274 740 384 tactselector 0;
#X msg 69 158 read symphony_550_3.mid;
#X msg 47 197 read symphony_550_4.mid;
#X msg 80 115 read symphony_550_1.mid;
#X msg 359 88 3300;
#X text 405 89 550_1 tact1;
#X text 410 127 550_3 tact55;
#X msg 511 86 53600;
#X obj 216 -6 r startPoint;
#X obj 216 24 sel 0 1 2 3;
#X obj 154 255 outlet;
#X obj 486 262 outlet;
#X text 563 83 550_1 tact14 of the old;
#X obj 148 60 t b b;
#X obj 224 59 t b b;
#X obj 279 60 t b b;
#X obj 337 59 t b b;
#X obj 159 18 inlet;
#X msg 288 139 77300;
#X msg 360 124 81300;
#X obj 10 23 inlet loadbang;
#X obj 45 69 t b b;
#X msg 357 167 754000;
#X msg 293 227 55000;
#X text 407 168 550_4 tact339;
#X msg 303 356 read symphony_550_3.mid;
#X msg 281 395 read symphony_550_4.mid;
#X msg 314 313 read symphony_550_1.mid;
#X connect 0 0 9 0;
#X connect 1 0 9 0;
#X connect 2 0 9 0;
#X connect 3 0 10 0;
#X connect 6 0 10 0;
#X connect 7 0 8 0;
#X connect 8 0 12 0;
#X connect 8 1 13 0;
#X connect 8 2 14 0;
#X connect 8 3 15 0;
#X connect 12 0 3 0;
#X connect 12 1 2 0;
#X connect 13 0 6 0;
#X connect 13 1 2 0;
#X connect 14 0 18 0;
#X connect 14 1 0 0;
#X connect 15 0 21 0;
#X connect 15 1 1 0;
#X connect 16 0 8 0;
#X connect 18 0 10 0;
#X connect 19 0 20 0;
#X connect 20 0 3 0;
#X connect 20 1 2 0;
#X connect 21 0 10 0;
#X restore 971 272 pd tactselector;
#X msg 989 221 149;
#X msg 1025 221 150;
#X msg 1064 223 151;
#X msg 944 222 148;
#X obj 369 268 tgl 19 0 empty empty empty 0 -10 0 12 #fcfcfc #000000 #000000 0 1;
#X obj 462 269 tgl 19 0 empty empty empty 0 -10 0 12 #fcfcfc #000000 #000000 0 1;
#X obj 365 47 route end;
#X obj 306 74 print;
#X obj 366 70 route 11;
#X obj 416 90 bng 19 250 50 0 empty empty empty 0 -10 0 12 #fcfcfc #000000 #000000;
#X obj 233 89 metro 1;
#N canvas 42 357 681 421 LEDdistributer 0;
#X obj 180 246 gate 2 1;
#N canvas 396 259 450 300 debouncer 0;
#X obj 74 38 inlet;
#X obj 102 177 outlet;
#X obj 72 65 sel 1 0;
#X msg 35 128 1;
#X msg 116 129 0;
#X obj 35 89 t a b;
#X msg 70 112 stop;
#X obj 115 93 del 250;
#X connect 0 0 2 0;
#X connect 2 0 5 0;
#X connect 2 1 7 0;
#X connect 3 0 1 0;
#X connect 4 0 1 0;
#X connect 5 0 3 0;
#X connect 5 1 6 0;
#X connect 6 0 7 0;
#X connect 7 0 4 0;
#X restore 228 99 pd debouncer;
#X obj 195 339 sel 0;
#X obj 276 336 tgl 19 0 empty empty empty 0 -10 0 12 #fcfcfc #000000 #000000 0 1;
#X obj 161 339 tgl 19 0 empty empty empty 0 -10 0 12 #fcfcfc #000000 #000000 0 1;
#X obj 162 303 t a a;
#X obj 264 302 t a a;
#X obj 227 47 inlet;
#X obj 339 175 + 1;
#X msg 338 151 1;
#X floatatom 368 200 5 0 0 0 - - - 0;
#X obj 339 200 % 4;
#X obj 340 128 sel 1 0;
#X obj 339 225 sel 3;
#X msg 369 151 -1;
#X obj 180 196 tgl 19 0 empty empty empty 0 -10 0 12 #fcfcfc #000000 #000000 0 1;
#X obj 180 220 + 1;
#X obj 196 363 t b b;
#X msg 126 340 0;
#X obj 299 372 t b b;
#X msg 246 336 0;
#X obj 258 249 t b b;
#X obj 163 453 outlet;
#X obj 277 452 outlet;
#X obj 541 49 inlet;
#X obj 472 50 loadbang;
#X obj 299 336 sel 0;
#X msg 549 149 0;
#X msg 495 172 1;
#X connect 0 0 5 0;
#X connect 0 1 6 0;
#X connect 1 0 12 0;
#X connect 1 0 0 1;
#X connect 2 0 17 0;
#X connect 3 0 23 0;
#X connect 4 0 22 0;
#X connect 5 0 4 0;
#X connect 5 1 2 0;
#X connect 6 0 3 0;
#X connect 6 1 26 0;
#X connect 7 0 1 0;
#X connect 8 0 11 0;
#X connect 9 0 8 0;
#X connect 11 0 8 1;
#X connect 11 0 10 0;
#X connect 11 0 13 0;
#X connect 12 0 9 0;
#X connect 12 1 14 0;
#X connect 13 0 21 0;
#X connect 14 0 8 1;
#X connect 15 0 16 0;
#X connect 16 0 0 0;
#X connect 17 0 18 0;
#X connect 17 1 15 0;
#X connect 18 0 4 0;
#X connect 19 0 20 0;
#X connect 19 1 15 0;
#X connect 20 0 3 0;
#X connect 21 0 15 0;
#X connect 21 1 20 0;
#X connect 21 1 18 0;
#X connect 24 0 28 0;
#X connect 24 0 14 0;
#X connect 24 0 27 0;
#X connect 25 0 28 0;
#X connect 25 0 27 0;
#X connect 26 0 19 0;
#X connect 27 0 1 0;
#X connect 28 0 15 0;
#X restore 281 135 pd LEDdistributer;
#X obj 92 255 pipe f f 1350;
#X obj 355 384 ||;
#X obj 412 364 t b a;
#X obj 373 518 unpack 0 0 0;
#X obj 375 545 *;
#X obj 408 546 *;
#X obj 439 546 *;
#X obj 375 572 pack 0 0 0;
#X obj 585 507 unpack f f f;
#X obj 572 576 pack f f f;
#X obj 573 549 * 1;
#X obj 605 550 * 1;
#X obj 636 550 * 1;
#X obj 776 537 r OchLEDfadeAmount;
#X text 1006 -31 instrument num;
#X obj 958 4 sel 0 1 2 3;
#X obj 1087 65 s instnum;
#X msg 1020 69 2;
#X msg 973 70 1;
#X text 1094 35 midi channel;
#X obj 973 96 t a;
#X obj 957 -31 r inst;
#X msg 929 32 147;
#X msg 974 31 148;
#X msg 1010 31 149;
#X msg 1049 33 150;
#X obj 1075 1 hradio 19 1 0 4 empty empty empty 0 -10 0 12 #fcfcfc #000000 #000000 0;
#X connect 0 0 9 0;
#X connect 0 1 72 0;
#X connect 0 2 5 0;
#X connect 0 2 84 0;
#X connect 1 0 22 0;
#X connect 2 0 90 0;
#X connect 2 1 71 0;
#X connect 2 1 90 1;
#X connect 3 0 64 0;
#X connect 4 0 65 0;
#X connect 6 0 64 0;
#X connect 7 0 65 0;
#X connect 8 0 17 0;
#X connect 8 0 82 0;
#X connect 8 0 91 0;
#X connect 9 0 47 0;
#X connect 9 1 47 0;
#X connect 9 2 10 0;
#X connect 10 0 2 0;
#X connect 11 0 18 0;
#X connect 11 0 83 0;
#X connect 11 0 92 0;
#X connect 12 1 25 0;
#X connect 12 2 67 0;
#X connect 13 1 24 0;
#X connect 13 2 66 0;
#X connect 14 0 10 1;
#X connect 20 0 19 0;
#X connect 20 1 19 1;
#X connect 21 0 0 0;
#X connect 22 0 21 0;
#X connect 22 1 75 0;
#X connect 23 0 90 0;
#X connect 24 0 8 0;
#X connect 24 1 8 1;
#X connect 24 1 26 0;
#X connect 25 0 11 0;
#X connect 25 1 11 1;
#X connect 25 1 27 0;
#X connect 28 0 42 0;
#X connect 29 0 28 1;
#X connect 30 0 29 1;
#X connect 31 0 29 0;
#X connect 31 0 35 0;
#X connect 32 0 30 0;
#X connect 32 1 33 1;
#X connect 32 2 29 2;
#X connect 33 0 34 0;
#X connect 34 0 28 0;
#X connect 34 1 28 1;
#X connect 35 0 51 0;
#X connect 37 0 39 0;
#X connect 37 0 41 1;
#X connect 38 0 11 1;
#X connect 38 0 8 1;
#X connect 39 0 28 0;
#X connect 40 0 23 0;
#X connect 41 0 36 0;
#X connect 42 0 36 0;
#X connect 46 0 13 1;
#X connect 46 0 12 1;
#X connect 46 0 38 0;
#X connect 47 0 45 1;
#X connect 48 0 16 0;
#X connect 49 0 15 0;
#X connect 50 0 69 0;
#X connect 50 0 68 0;
#X connect 51 0 33 0;
#X connect 51 1 41 0;
#X connect 52 0 0 0;
#X connect 53 0 74 0;
#X connect 54 0 88 0;
#X connect 55 0 57 0;
#X connect 56 0 52 0;
#X connect 56 0 68 0;
#X connect 56 0 69 0;
#X connect 56 1 58 0;
#X connect 56 1 89 1;
#X connect 57 0 54 0;
#X connect 57 1 56 0;
#X connect 57 1 42 1;
#X connect 59 0 61 0;
#X connect 60 0 62 0;
#X connect 61 0 60 0;
#X connect 63 0 62 0;
#X connect 64 0 19 0;
#X connect 64 0 8 0;
#X connect 65 0 20 0;
#X connect 65 0 11 0;
#X connect 66 0 49 0;
#X connect 67 0 48 0;
#X connect 68 0 48 1;
#X connect 68 0 98 0;
#X connect 69 0 93 0;
#X connect 69 0 49 1;
#X connect 70 0 57 0;
#X connect 71 0 89 0;
#X connect 73 0 0 0;
#X connect 74 0 76 0;
#X connect 75 0 0 0;
#X connect 75 1 52 1;
#X connect 76 0 75 1;
#X connect 84 0 86 0;
#X connect 86 0 85 0;
#X connect 86 0 87 0;
#X connect 88 0 0 0;
#X connect 89 0 13 0;
#X connect 89 1 12 0;
#X connect 90 0 28 0;
#X connect 90 1 32 0;
#X connect 91 0 31 0;
#X connect 92 0 91 0;
#X connect 92 1 91 1;
#X connect 93 0 94 1;
#X connect 93 1 95 1;
#X connect 93 2 96 1;
#X connect 94 0 97 0;
#X connect 95 0 97 1;
#X connect 96 0 97 2;
#X connect 97 0 49 1;
#X connect 98 0 100 1;
#X connect 98 1 101 1;
#X connect 98 2 102 1;
#X connect 99 0 48 1;
#X connect 100 0 99 0;
#X connect 101 0 99 1;
#X connect 102 0 99 2;
#X connect 103 0 102 0;
#X connect 103 0 101 0;
#X connect 103 0 100 0;
#X connect 103 0 96 0;
#X connect 103 0 95 0;
#X connect 103 0 94 0;
#X connect 105 0 112 0;
#X connect 105 0 108 0;
#X connect 105 1 113 0;
#X connect 105 1 108 0;
#X connect 105 2 114 0;
#X connect 105 2 108 0;
#X connect 105 3 115 0;
#X connect 105 3 107 0;
#X connect 107 0 110 0;
#X connect 108 0 110 0;
#X connect 110 0 0 0;
#X connect 111 0 105 0;
#X connect 112 0 106 0;
#X connect 113 0 106 0;
#X connect 114 0 106 0;
#X connect 115 0 106 0;
#X connect 116 0 105 0;
#X restore 75 76 pd orchestrasong;
#X obj 29 67 tgl 16 0 empty empty empty 0 -8 0 10 #fcfcfc #000000 #000000 0 1;
#X obj 29 494 *~ 0.5;
#X obj 61 33 spigot;
#X obj 165 33 spigot;
#X connect 0 0 1 0;
#X connect 1 0 52 0;
#X connect 3 0 52 0;
#X connect 4 0 2 0;
#X connect 7 0 65 0;
#X connect 8 0 66 0;
#X connect 11 0 13 0;
#X connect 13 0 17 0;
#X connect 13 0 21 0;
#X connect 14 0 9 0;
#X connect 14 0 12 0;
#X connect 14 0 66 1;
#X connect 14 0 65 1;
#X connect 15 0 14 0;
#X connect 15 1 14 1;
#X connect 16 0 13 0;
#X connect 17 0 14 0;
#X connect 18 0 13 0;
#X connect 19 0 62 2;
#X connect 20 0 62 1;
#X connect 21 0 15 0;
#X connect 22 0 3 0;
#X connect 23 0 31 0;
#X connect 24 0 31 0;
#X connect 25 0 24 0;
#X connect 25 1 26 0;
#X connect 26 0 23 0;
#X connect 27 0 31 0;
#X connect 28 0 27 0;
#X connect 28 1 25 0;
#X connect 28 2 29 0;
#X connect 29 0 34 0;
#X connect 29 1 30 0;
#X connect 30 0 35 0;
#X connect 32 0 28 0;
#X connect 33 0 29 0;
#X connect 34 0 31 0;
#X connect 35 0 31 0;
#X connect 39 0 41 0;
#X connect 40 0 39 0;
#X connect 41 0 42 0;
#X connect 42 0 43 0;
#X connect 43 0 44 0;
#X connect 44 0 45 0;
#X connect 46 0 56 0;
#X connect 46 0 62 0;
#X connect 47 0 48 0;
#X connect 47 0 58 0;
#X connect 51 0 0 0;
#X connect 51 1 1 1;
#X connect 51 2 1 2;
#X connect 52 0 64 0;
#X connect 54 0 47 0;
#X connect 55 0 54 0;
#X connect 56 0 55 0;
#X connect 56 1 55 1;
#X connect 56 1 55 2;
#X connect 58 0 57 0;
#X connect 59 0 6 0;
#X connect 60 0 59 0;
#X connect 61 0 56 0;
#X connect 62 0 51 0;
#X connect 63 0 62 0;
#X connect 64 0 60 0;
#X connect 65 0 62 1;
#X connect 66 0 62 2;
