#N canvas 30 31 1250 747 12;
#X obj 72 684 inlet;
#X obj 120 685 tgl 19 0 empty empty empty 0 -10 0 12 #fcfcfc #000000 #000000 0 1;
#X obj 648 887 switch~;
#X text 67 659 play/stop;
#X text 650 663 mode;
#X obj 72 715 sel 0 1;
#N canvas 51 97 1181 681 counter 0;
#X obj 144 100 inlet;
#X msg 54 199 0;
#X msg 296 316 0;
#X text 142 76 Start clock;
#X obj 46 102 inlet;
#X text 45 79 Stop;
#X obj 303 100 inlet;
#X text 302 78 Reset;
#X obj 137 420 outlet;
#X obj 477 98 loadbang;
#X text 475 73 Default BPM;
#X obj 138 338 counter 15 0;
#X obj 137 302 metro 166;
#X msg 143 204 1;
#X obj 388 260 expr 60000/$f1;
#X obj 388 284 i;
#X floatatom 411 314 5 0 0 0 - - - 0;
#X obj 388 235 line;
#X msg 389 210 \$1 5000;
#X obj 389 181 * 4;
#X text 429 181 1/16 notes;
#X obj 400 99 inlet;
#X text 400 78 BPM;
#X msg 478 127 60;
#X connect 0 0 13 0;
#X connect 1 0 12 0;
#X connect 2 0 11 0;
#X connect 4 0 1 0;
#X connect 6 0 2 0;
#X connect 9 0 23 0;
#X connect 11 0 8 0;
#X connect 12 0 11 0;
#X connect 13 0 12 0;
#X connect 14 0 15 0;
#X connect 15 0 16 0;
#X connect 15 0 12 1;
#X connect 17 0 14 0;
#X connect 18 0 17 0;
#X connect 19 0 18 0;
#X connect 21 0 19 0;
#X connect 23 0 19 0;
#X restore 948 134 pd counter;
#X f 17;
#X obj 1058 91 bng 19 250 50 0 empty empty empty 0 -10 0 12 #fcfcfc #000000 #000000;
#X text 1054 71 Reset;
#X text 19 10 Drumline;
#X floatatom 110 160 5 0 0 0 - - - 0;
#X obj 262 138 spigot;
#X text 68 50 Kick;
#X text 473 51 Snare;
#X text 46 243 Sequences;
#X floatatom 472 162 5 0 0 0 - - - 0;
#X obj 669 139 spigot;
#X text 110 11 The last position sends the message back to the subcscription server;
#X text 1140 959 The missing components are: Identifying *just* the performer's instruments Receiving the pattern the zmq controller and applying it to the correct sequence;
#X obj 105 744 s \$0-start;
#X obj 21 744 s \$0-stop;
#X obj 894 60 r \$0-stop;
#X obj 974 59 r \$0-start;
#X obj 796 693 inlet;
#X obj 796 722 t b;
#X text 40 819 Receive network sequences;
#X text 1052 420 Output audio;
#X text 792 667 reset drums;
#X obj 63 844 r seq;
#X text 25 630 ==== Network Messages ==== DO NOT MOVE THEM \, THE INLETS ARE VERY IMPORTANT, f 76;
#X obj 30 381 list prepend kick;
#X obj 30 544 list trim;
#X obj 252 538 list trim;
#X obj 243 376 list prepend snare;
#X obj 26 582 s seq_message \$1;
#X obj 907 693 inlet;
#X text 903 667 jam mode;
#X obj 953 694 tgl 19 0 empty empty empty 0 -10 0 12 #fcfcfc #000000 #000000 0 1;
#X obj 907 722 t a;
#X obj 905 751 s \$0-jamstate;
#N canvas 399 174 867 604 inputKick 0;
#X obj 105 90 spigot;
#X obj 105 65 t a a;
#X obj 53 17 inlet;
#X obj 105 119 tabwrite \$0-kickSequence;
#X obj 306 119 r \$0-bar;
#X connect 0 0 3 0;
#X connect 1 0 0 0;
#X connect 1 1 0 1;
#X connect 2 0 1 0;
#X connect 4 0 3 1;
#X restore 1194 741 pd inputKick;
#N canvas 42 294 500 484 Sequencer_Kick 0;
#X floatatom 87 156 5 0 0 0 - - - 0;
#X obj 12 155 bng 19 250 50 0 empty empty empty 0 -10 0 12 #fcfcfc #000000 #000000;
#N canvas 0 433 500 229 kickSequences 0;
#N canvas 614 639 450 278 (subpatch) 0;
#X array \$0-kickSequence 16 float 2;
#X coords 0 2 16 -1 200 140 1 0 0;
#X restore 16 28 graph;
#X restore 12 15 pd kickSequences;
#X obj 12 126 r \$0-kickmsg;
#X obj 12 184 array get \$0-kickSequence;
#X msg 156 88 \; \$1-kickSequence const 0;
#X obj 16 70 f \$0;
#X obj 139 47 bng 19 250 50 0 empty empty empty 0 -10 0 12 #fcfcfc #000000 #000000;
#X obj 15 47 r \$0-resetDrum;
#X obj 172 47 r \$0-resetK;
#X connect 0 0 4 1;
#X connect 1 0 4 0;
#X connect 3 0 1 0;
#X connect 6 0 5 0;
#X connect 7 0 6 0;
#X connect 8 0 6 0;
#X connect 9 0 6 0;
#X restore 130 239 pd Sequencer_Kick;
#N canvas 60 390 712 380 Sequencer_Snare 0;
#X floatatom 93 34 5 0 0 0 - - - 0;
#X obj 14 33 bng 19 250 50 0 empty empty empty 0 -10 0 12 #fcfcfc #000000 #000000;
#N canvas 188 82 276 375 snareSequences 0;
#N canvas 14 500 450 278 (subpatch) 0;
#X array \$0-snareSequence 16 float 2;
#X coords 0 2 16 -1 200 140 1 0 0;
#X restore 17 25 graph;
#X restore 14 -107 pd snareSequences;
#X obj 14 4 r \$0-snaremsg;
#X obj 14 -83 r \$0-resetDrum;
#X obj 14 62 array get \$0-snareSequence;
#X msg 14 -39 \; \$1-snareSequence const 0;
#X obj 14 -61 f \$0;
#X obj 128 -81 r \$0-resetS;
#X connect 0 0 5 1;
#X connect 1 0 5 0;
#X connect 3 0 1 0;
#X connect 4 0 7 0;
#X connect 7 0 6 0;
#X connect 8 0 7 0;
#X restore 273 241 pd Sequencer_Snare;
#N canvas 259 98 906 521 inputSnare 0;
#X obj 110 107 spigot;
#X obj 110 78 t a a;
#X obj 122 45 inlet;
#X obj 111 138 tabwrite \$0-snareSequence;
#X obj 333 134 r \$0-bar;
#X connect 0 0 3 0;
#X connect 1 0 0 0;
#X connect 1 1 0 1;
#X connect 2 0 1 0;
#X connect 4 0 3 1;
#X restore 1305 739 pd inputSnare;
#X obj 62 874 route kick snare hat H_kick;
#X obj 256 705 spigot;
#X obj 385 708 spigot;
#X obj 650 686 r mode;
#X obj 679 857 tgl 19 0 empty empty empty 0 -10 0 12 #fcfcfc #000000 #000000 0 1;
#X obj 649 724 t a;
#X obj 652 819 ||;
#X obj 653 792 t b a;
#X obj 623 765 == 5;
#X obj 664 764 == 6;
#X msg 706 686 4;
#X msg 706 709 5;
#X msg 705 735 6;
#X obj 1303 590 spigot;
#X obj 1194 586 spigot;
#X text 1167 475 if you are aki \, you input looper;
#X obj 1373 586 r \$0-jamstate;
#X obj 1374 610 - 1;
#X obj 1374 634 abs;
#X obj 260 484 + 1;
#X obj 52 486 + 1;
#X obj 29 294 spigot;
#X obj 242 296 spigot;
#X obj 4 441 list prepend 200;
#X obj 248 440 list prepend 200;
#X obj 1284 507 tgl 19 0 empty empty empty 0 -10 0 12 #fcfcfc #000000 #000000 0 1;
#X obj 29 328 spigot;
#X obj 242 325 spigot;
#X obj 1244 501 t a;
#X obj 353 910 t b b;
#X msg 551 464 set 0;
#X obj 1014 715 tgl 19 0 empty empty empty 0 -10 0 12 #fcfcfc #000000 #000000 0 1;
#X obj 1077 687 r my_id;
#X obj 261 508 route 51;
#X obj 51 513 route 51;
#X obj 543 411 spigot;
#X obj 543 439 spigot;
#X obj 768 724 bng 19 250 50 0 empty empty empty 0 -10 0 12 #fcfcfc #000000 #000000;
#N canvas 422 23 634 693 kick_synth 0;
#X floatatom 267 137 5 0 0 0 - - - 0;
#X text 270 197 fDec = 250;
#X floatatom 292 356 5 0 0 0 - - - 0;
#X text 339 352 pScale = 1;
#X obj 233 422 phasor~;
#X obj 214 107 bng 15 250 50 0 empty empty empty 17 7 0 10 #fcfcfc #000000 #000000;
#X obj 233 442 expr~ if ($v1 > 0.5 \, 0 \, 1);
#X obj 265 471 noise~;
#X floatatom 450 371 5 0 0 0 - - - 0;
#X obj 199 584 *~;
#X obj 357 535 osc~;
#X floatatom 488 471 5 0 0 0 - - - 0;
#X obj 210 46 inlet;
#X text 204 25 trig;
#X obj 265 115 inlet;
#X text 265 93 decay time;
#X obj 292 325 inlet;
#X text 290 305 pitchScale;
#X text 432 322 filterScale;
#X obj 432 336 inlet;
#X text 468 429 sineVol;
#X obj 199 661 outlet~;
#X obj 500 447 inlet;
#N canvas 0 23 450 300 vol_env 0;
#X obj 125 167 vline~;
#X obj 125 188 *~;
#X msg 115 115 0.5 \, 1 5 \, 0.5 60 5 \, 0 \$1 65;
#X obj 108 69 inlet;
#X obj 125 209 outlet~;
#X connect 0 0 1 0;
#X connect 0 0 1 1;
#X connect 1 0 4 0;
#X connect 2 0 0 0;
#X connect 3 0 2 0;
#X restore 51 502 pd vol_env;
#N canvas 0 23 613 532 pitch_env 0;
#X obj 37 37 inlet;
#X obj 33 100 vline~;
#X obj 34 210 mtof~;
#X msg 36 73 1 \, 0.5 5 \, 0 \$1 5;
#X obj 33 128 *~;
#X obj 34 322 outlet~;
#X obj 33 154 *~ 80;
#X obj 34 183 +~ 29;
#X connect 0 0 3 0;
#X connect 1 0 4 0;
#X connect 1 0 4 1;
#X connect 2 0 5 0;
#X connect 3 0 1 0;
#X connect 4 0 6 0;
#X connect 6 0 7 0;
#X connect 7 0 2 0;
#X restore 221 247 pd pitch_env;
#X obj 339 413 *~ 1.5;
#X msg 282 174 500;
#X obj 221 160 f 500;
#X obj 225 367 *~ 2;
#X obj 358 509 *~ 1;
#X obj 236 514 vcf~ 0.5;
#X obj 262 600 osc~ 10;
#X connect 0 0 27 1;
#X connect 2 0 28 1;
#X connect 4 0 6 0;
#X connect 5 0 27 0;
#X connect 6 0 30 0;
#X connect 7 0 30 0;
#X connect 8 0 25 1;
#X connect 9 0 21 0;
#X connect 10 0 9 1;
#X connect 11 0 29 1;
#X connect 12 0 5 0;
#X connect 14 0 0 0;
#X connect 16 0 2 0;
#X connect 19 0 8 0;
#X connect 22 0 11 0;
#X connect 23 0 9 0;
#X connect 24 0 25 0;
#X connect 24 0 28 0;
#X connect 24 0 29 0;
#X connect 25 0 30 1;
#X connect 26 0 27 1;
#X connect 27 0 24 0;
#X connect 27 0 23 0;
#X connect 28 0 4 0;
#X connect 29 0 10 0;
#X connect 30 1 9 1;
#X restore 993 497 pd kick_synth;
#X f 14;
#X obj 908 326 noisebits;
#N canvas 325 155 921 623 FM 0;
#N canvas 291 193 645 473 FM_synth 0;
#X obj 66 363 osc~;
#X obj 266 245 osc~ 40;
#X text 118 83 freq;
#X obj 74 312 +~;
#X text 475 173 modulation index;
#X text 298 77 harmonicity;
#X obj 404 228 *~;
#X obj 266 282 *~;
#X obj 66 384 outlet~;
#X obj 74 80 inlet~;
#X obj 429 171 inlet~;
#X obj 253 141 *~ 4;
#X connect 0 0 8 0;
#X connect 1 0 7 0;
#X connect 3 0 0 0;
#X connect 6 0 7 1;
#X connect 7 0 3 1;
#X connect 9 0 3 0;
#X connect 9 0 11 0;
#X connect 10 0 6 1;
#X connect 11 0 1 0;
#X connect 11 0 6 0;
#X restore 97 336 pd FM_synth;
#N canvas 638 359 408 265 env 0;
#X obj 41 19 inlet;
#X obj 41 127 line~;
#X obj 41 169 *~;
#X obj 41 190 outlet~;
#X obj 41 148 *~;
#X obj 41 40 bng 15 250 50 0 empty empty empty 17 7 0 10 #fcfcfc #000000 #000000;
#X obj 114 78 del 10;
#X obj 41 76 pack 1 3;
#X obj 201 53 inlet;
#X floatatom 201 74 5 0 0 0 - - - 0;
#X text 238 74 decay time;
#X text 72 168 square the output;
#X text 67 151 square the output - steeper decay curve;
#X obj 112 98 pack 0 500;
#X connect 0 0 5 0;
#X connect 1 0 4 0;
#X connect 1 0 4 1;
#X connect 2 0 3 0;
#X connect 4 0 2 0;
#X connect 4 0 2 1;
#X connect 5 0 6 0;
#X connect 5 0 7 0;
#X connect 6 0 13 0;
#X connect 7 0 1 0;
#X connect 8 0 9 0;
#X connect 13 0 1 0;
#X restore 231 239 pd env;
#X obj 96 180 t f b;
#N canvas 638 359 408 265 env 0;
#X obj 41 19 inlet;
#X obj 41 127 line~;
#X obj 41 169 *~;
#X obj 41 190 outlet~;
#X obj 41 148 *~;
#X obj 41 40 bng 15 250 50 0 empty empty empty 17 7 0 10 #fcfcfc #000000 #000000;
#X obj 114 78 del 10;
#X obj 41 76 pack 1 3;
#X obj 201 53 inlet;
#X floatatom 201 74 5 0 0 0 - - - 0;
#X text 238 74 decay time;
#X text 72 168 square the output;
#X text 67 151 square the output - steeper decay curve;
#X obj 112 98 pack 0 500;
#X connect 0 0 5 0;
#X connect 1 0 4 0;
#X connect 1 0 4 1;
#X connect 2 0 3 0;
#X connect 4 0 2 0;
#X connect 4 0 2 1;
#X connect 5 0 6 0;
#X connect 5 0 7 0;
#X connect 6 0 13 0;
#X connect 7 0 1 0;
#X connect 8 0 9 0;
#X connect 9 0 13 1;
#X connect 13 0 1 0;
#X restore 327 360 pd env;
#X obj 101 397 *~;
#X obj 101 88 inlet;
#X obj 101 442 outlet~;
#X obj 222 295 *~ 9;
#X obj 99 122 t b;
#X msg 95 152 8.661;
#X connect 0 0 4 0;
#X connect 1 0 7 0;
#X connect 2 0 0 0;
#X connect 2 1 1 0;
#X connect 2 1 3 0;
#X connect 3 0 4 1;
#X connect 4 0 6 0;
#X connect 5 0 8 0;
#X connect 7 0 0 1;
#X connect 8 0 9 0;
#X connect 9 0 2 0;
#X restore 881 509 pd FM;
#X f 9;
#X obj 72 108 select 0 1 2 3 4 5 6 7 8 9 10 11 12 13 14 15;
#X obj 477 109 select 0 1 2 3 4 5 6 7 8 9 10 11 12 13 14 15;
#X obj 171 458 + 1;
#X obj 125 410 list prepend 200;
#X obj 172 482 route 51;
#X obj 383 484 + 1;
#X obj 371 440 list prepend 200;
#X obj 384 508 route 51;
#X obj 997 525 *~ 0.3;
#X obj 1014 687 inlet;
#X obj 1077 718 s \$0-myid;
#X obj 1242 442 r \$0-ImAki;
#X obj 1013 768 s \$0-ImAki;
#X obj 299 295 r \$0-ImAki;
#X obj 82 294 r \$0-ImAki;
#X obj 130 324 r \$0-aki_send;
#X obj 603 438 r \$0-aki_send;
#X obj 599 411 r \$0-ImAki;
#X obj 253 740 s \$0-mode3sensor1;
#X obj 385 740 s \$0-mode3sensor2;
#X obj 1324 541 r \$0-mode3sensor1;
#X obj 795 751 s \$0-resetDrum;
#X obj 29 354 array get \$0-kickSequence;
#X obj 242 350 array get \$0-snareSequence;
#X obj 352 133 s \$0-kickmsg;
#X obj 263 181 s \$0-kick;
#X obj 669 163 s \$0-snare;
#X obj 762 135 s \$0-snaremsg;
#X obj 163 270 r \$0-kickmsg;
#X obj 881 393 r \$0-snare;
#X obj 1015 393 r \$0-kick;
#X obj 1213 718 s \$0-kick;
#X obj 1327 714 s \$0-snare;
#X obj 949 179 s \$0-bar;
#X obj 477 72 r \$0-bar;
#X obj 472 138 tabread \$0-snareSequence;
#X obj 73 137 tabread \$0-kickSequence;
#X obj 36 72 r \$0-bar;
#X obj 543 367 r \$0-kickmsg;
#X obj 1046 745 s \$0-aki_send;
#X obj 61 987 array set \$0-kickSequence;
#X obj 106 930 array set \$0-snareSequence;
#X obj 1178 542 r \$0-mode3sensor2;
#X obj 454 955 s \$0-resetS;
#X obj 353 957 s \$0-resetK;
#X obj 453 904 t b b;
#X obj 650 547 s \$0-resetS;
#X obj 539 595 s \$0-resetK;
#X obj 648 922 r \$0-bar;
#X obj 390 535 list prepend 200;
#X obj 403 603 route 51;
#X obj 244 404 t a b a b a b;
#X obj 120 509 list prepend 200;
#X obj 167 581 route 51;
#X obj 20 409 t a b a b a b;
#X obj 543 489 counter 32;
#X obj 646 518 sel 15;
#X obj 537 515 sel 32;
#X obj 539 542 t b b;
#X msg 576 566 0;
#X msg 593 543 1;
#X obj 173 433 random 33;
#X obj 52 464 random 33;
#X obj 383 462 random 33;
#X obj 260 462 random 33;
#X obj 456 485 r \$0-myid;
#X obj 86 485 r \$0-myid;
#X obj 586 517 sel 1;
#X text 255 650 sensor1;
#X text 381 657 sensor2;
#X obj 257 675 r sensor1;
#X obj 384 677 r sensor2;
#X obj 876 615 outlet~;
#X obj 648 953 s bar;
#N canvas 150 23 994 755 handleLED 0;
#X msg 372 700 0 0 0 0 0 0 0 0 0 0 0 0;
#X obj 154 719 s LEDstrip1;
#X obj 651 715 s LEDstrip2;
#X obj 154 669 LED_color;
#X obj 652 657 LED_color;
#X obj 372 671 r \$0-stop;
#X obj 553 712 s LEDreset;
#X obj 552 686 del 100;
#X obj 259 43 sel 1;
#X obj 674 51 sel 1;
#X obj 319 23 tgl 19 0 empty empty empty 0 -10 0 12 #fcfcfc #000000 #000000 0 1;
#X obj 718 38 tgl 19 0 empty empty empty 0 -10 0 12 #fcfcfc #000000 #000000 0 1;
#X obj 441 545 r mode;
#X obj 643 70 t b b b;
#X obj 216 86 t b b b;
#X obj 692 99 del 100;
#X obj 268 115 del 100;
#X msg 193 627 0 0.2 1;
#X obj 230 12 inlet;
#X obj 653 6 inlet;
#X obj 440 573 sel 5 6;
#N canvas 153 44 1127 701 LEDspread 0;
#X obj 81 32 inlet;
#X obj 639 659 outlet;
#X obj 572 42 inlet;
#X obj 132 32 tgl 19 0 empty empty empty 0 -10 0 12 #fcfcfc #000000 #000000 0 1;
#X obj 131 65 tgl 19 0 empty empty empty 0 -10 0 12 #fcfcfc #000000 #000000 0 1;
#X obj 81 64 t a a;
#X obj 130 131 tgl 19 0 empty empty empty 0 -10 0 12 #fcfcfc #000000 #000000 0 1;
#X obj 80 130 t a a;
#X obj 131 198 tgl 19 0 empty empty empty 0 -10 0 12 #fcfcfc #000000 #000000 0 1;
#X obj 81 197 t a a;
#X obj 131 318 tgl 19 0 empty empty empty 0 -10 0 12 #fcfcfc #000000 #000000 0 1;
#X obj 81 317 t a a;
#X obj 130 384 tgl 19 0 empty empty empty 0 -10 0 12 #fcfcfc #000000 #000000 0 1;
#X obj 80 383 t a a;
#X obj 130 257 tgl 19 0 empty empty empty 0 -10 0 12 #fcfcfc #000000 #000000 0 1;
#X obj 80 256 t a a;
#X msg 573 112 clear;
#X obj 572 78 t b b;
#X msg 533 73 0;
#X msg 635 112 0 0 0 0 0 0 0 0 0 0 0 0;
#X obj 655 625 pak 0 0 0 0 0 0 0 0 0 0 0 0, f 49;
#X obj 81 95 pipe 100;
#X obj 80 161 pipe 100;
#X obj 81 228 pipe 100;
#X obj 80 287 pipe 100;
#X obj 81 348 pipe 100;
#X obj 965 58 inlet;
#X connect 0 0 5 0;
#X connect 2 0 17 0;
#X connect 3 0 5 0;
#X connect 5 0 21 0;
#X connect 5 1 4 0;
#X connect 5 1 20 6;
#X connect 5 1 20 5;
#X connect 7 0 22 0;
#X connect 7 1 6 0;
#X connect 7 1 20 7;
#X connect 7 1 20 4;
#X connect 9 0 23 0;
#X connect 9 1 8 0;
#X connect 9 1 20 8;
#X connect 9 1 20 3;
#X connect 11 0 25 0;
#X connect 11 1 10 0;
#X connect 11 1 20 10;
#X connect 11 1 20 1;
#X connect 13 1 12 0;
#X connect 13 1 20 11;
#X connect 13 1 20 0;
#X connect 15 0 24 0;
#X connect 15 1 14 0;
#X connect 15 1 20 9;
#X connect 15 1 20 2;
#X connect 16 0 21 0;
#X connect 16 0 22 0;
#X connect 16 0 23 0;
#X connect 16 0 24 0;
#X connect 16 0 25 0;
#X connect 17 0 19 0;
#X connect 17 0 18 0;
#X connect 17 1 16 0;
#X connect 18 0 5 0;
#X connect 19 0 1 0;
#X connect 20 0 1 0;
#X connect 21 0 7 0;
#X connect 22 0 9 0;
#X connect 23 0 15 0;
#X connect 24 0 11 0;
#X connect 25 0 13 0;
#X connect 26 0 21 1;
#X connect 26 0 22 1;
#X connect 26 0 23 1;
#X connect 26 0 24 1;
#X connect 26 0 25 1;
#X restore 209 190 pd LEDspread;
#X msg 768 327 1 1 1 1 1 1 1 1 1 1 1 1;
#X msg 957 328 0 0 0 0 0 0 0 0 0 0 0 0;
#X msg 210 129 1;
#X msg 274 145 0;
#X obj 210 162 tgl 19 0 empty empty empty 0 -10 0 12 #fcfcfc #000000 #000000 0 1;
#N canvas 153 44 1127 701 LEDspread 0;
#X obj 81 32 inlet;
#X obj 639 659 outlet;
#X obj 572 42 inlet;
#X obj 132 32 tgl 19 0 empty empty empty 0 -10 0 12 #fcfcfc #000000 #000000 0 1;
#X obj 131 65 tgl 19 0 empty empty empty 0 -10 0 12 #fcfcfc #000000 #000000 0 1;
#X obj 81 64 t a a;
#X obj 130 131 tgl 19 0 empty empty empty 0 -10 0 12 #fcfcfc #000000 #000000 0 1;
#X obj 80 130 t a a;
#X obj 131 198 tgl 19 0 empty empty empty 0 -10 0 12 #fcfcfc #000000 #000000 0 1;
#X obj 81 197 t a a;
#X obj 131 318 tgl 19 0 empty empty empty 0 -10 0 12 #fcfcfc #000000 #000000 0 1;
#X obj 81 317 t a a;
#X obj 130 384 tgl 19 0 empty empty empty 0 -10 0 12 #fcfcfc #000000 #000000 0 1;
#X obj 80 383 t a a;
#X obj 130 257 tgl 19 0 empty empty empty 0 -10 0 12 #fcfcfc #000000 #000000 0 1;
#X obj 80 256 t a a;
#X msg 573 112 clear;
#X obj 572 78 t b b;
#X msg 533 73 0;
#X msg 635 112 0 0 0 0 0 0 0 0 0 0 0 0;
#X obj 655 625 pak 0 0 0 0 0 0 0 0 0 0 0 0, f 49;
#X obj 81 95 pipe 100;
#X obj 80 161 pipe 100;
#X obj 81 228 pipe 100;
#X obj 80 287 pipe 100;
#X obj 81 348 pipe 100;
#X obj 965 58 inlet;
#X connect 0 0 5 0;
#X connect 2 0 17 0;
#X connect 3 0 5 0;
#X connect 5 0 21 0;
#X connect 5 1 4 0;
#X connect 5 1 20 6;
#X connect 5 1 20 5;
#X connect 7 0 22 0;
#X connect 7 1 6 0;
#X connect 7 1 20 7;
#X connect 7 1 20 4;
#X connect 9 0 23 0;
#X connect 9 1 8 0;
#X connect 9 1 20 8;
#X connect 9 1 20 3;
#X connect 11 0 25 0;
#X connect 11 1 10 0;
#X connect 11 1 20 10;
#X connect 11 1 20 1;
#X connect 13 1 12 0;
#X connect 13 1 20 11;
#X connect 13 1 20 0;
#X connect 15 0 24 0;
#X connect 15 1 14 0;
#X connect 15 1 20 9;
#X connect 15 1 20 2;
#X connect 16 0 21 0;
#X connect 16 0 22 0;
#X connect 16 0 23 0;
#X connect 16 0 24 0;
#X connect 16 0 25 0;
#X connect 17 0 19 0;
#X connect 17 0 18 0;
#X connect 17 1 16 0;
#X connect 18 0 5 0;
#X connect 19 0 1 0;
#X connect 20 0 1 0;
#X connect 21 0 7 0;
#X connect 22 0 9 0;
#X connect 23 0 15 0;
#X connect 24 0 11 0;
#X connect 25 0 13 0;
#X connect 26 0 21 1;
#X connect 26 0 22 1;
#X connect 26 0 23 1;
#X connect 26 0 24 1;
#X connect 26 0 25 1;
#X restore 642 182 pd LEDspread;
#X msg 642 117 1;
#X msg 689 129 0;
#X obj 641 148 tgl 19 0 empty empty empty 0 -10 0 12 #fcfcfc #000000 #000000 0 1;
#X msg 681 625 0 0.4 0.5;
#X connect 0 0 3 0;
#X connect 0 0 4 0;
#X connect 3 0 1 0;
#X connect 4 0 2 0;
#X connect 5 0 0 0;
#X connect 5 0 7 0;
#X connect 7 0 6 0;
#X connect 8 0 14 0;
#X connect 9 0 13 0;
#X connect 10 0 8 0;
#X connect 11 0 9 0;
#X connect 12 0 20 0;
#X connect 13 0 28 0;
#X connect 13 1 31 0;
#X connect 13 2 15 0;
#X connect 14 0 24 0;
#X connect 14 1 17 0;
#X connect 14 2 16 0;
#X connect 15 0 29 0;
#X connect 16 0 25 0;
#X connect 17 0 3 1;
#X connect 17 0 4 1;
#X connect 18 0 14 0;
#X connect 19 0 13 0;
#X connect 20 0 17 0;
#X connect 20 0 31 0;
#X connect 20 1 17 0;
#X connect 20 1 31 0;
#X connect 21 0 3 0;
#X connect 24 0 26 0;
#X connect 25 0 26 0;
#X connect 26 0 21 0;
#X connect 27 0 4 0;
#X connect 28 0 30 0;
#X connect 29 0 30 0;
#X connect 30 0 27 0;
#X connect 31 0 4 1;
#X connect 31 0 3 1;
#X restore 1305 893 pd handleLED;
#X obj 1367 833 r \$0-kick;
#X obj 1283 832 r \$0-snare;
#X obj 1214 679 sel 1;
#X obj 1327 682 sel 1;
#X obj 168 532 random 33;
#X obj 166 557 + 1;
#X obj 402 557 random 33;
#X obj 402 579 + 1;
#X obj 354 934 del 18600;
#X obj 453 929 del 18600;
#X obj 710 841 sel 1;
#X obj 974 82 t b b;
#X obj 487 689 tgl 19 0 empty empty empty 0 -10 0 12 #fcfcfc #000000 #000000 0 1;
#X obj 346 684 tgl 19 0 empty empty empty 0 -10 0 12 #fcfcfc #000000 #000000 0 1;
#X obj 1097 618 outlet;
#X obj 924 436 bng 19 250 50 0 empty empty empty 0 -10 0 12 #fcfcfc #000000 #000000;
#X obj 1053 442 bng 19 250 50 0 empty empty empty 0 -10 0 12 #fcfcfc #000000 #000000;
#X obj 1195 613 spigot 1;
#X obj 1304 615 spigot 1;
#X obj 1384 679 bng 19 250 50 0 empty empty empty 0 -10 0 12 #fcfcfc #000000 #000000;
#X obj 1266 678 bng 19 250 50 0 empty empty empty 0 -10 0 12 #fcfcfc #000000 #000000;
#N canvas 237 74 450 704 snare 0;
#X obj 193 234 vline~;
#X obj 175 460 *~;
#X obj 211 296 cos~;
#X obj 161 169 t f f;
#X obj 211 276 *~;
#X obj 175 482 outlet~;
#X obj 231 529 switch~;
#X obj 231 481 env~;
#X obj 231 505 > 0.1;
#X msg 229 425 1;
#X obj 183 87 t b b b;
#X obj 183 41 inlet;
#X obj 193 392 *~;
#X obj 175 439 cos~;
#X obj 193 345 +~;
#X obj 175 365 *~;
#X obj 193 414 *~;
#X obj 193 322 sig~ 5;
#X obj 229 192 /;
#X obj 183 115 del 5;
#X msg 183 63 1;
#X msg 183 140 90;
#X msg 229 140 70;
#X msg 285 140 6;
#X msg 193 212 1 0 0 \, 0 \$1 3;
#X obj 257 91 loadbang;
#X obj 146 504 s~ \$0-snfb;
#X obj 175 254 r~ \$0-snfb;
#X connect 0 0 4 0;
#X connect 0 0 12 0;
#X connect 0 0 12 1;
#X connect 1 0 5 0;
#X connect 1 0 7 0;
#X connect 1 0 26 0;
#X connect 2 0 14 1;
#X connect 3 0 18 0;
#X connect 3 1 24 0;
#X connect 4 0 2 0;
#X connect 7 0 8 0;
#X connect 8 0 6 0;
#X connect 9 0 6 0;
#X connect 10 0 19 0;
#X connect 10 1 23 0;
#X connect 10 2 9 0;
#X connect 11 0 20 0;
#X connect 12 0 16 0;
#X connect 12 0 16 1;
#X connect 13 0 1 0;
#X connect 14 0 15 1;
#X connect 15 0 13 0;
#X connect 16 0 1 1;
#X connect 17 0 14 0;
#X connect 18 0 4 1;
#X connect 19 0 21 0;
#X connect 19 0 22 0;
#X connect 20 0 10 0;
#X connect 21 0 3 0;
#X connect 22 0 3 0;
#X connect 23 0 18 1;
#X connect 24 0 0 0;
#X connect 25 0 20 0;
#X connect 27 0 15 0;
#X restore 844 325 pd snare;
#N canvas 103 332 450 446 hihat 0;
#X obj 168 152 noise~;
#X obj 168 282 *~, f 5;
#X obj 170 73 inlet;
#X obj 168 326 outlet~;
#X obj 202 258 line~;
#X msg 202 219 1;
#X obj 170 94 t b b;
#X obj 168 194 hip~ 8000;
#X obj 168 173 hip~ 8000;
#X obj 168 303 *~ 0.4;
#X obj 240 83 vsl 15 128 0 127 0 0 empty empty empty 0 -9 0 10 #fcfcfc #000000 #000000 0 1;
#X msg 240 219 0 \$1;
#X obj 273 24 loadbang;
#X msg 273 53 127;
#X connect 0 0 8 0;
#X connect 1 0 9 0;
#X connect 2 0 6 0;
#X connect 4 0 1 1;
#X connect 5 0 4 0;
#X connect 6 0 10 0;
#X connect 6 1 5 0;
#X connect 7 0 1 0;
#X connect 8 0 7 0;
#X connect 9 0 3 0;
#X connect 10 0 11 0;
#X connect 11 0 4 0;
#X connect 12 0 13 0;
#X connect 13 0 10 0;
#X restore 841 442 pd hihat;
#X obj 805 517 *~ 0.5;
#X obj 882 551 *~ 0.1;
#X obj 1291 864 spigot;
#X obj 1367 861 spigot;
#X obj 1335 794 r \$0-ImAki;
#X obj 1095 571 r \$0-bar;
#X floatatom 587 705 5 0 0 0 - - - 0;
#X connect 0 0 5 0;
#X connect 1 0 5 0;
#X connect 5 0 20 0;
#X connect 5 1 19 0;
#X connect 5 1 74 0;
#X connect 6 0 118 0;
#X connect 7 0 6 2;
#X connect 10 0 11 1;
#X connect 11 0 110 0;
#X connect 15 0 16 1;
#X connect 16 0 111 0;
#X connect 21 0 6 0;
#X connect 22 0 171 0;
#X connect 23 0 24 0;
#X connect 24 0 106 0;
#X connect 28 0 44 0;
#X connect 30 0 139 0;
#X connect 31 0 34 0;
#X connect 32 0 34 0;
#X connect 33 0 136 0;
#X connect 35 0 38 0;
#X connect 37 0 38 0;
#X connect 38 0 39 0;
#X connect 44 0 73 0;
#X connect 44 0 125 0;
#X connect 44 1 126 0;
#X connect 44 1 130 0;
#X connect 45 0 103 0;
#X connect 46 0 104 0;
#X connect 47 0 49 0;
#X connect 47 0 189 0;
#X connect 49 0 52 0;
#X connect 49 0 53 0;
#X connect 50 0 2 0;
#X connect 50 0 48 0;
#X connect 50 0 170 0;
#X connect 50 0 46 1;
#X connect 50 0 45 1;
#X connect 50 0 5 0;
#X connect 51 0 50 0;
#X connect 51 1 50 1;
#X connect 52 0 50 0;
#X connect 53 0 51 0;
#X connect 54 0 49 0;
#X connect 55 0 49 0;
#X connect 56 0 49 0;
#X connect 57 0 163 0;
#X connect 57 0 178 0;
#X connect 58 0 162 0;
#X connect 58 0 177 0;
#X connect 60 0 61 0;
#X connect 61 0 62 0;
#X connect 62 0 177 1;
#X connect 62 0 178 1;
#X connect 63 0 77 0;
#X connect 64 0 78 0;
#X connect 65 0 70 0;
#X connect 66 0 71 0;
#X connect 67 0 31 0;
#X connect 68 0 32 0;
#X connect 70 0 107 0;
#X connect 71 0 108 0;
#X connect 72 0 58 1;
#X connect 72 0 57 1;
#X connect 72 0 69 0;
#X connect 73 0 168 0;
#X connect 74 0 140 0;
#X connect 75 0 97 0;
#X connect 75 0 124 0;
#X connect 76 0 95 0;
#X connect 77 1 68 1;
#X connect 78 1 67 1;
#X connect 79 0 80 0;
#X connect 80 0 140 0;
#X connect 81 0 106 0;
#X connect 82 0 184 0;
#X connect 84 0 184 0;
#X connect 85 0 11 0;
#X connect 85 1 11 0;
#X connect 85 2 11 0;
#X connect 85 3 11 0;
#X connect 85 4 11 0;
#X connect 85 5 11 0;
#X connect 85 6 11 0;
#X connect 85 7 11 0;
#X connect 85 8 11 0;
#X connect 85 9 11 0;
#X connect 85 10 11 0;
#X connect 85 11 11 0;
#X connect 85 12 11 0;
#X connect 85 13 11 0;
#X connect 85 14 11 0;
#X connect 85 15 11 0;
#X connect 85 15 109 0;
#X connect 86 0 16 0;
#X connect 86 1 16 0;
#X connect 86 2 16 0;
#X connect 86 3 16 0;
#X connect 86 4 16 0;
#X connect 86 5 16 0;
#X connect 86 6 16 0;
#X connect 86 7 16 0;
#X connect 86 8 16 0;
#X connect 86 9 16 0;
#X connect 86 10 16 0;
#X connect 86 11 16 0;
#X connect 86 12 16 0;
#X connect 86 13 16 0;
#X connect 86 14 16 0;
#X connect 86 15 16 0;
#X connect 86 15 112 0;
#X connect 87 0 89 0;
#X connect 88 0 31 0;
#X connect 89 1 88 1;
#X connect 90 0 92 0;
#X connect 91 0 32 0;
#X connect 92 1 91 1;
#X connect 94 0 75 0;
#X connect 96 0 72 0;
#X connect 98 0 66 1;
#X connect 99 0 65 1;
#X connect 100 0 70 1;
#X connect 100 0 71 1;
#X connect 101 0 80 1;
#X connect 102 0 79 1;
#X connect 105 0 57 0;
#X connect 107 0 30 0;
#X connect 108 0 33 0;
#X connect 113 0 65 0;
#X connect 113 0 66 0;
#X connect 114 0 175 0;
#X connect 114 0 182 0;
#X connect 115 0 82 0;
#X connect 115 0 84 0;
#X connect 115 0 176 0;
#X connect 119 0 86 0;
#X connect 119 0 120 0;
#X connect 120 0 15 0;
#X connect 121 0 10 0;
#X connect 122 0 85 0;
#X connect 122 0 121 0;
#X connect 123 0 79 0;
#X connect 127 0 58 0;
#X connect 130 0 169 0;
#X connect 133 0 158 0;
#X connect 134 0 32 0;
#X connect 135 1 134 1;
#X connect 136 0 68 0;
#X connect 136 1 149 0;
#X connect 136 2 91 0;
#X connect 136 3 148 0;
#X connect 136 4 134 0;
#X connect 136 5 166 0;
#X connect 137 0 31 0;
#X connect 138 1 137 1;
#X connect 139 0 67 0;
#X connect 139 1 147 0;
#X connect 139 2 88 0;
#X connect 139 3 146 0;
#X connect 139 4 137 0;
#X connect 139 5 164 0;
#X connect 140 0 141 0;
#X connect 140 0 142 0;
#X connect 140 0 152 0;
#X connect 142 0 143 0;
#X connect 143 1 144 0;
#X connect 144 0 70 1;
#X connect 145 0 70 1;
#X connect 146 0 87 0;
#X connect 147 0 64 0;
#X connect 148 0 90 0;
#X connect 149 0 63 0;
#X connect 150 0 92 1;
#X connect 150 0 135 1;
#X connect 150 0 77 1;
#X connect 151 0 78 1;
#X connect 151 0 89 1;
#X connect 151 0 138 1;
#X connect 152 0 145 0;
#X connect 155 0 45 0;
#X connect 156 0 46 0;
#X connect 160 0 186 0;
#X connect 161 0 185 0;
#X connect 162 0 116 0;
#X connect 163 0 117 0;
#X connect 164 0 165 0;
#X connect 165 0 138 0;
#X connect 166 0 167 0;
#X connect 167 0 135 0;
#X connect 168 0 129 0;
#X connect 169 0 128 0;
#X connect 171 0 6 1;
#X connect 171 1 6 2;
#X connect 172 0 104 0;
#X connect 173 0 103 0;
#X connect 177 0 40 0;
#X connect 178 0 43 0;
#X connect 179 0 117 0;
#X connect 180 0 116 0;
#X connect 182 0 184 0;
#X connect 184 0 157 0;
#X connect 185 0 159 0;
#X connect 186 0 159 1;
#X connect 187 0 186 1;
#X connect 187 0 185 1;
#X connect 188 0 174 0;
