#N canvas 56 23 1224 733 10;
#X obj 26 153 pack;
#X obj 26 202 - 1;
#X obj 26 220 pack f f f;
#N canvas 276 23 1004 572 randomisation 0;
#X obj 37 37 inlet;
#X obj 54 450 outlet;
#X obj 55 420 list trim;
#X obj 171 188 text define pre;
#X obj 57 394 text get pre;
#X obj 59 334 bng 16 250 50 0 empty empty empty 0 -8 0 10 #fcfcfc #000000 #000000;
#X msg 171 159 read dx7_preset\$1.txt;
#X floatatom 163 51 5 0 26 0 - - - 0;
#X obj 103 87 t b a;
#X obj 58 358 uzi 38 0;
#X obj 199 106 % 26;
#X floatatom 246 110 5 0 0 0 - - - 0;
#X obj 228 54 t b;
#X msg 204 80 21;
#X connect 0 0 8 0;
#X connect 2 0 1 0;
#X connect 4 0 2 0;
#X connect 5 0 9 0;
#X connect 6 0 3 0;
#X connect 7 0 8 0;
#X connect 8 0 5 0;
#X connect 8 1 10 0;
#X connect 9 2 4 0;
#X connect 10 0 6 0;
#X connect 10 0 11 0;
#X connect 12 0 13 0;
#X connect 13 0 10 0;
#X restore 279 379 pd randomisation;
#X obj 59 54 sel 1 0;
#X obj 172 50 sel 1 0;
#X msg 249 99 stop;
#X obj 154 192 pack;
#X obj 27 608 outlet~;
#X obj 62 7 r sensor1;
#X obj 179 3 r sensor2;
#X obj 55 31 spigot;
#X obj 172 29 spigot;
#X obj 550 312 switch~;
#X text 536 18 mode;
#X obj 536 41 r mode;
#X obj 628 198 tgl 19 0 empty empty empty 0 -10 0 12 #fcfcfc #000000 #000000 0 1;
#X obj 535 79 t a;
#X obj 538 174 ||;
#X obj 539 147 t b a;
#X msg 592 64 5;
#X obj 509 120 == 9;
#X msg 592 41 9;
#X obj 269 11 tgl 16 0 empty empty empty 0 -8 0 10 #fcfcfc #000000 #000000 0 1;
#X obj 8 9 tgl 16 0 empty empty empty 0 -8 0 10 #fcfcfc #000000 #000000 0 1;
#N canvas 100 23 994 755 sparkleLED 0;
#X obj 152 694 s LEDstrip1;
#X obj 651 690 s LEDstrip2;
#X obj 153 664 LED_color;
#X obj 652 657 LED_color;
#X obj 502 13 inlet sensor1;
#X obj 653 6 inlet sensor2;
#X obj 502 33 sel 1;
#X obj 654 29 sel 1;
#X obj 464 62 tgl 19 0 empty empty empty 0 -10 0 12 #fcfcfc #000000 #000000 0 1;
#X obj 718 38 tgl 19 0 empty empty empty 0 -10 0 12 #fcfcfc #000000 #000000 0 1;
#X obj 653 52 t b b b;
#X obj 501 54 t b b b;
#X msg 181 634 0 0.2 1;
#X msg 687 631 0.15 0 0.5;
#N canvas 153 44 1127 701 LEDspread 0;
#X obj 81 32 inlet;
#X obj 639 659 outlet;
#X obj 572 42 inlet;
#X obj 132 32 tgl 19 0 empty empty empty 0 -10 0 12 #fcfcfc #000000 #000000 0 1;
#X obj 131 65 tgl 19 0 empty empty empty 0 -10 0 12 #fcfcfc #000000 #000000 0 1;
#X obj 81 64 t a a;
#X obj 130 131 tgl 19 0 empty empty empty 0 -10 0 12 #fcfcfc #000000 #000000 0 1;
#X obj 80 130 t a a;
#X obj 131 198 tgl 19 0 empty empty empty 0 -10 0 12 #fcfcfc #000000 #000000 0 1;
#X obj 81 197 t a a;
#X obj 131 318 tgl 19 0 empty empty empty 0 -10 0 12 #fcfcfc #000000 #000000 0 1;
#X obj 81 317 t a a;
#X obj 130 384 tgl 19 0 empty empty empty 0 -10 0 12 #fcfcfc #000000 #000000 0 1;
#X obj 80 383 t a a;
#X obj 130 257 tgl 19 0 empty empty empty 0 -10 0 12 #fcfcfc #000000 #000000 0 1;
#X obj 80 256 t a a;
#X msg 573 112 clear;
#X obj 572 78 t b b;
#X msg 533 73 0;
#X msg 635 112 0 0 0 0 0 0 0 0 0 0 0 0;
#X obj 655 625 pak 0 0 0 0 0 0 0 0 0 0 0 0, f 49;
#X obj 81 95 pipe 100;
#X obj 80 161 pipe 100;
#X obj 81 228 pipe 100;
#X obj 80 287 pipe 100;
#X obj 81 348 pipe 100;
#X obj 965 58 inlet;
#X connect 0 0 5 0;
#X connect 2 0 17 0;
#X connect 3 0 5 0;
#X connect 5 0 21 0;
#X connect 5 1 4 0;
#X connect 5 1 20 6;
#X connect 5 1 20 5;
#X connect 7 0 22 0;
#X connect 7 1 6 0;
#X connect 7 1 20 7;
#X connect 7 1 20 4;
#X connect 9 0 23 0;
#X connect 9 1 8 0;
#X connect 9 1 20 8;
#X connect 9 1 20 3;
#X connect 11 0 25 0;
#X connect 11 1 10 0;
#X connect 11 1 20 10;
#X connect 11 1 20 1;
#X connect 13 1 12 0;
#X connect 13 1 20 11;
#X connect 13 1 20 0;
#X connect 15 0 24 0;
#X connect 15 1 14 0;
#X connect 15 1 20 9;
#X connect 15 1 20 2;
#X connect 16 0 21 0;
#X connect 16 0 22 0;
#X connect 16 0 23 0;
#X connect 16 0 24 0;
#X connect 16 0 25 0;
#X connect 17 0 19 0;
#X connect 17 0 18 0;
#X connect 17 1 16 0;
#X connect 18 0 5 0;
#X connect 19 0 1 0;
#X connect 20 0 1 0;
#X connect 21 0 7 0;
#X connect 22 0 9 0;
#X connect 23 0 15 0;
#X connect 24 0 11 0;
#X connect 25 0 13 0;
#X connect 26 0 21 1;
#X connect 26 0 22 1;
#X connect 26 0 23 1;
#X connect 26 0 24 1;
#X connect 26 0 25 1;
#X restore 132 182 pd LEDspread;
#N canvas 153 44 1127 701 LEDspread 0;
#X obj 81 32 inlet;
#X obj 639 659 outlet;
#X obj 572 42 inlet;
#X obj 132 32 tgl 19 0 empty empty empty 0 -10 0 12 #fcfcfc #000000 #000000 0 1;
#X obj 131 65 tgl 19 0 empty empty empty 0 -10 0 12 #fcfcfc #000000 #000000 0 1;
#X obj 81 64 t a a;
#X obj 130 131 tgl 19 0 empty empty empty 0 -10 0 12 #fcfcfc #000000 #000000 0 1;
#X obj 80 130 t a a;
#X obj 131 198 tgl 19 0 empty empty empty 0 -10 0 12 #fcfcfc #000000 #000000 0 1;
#X obj 81 197 t a a;
#X obj 131 318 tgl 19 0 empty empty empty 0 -10 0 12 #fcfcfc #000000 #000000 0 1;
#X obj 81 317 t a a;
#X obj 130 384 tgl 19 0 empty empty empty 0 -10 0 12 #fcfcfc #000000 #000000 0 1;
#X obj 80 383 t a a;
#X obj 130 257 tgl 19 0 empty empty empty 0 -10 0 12 #fcfcfc #000000 #000000 0 1;
#X obj 80 256 t a a;
#X msg 573 112 clear;
#X obj 572 78 t b b;
#X msg 533 73 0;
#X msg 635 112 0 0 0 0 0 0 0 0 0 0 0 0;
#X obj 655 625 pak 0 0 0 0 0 0 0 0 0 0 0 0, f 49;
#X obj 81 95 pipe 100;
#X obj 80 161 pipe 100;
#X obj 81 228 pipe 100;
#X obj 80 287 pipe 100;
#X obj 81 348 pipe 100;
#X obj 965 58 inlet;
#X connect 0 0 5 0;
#X connect 2 0 17 0;
#X connect 3 0 5 0;
#X connect 5 0 21 0;
#X connect 5 1 4 0;
#X connect 5 1 20 6;
#X connect 5 1 20 5;
#X connect 7 0 22 0;
#X connect 7 1 6 0;
#X connect 7 1 20 7;
#X connect 7 1 20 4;
#X connect 9 0 23 0;
#X connect 9 1 8 0;
#X connect 9 1 20 8;
#X connect 9 1 20 3;
#X connect 11 0 25 0;
#X connect 11 1 10 0;
#X connect 11 1 20 10;
#X connect 11 1 20 1;
#X connect 13 1 12 0;
#X connect 13 1 20 11;
#X connect 13 1 20 0;
#X connect 15 0 24 0;
#X connect 15 1 14 0;
#X connect 15 1 20 9;
#X connect 15 1 20 2;
#X connect 16 0 21 0;
#X connect 16 0 22 0;
#X connect 16 0 23 0;
#X connect 16 0 24 0;
#X connect 16 0 25 0;
#X connect 17 0 19 0;
#X connect 17 0 18 0;
#X connect 17 1 16 0;
#X connect 18 0 5 0;
#X connect 19 0 1 0;
#X connect 20 0 1 0;
#X connect 21 0 7 0;
#X connect 22 0 9 0;
#X connect 23 0 15 0;
#X connect 24 0 11 0;
#X connect 25 0 13 0;
#X connect 26 0 21 1;
#X connect 26 0 22 1;
#X connect 26 0 23 1;
#X connect 26 0 24 1;
#X connect 26 0 25 1;
#X restore 713 158 pd LEDspread;
#X obj 450 517 loadbang;
#X msg 199 596 0.8 1 0;
#X msg 693 605 0.4 1 0;
#X connect 2 0 0 0;
#X connect 3 0 1 0;
#X connect 4 0 6 0;
#X connect 4 0 14 0;
#X connect 5 0 7 0;
#X connect 5 0 15 0;
#X connect 6 0 11 0;
#X connect 7 0 10 0;
#X connect 8 0 6 0;
#X connect 9 0 7 0;
#X connect 12 0 2 1;
#X connect 13 0 3 1;
#X connect 14 0 2 0;
#X connect 15 0 3 0;
#X connect 16 0 18 0;
#X connect 16 0 17 0;
#X connect 17 0 2 1;
#X connect 18 0 3 1;
#X restore 100 76 pd sparkleLED;
#X obj 550 119 == 6;
#X obj 440 13 r my_id;
#X obj 258 71 + 1;
#X obj 258 50 % 3;
#X msg 119 98 stop;
#N canvas 20 242 996 453 song 0;
#X msg 44 135 48;
#X msg 75 135 55;
#X msg 110 135 60;
#X msg 140 135 64;
#X obj 85 277 t a;
#X msg 176 139 41;
#X msg 243 139 62;
#X obj 421 11 inlet;
#X msg 211 138 57;
#X obj 381 488 outlet;
#X obj 75 386 + 1;
#X obj 23 19 inlet;
#X obj 187 229 i;
#X obj 266 311 route 57 62;
#X obj 155 390 gate 3 1;
#X obj 201 367 t b b;
#X obj 169 417 t b b;
#X msg 140 417 57;
#X msg 169 443 57;
#X msg 198 443 53;
#X obj 154 472 t a;
#X obj 305 389 gate 3 1;
#X obj 309 364 t b b;
#X obj 300 465 t a;
#X msg 290 416 62;
#X obj 328 408 t b b;
#X obj 363 427 del 100;
#X msg 363 447 62;
#X msg 330 447 61;
#X msg 425 425 46;
#X obj 427 378 t b b;
#X obj 462 397 del 200;
#X obj 472 421 del 200;
#X obj 477 449 del 200;
#X obj 107 18 t a a;
#X obj 137 31 sel 1;
#X obj 78 37 metro 800;
#X msg 137 50 set 0;
#X obj 199 41 t b;
#X obj 198 22 change;
#X obj 220 290 spigot;
#X obj 534 11 inlet;
#X obj 50 108 sel 0 1 2 3 4 5 6 7, f 41;
#X obj 64 81 counter 7 0;
#X floatatom 68 434 5 0 0 0 - - - 0;
#X obj 75 344 counter 2;
#X obj 239 213 t b a;
#X msg 278 140 60;
#X floatatom 219 81 5 0 0 0 - - - 0;
#X msg 535 32 set 0;
#X connect 0 0 4 0;
#X connect 1 0 4 0;
#X connect 2 0 4 0;
#X connect 3 0 4 0;
#X connect 4 0 12 0;
#X connect 5 0 4 0;
#X connect 6 0 4 0;
#X connect 7 0 46 0;
#X connect 8 0 4 0;
#X connect 10 0 14 0;
#X connect 10 0 21 0;
#X connect 10 0 44 0;
#X connect 11 0 39 0;
#X connect 11 0 43 0;
#X connect 12 0 40 0;
#X connect 13 0 15 0;
#X connect 13 1 22 0;
#X connect 13 2 9 0;
#X connect 14 0 17 0;
#X connect 14 1 16 0;
#X connect 15 0 14 1;
#X connect 15 1 45 0;
#X connect 16 0 18 0;
#X connect 16 1 19 0;
#X connect 17 0 20 0;
#X connect 18 0 20 0;
#X connect 19 0 20 0;
#X connect 20 0 9 0;
#X connect 21 0 24 0;
#X connect 21 1 25 0;
#X connect 21 2 30 0;
#X connect 22 0 21 1;
#X connect 23 0 9 0;
#X connect 24 0 23 0;
#X connect 25 0 28 0;
#X connect 25 1 26 0;
#X connect 26 0 27 0;
#X connect 27 0 23 0;
#X connect 28 0 23 0;
#X connect 29 0 23 0;
#X connect 30 0 29 0;
#X connect 30 1 31 0;
#X connect 31 0 29 0;
#X connect 31 0 32 0;
#X connect 32 0 29 0;
#X connect 32 0 33 0;
#X connect 34 0 36 0;
#X connect 34 1 35 0;
#X connect 35 0 37 0;
#X connect 39 0 38 0;
#X connect 40 0 13 0;
#X connect 41 0 49 0;
#X connect 42 0 0 0;
#X connect 42 1 1 0;
#X connect 42 2 2 0;
#X connect 42 3 3 0;
#X connect 42 4 5 0;
#X connect 42 5 8 0;
#X connect 42 6 6 0;
#X connect 42 7 47 0;
#X connect 43 0 42 0;
#X connect 43 0 48 0;
#X connect 45 0 10 0;
#X connect 46 0 12 0;
#X connect 46 1 40 1;
#X connect 47 0 4 0;
#X connect 49 0 43 0;
#X connect 49 0 45 0;
#X restore 28 100 pd song;
#X obj 676 -7 inlet;
#X obj 672 117 i;
#X floatatom 672 143 5 0 0 0 - - - 0;
#N canvas 50 250 996 528 song_melody 0;
#X obj 85 277 t a;
#X obj 587 34 inlet;
#X obj 381 488 outlet;
#X obj 99 368 random 3;
#X obj 99 389 % 3;
#X obj 99 410 + 1;
#X obj 53 19 inlet;
#X obj 176 291 i;
#X obj 266 311 route 57 62;
#X obj 155 390 gate 3 1;
#X obj 201 367 t b b;
#X obj 169 417 t b b;
#X msg 140 417 57;
#X msg 169 443 57;
#X msg 198 443 53;
#X obj 154 472 t a;
#X obj 305 389 gate 3 1;
#X obj 309 364 t b b;
#X obj 300 465 t a;
#X msg 290 416 62;
#X obj 328 408 t b b;
#X obj 363 427 del 100;
#X msg 363 447 62;
#X msg 330 447 61;
#X msg 425 425 46;
#X obj 427 378 t b b;
#X obj 462 397 del 200;
#X obj 472 421 del 200;
#X obj 477 449 del 200;
#X msg 44 135 60;
#X msg 75 135 62;
#X msg 110 135 60;
#X msg 140 135 62;
#X msg 171 135 64;
#X msg 203 135 65;
#X msg 232 134 67;
#X msg 265 135 72;
#X msg 298 137 69;
#X msg 343 159 67;
#X msg 373 159 64;
#X msg 404 159 62;
#X obj 248 267 spigot;
#X obj 744 41 inlet;
#X msg 686 95 set 0;
#X obj 341 256 tgl 16 0 empty empty empty 0 -8 0 10 #fcfcfc #000000 #000000 0 1;
#X obj 79 43 bng 16 250 50 0 empty empty empty 0 -8 0 10 #fcfcfc #000000 #000000;
#X obj 282 231 t b a;
#X msg 622 212 sel 8 9 10 11 12 13 14 15 16 17 18 19 20 21 22 23;
#X msg 599 277 sel 0 1 2 3 4 5 6 7 8 9 10 11 12 13 14 15;
#X obj 50 108 sel 0 1 2 3 4 5 6 7 8 9 10 11 12 13 14 15, f 64;
#X obj 69 67 counter 24 0;
#X connect 0 0 7 0;
#X connect 1 0 46 0;
#X connect 3 0 4 0;
#X connect 4 0 5 0;
#X connect 5 0 9 0;
#X connect 5 0 16 0;
#X connect 6 0 50 0;
#X connect 7 0 41 0;
#X connect 8 0 10 0;
#X connect 8 1 17 0;
#X connect 8 2 2 0;
#X connect 9 0 12 0;
#X connect 9 1 11 0;
#X connect 10 0 9 1;
#X connect 10 1 3 0;
#X connect 11 0 13 0;
#X connect 11 1 14 0;
#X connect 12 0 15 0;
#X connect 13 0 15 0;
#X connect 14 0 15 0;
#X connect 15 0 2 0;
#X connect 16 0 19 0;
#X connect 16 1 20 0;
#X connect 16 2 25 0;
#X connect 17 0 16 1;
#X connect 18 0 2 0;
#X connect 19 0 18 0;
#X connect 20 0 23 0;
#X connect 20 1 21 0;
#X connect 21 0 22 0;
#X connect 22 0 18 0;
#X connect 23 0 18 0;
#X connect 24 0 18 0;
#X connect 25 0 24 0;
#X connect 25 1 26 0;
#X connect 26 0 24 0;
#X connect 26 0 27 0;
#X connect 27 0 24 0;
#X connect 27 0 28 0;
#X connect 28 0 24 0;
#X connect 29 0 0 0;
#X connect 30 0 0 0;
#X connect 31 0 0 0;
#X connect 32 0 0 0;
#X connect 33 0 0 0;
#X connect 34 0 0 0;
#X connect 35 0 0 0;
#X connect 36 0 0 0;
#X connect 37 0 0 0;
#X connect 38 0 0 0;
#X connect 39 0 0 0;
#X connect 40 0 0 0;
#X connect 41 0 2 0;
#X connect 42 0 43 0;
#X connect 43 0 50 0;
#X connect 44 0 41 1;
#X connect 45 0 50 0;
#X connect 46 0 7 0;
#X connect 46 1 41 1;
#X connect 49 0 29 0;
#X connect 49 1 30 0;
#X connect 49 3 31 0;
#X connect 49 4 32 0;
#X connect 49 5 33 0;
#X connect 49 6 34 0;
#X connect 49 7 34 0;
#X connect 49 9 35 0;
#X connect 49 10 36 0;
#X connect 49 11 37 0;
#X connect 49 13 38 0;
#X connect 49 14 39 0;
#X connect 49 15 40 0;
#X connect 50 0 49 0;
#X restore 153 106 pd song_melody;
#X obj 26 183 poly 2 1, f 10;
#X obj 29 396 clone dx7Poly 2;
#X obj 674 97 / 2;
#N canvas 51 97 1181 681 counter 1;
#X obj 144 100 inlet;
#X msg 54 199 0;
#X text 142 76 Start clock;
#X obj 46 102 inlet;
#X text 45 79 Stop;
#X obj 303 100 inlet;
#X text 302 78 Reset;
#X obj 137 420 outlet;
#X obj 477 98 loadbang;
#X text 475 73 Default BPM;
#X obj 138 338 counter 15 0;
#X obj 137 302 metro 166;
#X msg 143 204 1;
#X obj 388 260 expr 60000/$f1;
#X obj 388 284 i;
#X floatatom 411 314 5 0 0 0 - - - 0;
#X obj 388 235 line;
#X msg 389 210 \$1 5000;
#X obj 389 181 * 4;
#X text 429 181 1/16 notes;
#X obj 400 99 inlet;
#X text 400 78 BPM;
#X msg 478 127 70;
#X msg 523 125 120;
#X msg 562 125 60;
#X floatatom 234 384 5 0 0 0 - - - 0;
#X msg 296 316 set 0;
#X connect 0 0 12 0;
#X connect 1 0 11 0;
#X connect 3 0 1 0;
#X connect 5 0 26 0;
#X connect 8 0 22 0;
#X connect 10 0 7 0;
#X connect 10 0 25 0;
#X connect 11 0 10 0;
#X connect 12 0 11 0;
#X connect 13 0 14 0;
#X connect 14 0 15 0;
#X connect 14 0 11 1;
#X connect 16 0 13 0;
#X connect 17 0 16 0;
#X connect 18 0 17 0;
#X connect 20 0 18 0;
#X connect 22 0 18 0;
#X connect 23 0 18 0;
#X connect 24 0 18 0;
#X connect 26 0 10 0;
#X restore 673 78 pd counter;
#X f 17;
#X obj 675 22 sel 0 1;
#X obj 360 41 t b;
#X obj 619 134 change;
#N canvas 20 174 996 528 song-low 0;
#X obj 85 277 t a;
#X obj 421 11 inlet;
#X obj 381 488 outlet;
#X obj 75 386 + 1;
#X obj 23 19 inlet;
#X obj 174 269 i;
#X obj 155 390 gate 3 1;
#X obj 201 367 t b b;
#X obj 169 417 t b b;
#X obj 154 472 t a;
#X obj 305 389 gate 3 1;
#X obj 309 364 t b b;
#X obj 300 465 t a;
#X obj 328 408 t b b;
#X obj 363 427 del 100;
#X obj 427 378 t b b;
#X obj 462 397 del 200;
#X obj 472 421 del 200;
#X obj 477 449 del 200;
#X obj 107 18 t a a;
#X obj 137 31 sel 1;
#X obj 78 37 metro 800;
#X msg 137 50 set 0;
#X obj 199 41 t b;
#X obj 198 22 change;
#X obj 220 290 spigot;
#X obj 534 11 inlet;
#X msg 511 40 set 0;
#X obj 50 108 sel 0 1 2 3 4 5 6 7, f 41;
#X obj 64 81 counter 7 0;
#X floatatom 68 434 5 0 0 0 - - - 0;
#X obj 75 344 counter 2;
#X msg 44 135 36;
#X msg 75 135 43;
#X msg 110 135 48;
#X msg 140 135 52;
#X msg 176 139 29;
#X msg 211 138 45;
#X msg 243 139 50;
#X obj 266 311 route 45 50;
#X msg 330 447 49;
#X msg 363 447 50;
#X msg 290 416 50;
#X msg 425 425 34;
#X msg 140 417 45;
#X msg 169 443 45;
#X msg 198 443 41;
#X connect 0 0 5 0;
#X connect 1 0 25 1;
#X connect 3 0 6 0;
#X connect 3 0 10 0;
#X connect 3 0 30 0;
#X connect 4 0 24 0;
#X connect 4 0 29 0;
#X connect 5 0 25 0;
#X connect 6 0 44 0;
#X connect 6 1 8 0;
#X connect 7 0 6 1;
#X connect 7 1 31 0;
#X connect 8 0 45 0;
#X connect 8 1 46 0;
#X connect 9 0 2 0;
#X connect 10 0 42 0;
#X connect 10 1 13 0;
#X connect 10 2 15 0;
#X connect 11 0 10 1;
#X connect 12 0 2 0;
#X connect 13 0 40 0;
#X connect 13 1 14 0;
#X connect 14 0 41 0;
#X connect 15 0 43 0;
#X connect 15 1 16 0;
#X connect 16 0 43 0;
#X connect 16 0 17 0;
#X connect 17 0 43 0;
#X connect 17 0 18 0;
#X connect 19 0 21 0;
#X connect 19 1 20 0;
#X connect 20 0 22 0;
#X connect 24 0 23 0;
#X connect 25 0 39 0;
#X connect 26 0 27 0;
#X connect 27 0 29 0;
#X connect 27 0 31 0;
#X connect 28 0 32 0;
#X connect 28 1 33 0;
#X connect 28 2 34 0;
#X connect 28 3 35 0;
#X connect 28 4 36 0;
#X connect 28 5 37 0;
#X connect 28 6 38 0;
#X connect 29 0 28 0;
#X connect 31 0 3 0;
#X connect 32 0 0 0;
#X connect 33 0 0 0;
#X connect 34 0 0 0;
#X connect 35 0 0 0;
#X connect 36 0 0 0;
#X connect 37 0 0 0;
#X connect 38 0 0 0;
#X connect 39 0 7 0;
#X connect 39 1 11 0;
#X connect 39 2 2 0;
#X connect 40 0 12 0;
#X connect 41 0 12 0;
#X connect 42 0 12 0;
#X connect 43 0 12 0;
#X connect 44 0 9 0;
#X connect 45 0 9 0;
#X connect 46 0 9 0;
#X restore 238 132 pd song-low;
#X obj 27 572 hip~ 20;
#X obj 28 546 lop~ 600;
#X obj 717 -5 tgl 16 0 empty empty empty 0 -8 0 10 #fcfcfc #000000 #000000 0 1;
#X obj 536 192 t a a a;
#X obj 710 50 t a a;
#N canvas 47 74 995 502 muteMidi 0;
#X obj 88 197 pack 55 0;
#X text 165 173 mute!;
#X obj 89 171 uzi 127 0;
#X obj 89 148 t b;
#X obj 90 35 inlet;
#X obj 90 58 t b;
#X obj 88 226 outlet midinotes;
#X obj 193 58 t b;
#X obj 192 31 inlet;
#X obj 225 81 del 100;
#X obj 247 106 del 100;
#X connect 0 0 6 0;
#X connect 2 2 0 0;
#X connect 3 0 2 0;
#X connect 4 0 5 0;
#X connect 5 0 3 0;
#X connect 7 0 3 0;
#X connect 7 0 9 0;
#X connect 8 0 7 0;
#X connect 9 0 3 0;
#X connect 9 0 10 0;
#X connect 10 0 3 0;
#X restore 95 293 pd muteMidi;
#X obj 581 224 sel 1 0;
#X msg 215 442 0 10;
#X obj 160 476 line;
#X obj 427 425 del 800;
#X obj 154 137 switch 2 1;
#X obj 299 186 tgl 16 0 empty empty empty 0 -8 0 10 #fcfcfc #000000 #000000 0 1;
#X obj 299 207 + 1;
#X obj 25 126 makenote 100 300;
#X obj 153 166 makenote 80 300;
#X obj 29 494 *~ 0.5;
#X msg 160 442 0.5 200;
#X obj 405 202 / 4;
#X obj 405 224 int;
#X obj 710 99 == 15;
#X obj 721 119 sel 1;
#X floatatom 726 170 5 0 0 0 - - - 0;
#X obj 769 106 bng 16 250 50 0 empty empty empty 0 -8 0 10 #fcfcfc #000000 #000000;
#X obj 721 142 counter 200;
#X obj 678 270 %;
#X obj 678 289 sel 0;
#X obj 292 243 loadbang;
#N canvas 0 433 831 252 kickSequences 0;
#N canvas 614 500 450 278 (subpatch) 0;
#X array \$0-kickSequence 16 float 3;
#A 0 0 1 0 0 0 0 1 0 0 1 0 1 0 1 0 0;
#X coords 0 2 16 -1 200 140 1 0 0;
#X restore 41 36 graph;
#N canvas 614 500 450 278 (subpatch) 0;
#X array \$0-hatSequence 16 float 3;
#A 0 0 0 0 1 0 1 0 0 1 0 1 0 0 0 1 0;
#X coords 0 2 16 -1 200 140 1 0 0;
#X restore 261 33 graph;
#X restore 805 206 pd kickSequences;
#X floatatom 826 294 5 0 0 0 - - - 0;
#X obj 978 272 spigot;
#X obj 788 242 select 0 1 2 3 4 5 6 7 8 9 10 11 12 13 14 15;
#X obj 789 271 tabread \$0-kickSequence;
#X obj 815 452 soundPlayer drum;
#X obj 828 311 i;
#X obj 967 468 soundPlayer hat;
#X floatatom 828 387 5 0 0 0 - - - 0;
#X obj 980 365 spigot;
#X obj 790 335 select 0 1 2 3 4 5 6 7 8 9 10 11 12 13 14 15;
#X obj 830 404 i;
#X obj 791 364 tabread \$0-hatSequence;
#X obj 859 543 *~;
#X obj 884 545 line~;
#X msg 889 526 1 300;
#X msg 934 527 0 100;
#X obj 958 554 *~;
#X obj 983 556 line~;
#X msg 988 537 1 300;
#X msg 1033 538 0 100;
#X obj 1091 343 loadbang;
#X msg 900 418 d1.wav;
#X msg 1012 416 d4.wav;
#X obj 816 501 *~ 0.2;
#X obj 967 495 *~ 0.1;
#X obj 932 6 inlet;
#X obj 932 29 t b;
#X obj 678 308 bng 16 250 50 0 empty empty empty 0 -8 0 10 #fcfcfc #000000 #000000;
#X floatatom 707 271 5 0 0 0 - - - 0;
#X obj 942 60 bng 16 250 50 0 empty empty empty 0 -8 0 10 #fcfcfc #000000 #000000;
#X msg 322 14 0, f 2;
#X obj 370 111 t b a;
#X connect 0 0 36 0;
#X connect 1 0 2 0;
#X connect 2 0 37 0;
#X connect 3 0 37 0;
#X connect 4 0 86 0;
#X connect 4 1 30 0;
#X connect 4 1 87 0;
#X connect 5 0 90 0;
#X connect 5 1 6 0;
#X connect 5 1 91 0;
#X connect 6 0 58 0;
#X connect 7 0 36 0;
#X connect 9 0 11 0;
#X connect 10 0 12 0;
#X connect 11 0 4 0;
#X connect 11 0 31 1;
#X connect 11 0 25 0;
#X connect 12 0 5 0;
#X connect 12 0 35 1;
#X connect 12 0 43 1;
#X connect 12 0 25 1;
#X connect 15 0 17 0;
#X connect 17 0 21 0;
#X connect 17 0 26 0;
#X connect 18 0 16 0;
#X connect 18 0 47 0;
#X connect 19 0 18 0;
#X connect 19 1 18 1;
#X connect 20 0 17 0;
#X connect 21 0 18 0;
#X connect 22 0 17 0;
#X connect 23 0 12 0;
#X connect 24 0 11 0;
#X connect 26 0 19 0;
#X connect 27 0 29 0;
#X connect 27 0 3 0;
#X connect 27 0 61 0;
#X connect 29 0 28 0;
#X connect 30 0 57 0;
#X connect 31 0 57 0;
#X connect 32 0 40 0;
#X connect 33 0 34 0;
#X connect 33 0 42 0;
#X connect 35 0 54 2;
#X connect 36 0 1 0;
#X connect 36 1 2 1;
#X connect 36 2 2 2;
#X connect 37 0 59 0;
#X connect 38 0 33 0;
#X connect 39 0 38 0;
#X connect 39 0 63 0;
#X connect 39 0 74 0;
#X connect 39 0 75 0;
#X connect 39 0 81 0;
#X connect 39 0 83 0;
#X connect 40 0 39 0;
#X connect 40 1 48 0;
#X connect 41 0 35 0;
#X connect 41 0 31 0;
#X connect 41 0 43 0;
#X connect 42 0 41 0;
#X connect 43 0 54 1;
#X connect 44 0 8 0;
#X connect 45 0 44 0;
#X connect 46 0 40 0;
#X connect 47 0 103 0;
#X connect 47 1 13 0;
#X connect 47 2 50 0;
#X connect 48 0 39 1;
#X connect 48 1 35 2;
#X connect 48 1 31 2;
#X connect 48 1 39 2;
#X connect 48 1 43 2;
#X connect 50 0 6 0;
#X connect 50 0 30 0;
#X connect 50 0 49 0;
#X connect 50 0 53 0;
#X connect 50 1 51 0;
#X connect 51 0 52 0;
#X connect 52 0 59 1;
#X connect 53 0 60 0;
#X connect 54 0 58 0;
#X connect 55 0 56 0;
#X connect 56 0 54 0;
#X connect 57 0 0 0;
#X connect 57 1 0 1;
#X connect 58 0 7 0;
#X connect 58 1 7 1;
#X connect 59 0 45 0;
#X connect 60 0 52 0;
#X connect 61 0 62 0;
#X connect 62 0 68 1;
#X connect 63 0 64 0;
#X connect 64 0 67 0;
#X connect 66 0 67 0;
#X connect 67 0 65 0;
#X connect 67 0 68 0;
#X connect 68 0 69 0;
#X connect 68 0 100 0;
#X connect 69 0 55 0;
#X connect 69 0 99 0;
#X connect 70 0 55 0;
#X connect 72 0 77 0;
#X connect 73 0 76 2;
#X connect 74 0 73 0;
#X connect 74 1 73 0;
#X connect 74 2 73 0;
#X connect 74 3 73 0;
#X connect 74 4 73 0;
#X connect 74 5 73 0;
#X connect 74 6 73 0;
#X connect 74 7 73 0;
#X connect 74 8 73 0;
#X connect 74 9 73 0;
#X connect 74 10 73 0;
#X connect 74 11 73 0;
#X connect 74 12 73 0;
#X connect 74 13 73 0;
#X connect 74 14 73 0;
#X connect 74 15 73 0;
#X connect 75 0 72 0;
#X connect 76 0 95 0;
#X connect 77 0 73 1;
#X connect 78 0 96 0;
#X connect 79 0 82 0;
#X connect 80 0 78 2;
#X connect 81 0 80 0;
#X connect 81 1 80 0;
#X connect 81 2 80 0;
#X connect 81 3 80 0;
#X connect 81 4 80 0;
#X connect 81 5 80 0;
#X connect 81 6 80 0;
#X connect 81 7 80 0;
#X connect 81 8 80 0;
#X connect 81 9 80 0;
#X connect 81 10 80 0;
#X connect 81 11 80 0;
#X connect 81 12 80 0;
#X connect 81 13 80 0;
#X connect 81 14 80 0;
#X connect 81 15 80 0;
#X connect 82 0 80 1;
#X connect 83 0 79 0;
#X connect 84 0 45 0;
#X connect 85 0 84 1;
#X connect 86 0 85 0;
#X connect 87 0 85 0;
#X connect 88 0 45 0;
#X connect 89 0 88 1;
#X connect 90 0 89 0;
#X connect 91 0 89 0;
#X connect 92 0 94 0;
#X connect 92 0 93 0;
#X connect 93 0 76 1;
#X connect 94 0 78 1;
#X connect 95 0 84 0;
#X connect 96 0 88 0;
#X connect 97 0 98 0;
#X connect 98 0 39 2;
#X connect 98 0 101 0;
#X connect 102 0 12 0;
#X connect 102 0 11 0;
#X connect 103 0 102 0;
#X connect 103 1 12 1;
#X connect 103 1 11 1;
