#N canvas 168 23 1112 537 12;
#X obj 186 86 symbol;
#X obj 175 615 outlet~;
#X obj 186 31 r loadfile;
#X obj 439 61 r mode;
#X obj 440 316 switch~;
#X obj 439 241 > 0;
#X obj 467 274 tgl 19 0 empty empty empty 0 -10 0 12 #fcfcfc #000000 #000000 0 1;
#X msg 471 128 3;
#X obj 187 62 spigot;
#X obj 436 176 == 4;
#X msg 498 96 4;
#X obj 482 175 == 5;
#X obj 437 210 ||;
#X obj 478 198 t b a;
#X obj 148 377 *~ 1;
#X msg 92 243 1;
#X obj 263 339 soundPlayer call;
#X obj 716 251 soundPlayer nachhall;
#X obj 623 92 symbol;
#X obj 624 68 spigot;
#X obj 624 41 r wisper;
#X msg 625 215 1;
#X obj 625 348 *~ 1;
#X msg 719 80 a_n_2.wav;
#X obj 186 171 t b a b;
#X msg 238 202 0;
#X obj 338 128 tgl 19 0 empty empty empty 0 -10 0 12 #fcfcfc #000000 #000000 0 1;
#X msg 374 367 1;
#X obj 624 126 spigot 1;
#X obj 706 121 tgl 19 0 empty empty empty 0 -10 0 12 #fcfcfc #000000 #000000 0 1;
#X obj 626 159 t b a b;
#X msg 712 183 0;
#X msg 755 283 1;
#X msg 721 54 end_a_n_1.wav;
#X obj 373 308 bng 19 250 50 0 empty empty empty 0 -10 0 12 #fcfcfc #000000 #000000;
#X obj 92 215 del 400;
#X obj 625 187 del 400;
#X obj 148 300 readsf~;
#X obj 187 129 spigot 1;
#X obj 58 278 bng 19 250 50 0 empty empty empty 0 -10 0 12 #fcfcfc #000000 #000000;
#X msg 195 325 1, f 2;
#X obj 168 237 prepend open;
#X obj 168 260 list trim;
#X msg 272 32 end_a_c.wav;
#X obj 625 275 readsf~;
#X msg 685 300 1, f 2;
#X obj 658 212 prepend open;
#X obj 658 235 list trim;
#X connect 0 0 38 0;
#X connect 2 0 8 0;
#X connect 3 0 9 0;
#X connect 3 0 11 0;
#X connect 5 0 4 0;
#X connect 5 0 6 0;
#X connect 5 0 8 1;
#X connect 5 0 19 1;
#X connect 7 0 9 0;
#X connect 8 0 0 0;
#X connect 9 0 12 0;
#X connect 10 0 9 0;
#X connect 11 0 13 0;
#X connect 12 0 5 0;
#X connect 13 0 12 0;
#X connect 13 1 12 1;
#X connect 14 0 1 0;
#X connect 15 0 37 0;
#X connect 15 0 39 0;
#X connect 16 1 27 0;
#X connect 17 1 32 0;
#X connect 18 0 28 0;
#X connect 19 0 18 0;
#X connect 20 0 19 0;
#X connect 21 0 44 0;
#X connect 22 0 1 0;
#X connect 23 0 18 0;
#X connect 24 0 35 0;
#X connect 24 1 41 0;
#X connect 24 2 25 0;
#X connect 25 0 26 0;
#X connect 26 0 38 1;
#X connect 27 0 26 0;
#X connect 28 0 30 0;
#X connect 29 0 28 1;
#X connect 30 0 36 0;
#X connect 30 1 46 0;
#X connect 30 2 31 0;
#X connect 31 0 29 0;
#X connect 32 0 29 0;
#X connect 33 0 18 0;
#X connect 34 0 16 2;
#X connect 35 0 15 0;
#X connect 36 0 21 0;
#X connect 37 0 14 0;
#X connect 37 1 40 0;
#X connect 38 0 24 0;
#X connect 40 0 26 0;
#X connect 41 0 42 0;
#X connect 42 0 37 0;
#X connect 43 0 8 0;
#X connect 44 0 22 0;
#X connect 44 1 45 0;
#X connect 45 0 29 0;
#X connect 46 0 47 0;
#X connect 47 0 44 0;
