#N canvas 36 23 1238 755 12;
#X obj 173 318 readsf~;
#X obj -120 -30 r loadfile;
#X obj 174 201 list prepend open;
#X obj 174 263 t b a;
#X msg 174 289 1;
#X obj 174 232 list trim;
#X obj 175 560 outlet~;
#X obj 439 61 r mode;
#X obj 440 316 switch~;
#X obj 439 241 > 0;
#X obj 225 93 symbol;
#X msg 175 176 \$1_Av.wav;
#X obj 92 78 r inst;
#X obj 92 102 + 1;
#X obj 174 122 gate 4 1;
#X msg 251 175 \$1_L.wav;
#X msg 320 176 \$1_X.wav;
#X obj 467 274 tgl 19 0 empty empty empty 0 -10 0 12 #fcfcfc #000000 #000000 0 1;
#X msg -117 98 1;
#N canvas 153 77 1127 701 ledstrip1 0;
#X obj 81 7 inlet;
#X obj 639 659 outlet;
#X obj 78 651 outlet;
#X obj 572 42 inlet;
#X obj 280 650 outlet;
#X obj 132 32 tgl 19 0 empty empty empty 0 -10 0 12 #fcfcfc #000000 #000000 0 1;
#X obj 131 65 tgl 19 0 empty empty empty 0 -10 0 12 #fcfcfc #000000 #000000 0 1;
#X obj 81 64 t a a;
#X obj 130 131 tgl 19 0 empty empty empty 0 -10 0 12 #fcfcfc #000000 #000000 0 1;
#X obj 80 130 t a a;
#X obj 131 198 tgl 19 0 empty empty empty 0 -10 0 12 #fcfcfc #000000 #000000 0 1;
#X obj 81 197 t a a;
#X obj 131 318 tgl 19 0 empty empty empty 0 -10 0 12 #fcfcfc #000000 #000000 0 1;
#X obj 81 317 t a a;
#X obj 130 384 tgl 19 0 empty empty empty 0 -10 0 12 #fcfcfc #000000 #000000 0 1;
#X obj 80 383 t a a;
#X obj 295 92 tgl 19 0 empty empty empty 0 -10 0 12 #fcfcfc #000000 #000000 0 1;
#X obj 245 91 t a a;
#X obj 296 161 tgl 19 0 empty empty empty 0 -10 0 12 #fcfcfc #000000 #000000 0 1;
#X obj 246 160 t a a;
#X obj 296 228 tgl 19 0 empty empty empty 0 -10 0 12 #fcfcfc #000000 #000000 0 1;
#X obj 246 227 t a a;
#X obj 295 294 tgl 19 0 empty empty empty 0 -10 0 12 #fcfcfc #000000 #000000 0 1;
#X obj 245 293 t a a;
#X obj 296 361 tgl 19 0 empty empty empty 0 -10 0 12 #fcfcfc #000000 #000000 0 1;
#X obj 246 360 t a a;
#X obj 221 592 tgl 19 0 empty empty empty 0 -10 0 12 #fcfcfc #000000 #000000 0 1;
#X obj 248 499 t a b a;
#X obj 130 257 tgl 19 0 empty empty empty 0 -10 0 12 #fcfcfc #000000 #000000 0 1;
#X obj 80 256 t a a;
#X msg 573 112 clear;
#X obj 247 418 route 0;
#X msg 248 472 0;
#X obj 572 78 t b b;
#X msg 533 73 0;
#X msg 635 112 0 0 0 0 0 0 0 0 0 0 0 0;
#X obj 686 575 pak 0 0 0 0 0 0 0 0 0 0 0 0, f 49;
#X msg 161 501 1;
#X obj 160 473 sel 1;
#X obj 81 95 pipe 100;
#X obj 80 161 pipe 100;
#X obj 81 228 pipe 100;
#X obj 80 287 pipe 100;
#X obj 81 348 pipe 100;
#X obj 246 66 pipe 100;
#X obj 245 122 pipe 100;
#X obj 246 191 pipe 100;
#X obj 246 258 pipe 100;
#X obj 245 324 pipe 100;
#X obj 246 391 pipe 100;
#X obj 247 448 delay 200;
#X obj 965 58 inlet;
#X obj 662 617 spigot;
#X obj 81 36 t a b;
#X msg 772 620 1;
#X msg 804 618 0;
#X obj 784 667 change;
#X obj 789 642 tgl 19 0 empty empty empty 0 -10 0 12 #fcfcfc #000000 #000000 0 1;
#X connect 0 0 53 0;
#X connect 3 0 33 0;
#X connect 5 0 7 0;
#X connect 7 0 39 0;
#X connect 7 1 6 0;
#X connect 7 1 36 0;
#X connect 9 0 40 0;
#X connect 9 1 8 0;
#X connect 9 1 36 1;
#X connect 11 0 41 0;
#X connect 11 1 10 0;
#X connect 11 1 36 2;
#X connect 13 0 43 0;
#X connect 13 1 12 0;
#X connect 13 1 36 4;
#X connect 15 0 44 0;
#X connect 15 1 14 0;
#X connect 15 1 36 5;
#X connect 17 0 45 0;
#X connect 17 1 16 0;
#X connect 17 1 36 6;
#X connect 19 0 46 0;
#X connect 19 1 18 0;
#X connect 19 1 36 7;
#X connect 21 0 47 0;
#X connect 21 1 20 0;
#X connect 21 1 36 8;
#X connect 23 0 48 0;
#X connect 23 1 22 0;
#X connect 23 1 36 9;
#X connect 25 0 49 0;
#X connect 25 1 24 0;
#X connect 25 1 36 10;
#X connect 26 0 4 0;
#X connect 27 0 2 0;
#X connect 27 2 36 11;
#X connect 29 0 42 0;
#X connect 29 1 28 0;
#X connect 29 1 36 3;
#X connect 30 0 39 0;
#X connect 30 0 40 0;
#X connect 30 0 41 0;
#X connect 30 0 42 0;
#X connect 30 0 43 0;
#X connect 30 0 44 0;
#X connect 30 0 45 0;
#X connect 30 0 46 0;
#X connect 30 0 47 0;
#X connect 30 0 48 0;
#X connect 30 0 49 0;
#X connect 31 0 50 0;
#X connect 31 1 27 0;
#X connect 32 0 27 0;
#X connect 32 0 26 0;
#X connect 33 0 35 0;
#X connect 33 0 34 0;
#X connect 33 1 30 0;
#X connect 33 1 55 0;
#X connect 34 0 7 0;
#X connect 35 0 1 0;
#X connect 36 0 52 0;
#X connect 37 0 26 0;
#X connect 38 0 37 0;
#X connect 39 0 9 0;
#X connect 40 0 11 0;
#X connect 41 0 29 0;
#X connect 42 0 13 0;
#X connect 43 0 15 0;
#X connect 44 0 17 0;
#X connect 45 0 19 0;
#X connect 46 0 21 0;
#X connect 47 0 23 0;
#X connect 47 0 38 0;
#X connect 48 0 25 0;
#X connect 49 0 31 0;
#X connect 50 0 32 0;
#X connect 51 0 39 1;
#X connect 51 0 40 1;
#X connect 51 0 41 1;
#X connect 51 0 42 1;
#X connect 51 0 43 1;
#X connect 51 0 44 1;
#X connect 51 0 45 1;
#X connect 51 0 46 1;
#X connect 51 0 47 1;
#X connect 51 0 48 1;
#X connect 51 0 49 1;
#X connect 52 0 1 0;
#X connect 53 0 7 0;
#X connect 53 1 54 0;
#X connect 54 0 57 0;
#X connect 55 0 57 0;
#X connect 56 0 52 1;
#X connect 57 0 56 0;
#X restore -145 350 pd ledstrip1;
#X obj -125 418 &&;
#X obj -123 388 t b a;
#X obj -141 457 s LEDaction1;
#N canvas 153 77 1127 701 ledstrip2 0;
#X obj 81 7 inlet;
#X obj 639 659 outlet;
#X obj 78 651 outlet;
#X obj 572 42 inlet;
#X obj 280 650 outlet;
#X obj 132 32 tgl 19 0 empty empty empty 0 -10 0 12 #fcfcfc #000000 #000000 0 1;
#X obj 131 65 tgl 19 0 empty empty empty 0 -10 0 12 #fcfcfc #000000 #000000 0 1;
#X obj 81 64 t a a;
#X obj 130 131 tgl 19 0 empty empty empty 0 -10 0 12 #fcfcfc #000000 #000000 0 1;
#X obj 80 130 t a a;
#X obj 131 198 tgl 19 0 empty empty empty 0 -10 0 12 #fcfcfc #000000 #000000 0 1;
#X obj 81 197 t a a;
#X obj 131 318 tgl 19 0 empty empty empty 0 -10 0 12 #fcfcfc #000000 #000000 0 1;
#X obj 81 317 t a a;
#X obj 130 384 tgl 19 0 empty empty empty 0 -10 0 12 #fcfcfc #000000 #000000 0 1;
#X obj 80 383 t a a;
#X obj 295 92 tgl 19 0 empty empty empty 0 -10 0 12 #fcfcfc #000000 #000000 0 1;
#X obj 245 91 t a a;
#X obj 296 161 tgl 19 0 empty empty empty 0 -10 0 12 #fcfcfc #000000 #000000 0 1;
#X obj 246 160 t a a;
#X obj 296 228 tgl 19 0 empty empty empty 0 -10 0 12 #fcfcfc #000000 #000000 0 1;
#X obj 246 227 t a a;
#X obj 295 294 tgl 19 0 empty empty empty 0 -10 0 12 #fcfcfc #000000 #000000 0 1;
#X obj 245 293 t a a;
#X obj 296 361 tgl 19 0 empty empty empty 0 -10 0 12 #fcfcfc #000000 #000000 0 1;
#X obj 246 360 t a a;
#X obj 221 592 tgl 19 0 empty empty empty 0 -10 0 12 #fcfcfc #000000 #000000 0 1;
#X obj 248 499 t a b a;
#X obj 130 257 tgl 19 0 empty empty empty 0 -10 0 12 #fcfcfc #000000 #000000 0 1;
#X obj 80 256 t a a;
#X msg 573 112 clear;
#X obj 247 418 route 0;
#X msg 248 472 0;
#X obj 572 78 t b b;
#X msg 533 73 0;
#X msg 635 112 0 0 0 0 0 0 0 0 0 0 0 0;
#X obj 686 575 pak 0 0 0 0 0 0 0 0 0 0 0 0, f 49;
#X msg 161 501 1;
#X obj 160 473 sel 1;
#X obj 81 95 pipe 100;
#X obj 80 161 pipe 100;
#X obj 81 228 pipe 100;
#X obj 80 287 pipe 100;
#X obj 81 348 pipe 100;
#X obj 246 66 pipe 100;
#X obj 245 122 pipe 100;
#X obj 246 191 pipe 100;
#X obj 246 258 pipe 100;
#X obj 245 324 pipe 100;
#X obj 246 391 pipe 100;
#X obj 965 58 inlet;
#X obj 662 617 spigot;
#X obj 81 36 t a b;
#X msg 772 620 1;
#X msg 804 618 0;
#X obj 784 667 change;
#X obj 789 642 tgl 19 0 empty empty empty 0 -10 0 12 #fcfcfc #000000 #000000 0 1;
#X obj 247 448 delay 200;
#X connect 0 0 52 0;
#X connect 3 0 33 0;
#X connect 5 0 7 0;
#X connect 7 0 39 0;
#X connect 7 1 6 0;
#X connect 7 1 36 0;
#X connect 9 0 40 0;
#X connect 9 1 8 0;
#X connect 9 1 36 1;
#X connect 11 0 41 0;
#X connect 11 1 10 0;
#X connect 11 1 36 2;
#X connect 13 0 43 0;
#X connect 13 1 12 0;
#X connect 13 1 36 4;
#X connect 15 0 44 0;
#X connect 15 1 14 0;
#X connect 15 1 36 5;
#X connect 17 0 45 0;
#X connect 17 1 16 0;
#X connect 17 1 36 6;
#X connect 19 0 46 0;
#X connect 19 1 18 0;
#X connect 19 1 36 7;
#X connect 21 0 47 0;
#X connect 21 0 38 0;
#X connect 21 1 20 0;
#X connect 21 1 36 8;
#X connect 23 0 48 0;
#X connect 23 1 22 0;
#X connect 23 1 36 9;
#X connect 25 0 49 0;
#X connect 25 1 24 0;
#X connect 25 1 36 10;
#X connect 26 0 4 0;
#X connect 27 0 2 0;
#X connect 27 2 36 11;
#X connect 29 0 42 0;
#X connect 29 1 28 0;
#X connect 29 1 36 3;
#X connect 30 0 39 0;
#X connect 30 0 40 0;
#X connect 30 0 41 0;
#X connect 30 0 42 0;
#X connect 30 0 43 0;
#X connect 30 0 44 0;
#X connect 30 0 45 0;
#X connect 30 0 46 0;
#X connect 30 0 47 0;
#X connect 30 0 48 0;
#X connect 30 0 49 0;
#X connect 31 0 57 0;
#X connect 31 1 27 0;
#X connect 32 0 27 0;
#X connect 32 0 26 0;
#X connect 33 0 35 0;
#X connect 33 0 34 0;
#X connect 33 1 30 0;
#X connect 33 1 54 0;
#X connect 34 0 7 0;
#X connect 35 0 1 0;
#X connect 36 0 51 0;
#X connect 37 0 26 0;
#X connect 38 0 37 0;
#X connect 39 0 9 0;
#X connect 40 0 11 0;
#X connect 41 0 29 0;
#X connect 42 0 13 0;
#X connect 43 0 15 0;
#X connect 44 0 17 0;
#X connect 45 0 19 0;
#X connect 46 0 21 0;
#X connect 47 0 23 0;
#X connect 48 0 25 0;
#X connect 49 0 31 0;
#X connect 50 0 39 1;
#X connect 50 0 40 1;
#X connect 50 0 41 1;
#X connect 50 0 42 1;
#X connect 50 0 43 1;
#X connect 50 0 44 1;
#X connect 50 0 45 1;
#X connect 50 0 46 1;
#X connect 50 0 47 1;
#X connect 50 0 48 1;
#X connect 50 0 49 1;
#X connect 51 0 1 0;
#X connect 52 0 7 0;
#X connect 52 1 53 0;
#X connect 53 0 56 0;
#X connect 54 0 56 0;
#X connect 55 0 51 1;
#X connect 56 0 55 0;
#X connect 57 0 32 0;
#X restore -38 351 pd ledstrip2;
#X msg -38 96 1;
#X obj -10 415 &&;
#X obj -8 385 t b a;
#X obj -38 458 s LEDaction2;
#X obj -79 55 t b a;
#X obj -85 157 t b;
#X obj 0 156 t b;
#X obj 219 29 del 1100;
#X obj 174 439 *~;
#X obj 290 433 line~;
#X msg 372 384 0 100;
#X obj 240 -81 r sensor1;
#X obj 328 -81 r sensor2;
#X obj 241 -42 spigot;
#X obj 328 -41 spigot;
#X obj 56 465 ||;
#X obj 56 437 t b a;
#X obj 93 468 tgl 19 0 empty empty empty 0 -10 0 12 #fcfcfc #000000 #000000 0 1;
#X obj 56 489 sel 1 0;
#X obj 195 -66 tgl 19 0 empty empty empty 0 -10 0 12 #fcfcfc #000000 #000000 0 1;
#X msg 23 -32 symbol c_Gymnasium;
#X obj 73 383 tgl 19 0 empty empty empty 0 -10 0 12 #fcfcfc #000000 #000000 0 1;
#X msg -36 -68 symbol c_Kindergarten;
#X obj -67 383 tgl 19 0 empty empty empty 0 -10 0 12 #fcfcfc #000000 #000000 0 1;
#X obj 645 69 r mode;
#X text 651 113 mode enable;
#X obj 645 214 &;
#X msg 664 159 1;
#X obj 665 134 loadbang;
#X obj 682 218 tgl 19 0 empty empty empty 0 -10 0 12 #fcfcfc #000000 #000000 0 1;
#X obj 645 249 > 0;
#X obj 662 187 << 3;
#X obj 673 282 tgl 19 0 empty empty empty 0 -10 0 12 #fcfcfc #000000 #000000 0 1;
#X obj 694 99 print mmm;
#X msg 723 43 8;
#X obj 439 206 == 3;
#X msg 471 128 3;
#X msg 498 96 2;
#X obj 264 65 symbol;
#X obj -81 117 bng 19 250 50 0 empty empty empty 0 -10 0 12 #fcfcfc #000000 #000000;
#X msg -293 609 0 0 0 0 0 0 0 0 0 0 0 0;
#X msg 12 596 0 0 0 0 0 0 0 0 0 0 0 0;
#X obj -303 745 s LEDstrip1;
#X obj -46 742 s LEDstrip2;
#X obj -45 693 LED_color;
#X obj -303 693 LED_color;
#X obj -275 634 loadbang;
#X obj 13 628 loadbang;
#X obj -305 574 t a b;
#X obj -41 577 t a b;
#X obj -40 509 t a b;
#X obj -299 501 t a b;
#X msg -38 548 0 0 0 0 0 0 0 0 0 0 1 1;
#X msg -195 665 0.8 1 0;
#X msg 89 653 0.4 1 0;
#X msg -275 664 0 0.8 0.8;
#X msg 14 653 0.1 0.5 1;
#X obj -223 567 bng 19 250 50 0 empty empty empty 0 -10 0 12 #fcfcfc #000000 #000000;
#X obj -181 633 bng 19 250 50 0 empty empty empty 0 -10 0 12 #fcfcfc #000000 #000000;
#X msg -304 544 0 0 0 0 0 0 0 0 1 1 1 1;
#X obj 373 280 sel 0;
#X msg -89 193 0;
#X msg -4 185 0;
#X msg 240 282 0;
#X msg 307 383 0.5 10;
#X obj -99 13 spigot;
#X connect 0 0 32 0;
#X connect 0 1 30 0;
#X connect 0 1 29 0;
#X connect 1 0 89 0;
#X connect 2 0 5 0;
#X connect 3 0 4 0;
#X connect 3 1 0 0;
#X connect 4 0 0 0;
#X connect 5 0 3 0;
#X connect 7 0 59 0;
#X connect 9 0 8 0;
#X connect 9 0 17 0;
#X connect 9 0 38 1;
#X connect 9 0 37 1;
#X connect 9 0 84 0;
#X connect 9 0 89 1;
#X connect 10 0 14 1;
#X connect 11 0 2 0;
#X connect 12 0 13 0;
#X connect 13 0 14 0;
#X connect 14 0 11 0;
#X connect 14 1 11 0;
#X connect 14 2 15 0;
#X connect 14 3 16 0;
#X connect 15 0 2 0;
#X connect 16 0 2 0;
#X connect 18 0 19 0;
#X connect 19 1 21 0;
#X connect 19 1 47 0;
#X connect 19 2 75 0;
#X connect 20 0 22 0;
#X connect 20 0 39 0;
#X connect 21 0 20 0;
#X connect 21 1 20 1;
#X connect 23 1 26 0;
#X connect 23 1 45 0;
#X connect 23 2 74 0;
#X connect 24 0 23 0;
#X connect 25 0 27 0;
#X connect 25 0 40 0;
#X connect 26 0 25 0;
#X connect 26 1 25 1;
#X connect 28 0 24 0;
#X connect 28 0 18 0;
#X connect 28 0 31 0;
#X connect 28 0 63 0;
#X connect 28 1 62 0;
#X connect 29 0 85 0;
#X connect 30 0 86 0;
#X connect 31 0 10 0;
#X connect 32 0 6 0;
#X connect 33 0 32 1;
#X connect 34 0 33 0;
#X connect 35 0 37 0;
#X connect 36 0 38 0;
#X connect 37 0 20 0;
#X connect 38 0 25 0;
#X connect 39 0 41 0;
#X connect 39 0 42 0;
#X connect 40 0 39 0;
#X connect 40 1 39 1;
#X connect 42 0 88 0;
#X connect 42 1 34 0;
#X connect 43 0 37 0;
#X connect 44 0 28 0;
#X connect 46 0 28 0;
#X connect 48 0 50 0;
#X connect 48 0 57 0;
#X connect 50 0 54 0;
#X connect 51 0 55 0;
#X connect 52 0 51 0;
#X connect 53 0 54 0;
#X connect 54 0 56 0;
#X connect 55 0 50 1;
#X connect 58 0 50 0;
#X connect 59 0 9 0;
#X connect 60 0 59 0;
#X connect 61 0 59 0;
#X connect 62 0 10 1;
#X connect 64 0 69 0;
#X connect 64 0 82 0;
#X connect 65 0 68 0;
#X connect 68 0 67 0;
#X connect 69 0 66 0;
#X connect 70 0 79 0;
#X connect 71 0 80 0;
#X connect 72 0 69 0;
#X connect 72 1 77 0;
#X connect 73 0 68 0;
#X connect 73 1 78 0;
#X connect 74 0 68 0;
#X connect 74 1 80 0;
#X connect 75 0 69 0;
#X connect 75 1 79 0;
#X connect 76 0 73 0;
#X connect 77 0 69 1;
#X connect 78 0 68 1;
#X connect 79 0 69 1;
#X connect 80 0 68 1;
#X connect 83 0 72 0;
#X connect 83 0 81 0;
#X connect 84 0 19 1;
#X connect 84 0 23 1;
#X connect 84 0 87 0;
#X connect 85 0 19 0;
#X connect 86 0 23 0;
#X connect 87 0 0 0;
#X connect 88 0 33 0;
#X connect 89 0 28 0;
