#N canvas 68 97 888 540 12;
#X obj 173 318 readsf~;
#X obj 174 201 list prepend open;
#X obj 174 263 t b a;
#X msg 174 289 1;
#X obj 174 232 list trim;
#X obj 225 93 symbol;
#X msg 175 176 \$1_Av.wav;
#X obj 174 122 gate 4 1;
#X msg 251 175 \$1_L.wav;
#X msg 320 176 \$1_X.wav;
#X obj 320 424 outlet~;
#X obj 217 17 r loadfile;
#X obj 92 78 r inst;
#X obj 92 102 + 1;
#X obj 439 61 r mode;
#X obj 440 316 switch~;
#X obj 439 241 > 0;
#X obj 467 274 tgl 19 0 empty empty empty 0 -10 0 12 #fcfcfc #000000 #000000 0 1;
#X msg 471 128 3;
#X msg 498 96 2;
#X obj 365 266 sel 0;
#X msg 345 294 0;
#X obj 246 371 *~ 0.5;
#X obj 221 55 spigot;
#X obj 439 206 == 4;
#X connect 0 0 22 0;
#X connect 1 0 4 0;
#X connect 2 0 3 0;
#X connect 2 1 0 0;
#X connect 3 0 0 0;
#X connect 4 0 2 0;
#X connect 5 0 7 1;
#X connect 6 0 1 0;
#X connect 7 0 6 0;
#X connect 7 1 6 0;
#X connect 7 2 8 0;
#X connect 7 3 9 0;
#X connect 8 0 1 0;
#X connect 9 0 1 0;
#X connect 11 0 23 0;
#X connect 12 0 13 0;
#X connect 13 0 7 0;
#X connect 14 0 24 0;
#X connect 16 0 15 0;
#X connect 16 0 17 0;
#X connect 16 0 20 0;
#X connect 16 0 23 1;
#X connect 18 0 24 0;
#X connect 19 0 24 0;
#X connect 20 0 21 0;
#X connect 21 0 0 0;
#X connect 22 0 10 0;
#X connect 23 0 5 0;
#X connect 24 0 16 0;
