#N canvas 0 23 1280 755 12;
#X declare -lib zexy;
#X obj 513 782 outlet~;
#X obj 518 462 vline~;
#X obj 649 236 bng 19 250 50 0 empty empty empty 0 -10 0 12 #fcfcfc #000000 #000000;
#X msg 601 434 stop;
#X obj 747 462 vline~;
#X msg 830 434 stop;
#X obj 749 557 *~ 1;
#X msg 747 434 0 \, \$2 \$3;
#X msg 518 434 0 \, \$2 \$3;
#X obj 518 395 pack 0 f f;
#X obj 747 395 pack 0 f f;
#X obj 728 317 expr $f2 / 48;
#X obj 957 511 hsl 162 19 0 1 0 0 empty empty empty -2 -10 0 12 #fcfcfc #000000 #000000 0 1;
#X obj 954 538 - 1;
#X obj 954 565 abs;
#X obj 955 602 hsl 162 19 0 1 0 0 empty empty empty -2 -10 0 12 #fcfcfc #000000 #000000 0 1;
#X floatatom 645 288 9 0 0 0 - - - 0;
#X obj 570 316 del 4010;
#X obj 690 148 tgl 19 0 empty empty empty 0 -10 0 12 #fcfcfc #000000 #000000 0 1;
#X obj 951 333 sel 1 0;
#X obj 954 459 line;
#X obj 1415 688 t a;
#N canvas 114 38 1163 755 voiceViolinLoader 0;
#N canvas 698 241 450 278 (subpatch) 0;
#X array shauhin_voice 366534 float 2;
#X coords 0 1 366534 -1 200 140 1 0 0;
#X restore 342 482 graph;
#X obj 259 388 soundfiler;
#X floatatom 280 416 16 0 0 0 - - - 0;
#N canvas 635 172 450 278 (subpatch) 0;
#X array shauhin_violin 366542 float 2;
#X coords 0 1 366542 -1 200 140 1 0 0;
#X restore 548 482 graph;
#X obj 606 396 soundfiler;
#X floatatom 606 418 16 0 0 0 - - - 0;
#X obj 262 761 outlet;
#X msg 322 306 read -resize 001.wav shauhin_voice;
#X msg 283 333 read -resize 002.wav shauhin_voice;
#X msg 672 308 read -resize 001_Vp.wav shauhin_violin;
#X msg 633 335 read -resize 002_Vp.wav shauhin_violin;
#X msg 258 358 read -resize 003.wav shauhin_voice;
#X msg 608 360 read -resize 003_Vp.wav shauhin_violin;
#X obj 462 67 r inst;
#X obj 463 125 sel 0 1 2 3;
#X connect 1 0 2 0;
#X connect 1 0 6 0;
#X connect 4 0 5 0;
#X connect 7 0 1 0;
#X connect 8 0 1 0;
#X connect 9 0 4 0;
#X connect 10 0 4 0;
#X connect 11 0 1 0;
#X connect 12 0 4 0;
#X connect 13 0 14 0;
#X connect 14 0 7 0;
#X connect 14 0 9 0;
#X connect 14 1 7 0;
#X connect 14 1 9 0;
#X connect 14 2 8 0;
#X connect 14 2 10 0;
#X connect 14 3 12 0;
#X connect 14 3 11 0;
#X restore 730 260 pd voiceViolinLoader;
#X obj 518 490 tabread4~ shauhin_voice;
#X obj 747 490 tabread4~ shauhin_violin;
#X obj 695 209 t b b;
#X obj 1140 219 switch~;
#X text 1068 -16 mode;
#X obj 649 111 ||;
#X obj 649 85 t b a;
#X obj 514 627 *~ 0;
#X obj 1415 662 tgl 19 0 empty empty empty 0 -10 0 12 #fcfcfc #000000 #000000 0 1;
#X msg 1007 425 1 500;
#X obj 1009 162 del 100;
#X msg 1054 425 1 50;
#X obj 651 170 spigot;
#X obj 514 758 *~;
#X obj 1147 700 line;
#X msg 1102 670 1 100;
#X obj 1146 644 sel 1 0;
#X obj 954 483 expr $f1 *$f1 * $f1;
#X msg 954 425 0 4000;
#X obj 774 527 scale 0 1 0.3 1;
#X obj 729 292 t b a;
#X msg 904 179 stop;
#X obj 906 153 sel 0;
#X msg 1178 181 0;
#X msg 1140 189 1;
#X obj 1140 130 sel 1 0;
#X obj 1409 205 r my_id;
#X msg 1392 437 seed \$1;
#X obj 1367 489 + 1000;
#X obj 1367 465 random 6000;
#X obj 16 -17 declare -lib zexy;
#X obj 1409 261 time, f 7;
#X obj 1456 319 *;
#X obj 1456 288 i;
#X obj 1409 233 t b a, f 9;
#X msg 1371 207 1;
#X obj 1423 591 del;
#X obj 1423 561 t b a;
#X obj 1402 620 t b b;
#X floatatom 1381 513 5 0 0 0 - - - 0;
#X obj 1367 395 gate 2 1;
#X obj 1492 414 *;
#X obj 1492 389 t b a;
#X msg 1492 439 seed \$1;
#X obj 1365 325 + 1;
#X floatatom 1461 515 5 0 0 0 - - - 0;
#X obj 1461 467 random 4000;
#X obj 1461 491 + 800;
#X obj 1199 219 tgl 19 0 empty empty empty 0 -10 0 12 #fcfcfc #000000 #000000 0 1;
#X obj 567 735 sig~;
#X obj 1426 356 r mode2auto;
#X obj 1066 5 r mode;
#X obj 568 -19 r sensor1;
#X obj 656 -19 r sensor2;
#X obj 338 4 r mode2bow;
#X obj 1069 94 > 0;
#X obj 549 38 gate 2 1;
#X obj 648 38 gate 2 1;
#X obj 551 100 ||;
#X obj 551 74 t b a;
#X obj 1146 570 spigot;
#X obj 533 138 - 1;
#X obj 533 162 abs;
#X obj 1172 482 i;
#X obj 570 137 sel 0;
#X obj 1173 511 spigot;
#X obj 1089 145 sel 0;
#X msg 1243 484 0;
#X msg 1211 483 1;
#X obj 1212 460 t b;
#X obj 1172 537 route 0;
#X msg 1262 21 2000;
#X obj 1262 81 s mode12cross;
#X obj 1093 737 hsl 162 19 0 1 0 0 empty empty empty -2 -10 0 12 #fcfcfc #000000 #000000 0 1;
#X obj 1149 365 r mode12cross;
#X obj 1149 392 spigot;
#X obj 730 0 tgl 19 0 empty empty empty 0 -10 0 12 #fcfcfc #000000 #000000 0 1;
#X obj 872 53 &;
#X msg 891 -2 1;
#X obj 845 54 tgl 19 0 empty empty empty 0 -10 0 12 #fcfcfc #000000 #000000 0 1;
#X obj 889 26 << 1;
#X obj 828 -11 r mode;
#X obj 870 78 > 0;
#X obj 1066 53 == 2;
#X msg 1009 11 2;
#X msg 990 44 1;
#X obj 1129 96 tgl 19 0 empty empty empty 0 -10 0 12 #fcfcfc #000000 #000000 0 1;
#X msg 50 556 0 0 0 0 0 0 0 0 0 0 0 0;
#X msg 345 549 0 0 0 0 0 0 0 0 0 0 0 0;
#X obj 30 715 s LEDstrip1;
#X obj 287 712 s LEDstrip2;
#X obj 288 663 LED_color;
#X obj 30 663 LED_color;
#X obj 28 528 t a b;
#X obj 292 547 t a b;
#X msg 68 629 0.8 1 0;
#X msg 29 497 0 0 0 0 0 0 0 0 1 1 1 1;
#X msg 295 518 0 0 0 0 0 0 0 0 1 1 1 1;
#X obj 1005 667 > 0.3;
#X obj 30 450 sel 1 0;
#X obj 297 453 sel 1 0;
#X msg 1204 614 1 \$1;
#X obj 749 582 *~ 0.2;
#X obj 1003 722 > 0.8;
#X obj 1003 775 sel 1;
#X obj 1003 746 change;
#X obj 820 766 s string_mode;
#X msg 838 734 1;
#X obj 514 660 *~ 0.8;
#X msg 1189 672 0 5000;
#X obj 1163 154 del 5001;
#X obj 359 72 + 1;
#X obj 359 38 tgl 19 0 empty empty empty 0 -10 0 12 #fcfcfc #000000 #000000 0 1;
#X obj 306 38 tgl 19 0 empty empty empty 0 -10 0 12 #fcfcfc #000000 #000000 0 1;
#X obj 398 36 tgl 19 0 empty empty empty 0 -10 0 12 #fcfcfc #000000 #000000 0 1;
#X obj 40 289 s LEDstrip1;
#X obj 44 247 LED_color;
#N canvas 153 77 1127 701 ledstrip1 0;
#X obj 81 7 inlet;
#X obj 639 659 outlet;
#X obj 78 651 outlet;
#X obj 572 42 inlet;
#X obj 280 650 outlet;
#X obj 132 32 tgl 19 0 empty empty empty 0 -10 0 12 #fcfcfc #000000 #000000 0 1;
#X obj 131 65 tgl 19 0 empty empty empty 0 -10 0 12 #fcfcfc #000000 #000000 0 1;
#X obj 81 64 t a a;
#X obj 130 131 tgl 19 0 empty empty empty 0 -10 0 12 #fcfcfc #000000 #000000 0 1;
#X obj 80 130 t a a;
#X obj 131 198 tgl 19 0 empty empty empty 0 -10 0 12 #fcfcfc #000000 #000000 0 1;
#X obj 81 197 t a a;
#X obj 131 318 tgl 19 0 empty empty empty 0 -10 0 12 #fcfcfc #000000 #000000 0 1;
#X obj 81 317 t a a;
#X obj 130 384 tgl 19 0 empty empty empty 0 -10 0 12 #fcfcfc #000000 #000000 0 1;
#X obj 80 383 t a a;
#X obj 295 92 tgl 19 0 empty empty empty 0 -10 0 12 #fcfcfc #000000 #000000 0 1;
#X obj 245 91 t a a;
#X obj 296 161 tgl 19 0 empty empty empty 0 -10 0 12 #fcfcfc #000000 #000000 0 1;
#X obj 246 160 t a a;
#X obj 296 228 tgl 19 0 empty empty empty 0 -10 0 12 #fcfcfc #000000 #000000 0 1;
#X obj 246 227 t a a;
#X obj 295 294 tgl 19 0 empty empty empty 0 -10 0 12 #fcfcfc #000000 #000000 0 1;
#X obj 245 293 t a a;
#X obj 296 361 tgl 19 0 empty empty empty 0 -10 0 12 #fcfcfc #000000 #000000 0 1;
#X obj 246 360 t a a;
#X obj 221 592 tgl 19 0 empty empty empty 0 -10 0 12 #fcfcfc #000000 #000000 0 1;
#X obj 248 499 t a b a;
#X obj 130 257 tgl 19 0 empty empty empty 0 -10 0 12 #fcfcfc #000000 #000000 0 1;
#X obj 80 256 t a a;
#X msg 573 112 clear;
#X obj 247 418 route 0;
#X msg 248 472 0;
#X obj 572 78 t b b;
#X msg 533 73 0;
#X msg 635 112 0 0 0 0 0 0 0 0 0 0 0 0;
#X obj 686 575 pak 0 0 0 0 0 0 0 0 0 0 0 0, f 49;
#X msg 161 501 1;
#X obj 160 473 sel 1;
#X obj 81 95 pipe 100;
#X obj 80 161 pipe 100;
#X obj 81 228 pipe 100;
#X obj 80 287 pipe 100;
#X obj 81 348 pipe 100;
#X obj 246 66 pipe 100;
#X obj 245 122 pipe 100;
#X obj 246 191 pipe 100;
#X obj 246 258 pipe 100;
#X obj 245 324 pipe 100;
#X obj 246 391 pipe 100;
#X obj 247 448 delay 200;
#X obj 965 58 inlet;
#X obj 662 617 spigot;
#X obj 81 36 t a b;
#X msg 772 620 1;
#X msg 804 618 0;
#X obj 784 667 change;
#X obj 789 642 tgl 19 0 empty empty empty 0 -10 0 12 #fcfcfc #000000 #000000 0 1;
#X connect 0 0 53 0;
#X connect 3 0 33 0;
#X connect 5 0 7 0;
#X connect 7 0 39 0;
#X connect 7 1 6 0;
#X connect 7 1 36 0;
#X connect 9 0 40 0;
#X connect 9 1 8 0;
#X connect 9 1 36 1;
#X connect 11 0 41 0;
#X connect 11 1 10 0;
#X connect 11 1 36 2;
#X connect 13 0 43 0;
#X connect 13 1 12 0;
#X connect 13 1 36 4;
#X connect 15 0 44 0;
#X connect 15 1 14 0;
#X connect 15 1 36 5;
#X connect 17 0 45 0;
#X connect 17 0 38 0;
#X connect 17 1 16 0;
#X connect 17 1 36 6;
#X connect 19 0 46 0;
#X connect 19 1 18 0;
#X connect 19 1 36 7;
#X connect 21 0 47 0;
#X connect 21 1 20 0;
#X connect 21 1 36 8;
#X connect 23 0 48 0;
#X connect 23 1 22 0;
#X connect 23 1 36 9;
#X connect 25 0 49 0;
#X connect 25 1 24 0;
#X connect 25 1 36 10;
#X connect 26 0 4 0;
#X connect 27 0 2 0;
#X connect 27 2 36 11;
#X connect 29 0 42 0;
#X connect 29 1 28 0;
#X connect 29 1 36 3;
#X connect 30 0 39 0;
#X connect 30 0 40 0;
#X connect 30 0 41 0;
#X connect 30 0 42 0;
#X connect 30 0 43 0;
#X connect 30 0 44 0;
#X connect 30 0 45 0;
#X connect 30 0 46 0;
#X connect 30 0 47 0;
#X connect 30 0 48 0;
#X connect 30 0 49 0;
#X connect 31 0 50 0;
#X connect 31 1 27 0;
#X connect 32 0 27 0;
#X connect 32 0 26 0;
#X connect 33 0 35 0;
#X connect 33 0 34 0;
#X connect 33 1 30 0;
#X connect 33 1 55 0;
#X connect 34 0 7 0;
#X connect 35 0 1 0;
#X connect 36 0 52 0;
#X connect 37 0 26 0;
#X connect 38 0 37 0;
#X connect 39 0 9 0;
#X connect 40 0 11 0;
#X connect 41 0 29 0;
#X connect 42 0 13 0;
#X connect 43 0 15 0;
#X connect 44 0 17 0;
#X connect 45 0 19 0;
#X connect 46 0 21 0;
#X connect 47 0 23 0;
#X connect 48 0 25 0;
#X connect 49 0 31 0;
#X connect 50 0 32 0;
#X connect 51 0 39 1;
#X connect 51 0 40 1;
#X connect 51 0 41 1;
#X connect 51 0 42 1;
#X connect 51 0 43 1;
#X connect 51 0 44 1;
#X connect 51 0 45 1;
#X connect 51 0 46 1;
#X connect 51 0 47 1;
#X connect 51 0 48 1;
#X connect 51 0 49 1;
#X connect 52 0 1 0;
#X connect 53 0 7 0;
#X connect 53 1 54 0;
#X connect 54 0 57 0;
#X connect 55 0 57 0;
#X connect 56 0 52 1;
#X connect 57 0 56 0;
#X restore 140 135 pd ledstrip1;
#X obj 136 195 loadbang;
#X obj 377 216 loadbang;
#X obj 275 253 LED_color;
#X obj 271 295 s LEDstrip2;
#X msg 143 225 0 0.4 0.4;
#X msg 378 241 0 0.2 0.5;
#X msg 345 626 0.4 1 0;
#X obj 353 589 t a b;
#X obj 48 585 t a b;
#X obj 1172 44 sel 0;
#X msg 1249 621 1 \$1;
#X msg 1135 346 2000;
#X obj 1017 130 sel 1 0;
#X obj 1041 203 del 8000;
#X connect 1 0 23 0;
#X connect 2 0 9 0;
#X connect 2 0 10 0;
#X connect 2 0 17 0;
#X connect 3 0 1 0;
#X connect 4 0 24 0;
#X connect 5 0 4 0;
#X connect 6 0 125 0;
#X connect 7 0 4 0;
#X connect 8 0 1 0;
#X connect 9 0 8 0;
#X connect 10 0 7 0;
#X connect 11 0 9 2;
#X connect 11 0 16 0;
#X connect 11 0 10 2;
#X connect 12 0 13 0;
#X connect 12 0 42 0;
#X connect 13 0 14 0;
#X connect 14 0 15 0;
#X connect 15 0 30 1;
#X connect 16 0 17 1;
#X connect 17 0 35 0;
#X connect 18 0 35 1;
#X connect 19 0 41 0;
#X connect 19 1 32 0;
#X connect 20 0 40 0;
#X connect 21 0 67 0;
#X connect 22 0 9 1;
#X connect 22 0 10 1;
#X connect 22 0 43 0;
#X connect 23 0 30 0;
#X connect 24 0 6 0;
#X connect 25 0 2 0;
#X connect 28 0 19 0;
#X connect 29 0 28 0;
#X connect 29 1 28 1;
#X connect 30 0 131 0;
#X connect 31 0 21 0;
#X connect 32 0 20 0;
#X connect 33 0 25 0;
#X connect 34 0 20 0;
#X connect 35 0 2 0;
#X connect 36 0 0 0;
#X connect 37 0 72 0;
#X connect 37 0 96 0;
#X connect 37 0 121 0;
#X connect 37 0 126 0;
#X connect 38 0 37 0;
#X connect 39 1 132 0;
#X connect 40 0 12 0;
#X connect 41 0 20 0;
#X connect 42 0 6 1;
#X connect 43 0 11 0;
#X connect 43 1 11 1;
#X connect 44 0 17 0;
#X connect 45 0 44 0;
#X connect 46 0 26 0;
#X connect 46 0 71 0;
#X connect 47 0 26 0;
#X connect 47 0 71 0;
#X connect 48 0 47 0;
#X connect 48 1 133 0;
#X connect 49 0 57 0;
#X connect 50 0 52 0;
#X connect 51 0 60 0;
#X connect 51 0 62 0;
#X connect 52 0 51 0;
#X connect 54 3 56 0;
#X connect 55 0 50 0;
#X connect 55 0 65 0;
#X connect 56 0 55 0;
#X connect 57 0 54 0;
#X connect 57 1 55 1;
#X connect 58 0 57 0;
#X connect 59 0 61 0;
#X connect 60 0 59 0;
#X connect 60 1 59 1;
#X connect 61 0 63 1;
#X connect 61 1 31 0;
#X connect 63 0 52 0;
#X connect 63 1 69 0;
#X connect 64 0 66 0;
#X connect 65 0 64 0;
#X connect 65 1 64 1;
#X connect 66 0 69 0;
#X connect 67 0 63 0;
#X connect 69 0 70 0;
#X connect 70 0 60 0;
#X connect 70 0 68 0;
#X connect 72 0 36 1;
#X connect 73 0 63 1;
#X connect 74 0 106 0;
#X connect 74 0 150 0;
#X connect 75 0 79 1;
#X connect 76 0 80 1;
#X connect 77 0 135 0;
#X connect 77 0 140 0;
#X connect 78 0 18 0;
#X connect 78 0 39 0;
#X connect 78 0 45 0;
#X connect 78 0 48 0;
#X connect 78 0 89 0;
#X connect 78 0 98 1;
#X connect 78 0 109 0;
#X connect 78 0 153 0;
#X connect 79 0 81 0;
#X connect 79 1 28 0;
#X connect 79 1 122 0;
#X connect 80 0 82 0;
#X connect 80 1 29 0;
#X connect 80 1 123 0;
#X connect 81 0 84 0;
#X connect 81 0 87 0;
#X connect 82 0 81 0;
#X connect 82 1 81 1;
#X connect 84 0 85 0;
#X connect 85 0 83 1;
#X connect 86 0 88 0;
#X connect 87 0 86 0;
#X connect 88 0 93 0;
#X connect 89 0 90 0;
#X connect 90 0 88 1;
#X connect 91 0 88 1;
#X connect 92 0 91 0;
#X connect 94 0 95 0;
#X connect 97 0 98 0;
#X connect 98 0 83 0;
#X connect 98 0 86 1;
#X connect 98 0 92 0;
#X connect 98 0 124 0;
#X connect 99 0 80 1;
#X connect 100 0 105 0;
#X connect 101 0 103 0;
#X connect 102 0 105 0;
#X connect 103 0 100 1;
#X connect 104 0 100 0;
#X connect 106 0 78 0;
#X connect 107 0 106 0;
#X connect 108 0 106 0;
#X connect 110 0 149 0;
#X connect 111 0 148 0;
#X connect 114 0 113 0;
#X connect 115 0 112 0;
#X connect 116 0 115 0;
#X connect 116 1 118 0;
#X connect 117 0 114 0;
#X connect 117 1 147 0;
#X connect 118 0 115 1;
#X connect 119 0 116 0;
#X connect 120 0 117 0;
#X connect 121 0 135 0;
#X connect 122 0 119 0;
#X connect 122 1 110 0;
#X connect 123 0 120 0;
#X connect 123 1 111 0;
#X connect 124 0 37 0;
#X connect 125 0 36 0;
#X connect 126 0 128 0;
#X connect 127 0 130 0;
#X connect 128 0 127 0;
#X connect 130 0 129 0;
#X connect 131 0 36 0;
#X connect 132 0 37 0;
#X connect 133 0 46 0;
#X connect 134 0 79 0;
#X connect 134 0 80 0;
#X connect 135 0 134 0;
#X connect 136 0 135 0;
#X connect 137 0 135 0;
#X connect 139 0 138 0;
#X connect 140 2 139 0;
#X connect 140 2 143 0;
#X connect 141 0 145 0;
#X connect 142 0 146 0;
#X connect 143 0 144 0;
#X connect 145 0 139 1;
#X connect 146 0 143 1;
#X connect 147 0 114 1;
#X connect 148 0 114 0;
#X connect 148 1 147 0;
#X connect 149 0 115 0;
#X connect 149 1 118 0;
#X connect 152 0 98 0;
#X connect 153 0 33 0;
#X connect 153 0 34 0;
#X connect 153 1 154 0;
