#N canvas 392 38 830 614 12;
#X obj 82 113 pink~;
#X obj 83 173 *~;
#X obj 249 132 vline~;
#X msg 250 106 1 5 \, 0 10 10;
#X obj 214 23 inlet;
#X obj 147 251 outlet~;
#X obj 82 140 lop~ 1500;
#X msg 198 112 1500;
#X msg 127 89 3000;
#X obj 139 32 gate 2 1;
#X obj 241 59 t b b;
#X obj 184 78 t b b;
#X msg 170 112 1;
#X obj 106 57 t b b;
#X msg 94 84 2;
#X connect 0 0 6 0;
#X connect 1 0 5 0;
#X connect 2 0 1 1;
#X connect 3 0 2 0;
#X connect 4 0 10 0;
#X connect 6 0 1 0;
#X connect 7 0 6 1;
#X connect 8 0 6 1;
#X connect 9 0 13 0;
#X connect 9 1 11 0;
#X connect 10 0 3 0;
#X connect 10 1 9 1;
#X connect 11 0 12 0;
#X connect 11 1 7 0;
#X connect 12 0 9 0;
#X connect 13 0 14 0;
#X connect 13 1 8 0;
#X connect 14 0 9 0;
