#N canvas 43 88 533 560 10;
#X obj 44 350 cos~;
#X obj 48 201 phasor~ 220;
#X floatatom 47 149 5 0 0 0 - - -;
#X obj 48 296 +~;
#X obj 47 429 *~;
#X obj 53 254 inlet~;
#X obj 47 507 outlet~;
#X obj 171 379 adsr 1 5 200 50 1000;
#X floatatom 180 444 5 0 0 1 level - -;
#X obj 69 84 route ratio level env;
#X obj 270 258 unpack f f f f;
#X obj 189 109 unpack f f;
#X text 262 97 midinote coming in: [pitch velocity];
#X obj 189 130 mtof;
#X obj 174 283 t f f;
#X obj 207 320 / 128;
#X obj 174 319 > 0;
#X text 336 228 unpack envelope adsr;
#X obj 47 169 * 1;
#X obj 47 469 *~ 1;
#X obj 70 16 inlet;
#X obj 70 37 route allOscs;
#X obj 9 35 route \$1;
#X connect 0 0 4 0;
#X connect 1 0 3 0;
#X connect 2 0 18 0;
#X connect 3 0 0 0;
#X connect 4 0 19 0;
#X connect 5 0 3 1;
#X connect 7 0 4 1;
#X connect 8 0 19 1;
#X connect 9 0 18 1;
#X connect 9 1 8 0;
#X connect 9 2 10 0;
#X connect 9 3 11 0;
#X connect 10 0 7 2;
#X connect 10 1 7 3;
#X connect 10 2 7 4;
#X connect 10 3 7 5;
#X connect 11 0 13 0;
#X connect 11 1 14 0;
#X connect 13 0 2 0;
#X connect 14 0 16 0;
#X connect 14 1 15 0;
#X connect 15 0 7 1;
#X connect 16 0 7 0;
#X connect 18 0 1 0;
#X connect 19 0 6 0;
#X connect 20 0 21 0;
#X connect 20 0 22 0;
#X connect 21 0 9 0;
#X connect 22 0 9 0;
