#N canvas 182 438 719 384 12;
#X obj 461 44 inlet color;
#X obj 461 122 unpack 0 0 0;
#X obj 364 200 *;
#X obj 426 200 *;
#X obj 481 200 *;
#X obj 300 52 inlet;
#X obj 362 342 outlet;
#X obj 373 253 pack 0 0 0;
#X obj 300 129 t a a a;
#X connect 0 0 1 0;
#X connect 1 0 2 1;
#X connect 1 1 3 1;
#X connect 1 2 4 1;
#X connect 2 0 7 0;
#X connect 3 0 7 1;
#X connect 4 0 7 2;
#X connect 5 0 8 0;
#X connect 7 0 6 0;
#X connect 8 0 2 0;
#X connect 8 1 3 0;
#X connect 8 2 4 0;
