#N canvas 379 180 872 414 12;
#X obj 149 180 soundfiler;
#X obj 150 299 *~;
#X obj 149 235 phasor~;
#N canvas 383 442 450 278 (subpatch) 0;
#X array \$1 101878 float 2;
#X coords 0 1 101878 -1 200 140 1 0 0;
#X restore 561 151 graph;
#X msg 223 232 0;
#X obj 149 270 gate~;
#X obj 286 261 t a b;
#X obj 278 233 tgl 19 0 empty empty empty 0 -10 0 12 #fcfcfc #000000 #000000 0 1;
#X obj 151 371 outlet~;
#X obj 511 29 inlet;
#X obj 148 104 list append \$1;
#X obj 148 130 list prepend read -resize;
#X obj 149 154 list trim;
#X obj 150 324 tabread4~ \$1;
#X obj 149 36 inlet soundfilename;
#X obj 149 203 expr $f2/$f1;
#X connect 0 0 1 1;
#X connect 0 0 15 0;
#X connect 0 1 15 1;
#X connect 1 0 13 0;
#X connect 2 0 5 1;
#X connect 4 0 2 1;
#X connect 5 0 1 0;
#X connect 6 0 5 0;
#X connect 6 1 4 0;
#X connect 7 0 6 0;
#X connect 9 0 6 0;
#X connect 10 0 11 0;
#X connect 11 0 12 0;
#X connect 12 0 0 0;
#X connect 13 0 8 0;
#X connect 14 0 10 0;
#X connect 15 0 2 0;
