#N canvas 157 46 987 732 12;
#N canvas 383 442 450 278 (subpatch) 0;
#X array \$1 427381 float 2;
#X coords 0 1 427381 -1 200 140 1 0 0;
#X restore 561 151 graph;
#X obj 151 405 outlet~;
#X obj 21 30 inlet;
#X obj 148 104 list append \$1;
#X obj 148 130 list prepend read -resize;
#X obj 149 154 list trim;
#X obj 151 379 tabread4~ \$1;
#X obj 149 36 inlet soundfilename;
#X obj 151 177 soundfiler;
#X obj 151 347 vline~;
#X msg 152 320 0 \, \$2 \$3;
#X obj 152 295 pack 0 f f;
#X obj 175 211 t a b a;
#X obj 220 263 expr $f1 / $f2;
#X obj 315 219 / 1000;
#X obj 314 196 f;
#X obj 23 222 sel 1;
#X obj 405 39 inlet;
#X obj 364 293 del 1000;
#X obj 363 412 outlet;
#X connect 2 0 16 0;
#X connect 3 0 4 0;
#X connect 4 0 5 0;
#X connect 5 0 8 0;
#X connect 6 0 1 0;
#X connect 7 0 3 0;
#X connect 8 0 12 0;
#X connect 8 1 15 0;
#X connect 9 0 6 0;
#X connect 10 0 9 0;
#X connect 11 0 10 0;
#X connect 12 0 11 1;
#X connect 12 2 13 0;
#X connect 13 0 11 2;
#X connect 13 0 18 1;
#X connect 14 0 13 1;
#X connect 15 0 14 0;
#X connect 16 0 18 0;
#X connect 16 0 11 0;
#X connect 17 0 11 0;
#X connect 18 0 19 0;
