#N canvas 468 42 812 704 12;
#X obj 99 535 outlet~;
#X obj 48 17 inlet;
#X obj 453 63 sel 1 2;
#X obj 156 421 t a;
#X msg 324 218 predelay 0;
#X msg 315 295 decay 0.5;
#X msg 317 319 input_diffusion1 0.75;
#X msg 326 345 input_diffusion2 0.625;
#X msg 336 372 decay_diffusion1 0.7;
#X msg 345 398 decay_diffusion2 0.5;
#X msg 355 426 excursion 0.53761;
#X obj 369 172 loadbang;
#X msg 314 270 damping 1087;
#X msg 314 246 bandwidth 1000;
#X msg 440 243 bandwidth 300;
#X msg 438 270 damping 305;
#N canvas 0 23 450 300 handle_polyphony 0;
#X obj 37 37 inlet;
#X obj 37 149 pack 0 0 0;
#X obj 38 120 - 1;
#X obj 37 170 outlet;
#X obj 38 78 poly 4 1;
#X connect 0 0 4 0;
#X connect 1 0 3 0;
#X connect 2 0 1 0;
#X connect 4 0 2 0;
#X connect 4 1 1 1;
#X connect 4 2 1 2;
#X restore 47 53 pd handle_polyphony;
#X obj 79 466 jon~;
#X obj 47 79 clone stringSynth.cl 4;
#X msg 438 295 decay 0.77;
#X obj 554 27 sel 0 1 2 3;
#X msg 583 51 2;
#X msg 554 50 1;
#X obj 554 4 r inst;
#X connect 1 0 16 0;
#X connect 2 0 13 0;
#X connect 2 1 14 0;
#X connect 2 1 15 0;
#X connect 3 0 17 2;
#X connect 4 0 3 0;
#X connect 5 0 3 0;
#X connect 6 0 3 0;
#X connect 7 0 3 0;
#X connect 8 0 3 0;
#X connect 9 0 3 0;
#X connect 10 0 3 0;
#X connect 11 0 4 0;
#X connect 11 0 13 0;
#X connect 11 0 12 0;
#X connect 11 0 5 0;
#X connect 11 0 6 0;
#X connect 11 0 7 0;
#X connect 11 0 8 0;
#X connect 11 0 9 0;
#X connect 11 0 10 0;
#X connect 12 0 3 0;
#X connect 13 0 3 0;
#X connect 14 0 3 0;
#X connect 15 0 3 0;
#X connect 16 0 18 0;
#X connect 17 0 0 0;
#X connect 17 1 0 0;
#X connect 18 0 17 0;
#X connect 18 0 17 1;
#X connect 19 0 3 0;
#X connect 20 0 22 0;
#X connect 20 1 22 0;
#X connect 20 2 22 0;
#X connect 20 3 21 0;
#X connect 21 0 2 0;
#X connect 22 0 2 0;
#X connect 23 0 20 0;
