#N canvas 237 23 1043 755 12;
#X obj 268 216 outlet~;
#X obj 269 93 vline~;
#X obj 272 -66 bng 19 250 50 0 empty empty empty 0 -10 0 12 #fcfcfc #000000 #000000;
#X msg 352 65 stop;
#X msg 269 64 0 \, \$2 \$3;
#X obj 269 36 pack 0 f f;
#X obj 335 12 expr $f2 / 48;
#X floatatom 396 39 5 0 0 0 - - - 0;
#X obj 274 -95 t b b;
#X obj -107 227 soundfiler;
#X floatatom -107 249 16 0 0 0 - - - 0;
#X obj -108 271 t b a;
#N canvas 635 172 450 278 (subpatch) 0;
#X array \$0-voice1 384345 float 2;
#X coords 0 1 384345 -1 200 140 1 0 0;
#X restore -109 317 graph;
#X obj -62 2 f \$0;
#X obj -102 26 f \$0;
#X obj -146 51 f \$0;
#X obj -176 77 f \$0;
#X obj 267 -154 inlet;
#X obj -325 -149 r inst;
#X obj -325 -119 sel 0 1 2 3;
#X msg -163 102 read -resize a016.wav \$0-voice1;
#X obj 269 122 tabread4~ \$0-voice1;
#X msg -61 24 read -resize l016.wav \$0-voice1;
#X msg -100 51 read -resize l016.wav \$0-voice1;
#X msg -125 76 read -resize h016.wav \$0-voice1;
#X obj 239 206 dac~;
#X msg -167 -134 2;
#X connect 1 0 21 0;
#X connect 2 0 5 0;
#X connect 3 0 1 0;
#X connect 4 0 1 0;
#X connect 5 0 4 0;
#X connect 6 0 5 2;
#X connect 6 0 7 0;
#X connect 8 0 2 0;
#X connect 9 0 10 0;
#X connect 10 0 11 0;
#X connect 11 0 6 0;
#X connect 11 1 6 1;
#X connect 11 1 5 1;
#X connect 13 0 22 0;
#X connect 14 0 23 0;
#X connect 15 0 24 0;
#X connect 16 0 20 0;
#X connect 17 0 8 0;
#X connect 18 0 19 0;
#X connect 19 0 13 0;
#X connect 19 1 14 0;
#X connect 19 2 15 0;
#X connect 19 3 16 0;
#X connect 20 0 9 0;
#X connect 21 0 0 0;
#X connect 21 0 25 0;
#X connect 22 0 9 0;
#X connect 23 0 9 0;
#X connect 24 0 9 0;
#X connect 26 0 19 0;
