#N canvas 93 23 1187 755 12;
#X obj 134 28 r wifi_ready;
#X obj 55 519 s val1;
#X obj 92 487 s val2;
#X obj 130 522 s volume;
#X obj 168 489 s calib;
#X obj 205 555 s play;
#X obj 243 618 s inst;
#X obj 281 511 s mode;
#X obj 319 543 s debug;
#X msg 366 171 close;
#X obj 55 215 zmq;
#X msg 194 94 socket subscribe;
#X msg 154 147 subscribe control;
#X obj 470 581 s resetD;
#X obj 134 62 t b b b b;
#X msg 134 174 subscribe seq;
#X obj 55 268 route control seq;
#X obj 113 345 s seq;
#X obj 507 552 s flash;
#X msg 489 74 connect tcp://192.168.0.100:5555;
#X obj 545 514 s jam;
#X obj 583 618 s tune;
#X obj 621 565 s tuneG;
#X obj 657 514 s tuneA;
#X msg 174 118 connect tcp://192.168.0.100:5555;
#X obj 205 526 change;
#X obj 545 490 change;
#X obj 583 592 change;
#X obj 621 542 change;
#X obj 658 492 change;
#X obj 281 488 change;
#X obj 696 591 change;
#X obj 697 617 s startPoint;
#X obj 243 593 change;
#X obj 734 497 change;
#X obj 734 523 s playLoop;
#X obj 772 551 change;
#X obj 773 577 s string_mode;
#X obj 809 487 s sequenceNext;
#X obj 160 345 print SEQ;
#X obj 847 540 s resetKick;
#X obj 885 514 s resetSnare;
#X obj 923 489 s resetHihat;
#X obj 960 540 s resetHkick;
#X obj 998 508 s loadfile;
#X obj 110 27 bng 19 250 50 0 empty empty empty 0 -10 0 12 #fcfcfc #000000 #000000;
#X obj 55 443 route val1 val2 volume calib play inst mode debug takeover st1 st2 resetD flash jam tune tuneG tuneA startPoint playLoop string_mode sequenceNext resetK resetS resetH resetHk loadfile mode12cross, f 146;
#X obj 1036 485 s mode12cross;
#X obj 42 738 s mode2on;
#X obj 117 764 s mode2auto;
#X obj 192 738 s mode2bow;
#X obj 267 764 s mode2next;
#X obj 342 738 s mode2sample;
#X text 294 339 protocol:;
#X obj 446 223 r COMMAND;
#X obj 525 223 s COMMAND;
#X msg 525 195 4 control volume \$1;
#X msg 525 167 1;
#X msg 677 167 1;
#X obj 219 287 print no control or seq command;
#X text 295 364 <id> command arguments;
#X msg 677 195 control all all volume \$1;
#X text 295 389 <role> <instrument> command arguments;
#X obj 55 376 id_router control;
#X obj 113 307 id_router seq;
#X obj 55 242 list trim;
#X obj 72 402 print CONTROL;
#X obj 615 757 s arpeggio;
#X obj 494 756 s tonespeed;
#X obj 42 708 route mode2on mode2auto mode2bow mode2next mode2sample tonespeed arpeggio, f 77;
#X connect 0 0 14 0;
#X connect 9 0 10 0;
#X connect 10 0 65 0;
#X connect 11 0 10 0;
#X connect 12 0 10 0;
#X connect 14 0 15 0;
#X connect 14 1 12 0;
#X connect 14 2 24 0;
#X connect 14 3 11 0;
#X connect 15 0 10 0;
#X connect 16 0 63 0;
#X connect 16 1 64 0;
#X connect 16 2 59 0;
#X connect 24 0 10 0;
#X connect 25 0 5 0;
#X connect 26 0 20 0;
#X connect 27 0 21 0;
#X connect 28 0 22 0;
#X connect 29 0 23 0;
#X connect 30 0 7 0;
#X connect 31 0 32 0;
#X connect 33 0 6 0;
#X connect 34 0 35 0;
#X connect 36 0 37 0;
#X connect 45 0 14 0;
#X connect 46 0 1 0;
#X connect 46 1 2 0;
#X connect 46 2 3 0;
#X connect 46 3 4 0;
#X connect 46 4 25 0;
#X connect 46 5 33 0;
#X connect 46 6 30 0;
#X connect 46 7 8 0;
#X connect 46 11 13 0;
#X connect 46 12 18 0;
#X connect 46 13 26 0;
#X connect 46 14 27 0;
#X connect 46 15 28 0;
#X connect 46 16 29 0;
#X connect 46 17 31 0;
#X connect 46 18 34 0;
#X connect 46 19 36 0;
#X connect 46 20 38 0;
#X connect 46 21 40 0;
#X connect 46 22 41 0;
#X connect 46 23 42 0;
#X connect 46 24 43 0;
#X connect 46 25 44 0;
#X connect 46 26 47 0;
#X connect 46 27 69 0;
#X connect 54 0 65 0;
#X connect 56 0 55 0;
#X connect 57 0 56 0;
#X connect 58 0 61 0;
#X connect 61 0 55 0;
#X connect 63 0 46 0;
#X connect 63 0 66 0;
#X connect 64 0 17 0;
#X connect 64 0 39 0;
#X connect 65 0 16 0;
#X connect 69 0 48 0;
#X connect 69 1 49 0;
#X connect 69 2 50 0;
#X connect 69 3 51 0;
#X connect 69 4 52 0;
#X connect 69 5 68 0;
#X connect 69 6 67 0;
