#N canvas 0 23 1280 755 12;
#X obj 134 28 r wifi_ready;
#X obj 55 519 s val1;
#X obj 92 487 s val2;
#X obj 130 522 s volume;
#X obj 168 489 s calib;
#X obj 205 555 s play;
#X obj 243 618 s inst;
#X obj 281 511 s mode;
#X obj 314 554 s debug;
#X msg 366 171 close;
#X obj 55 215 zmq;
#X msg 194 94 socket subscribe;
#X msg 154 147 subscribe control;
#X obj 470 581 s resetD;
#X obj 134 62 t b b b b;
#X msg 134 174 subscribe seq;
#X obj 55 268 route control seq;
#X obj 113 345 s seq;
#X obj 507 552 s flash;
#X msg 489 74 connect tcp://192.168.0.100:5555;
#X obj 545 514 s jam;
#X obj 583 618 s tune;
#X obj 621 565 s tuneG;
#X obj 657 514 s tuneA;
#X obj 205 526 change;
#X obj 545 490 change;
#X obj 583 592 change;
#X obj 281 488 change;
#X obj 697 617 s startPoint;
#X obj 243 593 change;
#X obj 734 523 s playLoop;
#X obj 773 577 s string_mode;
#X obj 809 487 s sequenceNext;
#X obj 160 345 print SEQ;
#X obj 847 540 s resetKick;
#X obj 885 514 s resetSnare;
#X obj 923 489 s resetHihat;
#X obj 960 540 s resetHkick;
#X obj 998 508 s loadfile;
#X obj 110 27 bng 19 250 50 0 empty empty empty 0 -10 0 12 #fcfcfc #000000 #000000;
#X obj 55 441 route val1 val2 volume calib play inst mode debug takeover st1 st2 resetD flash jam tune tuneG tuneA startPoint playLoop string_mode sequenceNext resetK resetS resetH resetHk loadfile mode12cross, f 146;
#X obj 1036 485 s mode12cross;
#X obj 42 738 s mode2on;
#X obj 108 701 s mode2auto;
#X obj 178 718 s mode2bow;
#X obj 242 755 s mode2next;
#X obj 312 705 s mode2sample;
#X text 294 339 protocol:;
#X obj 446 223 r COMMAND;
#X obj 525 223 s COMMAND;
#X msg 525 195 4 control volume \$1;
#X msg 525 167 1;
#X msg 677 167 1;
#X obj 219 287 print no control or seq command;
#X text 295 364 <id> command arguments;
#X msg 677 195 control all all volume \$1;
#X text 295 389 <role> <instrument> command arguments;
#X obj 55 376 id_router control;
#X obj 113 307 id_router seq;
#X obj 55 242 list trim;
#X obj 150 405 print CONTROL;
#X obj 447 700 s arpeggio;
#X obj 379 756 s tonespeed;
#X obj 516 752 s spaceVoice;
#X obj 588 704 s wisper;
#X obj 656 726 s aki;
#X obj 719 697 s string_vol;
#X obj 786 731 s LEDfadeout;
#X obj 856 763 s LEDfadein;
#X obj 925 716 s ImAki;
#X obj 989 697 s aki_send;
#X obj 696 591 t a;
#X obj 772 551 t a;
#X obj 621 542 t a;
#X obj 658 492 t a;
#X obj 734 497 t a;
#X msg 174 118 connect tcp://192.168.0.100:5555;
#X obj 356 488 change;
#X obj 356 511 s takeover;
#X obj 393 542 change;
#X obj 393 565 s st1;
#X obj 432 491 change;
#X obj 432 514 s st2;
#X obj 992 743 s loopHead;
#X obj 1065 721 s sendID;
#X obj 1138 721 s subgroup;
#N canvas 341 396 450 300 subgroup_assign 0;
#X obj 101 39 inlet;
#X obj 350 118 r my_id;
#X obj 110 104 zl slice 1;
#X obj 268 120 zl iter 1;
#X obj 268 150 ==;
#X obj 268 175 sel 1;
#X obj 124 141 symbol;
#X obj 92 177 symbol;
#X obj 92 201 list trim;
#X msg 217 29 group6 89 5 3 56 7 4;
#X obj 92 231 outlet;
#X connect 0 0 2 0;
#X connect 1 0 4 1;
#X connect 2 0 6 0;
#X connect 2 1 3 0;
#X connect 3 0 4 0;
#X connect 4 0 5 0;
#X connect 5 0 7 0;
#X connect 6 0 7 1;
#X connect 7 0 8 0;
#X connect 8 0 10 0;
#X connect 9 0 2 0;
#X restore 1136 700 pd subgroup_assign;
#X obj 42 653 route mode2on mode2auto mode2bow mode2next mode2sample tonespeed arpeggio spaceVoice wisper aki string_vol LEDfadeout LEDfadein ImAki aki_send loopHead sendID subgroup shutdown, f 155;
#X obj 1144 665 s shutdown;
#X connect 0 0 14 0;
#X connect 9 0 10 0;
#X connect 10 0 59 0;
#X connect 11 0 10 0;
#X connect 12 0 10 0;
#X connect 14 0 15 0;
#X connect 14 1 12 0;
#X connect 14 2 76 0;
#X connect 14 3 11 0;
#X connect 15 0 10 0;
#X connect 16 0 57 0;
#X connect 16 1 58 0;
#X connect 24 0 5 0;
#X connect 25 0 20 0;
#X connect 26 0 21 0;
#X connect 27 0 7 0;
#X connect 29 0 6 0;
#X connect 39 0 14 0;
#X connect 40 0 1 0;
#X connect 40 1 2 0;
#X connect 40 2 3 0;
#X connect 40 3 4 0;
#X connect 40 4 24 0;
#X connect 40 5 29 0;
#X connect 40 6 27 0;
#X connect 40 7 8 0;
#X connect 40 8 77 0;
#X connect 40 9 79 0;
#X connect 40 10 81 0;
#X connect 40 11 13 0;
#X connect 40 12 18 0;
#X connect 40 13 25 0;
#X connect 40 14 26 0;
#X connect 40 15 73 0;
#X connect 40 16 74 0;
#X connect 40 17 71 0;
#X connect 40 18 75 0;
#X connect 40 19 72 0;
#X connect 40 20 32 0;
#X connect 40 21 34 0;
#X connect 40 22 35 0;
#X connect 40 23 36 0;
#X connect 40 24 37 0;
#X connect 40 25 38 0;
#X connect 40 26 41 0;
#X connect 40 27 87 0;
#X connect 48 0 59 0;
#X connect 50 0 49 0;
#X connect 51 0 50 0;
#X connect 52 0 55 0;
#X connect 55 0 49 0;
#X connect 57 0 40 0;
#X connect 57 0 60 0;
#X connect 58 0 17 0;
#X connect 59 0 16 0;
#X connect 71 0 28 0;
#X connect 72 0 31 0;
#X connect 73 0 22 0;
#X connect 74 0 23 0;
#X connect 75 0 30 0;
#X connect 76 0 10 0;
#X connect 77 0 78 0;
#X connect 79 0 80 0;
#X connect 81 0 82 0;
#X connect 86 0 85 0;
#X connect 87 0 42 0;
#X connect 87 1 43 0;
#X connect 87 2 44 0;
#X connect 87 3 45 0;
#X connect 87 4 46 0;
#X connect 87 5 62 0;
#X connect 87 6 61 0;
#X connect 87 7 63 0;
#X connect 87 8 64 0;
#X connect 87 9 65 0;
#X connect 87 10 66 0;
#X connect 87 11 67 0;
#X connect 87 12 68 0;
#X connect 87 13 69 0;
#X connect 87 14 70 0;
#X connect 87 15 83 0;
#X connect 87 16 84 0;
#X connect 87 17 86 0;
#X connect 87 18 88 0;
