#N canvas 60 23 1076 755 12;
#X obj 149 36 r wifi_ready;
#X obj 29 381 s val1;
#X obj 84 417 s val2;
#X obj 140 477 s volume;
#X obj 178 359 s calib;
#X obj 228 499 s play;
#X obj 367 390 s inst;
#X obj 389 493 s mode;
#X obj 482 426 s debug;
#X msg 418 165 close;
#X obj 39 209 zmq;
#X msg 195 104 socket subscribe;
#X msg 145 157 subscribe control;
#X obj 547 369 s takeover;
#X obj 447 668 s st1;
#X obj 491 704 s st2;
#X obj 537 553 s resetD;
#X obj 389 446 id_router;
#X obj 482 397 id_router;
#X obj 547 335 id_router;
#X obj 446 628 id_router;
#X obj 538 517 id_router;
#X obj 489 661 id_router;
#X obj 355 340 id_router;
#X obj 225 440 id_router;
#X obj 179 334 id_router;
#X obj 140 446 id_router;
#X obj 83 385 id_router;
#X obj 30 342 id_router;
#X obj 146 69 t b b b b;
#X msg 38 158 subscribe seq;
#X obj 32 271 route control seq;
#X obj 220 266 s seq;
#X obj 219 236 id_router;
#X obj 593 433 id_router;
#X obj 592 469 s flash;
#X msg 489 74 connect tcp://192.168.0.100:5555;
#X obj 649 593 id_router;
#X obj 653 653 s jam;
#X obj 683 403 id_router;
#X obj 684 456 s tune;
#X obj 744 599 id_router;
#X obj 772 518 id_router;
#X obj 745 646 s tuneG;
#X obj 772 561 s tuneA;
#X msg 168 128 connect tcp://192.168.0.100:5555;
#X obj 227 470 change;
#X obj 651 623 change;
#X obj 683 430 change;
#X obj 744 623 change;
#X obj 773 539 change;
#X obj 389 470 change;
#X obj 846 437 id_router;
#X obj 846 464 change;
#X obj 847 490 s startPoint;
#X obj 366 365 change;
#X obj 874 344 id_router;
#X obj 874 371 change;
#X obj 875 397 s playLoop;
#X obj 31 300 route val1 val2 volume calib play inst mode debug takeover st1 st2 resetD flash jam tune tuneG tuneA startPoint playLoop string_mode, f 138;
#X obj 953 345 id_router;
#X obj 953 372 change;
#X obj 954 398 s string_mode;
#X connect 0 0 29 0;
#X connect 9 0 10 0;
#X connect 10 0 31 0;
#X connect 11 0 10 0;
#X connect 12 0 10 0;
#X connect 17 0 51 0;
#X connect 18 0 8 0;
#X connect 19 0 13 0;
#X connect 20 0 14 0;
#X connect 21 0 16 0;
#X connect 22 0 15 0;
#X connect 23 0 55 0;
#X connect 24 0 46 0;
#X connect 25 0 4 0;
#X connect 26 0 3 0;
#X connect 27 0 2 0;
#X connect 28 0 1 0;
#X connect 29 0 30 0;
#X connect 29 1 12 0;
#X connect 29 2 45 0;
#X connect 29 3 11 0;
#X connect 30 0 10 0;
#X connect 31 0 59 0;
#X connect 31 1 33 0;
#X connect 33 0 32 0;
#X connect 34 0 35 0;
#X connect 37 0 47 0;
#X connect 39 0 48 0;
#X connect 41 0 49 0;
#X connect 42 0 50 0;
#X connect 45 0 10 0;
#X connect 46 0 5 0;
#X connect 47 0 38 0;
#X connect 48 0 40 0;
#X connect 49 0 43 0;
#X connect 50 0 44 0;
#X connect 51 0 7 0;
#X connect 52 0 53 0;
#X connect 53 0 54 0;
#X connect 55 0 6 0;
#X connect 56 0 57 0;
#X connect 57 0 58 0;
#X connect 59 0 28 0;
#X connect 59 1 27 0;
#X connect 59 2 26 0;
#X connect 59 3 25 0;
#X connect 59 4 24 0;
#X connect 59 5 23 0;
#X connect 59 6 17 0;
#X connect 59 7 18 0;
#X connect 59 8 19 0;
#X connect 59 9 20 0;
#X connect 59 10 22 0;
#X connect 59 11 21 0;
#X connect 59 12 34 0;
#X connect 59 13 37 0;
#X connect 59 14 39 0;
#X connect 59 15 41 0;
#X connect 59 16 42 0;
#X connect 59 17 52 0;
#X connect 59 18 56 0;
#X connect 59 19 60 0;
#X connect 60 0 61 0;
#X connect 61 0 62 0;
