#N canvas 173 23 1076 755 12;
#X obj 149 36 r wifi_ready;
#X obj 29 381 s val1;
#X obj 84 417 s val2;
#X obj 140 477 s volume;
#X obj 153 394 s calib;
#X obj 206 540 s play;
#X obj 298 606 s inst;
#X obj 262 400 s mode;
#X obj 291 501 s debug;
#X msg 418 165 close;
#X obj 39 209 zmq;
#X msg 195 104 socket subscribe;
#X msg 145 157 subscribe control;
#X obj 384 416 s resetD;
#X obj 262 353 id_router;
#X obj 291 472 id_router;
#X obj 385 380 id_router;
#X obj 286 556 id_router;
#X obj 203 481 id_router;
#X obj 154 369 id_router;
#X obj 140 446 id_router;
#X obj 83 385 id_router;
#X obj 30 342 id_router;
#X obj 146 69 t b b b b;
#X msg 38 158 subscribe seq;
#X obj 55 256 route control seq;
#X obj 220 266 s seq;
#X obj 219 236 id_router;
#X obj 443 458 id_router;
#X obj 442 494 s flash;
#X msg 489 74 connect tcp://192.168.0.100:5555;
#X obj 495 358 id_router;
#X obj 499 418 s jam;
#X obj 556 430 id_router;
#X obj 557 483 s tune;
#X obj 568 656 id_router;
#X obj 602 573 id_router;
#X obj 569 703 s tuneG;
#X obj 602 616 s tuneA;
#X msg 168 128 connect tcp://192.168.0.100:5555;
#X obj 205 511 change;
#X obj 497 388 change;
#X obj 556 457 change;
#X obj 568 680 change;
#X obj 603 594 change;
#X obj 262 377 change;
#X obj 652 467 id_router;
#X obj 652 494 change;
#X obj 653 520 s startPoint;
#X obj 297 581 change;
#X obj 732 389 id_router;
#X obj 732 416 change;
#X obj 733 442 s playLoop;
#X obj 792 498 id_router;
#X obj 792 525 change;
#X obj 793 551 s string_mode;
#X obj 834 447 s sequenceNext;
#X obj 834 410 id_router;
#X obj 223 212 print CONTROL;
#X obj 293 264 print SEQ;
#X obj 902 392 s resetKick;
#X obj 945 461 s resetSnare;
#X obj 953 541 s resetHihat;
#X obj 952 627 s resetHkick;
#X obj 897 363 id_router;
#X obj 945 430 id_router;
#X obj 952 508 id_router;
#X obj 960 584 id_router;
#X obj 998 357 id_router;
#X obj 998 388 s loadfile;
#X obj 59 28 bng 19 250 50 0 empty empty empty 0 -10 0 12 #fcfcfc #000000 #000000;
#X obj 24 298 route val1 val2 volume calib play inst mode debug takeover st1 st2 resetD flash jam tune tuneG tuneA startPoint playLoop string_mode sequenceNext resetK resetS resetH resetHk loadfile mode12cross, f 146;
#X obj 806 650 id_router;
#X obj 806 674 s mode12cross;
#X obj 85 716 s mode2on;
#X obj 170 716 s mode2auto;
#X obj 85 678 id_router;
#X obj 170 678 id_router;
#X obj 282 716 s mode2bow;
#X obj 282 678 id_router;
#X obj 379 709 s mode2next;
#X obj 372 677 id_router;
#X obj 473 722 s mode2sample;
#X obj 472 684 id_router;
#X obj 88 638 route mode2on mode2auto mode2bow mode2next mode2sample;
#X connect 0 0 23 0;
#X connect 9 0 10 0;
#X connect 10 0 25 0;
#X connect 11 0 10 0;
#X connect 12 0 10 0;
#X connect 14 0 45 0;
#X connect 15 0 8 0;
#X connect 16 0 13 0;
#X connect 17 0 49 0;
#X connect 18 0 40 0;
#X connect 19 0 4 0;
#X connect 20 0 3 0;
#X connect 21 0 2 0;
#X connect 22 0 1 0;
#X connect 23 0 24 0;
#X connect 23 1 12 0;
#X connect 23 2 39 0;
#X connect 23 3 11 0;
#X connect 24 0 10 0;
#X connect 25 0 58 0;
#X connect 25 0 71 0;
#X connect 25 1 27 0;
#X connect 27 0 26 0;
#X connect 27 0 59 0;
#X connect 28 0 29 0;
#X connect 31 0 41 0;
#X connect 33 0 42 0;
#X connect 35 0 43 0;
#X connect 36 0 44 0;
#X connect 39 0 10 0;
#X connect 40 0 5 0;
#X connect 41 0 32 0;
#X connect 42 0 34 0;
#X connect 43 0 37 0;
#X connect 44 0 38 0;
#X connect 45 0 7 0;
#X connect 46 0 47 0;
#X connect 47 0 48 0;
#X connect 49 0 6 0;
#X connect 50 0 51 0;
#X connect 51 0 52 0;
#X connect 53 0 54 0;
#X connect 54 0 55 0;
#X connect 57 0 56 0;
#X connect 64 0 60 0;
#X connect 65 0 61 0;
#X connect 66 0 62 0;
#X connect 67 0 63 0;
#X connect 68 0 69 0;
#X connect 70 0 23 0;
#X connect 71 0 22 0;
#X connect 71 1 21 0;
#X connect 71 2 20 0;
#X connect 71 3 19 0;
#X connect 71 4 18 0;
#X connect 71 5 17 0;
#X connect 71 6 14 0;
#X connect 71 7 15 0;
#X connect 71 11 16 0;
#X connect 71 12 28 0;
#X connect 71 13 31 0;
#X connect 71 14 33 0;
#X connect 71 15 35 0;
#X connect 71 16 36 0;
#X connect 71 17 46 0;
#X connect 71 18 50 0;
#X connect 71 19 53 0;
#X connect 71 20 57 0;
#X connect 71 21 64 0;
#X connect 71 22 65 0;
#X connect 71 23 66 0;
#X connect 71 24 67 0;
#X connect 71 25 68 0;
#X connect 71 26 72 0;
#X connect 71 27 84 0;
#X connect 72 0 73 0;
#X connect 76 0 74 0;
#X connect 77 0 75 0;
#X connect 79 0 78 0;
#X connect 81 0 80 0;
#X connect 83 0 82 0;
#X connect 84 0 76 0;
#X connect 84 1 77 0;
#X connect 84 2 79 0;
#X connect 84 3 81 0;
#X connect 84 4 83 0;
