#N canvas 228 23 860 738 12;
#X text 166 43 making sure that wifi setup is ready;
#X obj 489 62 r my_id;
#X obj 553 162 r my_ip;
#X obj 37 344 list trim;
#X obj 551 235 symbol;
#X obj 399 193 r send_ip;
#X obj 399 217 t b;
#X obj 489 122 t b a;
#X msg 181 480 socket publish;
#X obj 148 454 t b b;
#X obj 75 591 print PUB;
#X obj 499 296 print ip-setup;
#X obj 474 193 del 400;
#X obj 37 62 r message;
#X msg 180 421 1;
#X obj 148 362 r wifi_ready;
#X obj 37 558 spigot;
#X obj 37 590 zmq;
#X obj 148 394 t b b;
#X msg 167 166 sensor \$1;
#X obj 37 228 list prepend send;
#X obj 37 196 list prepend sensor;
#X obj 691 318 list trim;
#X obj 691 289 list prepend send;
#X obj 691 161 r seq_message;
#X obj 498 235 i;
#X obj 498 267 pack 0 s;
#X msg 178 534 connect tcp://192.168.0.100:5556;
#X obj 559 471 r my_id;
#X msg 515 543 send info ping \$1;
#X obj 235 299 list prepend send info ip;
#X obj 515 481 int;
#X obj 515 415 tgl 19 0 empty empty empty 0 -10 0 12 #fcfcfc #000000 #000000 0 1;
#X obj 250 363 bng 19 250 50 0 empty empty empty 0 -10 0 12 #fcfcfc #000000 #000000;
#X obj 704 256 list prepend seq;
#X obj 515 443 metro 20000;
#X msg 147 504 connect tcp://192.168.0.100:5556;
#X obj 215 265 list prepend send info ImHere;
#X obj 216 237 r ImHere;
#X obj 677 404 r sensorActive;
#X obj 678 452 sel 1 0;
#X obj 678 428 change;
#X msg 679 476 0;
#X msg 713 477 100;
#X obj 514 506 + 0;
#X obj 543 615 print ping;
#X connect 1 0 7 0;
#X connect 2 0 4 0;
#X connect 3 0 16 0;
#X connect 4 0 26 1;
#X connect 5 0 6 0;
#X connect 6 0 25 0;
#X connect 7 0 12 0;
#X connect 7 1 19 0;
#X connect 7 1 25 1;
#X connect 8 0 16 0;
#X connect 9 0 36 0;
#X connect 9 1 8 0;
#X connect 12 0 25 0;
#X connect 13 0 21 0;
#X connect 14 0 16 1;
#X connect 14 0 35 0;
#X connect 15 0 18 0;
#X connect 16 0 17 0;
#X connect 18 0 9 0;
#X connect 18 0 31 0;
#X connect 18 1 14 0;
#X connect 19 0 21 1;
#X connect 20 0 3 0;
#X connect 21 0 20 0;
#X connect 22 0 3 0;
#X connect 23 0 22 0;
#X connect 24 0 34 0;
#X connect 25 0 26 0;
#X connect 26 0 11 0;
#X connect 26 0 30 0;
#X connect 28 0 31 1;
#X connect 29 0 3 0;
#X connect 30 0 3 0;
#X connect 31 0 44 0;
#X connect 32 0 35 0;
#X connect 33 0 18 0;
#X connect 34 0 23 0;
#X connect 35 0 31 0;
#X connect 36 0 16 0;
#X connect 37 0 3 0;
#X connect 38 0 37 0;
#X connect 39 0 41 0;
#X connect 40 0 42 0;
#X connect 40 1 43 0;
#X connect 41 0 40 0;
#X connect 42 0 44 1;
#X connect 43 0 44 1;
#X connect 44 0 29 0;
