#N canvas 165 90 1627 960 12;
#N canvas 895 368 818 600 counter 0;
#X obj 159 129 t b b b;
#X floatatom 242 182 5 0 0 0 - - - 0;
#X obj 188 200 /;
#X floatatom 242 219 5 0 0 0 - - - 0;
#X obj 188 229 i;
#X floatatom 242 248 5 0 0 0 - - - 0;
#X obj 242 153 inlet;
#X obj 158 100 inlet;
#X msg 119 230 0;
#X obj 159 276 metro;
#X msg 188 171 60000;
#X msg 208 276 0;
#X obj 159 305 i;
#X obj 194 305 + 1;
#X floatatom 112 305 5 0 0 0 - - - 0;
#X floatatom 159 334 5 0 0 0 - - - 0;
#X floatatom 159 391 5 0 0 0 - - - 0;
#X obj 159 458 outlet;
#X text 54 22 Due to the absence of a Vanilla counter here is one from cheetomoskeeto;
#X text 346 110 BPM;
#X text 239 134 Recalculate;
#X text 156 76 Start clock;
#X obj 48 194 inlet;
#X text 47 171 Stop;
#X obj 349 135 inlet;
#X msg 398 163 120;
#X obj 274 98 bng 19 250 50 0 empty empty empty 0 -10 0 12 #fcfcfc #000000 #000000;
#X obj 89 85 bng 19 250 50 0 empty empty empty 0 -10 0 12 #fcfcfc #000000 #000000;
#X obj 288 291 inlet;
#X text 287 269 Reset;
#X obj 176 487 outlet;
#X obj 195 516 outlet;
#X obj 212 545 outlet;
#X obj 230 458 outlet;
#X obj 247 487 outlet;
#X obj 265 516 outlet;
#X obj 283 545 outlet;
#X obj 103 419 outlet;
#X obj 398 134 loadbang;
#X text 396 109 Default BPM;
#X obj 159 362 % 16;
#X obj 301 458 outlet;
#X obj 320 487 outlet;
#X obj 340 516 outlet;
#X obj 359 545 outlet;
#X obj 372 458 outlet;
#X obj 391 487 outlet;
#X obj 410 516 outlet;
#X obj 429 545 outlet;
#X obj 159 419 sel 0 1 2 3 4 5 6 7 8 9 10 11 12 13 14 15;
#X connect 0 0 9 0;
#X connect 0 1 10 0;
#X connect 0 2 1 0;
#X connect 1 0 2 1;
#X connect 2 0 3 0;
#X connect 2 0 4 0;
#X connect 4 0 5 0;
#X connect 4 0 9 1;
#X connect 6 0 1 0;
#X connect 7 0 0 0;
#X connect 8 0 9 0;
#X connect 9 0 12 0;
#X connect 9 0 14 0;
#X connect 10 0 2 0;
#X connect 11 0 12 1;
#X connect 12 0 13 0;
#X connect 12 0 15 0;
#X connect 13 0 12 1;
#X connect 15 0 40 0;
#X connect 16 0 37 0;
#X connect 16 0 49 0;
#X connect 22 0 8 0;
#X connect 24 0 1 0;
#X connect 25 0 1 0;
#X connect 26 0 1 0;
#X connect 27 0 0 0;
#X connect 28 0 11 0;
#X connect 38 0 25 0;
#X connect 40 0 16 0;
#X connect 49 0 17 0;
#X connect 49 1 30 0;
#X connect 49 2 31 0;
#X connect 49 3 32 0;
#X connect 49 4 33 0;
#X connect 49 5 34 0;
#X connect 49 6 35 0;
#X connect 49 7 36 0;
#X connect 49 8 41 0;
#X connect 49 9 42 0;
#X connect 49 10 43 0;
#X connect 49 11 44 0;
#X connect 49 12 45 0;
#X connect 49 13 46 0;
#X connect 49 14 47 0;
#X connect 49 15 48 0;
#X restore 1365 296 pd counter;
#X f 17;
#X obj 1336 267 bng 19 250 50 0 empty empty empty 0 -10 0 12 #fcfcfc #000000 #000000;
#X text 1316 245 Start;
#X msg 1555 297 60;
#X text 1551 253 BPM input;
#X obj 1375 267 bng 19 250 50 0 empty empty empty 0 -10 0 12 #fcfcfc #000000 #000000;
#X text 1374 246 Recalculate BPM;
#X msg 1555 355 120;
#X obj 1278 267 bng 19 250 50 0 empty empty empty 0 -10 0 12 #fcfcfc #000000 #000000;
#X text 1258 244 Stop, f 5;
#X obj 1501 264 bng 19 250 50 0 empty empty empty 0 -10 0 12 #fcfcfc #000000 #000000;
#X text 1497 244 Reset;
#X msg 1555 384 240;
#X msg 1555 326 90;
#X obj 1278 296 s stop;
#X obj 1247 169 r bpm;
#X obj 1247 198 t b b b;
#X text 19 10 Drumline;
#X obj 1342 325 hsl 162 19 0 16 0 0 empty empty empty -2 -10 0 12 #fcfcfc #000000 #000000 0 1;
#X obj 1339 354 s bar;
#X obj 72 71 r bar;
#X obj 1438 265 s reset;
#X floatatom 25 107 5 0 0 0 - - - 0;
#X floatatom 73 161 5 0 0 0 - - - 0;
#X obj 238 186 bng 19 250 50 0 empty empty empty 0 -10 0 12 #fcfcfc #000000 #000000;
#X obj 237 138 spigot;
#X obj 477 72 r bar;
#X floatatom 430 108 5 0 0 0 - - - 0;
#X text 68 50 Kick;
#X obj 1210 325 r kick;
#N canvas 103 338 450 446 kick 0;
#X obj 134 212 vline~;
#X obj 172 328 *~;
#X obj 172 307 cos~;
#X obj 172 286 *~;
#X obj 172 264 *~;
#X obj 172 242 *~;
#X msg 134 190 1 0 0 \, 0 \$1 0;
#X msg 134 169 70;
#X obj 172 350 outlet~;
#X obj 228 397 switch~;
#X obj 228 349 env~;
#X obj 228 373 > 0.1;
#X msg 134 147 1;
#X obj 134 125 inlet;
#X obj 190 50 vsl 15 128 1.9 2.4 0 0 empty empty empty 0 -9 0 10 #fcfcfc #000000 #000000 0 1;
#X obj 190 26 inlet;
#X connect 0 0 1 1;
#X connect 0 0 5 0;
#X connect 0 0 3 1;
#X connect 1 0 8 0;
#X connect 1 0 10 0;
#X connect 2 0 1 0;
#X connect 3 0 2 0;
#X connect 4 0 3 0;
#X connect 5 0 4 1;
#X connect 5 0 4 0;
#X connect 6 0 0 0;
#X connect 7 0 6 0;
#X connect 10 0 11 0;
#X connect 11 0 9 0;
#X connect 12 0 9 0;
#X connect 12 0 7 0;
#X connect 13 0 12 0;
#X connect 14 0 5 1;
#X connect 15 0 14 0;
#X restore 1210 349 pd kick;
#X obj 238 210 s kick;
#X text 473 51 Snare;
#N canvas 237 262 450 704 snare 0;
#X obj 193 234 vline~;
#X obj 175 460 *~;
#X obj 211 296 cos~;
#X obj 161 169 t f f;
#X obj 211 276 *~;
#X obj 175 482 outlet~;
#X obj 231 529 switch~;
#X obj 231 481 env~;
#X obj 231 505 > 0.1;
#X msg 229 425 1;
#X obj 183 87 t b b b;
#X obj 183 41 inlet;
#X obj 193 392 *~;
#X obj 175 439 cos~;
#X obj 193 345 +~;
#X obj 175 365 *~;
#X obj 193 414 *~;
#X obj 193 322 sig~ 5;
#X obj 229 192 /;
#X obj 183 115 del 5;
#X obj 146 504 s~ snfb;
#X obj 175 254 r~ snfb;
#X msg 183 63 1;
#X msg 183 140 90;
#X msg 229 140 70;
#X msg 285 140 6;
#X msg 193 212 1 0 0 \, 0 \$1 3;
#X connect 0 0 4 0;
#X connect 0 0 12 0;
#X connect 0 0 12 1;
#X connect 1 0 5 0;
#X connect 1 0 7 0;
#X connect 1 0 20 0;
#X connect 2 0 14 1;
#X connect 3 0 18 0;
#X connect 3 1 26 0;
#X connect 4 0 2 0;
#X connect 7 0 8 0;
#X connect 8 0 6 0;
#X connect 9 0 6 0;
#X connect 10 0 19 0;
#X connect 10 1 25 0;
#X connect 10 2 9 0;
#X connect 11 0 22 0;
#X connect 12 0 16 0;
#X connect 12 0 16 1;
#X connect 13 0 1 0;
#X connect 14 0 15 1;
#X connect 15 0 13 0;
#X connect 16 0 1 1;
#X connect 17 0 14 0;
#X connect 18 0 4 1;
#X connect 19 0 23 0;
#X connect 19 0 24 0;
#X connect 21 0 15 0;
#X connect 22 0 10 0;
#X connect 23 0 3 0;
#X connect 24 0 3 0;
#X connect 25 0 18 1;
#X connect 26 0 0 0;
#X restore 1140 348 pd snare;
#X obj 1140 324 r snare;
#X obj 1200 387 dac~;
#N canvas 103 338 450 446 hihat 0;
#X obj 168 152 noise~;
#X obj 168 282 *~, f 5;
#X obj 170 73 inlet;
#X obj 168 326 outlet~;
#X obj 202 258 line~;
#X msg 202 219 1;
#X obj 170 94 t b b;
#X obj 168 194 hip~ 8000;
#X obj 168 173 hip~ 8000;
#X obj 168 303 *~ 0.4;
#X obj 240 83 vsl 15 128 0 127 0 0 empty empty empty 0 -9 0 10 #fcfcfc #000000 #000000 0 1;
#X msg 240 219 0 \$1;
#X connect 0 0 8 0;
#X connect 1 0 9 0;
#X connect 2 0 6 0;
#X connect 4 0 1 1;
#X connect 5 0 4 0;
#X connect 6 0 10 0;
#X connect 6 1 5 0;
#X connect 7 0 1 0;
#X connect 8 0 7 0;
#X connect 9 0 3 0;
#X connect 10 0 11 0;
#X connect 11 0 4 0;
#X restore 1273 349 pd hihat;
#X obj 1273 325 r hihat;
#X obj 886 72 r bar;
#X floatatom 839 108 5 0 0 0 - - - 0;
#X text 882 51 Hi-Hat;
#N canvas 614 639 450 278 (subpatch) 0;
#X array kickSequence 16 float 3;
#A 0 1 0 0 0 0 0 1 0 0 1 1 0 0 1 0 0;
#X coords 0 2 16 -1 200 140 1 0 0;
#X restore 20 281 graph;
#X text 19 244 Sequences;
#N canvas 817 814 450 278 (subpatch) 0;
#X array hatSequence 16 float 3;
#A 0 0 0 0 1 1 0 0 1 0 1 1 0 0 1 0 1;
#X coords 0 2 16 -1 200 140 1 0 0;
#X restore 917 281 graph;
#N canvas 14 764 450 278 (subpatch) 0;
#X array snareSequence 16 float 3;
#A 0 0 0 1 0 0 1 0 0 1 0 0 0 1 0 0 0;
#X coords 0 2 16 -1 200 140 1 0 0;
#X restore 461 281 graph;
#X floatatom 472 162 5 0 0 0 - - - 0;
#X obj 644 187 bng 19 250 50 0 empty empty empty 0 -10 0 12 #fcfcfc #000000 #000000;
#X obj 643 139 spigot;
#X obj 472 138 tabread snareSequence;
#X obj 644 211 s snare;
#X floatatom 886 162 5 0 0 0 - - - 0;
#X obj 1044 187 bng 19 250 50 0 empty empty empty 0 -10 0 12 #fcfcfc #000000 #000000;
#X obj 1043 139 spigot;
#X obj 1044 211 s hihat;
#X obj 73 137 tabread kickSequence;
#X obj 917 431 r resetHats;
#X obj 461 431 r resetSnares;
#X msg 461 460 \; snareSequence const 0;
#X obj 20 431 r resetKicks;
#X msg 20 460 \; kickSequence const 0;
#X msg 917 460 \; hatSequence const 0;
#X obj 1347 577 bng 19 250 50 0 empty empty empty 0 -10 0 12 #fcfcfc #000000 #000000;
#X obj 1484 578 r bar;
#X obj 1347 665 tabwrite hatSequence;
#X msg 1347 606 1;
#X floatatom 1484 607 5 0 0 0 - - - 0;
#X obj 1347 490 bng 19 250 50 0 empty empty empty 0 -10 0 12 #fcfcfc #000000 #000000;
#X obj 1498 491 r bar;
#X msg 1347 519 1;
#X floatatom 1498 520 5 0 0 0 - - - 0;
#X obj 1347 548 tabwrite snareSequence;
#X obj 1347 404 bng 19 250 50 0 empty empty empty 0 -10 0 12 #fcfcfc #000000 #000000;
#X obj 1491 405 r bar;
#X msg 1347 433 1;
#X floatatom 1491 434 5 0 0 0 - - - 0;
#X obj 1347 462 tabwrite kickSequence;
#X obj 237 162 debounce;
#X obj 643 163 debounce;
#X obj 1043 163 debounce;
#X text 1391 433 Add kick;
#X text 1390 519 Add snare;
#X text 1392 609 Add hihat;
#X obj 1273 373 *~ 0.5;
#X obj 886 138 tabread hatSequence;
#X text 110 11 The last position sends the message back to the subcscription server;
#X obj 886 109 select 0 1 2 3 4 5 6 7 8 9 10 11 12 13 14 15;
#X obj 1208 109 bng 19 250 50 0 empty empty empty 0 -10 0 12 #fcfcfc #000000 #000000;
#X obj 1171 138 bng 19 250 50 0 empty empty empty 0 -10 0 12 #fcfcfc #000000 #000000;
#X obj 477 109 select 0 1 2 3 4 5 6 7 8 9 10 11 12 13 14 15;
#X obj 799 109 bng 19 250 50 0 empty empty empty 0 -10 0 12 #fcfcfc #000000 #000000;
#X obj 762 138 bng 19 250 50 0 empty empty empty 0 -10 0 12 #fcfcfc #000000 #000000;
#X obj 72 108 select 0 1 2 3 4 5 6 7 8 9 10 11 12 13 14 15;
#X obj 394 108 bng 19 250 50 0 empty empty empty 0 -10 0 12 #fcfcfc #000000 #000000;
#X obj 357 137 bng 19 250 50 0 empty empty empty 0 -10 0 12 #fcfcfc #000000 #000000;
#X floatatom 95 543 5 0 0 0 - - - 0;
#X obj 20 542 bng 19 250 50 0 empty empty empty 0 -10 0 12 #fcfcfc #000000 #000000;
#X obj 20 571 array get kickSequence;
#X obj 20 513 r kickmsg;
#X obj 337 166 s kickmsg;
#X obj 743 167 s snaremsg;
#X obj 1150 167 s hatmsg;
#X floatatom 540 543 5 0 0 0 - - - 0;
#X obj 461 542 bng 19 250 50 0 empty empty empty 0 -10 0 12 #fcfcfc #000000 #000000;
#X obj 461 571 array get snareSequence;
#X floatatom 990 543 5 0 0 0 - - - 0;
#X obj 918 542 bng 19 250 50 0 empty empty empty 0 -10 0 12 #fcfcfc #000000 #000000;
#X obj 918 513 r hatmsg;
#X obj 918 571 array get hatSequence;
#X obj 20 600 print kickSequence \$1;
#X obj 461 600 print snareSequence \$1;
#X obj 918 600 print hatSequence \$1;
#X obj 461 513 r snaremsg;
#N canvas 0 22 450 278 (subpatch) 0;
#X array kickSequence-prev 16 float 3;
#A 0 1 0 0 0 0 0 1 0 0 1 1 0 0 1 0 0;
#X coords 0 2 16 -1 200 140 1 0 0;
#X restore 20 649 graph;
#N canvas 0 22 450 278 (subpatch) 0;
#X array snareSequence-prev 16 float 3;
#A 0 0 0 1 0 0 1 0 0 1 0 0 0 1 0 0 0;
#X coords 0 2 16 -1 200 140 1 0 0;
#X restore 461 649 graph;
#N canvas 0 22 450 278 (subpatch) 0;
#X array hatSequence-prev 16 float 3;
#A 0 0 0 0 1 1 0 0 1 0 1 1 0 0 1 0 1;
#X coords 0 2 16 -1 200 140 1 0 0;
#X restore 918 649 graph;
#X obj 696 510 array get snareSequence;
#X obj 696 479 bng 19 250 50 0 empty empty empty 0 -10 0 12 #fcfcfc #000000 #000000;
#X obj 656 508 bng 19 250 50 0 empty empty empty 0 -10 0 12 #fcfcfc #000000 #000000;
#X obj 699 597 sel 0;
#N canvas 912 88 593 637 compareArray 0;
#X obj 339 183 inlet;
#X obj 256 128 inlet;
#X obj 262 299 outlet;
#X obj 260 241 list-compare;
#X obj 261 270 tgl 19 0 empty empty empty 0 -10 0 12 #fcfcfc #000000 #000000 0 1;
#X connect 0 0 3 1;
#X connect 1 0 3 0;
#X connect 3 0 4 0;
#X connect 4 0 2 0;
#X restore 699 568 pd compareArray;
#X obj 709 627 print dont send snare;
#X obj 656 539 array get snareSequence-prev;
#X obj 699 655 print send snare;
#X obj 1146 479 bng 19 250 50 0 empty empty empty 0 -10 0 12 #fcfcfc #000000 #000000;
#X obj 1106 508 bng 19 250 50 0 empty empty empty 0 -10 0 12 #fcfcfc #000000 #000000;
#X obj 1149 597 sel 0;
#N canvas 912 88 593 637 compareArray 0;
#X obj 339 183 inlet;
#X obj 256 128 inlet;
#X obj 262 299 outlet;
#X obj 260 241 list-compare;
#X obj 261 270 tgl 19 0 empty empty empty 0 -10 0 12 #fcfcfc #000000 #000000 0 1;
#X connect 0 0 3 1;
#X connect 1 0 3 0;
#X connect 3 0 4 0;
#X connect 4 0 2 0;
#X restore 1149 568 pd compareArray;
#X obj 1146 510 array get hatSequence;
#X obj 1106 539 array get hatSequence-prev;
#X obj 1159 627 print dont send hat;
#X obj 1149 655 print send hat;
#X obj 245 479 bng 19 250 50 0 empty empty empty 0 -10 0 12 #fcfcfc #000000 #000000;
#X obj 205 508 bng 19 250 50 0 empty empty empty 0 -10 0 12 #fcfcfc #000000 #000000;
#X obj 248 597 sel 0;
#N canvas 912 88 593 637 compareArray 0;
#X obj 339 183 inlet;
#X obj 256 128 inlet;
#X obj 262 299 outlet;
#X obj 260 241 list-compare;
#X obj 261 270 tgl 19 0 empty empty empty 0 -10 0 12 #fcfcfc #000000 #000000 0 1;
#X connect 0 0 3 1;
#X connect 1 0 3 0;
#X connect 3 0 4 0;
#X connect 4 0 2 0;
#X restore 248 568 pd compareArray;
#X obj 245 510 array get kickSequence;
#X obj 205 539 array get kickSequence-prev;
#X floatatom 319 482 5 0 0 0 - - - 0;
#X floatatom 775 482 5 0 0 0 - - - 0;
#X floatatom 1219 482 5 0 0 0 - - - 0;
#X obj 695 450 t b b;
#X obj 244 450 t b b;
#X obj 1145 450 t b b;
#X obj 62 127 list-l2s;
#X obj 679 716 arraycopy snareSequence-prev;
#X msg 679 687 copy snareSequence;
#X obj 1130 713 arraycopy hatSequence-prev;
#X msg 1130 684 copy hatSequence;
#X obj 258 627 print dont send kick;
#X obj 248 655 print send kick;
#X msg 228 684 copy kickSequence;
#X obj 228 713 arraycopy kickSequence-prev;
#X msg 20 828 \; kickSequence-prev const 0;
#X obj 20 799 loadbang;
#X msg 461 828 \; snareSequence-prev const 0;
#X obj 461 799 loadbang;
#X obj 918 799 loadbang;
#X msg 918 828 \; hatSequence-prev const 0;
#X obj 1130 627 bng 19 250 50 0 empty empty empty 0 -10 0 12 #fcfcfc #000000 #000000;
#X obj 679 628 bng 19 250 50 0 empty empty empty 0 -10 0 12 #fcfcfc #000000 #000000;
#X obj 228 627 bng 19 250 50 0 empty empty empty 0 -10 0 12 #fcfcfc #000000 #000000;
#X obj 244 421 r snaremsg;
#X obj 695 421 r snaremsg;
#X obj 1145 421 r snaremsg;
#X connect 0 0 18 0;
#X connect 0 1 18 0;
#X connect 0 2 18 0;
#X connect 0 3 18 0;
#X connect 0 4 18 0;
#X connect 0 5 18 0;
#X connect 0 6 18 0;
#X connect 0 7 18 0;
#X connect 0 8 18 0;
#X connect 1 0 0 1;
#X connect 3 0 0 4;
#X connect 5 0 0 2;
#X connect 7 0 0 4;
#X connect 8 0 0 0;
#X connect 8 0 14 0;
#X connect 10 0 0 3;
#X connect 10 0 21 0;
#X connect 12 0 0 4;
#X connect 13 0 0 4;
#X connect 15 0 16 0;
#X connect 16 0 1 0;
#X connect 16 1 5 0;
#X connect 16 2 8 0;
#X connect 18 0 19 0;
#X connect 20 0 22 0;
#X connect 20 0 91 0;
#X connect 22 0 54 0;
#X connect 23 0 25 1;
#X connect 24 0 31 0;
#X connect 25 0 76 0;
#X connect 26 0 27 0;
#X connect 26 0 88 0;
#X connect 27 0 48 0;
#X connect 29 0 30 0;
#X connect 30 0 35 0;
#X connect 30 0 35 1;
#X connect 33 0 35 0;
#X connect 33 0 35 1;
#X connect 34 0 33 0;
#X connect 36 0 82 0;
#X connect 37 0 36 0;
#X connect 38 0 39 0;
#X connect 38 0 85 0;
#X connect 39 0 83 0;
#X connect 45 0 47 1;
#X connect 46 0 49 0;
#X connect 47 0 77 0;
#X connect 48 0 45 0;
#X connect 50 0 52 1;
#X connect 51 0 53 0;
#X connect 52 0 78 0;
#X connect 54 0 23 0;
#X connect 55 0 60 0;
#X connect 56 0 57 0;
#X connect 58 0 59 0;
#X connect 61 0 64 0;
#X connect 62 0 65 0;
#X connect 64 0 63 0;
#X connect 65 0 63 1;
#X connect 66 0 68 0;
#X connect 67 0 69 0;
#X connect 68 0 70 0;
#X connect 69 0 70 1;
#X connect 71 0 73 0;
#X connect 72 0 74 0;
#X connect 73 0 75 0;
#X connect 74 0 75 1;
#X connect 76 0 24 0;
#X connect 77 0 46 0;
#X connect 78 0 51 0;
#X connect 82 0 35 0;
#X connect 82 0 35 1;
#X connect 83 0 50 0;
#X connect 85 0 52 0;
#X connect 85 1 52 0;
#X connect 85 2 52 0;
#X connect 85 3 52 0;
#X connect 85 4 52 0;
#X connect 85 5 52 0;
#X connect 85 6 52 0;
#X connect 85 7 52 0;
#X connect 85 8 52 0;
#X connect 85 9 52 0;
#X connect 85 10 52 0;
#X connect 85 11 52 0;
#X connect 85 12 52 0;
#X connect 85 13 52 0;
#X connect 85 14 52 0;
#X connect 85 15 52 0;
#X connect 85 15 87 0;
#X connect 85 15 100 0;
#X connect 85 16 86 0;
#X connect 88 0 47 0;
#X connect 88 1 47 0;
#X connect 88 2 47 0;
#X connect 88 3 47 0;
#X connect 88 4 47 0;
#X connect 88 5 47 0;
#X connect 88 6 47 0;
#X connect 88 7 47 0;
#X connect 88 8 47 0;
#X connect 88 9 47 0;
#X connect 88 10 47 0;
#X connect 88 11 47 0;
#X connect 88 12 47 0;
#X connect 88 13 47 0;
#X connect 88 14 47 0;
#X connect 88 15 90 0;
#X connect 88 15 47 0;
#X connect 88 15 99 0;
#X connect 88 16 89 0;
#X connect 91 0 25 0;
#X connect 91 1 25 0;
#X connect 91 2 25 0;
#X connect 91 3 25 0;
#X connect 91 4 25 0;
#X connect 91 5 25 0;
#X connect 91 6 25 0;
#X connect 91 7 25 0;
#X connect 91 8 25 0;
#X connect 91 9 25 0;
#X connect 91 10 25 0;
#X connect 91 11 25 0;
#X connect 91 12 25 0;
#X connect 91 13 25 0;
#X connect 91 14 25 0;
#X connect 91 15 25 0;
#X connect 91 15 93 0;
#X connect 91 15 98 0;
#X connect 91 16 92 0;
#X connect 94 0 96 1;
#X connect 95 0 96 0;
#X connect 96 0 108 0;
#X connect 97 0 95 0;
#X connect 101 0 103 1;
#X connect 102 0 103 0;
#X connect 103 0 109 0;
#X connect 104 0 107 1;
#X connect 105 0 107 0;
#X connect 106 0 105 0;
#X connect 107 0 110 0;
#X connect 111 0 102 0;
#X connect 115 0 119 0;
#X connect 116 0 115 0;
#X connect 117 0 121 0;
#X connect 118 0 122 0;
#X connect 118 0 145 0;
#X connect 118 0 159 0;
#X connect 118 1 120 0;
#X connect 119 0 118 0;
#X connect 121 0 119 1;
#X connect 123 0 127 0;
#X connect 124 0 128 0;
#X connect 125 0 130 0;
#X connect 125 0 147 0;
#X connect 125 0 158 0;
#X connect 125 1 129 0;
#X connect 126 0 125 0;
#X connect 127 0 126 0;
#X connect 128 0 126 1;
#X connect 131 0 135 0;
#X connect 132 0 136 0;
#X connect 133 0 149 0;
#X connect 133 0 150 0;
#X connect 133 0 160 0;
#X connect 133 1 148 0;
#X connect 134 0 133 0;
#X connect 135 0 134 0;
#X connect 136 0 134 1;
#X connect 137 0 135 1;
#X connect 137 0 136 1;
#X connect 138 0 115 1;
#X connect 138 0 121 1;
#X connect 139 0 127 1;
#X connect 139 0 128 1;
#X connect 140 0 115 0;
#X connect 140 1 121 0;
#X connect 141 0 135 0;
#X connect 141 1 136 0;
#X connect 142 0 127 0;
#X connect 142 1 128 0;
#X connect 145 0 144 0;
#X connect 147 0 146 0;
#X connect 150 0 151 0;
#X connect 153 0 152 0;
#X connect 155 0 154 0;
#X connect 156 0 157 0;
#X connect 158 0 147 0;
#X connect 159 0 145 0;
#X connect 160 0 150 0;
#X connect 161 0 141 0;
#X connect 162 0 140 0;
#X connect 163 0 142 0;
