#N canvas 162 94 1194 654 12;
#N canvas 1202 745 590 281 counter 0;
#X obj 159 129 t b b b;
#X floatatom 242 182 5 0 0 0 - - - 0;
#X obj 188 200 /;
#X floatatom 242 219 5 0 0 0 - - - 0;
#X obj 188 229 i;
#X floatatom 242 248 5 0 0 0 - - - 0;
#X obj 242 153 inlet;
#X obj 158 100 inlet;
#X msg 119 230 0;
#X obj 159 276 metro;
#X msg 188 171 60000;
#X msg 208 276 0;
#X obj 159 305 i;
#X obj 194 305 + 1;
#X floatatom 112 305 5 0 0 0 - - - 0;
#X floatatom 159 334 5 0 0 0 - - - 0;
#X obj 159 362 % 8;
#X floatatom 159 391 5 0 0 0 - - - 0;
#X obj 159 448 outlet;
#X text 54 22 Due to the absence of a Vanilla counter here is one from cheetomoskeeto;
#X text 346 110 BPM;
#X text 239 134 Recalculate;
#X text 156 76 Start clock;
#X obj 48 194 inlet;
#X text 47 171 Stop;
#X obj 349 135 inlet;
#X msg 398 163 120;
#X obj 274 98 bng 19 250 50 0 empty empty empty 0 -10 0 12 #fcfcfc #000000 #000000;
#X obj 89 85 bng 19 250 50 0 empty empty empty 0 -10 0 12 #fcfcfc #000000 #000000;
#X obj 288 291 inlet;
#X text 287 269 Reset;
#X obj 159 419 sel 0 1 2 3 4 5 6 7;
#X obj 175 477 outlet;
#X obj 191 506 outlet;
#X obj 207 535 outlet;
#X obj 224 448 outlet;
#X obj 240 477 outlet;
#X obj 256 506 outlet;
#X obj 272 535 outlet;
#X obj 103 419 outlet;
#X obj 398 134 loadbang;
#X text 396 109 Default BPM;
#X connect 0 0 9 0;
#X connect 0 1 10 0;
#X connect 0 2 1 0;
#X connect 1 0 2 1;
#X connect 2 0 3 0;
#X connect 2 0 4 0;
#X connect 4 0 5 0;
#X connect 4 0 9 1;
#X connect 6 0 1 0;
#X connect 7 0 0 0;
#X connect 8 0 9 0;
#X connect 9 0 12 0;
#X connect 9 0 14 0;
#X connect 10 0 2 0;
#X connect 11 0 12 1;
#X connect 12 0 13 0;
#X connect 12 0 15 0;
#X connect 13 0 12 1;
#X connect 15 0 16 0;
#X connect 16 0 17 0;
#X connect 17 0 31 0;
#X connect 17 0 39 0;
#X connect 23 0 8 0;
#X connect 25 0 1 0;
#X connect 26 0 1 0;
#X connect 27 0 1 0;
#X connect 28 0 0 0;
#X connect 29 0 11 0;
#X connect 31 0 18 0;
#X connect 31 1 32 0;
#X connect 31 2 33 0;
#X connect 31 3 34 0;
#X connect 31 4 35 0;
#X connect 31 5 36 0;
#X connect 31 6 37 0;
#X connect 31 7 38 0;
#X connect 40 0 26 0;
#X restore 884 153 pd counter;
#X f 17;
#X obj 855 124 bng 19 250 50 0 empty empty empty 0 -10 0 12 #fcfcfc #000000 #000000;
#X text 834 104 Start;
#X msg 1074 154 60;
#X text 1070 110 BPM input;
#X obj 894 124 bng 19 250 50 0 empty empty empty 0 -10 0 12 #fcfcfc #000000 #000000;
#X text 893 103 Recalculate BPM;
#X msg 1074 212 120;
#X obj 797 124 bng 19 250 50 0 empty empty empty 0 -10 0 12 #fcfcfc #000000 #000000;
#X text 784 104 Stop;
#X obj 1014 123 bng 19 250 50 0 empty empty empty 0 -10 0 12 #fcfcfc #000000 #000000;
#X text 1010 103 Reset;
#X msg 1074 241 240;
#X msg 1074 183 90;
#X obj 797 153 s stop;
#X obj 837 26 r bpm;
#X obj 837 55 t b b b;
#X text 9 10 Drumline;
#X obj 861 182 hsl 162 19 0 7 0 0 empty empty empty -2 -10 0 12 #fcfcfc #000000 #000000 0 1;
#X obj 62 108 select 0 1 2 3 4 5 6 7;
#X obj 858 211 s bar;
#X obj 62 71 r bar;
#X obj 227 108 bng 19 250 50 0 empty empty empty 0 -10 0 12 #fcfcfc #000000 #000000;
#X obj 957 122 s reset;
#X floatatom 15 107 5 0 0 0 - - - 0;
#X floatatom 63 161 5 0 0 0 - - - 0;
#X obj 25 232 bng 19 250 50 0 empty empty empty 0 -10 0 12 #fcfcfc #000000 #000000;
#X obj 24 184 spigot;
#X obj 313 109 select 0 1 2 3 4 5 6 7;
#X obj 313 72 r bar;
#X obj 480 109 bng 19 250 50 0 empty empty empty 0 -10 0 12 #fcfcfc #000000 #000000;
#X floatatom 266 108 5 0 0 0 - - - 0;
#X text 58 50 Kick;
#X obj 779 236 r kick;
#N canvas 103 338 450 446 kick 0;
#X obj 134 212 vline~;
#X obj 172 328 *~;
#X obj 172 307 cos~;
#X obj 172 286 *~;
#X obj 172 264 *~;
#X obj 172 242 *~;
#X msg 134 190 1 0 0 \, 0 \$1 0;
#X msg 134 169 70;
#X obj 172 350 outlet~;
#X obj 228 397 switch~;
#X obj 228 349 env~;
#X obj 228 373 > 0.1;
#X msg 134 147 1;
#X obj 134 125 inlet;
#X obj 190 50 vsl 15 128 1.9 2.4 0 0 empty empty empty 0 -9 0 10 #fcfcfc #000000 #000000 0 1;
#X obj 190 26 inlet;
#X connect 0 0 1 1;
#X connect 0 0 5 0;
#X connect 0 0 3 1;
#X connect 1 0 8 0;
#X connect 1 0 10 0;
#X connect 2 0 1 0;
#X connect 3 0 2 0;
#X connect 4 0 3 0;
#X connect 5 0 4 1;
#X connect 5 0 4 0;
#X connect 6 0 0 0;
#X connect 7 0 6 0;
#X connect 10 0 11 0;
#X connect 11 0 9 0;
#X connect 12 0 9 0;
#X connect 12 0 7 0;
#X connect 13 0 12 0;
#X connect 14 0 5 1;
#X connect 15 0 14 0;
#X restore 779 265 pd kick;
#X obj 25 256 s kick;
#X text 309 51 Snare;
#N canvas 237 262 450 704 snare 0;
#X obj 193 234 vline~;
#X obj 175 460 *~;
#X obj 211 296 cos~;
#X obj 161 169 t f f;
#X obj 211 276 *~;
#X obj 175 482 outlet~;
#X obj 231 529 switch~;
#X obj 231 481 env~;
#X obj 231 505 > 0.1;
#X msg 229 425 1;
#X obj 183 87 t b b b;
#X obj 183 41 inlet;
#X obj 193 392 *~;
#X obj 175 439 cos~;
#X obj 193 345 +~;
#X obj 175 365 *~;
#X obj 193 414 *~;
#X obj 193 322 sig~ 5;
#X obj 229 192 /;
#X obj 183 115 del 5;
#X obj 146 504 s~ snfb;
#X obj 175 254 r~ snfb;
#X msg 183 63 1;
#X msg 183 140 90;
#X msg 229 140 70;
#X msg 285 140 6;
#X msg 193 212 1 0 0 \, 0 \$1 3;
#X connect 0 0 4 0;
#X connect 0 0 12 0;
#X connect 0 0 12 1;
#X connect 1 0 5 0;
#X connect 1 0 7 0;
#X connect 1 0 20 0;
#X connect 2 0 14 1;
#X connect 3 0 18 0;
#X connect 3 1 26 0;
#X connect 4 0 2 0;
#X connect 7 0 8 0;
#X connect 8 0 6 0;
#X connect 9 0 6 0;
#X connect 10 0 19 0;
#X connect 10 1 25 0;
#X connect 10 2 9 0;
#X connect 11 0 22 0;
#X connect 12 0 16 0;
#X connect 12 0 16 1;
#X connect 13 0 1 0;
#X connect 14 0 15 1;
#X connect 15 0 13 0;
#X connect 16 0 1 1;
#X connect 17 0 14 0;
#X connect 18 0 4 1;
#X connect 19 0 23 0;
#X connect 19 0 24 0;
#X connect 21 0 15 0;
#X connect 22 0 10 0;
#X connect 23 0 3 0;
#X connect 24 0 3 0;
#X connect 25 0 18 1;
#X connect 26 0 0 0;
#X restore 709 264 pd snare;
#X obj 709 235 r snare;
#X obj 769 312 dac~;
#N canvas 103 338 450 446 hihat 0;
#N canvas 475 183 676 682 hhnoise 0;
#X obj 178 566 outlet~;
#X obj 194 311 *~;
#X obj 178 479 +~;
#X obj 179 540 osc~;
#X obj 195 426 *~;
#X obj 195 203 unpack f f f f f;
#X obj 177 450 sig~;
#X obj 195 250 osc~;
#X obj 209 274 osc~;
#N canvas 730 22 450 300 programmer 0;
#X msg 99 193 2834.65 2165.35 0.811024 1771.65 6708.66;
#X obj 244 63 hsl 128 15 0 5000 0 0 empty empty modf1 32 7 1 8 #fcfcfc #000000 #000000 0 1;
#X obj 136 147 pack f f f f f;
#X obj 136 124 t b;
#X msg 136 169 set \$1 \$2 \$3 \$4 \$5;
#X obj 244 78 hsl 128 15 0 5000 0 0 empty empty modf2 32 7 1 8 #fcfcfc #000000 #000000 0 1;
#X obj 244 93 hsl 128 15 0 1 0 0 empty empty env 32 7 1 8 #fcfcfc #000000 #000000 0 1;
#X obj 244 108 hsl 128 15 0 5000 0 0 empty empty fm_amount 32 7 1 8 #fcfcfc #000000 #000000 0 1;
#X obj 244 123 hsl 128 15 0 12000 0 0 empty empty base_freq 32 7 1 8 #fcfcfc #000000 #000000 0 1;
#X obj 95 150 del 2;
#X obj 96 224 outlet;
#X msg 122 259 1141.73 472.441 0.645669 2874.02 10299.2;
#X msg 149 230 748.031 1023.62 0.173228 1968.5 9259.84;
#X msg 183 277 2834.65 2165.35 0.511811 4370.08 8125.98;
#X obj 304 162 loadbang;
#X connect 0 0 10 0;
#X connect 1 0 2 0;
#X connect 1 0 3 0;
#X connect 2 0 4 0;
#X connect 3 0 2 0;
#X connect 3 0 9 0;
#X connect 4 0 0 0;
#X connect 5 0 2 1;
#X connect 5 0 3 0;
#X connect 6 0 2 2;
#X connect 6 0 3 0;
#X connect 7 0 2 3;
#X connect 7 0 3 0;
#X connect 8 0 2 4;
#X connect 8 0 3 0;
#X connect 9 0 0 0;
#X connect 11 0 10 0;
#X connect 12 0 10 0;
#X connect 13 0 10 0;
#X connect 14 0 12 0;
#X restore 195 177 pd programmer;
#X obj 153 311 +~;
#N canvas 0 22 450 300 xf 0;
#X obj 107 37 inlet~;
#X obj 158 37 inlet~;
#X obj 123 135 *~;
#X obj 152 134 *~;
#X obj 134 178 outlet~;
#X obj 171 87 sig~ 1;
#X obj 169 108 -~;
#X obj 227 37 inlet~ xfade;
#X connect 0 0 2 0;
#X connect 1 0 3 0;
#X connect 2 0 4 0;
#X connect 3 0 4 0;
#X connect 5 0 6 0;
#X connect 6 0 3 1;
#X connect 7 0 6 1;
#X connect 7 0 2 1;
#X restore 154 351 pd xf;
#X text 263 302 2 ringmod;
#X obj 223 311 *~;
#X obj 222 133 inlet~ spectrum env;
#X obj 124 591 s~ \$0-fb;
#X obj 208 482 r~ \$0-fb;
#X obj 179 516 +~;
#X text 219 540 fbfm;
#X obj 125 567 *~ 600;
#X connect 1 0 11 1;
#X connect 2 0 17 0;
#X connect 3 0 0 0;
#X connect 3 0 19 0;
#X connect 4 0 2 1;
#X connect 5 0 7 0;
#X connect 5 1 8 0;
#X connect 5 2 13 1;
#X connect 5 3 4 1;
#X connect 5 4 6 0;
#X connect 6 0 2 0;
#X connect 7 0 1 0;
#X connect 7 0 10 0;
#X connect 8 0 1 1;
#X connect 8 0 10 1;
#X connect 9 0 5 0;
#X connect 10 0 11 0;
#X connect 11 0 4 0;
#X connect 13 0 11 2;
#X connect 14 0 13 0;
#X connect 16 0 17 1;
#X connect 17 0 3 0;
#X connect 19 0 15 0;
#X restore 71 293 pd hhnoise;
#X obj 132 331 *~;
#X obj 148 246 vline~;
#X obj 149 292 *~;
#X obj 132 410 switch~;
#X obj 132 358 env~;
#X msg 173 383 1;
#X obj 148 61 t b b;
#X obj 132 383 > 0.1;
#X obj 73 382 outlet~;
#X msg 148 190 \$1 0 0 \, 0 \$2 1;
#X obj 148 167 pack f f;
#X obj 148 116 t f f, f 8;
#X msg 148 90 0.6;
#X obj 220 47 inlet decay;
#X obj 201 144 *;
#X obj 148 15 inlet hihat;
#X obj 220 72 * 7000;
#X msg 148 38 1;
#X connect 0 0 1 0;
#X connect 1 0 5 0;
#X connect 1 0 9 0;
#X connect 2 0 3 0;
#X connect 2 0 3 1;
#X connect 2 0 0 0;
#X connect 3 0 1 1;
#X connect 5 0 8 0;
#X connect 6 0 4 0;
#X connect 7 0 13 0;
#X connect 7 1 6 0;
#X connect 8 0 4 0;
#X connect 10 0 2 0;
#X connect 11 0 10 0;
#X connect 12 0 11 0;
#X connect 12 1 15 0;
#X connect 13 0 12 0;
#X connect 14 0 17 0;
#X connect 15 0 11 1;
#X connect 16 0 18 0;
#X connect 17 0 15 1;
#X connect 18 0 7 0;
#X restore 842 265 pd hihat;
#X obj 842 236 r hihat;
#X obj 566 109 select 0 1 2 3 4 5 6 7;
#X obj 566 72 r bar;
#X obj 733 109 bng 19 250 50 0 empty empty empty 0 -10 0 12 #fcfcfc #000000 #000000;
#X floatatom 519 108 5 0 0 0 - - - 0;
#X text 562 51 Hi-Hat;
#N canvas 614 639 450 278 (subpatch) 0;
#X array kickSequence 8 float 3;
#A 0 1 0 1 0 1 0 1 0;
#X coords 0 2 8 -1 200 140 1 0 0;
#X restore 10 331 graph;
#X text 9 294 Sequences;
#N canvas 817 814 450 278 (subpatch) 0;
#X array hatSequence 8 float 3;
#A 0 0 0 0 0 0 0 0 0;
#X coords 0 2 8 -1 200 140 1 0 0;
#X restore 526 331 graph;
#N canvas 14 764 450 278 (subpatch) 0;
#X array snareSequence 8 float 3;
#A 0 0 1 0 1 0 1 0 1;
#X coords 0 2 8 -1 200 140 1 0 0;
#X restore 266 331 graph;
#X floatatom 308 162 5 0 0 0 - - - 0;
#X obj 270 233 bng 19 250 50 0 empty empty empty 0 -10 0 12 #fcfcfc #000000 #000000;
#X obj 269 185 spigot;
#X obj 308 138 tabread snareSequence;
#X obj 270 257 s snare;
#X floatatom 566 162 5 0 0 0 - - - 0;
#X obj 528 233 bng 19 250 50 0 empty empty empty 0 -10 0 12 #fcfcfc #000000 #000000;
#X obj 527 185 spigot;
#X obj 528 257 s hihat;
#X obj 566 138 tabread hihatSequence;
#X obj 63 137 tabread kickSequence;
#X obj 733 138 bng 19 250 50 0 empty empty empty 0 -10 0 12 #fcfcfc #000000 #000000;
#X obj 480 137 bng 19 250 50 0 empty empty empty 0 -10 0 12 #fcfcfc #000000 #000000;
#X obj 227 137 bng 19 250 50 0 empty empty empty 0 -10 0 12 #fcfcfc #000000 #000000;
#X obj 526 481 r resetHats;
#X obj 266 481 r resetSnares;
#X msg 266 510 \; snareSequence const 0;
#X obj 10 481 r resetKicks;
#X msg 10 510 \; kickSequence const 0;
#X msg 526 510 \; hatSequence const 0;
#X obj 906 494 bng 19 250 50 0 empty empty empty 0 -10 0 12 #fcfcfc #000000 #000000;
#X obj 1043 495 r bar;
#X obj 906 552 tabwrite hatSequence;
#X msg 906 523 1;
#X floatatom 1043 524 5 0 0 0 - - - 0;
#X obj 906 407 bng 19 250 50 0 empty empty empty 0 -10 0 12 #fcfcfc #000000 #000000;
#X obj 1057 408 r bar;
#X msg 906 436 1;
#X floatatom 1057 437 5 0 0 0 - - - 0;
#X obj 906 465 tabwrite snareSequence;
#X obj 906 321 bng 19 250 50 0 empty empty empty 0 -10 0 12 #fcfcfc #000000 #000000;
#X obj 1050 322 r bar;
#X msg 906 350 1;
#X floatatom 1050 351 5 0 0 0 - - - 0;
#X obj 906 379 tabwrite kickSequence;
#X obj 24 208 debounce;
#X obj 269 209 debounce;
#X obj 527 209 debounce;
#X connect 0 0 18 0;
#X connect 0 1 18 0;
#X connect 0 2 18 0;
#X connect 0 3 18 0;
#X connect 0 4 18 0;
#X connect 0 5 18 0;
#X connect 0 6 18 0;
#X connect 0 7 18 0;
#X connect 0 8 18 0;
#X connect 1 0 0 1;
#X connect 3 0 0 4;
#X connect 5 0 0 2;
#X connect 7 0 0 4;
#X connect 8 0 0 0;
#X connect 8 0 14 0;
#X connect 10 0 0 3;
#X connect 10 0 23 0;
#X connect 12 0 0 4;
#X connect 13 0 0 4;
#X connect 15 0 16 0;
#X connect 16 0 1 0;
#X connect 16 1 5 0;
#X connect 16 2 8 0;
#X connect 18 0 20 0;
#X connect 19 0 27 0;
#X connect 19 1 27 0;
#X connect 19 2 27 0;
#X connect 19 3 27 0;
#X connect 19 4 27 0;
#X connect 19 5 27 0;
#X connect 19 6 27 0;
#X connect 19 7 27 0;
#X connect 19 7 64 0;
#X connect 19 8 22 0;
#X connect 21 0 19 0;
#X connect 21 0 24 0;
#X connect 24 0 61 0;
#X connect 25 0 27 1;
#X connect 26 0 35 0;
#X connect 27 0 86 0;
#X connect 28 0 53 0;
#X connect 28 1 53 0;
#X connect 28 2 53 0;
#X connect 28 3 53 0;
#X connect 28 4 53 0;
#X connect 28 5 53 0;
#X connect 28 6 53 0;
#X connect 28 7 53 0;
#X connect 28 7 63 0;
#X connect 28 8 30 0;
#X connect 29 0 28 0;
#X connect 29 0 31 0;
#X connect 31 0 54 0;
#X connect 33 0 34 0;
#X connect 34 0 39 0;
#X connect 34 0 39 1;
#X connect 37 0 39 0;
#X connect 37 0 39 1;
#X connect 38 0 37 0;
#X connect 40 0 39 0;
#X connect 40 0 39 1;
#X connect 41 0 40 0;
#X connect 42 0 58 0;
#X connect 42 1 58 0;
#X connect 42 2 58 0;
#X connect 42 3 58 0;
#X connect 42 4 58 0;
#X connect 42 5 58 0;
#X connect 42 6 58 0;
#X connect 42 7 58 0;
#X connect 42 7 62 0;
#X connect 42 8 44 0;
#X connect 43 0 42 0;
#X connect 43 0 45 0;
#X connect 45 0 60 0;
#X connect 51 0 53 1;
#X connect 52 0 55 0;
#X connect 53 0 87 0;
#X connect 54 0 51 0;
#X connect 56 0 58 1;
#X connect 57 0 59 0;
#X connect 58 0 88 0;
#X connect 60 0 56 0;
#X connect 61 0 25 0;
#X connect 65 0 70 0;
#X connect 66 0 67 0;
#X connect 68 0 69 0;
#X connect 71 0 74 0;
#X connect 72 0 75 0;
#X connect 74 0 73 0;
#X connect 75 0 73 1;
#X connect 76 0 78 0;
#X connect 77 0 79 0;
#X connect 78 0 80 0;
#X connect 79 0 80 1;
#X connect 81 0 83 0;
#X connect 82 0 84 0;
#X connect 83 0 85 0;
#X connect 84 0 85 1;
#X connect 86 0 26 0;
#X connect 87 0 52 0;
#X connect 88 0 57 0;
