#N canvas 414 35 821 743 12;
#X obj 52 29 loadbang;
#X obj 53 80 metro 1000;
#X msg 52 53 1;
#X msg 201 42 0;
#X obj 55 377 ether;
#X msg 55 350 wlan0;
#X obj 55 487 t b;
#X obj 56 403 list trim;
#X obj 118 487 t b;
#X obj 663 642 print unknown mac-address, f 14;
#X msg 55 512 p1;
#X msg 118 512 p2;
#X obj 182 487 t b;
#X msg 182 512 p3;
#X obj 54 148 ipinfo;
#X msg 54 120 wlan0;
#X msg 113 118 en0;
#X obj 55 275 delay 500;
#X obj 126 660 s my_id;
#X obj 94 612 t b a;
#X obj 94 694 s wifi_ready;
#X obj 189 661 print ID;
#X obj 168 233 s my_ip;
#X obj 101 205 unpack s s;
#X obj 55 179 t b b l;
#X obj 245 487 t b;
#X msg 245 512 p4;
#X obj 309 487 t b;
#X msg 309 512 p5;
#X obj 372 487 t b;
#X obj 436 487 t b;
#X msg 436 512 p7;
#X obj 499 505 t b;
#X text 483 480 bela ingo;
#X msg 499 530 p6;
#X msg 372 512 p6;
#X obj 159 395 print ether;
#X obj 126 166 print IP;
#X obj 547 511 t b;
#X msg 547 536 p2;
#X obj 581 509 t b;
#X msg 581 534 p1;
#X obj 55 434 route 1C:BF:CE:0D:61:80 1C:BF:CE:0D:61:62 00:E0:09:30:7B:4D 00:0F:0B:41:9C:97 00:E0:20:2F:5D:C3 00:E0:20:30:46:42 1C:BF:CE:E4:F7:91 C8:3A:35:C2:AE:42 00:2E:2D:5C:3C:6D 00:2E:2D:5D:3E:4E 00:2E:2D:5C:3C:EA, f 73;
#X obj 627 507 t b;
#X msg 627 532 p5;
#X connect 0 0 2 0;
#X connect 1 0 15 0;
#X connect 2 0 1 0;
#X connect 3 0 1 0;
#X connect 4 0 7 0;
#X connect 4 0 36 0;
#X connect 5 0 4 0;
#X connect 6 0 10 0;
#X connect 7 0 42 0;
#X connect 8 0 11 0;
#X connect 10 0 19 0;
#X connect 11 0 19 0;
#X connect 12 0 13 0;
#X connect 13 0 19 0;
#X connect 14 0 24 0;
#X connect 14 0 37 0;
#X connect 15 0 14 0;
#X connect 16 0 14 0;
#X connect 17 0 5 0;
#X connect 19 0 20 0;
#X connect 19 1 18 0;
#X connect 19 1 21 0;
#X connect 23 1 22 0;
#X connect 24 0 17 0;
#X connect 24 1 3 0;
#X connect 24 2 23 0;
#X connect 25 0 26 0;
#X connect 26 0 19 0;
#X connect 27 0 28 0;
#X connect 28 0 19 0;
#X connect 29 0 35 0;
#X connect 30 0 31 0;
#X connect 31 0 19 0;
#X connect 32 0 34 0;
#X connect 34 0 19 0;
#X connect 35 0 19 0;
#X connect 38 0 39 0;
#X connect 39 0 19 0;
#X connect 40 0 41 0;
#X connect 41 0 19 0;
#X connect 42 0 6 0;
#X connect 42 1 8 0;
#X connect 42 2 12 0;
#X connect 42 3 25 0;
#X connect 42 4 27 0;
#X connect 42 5 29 0;
#X connect 42 6 30 0;
#X connect 42 7 32 0;
#X connect 42 8 38 0;
#X connect 42 9 40 0;
#X connect 42 10 43 0;
#X connect 43 0 44 0;
#X connect 44 0 19 0;
