#N canvas 120 61 812 704 12;
#X obj 113 105 r~ \$0-fb1;
#X obj 47 83 *~ 1;
#X obj 218 39 sig~ 1;
#X obj 218 61 *~;
#X obj 219 133 vd~ \$0-wg1, f 12;
#X obj 220 229 s~ \$0-fb1;
#X obj 47 61 clone stringSynth.cl 8;
#X obj 173 346 *~ 1;
#X obj 173 379 outlet~;
#X obj 48 17 inlet;
#X msg 392 28 1 75 80;
#X msg 402 64 1 75 0;
#X msg 517 4 2 74 80;
#X msg 527 40 2 74 0;
#X obj 220 157 lop~ 2000;
#X obj 170 311 lop~ 1000;
#X obj 219 109 +~ 2;
#X obj 218 85 *~ 10;
#X obj 220 205 *~ 0.799;
#X obj 45 132 delwrite~ \$0-wg1 100;
#X obj 220 181 hip~ 250;
#X obj 46 105 hip~ 250;
#X obj 169 283 hip~ 250;
#X connect 0 0 19 0;
#X connect 1 0 21 0;
#X connect 2 0 3 0;
#X connect 2 0 3 1;
#X connect 3 0 17 0;
#X connect 4 0 14 0;
#X connect 4 0 22 0;
#X connect 6 0 1 0;
#X connect 7 0 8 0;
#X connect 9 0 6 0;
#X connect 10 0 6 0;
#X connect 11 0 6 0;
#X connect 12 0 6 0;
#X connect 13 0 6 0;
#X connect 14 0 20 0;
#X connect 15 0 7 0;
#X connect 16 0 4 0;
#X connect 17 0 16 0;
#X connect 18 0 5 0;
#X connect 20 0 18 0;
#X connect 21 0 19 0;
#X connect 22 0 15 0;
