#N canvas 120 61 812 704 12;
#X obj 113 105 r~ \$0-fb1;
#X obj 47 83 *~ 1;
#X obj 218 39 sig~ 1;
#X obj 218 61 *~;
#X obj 219 133 vd~ \$0-wg1, f 12;
#X obj 220 229 s~ \$0-fb1;
#X obj 47 61 clone stringSynth.cl 8;
#X obj 173 346 *~ 1;
#X obj 173 379 outlet~;
#X obj 48 17 inlet;
#X obj 170 311 lop~ 1000;
#X obj 218 85 *~ 5;
#X obj 45 132 delwrite~ \$0-wg1 100;
#X msg 392 28 1 45 80;
#X msg 402 64 1 45 0;
#X msg 468 100 2 44 80;
#X msg 478 136 2 44 0;
#X obj 220 157 lop~ 500;
#X obj 219 109 +~ 1;
#X obj 220 181 hip~ 50;
#X obj 46 105 hip~ 50;
#X obj 169 283 hip~ 50;
#X obj 220 205 *~ 0.599;
#X connect 0 0 12 0;
#X connect 1 0 20 0;
#X connect 2 0 3 0;
#X connect 2 0 3 1;
#X connect 3 0 11 0;
#X connect 4 0 17 0;
#X connect 4 0 21 0;
#X connect 6 0 1 0;
#X connect 7 0 8 0;
#X connect 9 0 6 0;
#X connect 10 0 7 0;
#X connect 11 0 18 0;
#X connect 13 0 6 0;
#X connect 14 0 6 0;
#X connect 15 0 6 0;
#X connect 16 0 6 0;
#X connect 17 0 19 0;
#X connect 18 0 4 0;
#X connect 19 0 22 0;
#X connect 20 0 12 0;
#X connect 21 0 10 0;
#X connect 22 0 5 0;
