#N canvas 554 23 908 529 12;
#X msg 367 181 tempo \$1;
#X msg 181 181 resolution \$1;
#X msg 277 181 reset \$1 \$2;
#X obj 277 160 pack f f;
#X floatatom 211 307 5 0 0 1 beat_time - - 0;
#X floatatom 183 328 5 0 0 1 phase - - 0;
#X floatatom 156 356 5 0 0 1 step - - 0;
#X floatatom 239 285 5 0 0 1 tempo - - 0;
#X obj 38 161 tgl 15 0 empty empty empty 17 7 0 10 #fcfcfc #000000 #000000 0 1;
#X obj 156 244 abl_link~ 1 0 4 134;
#X floatatom 371 149 5 0 0 2 tempo - - 0;
#X floatatom 322 141 5 0 0 2 quantum - - 0;
#X floatatom 277 141 5 0 0 2 beat - - 0;
#X floatatom 181 161 5 0 0 2 resolution - - 0;
#X msg 38 182 connect \$1;
#X floatatom 571 176 5 0 0 0 - - - 0;
#X obj 571 154 r #abl_link_num_peers;
#X floatatom 267 266 5 0 0 1 is_playing - - 0;
#X obj 121 161 tgl 15 0 empty empty empty 17 7 0 10 #fcfcfc #000000 #000000 0 1;
#X msg 121 181 play \$1;
#X floatatom 437 162 5 0 0 0 - - - 0;
#X msg 437 181 offset \$1;
#X obj 152 398 osc~ 400;
#X obj 153 427 *~;
#X obj 327 470 line~;
#X msg 364 438 0 100;
#X obj 329 390 t b b;
#X obj 153 451 dac~;
#X obj 328 365 bng 19 250 50 0 empty empty empty 0 -10 0 12 #fcfcfc #000000 #000000;
#X obj 362 415 delay 100;
#X msg 319 418 1 4;
#X connect 0 0 9 0;
#X connect 1 0 9 0;
#X connect 2 0 9 0;
#X connect 3 0 2 0;
#X connect 8 0 14 0;
#X connect 9 0 6 0;
#X connect 9 1 5 0;
#X connect 9 2 4 0;
#X connect 9 3 7 0;
#X connect 10 0 0 0;
#X connect 11 0 3 1;
#X connect 12 0 3 0;
#X connect 13 0 1 0;
#X connect 14 0 9 0;
#X connect 16 0 15 0;
#X connect 18 0 19 0;
#X connect 19 0 9 0;
#X connect 20 0 21 0;
#X connect 21 0 9 0;
#X connect 22 0 23 0;
#X connect 23 0 27 0;
#X connect 24 0 23 1;
#X connect 25 0 24 0;
#X connect 26 0 30 0;
#X connect 26 1 29 0;
#X connect 28 0 26 0;
#X connect 29 0 25 0;
#X connect 30 0 24 0;
