#N canvas 89 120 954 566 12;
#X obj 44 70 osc~ 400;
#X obj 45 99 *~;
#X obj 219 142 line~;
#X msg 211 90 1 10;
#X msg 256 110 0 100;
#X obj 221 62 t b b;
#X obj 45 123 dac~;
#X obj 283 48 bng 19 250 50 0 empty empty empty 0 -10 0 12 #fcfcfc #000000 #000000;
#X obj 254 87 delay 100;
#X connect 0 0 1 0;
#X connect 1 0 6 0;
#X connect 2 0 1 1;
#X connect 3 0 2 0;
#X connect 4 0 2 0;
#X connect 5 0 3 0;
#X connect 5 1 8 0;
#X connect 7 0 5 0;
#X connect 8 0 4 0;
