#N canvas 68 97 862 553 12;
#X obj 36 183 osc~ 400;
#X obj 37 212 *~;
#X obj 111 193 line~;
#X obj 110 125 t b b;
#X obj 37 236 dac~;
#X obj 109 100 bng 19 250 50 0 empty empty empty 0 -10 0 12 #fcfcfc #000000 #000000;
#X msg 110 148 1 4;
#X obj 40 29 abl_link~;
#X obj 35 158 * 5;
#X obj 142 147 delay 50;
#X msg 143 170 0 50;
#X obj 191 65 print tempo;
#X obj 347 41 tgl 15 0 empty empty empty 17 7 0 10 #fcfcfc #000000 #000000 0 1;
#X msg 347 62 connect \$1;
#X obj 337 12 loadbang;
#X connect 0 0 1 0;
#X connect 1 0 4 0;
#X connect 2 0 1 1;
#X connect 3 0 6 0;
#X connect 3 1 9 0;
#X connect 5 0 3 0;
#X connect 6 0 2 0;
#X connect 7 0 5 0;
#X connect 7 3 8 0;
#X connect 7 3 11 0;
#X connect 8 0 0 0;
#X connect 9 0 10 0;
#X connect 10 0 2 0;
#X connect 12 0 13 0;
#X connect 13 0 7 0;
#X connect 14 0 12 0;
