#N canvas 488 518 1265 473 12;
#X obj 60 301 tgl 19 0 empty empty empty 0 -10 0 12 #fcfcfc #000000 #000000 0 1;
#X obj 101 298 tgl 19 0 empty empty empty 0 -10 0 12 #fcfcfc #000000 #000000 0 1;
#X obj 154 298 tgl 19 0 empty empty empty 0 -10 0 12 #fcfcfc #000000 #000000 0 1;
#X text 95 278 sensor1;
#X text 155 279 sensor2;
#X text 56 280 play;
#X obj 57 685 *~;
#X obj 145 664 line~;
#X msg 146 640 1 100;
#X obj 145 610 loadbang;
#X msg 208 641 \$1 100;
#X obj 50 228 r play;
#X obj 256 227 r inst;
#X obj 210 611 r volume;
#X msg 1272 451 expose t LED8;
#X msg 1282 497 expose t LEDMatch;
#N canvas 47 74 450 300 limiter 0;
#X obj 62 191 *~;
#X obj 92 69 env~;
#X obj 92 91 dbtorms;
#X obj 92 135 -;
#X obj 92 157 lop~ 20;
#X msg 92 113 1 \$1;
#X obj 62 4 inlet~;
#X obj 62 266 outlet~;
#X connect 0 0 7 0;
#X connect 1 0 2 0;
#X connect 2 0 5 0;
#X connect 3 0 4 0;
#X connect 4 0 0 1;
#X connect 5 0 3 0;
#X connect 6 0 1 0;
#X connect 6 0 0 0;
#X restore 59 630 pd limiter;
#X obj 60 604 clip~ -1 1;
#N canvas 173 212 834 446 sensor 0;
#X obj 112 83 adc~ 3 4;
#X obj 111 155 snapshot~;
#X obj 302 90 loadbang;
#X obj 302 113 tgl 16 0 empty empty empty 0 -8 0 10 #fcfcfc #000000 #000000 0 1;
#X obj 207 156 snapshot~;
#X obj 301 137 metro 40;
#X obj 112 128 average~ 10;
#X obj 207 128 average~ 10;
#X obj 120 319 change;
#X obj 229 319 change;
#N canvas 62 323 709 452 calib 0;
#X obj 170 189 > 0;
#X obj 179 139 t a a a;
#X obj 203 191 spigot;
#X obj 89 141 t a a a;
#X obj 113 192 spigot;
#X obj 80 191 < 1;
#X obj 204 225 f;
#X obj 115 223 f;
#X text 113 246 min;
#X text 203 250 max;
#X floatatom 237 229 5 0 0 0 - - - 0;
#X floatatom 146 223 5 0 0 0 - - - 0;
#X msg 144 169 1;
#X msg 248 169 0;
#X obj 111 42 inlet;
#X obj 110 98 t a a;
#X obj 204 321 outlet;
#X obj 335 53 inlet;
#X obj 110 70 spigot;
#X obj 284 65 t a a;
#X obj 317 89 sel 1 0;
#X obj 117 323 outlet;
#X obj 351 276 -;
#X obj 348 244 t b a;
#X obj 351 331 outlet;
#X obj 351 304 / 3;
#X connect 0 0 2 1;
#X connect 1 1 2 0;
#X connect 1 2 0 0;
#X connect 2 0 0 1;
#X connect 2 0 6 1;
#X connect 2 0 10 0;
#X connect 3 1 4 0;
#X connect 3 2 5 0;
#X connect 4 0 5 1;
#X connect 4 0 7 1;
#X connect 4 0 11 0;
#X connect 5 0 4 1;
#X connect 6 0 16 0;
#X connect 6 0 22 0;
#X connect 7 0 21 0;
#X connect 7 0 23 0;
#X connect 12 0 5 1;
#X connect 13 0 0 1;
#X connect 14 0 18 0;
#X connect 15 0 3 0;
#X connect 15 1 1 0;
#X connect 17 0 19 0;
#X connect 18 0 15 0;
#X connect 19 0 18 1;
#X connect 19 1 20 0;
#X connect 20 0 13 0;
#X connect 20 0 12 0;
#X connect 20 1 6 0;
#X connect 20 1 7 0;
#X connect 22 0 25 0;
#X connect 23 0 22 0;
#X connect 23 1 22 1;
#X connect 25 0 24 0;
#X restore 212 199 pd calib;
#X obj 322 180 r calib;
#X msg 409 212 val1 \$1;
#X msg 471 213 val2 \$1;
#X obj 410 149 metro 200;
#X obj 409 175 f;
#X obj 472 175 f;
#X obj 264 259 - 0.1;
#X obj 119 297 < 0.7;
#X obj 229 296 < 0.7;
#X obj 265 235 t b a;
#N canvas 54 23 1040 617 calib 0;
#X obj 170 189 > 0;
#X obj 179 139 t a a a;
#X obj 203 191 spigot;
#X obj 89 141 t a a a;
#X obj 113 192 spigot;
#X obj 80 191 < 1;
#X obj 204 225 f;
#X obj 115 223 f;
#X text 113 246 min;
#X text 203 250 max;
#X floatatom 237 229 5 0 0 0 - - - 0;
#X floatatom 146 223 5 0 0 0 - - - 0;
#X msg 144 169 1;
#X msg 248 169 0;
#X obj 111 42 inlet;
#X obj 110 98 t a a;
#X obj 204 321 outlet;
#X obj 335 53 inlet;
#X obj 110 70 spigot;
#X obj 284 65 t a a;
#X obj 317 89 sel 1 0;
#X obj 117 323 outlet;
#X obj 351 276 -;
#X obj 348 244 t b a;
#X obj 351 331 outlet;
#X obj 351 304 / 3;
#X connect 0 0 2 1;
#X connect 1 1 2 0;
#X connect 1 2 0 0;
#X connect 2 0 0 1;
#X connect 2 0 6 1;
#X connect 2 0 10 0;
#X connect 3 1 4 0;
#X connect 3 2 5 0;
#X connect 4 0 5 1;
#X connect 4 0 7 1;
#X connect 4 0 11 0;
#X connect 5 0 4 1;
#X connect 6 0 16 0;
#X connect 6 0 22 0;
#X connect 7 0 21 0;
#X connect 7 0 23 0;
#X connect 12 0 5 1;
#X connect 13 0 0 1;
#X connect 14 0 18 0;
#X connect 15 0 3 0;
#X connect 15 1 1 0;
#X connect 17 0 19 0;
#X connect 18 0 15 0;
#X connect 19 0 18 1;
#X connect 19 1 20 0;
#X connect 20 0 13 0;
#X connect 20 0 12 0;
#X connect 20 1 6 0;
#X connect 20 1 7 0;
#X connect 22 0 25 0;
#X connect 23 0 22 0;
#X connect 23 1 22 1;
#X connect 25 0 24 0;
#X restore 104 197 pd calib;
#X obj 157 261 - 0.1;
#X obj 157 232 t b a;
#X obj 412 73 tgl 19 0 empty empty empty 0 -10 0 12 #fcfcfc #000000 #000000 0 1;
#N canvas 113 152 1076 540 RecCalib 0;
#X obj 71 285 textfile;
#X obj 70 201 list trim;
#X obj 94 176 list prepend set;
#X obj 75 432 textfile;
#X msg 76 410 bang;
#X msg 116 410 rewind;
#X obj 113 368 t b b b;
#X obj 70 149 list;
#X msg 148 202 write /root/Bela/projects/symphoney/sensorCalib.txt cr, f 55;
#X obj 71 77 change;
#X obj 81 124 delay 500;
#X msg 195 391 read /root/Bela/projects/symphoney/sensorCalib.txt cr;
#X obj 70 34 inlet;
#X obj 170 34 inlet;
#X obj 213 34 inlet;
#X obj 258 34 inlet;
#X obj 302 34 inlet;
#X obj 107 149 pack 0 0 0 0;
#X obj 67 453 unpack 0 0 0 0;
#X obj 66 493 outlet;
#X obj 119 493 outlet;
#X obj 169 493 outlet;
#X obj 221 493 outlet;
#X obj 114 344 loadbang;
#X obj 71 101 sel 0;
#X msg 196 414 read sensorCalib.txt cr;
#X msg 148 229 write sensorCalib.txt cr, f 34;
#X connect 1 0 0 0;
#X connect 2 0 1 0;
#X connect 3 0 18 0;
#X connect 4 0 3 0;
#X connect 5 0 3 0;
#X connect 6 0 4 0;
#X connect 6 1 5 0;
#X connect 6 2 11 0;
#X connect 7 0 2 0;
#X connect 8 0 0 0;
#X connect 9 0 24 0;
#X connect 10 0 8 0;
#X connect 11 0 3 0;
#X connect 12 0 9 0;
#X connect 13 0 17 0;
#X connect 14 0 17 1;
#X connect 15 0 17 2;
#X connect 16 0 17 3;
#X connect 17 0 7 1;
#X connect 18 0 19 0;
#X connect 18 1 20 0;
#X connect 18 2 21 0;
#X connect 18 3 22 0;
#X connect 23 0 6 0;
#X connect 24 0 10 0;
#X connect 24 0 7 0;
#X connect 25 0 3 0;
#X connect 26 0 0 0;
#X restore 321 218 pd RecCalib;
#X obj 120 353 outlet sensor1;
#X obj 229 356 outlet sensor2;
#X obj 453 72 inlet;
#X obj 410 244 s message;
#X text 79 61 analog input number will change!;
#X connect 0 0 6 0;
#X connect 0 1 7 0;
#X connect 1 0 21 0;
#X connect 1 0 15 1;
#X connect 1 0 18 0;
#X connect 2 0 3 0;
#X connect 3 0 5 0;
#X connect 4 0 10 0;
#X connect 4 0 16 1;
#X connect 4 0 19 0;
#X connect 5 0 1 0;
#X connect 5 0 4 0;
#X connect 6 0 1 0;
#X connect 7 0 4 0;
#X connect 8 0 26 0;
#X connect 9 0 27 0;
#X connect 10 1 17 0;
#X connect 10 1 25 3;
#X connect 10 2 20 0;
#X connect 10 2 25 4;
#X connect 11 0 10 1;
#X connect 11 0 21 1;
#X connect 11 0 25 0;
#X connect 12 0 29 0;
#X connect 13 0 29 0;
#X connect 14 0 15 0;
#X connect 14 0 16 0;
#X connect 15 0 12 0;
#X connect 16 0 13 0;
#X connect 17 0 19 1;
#X connect 18 0 8 0;
#X connect 19 0 9 0;
#X connect 20 0 17 0;
#X connect 20 1 17 1;
#X connect 21 1 22 0;
#X connect 21 1 25 1;
#X connect 21 2 23 0;
#X connect 21 2 25 2;
#X connect 22 0 18 1;
#X connect 23 0 22 0;
#X connect 23 1 22 1;
#X connect 24 0 14 0;
#X connect 25 0 22 0;
#X connect 25 1 23 0;
#X connect 25 2 17 0;
#X connect 25 3 20 0;
#X connect 28 0 14 0;
#X restore 70 87 pd sensor;
#X obj 70 117 s sensor1;
#X obj 144 117 s sensor2;
#X obj 103 228 r sensor1;
#X obj 179 228 r sensor2;
#X obj 63 365 throw~ mono;
#X obj 60 576 catch~ mono;
#X obj 57 713 dac~ 1;
#X msg 386 62 1;
#X msg 387 87 2;
#X msg 385 38 0;
#X obj 387 115 s mode;
#X obj 196 317 r mode;
#N canvas 17 204 838 457 LED_show 0;
#X obj 95 31 inlet strip1;
#X obj 250 29 inlet strip2;
#X obj 413 35 inlet action1;
#X obj 566 35 inlet action2;
#X obj 727 36 inlet reset;
#N canvas 80 23 1200 628 LEDV2 0;
#X obj 164 22 inlet;
#X obj 123 233 zl join;
#X obj 509 31 inlet;
#X obj 271 373 zl join;
#X obj 503 219 zl join;
#X obj 507 115 t b l;
#X obj 572 169 zl join;
#X msg 967 52 0 0 0 0 0 0 0 0 0 0 0 0 0 0 0 0;
#X obj 575 115 t b a;
#X obj 164 46 zl rev;
#X obj 508 60 zl rev;
#X obj 486 446 oscformat leds setRaw r;
#X obj 119 436 oscformat leds setRaw rgb;
#X obj 197 136 unpack 0 0;
#X obj 311 319 t b a;
#X obj 624 30 inlet;
#X obj 718 32 inlet;
#X obj 287 101 t b l;
#X msg 96 202 0 \$1;
#X msg 504 196 16 \$1;
#X msg 457 174 30;
#X msg 499 175 255;
#X obj 82 122 gate 2 1;
#X obj 624 56 + 1;
#X obj 467 146 gate 2 1;
#X obj 718 57 + 1;
#X msg 203 176 1;
#X msg 168 176 0;
#X obj 81 149 t b b;
#X obj 137 148 t b b;
#X msg 129 172 155, f 4;
#X obj 508 89 zl slice 1;
#X msg 574 141 17 30;
#X obj 314 287 unpack 0 0 0 0 0 0 0 0 0 0 0 0 0 0 0, f 88;
#X obj 311 347 pack 0 0 0 0 0 0 0 0 0 0 0 0 0 0 0 0 0 0 0 0 0 0 0 0 0 0 0 0 0 0 0 0 0 0 0 0 0 0 0 0 0 0 0 0 0, f 95;
#X obj 163 71 zl slice 1;
#X obj 170 205 pack 0 0 0;
#X msg 80 172 255;
#X obj 163 97 t b a;
#X msg 238 21 1 1 1 0 0 0 0 0 0 0 0 0 0 0 1 1;
#X msg 284 127 1 255;
#X obj 968 25 inlet mute;
#X obj 490 507 outlet;
#X connect 0 0 9 0;
#X connect 1 0 12 0;
#X connect 2 0 10 0;
#X connect 3 0 12 0;
#X connect 4 0 11 0;
#X connect 5 0 24 1;
#X connect 5 1 4 1;
#X connect 6 0 11 0;
#X connect 7 0 31 0;
#X connect 7 0 35 0;
#X connect 8 0 32 0;
#X connect 8 1 6 1;
#X connect 9 0 35 0;
#X connect 10 0 31 0;
#X connect 11 0 42 0;
#X connect 12 0 42 0;
#X connect 13 0 36 2;
#X connect 13 0 36 1;
#X connect 14 0 34 0;
#X connect 14 1 34 1;
#X connect 15 0 23 0;
#X connect 16 0 25 0;
#X connect 17 0 40 0;
#X connect 17 1 33 0;
#X connect 18 0 1 0;
#X connect 19 0 4 0;
#X connect 20 0 19 0;
#X connect 21 0 19 0;
#X connect 22 0 28 0;
#X connect 22 1 29 0;
#X connect 23 0 22 0;
#X connect 24 0 20 0;
#X connect 24 1 21 0;
#X connect 25 0 24 0;
#X connect 26 0 36 0;
#X connect 27 0 36 0;
#X connect 28 0 37 0;
#X connect 28 1 27 0;
#X connect 29 0 30 0;
#X connect 29 1 26 0;
#X connect 30 0 18 0;
#X connect 31 0 5 0;
#X connect 31 1 8 0;
#X connect 32 0 6 0;
#X connect 33 0 14 0;
#X connect 33 0 34 2;
#X connect 33 1 34 5;
#X connect 33 1 34 4;
#X connect 33 2 34 8;
#X connect 33 2 34 7;
#X connect 33 3 34 11;
#X connect 33 3 34 10;
#X connect 33 4 34 14;
#X connect 33 4 34 13;
#X connect 33 5 34 17;
#X connect 33 5 34 16;
#X connect 33 6 34 20;
#X connect 33 6 34 19;
#X connect 33 7 34 23;
#X connect 33 7 34 22;
#X connect 33 8 34 26;
#X connect 33 8 34 25;
#X connect 33 9 34 29;
#X connect 33 9 34 28;
#X connect 33 10 34 32;
#X connect 33 10 34 31;
#X connect 33 11 34 35;
#X connect 33 11 34 34;
#X connect 33 12 34 38;
#X connect 33 12 34 37;
#X connect 33 13 34 41;
#X connect 33 13 34 40;
#X connect 33 14 34 44;
#X connect 33 14 34 43;
#X connect 34 0 3 1;
#X connect 35 0 38 0;
#X connect 35 1 17 0;
#X connect 36 0 1 1;
#X connect 37 0 18 0;
#X connect 38 0 22 1;
#X connect 38 1 13 0;
#X connect 39 0 9 0;
#X connect 40 0 3 0;
#X connect 41 0 7 0;
#X restore 178 224 pd LEDV2;
#X f 10;
#N canvas 122 23 1158 531 LEDV1 0;
#X obj 164 22 inlet;
#X obj 123 233 zl join;
#X obj 509 31 inlet;
#X obj 271 373 zl join;
#X obj 503 219 zl join;
#X obj 507 115 t b l;
#X obj 572 169 zl join;
#X msg 820 53 0 0 0 0 0 0 0 0 0 0 0 0 0 0 0 0;
#X obj 575 115 t b a;
#X obj 504 245 oscformat leds setRaw r;
#X obj 119 436 oscformat leds setRaw rgb;
#X obj 197 136 unpack 0 0;
#X obj 311 319 t b a;
#X obj 600 30 inlet;
#X obj 694 32 inlet;
#X obj 287 101 t b l;
#X msg 96 202 0 \$1;
#X msg 504 196 16 \$1;
#X msg 457 174 30;
#X msg 499 175 255;
#X obj 82 122 gate 2 1;
#X obj 600 56 + 1;
#X obj 467 146 gate 2 1;
#X obj 694 57 + 1;
#X msg 203 176 1;
#X msg 168 176 0;
#X obj 81 149 t b b;
#X obj 137 148 t b b;
#X msg 129 172 155, f 4;
#X obj 314 287 unpack 0 0 0 0 0 0 0 0 0 0 0 0 0 0 0, f 88;
#X obj 311 347 pack 0 0 0 0 0 0 0 0 0 0 0 0 0 0 0 0 0 0 0 0 0 0 0 0 0 0 0 0 0 0 0 0 0 0 0 0 0 0 0 0 0 0 0 0 0, f 95;
#X obj 170 205 pack 0 0 0;
#X msg 80 172 255;
#X obj 163 97 t b a;
#X obj 650 19 tgl 19 0 empty empty empty 0 -10 0 12 #fcfcfc #000000 #000000 0 1;
#X msg 238 21 1 1 1 0 0 0 0 0 0 0 0 0 0 0 1 1;
#X msg 284 127 1 255;
#X obj 163 61 zl slice 15;
#X obj 508 89 zl slice 15;
#X msg 574 141 17 30;
#X obj 816 27 inlet mute;
#X obj 375 588 outlet;
#X connect 0 0 37 0;
#X connect 1 0 10 0;
#X connect 2 0 38 0;
#X connect 3 0 10 0;
#X connect 4 0 9 0;
#X connect 5 0 22 1;
#X connect 5 1 4 1;
#X connect 6 0 9 0;
#X connect 7 0 37 0;
#X connect 7 0 38 0;
#X connect 8 0 39 0;
#X connect 8 1 6 1;
#X connect 9 0 41 0;
#X connect 10 0 41 0;
#X connect 11 0 31 2;
#X connect 11 0 31 1;
#X connect 12 0 30 0;
#X connect 12 1 30 1;
#X connect 13 0 21 0;
#X connect 14 0 23 0;
#X connect 15 0 36 0;
#X connect 15 1 29 0;
#X connect 16 0 1 0;
#X connect 17 0 4 0;
#X connect 18 0 17 0;
#X connect 19 0 17 0;
#X connect 20 0 26 0;
#X connect 20 1 27 0;
#X connect 21 0 20 0;
#X connect 22 0 18 0;
#X connect 22 1 19 0;
#X connect 23 0 22 0;
#X connect 24 0 31 0;
#X connect 25 0 31 0;
#X connect 26 0 32 0;
#X connect 26 1 25 0;
#X connect 27 0 28 0;
#X connect 27 1 24 0;
#X connect 28 0 16 0;
#X connect 29 0 12 0;
#X connect 29 0 30 2;
#X connect 29 1 30 5;
#X connect 29 1 30 4;
#X connect 29 2 30 8;
#X connect 29 2 30 7;
#X connect 29 3 30 11;
#X connect 29 3 30 10;
#X connect 29 4 30 14;
#X connect 29 4 30 13;
#X connect 29 5 30 17;
#X connect 29 5 30 16;
#X connect 29 6 30 20;
#X connect 29 6 30 19;
#X connect 29 7 30 23;
#X connect 29 7 30 22;
#X connect 29 8 30 26;
#X connect 29 8 30 25;
#X connect 29 9 30 29;
#X connect 29 9 30 28;
#X connect 29 10 30 32;
#X connect 29 10 30 31;
#X connect 29 11 30 35;
#X connect 29 11 30 34;
#X connect 29 12 30 38;
#X connect 29 12 30 37;
#X connect 29 13 30 41;
#X connect 29 13 30 40;
#X connect 29 14 30 44;
#X connect 29 14 30 43;
#X connect 30 0 3 1;
#X connect 31 0 1 1;
#X connect 32 0 16 0;
#X connect 33 0 20 1;
#X connect 33 1 11 0;
#X connect 34 0 21 0;
#X connect 36 0 3 0;
#X connect 37 0 15 0;
#X connect 37 1 33 0;
#X connect 38 0 5 0;
#X connect 38 1 8 0;
#X connect 39 0 6 0;
#X connect 40 0 7 0;
#X restore 569 227 pd LEDV1;
#X f 10;
#X obj 41 60 gate 2 1;
#X obj 198 63 gate 2 1;
#X obj 361 67 gate 2 1;
#X obj 513 69 gate 2 1;
#X obj 674 70 gate 2 1;
#X obj 447 382 netsend -u -b;
#X msg 104 341 connect bela.local 7562;
#X obj 104 290 loadbang;
#X msg 104 317 connect 127.0.0.1 7562;
#X msg 104 395 disconnect;
#X msg 105 368 connect 192.168.0.54 7562;
#X connect 0 0 7 1;
#X connect 1 0 8 1;
#X connect 2 0 9 1;
#X connect 3 0 10 1;
#X connect 4 0 11 1;
#X connect 5 0 12 0;
#X connect 6 0 12 0;
#X connect 7 0 5 0;
#X connect 7 1 6 0;
#X connect 8 0 5 1;
#X connect 8 1 6 1;
#X connect 9 0 5 2;
#X connect 9 1 6 2;
#X connect 10 0 5 3;
#X connect 10 1 6 3;
#X connect 11 0 5 4;
#X connect 11 1 6 4;
#X connect 13 0 12 0;
#X connect 14 0 15 0;
#X connect 15 0 12 0;
#X connect 16 0 12 0;
#X connect 17 0 12 0;
#X restore 350 641 pd LED_show;
#X obj 349 583 r LEDstrip1;
#X obj 360 606 r LEDstrip2;
#X obj 450 584 r LEDaction1;
#X obj 457 607 r LEDaction2;
#X obj 554 584 r LEDreset;
#X obj 455 40 loadbang;
#X obj 77 61 tgl 19 0 empty empty empty 0 -10 0 12 #fcfcfc #000000 #000000 0 1;
#X text 347 535 LED output;
#X text 55 545 sound output;
#X obj 560 82 init, f 7;
#X obj 559 56 zmqSender;
#X obj 558 30 zmqReceiver;
#X text 94 60 send sensor reading to communciation;
#X obj 71 38 r debug;
#X obj 63 336 mode1_string;
#X obj 559 160 simple_loop;
#X obj 650 131 bng 19 250 50 0 empty empty empty 0 -10 0 12 #00ff04 #000000 #000000;
#X obj 529 131 bng 19 250 50 0 empty empty empty 0 -10 0 12 #ff0400 #000000 #000000;
#X obj 559 131 bng 19 250 50 0 empty empty empty 0 -10 0 12 #00faff #000000 #000000;
#X obj 593 131 bng 19 250 50 0 empty empty empty 0 -10 0 12 #9c00ff #000000 #000000;
#X obj 621 131 bng 19 250 50 0 empty empty empty 0 -10 0 12 #faff00 #000000 #000000;
#X connect 0 0 46 0;
#X connect 1 0 46 1;
#X connect 2 0 46 2;
#X connect 6 0 25 0;
#X connect 7 0 6 1;
#X connect 8 0 7 0;
#X connect 9 0 8 0;
#X connect 10 0 7 0;
#X connect 11 0 46 0;
#X connect 12 0 46 3;
#X connect 13 0 10 0;
#X connect 16 0 6 0;
#X connect 17 0 16 0;
#X connect 18 0 19 0;
#X connect 18 1 20 0;
#X connect 21 0 46 1;
#X connect 22 0 46 2;
#X connect 24 0 17 0;
#X connect 26 0 29 0;
#X connect 27 0 29 0;
#X connect 28 0 29 0;
#X connect 30 0 46 4;
#X connect 32 0 31 0;
#X connect 33 0 31 1;
#X connect 34 0 31 2;
#X connect 35 0 31 3;
#X connect 36 0 31 4;
#X connect 37 0 26 0;
#X connect 38 0 18 0;
#X connect 45 0 18 0;
#X connect 46 0 23 0;
#X connect 48 0 47 4;
#X connect 49 0 47 0;
#X connect 50 0 47 1;
#X connect 51 0 47 2;
#X connect 52 0 47 3;
