#N canvas 159 23 930 734 12;
#X declare -lib rcp;
#X obj 624 29 declare -lib rcp;
#X obj 624 105 init;
#X obj 625 55 zmqReceiver;
#X obj 623 80 zmqSender;
#N canvas 173 212 834 446 sensor 1;
#X obj 111 155 snapshot~;
#X obj 302 66 loadbang;
#X obj 302 113 tgl 16 0 empty empty empty 0 -8 0 10 #fcfcfc #000000 #000000 0 1;
#X obj 207 156 snapshot~;
#X obj 119 319 change;
#X obj 229 319 change;
#N canvas 62 323 709 452 calib 0;
#X obj 170 189 > 0;
#X obj 179 139 t a a a;
#X obj 203 191 spigot;
#X obj 89 141 t a a a;
#X obj 113 192 spigot;
#X obj 80 191 < 1;
#X obj 204 225 f;
#X obj 115 223 f;
#X text 113 246 min;
#X text 203 250 max;
#X floatatom 237 229 5 0 0 0 - - - 0;
#X floatatom 146 223 5 0 0 0 - - - 0;
#X msg 144 169 1;
#X msg 248 169 0;
#X obj 111 42 inlet;
#X obj 110 98 t a a;
#X obj 204 321 outlet;
#X obj 335 53 inlet;
#X obj 110 70 spigot;
#X obj 284 65 t a a;
#X obj 317 89 sel 1 0;
#X obj 117 323 outlet;
#X obj 351 276 -;
#X obj 348 244 t b a;
#X obj 351 363 outlet;
#X obj 351 304 / 3;
#X obj 352 329 clip 0.08 0.5;
#X connect 0 0 2 1;
#X connect 1 1 2 0;
#X connect 1 2 0 0;
#X connect 2 0 0 1;
#X connect 2 0 6 1;
#X connect 2 0 10 0;
#X connect 3 1 4 0;
#X connect 3 2 5 0;
#X connect 4 0 5 1;
#X connect 4 0 7 1;
#X connect 4 0 11 0;
#X connect 5 0 4 1;
#X connect 6 0 16 0;
#X connect 6 0 22 0;
#X connect 7 0 21 0;
#X connect 7 0 23 0;
#X connect 12 0 5 1;
#X connect 13 0 0 1;
#X connect 14 0 18 0;
#X connect 15 0 3 0;
#X connect 15 1 1 0;
#X connect 17 0 19 0;
#X connect 18 0 15 0;
#X connect 19 0 18 1;
#X connect 19 1 20 0;
#X connect 20 0 13 0;
#X connect 20 0 12 0;
#X connect 20 1 6 0;
#X connect 20 1 7 0;
#X connect 22 0 25 0;
#X connect 23 0 22 0;
#X connect 23 1 22 1;
#X connect 25 0 26 0;
#X connect 26 0 24 0;
#X restore 226 185 pd calib;
#X obj 322 180 r calib;
#X msg 409 212 val1 \$1;
#X msg 471 213 val2 \$1;
#X obj 410 149 metro 200;
#X obj 409 175 f;
#X obj 472 175 f;
#X obj 273 258 - 0.1;
#X obj 119 297 < 0.7;
#X obj 229 296 < 0.7;
#X obj 272 220 t b a;
#N canvas 163 23 1040 617 calib 0;
#X obj 170 189 > 0;
#X obj 179 139 t a a a;
#X obj 203 191 spigot;
#X obj 89 141 t a a a;
#X obj 113 192 spigot;
#X obj 73 191 < 1;
#X obj 204 225 f;
#X obj 115 223 f;
#X text 113 246 min;
#X text 203 250 max;
#X floatatom 237 226 5 0 0 0 - - - 0;
#X floatatom 147 223 5 0 0 0 - - - 0;
#X msg 350 165 1;
#X msg 314 168 0;
#X obj 111 28 inlet;
#X obj 110 98 t a a;
#X obj 204 321 outlet;
#X obj 335 53 inlet;
#X obj 110 70 spigot;
#X obj 284 65 t a a;
#X obj 317 89 sel 1 0;
#X obj 117 323 outlet;
#X obj 420 276 -;
#X obj 417 244 t b a;
#X obj 420 382 outlet;
#X obj 420 304 / 3;
#X obj 420 343 clip 0.08 0.5;
#X connect 0 0 2 1;
#X connect 1 1 2 0;
#X connect 1 2 0 0;
#X connect 2 0 0 1;
#X connect 2 0 6 1;
#X connect 2 0 10 0;
#X connect 3 1 4 0;
#X connect 3 2 5 0;
#X connect 4 0 5 1;
#X connect 4 0 7 1;
#X connect 4 0 11 0;
#X connect 5 0 4 1;
#X connect 6 0 16 0;
#X connect 6 0 22 0;
#X connect 7 0 21 0;
#X connect 7 0 23 0;
#X connect 12 0 5 1;
#X connect 13 0 0 1;
#X connect 14 0 18 0;
#X connect 15 0 3 0;
#X connect 15 1 1 0;
#X connect 17 0 19 0;
#X connect 18 0 15 0;
#X connect 19 0 18 1;
#X connect 19 1 20 0;
#X connect 20 0 13 0;
#X connect 20 0 12 0;
#X connect 20 1 6 0;
#X connect 20 1 7 0;
#X connect 22 0 25 0;
#X connect 23 0 22 0;
#X connect 23 1 22 1;
#X connect 25 0 26 0;
#X connect 26 0 24 0;
#X restore 122 185 pd calib;
#X obj 151 265 - 0.1;
#X obj 171 225 t b a;
#N canvas 113 152 1076 540 RecCalib 0;
#X obj 71 285 textfile;
#X obj 70 201 list trim;
#X obj 94 176 list prepend set;
#X obj 75 432 textfile;
#X msg 76 410 bang;
#X msg 116 410 rewind;
#X obj 113 368 t b b b;
#X obj 70 149 list;
#X obj 71 77 change;
#X obj 81 124 delay 500;
#X obj 70 34 inlet;
#X obj 170 34 inlet;
#X obj 213 34 inlet;
#X obj 66 493 outlet;
#X obj 136 493 outlet;
#X obj 114 344 loadbang;
#X obj 71 101 sel 0;
#X msg 196 414 read sensorCalib.txt cr;
#X msg 148 229 write sensorCalib.txt cr, f 34;
#X msg 148 202 write /root/Bela/projects/symphony/sensorCalib.txt cr, f 55;
#X msg 195 391 read /root/Bela/projects/symphony/sensorCalib.txt cr;
#X obj 163 129 pack 0 0;
#X obj 67 453 unpack 0 0;
#X connect 1 0 0 0;
#X connect 2 0 1 0;
#X connect 3 0 22 0;
#X connect 4 0 3 0;
#X connect 5 0 3 0;
#X connect 6 0 4 0;
#X connect 6 1 5 0;
#X connect 6 2 20 0;
#X connect 7 0 2 0;
#X connect 8 0 16 0;
#X connect 9 0 19 0;
#X connect 10 0 8 0;
#X connect 11 0 21 0;
#X connect 12 0 21 1;
#X connect 15 0 6 0;
#X connect 16 0 9 0;
#X connect 16 0 7 0;
#X connect 17 0 3 0;
#X connect 18 0 0 0;
#X connect 19 0 0 0;
#X connect 20 0 3 0;
#X connect 21 0 7 1;
#X connect 22 0 13 0;
#X connect 22 1 14 0;
#X restore 323 286 pd RecCalib;
#X obj 116 389 outlet sensor1;
#X obj 230 385 outlet sensor2;
#X obj 413 67 inlet;
#X obj 410 244 s message;
#X text 79 61 analog input number will change!;
#X obj 301 137 metro 40;
#X obj 450 112 loadbang;
#X obj 112 83 adc~ 9 10;
#X obj 32 332 print thre;
#X obj 182 310 pack;
#X obj 112 128 average~ 6000;
#X obj 207 128 average~ 6000;
#X connect 0 0 17 0;
#X connect 0 0 11 1;
#X connect 0 0 14 0;
#X connect 1 0 2 0;
#X connect 2 0 26 0;
#X connect 3 0 6 0;
#X connect 3 0 12 1;
#X connect 3 0 15 0;
#X connect 4 0 21 0;
#X connect 5 0 22 0;
#X connect 6 1 13 0;
#X connect 6 2 16 0;
#X connect 7 0 6 1;
#X connect 7 0 17 1;
#X connect 7 0 20 0;
#X connect 8 0 24 0;
#X connect 9 0 24 0;
#X connect 10 0 11 0;
#X connect 10 0 12 0;
#X connect 11 0 8 0;
#X connect 12 0 9 0;
#X connect 13 0 15 1;
#X connect 13 0 30 1;
#X connect 13 0 20 2;
#X connect 14 0 4 0;
#X connect 15 0 5 0;
#X connect 16 0 13 0;
#X connect 16 1 13 1;
#X connect 17 1 18 0;
#X connect 17 2 19 0;
#X connect 18 0 14 1;
#X connect 18 0 30 0;
#X connect 18 0 20 1;
#X connect 19 0 18 0;
#X connect 19 1 18 1;
#X connect 20 0 14 1;
#X connect 20 1 15 1;
#X connect 23 0 10 0;
#X connect 26 0 0 0;
#X connect 26 0 3 0;
#X connect 27 0 10 0;
#X connect 28 0 31 0;
#X connect 28 1 32 0;
#X connect 30 0 29 0;
#X connect 31 0 0 0;
#X connect 32 0 3 0;
#X restore 70 87 pd sensor;
#X obj 70 117 s sensor1;
#X obj 144 117 s sensor2;
#X obj 340 120 s mode;
#X obj 455 40 loadbang;
#X obj 77 61 tgl 19 0 empty empty empty 0 -10 0 12 #fcfcfc #000000 #000000 0 1;
#X text 94 60 send sensor reading to communciation;
#X obj 71 38 r debug;
#X obj 452 71 delay 1000;
#X obj 151 39 r takeover;
#X obj 57 685 *~;
#X obj 145 664 line~;
#X obj 145 610 loadbang;
#X msg 208 641 \$1 100;
#X obj 210 611 r volume;
#N canvas 47 74 450 300 limiter 0;
#X obj 62 191 *~;
#X obj 92 69 env~;
#X obj 92 91 dbtorms;
#X obj 92 135 -;
#X obj 92 157 lop~ 20;
#X msg 92 113 1 \$1;
#X obj 62 4 inlet~;
#X obj 62 266 outlet~;
#X connect 0 0 7 0;
#X connect 1 0 2 0;
#X connect 2 0 5 0;
#X connect 3 0 4 0;
#X connect 4 0 0 1;
#X connect 5 0 3 0;
#X connect 6 0 1 0;
#X connect 6 0 0 0;
#X restore 59 630 pd limiter;
#X obj 60 604 clip~ -1 1;
#X obj 60 576 catch~ mono;
#X text 55 545 sound output;
#X obj 42 236 r play;
#X obj 183 411 r inst;
#X obj 95 236 r sensor1;
#X obj 171 236 r sensor2;
#X obj 230 411 r mode;
#X obj 57 713 dac~;
#X obj 167 264 r st1;
#X obj 247 258 r st2;
#X obj 497 420 r mode;
#X obj 450 420 r inst;
#X obj 45 341 gate 3 1;
#X obj 44 316 r mode;
#X msg 385 38 1;
#X msg 386 62 2;
#X msg 387 87 3;
#X obj 59 431 mode1_string_test;
#X obj 364 439 mode2_string;
#X obj 121 340 gate 3 1;
#X obj 121 316 r mode;
#X obj 196 339 gate 3 1;
#X obj 196 315 r mode;
#N canvas 17 204 838 457 LED_show 0;
#X obj 95 31 inlet strip1;
#X obj 250 29 inlet strip2;
#X obj 413 35 inlet action1;
#X obj 566 35 inlet action2;
#X obj 727 36 inlet reset;
#N canvas 80 23 1200 628 LEDV2 0;
#X obj 164 22 inlet;
#X obj 123 233 zl join;
#X obj 509 31 inlet;
#X obj 271 373 zl join;
#X obj 503 219 zl join;
#X obj 507 115 t b l;
#X obj 572 169 zl join;
#X msg 967 52 0 0 0 0 0 0 0 0 0 0 0 0 0 0 0 0;
#X obj 575 115 t b a;
#X obj 164 46 zl rev;
#X obj 508 60 zl rev;
#X obj 486 446 oscformat leds setRaw r;
#X obj 119 436 oscformat leds setRaw rgb;
#X obj 197 136 unpack 0 0;
#X obj 311 319 t b a;
#X obj 624 30 inlet;
#X obj 718 32 inlet;
#X obj 287 101 t b l;
#X msg 96 202 0 \$1;
#X msg 504 196 16 \$1;
#X msg 457 174 30;
#X msg 499 175 255;
#X obj 82 122 gate 2 1;
#X obj 624 56 + 1;
#X obj 467 146 gate 2 1;
#X obj 718 57 + 1;
#X msg 203 176 1;
#X msg 168 176 0;
#X obj 81 149 t b b;
#X obj 137 148 t b b;
#X msg 129 172 155, f 4;
#X obj 508 89 zl slice 1;
#X msg 574 141 17 30;
#X obj 314 287 unpack 0 0 0 0 0 0 0 0 0 0 0 0 0 0 0, f 88;
#X obj 311 347 pack 0 0 0 0 0 0 0 0 0 0 0 0 0 0 0 0 0 0 0 0 0 0 0 0 0 0 0 0 0 0 0 0 0 0 0 0 0 0 0 0 0 0 0 0 0, f 95;
#X obj 163 71 zl slice 1;
#X obj 170 205 pack 0 0 0;
#X msg 80 172 255;
#X obj 163 97 t b a;
#X msg 238 21 1 1 1 0 0 0 0 0 0 0 0 0 0 0 1 1;
#X msg 284 127 1 255;
#X obj 968 25 inlet mute;
#X obj 490 507 outlet;
#X connect 0 0 9 0;
#X connect 1 0 12 0;
#X connect 2 0 10 0;
#X connect 3 0 12 0;
#X connect 4 0 11 0;
#X connect 5 0 24 1;
#X connect 5 1 4 1;
#X connect 6 0 11 0;
#X connect 7 0 31 0;
#X connect 7 0 35 0;
#X connect 8 0 32 0;
#X connect 8 1 6 1;
#X connect 9 0 35 0;
#X connect 10 0 31 0;
#X connect 11 0 42 0;
#X connect 12 0 42 0;
#X connect 13 0 36 2;
#X connect 13 0 36 1;
#X connect 14 0 34 0;
#X connect 14 1 34 1;
#X connect 15 0 23 0;
#X connect 16 0 25 0;
#X connect 17 0 40 0;
#X connect 17 1 33 0;
#X connect 18 0 1 0;
#X connect 19 0 4 0;
#X connect 20 0 19 0;
#X connect 21 0 19 0;
#X connect 22 0 28 0;
#X connect 22 1 29 0;
#X connect 23 0 22 0;
#X connect 24 0 20 0;
#X connect 24 1 21 0;
#X connect 25 0 24 0;
#X connect 26 0 36 0;
#X connect 27 0 36 0;
#X connect 28 0 37 0;
#X connect 28 1 27 0;
#X connect 29 0 30 0;
#X connect 29 1 26 0;
#X connect 30 0 18 0;
#X connect 31 0 5 0;
#X connect 31 1 8 0;
#X connect 32 0 6 0;
#X connect 33 0 14 0;
#X connect 33 0 34 2;
#X connect 33 1 34 5;
#X connect 33 1 34 4;
#X connect 33 2 34 8;
#X connect 33 2 34 7;
#X connect 33 3 34 11;
#X connect 33 3 34 10;
#X connect 33 4 34 14;
#X connect 33 4 34 13;
#X connect 33 5 34 17;
#X connect 33 5 34 16;
#X connect 33 6 34 20;
#X connect 33 6 34 19;
#X connect 33 7 34 23;
#X connect 33 7 34 22;
#X connect 33 8 34 26;
#X connect 33 8 34 25;
#X connect 33 9 34 29;
#X connect 33 9 34 28;
#X connect 33 10 34 32;
#X connect 33 10 34 31;
#X connect 33 11 34 35;
#X connect 33 11 34 34;
#X connect 33 12 34 38;
#X connect 33 12 34 37;
#X connect 33 13 34 41;
#X connect 33 13 34 40;
#X connect 33 14 34 44;
#X connect 33 14 34 43;
#X connect 34 0 3 1;
#X connect 35 0 38 0;
#X connect 35 1 17 0;
#X connect 36 0 1 1;
#X connect 37 0 18 0;
#X connect 38 0 22 1;
#X connect 38 1 13 0;
#X connect 39 0 9 0;
#X connect 40 0 3 0;
#X connect 41 0 7 0;
#X restore 178 224 pd LEDV2;
#X f 10;
#N canvas 122 23 1158 531 LEDV1 0;
#X obj 164 22 inlet;
#X obj 123 233 zl join;
#X obj 509 31 inlet;
#X obj 271 373 zl join;
#X obj 503 219 zl join;
#X obj 507 115 t b l;
#X obj 572 169 zl join;
#X msg 820 53 0 0 0 0 0 0 0 0 0 0 0 0 0 0 0 0;
#X obj 575 115 t b a;
#X obj 504 245 oscformat leds setRaw r;
#X obj 119 436 oscformat leds setRaw rgb;
#X obj 197 136 unpack 0 0;
#X obj 311 319 t b a;
#X obj 600 30 inlet;
#X obj 694 32 inlet;
#X obj 287 101 t b l;
#X msg 96 202 0 \$1;
#X msg 504 196 16 \$1;
#X msg 457 174 30;
#X msg 499 175 255;
#X obj 82 122 gate 2 1;
#X obj 600 56 + 1;
#X obj 467 146 gate 2 1;
#X obj 694 57 + 1;
#X msg 203 176 1;
#X msg 168 176 0;
#X obj 81 149 t b b;
#X obj 137 148 t b b;
#X msg 129 172 155, f 4;
#X obj 314 287 unpack 0 0 0 0 0 0 0 0 0 0 0 0 0 0 0, f 88;
#X obj 311 347 pack 0 0 0 0 0 0 0 0 0 0 0 0 0 0 0 0 0 0 0 0 0 0 0 0 0 0 0 0 0 0 0 0 0 0 0 0 0 0 0 0 0 0 0 0 0, f 95;
#X obj 170 205 pack 0 0 0;
#X msg 80 172 255;
#X obj 163 97 t b a;
#X obj 650 19 tgl 19 0 empty empty empty 0 -10 0 12 #fcfcfc #000000 #000000 0 1;
#X msg 238 21 1 1 1 0 0 0 0 0 0 0 0 0 0 0 1 1;
#X msg 284 127 1 255;
#X obj 163 61 zl slice 15;
#X obj 508 89 zl slice 15;
#X msg 574 141 17 30;
#X obj 816 27 inlet mute;
#X obj 375 588 outlet;
#X connect 0 0 37 0;
#X connect 1 0 10 0;
#X connect 2 0 38 0;
#X connect 3 0 10 0;
#X connect 4 0 9 0;
#X connect 5 0 22 1;
#X connect 5 1 4 1;
#X connect 6 0 9 0;
#X connect 7 0 37 0;
#X connect 7 0 38 0;
#X connect 8 0 39 0;
#X connect 8 1 6 1;
#X connect 9 0 41 0;
#X connect 10 0 41 0;
#X connect 11 0 31 2;
#X connect 11 0 31 1;
#X connect 12 0 30 0;
#X connect 12 1 30 1;
#X connect 13 0 21 0;
#X connect 14 0 23 0;
#X connect 15 0 36 0;
#X connect 15 1 29 0;
#X connect 16 0 1 0;
#X connect 17 0 4 0;
#X connect 18 0 17 0;
#X connect 19 0 17 0;
#X connect 20 0 26 0;
#X connect 20 1 27 0;
#X connect 21 0 20 0;
#X connect 22 0 18 0;
#X connect 22 1 19 0;
#X connect 23 0 22 0;
#X connect 24 0 31 0;
#X connect 25 0 31 0;
#X connect 26 0 32 0;
#X connect 26 1 25 0;
#X connect 27 0 28 0;
#X connect 27 1 24 0;
#X connect 28 0 16 0;
#X connect 29 0 12 0;
#X connect 29 0 30 2;
#X connect 29 1 30 5;
#X connect 29 1 30 4;
#X connect 29 2 30 8;
#X connect 29 2 30 7;
#X connect 29 3 30 11;
#X connect 29 3 30 10;
#X connect 29 4 30 14;
#X connect 29 4 30 13;
#X connect 29 5 30 17;
#X connect 29 5 30 16;
#X connect 29 6 30 20;
#X connect 29 6 30 19;
#X connect 29 7 30 23;
#X connect 29 7 30 22;
#X connect 29 8 30 26;
#X connect 29 8 30 25;
#X connect 29 9 30 29;
#X connect 29 9 30 28;
#X connect 29 10 30 32;
#X connect 29 10 30 31;
#X connect 29 11 30 35;
#X connect 29 11 30 34;
#X connect 29 12 30 38;
#X connect 29 12 30 37;
#X connect 29 13 30 41;
#X connect 29 13 30 40;
#X connect 29 14 30 44;
#X connect 29 14 30 43;
#X connect 30 0 3 1;
#X connect 31 0 1 1;
#X connect 32 0 16 0;
#X connect 33 0 20 1;
#X connect 33 1 11 0;
#X connect 34 0 21 0;
#X connect 36 0 3 0;
#X connect 37 0 15 0;
#X connect 37 1 33 0;
#X connect 38 0 5 0;
#X connect 38 1 8 0;
#X connect 39 0 6 0;
#X connect 40 0 7 0;
#X restore 569 227 pd LEDV1;
#X f 10;
#X obj 447 382 netsend -u -b;
#X msg 104 341 connect bela.local 7562;
#X obj 104 290 loadbang;
#X msg 104 317 connect 127.0.0.1 7562;
#X msg 104 395 disconnect;
#X msg 105 368 connect 192.168.0.54 7562;
#N canvas 80 23 1200 628 LEDV3 0;
#X obj 164 22 inlet;
#X obj 110 269 zl join;
#X obj 509 31 inlet;
#X obj 271 373 zl join;
#X obj 503 219 zl join;
#X obj 507 115 t b l;
#X obj 576 198 zl join;
#X obj 578 148 t b a;
#X obj 164 46 zl rev;
#X obj 508 60 zl rev;
#X obj 486 446 oscformat leds setRaw r;
#X obj 119 436 oscformat leds setRaw rgb;
#X obj 184 172 unpack 0 0;
#X obj 624 30 inlet;
#X obj 718 32 inlet;
#X obj 287 116 t b l;
#X msg 83 238 0 \$1;
#X msg 457 174 30;
#X msg 499 175 255;
#X obj 69 158 gate 2 1;
#X obj 624 56 + 1;
#X obj 467 146 gate 2 1;
#X obj 718 57 + 1;
#X msg 190 212 1;
#X msg 155 212 0;
#X obj 68 185 t b b;
#X obj 124 184 t b b;
#X msg 116 208 155, f 4;
#X obj 508 89 zl slice 1;
#X obj 163 71 zl slice 1;
#X obj 157 241 pack 0 0 0;
#X msg 67 208 255;
#X obj 163 97 t b a;
#X obj 968 25 inlet mute;
#X obj 490 507 outlet;
#X obj 314 287 unpack 0 0 0 0 0 0 0 0 0 0 0, f 88;
#X obj 311 347 pack 0 0 0 0 0 0 0 0 0 0 0 0 0 0 0 0 0 0 0 0 0 0 0 0 0 0 0 0 0 0 0 0 0, f 118;
#X obj 576 119 zl slice 11;
#X msg 238 21 0 0 0 0 1 1 1 0 0 0 0 0 0 0 1 1;
#X msg 577 174 13 30;
#X msg 504 196 12 \$1;
#X msg 970 54 0 0 0 0 0 0 0 0 0 0 0 0;
#X obj 271 82 zl slice 11;
#X msg 284 142 1 255;
#X obj 311 319 t b a a;
#X connect 0 0 8 0;
#X connect 1 0 11 0;
#X connect 2 0 9 0;
#X connect 3 0 11 0;
#X connect 4 0 10 0;
#X connect 5 0 21 1;
#X connect 5 1 4 1;
#X connect 6 0 10 0;
#X connect 7 0 39 0;
#X connect 7 1 6 1;
#X connect 8 0 29 0;
#X connect 9 0 28 0;
#X connect 10 0 34 0;
#X connect 11 0 34 0;
#X connect 12 0 30 2;
#X connect 12 0 30 1;
#X connect 13 0 20 0;
#X connect 14 0 22 0;
#X connect 15 0 43 0;
#X connect 15 1 35 0;
#X connect 16 0 1 0;
#X connect 17 0 40 0;
#X connect 18 0 40 0;
#X connect 19 0 25 0;
#X connect 19 1 26 0;
#X connect 20 0 19 0;
#X connect 21 0 17 0;
#X connect 21 1 18 0;
#X connect 22 0 21 0;
#X connect 23 0 30 0;
#X connect 24 0 30 0;
#X connect 25 0 31 0;
#X connect 25 1 24 0;
#X connect 26 0 27 0;
#X connect 26 1 23 0;
#X connect 27 0 16 0;
#X connect 28 0 5 0;
#X connect 28 1 37 0;
#X connect 29 0 32 0;
#X connect 29 1 42 0;
#X connect 30 0 1 1;
#X connect 31 0 16 0;
#X connect 32 0 19 1;
#X connect 32 1 12 0;
#X connect 33 0 41 0;
#X connect 35 0 44 0;
#X connect 35 1 36 5;
#X connect 35 1 36 4;
#X connect 35 2 36 8;
#X connect 35 2 36 7;
#X connect 35 3 36 11;
#X connect 35 3 36 10;
#X connect 35 4 36 14;
#X connect 35 4 36 13;
#X connect 35 5 36 17;
#X connect 35 5 36 16;
#X connect 35 6 36 20;
#X connect 35 6 36 19;
#X connect 35 7 36 23;
#X connect 35 7 36 22;
#X connect 35 8 36 26;
#X connect 35 8 36 25;
#X connect 35 9 36 29;
#X connect 35 9 36 28;
#X connect 35 10 36 32;
#X connect 35 10 36 31;
#X connect 36 0 3 1;
#X connect 37 0 7 0;
#X connect 38 0 8 0;
#X connect 39 0 6 0;
#X connect 40 0 4 0;
#X connect 41 0 28 0;
#X connect 41 0 29 0;
#X connect 42 0 15 0;
#X connect 43 0 3 0;
#X connect 44 0 36 0;
#X connect 44 1 36 1;
#X connect 44 2 36 2;
#X restore 707 233 pd LEDV3;
#X f 10;
#X obj 41 60 gate 3 1;
#X obj 198 63 gate 3 1;
#X obj 361 67 gate 3 1;
#X obj 513 69 gate 3 1;
#X obj 674 70 gate 3 1;
#X obj 24 15 r LEDtype;
#X connect 0 0 14 1;
#X connect 1 0 15 1;
#X connect 2 0 16 1;
#X connect 3 0 17 1;
#X connect 4 0 18 1;
#X connect 5 0 7 0;
#X connect 6 0 7 0;
#X connect 8 0 7 0;
#X connect 9 0 10 0;
#X connect 10 0 7 0;
#X connect 11 0 7 0;
#X connect 12 0 7 0;
#X connect 13 0 7 0;
#X connect 14 0 5 0;
#X connect 14 1 6 0;
#X connect 14 2 13 0;
#X connect 15 0 5 1;
#X connect 15 1 6 1;
#X connect 15 2 13 1;
#X connect 16 0 5 2;
#X connect 16 1 6 2;
#X connect 16 2 13 2;
#X connect 17 0 5 3;
#X connect 17 1 6 3;
#X connect 17 2 13 3;
#X connect 18 0 5 4;
#X connect 18 1 6 4;
#X connect 18 2 13 4;
#X connect 19 0 14 0;
#X connect 19 0 15 0;
#X connect 19 0 16 0;
#X connect 19 0 17 0;
#X connect 19 0 18 0;
#X restore 350 641 pd LED_show;
#X obj 349 583 r LEDstrip1;
#X obj 360 606 r LEDstrip2;
#X obj 450 584 r LEDaction1;
#X obj 457 607 r LEDaction2;
#X obj 554 584 r LEDreset;
#X text 347 535 LED output;
#X obj 554 609 r mode;
#X obj 553 633 t b;
#X obj 730 669 s LEDtype;
#X msg 724 642 3;
#X obj 599 460 mode3_sequencer;
#X obj 688 392 r mode;
#X obj 733 412 r resetD;
#X obj 806 555 r my_id;
#X msg 146 640 1.5 100;
#X obj 729 540 loadbang;
#X obj 809 582 route p1;
#X obj 814 658 s inst;
#X msg 812 631 3;
#X obj 809 607 t b;
#X connect 4 0 5 0;
#X connect 4 1 6 0;
#X connect 8 0 12 0;
#X connect 9 0 4 0;
#X connect 11 0 4 0;
#X connect 12 0 35 0;
#X connect 14 0 28 0;
#X connect 14 0 28 1;
#X connect 15 0 14 1;
#X connect 16 0 59 0;
#X connect 17 0 15 0;
#X connect 18 0 17 0;
#X connect 19 0 14 0;
#X connect 20 0 19 0;
#X connect 21 0 20 0;
#X connect 23 0 33 1;
#X connect 24 0 38 3;
#X connect 25 0 40 1;
#X connect 26 0 42 1;
#X connect 27 0 38 4;
#X connect 29 0 40 1;
#X connect 30 0 42 1;
#X connect 31 0 39 4;
#X connect 32 0 39 3;
#X connect 33 0 38 0;
#X connect 33 1 39 0;
#X connect 33 2 55 0;
#X connect 34 0 33 0;
#X connect 35 0 7 0;
#X connect 36 0 7 0;
#X connect 37 0 7 0;
#X connect 40 0 38 1;
#X connect 40 1 39 1;
#X connect 40 2 55 1;
#X connect 41 0 40 0;
#X connect 42 0 38 2;
#X connect 42 1 39 2;
#X connect 42 2 55 2;
#X connect 43 0 42 0;
#X connect 45 0 44 0;
#X connect 46 0 44 1;
#X connect 47 0 44 2;
#X connect 48 0 44 3;
#X connect 49 0 44 4;
#X connect 51 0 52 0;
#X connect 52 0 44 4;
#X connect 54 0 53 0;
#X connect 56 0 55 4;
#X connect 57 0 55 5;
#X connect 58 0 61 0;
#X connect 59 0 15 0;
#X connect 60 0 54 0;
#X connect 61 0 64 0;
#X connect 63 0 62 0;
#X connect 64 0 63 0;
