#N canvas 2 23 1265 755 12;
#X declare -lib rcp;
#N canvas 67 123 1280 741 mode1_string 0;
#N canvas 0 23 450 300 handle_polyphony 0;
#X obj 37 37 inlet;
#X obj 37 149 pack 0 0 0;
#X obj 38 120 - 1;
#X obj 37 170 outlet;
#X obj 38 78 poly 8 1;
#X connect 0 0 4 0;
#X connect 1 0 3 0;
#X connect 2 0 1 0;
#X connect 4 0 2 0;
#X connect 4 1 1 1;
#X connect 4 2 1 2;
#X restore 396 499 pd handle_polyphony;
#X msg 383 74 rewind;
#X msg 211 49 track \$1;
#X obj 211 9 hradio 15 1 0 16 empty empty play_track_number 0 -6 0 12 #3c50fc #e8e828 #000000 0;
#X obj 211 26 - 1;
#X floatatom 166 46 5 0 0 0 - - - 0;
#X text 246 26 -1 = play all tracks;
#X obj 212 114 midifile;
#X obj 43 49 loadbang;
#X obj 775 427 pack 55 0;
#X text 823 374 mute!;
#X obj 247 341 == 0;
#X obj 247 392 gate 2 1;
#X obj 247 364 + 1;
#X obj 797 374 bng 19 250 50 0 empty empty empty 0 -10 0 12 #fcfcfc #000000 #000000;
#X obj 201 245 unpack;
#X obj 201 312 pack;
#X msg 289 74 1600;
#X obj 495 445 list;
#X obj 446 467 route bang;
#X obj 445 385 spigot;
#X obj 446 359 t b l l;
#X obj 788 173 ||;
#X obj 396 433 t l b;
#X obj 784 249 sel 1 0;
#X obj 826 148 t b a;
#X obj 787 197 change;
#X obj 397 567 string_synth;
#X obj 780 -37 inlet;
#X obj 850 -35 inlet;
#X obj 395 605 outlet~;
#X obj 551 -32 inlet;
#X obj 337 49 sel 1;
#X obj 551 -9 t a a a;
#X obj 529 22 sel 0;
#X obj 596 70 tgl 19 0 empty empty empty 0 -10 0 12 #fcfcfc #000000 #000000 0 1;
#X obj 252 139 print info;
#X obj 755 64 tgl 19 0 empty empty empty 0 -10 0 12 #fcfcfc #000000 #000000 0 1;
#X obj 868 72 tgl 19 0 empty empty empty 0 -10 0 12 #fcfcfc #000000 #000000 0 1;
#X obj 336 264 &&;
#X obj 785 223 t a b a a;
#X obj 336 291 tgl 19 0 empty empty empty 0 -10 0 12 #fcfcfc #000000 #000000 0 1;
#X obj 968 -29 inlet;
#X msg 38 90 read symphony_short.mid;
#X obj 551 99 metro 1;
#X obj 113 166 route 144 128;
#X obj 96 451 > 64;
#X obj 49 451 > 64;
#X obj 777 403 uzi 127 0;
#X obj 254 215 route 147;
#X obj 201 286 pipe f f 2000;
#X obj 498 245 &&;
#X obj 585 284 tgl 19 0 empty empty empty 0 -10 0 12 #fcfcfc #000000 #000000 0 1;
#X obj 890 349 del 100;
#X obj 497 52 t b b b;
#X obj 890 316 del 2000;
#N canvas 153 44 1127 701 ledstrip2 0;
#X obj 81 32 inlet;
#X obj 131 65 tgl 19 0 empty empty empty 0 -10 0 12 #fcfcfc #000000 #000000 0 1;
#X obj 81 95 pipe 125;
#X obj 81 64 t a a;
#X obj 130 131 tgl 19 0 empty empty empty 0 -10 0 12 #fcfcfc #000000 #000000 0 1;
#X obj 80 161 pipe 125;
#X obj 80 130 t a a;
#X obj 131 198 tgl 19 0 empty empty empty 0 -10 0 12 #fcfcfc #000000 #000000 0 1;
#X obj 81 228 pipe 125;
#X obj 81 197 t a a;
#X obj 132 267 tgl 19 0 empty empty empty 0 -10 0 12 #fcfcfc #000000 #000000 0 1;
#X obj 82 297 pipe 125;
#X obj 82 266 t a a;
#X obj 132 334 tgl 19 0 empty empty empty 0 -10 0 12 #fcfcfc #000000 #000000 0 1;
#X obj 82 364 pipe 125;
#X obj 82 333 t a a;
#X obj 131 400 tgl 19 0 empty empty empty 0 -10 0 12 #fcfcfc #000000 #000000 0 1;
#X obj 81 430 pipe 125;
#X obj 81 399 t a a;
#X obj 132 467 tgl 19 0 empty empty empty 0 -10 0 12 #fcfcfc #000000 #000000 0 1;
#X obj 82 497 pipe 125;
#X obj 82 466 t a a;
#X obj 843 664 outlet;
#X obj 105 654 outlet;
#X obj 317 69 tgl 19 0 empty empty empty 0 -10 0 12 #fcfcfc #000000 #000000 0 1;
#X obj 267 99 pipe 125;
#X obj 267 68 t a a;
#X obj 316 135 tgl 19 0 empty empty empty 0 -10 0 12 #fcfcfc #000000 #000000 0 1;
#X obj 266 165 pipe 125;
#X obj 266 134 t a a;
#X obj 317 202 tgl 19 0 empty empty empty 0 -10 0 12 #fcfcfc #000000 #000000 0 1;
#X obj 267 232 pipe 125;
#X obj 267 201 t a a;
#X obj 318 271 tgl 19 0 empty empty empty 0 -10 0 12 #fcfcfc #000000 #000000 0 1;
#X obj 268 301 pipe 125;
#X obj 268 270 t a a;
#X obj 318 338 tgl 19 0 empty empty empty 0 -10 0 12 #fcfcfc #000000 #000000 0 1;
#X obj 268 368 pipe 125;
#X obj 268 337 t a a;
#X obj 317 404 tgl 19 0 empty empty empty 0 -10 0 12 #fcfcfc #000000 #000000 0 1;
#X obj 267 434 pipe 125;
#X obj 267 403 t a a;
#X obj 318 471 tgl 19 0 empty empty empty 0 -10 0 12 #fcfcfc #000000 #000000 0 1;
#X obj 268 501 pipe 125;
#X obj 268 470 t a a;
#X obj 381 540 tgl 19 0 empty empty empty 0 -10 0 12 #fcfcfc #000000 #000000 0 1;
#X obj 269 539 t a b a;
#X obj 131 526 tgl 19 0 empty empty empty 0 -10 0 12 #fcfcfc #000000 #000000 0 1;
#X obj 81 556 pipe 125;
#X obj 81 525 t a a;
#X obj 655 625 pak 0 0 0 0 0 0 0 0 0 0 0 0 0 0 0 0, f 49;
#X connect 0 0 3 0;
#X connect 2 0 6 0;
#X connect 3 0 2 0;
#X connect 3 1 1 0;
#X connect 3 1 50 0;
#X connect 5 0 9 0;
#X connect 6 0 5 0;
#X connect 6 1 4 0;
#X connect 6 1 50 1;
#X connect 8 0 12 0;
#X connect 9 0 8 0;
#X connect 9 1 7 0;
#X connect 9 1 50 2;
#X connect 11 0 15 0;
#X connect 12 0 11 0;
#X connect 12 1 10 0;
#X connect 12 1 50 3;
#X connect 14 0 18 0;
#X connect 15 0 14 0;
#X connect 15 1 13 0;
#X connect 15 1 50 4;
#X connect 17 0 21 0;
#X connect 18 0 17 0;
#X connect 18 1 16 0;
#X connect 18 1 50 5;
#X connect 20 0 49 0;
#X connect 21 0 20 0;
#X connect 21 1 19 0;
#X connect 21 1 50 6;
#X connect 25 0 29 0;
#X connect 26 0 25 0;
#X connect 26 1 24 0;
#X connect 26 1 50 8;
#X connect 28 0 32 0;
#X connect 29 0 28 0;
#X connect 29 1 27 0;
#X connect 29 1 50 9;
#X connect 31 0 35 0;
#X connect 32 0 31 0;
#X connect 32 1 30 0;
#X connect 32 1 50 10;
#X connect 34 0 38 0;
#X connect 35 0 34 0;
#X connect 35 1 33 0;
#X connect 35 1 50 11;
#X connect 37 0 41 0;
#X connect 38 0 37 0;
#X connect 38 1 36 0;
#X connect 38 1 50 12;
#X connect 40 0 44 0;
#X connect 41 0 40 0;
#X connect 41 1 39 0;
#X connect 41 1 50 13;
#X connect 43 0 46 0;
#X connect 44 0 43 0;
#X connect 44 1 42 0;
#X connect 44 1 50 14;
#X connect 46 0 23 0;
#X connect 46 1 50 0;
#X connect 46 2 45 0;
#X connect 46 2 50 15;
#X connect 48 0 26 0;
#X connect 49 0 48 0;
#X connect 49 1 47 0;
#X connect 49 1 50 7;
#X connect 50 0 22 0;
#X restore 505 184 pd ledstrip2;
#N canvas 153 44 1127 701 ledstrip1 0;
#X obj 81 32 inlet;
#X obj 131 65 tgl 19 0 empty empty empty 0 -10 0 12 #fcfcfc #000000 #000000 0 1;
#X obj 81 95 pipe 125;
#X obj 81 64 t a a;
#X obj 130 131 tgl 19 0 empty empty empty 0 -10 0 12 #fcfcfc #000000 #000000 0 1;
#X obj 80 161 pipe 125;
#X obj 80 130 t a a;
#X obj 131 198 tgl 19 0 empty empty empty 0 -10 0 12 #fcfcfc #000000 #000000 0 1;
#X obj 81 228 pipe 125;
#X obj 81 197 t a a;
#X obj 132 267 tgl 19 0 empty empty empty 0 -10 0 12 #fcfcfc #000000 #000000 0 1;
#X obj 82 297 pipe 125;
#X obj 82 266 t a a;
#X obj 132 334 tgl 19 0 empty empty empty 0 -10 0 12 #fcfcfc #000000 #000000 0 1;
#X obj 82 364 pipe 125;
#X obj 82 333 t a a;
#X obj 131 400 tgl 19 0 empty empty empty 0 -10 0 12 #fcfcfc #000000 #000000 0 1;
#X obj 81 430 pipe 125;
#X obj 81 399 t a a;
#X obj 132 467 tgl 19 0 empty empty empty 0 -10 0 12 #fcfcfc #000000 #000000 0 1;
#X obj 82 497 pipe 125;
#X obj 82 466 t a a;
#X obj 843 664 outlet;
#X obj 105 654 outlet;
#X obj 317 69 tgl 19 0 empty empty empty 0 -10 0 12 #fcfcfc #000000 #000000 0 1;
#X obj 267 99 pipe 125;
#X obj 267 68 t a a;
#X obj 316 135 tgl 19 0 empty empty empty 0 -10 0 12 #fcfcfc #000000 #000000 0 1;
#X obj 266 165 pipe 125;
#X obj 266 134 t a a;
#X obj 317 202 tgl 19 0 empty empty empty 0 -10 0 12 #fcfcfc #000000 #000000 0 1;
#X obj 267 232 pipe 125;
#X obj 267 201 t a a;
#X obj 318 271 tgl 19 0 empty empty empty 0 -10 0 12 #fcfcfc #000000 #000000 0 1;
#X obj 268 301 pipe 125;
#X obj 268 270 t a a;
#X obj 318 338 tgl 19 0 empty empty empty 0 -10 0 12 #fcfcfc #000000 #000000 0 1;
#X obj 268 368 pipe 125;
#X obj 268 337 t a a;
#X obj 317 404 tgl 19 0 empty empty empty 0 -10 0 12 #fcfcfc #000000 #000000 0 1;
#X obj 267 434 pipe 125;
#X obj 267 403 t a a;
#X obj 318 471 tgl 19 0 empty empty empty 0 -10 0 12 #fcfcfc #000000 #000000 0 1;
#X obj 268 501 pipe 125;
#X obj 268 470 t a a;
#X obj 381 540 tgl 19 0 empty empty empty 0 -10 0 12 #fcfcfc #000000 #000000 0 1;
#X obj 269 539 t a b a;
#X obj 131 526 tgl 19 0 empty empty empty 0 -10 0 12 #fcfcfc #000000 #000000 0 1;
#X obj 81 556 pipe 125;
#X obj 81 525 t a a;
#X obj 655 625 pak 0 0 0 0 0 0 0 0 0 0 0 0 0 0 0 0, f 49;
#X connect 0 0 3 0;
#X connect 2 0 6 0;
#X connect 3 0 2 0;
#X connect 3 1 1 0;
#X connect 3 1 50 0;
#X connect 5 0 9 0;
#X connect 6 0 5 0;
#X connect 6 1 4 0;
#X connect 6 1 50 1;
#X connect 8 0 12 0;
#X connect 9 0 8 0;
#X connect 9 1 7 0;
#X connect 9 1 50 2;
#X connect 11 0 15 0;
#X connect 12 0 11 0;
#X connect 12 1 10 0;
#X connect 12 1 50 3;
#X connect 14 0 18 0;
#X connect 15 0 14 0;
#X connect 15 1 13 0;
#X connect 15 1 50 4;
#X connect 17 0 21 0;
#X connect 18 0 17 0;
#X connect 18 1 16 0;
#X connect 18 1 50 5;
#X connect 20 0 49 0;
#X connect 21 0 20 0;
#X connect 21 1 19 0;
#X connect 21 1 50 6;
#X connect 25 0 29 0;
#X connect 26 0 25 0;
#X connect 26 1 24 0;
#X connect 26 1 50 8;
#X connect 28 0 32 0;
#X connect 29 0 28 0;
#X connect 29 1 27 0;
#X connect 29 1 50 9;
#X connect 31 0 35 0;
#X connect 32 0 31 0;
#X connect 32 1 30 0;
#X connect 32 1 50 10;
#X connect 34 0 38 0;
#X connect 35 0 34 0;
#X connect 35 1 33 0;
#X connect 35 1 50 11;
#X connect 37 0 41 0;
#X connect 38 0 37 0;
#X connect 38 1 36 0;
#X connect 38 1 50 12;
#X connect 40 0 44 0;
#X connect 41 0 40 0;
#X connect 41 1 39 0;
#X connect 41 1 50 13;
#X connect 43 0 46 0;
#X connect 44 0 43 0;
#X connect 44 1 42 0;
#X connect 44 1 50 14;
#X connect 46 0 23 0;
#X connect 46 2 45 0;
#X connect 46 2 50 15;
#X connect 48 0 26 0;
#X connect 49 0 48 0;
#X connect 49 1 47 0;
#X connect 49 1 50 7;
#X connect 50 0 22 0;
#X restore 343 185 pd ledstrip1;
#X msg 911 40 147;
#X text 1029 -18 instrument num;
#X obj 958 4 sel 0 1 2 3;
#X obj 967 113 s instnum;
#X obj 344 139 r instnum;
#X obj 158 425 route 54 55;
#X obj 50 425 route 102 103;
#X obj 72 329 gate 2 1;
#X msg 1070 68 2;
#X msg 922 68 1;
#X obj 199 450 > 64;
#X obj 159 451 > 64;
#X obj 749 367 t b;
#X obj 890 381 del 100;
#X obj 291 470 route end;
#X obj 289 518 t b;
#X msg 336 104 80000;
#X obj 290 494 route 7;
#X obj 290 567 del 2000;
#X obj 498 569 string_synth_c;
#X obj 400 534 gate 2 1;
#X obj 63 144 print;
#X msg 1031 47 150;
#X msg 956 45 148;
#X msg 992 45 149;
#X obj 1189 101 switch~;
#X obj 1189 -31 inlet;
#X obj 1188 66 == 1;
#X text 1200 -2 mode enable;
#X obj 814 647 s LEDstrip1;
#X obj 904 647 s LEDstrip2;
#X obj 993 646 s LEDaction1;
#X obj 1091 647 s LEDaction2;
#X obj 1065 565 s LEDreset;
#X connect 0 0 78 1;
#X connect 2 0 7 0;
#X connect 3 0 4 0;
#X connect 4 0 2 0;
#X connect 4 0 5 0;
#X connect 7 0 45 0;
#X connect 7 0 79 0;
#X connect 7 2 36 0;
#X connect 7 2 72 0;
#X connect 8 0 43 0;
#X connect 9 0 0 0;
#X connect 11 0 13 0;
#X connect 12 0 21 0;
#X connect 12 1 23 0;
#X connect 13 0 12 0;
#X connect 14 0 48 0;
#X connect 15 0 50 0;
#X connect 15 1 50 1;
#X connect 16 0 12 1;
#X connect 17 0 7 0;
#X connect 18 0 19 0;
#X connect 19 1 0 0;
#X connect 20 0 19 0;
#X connect 21 1 18 1;
#X connect 21 2 20 0;
#X connect 22 0 26 0;
#X connect 23 0 0 0;
#X connect 23 1 18 1;
#X connect 24 0 18 0;
#X connect 24 1 48 0;
#X connect 25 0 22 0;
#X connect 25 1 22 1;
#X connect 26 0 40 0;
#X connect 27 0 30 0;
#X connect 28 0 22 0;
#X connect 29 0 25 0;
#X connect 31 0 33 0;
#X connect 32 0 1 0;
#X connect 33 0 34 0;
#X connect 33 1 44 0;
#X connect 33 2 32 0;
#X connect 34 0 54 0;
#X connect 35 0 33 0;
#X connect 37 0 22 0;
#X connect 38 0 25 0;
#X connect 39 0 41 0;
#X connect 40 0 24 0;
#X connect 40 1 39 0;
#X connect 40 1 51 0;
#X connect 40 2 39 1;
#X connect 40 2 51 1;
#X connect 40 3 20 1;
#X connect 42 0 60 0;
#X connect 43 0 7 0;
#X connect 44 0 7 0;
#X connect 45 0 65 1;
#X connect 45 1 65 1;
#X connect 45 2 49 0;
#X connect 46 0 56 0;
#X connect 47 0 57 0;
#X connect 48 2 9 0;
#X connect 49 0 15 0;
#X connect 50 0 16 0;
#X connect 50 1 16 1;
#X connect 50 1 11 0;
#X connect 51 0 52 0;
#X connect 53 0 70 0;
#X connect 53 0 71 0;
#X connect 54 0 70 0;
#X connect 54 2 55 0;
#X connect 55 0 53 0;
#X connect 55 0 70 0;
#X connect 56 0 51 0;
#X connect 57 0 39 0;
#X connect 58 0 61 0;
#X connect 60 0 58 0;
#X connect 60 0 67 0;
#X connect 60 1 81 0;
#X connect 60 1 67 0;
#X connect 60 2 82 0;
#X connect 60 2 67 0;
#X connect 60 3 80 0;
#X connect 60 3 66 0;
#X connect 62 0 49 1;
#X connect 63 0 69 0;
#X connect 63 1 68 0;
#X connect 64 0 47 0;
#X connect 64 1 46 0;
#X connect 65 0 64 0;
#X connect 65 1 63 0;
#X connect 66 0 65 0;
#X connect 66 0 78 0;
#X connect 67 0 65 0;
#X connect 67 0 78 0;
#X connect 68 0 56 0;
#X connect 69 0 57 0;
#X connect 70 0 48 0;
#X connect 71 0 70 0;
#X connect 72 0 75 0;
#X connect 73 0 76 0;
#X connect 74 0 7 0;
#X connect 75 0 73 0;
#X connect 76 0 55 0;
#X connect 77 0 30 0;
#X connect 78 0 27 0;
#X connect 78 1 77 0;
#X connect 80 0 61 0;
#X connect 81 0 61 0;
#X connect 82 0 61 0;
#X connect 84 0 85 0;
#X connect 85 0 83 0;
#X restore 63 340 pd mode1_string;
#X obj 60 301 tgl 19 0 empty empty empty 0 -10 0 12 #fcfcfc #000000 #000000 0 1;
#X obj 101 298 tgl 19 0 empty empty empty 0 -10 0 12 #fcfcfc #000000 #000000 0 1;
#X obj 154 298 tgl 19 0 empty empty empty 0 -10 0 12 #fcfcfc #000000 #000000 0 1;
#X text 95 278 sensor1;
#X text 155 279 sensor2;
#X text 56 280 play;
#X obj 57 685 *~;
#X obj 145 664 line~;
#X msg 146 640 1 100;
#X obj 145 610 loadbang;
#X msg 208 641 \$1 100;
#X obj 50 228 r play;
#X obj 256 227 r inst;
#X obj 210 611 r volume;
#X obj 62 20 declare -lib rcp;
#X msg 1272 451 expose t LED8;
#X msg 1282 497 expose t LEDMatch;
#N canvas 47 74 450 300 limiter 0;
#X obj 62 191 *~;
#X obj 92 69 env~;
#X obj 92 91 dbtorms;
#X obj 92 135 -;
#X obj 92 157 lop~ 20;
#X msg 92 113 1 \$1;
#X obj 62 4 inlet~;
#X obj 62 266 outlet~;
#X connect 0 0 7 0;
#X connect 1 0 2 0;
#X connect 2 0 5 0;
#X connect 3 0 4 0;
#X connect 4 0 0 1;
#X connect 5 0 3 0;
#X connect 6 0 1 0;
#X connect 6 0 0 0;
#X restore 59 630 pd limiter;
#X obj 60 604 clip~ -1 1;
#N canvas 131 166 1149 579 RCP_communication 0;
#X obj 154 383 rcp.server;
#X msg 174 95 listen 10000;
#X obj 128 54 t b b b;
#X text 175 118 RCP is at port 10000;
#X obj 153 431 route update;
#X obj 153 408 list trim;
#X text 209 23 RCP tester;
#X msg 153 212 expose f val1 @min 0 @max 1;
#X msg 165 238 expose f val2 @min 0 @max 1;
#X obj 150 495 s val1;
#X obj 195 519 s val2;
#X msg 218 296 expose t calib;
#X msg 236 321 expose t play;
#X msg 188 265 expose f volume @min 0 @max 1;
#X obj 244 495 s volume;
#X obj 284 543 s calib;
#X obj 329 508 s play;
#X obj 152 461 route val1 val2 volume calib play inst;
#X msg 241 347 expose i inst;
#X obj 402 508 s inst;
#X obj 144 152 t b b b b b b b b b;
#X obj 126 28 inlet;
#X obj 33 290 r message;
#X obj 93 337 spigot;
#X obj 122 275 tgl 19 0 empty empty empty 0 -10 0 12 #fcfcfc #000000 #000000 0 1;
#X obj 54 154 delay 1000;
#X connect 0 0 5 0;
#X connect 1 0 0 0;
#X connect 2 0 25 0;
#X connect 2 1 20 0;
#X connect 2 2 1 0;
#X connect 4 0 17 0;
#X connect 5 0 4 0;
#X connect 7 0 0 0;
#X connect 8 0 0 0;
#X connect 11 0 0 0;
#X connect 12 0 0 0;
#X connect 13 0 0 0;
#X connect 17 0 9 0;
#X connect 17 1 10 0;
#X connect 17 2 14 0;
#X connect 17 3 15 0;
#X connect 17 4 16 0;
#X connect 17 5 19 0;
#X connect 18 0 0 0;
#X connect 20 0 7 0;
#X connect 20 1 8 0;
#X connect 20 2 13 0;
#X connect 20 3 18 0;
#X connect 20 4 11 0;
#X connect 20 5 12 0;
#X connect 21 0 2 0;
#X connect 22 0 23 0;
#X connect 23 0 0 0;
#X connect 24 0 23 1;
#X connect 25 0 24 0;
#X restore 765 67 pd RCP_communication;
#X obj 766 37 loadbang;
#N canvas 173 212 834 446 sensor 0;
#X obj 112 83 adc~ 3 4;
#X obj 111 155 snapshot~;
#X obj 302 90 loadbang;
#X obj 302 113 tgl 16 0 empty empty empty 0 -8 0 10 #fcfcfc #000000 #000000 0 1;
#X obj 207 156 snapshot~;
#X obj 301 137 metro 40;
#X obj 112 128 average~ 10;
#X obj 207 128 average~ 10;
#X obj 120 319 change;
#X obj 229 319 change;
#N canvas 62 323 709 452 calib 0;
#X obj 170 189 > 0;
#X obj 179 139 t a a a;
#X obj 203 191 spigot;
#X obj 89 141 t a a a;
#X obj 113 192 spigot;
#X obj 80 191 < 1;
#X obj 204 225 f;
#X obj 115 223 f;
#X text 113 246 min;
#X text 203 250 max;
#X floatatom 237 229 5 0 0 0 - - - 0;
#X floatatom 146 223 5 0 0 0 - - - 0;
#X msg 144 169 1;
#X msg 248 169 0;
#X obj 111 42 inlet;
#X obj 110 98 t a a;
#X obj 204 321 outlet;
#X obj 335 53 inlet;
#X obj 110 70 spigot;
#X obj 284 65 t a a;
#X obj 317 89 sel 1 0;
#X obj 117 323 outlet;
#X obj 351 276 -;
#X obj 348 244 t b a;
#X obj 351 331 outlet;
#X obj 351 304 / 3;
#X connect 0 0 2 1;
#X connect 1 1 2 0;
#X connect 1 2 0 0;
#X connect 2 0 0 1;
#X connect 2 0 6 1;
#X connect 2 0 10 0;
#X connect 3 1 4 0;
#X connect 3 2 5 0;
#X connect 4 0 5 1;
#X connect 4 0 7 1;
#X connect 4 0 11 0;
#X connect 5 0 4 1;
#X connect 6 0 16 0;
#X connect 6 0 22 0;
#X connect 7 0 21 0;
#X connect 7 0 23 0;
#X connect 12 0 5 1;
#X connect 13 0 0 1;
#X connect 14 0 18 0;
#X connect 15 0 3 0;
#X connect 15 1 1 0;
#X connect 17 0 19 0;
#X connect 18 0 15 0;
#X connect 19 0 18 1;
#X connect 19 1 20 0;
#X connect 20 0 13 0;
#X connect 20 0 12 0;
#X connect 20 1 6 0;
#X connect 20 1 7 0;
#X connect 22 0 25 0;
#X connect 23 0 22 0;
#X connect 23 1 22 1;
#X connect 25 0 24 0;
#X restore 212 199 pd calib;
#X obj 322 180 r calib;
#X msg 409 212 val1 \$1;
#X msg 471 213 val2 \$1;
#X obj 410 149 metro 200;
#X obj 409 175 f;
#X obj 472 175 f;
#X obj 412 125 del 1000;
#X obj 264 259 - 0.1;
#X obj 119 297 < 0.7;
#X obj 229 296 < 0.7;
#X obj 265 235 t b a;
#N canvas 54 23 1040 617 calib 0;
#X obj 170 189 > 0;
#X obj 179 139 t a a a;
#X obj 203 191 spigot;
#X obj 89 141 t a a a;
#X obj 113 192 spigot;
#X obj 80 191 < 1;
#X obj 204 225 f;
#X obj 115 223 f;
#X text 113 246 min;
#X text 203 250 max;
#X floatatom 237 229 5 0 0 0 - - - 0;
#X floatatom 146 223 5 0 0 0 - - - 0;
#X msg 144 169 1;
#X msg 248 169 0;
#X obj 111 42 inlet;
#X obj 110 98 t a a;
#X obj 204 321 outlet;
#X obj 335 53 inlet;
#X obj 110 70 spigot;
#X obj 284 65 t a a;
#X obj 317 89 sel 1 0;
#X obj 117 323 outlet;
#X obj 351 276 -;
#X obj 348 244 t b a;
#X obj 351 331 outlet;
#X obj 351 304 / 3;
#X connect 0 0 2 1;
#X connect 1 1 2 0;
#X connect 1 2 0 0;
#X connect 2 0 0 1;
#X connect 2 0 6 1;
#X connect 2 0 10 0;
#X connect 3 1 4 0;
#X connect 3 2 5 0;
#X connect 4 0 5 1;
#X connect 4 0 7 1;
#X connect 4 0 11 0;
#X connect 5 0 4 1;
#X connect 6 0 16 0;
#X connect 6 0 22 0;
#X connect 7 0 21 0;
#X connect 7 0 23 0;
#X connect 12 0 5 1;
#X connect 13 0 0 1;
#X connect 14 0 18 0;
#X connect 15 0 3 0;
#X connect 15 1 1 0;
#X connect 17 0 19 0;
#X connect 18 0 15 0;
#X connect 19 0 18 1;
#X connect 19 1 20 0;
#X connect 20 0 13 0;
#X connect 20 0 12 0;
#X connect 20 1 6 0;
#X connect 20 1 7 0;
#X connect 22 0 25 0;
#X connect 23 0 22 0;
#X connect 23 1 22 1;
#X connect 25 0 24 0;
#X restore 104 197 pd calib;
#X obj 157 261 - 0.1;
#X obj 157 232 t b a;
#X obj 412 73 tgl 19 0 empty empty empty 0 -10 0 12 #fcfcfc #000000 #000000 0 1;
#N canvas 113 152 1076 540 RecCalib 0;
#X obj 71 285 textfile;
#X obj 70 201 list trim;
#X obj 94 176 list prepend set;
#X obj 75 432 textfile;
#X msg 76 410 bang;
#X msg 116 410 rewind;
#X obj 113 368 t b b b;
#X obj 70 149 list;
#X msg 148 202 write /root/Bela/projects/symphoney/sensorCalib.txt cr, f 55;
#X obj 71 77 change;
#X obj 81 124 delay 500;
#X msg 195 391 read /root/Bela/projects/symphoney/sensorCalib.txt cr;
#X obj 70 34 inlet;
#X obj 170 34 inlet;
#X obj 213 34 inlet;
#X obj 258 34 inlet;
#X obj 302 34 inlet;
#X obj 107 149 pack 0 0 0 0;
#X obj 67 453 unpack 0 0 0 0;
#X obj 66 493 outlet;
#X obj 119 493 outlet;
#X obj 169 493 outlet;
#X obj 221 493 outlet;
#X obj 114 344 loadbang;
#X obj 71 101 sel 0;
#X msg 196 414 read sensorCalib.txt cr;
#X msg 148 229 write sensorCalib.txt cr, f 34;
#X connect 1 0 0 0;
#X connect 2 0 1 0;
#X connect 3 0 18 0;
#X connect 4 0 3 0;
#X connect 5 0 3 0;
#X connect 6 0 4 0;
#X connect 6 1 5 0;
#X connect 6 2 11 0;
#X connect 7 0 2 0;
#X connect 8 0 0 0;
#X connect 9 0 24 0;
#X connect 10 0 8 0;
#X connect 11 0 3 0;
#X connect 12 0 9 0;
#X connect 13 0 17 0;
#X connect 14 0 17 1;
#X connect 15 0 17 2;
#X connect 16 0 17 3;
#X connect 17 0 7 1;
#X connect 18 0 19 0;
#X connect 18 1 20 0;
#X connect 18 2 21 0;
#X connect 18 3 22 0;
#X connect 23 0 6 0;
#X connect 24 0 10 0;
#X connect 24 0 7 0;
#X connect 25 0 3 0;
#X connect 26 0 0 0;
#X restore 321 218 pd RecCalib;
#X obj 120 353 outlet sensor1;
#X obj 229 356 outlet sensor2;
#X obj 453 72 inlet;
#X obj 410 244 s message;
#X connect 0 0 6 0;
#X connect 0 1 7 0;
#X connect 1 0 22 0;
#X connect 1 0 15 1;
#X connect 1 0 19 0;
#X connect 2 0 3 0;
#X connect 3 0 5 0;
#X connect 4 0 10 0;
#X connect 4 0 16 1;
#X connect 4 0 20 0;
#X connect 5 0 1 0;
#X connect 5 0 4 0;
#X connect 6 0 1 0;
#X connect 7 0 4 0;
#X connect 8 0 27 0;
#X connect 9 0 28 0;
#X connect 10 1 18 0;
#X connect 10 1 26 3;
#X connect 10 2 21 0;
#X connect 10 2 26 4;
#X connect 11 0 10 1;
#X connect 11 0 22 1;
#X connect 11 0 26 0;
#X connect 12 0 30 0;
#X connect 13 0 30 0;
#X connect 14 0 15 0;
#X connect 14 0 16 0;
#X connect 15 0 12 0;
#X connect 16 0 13 0;
#X connect 17 0 14 0;
#X connect 18 0 20 1;
#X connect 19 0 8 0;
#X connect 20 0 9 0;
#X connect 21 0 18 0;
#X connect 21 1 18 1;
#X connect 22 1 23 0;
#X connect 22 1 26 1;
#X connect 22 2 24 0;
#X connect 22 2 26 2;
#X connect 23 0 19 1;
#X connect 24 0 23 0;
#X connect 24 1 23 1;
#X connect 25 0 17 0;
#X connect 26 0 23 0;
#X connect 26 1 24 0;
#X connect 26 2 18 0;
#X connect 26 3 21 0;
#X connect 29 0 17 0;
#X restore 70 87 pd sensor;
#X obj 70 117 s sensor1;
#X obj 144 117 s sensor2;
#X obj 103 228 r sensor1;
#X obj 179 228 r sensor2;
#X obj 63 365 throw~ mono;
#X obj 60 576 catch~ mono;
#X obj 57 713 dac~ 1;
#X msg 344 63 1;
#X msg 345 88 2;
#X msg 343 39 0;
#X obj 345 116 s mode;
#X obj 195 322 r mode;
#N canvas 17 204 838 457 LED_show 0;
#X obj 95 31 inlet strip1;
#X obj 250 29 inlet strip2;
#X obj 413 35 inlet action1;
#X obj 566 35 inlet action2;
#X obj 727 36 inlet reset;
#N canvas 80 23 1200 628 LEDV2 0;
#X obj 164 22 inlet;
#X obj 123 233 zl join;
#X obj 509 31 inlet;
#X obj 271 373 zl join;
#X obj 503 219 zl join;
#X obj 507 115 t b l;
#X obj 572 169 zl join;
#X msg 967 52 0 0 0 0 0 0 0 0 0 0 0 0 0 0 0 0;
#X obj 575 115 t b a;
#X obj 164 46 zl rev;
#X obj 508 60 zl rev;
#X obj 486 446 oscformat leds setRaw r;
#X obj 119 436 oscformat leds setRaw rgb;
#X obj 197 136 unpack 0 0;
#X obj 311 319 t b a;
#X obj 624 30 inlet;
#X obj 718 32 inlet;
#X obj 287 101 t b l;
#X msg 96 202 0 \$1;
#X msg 504 196 16 \$1;
#X msg 457 174 30;
#X msg 499 175 255;
#X obj 82 122 gate 2 1;
#X obj 624 56 + 1;
#X obj 467 146 gate 2 1;
#X obj 718 57 + 1;
#X msg 203 176 1;
#X msg 168 176 0;
#X obj 81 149 t b b;
#X obj 137 148 t b b;
#X msg 129 172 155, f 4;
#X obj 508 89 zl slice 1;
#X msg 574 141 17 30;
#X obj 314 287 unpack 0 0 0 0 0 0 0 0 0 0 0 0 0 0 0, f 88;
#X obj 311 347 pack 0 0 0 0 0 0 0 0 0 0 0 0 0 0 0 0 0 0 0 0 0 0 0 0 0 0 0 0 0 0 0 0 0 0 0 0 0 0 0 0 0 0 0 0 0, f 95;
#X obj 163 71 zl slice 1;
#X obj 170 205 pack 0 0 0;
#X msg 80 172 255;
#X obj 163 97 t b a;
#X msg 238 21 1 1 1 0 0 0 0 0 0 0 0 0 0 0 1 1;
#X msg 284 127 1 255;
#X obj 968 25 inlet mute;
#X obj 490 507 outlet;
#X connect 0 0 9 0;
#X connect 1 0 12 0;
#X connect 2 0 10 0;
#X connect 3 0 12 0;
#X connect 4 0 11 0;
#X connect 5 0 24 1;
#X connect 5 1 4 1;
#X connect 6 0 11 0;
#X connect 7 0 31 0;
#X connect 7 0 35 0;
#X connect 8 0 32 0;
#X connect 8 1 6 1;
#X connect 9 0 35 0;
#X connect 10 0 31 0;
#X connect 11 0 42 0;
#X connect 12 0 42 0;
#X connect 13 0 36 2;
#X connect 13 0 36 1;
#X connect 14 0 34 0;
#X connect 14 1 34 1;
#X connect 15 0 23 0;
#X connect 16 0 25 0;
#X connect 17 0 40 0;
#X connect 17 1 33 0;
#X connect 18 0 1 0;
#X connect 19 0 4 0;
#X connect 20 0 19 0;
#X connect 21 0 19 0;
#X connect 22 0 28 0;
#X connect 22 1 29 0;
#X connect 23 0 22 0;
#X connect 24 0 20 0;
#X connect 24 1 21 0;
#X connect 25 0 24 0;
#X connect 26 0 36 0;
#X connect 27 0 36 0;
#X connect 28 0 37 0;
#X connect 28 1 27 0;
#X connect 29 0 30 0;
#X connect 29 1 26 0;
#X connect 30 0 18 0;
#X connect 31 0 5 0;
#X connect 31 1 8 0;
#X connect 32 0 6 0;
#X connect 33 0 14 0;
#X connect 33 0 34 2;
#X connect 33 1 34 5;
#X connect 33 1 34 4;
#X connect 33 2 34 8;
#X connect 33 2 34 7;
#X connect 33 3 34 11;
#X connect 33 3 34 10;
#X connect 33 4 34 14;
#X connect 33 4 34 13;
#X connect 33 5 34 17;
#X connect 33 5 34 16;
#X connect 33 6 34 20;
#X connect 33 6 34 19;
#X connect 33 7 34 23;
#X connect 33 7 34 22;
#X connect 33 8 34 26;
#X connect 33 8 34 25;
#X connect 33 9 34 29;
#X connect 33 9 34 28;
#X connect 33 10 34 32;
#X connect 33 10 34 31;
#X connect 33 11 34 35;
#X connect 33 11 34 34;
#X connect 33 12 34 38;
#X connect 33 12 34 37;
#X connect 33 13 34 41;
#X connect 33 13 34 40;
#X connect 33 14 34 44;
#X connect 33 14 34 43;
#X connect 34 0 3 1;
#X connect 35 0 38 0;
#X connect 35 1 17 0;
#X connect 36 0 1 1;
#X connect 37 0 18 0;
#X connect 38 0 22 1;
#X connect 38 1 13 0;
#X connect 39 0 9 0;
#X connect 40 0 3 0;
#X connect 41 0 7 0;
#X restore 178 224 pd LEDV2;
#X f 10;
#N canvas 122 23 1158 531 LEDV1 0;
#X obj 164 22 inlet;
#X obj 123 233 zl join;
#X obj 509 31 inlet;
#X obj 271 373 zl join;
#X obj 503 219 zl join;
#X obj 507 115 t b l;
#X obj 572 169 zl join;
#X msg 820 53 0 0 0 0 0 0 0 0 0 0 0 0 0 0 0 0;
#X obj 575 115 t b a;
#X obj 504 245 oscformat leds setRaw r;
#X obj 119 436 oscformat leds setRaw rgb;
#X obj 197 136 unpack 0 0;
#X obj 311 319 t b a;
#X obj 600 30 inlet;
#X obj 694 32 inlet;
#X obj 287 101 t b l;
#X msg 96 202 0 \$1;
#X msg 504 196 16 \$1;
#X msg 457 174 30;
#X msg 499 175 255;
#X obj 82 122 gate 2 1;
#X obj 600 56 + 1;
#X obj 467 146 gate 2 1;
#X obj 694 57 + 1;
#X msg 203 176 1;
#X msg 168 176 0;
#X obj 81 149 t b b;
#X obj 137 148 t b b;
#X msg 129 172 155, f 4;
#X obj 314 287 unpack 0 0 0 0 0 0 0 0 0 0 0 0 0 0 0, f 88;
#X obj 311 347 pack 0 0 0 0 0 0 0 0 0 0 0 0 0 0 0 0 0 0 0 0 0 0 0 0 0 0 0 0 0 0 0 0 0 0 0 0 0 0 0 0 0 0 0 0 0, f 95;
#X obj 170 205 pack 0 0 0;
#X msg 80 172 255;
#X obj 163 97 t b a;
#X obj 650 19 tgl 19 0 empty empty empty 0 -10 0 12 #fcfcfc #000000 #000000 0 1;
#X msg 238 21 1 1 1 0 0 0 0 0 0 0 0 0 0 0 1 1;
#X msg 284 127 1 255;
#X obj 163 61 zl slice 15;
#X obj 508 89 zl slice 15;
#X msg 574 141 17 30;
#X obj 816 27 inlet mute;
#X obj 375 588 outlet;
#X connect 0 0 37 0;
#X connect 1 0 10 0;
#X connect 2 0 38 0;
#X connect 3 0 10 0;
#X connect 4 0 9 0;
#X connect 5 0 22 1;
#X connect 5 1 4 1;
#X connect 6 0 9 0;
#X connect 7 0 37 0;
#X connect 7 0 38 0;
#X connect 8 0 39 0;
#X connect 8 1 6 1;
#X connect 9 0 41 0;
#X connect 10 0 41 0;
#X connect 11 0 31 2;
#X connect 11 0 31 1;
#X connect 12 0 30 0;
#X connect 12 1 30 1;
#X connect 13 0 21 0;
#X connect 14 0 23 0;
#X connect 15 0 36 0;
#X connect 15 1 29 0;
#X connect 16 0 1 0;
#X connect 17 0 4 0;
#X connect 18 0 17 0;
#X connect 19 0 17 0;
#X connect 20 0 26 0;
#X connect 20 1 27 0;
#X connect 21 0 20 0;
#X connect 22 0 18 0;
#X connect 22 1 19 0;
#X connect 23 0 22 0;
#X connect 24 0 31 0;
#X connect 25 0 31 0;
#X connect 26 0 32 0;
#X connect 26 1 25 0;
#X connect 27 0 28 0;
#X connect 27 1 24 0;
#X connect 28 0 16 0;
#X connect 29 0 12 0;
#X connect 29 0 30 2;
#X connect 29 1 30 5;
#X connect 29 1 30 4;
#X connect 29 2 30 8;
#X connect 29 2 30 7;
#X connect 29 3 30 11;
#X connect 29 3 30 10;
#X connect 29 4 30 14;
#X connect 29 4 30 13;
#X connect 29 5 30 17;
#X connect 29 5 30 16;
#X connect 29 6 30 20;
#X connect 29 6 30 19;
#X connect 29 7 30 23;
#X connect 29 7 30 22;
#X connect 29 8 30 26;
#X connect 29 8 30 25;
#X connect 29 9 30 29;
#X connect 29 9 30 28;
#X connect 29 10 30 32;
#X connect 29 10 30 31;
#X connect 29 11 30 35;
#X connect 29 11 30 34;
#X connect 29 12 30 38;
#X connect 29 12 30 37;
#X connect 29 13 30 41;
#X connect 29 13 30 40;
#X connect 29 14 30 44;
#X connect 29 14 30 43;
#X connect 30 0 3 1;
#X connect 31 0 1 1;
#X connect 32 0 16 0;
#X connect 33 0 20 1;
#X connect 33 1 11 0;
#X connect 34 0 21 0;
#X connect 36 0 3 0;
#X connect 37 0 15 0;
#X connect 37 1 33 0;
#X connect 38 0 5 0;
#X connect 38 1 8 0;
#X connect 39 0 6 0;
#X connect 40 0 7 0;
#X restore 569 227 pd LEDV1;
#X f 10;
#X obj 41 60 gate 2 1;
#X obj 198 63 gate 2 1;
#X obj 361 67 gate 2 1;
#X obj 513 69 gate 2 1;
#X obj 674 70 gate 2 1;
#X obj 447 382 netsend -u -b;
#X msg 104 341 connect bela.local 7562;
#X obj 104 290 loadbang;
#X msg 104 317 connect 127.0.0.1 7562;
#X msg 104 395 disconnect;
#X msg 105 368 connect 192.168.0.54 7562;
#X connect 0 0 7 1;
#X connect 1 0 8 1;
#X connect 2 0 9 1;
#X connect 3 0 10 1;
#X connect 4 0 11 1;
#X connect 5 0 12 0;
#X connect 6 0 12 0;
#X connect 7 0 5 0;
#X connect 7 1 6 0;
#X connect 8 0 5 1;
#X connect 8 1 6 1;
#X connect 9 0 5 2;
#X connect 9 1 6 2;
#X connect 10 0 5 3;
#X connect 10 1 6 3;
#X connect 11 0 5 4;
#X connect 11 1 6 4;
#X connect 13 0 12 0;
#X connect 14 0 15 0;
#X connect 15 0 12 0;
#X connect 16 0 12 0;
#X connect 17 0 12 0;
#X restore 350 641 pd LED_show;
#X obj 349 583 r LEDstrip1;
#X obj 360 606 r LEDstrip2;
#X obj 450 584 r LEDaction1;
#X obj 457 607 r LEDaction2;
#X obj 554 584 r LEDreset;
#X obj 413 41 loadbang;
#X obj 71 61 tgl 19 0 empty empty empty 0 -10 0 12 #fcfcfc #000000 #000000 0 1;
#X text 94 60 send sensor reading to rcp;
#X text 347 535 LED output;
#X text 55 545 sound output;
#X obj 767 146 init;
#X obj 766 120 zmqSender;
#X obj 765 94 zmqReceiver;
#X connect 0 0 27 0;
#X connect 1 0 0 0;
#X connect 2 0 0 1;
#X connect 3 0 0 2;
#X connect 7 0 29 0;
#X connect 8 0 7 1;
#X connect 9 0 8 0;
#X connect 10 0 9 0;
#X connect 11 0 8 0;
#X connect 12 0 0 0;
#X connect 13 0 0 3;
#X connect 14 0 11 0;
#X connect 18 0 7 0;
#X connect 19 0 18 0;
#X connect 22 0 23 0;
#X connect 22 1 24 0;
#X connect 25 0 0 1;
#X connect 26 0 0 2;
#X connect 28 0 19 0;
#X connect 30 0 33 0;
#X connect 31 0 33 0;
#X connect 32 0 33 0;
#X connect 34 0 0 4;
#X connect 36 0 35 0;
#X connect 37 0 35 1;
#X connect 38 0 35 2;
#X connect 39 0 35 3;
#X connect 40 0 35 4;
#X connect 41 0 30 0;
#X connect 42 0 22 0;
