#N canvas 85 23 1195 755 12;
#X obj 970 80 init;
#N canvas 446 117 834 446 sensor 0;
#X obj 111 155 snapshot~;
#X obj 302 66 loadbang;
#X obj 302 113 tgl 16 0 empty empty empty 0 -8 0 10 #fcfcfc #000000 #000000 0 1;
#X obj 207 156 snapshot~;
#N canvas 62 323 709 452 calib 0;
#X obj 170 189 > 0;
#X obj 179 139 t a a a;
#X obj 203 191 spigot;
#X obj 89 141 t a a a;
#X obj 113 192 spigot;
#X obj 80 191 < 1;
#X obj 204 225 f;
#X obj 115 223 f;
#X text 113 246 min;
#X text 203 250 max;
#X floatatom 237 229 5 0 0 0 - - - 0;
#X floatatom 146 223 5 0 0 0 - - - 0;
#X msg 144 169 1;
#X msg 248 169 0;
#X obj 111 42 inlet;
#X obj 110 98 t a a;
#X obj 204 321 outlet;
#X obj 335 53 inlet;
#X obj 110 70 spigot;
#X obj 284 65 t a a;
#X obj 317 89 sel 1 0;
#X obj 117 323 outlet;
#X obj 351 276 -;
#X obj 348 244 t b a;
#X obj 351 363 outlet;
#X obj 351 304 / 3;
#X obj 352 329 clip 0.08 0.5;
#X connect 0 0 2 1;
#X connect 1 1 2 0;
#X connect 1 2 0 0;
#X connect 2 0 0 1;
#X connect 2 0 6 1;
#X connect 2 0 10 0;
#X connect 3 1 4 0;
#X connect 3 2 5 0;
#X connect 4 0 5 1;
#X connect 4 0 7 1;
#X connect 4 0 11 0;
#X connect 5 0 4 1;
#X connect 6 0 16 0;
#X connect 6 0 22 0;
#X connect 7 0 21 0;
#X connect 7 0 23 0;
#X connect 12 0 5 1;
#X connect 13 0 0 1;
#X connect 14 0 18 0;
#X connect 15 0 3 0;
#X connect 15 1 1 0;
#X connect 17 0 19 0;
#X connect 18 0 15 0;
#X connect 19 0 18 1;
#X connect 19 1 20 0;
#X connect 20 0 13 0;
#X connect 20 0 12 0;
#X connect 20 1 6 0;
#X connect 20 1 7 0;
#X connect 22 0 25 0;
#X connect 23 0 22 0;
#X connect 23 1 22 1;
#X connect 25 0 26 0;
#X connect 26 0 24 0;
#X restore 226 185 pd calib;
#X obj 322 180 r calib;
#X msg 409 212 val1 \$1;
#X msg 471 213 val2 \$1;
#X obj 410 149 metro 200;
#X obj 409 175 f;
#X obj 472 175 f;
#X obj 273 258 - 0.1;
#X obj 119 297 < 0.7;
#X obj 229 296 < 0.7;
#X obj 272 220 t b a;
#N canvas 163 23 1040 617 calib 0;
#X obj 170 189 > 0;
#X obj 179 139 t a a a;
#X obj 203 191 spigot;
#X obj 89 141 t a a a;
#X obj 113 192 spigot;
#X obj 73 191 < 1;
#X obj 204 225 f;
#X obj 115 223 f;
#X text 113 246 min;
#X text 203 250 max;
#X floatatom 237 226 5 0 0 0 - - - 0;
#X floatatom 147 223 5 0 0 0 - - - 0;
#X msg 350 165 1;
#X msg 314 168 0;
#X obj 111 28 inlet;
#X obj 110 98 t a a;
#X obj 204 321 outlet;
#X obj 335 53 inlet;
#X obj 110 70 spigot;
#X obj 284 65 t a a;
#X obj 317 89 sel 1 0;
#X obj 117 323 outlet;
#X obj 420 276 -;
#X obj 417 244 t b a;
#X obj 420 382 outlet;
#X obj 420 304 / 3;
#X obj 420 343 clip 0.08 0.5;
#X connect 0 0 2 1;
#X connect 1 1 2 0;
#X connect 1 2 0 0;
#X connect 2 0 0 1;
#X connect 2 0 6 1;
#X connect 2 0 10 0;
#X connect 3 1 4 0;
#X connect 3 2 5 0;
#X connect 4 0 5 1;
#X connect 4 0 7 1;
#X connect 4 0 11 0;
#X connect 5 0 4 1;
#X connect 6 0 16 0;
#X connect 6 0 22 0;
#X connect 7 0 21 0;
#X connect 7 0 23 0;
#X connect 12 0 5 1;
#X connect 13 0 0 1;
#X connect 14 0 18 0;
#X connect 15 0 3 0;
#X connect 15 1 1 0;
#X connect 17 0 19 0;
#X connect 18 0 15 0;
#X connect 19 0 18 1;
#X connect 19 1 20 0;
#X connect 20 0 13 0;
#X connect 20 0 12 0;
#X connect 20 1 6 0;
#X connect 20 1 7 0;
#X connect 22 0 25 0;
#X connect 23 0 22 0;
#X connect 23 1 22 1;
#X connect 25 0 26 0;
#X connect 26 0 24 0;
#X restore 122 185 pd calib;
#X obj 151 265 - 0.1;
#X obj 171 225 t b a;
#N canvas 113 152 1076 540 RecCalib 0;
#X obj 71 285 textfile;
#X obj 70 201 list trim;
#X obj 94 176 list prepend set;
#X obj 75 432 textfile;
#X msg 76 410 bang;
#X msg 116 410 rewind;
#X obj 113 368 t b b b;
#X obj 70 149 list;
#X obj 71 77 change;
#X obj 81 124 delay 500;
#X obj 70 34 inlet;
#X obj 170 34 inlet;
#X obj 213 34 inlet;
#X obj 66 493 outlet;
#X obj 136 493 outlet;
#X obj 114 344 loadbang;
#X obj 71 101 sel 0;
#X msg 196 414 read sensorCalib.txt cr;
#X msg 148 229 write sensorCalib.txt cr, f 34;
#X msg 148 202 write /root/Bela/projects/symphony/sensorCalib.txt cr, f 55;
#X msg 195 391 read /root/Bela/projects/symphony/sensorCalib.txt cr;
#X obj 163 129 pack 0 0;
#X obj 67 453 unpack 0 0;
#X connect 1 0 0 0;
#X connect 2 0 1 0;
#X connect 3 0 22 0;
#X connect 4 0 3 0;
#X connect 5 0 3 0;
#X connect 6 0 4 0;
#X connect 6 1 5 0;
#X connect 6 2 20 0;
#X connect 7 0 2 0;
#X connect 8 0 16 0;
#X connect 9 0 19 0;
#X connect 10 0 8 0;
#X connect 11 0 21 0;
#X connect 12 0 21 1;
#X connect 15 0 6 0;
#X connect 16 0 9 0;
#X connect 16 0 7 0;
#X connect 17 0 3 0;
#X connect 18 0 0 0;
#X connect 19 0 0 0;
#X connect 20 0 3 0;
#X connect 21 0 7 1;
#X connect 22 0 13 0;
#X connect 22 1 14 0;
#X restore 323 286 pd RecCalib;
#X obj 116 389 outlet sensor1;
#X obj 230 385 outlet sensor2;
#X obj 413 67 inlet;
#X obj 410 244 s message;
#X text 79 61 analog input number will change!;
#X obj 301 137 metro 40;
#X obj 112 83 adc~ 9 10;
#X obj 112 128 average~ 6000;
#X obj 207 128 average~ 6000;
#X connect 0 0 15 0;
#X connect 0 0 9 1;
#X connect 0 0 12 0;
#X connect 1 0 2 0;
#X connect 2 0 24 0;
#X connect 3 0 4 0;
#X connect 3 0 10 1;
#X connect 3 0 13 0;
#X connect 4 1 11 0;
#X connect 4 2 14 0;
#X connect 5 0 4 1;
#X connect 5 0 15 1;
#X connect 5 0 18 0;
#X connect 6 0 22 0;
#X connect 7 0 22 0;
#X connect 8 0 9 0;
#X connect 8 0 10 0;
#X connect 9 0 6 0;
#X connect 10 0 7 0;
#X connect 11 0 13 1;
#X connect 11 0 18 2;
#X connect 12 0 19 0;
#X connect 13 0 20 0;
#X connect 14 0 11 0;
#X connect 14 1 11 1;
#X connect 15 1 16 0;
#X connect 15 2 17 0;
#X connect 16 0 12 1;
#X connect 16 0 18 1;
#X connect 17 0 16 0;
#X connect 17 1 16 1;
#X connect 18 0 12 1;
#X connect 18 1 13 1;
#X connect 21 0 8 0;
#X connect 24 0 0 0;
#X connect 24 0 3 0;
#X connect 25 0 26 0;
#X connect 25 1 27 0;
#X connect 26 0 0 0;
#X connect 27 0 3 0;
#X restore 35 100 pd sensor;
#X obj 35 130 s sensor1;
#X obj 109 130 s sensor2;
#X obj 824 144 s mode;
#X obj 903 25 loadbang;
#X obj 42 74 tgl 19 0 empty empty empty 0 -10 0 12 #fcfcfc #000000 #000000 0 1;
#X text 59 73 send sensor reading to communciation;
#X obj 36 51 r debug;
#X obj 116 52 r takeover;
#X obj 57 685 *~;
#X obj 135 693 line~;
#X obj 136 640 loadbang;
#X msg 198 670 \$1 100;
#X obj 200 640 r volume;
#N canvas 47 74 450 300 limiter 0;
#X obj 62 191 *~;
#X obj 92 69 env~;
#X obj 92 91 dbtorms;
#X obj 92 135 -;
#X obj 92 157 lop~ 20;
#X msg 92 113 1 \$1;
#X obj 62 4 inlet~;
#X obj 62 266 outlet~;
#X connect 0 0 7 0;
#X connect 1 0 2 0;
#X connect 2 0 5 0;
#X connect 3 0 4 0;
#X connect 4 0 0 1;
#X connect 5 0 3 0;
#X connect 6 0 1 0;
#X connect 6 0 0 0;
#X restore 54 600 pd limiter;
#X obj 55 574 clip~ -1 1;
#X obj 152 211 r play;
#X obj 147 276 r inst;
#X obj 501 193 r sensor1;
#X obj 760 181 r sensor2;
#X obj 194 276 r mode;
#X obj 57 713 dac~;
#X obj 513 402 r mode;
#X obj 463 401 r inst;
#X msg 866 41 1;
#X msg 867 65 2;
#X msg 868 90 3;
#X obj 61 314 mode1_string_test, f 26;
#X obj 402 423 mode2_string;
#N canvas 294 23 986 752 LED_show 0;
#X obj 161 41 inlet strip1;
#X obj 282 38 inlet strip2;
#X obj 413 35 inlet action1;
#X obj 566 35 inlet action2;
#X obj 702 34 inlet reset;
#X obj 333 403 netsend -u -b;
#X msg 143 327 connect bela.local 7562;
#X obj 143 276 loadbang;
#X msg 143 303 connect 127.0.0.1 7562;
#X msg 143 381 disconnect;
#X obj 330 299 oscformat leds setRaw rgb;
#N canvas 255 258 892 520 LEDrgblist 0;
#X obj 225 63 inlet;
#X obj 279 431 outlet;
#X obj 631 76 inlet;
#X msg 329 69 0.8 1 0 255 0 0 0 0 0 0 0 0 0 1 1 1;
#X msg 301 38 0.2 0.1 0.3 255 0 0 0 0 0 0 0 0 0 1 1 1;
#N canvas 148 23 1132 647 rgbLED 0;
#X obj 284 310 sel 1 0;
#X msg 334 333 0 0 0;
#X obj 297 441 outlet;
#X obj 245 36 inlet list;
#X obj 288 199 zl slice 1;
#X obj 108 442 outlet;
#X obj 318 226 zl rev;
#X obj 233 79 zl slice 3;
#X obj 286 334 list;
#X obj 285 361 zl group 36;
#X msg 219 363 zlclear;
#X obj 295 401 t b a;
#X msg 360 38 0.8 1 0 255 1 0 1 1 0 0 0 0 0 1 1 1;
#X obj 286 257 zl iter 1;
#X connect 0 0 8 0;
#X connect 0 1 1 0;
#X connect 1 0 9 0;
#X connect 3 0 7 0;
#X connect 4 0 5 0;
#X connect 4 1 6 0;
#X connect 6 0 13 0;
#X connect 7 0 8 1;
#X connect 7 1 4 0;
#X connect 8 0 9 0;
#X connect 9 0 11 0;
#X connect 10 0 9 0;
#X connect 11 0 10 0;
#X connect 11 0 8 1;
#X connect 11 1 2 0;
#X connect 12 0 7 0;
#X connect 13 0 0 0;
#X restore 188 160 pd rgbLED;
#X obj 183 203 zl slice 3;
#X obj 141 296 list append 1 0;
#X obj 323 136 t a a;
#X obj 276 289 list append 1 1 1;
#X obj 458 214 sel 1 0;
#X obj 274 375 list;
#X obj 277 317 t b a;
#X obj 222 348 spigot 1;
#X obj 323 165 - 1;
#X obj 323 188 abs;
#X obj 135 266 list prepend 13;
#X obj 275 262 list prepend 12;
#X obj 624 105 tgl 19 0 empty empty empty 0 -10 0 12 #fcfcfc #000000 #000000 0 1;
#X msg 305 100 0.8 1 0 255 1 0 1 1 0 0 0 0 0 1 1 0;
#X msg 441 357 12 255 1 1 1;
#X connect 0 0 5 0;
#X connect 2 0 8 0;
#X connect 3 0 5 0;
#X connect 4 0 5 0;
#X connect 5 0 16 0;
#X connect 5 0 17 0;
#X connect 5 1 6 0;
#X connect 6 0 9 1;
#X connect 6 1 7 1;
#X connect 7 0 1 0;
#X connect 8 0 14 0;
#X connect 8 1 10 0;
#X connect 9 0 12 0;
#X connect 10 0 20 0;
#X connect 10 1 11 0;
#X connect 11 0 1 0;
#X connect 12 0 13 0;
#X connect 12 1 11 1;
#X connect 13 0 11 0;
#X connect 14 0 15 0;
#X connect 15 0 13 1;
#X connect 16 0 7 0;
#X connect 17 0 9 0;
#X connect 18 0 8 0;
#X connect 19 0 5 0;
#X connect 20 0 1 0;
#X restore 479 193 pd LEDrgblist;
#X obj 413 63 change;
#X obj 567 61 change;
#N canvas 357 23 892 520 LEDrgblist 0;
#N canvas 148 23 1132 647 rgbLED 0;
#X obj 286 294 sel 1 0;
#X msg 334 333 0 0 0;
#X obj 297 441 outlet;
#X obj 245 36 inlet list;
#X obj 286 257 zl iter 1;
#X obj 288 199 zl slice 1;
#X obj 108 442 outlet;
#X obj 318 226 zl rev;
#X obj 233 79 zl slice 3;
#X obj 286 334 list;
#X obj 285 361 zl group 36;
#X msg 219 363 zlclear;
#X obj 295 401 t b a;
#X msg 360 38 0.8 1 0 255 1 0 1 1 0 0 0 0 0 1 1 1;
#X obj 382 214 print;
#X connect 0 0 9 0;
#X connect 0 1 1 0;
#X connect 1 0 10 0;
#X connect 3 0 8 0;
#X connect 4 0 0 0;
#X connect 5 0 6 0;
#X connect 5 1 7 0;
#X connect 7 0 4 0;
#X connect 8 0 9 1;
#X connect 8 1 5 0;
#X connect 9 0 10 0;
#X connect 10 0 12 0;
#X connect 11 0 10 0;
#X connect 12 0 11 0;
#X connect 12 0 9 1;
#X connect 12 1 2 0;
#X connect 13 0 8 0;
#X restore 188 160 pd rgbLED;
#X obj 183 203 zl slice 3;
#X obj 141 296 list append 1 0;
#X obj 90 43 inlet;
#X obj 236 447 outlet;
#X obj 631 76 inlet;
#X obj 323 136 t a a;
#X obj 273 297 list append 1 1 1;
#X obj 458 214 sel 1 0;
#X obj 273 262 list prepend 0;
#X obj 135 266 list prepend 1;
#X obj 298 361 list;
#X obj 224 360 spigot 1;
#X obj 323 165 - 1;
#X obj 323 188 abs;
#X obj 270 322 t a a;
#X obj 576 116 tgl 19 0 empty empty empty 0 -10 0 12 #fcfcfc #000000 #000000 0 1;
#X msg 441 357 0 255 0 1 1;
#X connect 0 0 10 0;
#X connect 0 0 9 0;
#X connect 0 1 1 0;
#X connect 1 0 7 1;
#X connect 1 1 2 1;
#X connect 2 0 4 0;
#X connect 3 0 0 0;
#X connect 5 0 6 0;
#X connect 6 0 13 0;
#X connect 6 1 8 0;
#X connect 7 0 15 0;
#X connect 8 0 17 0;
#X connect 8 1 11 0;
#X connect 9 0 7 0;
#X connect 10 0 2 0;
#X connect 11 0 4 0;
#X connect 12 0 4 0;
#X connect 13 0 14 0;
#X connect 14 0 12 1;
#X connect 15 0 12 0;
#X connect 15 1 11 1;
#X connect 16 0 6 0;
#X connect 17 0 4 0;
#X restore 326 192 pd LEDrgblist;
#X msg 703 63 0 0 0 0 0 0 0 0 0 0 0 0 0 0 0 0;
#X connect 0 0 14 0;
#X connect 1 0 11 0;
#X connect 2 0 12 0;
#X connect 3 0 13 0;
#X connect 4 0 15 0;
#X connect 6 0 5 0;
#X connect 7 0 8 0;
#X connect 8 0 5 0;
#X connect 9 0 5 0;
#X connect 10 0 5 0;
#X connect 11 0 10 0;
#X connect 12 0 14 1;
#X connect 13 0 11 1;
#X connect 14 0 10 0;
#X connect 15 0 11 0;
#X connect 15 0 14 0;
#X restore 581 710 pd LED_show;
#X obj 581 622 r LEDstrip1;
#X obj 679 622 r LEDstrip2;
#X obj 714 689 r LEDaction1;
#X obj 713 712 r LEDaction2;
#X obj 770 623 r LEDreset;
#X text 587 729 LED output;
#X obj 598 418 mode3_sequencer, f 23;
#X obj 680 394 r mode;
#X obj 729 393 r resetD;
#N canvas 47 74 1050 704 ID_flash 0;
#X obj 268 65 r flash;
#X obj 268 89 t b b b;
#X obj 74 511 outlet;
#X obj 373 162 t b b b;
#X obj 317 117 del 200;
#X obj 422 190 del 200;
#X obj 466 222 t b b b;
#X obj 513 244 del 200;
#X obj 562 277 t b b b;
#X obj 611 305 del 200;
#X obj 292 143 del 100, f 9;
#X obj 398 216 del 100, f 9;
#X obj 490 276 del 100, f 9;
#X obj 586 331 del 100, f 9;
#X obj 75 436 LED_color;
#X msg 65 213 1 1 1 1 1 1 1 1 1 1 1 1;
#X msg 178 337 0 0 0 0 0 0 0 0 0 0 0 0;
#X obj 180 402 loadbang;
#X msg 179 427 1 1 1;
#X connect 0 0 1 0;
#X connect 1 0 15 0;
#X connect 1 1 10 0;
#X connect 1 2 4 0;
#X connect 3 0 15 0;
#X connect 3 1 11 0;
#X connect 3 2 5 0;
#X connect 4 0 3 0;
#X connect 5 0 6 0;
#X connect 6 0 15 0;
#X connect 6 1 12 0;
#X connect 6 2 7 0;
#X connect 7 0 8 0;
#X connect 8 0 15 0;
#X connect 8 1 13 0;
#X connect 8 2 9 0;
#X connect 10 0 16 0;
#X connect 11 0 16 0;
#X connect 12 0 16 0;
#X connect 13 0 16 0;
#X connect 14 0 2 0;
#X connect 15 0 14 0;
#X connect 16 0 14 0;
#X connect 17 0 18 0;
#X connect 18 0 14 1;
#X restore 375 661 pd ID_flash;
#X msg 864 16 0;
#N canvas 394 85 886 457 LED_initialfade 0;
#X obj 122 408 outlet;
#X obj 129 104 t b b;
#X obj 129 37 loadbang;
#X obj 91 178 line;
#X obj 174 136 del 3000;
#X msg 175 161 0 1000;
#X obj 256 136 del 5100;
#X obj 129 71 del 6000;
#X obj 228 373 LED_color;
#X msg 79 290 1 1 1 1 1 1 1 1 1 1 1 1;
#X msg 271 282 0 0 0 0 0 0 0 0 0 0 0 0 0;
#X msg 92 153 1 1000;
#X obj 249 345 pack 0 0 0;
#X obj 81 223 t b a a a;
#X obj 400 409 outlet;
#X obj 255 96 bng 19 250 50 0 empty empty empty 0 -10 0 12 #fcfcfc #000000 #000000;
#X obj 240 208 line;
#X msg 243 183 0 \, 255 1000;
#X msg 339 184 0 1000;
#X connect 1 0 11 0;
#X connect 1 0 17 0;
#X connect 1 1 4 0;
#X connect 1 1 6 0;
#X connect 2 0 7 0;
#X connect 3 0 13 0;
#X connect 4 0 5 0;
#X connect 4 0 18 0;
#X connect 5 0 3 0;
#X connect 6 0 10 0;
#X connect 6 0 14 0;
#X connect 7 0 1 0;
#X connect 8 0 0 0;
#X connect 9 0 8 0;
#X connect 10 0 8 0;
#X connect 11 0 3 0;
#X connect 12 0 8 1;
#X connect 13 0 9 0;
#X connect 13 1 12 0;
#X connect 13 2 12 1;
#X connect 13 3 12 2;
#X connect 15 0 1 0;
#X connect 16 0 8 2;
#X connect 17 0 16 0;
#X connect 18 0 16 0;
#X restore 429 629 pd LED_initialfade;
#N canvas 394 85 886 457 LED_initial_tester 0;
#X obj 205 562 outlet;
#X obj 129 104 t b b, f 7;
#X obj 130 13 loadbang;
#X msg 60 161 r 255 1 1 1 1 1 1 1 1 1 1 1 1;
#X msg 123 211 g 255 1 1 1 1 1 1 1 1 1 1 1 1;
#X msg 179 270 b 255 1 1 1 1 1 1 1 1 1 1 1 1;
#X msg 223 328 rg 255 1 1 1 1 1 1 1 1 1 1 1 1;
#X msg 278 384 gb 255 1 1 1 1 1 1 1 1 1 1 1 1;
#X msg 363 449 rb 255 1 1 1 1 1 1 1 1 1 1 1 1;
#X msg 364 507 rgb 255 1 1 1 1 1 1 1 1 1 1 1 1;
#X msg 74 184 rgb 0 0 0 0 0 0 0 0 0 0 0 0 0;
#X obj 320 153 del 100;
#X obj 308 129 del 2000;
#X msg 130 232 rgb 0 0 0 0 0 0 0 0 0 0 0 0 0;
#X obj 397 229 del 100;
#X msg 198 295 rgb 0 0 0 0 0 0 0 0 0 0 0 0 0;
#X obj 465 282 del 100;
#X msg 233 353 rgb 0 0 0 0 0 0 0 0 0 0 0 0 0;
#X msg 288 411 rgb 0 0 0 0 0 0 0 0 0 0 0 0 0;
#X obj 390 206 del 2000;
#X obj 452 260 del 2000;
#X obj 483 317 del 2000;
#X obj 490 349 del 100;
#X obj 512 376 del 2000;
#X obj 525 406 del 100;
#X obj 618 443 del 2000;
#X msg 375 473 rgb 0 0 0 0 0 0 0 0 0 0 0 0 0;
#X obj 628 467 del 100;
#X obj 731 513 del 2000;
#X msg 374 531 rgb 0 0 0 0 0 0 0 0 0 0 0 0 0;
#X obj 130 59 del 6000;
#X connect 1 0 3 0;
#X connect 1 1 12 0;
#X connect 2 0 30 0;
#X connect 3 0 0 0;
#X connect 4 0 0 0;
#X connect 5 0 0 0;
#X connect 6 0 0 0;
#X connect 7 0 0 0;
#X connect 8 0 0 0;
#X connect 9 0 0 0;
#X connect 10 0 0 0;
#X connect 11 0 4 0;
#X connect 11 0 19 0;
#X connect 12 0 10 0;
#X connect 12 0 11 0;
#X connect 13 0 0 0;
#X connect 14 0 5 0;
#X connect 14 0 20 0;
#X connect 15 0 0 0;
#X connect 16 0 6 0;
#X connect 16 0 21 0;
#X connect 17 0 0 0;
#X connect 18 0 0 0;
#X connect 19 0 13 0;
#X connect 19 0 14 0;
#X connect 20 0 16 0;
#X connect 20 0 15 0;
#X connect 21 0 17 0;
#X connect 21 0 22 0;
#X connect 22 0 7 0;
#X connect 22 0 23 0;
#X connect 23 0 18 0;
#X connect 23 0 24 0;
#X connect 24 0 8 0;
#X connect 24 0 25 0;
#X connect 25 0 26 0;
#X connect 25 0 27 0;
#X connect 26 0 0 0;
#X connect 27 0 9 0;
#X connect 27 0 28 0;
#X connect 28 0 29 0;
#X connect 29 0 0 0;
#X connect 30 0 1 0;
#X restore 411 717 pd LED_initial_tester;
#X obj 38 347 r mode;
#X obj 970 27 zmqReceiver;
#X obj 970 54 zmqSender;
#X obj 143 423 string_synth;
#X obj 236 367 sel 0 1 2 3;
#X msg 265 391 2;
#X msg 236 390 1;
#X obj 236 344 r inst;
#N canvas 47 74 995 502 muteMidi 0;
#X obj 88 197 pack 55 0;
#X text 165 173 mute!;
#X obj 89 171 uzi 127 0;
#X obj 89 148 t b;
#X obj 90 35 inlet;
#X obj 90 58 t b;
#X obj 88 226 outlet midinotes;
#X obj 193 58 t b;
#X obj 192 31 inlet;
#X obj 225 81 del 100;
#X obj 247 106 del 100;
#X obj 37 65 bng 19 250 50 0 empty empty empty 0 -10 0 12 #fcfcfc #000000 #000000;
#X connect 0 0 6 0;
#X connect 2 2 0 0;
#X connect 3 0 2 0;
#X connect 4 0 5 0;
#X connect 5 0 3 0;
#X connect 7 0 3 0;
#X connect 7 0 9 0;
#X connect 8 0 7 0;
#X connect 9 0 3 0;
#X connect 9 0 10 0;
#X connect 10 0 3 0;
#X connect 11 0 3 0;
#X restore 58 426 pd muteMidi;
#X obj 39 371 change;
#X obj 41 392 t b;
#X msg 31 315 0;
#X msg 371 423 0;
#X obj 581 646 spigot;
#X msg 633 647 1;
#X msg 730 647 1;
#X obj 679 647 spigot;
#X obj 38 454 s LEDreset;
#X obj 770 417 r jam;
#X obj 254 422 r mode;
#X msg 136 669 1 100;
#X msg 821 646 1;
#X obj 770 645 spigot;
#X obj 248 272 r tune;
#X obj 903 52 del 5000;
#X obj 271 295 r tuneG;
#X obj 272 320 r tuneA;
#X obj 812 347 mode4_celloAudition;
#X obj 143 390 switch 3 1;
#N canvas 442 255 838 479 modeswitch 0;
#X msg 166 121 1;
#X msg 197 120 2;
#X msg 261 119 3;
#X obj 171 95 sel 1 2 3 4;
#X msg 230 119 0;
#X obj 189 172 outlet;
#X obj 173 66 r mode;
#X connect 0 0 5 0;
#X connect 1 0 5 0;
#X connect 2 0 5 0;
#X connect 3 0 0 0;
#X connect 3 1 1 0;
#X connect 3 2 4 0;
#X connect 3 3 2 0;
#X connect 4 0 5 0;
#X connect 6 0 3 0;
#X restore 99 357 pd modeswitch;
#X msg 870 114 4;
#X obj 100 244 gate 4 1;
#X obj 456 216 gate 4;
#X obj 708 225 gate 4;
#X obj 949 324 r mode;
#X obj 901 324 r inst;
#X obj 99 213 r mode;
#X obj 450 192 r mode;
#X obj 705 181 r mode;
#X obj 139 485 *~;
#X obj 197 477 sig~;
#X msg 197 455 1;
#X obj 257 457 sel 4;
#X msg 292 481 1;
#X msg 259 480 3;
#X obj 137 543 sig~;
#X msg 137 521 1;
#X obj 1070 268 r my_id;
#X msg 1071 354 3;
#X obj 1070 382 s inst;
#X msg 169 522 3;
#X obj 56 536 *~;
#X obj 1071 29 loadbang;
#X obj 1073 79 s my_id;
#X obj 1071 297 > 60;
#X obj 1067 111 r my_id;
#X obj 1068 163 sel 1 0;
#X msg 1068 190 actor;
#X obj 1067 213 prepend symbol;
#X msg 1117 189 audience;
#X obj 263 666 print vol;
#X obj 414 248 change;
#X obj 461 247 change;
#X obj 521 246 change;
#X obj 571 246 change;
#X obj 641 248 change;
#X obj 691 251 change;
#X obj 742 251 change;
#X obj 793 253 change;
#X msg 1115 353 0;
#X obj 1071 327 sel 1 0;
#X msg 1070 55 59;
#X text 69 18 symphony main patch Sept28;
#X obj 205 522 r inst;
#X obj 206 545 == 3;
#X obj 206 569 sel 1 0;
#X obj 1068 133 < 7;
#X obj 1127 236 print role;
#X obj 1068 235 s role;
#X obj 599 441 *~ 1;
#X connect 1 0 2 0;
#X connect 1 1 3 0;
#X connect 5 0 68 0;
#X connect 6 0 1 0;
#X connect 8 0 1 0;
#X connect 10 0 22 0;
#X connect 10 0 22 1;
#X connect 11 0 10 1;
#X connect 12 0 64 0;
#X connect 13 0 11 0;
#X connect 14 0 13 0;
#X connect 14 0 104 0;
#X connect 15 0 10 0;
#X connect 16 0 15 0;
#X connect 17 0 75 1;
#X connect 18 0 28 3;
#X connect 19 0 76 1;
#X connect 20 0 77 1;
#X connect 21 0 28 4;
#X connect 23 0 29 4;
#X connect 24 0 29 3;
#X connect 25 0 4 0;
#X connect 26 0 4 0;
#X connect 27 0 4 0;
#X connect 28 0 72 1;
#X connect 28 1 83 1;
#X connect 29 0 72 2;
#X connect 31 0 57 0;
#X connect 32 0 60 0;
#X connect 33 0 30 2;
#X connect 34 0 30 3;
#X connect 35 0 66 0;
#X connect 37 0 123 0;
#X connect 38 0 37 4;
#X connect 39 0 37 5;
#X connect 40 0 30 0;
#X connect 40 0 30 1;
#X connect 41 0 4 0;
#X connect 42 0 30 0;
#X connect 42 0 30 1;
#X connect 42 1 58 0;
#X connect 42 1 59 0;
#X connect 42 1 65 0;
#X connect 42 1 85 0;
#X connect 44 0 53 0;
#X connect 47 0 83 0;
#X connect 48 0 50 0;
#X connect 48 1 50 0;
#X connect 48 2 50 0;
#X connect 48 3 49 0;
#X connect 49 0 47 1;
#X connect 50 0 47 1;
#X connect 51 0 48 0;
#X connect 52 0 47 0;
#X connect 53 0 54 0;
#X connect 54 0 52 1;
#X connect 54 0 56 0;
#X connect 54 0 61 0;
#X connect 54 0 55 0;
#X connect 55 0 28 0;
#X connect 56 0 29 0;
#X connect 57 0 30 0;
#X connect 58 0 57 1;
#X connect 59 0 60 1;
#X connect 60 0 30 1;
#X connect 62 0 37 6;
#X connect 63 0 47 2;
#X connect 63 0 86 0;
#X connect 64 0 11 0;
#X connect 65 0 66 1;
#X connect 66 0 30 4;
#X connect 67 0 28 5;
#X connect 68 0 25 0;
#X connect 69 0 28 6;
#X connect 70 0 28 7;
#X connect 71 0 72 3;
#X connect 72 0 47 0;
#X connect 73 0 72 0;
#X connect 74 0 4 0;
#X connect 75 0 28 0;
#X connect 75 1 29 0;
#X connect 75 2 37 0;
#X connect 75 3 71 0;
#X connect 76 0 105 0;
#X connect 76 1 106 0;
#X connect 76 2 107 0;
#X connect 76 3 108 0;
#X connect 77 0 109 0;
#X connect 77 1 110 0;
#X connect 77 2 111 0;
#X connect 77 3 112 0;
#X connect 78 0 71 4;
#X connect 79 0 71 3;
#X connect 80 0 75 0;
#X connect 81 0 76 0;
#X connect 82 0 77 0;
#X connect 83 0 95 0;
#X connect 84 0 83 1;
#X connect 85 0 84 0;
#X connect 86 0 88 0;
#X connect 86 1 87 0;
#X connect 87 0 84 0;
#X connect 88 0 84 0;
#X connect 89 0 95 1;
#X connect 90 0 89 0;
#X connect 91 0 98 0;
#X connect 92 0 93 0;
#X connect 94 0 89 0;
#X connect 95 0 16 0;
#X connect 96 0 115 0;
#X connect 98 0 114 0;
#X connect 99 0 120 0;
#X connect 100 0 101 0;
#X connect 100 1 103 0;
#X connect 101 0 102 0;
#X connect 102 0 121 0;
#X connect 102 0 122 0;
#X connect 103 0 102 0;
#X connect 105 0 28 1;
#X connect 106 0 29 1;
#X connect 107 0 37 1;
#X connect 108 0 71 1;
#X connect 109 0 28 2;
#X connect 110 0 29 2;
#X connect 111 0 37 2;
#X connect 112 0 71 2;
#X connect 113 0 93 0;
#X connect 114 0 92 0;
#X connect 114 1 113 0;
#X connect 115 0 97 0;
#X connect 117 0 118 0;
#X connect 118 0 119 0;
#X connect 119 0 94 0;
#X connect 119 1 90 0;
#X connect 120 0 100 0;
#X connect 123 0 95 0;
