#N canvas 47 74 988 690 12;
#X obj 276 129 route all;
#X obj 190 21 r my_id;
#X obj 100 32 inlet;
#X obj 100 157 outlet;
#X obj 100 64 route 1;
#X obj 160 96 route audience;
#X obj 282 36 r role;
#X connect 0 0 3 0;
#X connect 1 0 4 1;
#X connect 2 0 4 0;
#X connect 4 0 3 0;
#X connect 4 1 5 0;
#X connect 5 0 3 0;
#X connect 5 1 0 0;
#X connect 6 0 5 1;
