#N canvas 47 74 988 690 12;
#X obj 156 89 route all;
#X obj 190 21 r my_id;
#X obj 100 32 inlet;
#X obj 99 127 outlet;
#X obj 100 64 route 1;
#X connect 0 0 3 0;
#X connect 1 0 4 1;
#X connect 2 0 4 0;
#X connect 4 0 3 0;
#X connect 4 1 0 0;
