#N canvas 47 74 988 690 12;
#X obj 156 89 route all;
#X obj 100 64 route p1;
#X obj 190 21 r my_id;
#X obj 191 47 prepend symbol;
#X obj 100 32 inlet;
#X obj 99 127 outlet;
#X connect 0 0 5 0;
#X connect 1 0 5 0;
#X connect 1 1 0 0;
#X connect 2 0 3 0;
#X connect 3 0 1 1;
#X connect 4 0 1 0;
