#N canvas 283 23 926 741 12;
#X obj 43 -17 loadbang;
#X obj 44 34 metro 1000;
#X msg 43 7 1;
#X msg 192 -4 0;
#X obj 46 242 ether;
#X msg 46 215 wlan0;
#X obj 55 487 t b;
#X obj 47 268 list trim;
#X obj 98 486 t b;
#X obj 663 642 print unknown mac-address, f 14;
#X obj 138 486 t b;
#X obj 45 102 ipinfo;
#X msg 45 74 wlan0;
#X msg 104 72 en0;
#X obj 45 189 delay 500;
#X obj 126 660 s my_id;
#X obj 94 612 t b a;
#X obj 94 694 s wifi_ready;
#X obj 189 661 print ID;
#X obj 159 187 s my_ip;
#X obj 92 159 unpack s s;
#X obj 46 133 t b b l;
#X obj 175 485 t b;
#X obj 216 483 t b;
#X obj 257 482 t b;
#X obj 302 481 t b;
#X obj 150 260 print ether;
#X obj 117 120 print IP;
#X obj 767 541 t b;
#X msg 733 565 else;
#X msg 55 512 1;
#X msg 98 511 2;
#X msg 175 510 4;
#X msg 216 508 5;
#X msg 257 507 6;
#X msg 302 506 7;
#X msg 137 512 3;
#X obj 656 400 t b;
#X msg 656 425 61;
#X text 680 354 cello starts from 61;
#X obj 661 457 route 5C:62:8B:67:D2:9C, f 25;
#X obj 657 491 t b;
#X msg 657 516 100;
#X text 698 486 tester;
#X obj 352 480 t b;
#X msg 352 505 8;
#X obj 390 480 t b;
#X msg 390 505 9;
#X obj 429 479 t b;
#X msg 429 504 10;
#X obj 467 479 t b;
#X obj 505 479 t b;
#X obj 544 478 t b;
#X msg 467 504 11;
#X msg 505 504 12;
#X msg 544 503 13;
#X obj 579 477 t b;
#X obj 614 476 t b;
#X msg 579 502 14;
#X msg 616 500 15;
#X obj 699 401 t b;
#X msg 698 423 62;
#X obj 655 369 route 5C:62:8B:67:9B:46 5C:62:8B:67:AA:A2 5C:62:8B:67:E1:8B;
#X obj 739 403 t b;
#X msg 738 425 63;
#X obj 45 298 route 5C:62:8B:4C:05:F2 5C:62:8B:9E:02:4F 30:DE:4B:37:A6:63 5C:62:8B:9E:21:2A 5C:62:8B:9E:35:62 5C:62:8B:9D:E9:69 5C:62:8B:9D:F6:DC 5C:62:8B:9D:D2:BE 5C:62:8B:9D:E9:12 5C:62:8B:D8:59:34 5C:62:8B:9E:20:FD 5C:62:8B:67:9F:F8 5C:62:8B:9E:35:75 5C:62:8B:9D:E8:DC 5C:62:8B:67:9F:13, f 82;
#X connect 0 0 2 0;
#X connect 1 0 12 0;
#X connect 2 0 1 0;
#X connect 3 0 1 0;
#X connect 4 0 7 0;
#X connect 4 0 26 0;
#X connect 5 0 4 0;
#X connect 6 0 30 0;
#X connect 7 0 65 0;
#X connect 8 0 31 0;
#X connect 10 0 36 0;
#X connect 11 0 21 0;
#X connect 11 0 27 0;
#X connect 12 0 11 0;
#X connect 13 0 11 0;
#X connect 14 0 5 0;
#X connect 16 0 17 0;
#X connect 16 1 15 0;
#X connect 16 1 18 0;
#X connect 20 1 19 0;
#X connect 21 0 14 0;
#X connect 21 1 3 0;
#X connect 21 2 20 0;
#X connect 22 0 32 0;
#X connect 23 0 33 0;
#X connect 24 0 34 0;
#X connect 25 0 35 0;
#X connect 28 0 29 0;
#X connect 29 0 16 0;
#X connect 30 0 16 0;
#X connect 31 0 16 0;
#X connect 32 0 16 0;
#X connect 33 0 16 0;
#X connect 34 0 16 0;
#X connect 35 0 16 0;
#X connect 36 0 16 0;
#X connect 37 0 38 0;
#X connect 38 0 16 0;
#X connect 40 0 41 0;
#X connect 40 1 28 0;
#X connect 41 0 42 0;
#X connect 42 0 16 0;
#X connect 44 0 45 0;
#X connect 45 0 16 0;
#X connect 46 0 47 0;
#X connect 47 0 16 0;
#X connect 48 0 49 0;
#X connect 49 0 16 0;
#X connect 50 0 53 0;
#X connect 51 0 54 0;
#X connect 52 0 55 0;
#X connect 53 0 16 0;
#X connect 54 0 16 0;
#X connect 55 0 16 0;
#X connect 56 0 58 0;
#X connect 57 0 59 0;
#X connect 58 0 16 0;
#X connect 59 0 16 0;
#X connect 60 0 61 0;
#X connect 61 0 16 0;
#X connect 62 0 37 0;
#X connect 62 1 60 0;
#X connect 62 2 63 0;
#X connect 62 3 40 0;
#X connect 63 0 64 0;
#X connect 64 0 16 0;
#X connect 65 0 6 0;
#X connect 65 1 8 0;
#X connect 65 2 10 0;
#X connect 65 3 22 0;
#X connect 65 4 23 0;
#X connect 65 5 24 0;
#X connect 65 6 25 0;
#X connect 65 7 44 0;
#X connect 65 8 46 0;
#X connect 65 9 48 0;
#X connect 65 10 50 0;
#X connect 65 11 51 0;
#X connect 65 12 52 0;
#X connect 65 13 56 0;
#X connect 65 14 57 0;
#X connect 65 15 62 0;
