#N canvas 47 74 450 300 12;
#N canvas 0 23 450 300 handle_polyphony 0;
#X obj 37 37 inlet;
#X obj 37 149 pack 0 0 0;
#X obj 38 120 - 1;
#X obj 37 170 outlet;
#X obj 38 78 poly 8 1;
#X connect 0 0 4 0;
#X connect 1 0 3 0;
#X connect 2 0 1 0;
#X connect 4 0 2 0;
#X connect 4 1 1 1;
#X connect 4 2 1 2;
#X restore 396 499 pd handle_polyphony;
#X msg 383 74 rewind;
#X msg 211 49 track \$1;
#X obj 211 9 hradio 15 1 0 16 empty empty play_track_number 0 -6 0 12 #3c50fc #e8e828 #000000 0;
#X obj 211 26 - 1;
#X floatatom 166 46 5 0 0 0 - - - 0;
#X text 246 26 -1 = play all tracks;
#X obj 212 114 midifile;
#X obj 43 49 loadbang;
#X obj 775 427 pack 55 0;
#X text 823 374 mute!;
#X obj 247 341 == 0;
#X obj 247 392 gate 2 1;
#X obj 247 364 + 1;
#X obj 797 374 bng 19 250 50 0 empty empty empty 0 -10 0 12 #fcfcfc #000000 #000000;
#X obj 201 245 unpack;
#X obj 201 312 pack;
#X msg 289 74 1600;
#X obj 495 445 list;
#X obj 446 467 route bang;
#X obj 445 385 spigot;
#X obj 446 359 t b l l;
#X obj 788 173 ||;
#X obj 396 433 t l b;
#X obj 784 249 sel 1 0;
#X obj 826 148 t b a;
#X obj 787 197 change;
#X obj 397 567 string_synth;
#X obj 780 -37 inlet;
#X obj 850 -35 inlet;
#X obj 395 605 outlet~;
#X obj 551 -32 inlet;
#X obj 337 49 sel 1;
#X obj 551 -9 t a a a;
#X obj 529 22 sel 0;
#X obj 596 70 tgl 19 0 empty empty empty 0 -10 0 12 #fcfcfc #000000 #000000 0 1;
#X obj 252 139 print info;
#X obj 755 64 tgl 19 0 empty empty empty 0 -10 0 12 #fcfcfc #000000 #000000 0 1;
#X obj 868 72 tgl 19 0 empty empty empty 0 -10 0 12 #fcfcfc #000000 #000000 0 1;
#X obj 336 264 &&;
#X obj 785 223 t a b a a;
#X obj 336 291 tgl 19 0 empty empty empty 0 -10 0 12 #fcfcfc #000000 #000000 0 1;
#X obj 968 -29 inlet;
#X msg 38 90 read symphony_short.mid;
#X obj 551 99 metro 1;
#X obj 113 166 route 144 128;
#X obj 96 451 > 64;
#X obj 49 451 > 64;
#X obj 777 403 uzi 127 0;
#X obj 254 215 route 147;
#X obj 201 286 pipe f f 2000;
#X obj 498 245 &&;
#X obj 585 284 tgl 19 0 empty empty empty 0 -10 0 12 #fcfcfc #000000 #000000 0 1;
#X obj 890 349 del 100;
#X obj 497 52 t b b b;
#X obj 890 316 del 2000;
#N canvas 153 44 1127 701 ledstrip2 0;
#X obj 81 32 inlet;
#X obj 131 65 tgl 19 0 empty empty empty 0 -10 0 12 #fcfcfc #000000 #000000 0 1;
#X obj 81 95 pipe 125;
#X obj 81 64 t a a;
#X obj 130 131 tgl 19 0 empty empty empty 0 -10 0 12 #fcfcfc #000000 #000000 0 1;
#X obj 80 161 pipe 125;
#X obj 80 130 t a a;
#X obj 131 198 tgl 19 0 empty empty empty 0 -10 0 12 #fcfcfc #000000 #000000 0 1;
#X obj 81 228 pipe 125;
#X obj 81 197 t a a;
#X obj 132 267 tgl 19 0 empty empty empty 0 -10 0 12 #fcfcfc #000000 #000000 0 1;
#X obj 82 297 pipe 125;
#X obj 82 266 t a a;
#X obj 132 334 tgl 19 0 empty empty empty 0 -10 0 12 #fcfcfc #000000 #000000 0 1;
#X obj 82 364 pipe 125;
#X obj 82 333 t a a;
#X obj 131 400 tgl 19 0 empty empty empty 0 -10 0 12 #fcfcfc #000000 #000000 0 1;
#X obj 81 430 pipe 125;
#X obj 81 399 t a a;
#X obj 132 467 tgl 19 0 empty empty empty 0 -10 0 12 #fcfcfc #000000 #000000 0 1;
#X obj 82 497 pipe 125;
#X obj 82 466 t a a;
#X obj 843 664 outlet;
#X obj 105 654 outlet;
#X obj 317 69 tgl 19 0 empty empty empty 0 -10 0 12 #fcfcfc #000000 #000000 0 1;
#X obj 267 99 pipe 125;
#X obj 267 68 t a a;
#X obj 316 135 tgl 19 0 empty empty empty 0 -10 0 12 #fcfcfc #000000 #000000 0 1;
#X obj 266 165 pipe 125;
#X obj 266 134 t a a;
#X obj 317 202 tgl 19 0 empty empty empty 0 -10 0 12 #fcfcfc #000000 #000000 0 1;
#X obj 267 232 pipe 125;
#X obj 267 201 t a a;
#X obj 318 271 tgl 19 0 empty empty empty 0 -10 0 12 #fcfcfc #000000 #000000 0 1;
#X obj 268 301 pipe 125;
#X obj 268 270 t a a;
#X obj 318 338 tgl 19 0 empty empty empty 0 -10 0 12 #fcfcfc #000000 #000000 0 1;
#X obj 268 368 pipe 125;
#X obj 268 337 t a a;
#X obj 317 404 tgl 19 0 empty empty empty 0 -10 0 12 #fcfcfc #000000 #000000 0 1;
#X obj 267 434 pipe 125;
#X obj 267 403 t a a;
#X obj 318 471 tgl 19 0 empty empty empty 0 -10 0 12 #fcfcfc #000000 #000000 0 1;
#X obj 268 501 pipe 125;
#X obj 268 470 t a a;
#X obj 381 540 tgl 19 0 empty empty empty 0 -10 0 12 #fcfcfc #000000 #000000 0 1;
#X obj 269 539 t a b a;
#X obj 131 526 tgl 19 0 empty empty empty 0 -10 0 12 #fcfcfc #000000 #000000 0 1;
#X obj 81 556 pipe 125;
#X obj 81 525 t a a;
#X obj 655 625 pak 0 0 0 0 0 0 0 0 0 0 0 0 0 0 0 0, f 49;
#X connect 0 0 3 0;
#X connect 2 0 6 0;
#X connect 3 0 2 0;
#X connect 3 1 1 0;
#X connect 3 1 50 0;
#X connect 5 0 9 0;
#X connect 6 0 5 0;
#X connect 6 1 4 0;
#X connect 6 1 50 1;
#X connect 8 0 12 0;
#X connect 9 0 8 0;
#X connect 9 1 7 0;
#X connect 9 1 50 2;
#X connect 11 0 15 0;
#X connect 12 0 11 0;
#X connect 12 1 10 0;
#X connect 12 1 50 3;
#X connect 14 0 18 0;
#X connect 15 0 14 0;
#X connect 15 1 13 0;
#X connect 15 1 50 4;
#X connect 17 0 21 0;
#X connect 18 0 17 0;
#X connect 18 1 16 0;
#X connect 18 1 50 5;
#X connect 20 0 49 0;
#X connect 21 0 20 0;
#X connect 21 1 19 0;
#X connect 21 1 50 6;
#X connect 25 0 29 0;
#X connect 26 0 25 0;
#X connect 26 1 24 0;
#X connect 26 1 50 8;
#X connect 28 0 32 0;
#X connect 29 0 28 0;
#X connect 29 1 27 0;
#X connect 29 1 50 9;
#X connect 31 0 35 0;
#X connect 32 0 31 0;
#X connect 32 1 30 0;
#X connect 32 1 50 10;
#X connect 34 0 38 0;
#X connect 35 0 34 0;
#X connect 35 1 33 0;
#X connect 35 1 50 11;
#X connect 37 0 41 0;
#X connect 38 0 37 0;
#X connect 38 1 36 0;
#X connect 38 1 50 12;
#X connect 40 0 44 0;
#X connect 41 0 40 0;
#X connect 41 1 39 0;
#X connect 41 1 50 13;
#X connect 43 0 46 0;
#X connect 44 0 43 0;
#X connect 44 1 42 0;
#X connect 44 1 50 14;
#X connect 46 0 23 0;
#X connect 46 1 50 0;
#X connect 46 2 45 0;
#X connect 46 2 50 15;
#X connect 48 0 26 0;
#X connect 49 0 48 0;
#X connect 49 1 47 0;
#X connect 49 1 50 7;
#X connect 50 0 22 0;
#X restore 505 184 pd ledstrip2;
#N canvas 153 44 1127 701 ledstrip1 0;
#X obj 81 32 inlet;
#X obj 131 65 tgl 19 0 empty empty empty 0 -10 0 12 #fcfcfc #000000 #000000 0 1;
#X obj 81 95 pipe 125;
#X obj 81 64 t a a;
#X obj 130 131 tgl 19 0 empty empty empty 0 -10 0 12 #fcfcfc #000000 #000000 0 1;
#X obj 80 161 pipe 125;
#X obj 80 130 t a a;
#X obj 131 198 tgl 19 0 empty empty empty 0 -10 0 12 #fcfcfc #000000 #000000 0 1;
#X obj 81 228 pipe 125;
#X obj 81 197 t a a;
#X obj 132 267 tgl 19 0 empty empty empty 0 -10 0 12 #fcfcfc #000000 #000000 0 1;
#X obj 82 297 pipe 125;
#X obj 82 266 t a a;
#X obj 132 334 tgl 19 0 empty empty empty 0 -10 0 12 #fcfcfc #000000 #000000 0 1;
#X obj 82 364 pipe 125;
#X obj 82 333 t a a;
#X obj 131 400 tgl 19 0 empty empty empty 0 -10 0 12 #fcfcfc #000000 #000000 0 1;
#X obj 81 430 pipe 125;
#X obj 81 399 t a a;
#X obj 132 467 tgl 19 0 empty empty empty 0 -10 0 12 #fcfcfc #000000 #000000 0 1;
#X obj 82 497 pipe 125;
#X obj 82 466 t a a;
#X obj 843 664 outlet;
#X obj 105 654 outlet;
#X obj 317 69 tgl 19 0 empty empty empty 0 -10 0 12 #fcfcfc #000000 #000000 0 1;
#X obj 267 99 pipe 125;
#X obj 267 68 t a a;
#X obj 316 135 tgl 19 0 empty empty empty 0 -10 0 12 #fcfcfc #000000 #000000 0 1;
#X obj 266 165 pipe 125;
#X obj 266 134 t a a;
#X obj 317 202 tgl 19 0 empty empty empty 0 -10 0 12 #fcfcfc #000000 #000000 0 1;
#X obj 267 232 pipe 125;
#X obj 267 201 t a a;
#X obj 318 271 tgl 19 0 empty empty empty 0 -10 0 12 #fcfcfc #000000 #000000 0 1;
#X obj 268 301 pipe 125;
#X obj 268 270 t a a;
#X obj 318 338 tgl 19 0 empty empty empty 0 -10 0 12 #fcfcfc #000000 #000000 0 1;
#X obj 268 368 pipe 125;
#X obj 268 337 t a a;
#X obj 317 404 tgl 19 0 empty empty empty 0 -10 0 12 #fcfcfc #000000 #000000 0 1;
#X obj 267 434 pipe 125;
#X obj 267 403 t a a;
#X obj 318 471 tgl 19 0 empty empty empty 0 -10 0 12 #fcfcfc #000000 #000000 0 1;
#X obj 268 501 pipe 125;
#X obj 268 470 t a a;
#X obj 381 540 tgl 19 0 empty empty empty 0 -10 0 12 #fcfcfc #000000 #000000 0 1;
#X obj 269 539 t a b a;
#X obj 131 526 tgl 19 0 empty empty empty 0 -10 0 12 #fcfcfc #000000 #000000 0 1;
#X obj 81 556 pipe 125;
#X obj 81 525 t a a;
#X obj 655 625 pak 0 0 0 0 0 0 0 0 0 0 0 0 0 0 0 0, f 49;
#X connect 0 0 3 0;
#X connect 2 0 6 0;
#X connect 3 0 2 0;
#X connect 3 1 1 0;
#X connect 3 1 50 0;
#X connect 5 0 9 0;
#X connect 6 0 5 0;
#X connect 6 1 4 0;
#X connect 6 1 50 1;
#X connect 8 0 12 0;
#X connect 9 0 8 0;
#X connect 9 1 7 0;
#X connect 9 1 50 2;
#X connect 11 0 15 0;
#X connect 12 0 11 0;
#X connect 12 1 10 0;
#X connect 12 1 50 3;
#X connect 14 0 18 0;
#X connect 15 0 14 0;
#X connect 15 1 13 0;
#X connect 15 1 50 4;
#X connect 17 0 21 0;
#X connect 18 0 17 0;
#X connect 18 1 16 0;
#X connect 18 1 50 5;
#X connect 20 0 49 0;
#X connect 21 0 20 0;
#X connect 21 1 19 0;
#X connect 21 1 50 6;
#X connect 25 0 29 0;
#X connect 26 0 25 0;
#X connect 26 1 24 0;
#X connect 26 1 50 8;
#X connect 28 0 32 0;
#X connect 29 0 28 0;
#X connect 29 1 27 0;
#X connect 29 1 50 9;
#X connect 31 0 35 0;
#X connect 32 0 31 0;
#X connect 32 1 30 0;
#X connect 32 1 50 10;
#X connect 34 0 38 0;
#X connect 35 0 34 0;
#X connect 35 1 33 0;
#X connect 35 1 50 11;
#X connect 37 0 41 0;
#X connect 38 0 37 0;
#X connect 38 1 36 0;
#X connect 38 1 50 12;
#X connect 40 0 44 0;
#X connect 41 0 40 0;
#X connect 41 1 39 0;
#X connect 41 1 50 13;
#X connect 43 0 46 0;
#X connect 44 0 43 0;
#X connect 44 1 42 0;
#X connect 44 1 50 14;
#X connect 46 0 23 0;
#X connect 46 2 45 0;
#X connect 46 2 50 15;
#X connect 48 0 26 0;
#X connect 49 0 48 0;
#X connect 49 1 47 0;
#X connect 49 1 50 7;
#X connect 50 0 22 0;
#X restore 343 185 pd ledstrip1;
#X msg 911 40 147;
#X text 1029 -18 instrument num;
#X obj 958 4 sel 0 1 2 3;
#X obj 967 113 s instnum;
#X obj 344 139 r instnum;
#X obj 158 425 route 54 55;
#X obj 50 425 route 102 103;
#X obj 72 329 gate 2 1;
#X msg 1070 68 2;
#X msg 922 68 1;
#X obj 199 450 > 64;
#X obj 159 451 > 64;
#X obj 749 367 t b;
#X obj 890 381 del 100;
#X obj 291 470 route end;
#X obj 289 518 t b;
#X msg 336 104 80000;
#X obj 290 494 route 7;
#X obj 290 567 del 2000;
#X obj 498 569 string_synth_c;
#X obj 400 534 gate 2 1;
#X obj 63 144 print;
#X msg 1031 47 150;
#X msg 956 45 148;
#X msg 992 45 149;
#X obj 1189 101 switch~;
#X obj 1189 -31 inlet;
#X obj 1188 66 == 1;
#X text 1200 -2 mode enable;
#X obj 814 647 s LEDstrip1;
#X obj 904 647 s LEDstrip2;
#X obj 993 646 s LEDaction1;
#X obj 1091 647 s LEDaction2;
#X obj 1065 565 s LEDreset;
#X connect 0 0 78 1;
#X connect 2 0 7 0;
#X connect 3 0 4 0;
#X connect 4 0 2 0;
#X connect 4 0 5 0;
#X connect 7 0 45 0;
#X connect 7 0 79 0;
#X connect 7 2 36 0;
#X connect 7 2 72 0;
#X connect 8 0 43 0;
#X connect 9 0 0 0;
#X connect 11 0 13 0;
#X connect 12 0 21 0;
#X connect 12 1 23 0;
#X connect 13 0 12 0;
#X connect 14 0 48 0;
#X connect 15 0 50 0;
#X connect 15 1 50 1;
#X connect 16 0 12 1;
#X connect 17 0 7 0;
#X connect 18 0 19 0;
#X connect 19 1 0 0;
#X connect 20 0 19 0;
#X connect 21 1 18 1;
#X connect 21 2 20 0;
#X connect 22 0 26 0;
#X connect 23 0 0 0;
#X connect 23 1 18 1;
#X connect 24 0 18 0;
#X connect 24 1 48 0;
#X connect 25 0 22 0;
#X connect 25 1 22 1;
#X connect 26 0 40 0;
#X connect 27 0 30 0;
#X connect 28 0 22 0;
#X connect 29 0 25 0;
#X connect 31 0 33 0;
#X connect 32 0 1 0;
#X connect 33 0 34 0;
#X connect 33 1 44 0;
#X connect 33 2 32 0;
#X connect 34 0 54 0;
#X connect 35 0 33 0;
#X connect 37 0 22 0;
#X connect 38 0 25 0;
#X connect 39 0 41 0;
#X connect 40 0 24 0;
#X connect 40 1 39 0;
#X connect 40 1 51 0;
#X connect 40 2 39 1;
#X connect 40 2 51 1;
#X connect 40 3 20 1;
#X connect 42 0 60 0;
#X connect 43 0 7 0;
#X connect 44 0 7 0;
#X connect 45 0 65 1;
#X connect 45 1 65 1;
#X connect 45 2 49 0;
#X connect 46 0 56 0;
#X connect 47 0 57 0;
#X connect 48 2 9 0;
#X connect 49 0 15 0;
#X connect 50 0 16 0;
#X connect 50 1 16 1;
#X connect 50 1 11 0;
#X connect 51 0 52 0;
#X connect 53 0 70 0;
#X connect 53 0 71 0;
#X connect 54 0 70 0;
#X connect 54 2 55 0;
#X connect 55 0 53 0;
#X connect 55 0 70 0;
#X connect 56 0 51 0;
#X connect 57 0 39 0;
#X connect 58 0 61 0;
#X connect 60 0 58 0;
#X connect 60 0 67 0;
#X connect 60 1 81 0;
#X connect 60 1 67 0;
#X connect 60 2 82 0;
#X connect 60 2 67 0;
#X connect 60 3 80 0;
#X connect 60 3 66 0;
#X connect 62 0 49 1;
#X connect 63 0 69 0;
#X connect 63 1 68 0;
#X connect 64 0 47 0;
#X connect 64 1 46 0;
#X connect 65 0 64 0;
#X connect 65 1 63 0;
#X connect 66 0 65 0;
#X connect 66 0 78 0;
#X connect 67 0 65 0;
#X connect 67 0 78 0;
#X connect 68 0 56 0;
#X connect 69 0 57 0;
#X connect 70 0 48 0;
#X connect 71 0 70 0;
#X connect 72 0 75 0;
#X connect 73 0 76 0;
#X connect 74 0 7 0;
#X connect 75 0 73 0;
#X connect 76 0 55 0;
#X connect 77 0 30 0;
#X connect 78 0 27 0;
#X connect 78 1 77 0;
#X connect 80 0 61 0;
#X connect 81 0 61 0;
#X connect 82 0 61 0;
#X connect 84 0 85 0;
#X connect 85 0 83 0;
