#N canvas 118 23 1087 755 12;
#X obj 26 105 midifile;
#X obj 25 -7 loadbang;
#X obj 54 231 unpack;
#X obj 671 -2 change;
#X obj 671 -29 inlet;
#X obj 809 -28 inlet;
#X obj 551 -32 inlet;
#X obj 298 19 sel 1;
#X obj 553 -4 t a a a;
#X obj 550 25 sel 0;
#X obj 598 -31 tgl 19 0 empty empty empty 0 -10 0 12 #fcfcfc #000000 #000000 0 1;
#X obj 732 0 tgl 19 0 empty empty empty 0 -10 0 12 #fcfcfc #000000 #000000 0 1;
#X obj 865 3 tgl 19 0 empty empty empty 0 -10 0 12 #fcfcfc #000000 #000000 0 1;
#X obj 401 317 &&;
#X obj 957 -31 inlet;
#X obj 495 315 &&;
#N canvas 153 77 1127 701 ledstrip2 0;
#X obj 81 32 inlet;
#X obj 642 674 outlet;
#X obj 105 654 outlet;
#X obj 570 40 inlet;
#X obj 333 647 outlet;
#X obj 131 65 tgl 19 0 empty empty empty 0 -10 0 12 #fcfcfc #000000 #000000 0 1;
#X obj 81 64 t a a;
#X obj 130 131 tgl 19 0 empty empty empty 0 -10 0 12 #fcfcfc #000000 #000000 0 1;
#X obj 80 130 t a a;
#X obj 131 198 tgl 19 0 empty empty empty 0 -10 0 12 #fcfcfc #000000 #000000 0 1;
#X obj 81 197 t a a;
#X obj 131 318 tgl 19 0 empty empty empty 0 -10 0 12 #fcfcfc #000000 #000000 0 1;
#X obj 81 317 t a a;
#X obj 130 384 tgl 19 0 empty empty empty 0 -10 0 12 #fcfcfc #000000 #000000 0 1;
#X obj 80 383 t a a;
#X obj 295 92 tgl 19 0 empty empty empty 0 -10 0 12 #fcfcfc #000000 #000000 0 1;
#X obj 245 91 t a a;
#X obj 296 161 tgl 19 0 empty empty empty 0 -10 0 12 #fcfcfc #000000 #000000 0 1;
#X obj 246 160 t a a;
#X obj 296 228 tgl 19 0 empty empty empty 0 -10 0 12 #fcfcfc #000000 #000000 0 1;
#X obj 246 227 t a a;
#X obj 295 294 tgl 19 0 empty empty empty 0 -10 0 12 #fcfcfc #000000 #000000 0 1;
#X obj 245 293 t a a;
#X obj 296 361 tgl 19 0 empty empty empty 0 -10 0 12 #fcfcfc #000000 #000000 0 1;
#X obj 246 360 t a a;
#X obj 307 496 tgl 19 0 empty empty empty 0 -10 0 12 #fcfcfc #000000 #000000 0 1;
#X obj 248 499 t a b a;
#X obj 130 257 tgl 19 0 empty empty empty 0 -10 0 12 #fcfcfc #000000 #000000 0 1;
#X obj 80 256 t a a;
#X msg 573 112 clear;
#X obj 275 537 ||;
#X obj 247 418 route 0;
#X msg 248 472 0;
#X obj 572 78 t b b;
#X msg 533 73 0;
#X msg 635 112 0 0 0 0 0 0 0 0 0 0 0 0;
#X obj 655 625 pak 0 0 0 0 0 0 0 0 0 0 0 0, f 49;
#X obj 133 32 tgl 19 0 empty empty empty 0 -10 0 12 #fcfcfc #000000 #000000 0 1;
#X msg 645 170 set 0 0 0 0 0 0 0 0 0 0 0 0;
#X obj 247 447 delay 300;
#X obj 80 160 pipe 145;
#X obj 83 228 pipe 145;
#X obj 80 287 pipe 145;
#X obj 82 347 pipe 145;
#X obj 247 66 pipe 145;
#X obj 245 122 pipe 145;
#X obj 246 191 pipe 145;
#X obj 246 257 pipe 145;
#X obj 245 324 pipe 145;
#X obj 246 392 pipe 145;
#X obj 82 95 pipe 150;
#X connect 0 0 6 0;
#X connect 3 0 33 0;
#X connect 6 0 50 0;
#X connect 6 1 5 0;
#X connect 6 1 36 0;
#X connect 8 0 40 0;
#X connect 8 1 7 0;
#X connect 8 1 36 1;
#X connect 10 0 41 0;
#X connect 10 1 9 0;
#X connect 10 1 36 2;
#X connect 12 0 43 0;
#X connect 12 1 11 0;
#X connect 12 1 36 4;
#X connect 14 0 44 0;
#X connect 14 1 13 0;
#X connect 14 1 36 5;
#X connect 16 0 45 0;
#X connect 16 1 15 0;
#X connect 16 1 36 6;
#X connect 18 0 46 0;
#X connect 18 1 17 0;
#X connect 18 1 36 7;
#X connect 20 0 47 0;
#X connect 20 1 19 0;
#X connect 20 1 36 8;
#X connect 22 0 48 0;
#X connect 22 1 21 0;
#X connect 22 1 36 9;
#X connect 24 0 49 0;
#X connect 24 1 23 0;
#X connect 24 1 30 0;
#X connect 24 1 36 10;
#X connect 26 0 2 0;
#X connect 26 1 30 0;
#X connect 26 2 25 0;
#X connect 26 2 30 1;
#X connect 28 0 42 0;
#X connect 28 1 27 0;
#X connect 28 1 36 3;
#X connect 29 0 40 0;
#X connect 29 0 41 0;
#X connect 29 0 42 0;
#X connect 29 0 43 0;
#X connect 29 0 44 0;
#X connect 29 0 45 0;
#X connect 29 0 46 0;
#X connect 29 0 47 0;
#X connect 29 0 48 0;
#X connect 29 0 49 0;
#X connect 29 0 50 0;
#X connect 30 0 4 0;
#X connect 30 0 36 11;
#X connect 31 0 39 0;
#X connect 31 1 26 0;
#X connect 32 0 26 0;
#X connect 33 0 35 0;
#X connect 33 0 34 0;
#X connect 33 0 38 0;
#X connect 33 1 29 0;
#X connect 35 0 1 0;
#X connect 36 0 1 0;
#X connect 37 0 6 0;
#X connect 38 0 36 0;
#X connect 39 0 32 0;
#X connect 40 0 10 0;
#X connect 41 0 28 0;
#X connect 42 0 12 0;
#X connect 43 0 14 0;
#X connect 44 0 16 0;
#X connect 45 0 18 0;
#X connect 46 0 20 0;
#X connect 47 0 22 0;
#X connect 48 0 24 0;
#X connect 49 0 31 0;
#X connect 50 0 8 0;
#X restore 455 247 pd ledstrip2;
#N canvas 153 77 1127 701 ledstrip1 0;
#X obj 81 32 inlet;
#X obj 639 659 outlet;
#X obj 78 651 outlet;
#X obj 572 42 inlet;
#X obj 280 650 outlet;
#X obj 132 32 tgl 19 0 empty empty empty 0 -10 0 12 #fcfcfc #000000 #000000 0 1;
#X obj 131 65 tgl 19 0 empty empty empty 0 -10 0 12 #fcfcfc #000000 #000000 0 1;
#X obj 81 64 t a a;
#X obj 130 131 tgl 19 0 empty empty empty 0 -10 0 12 #fcfcfc #000000 #000000 0 1;
#X obj 80 130 t a a;
#X obj 131 198 tgl 19 0 empty empty empty 0 -10 0 12 #fcfcfc #000000 #000000 0 1;
#X obj 81 197 t a a;
#X obj 131 318 tgl 19 0 empty empty empty 0 -10 0 12 #fcfcfc #000000 #000000 0 1;
#X obj 81 317 t a a;
#X obj 130 384 tgl 19 0 empty empty empty 0 -10 0 12 #fcfcfc #000000 #000000 0 1;
#X obj 80 383 t a a;
#X obj 295 92 tgl 19 0 empty empty empty 0 -10 0 12 #fcfcfc #000000 #000000 0 1;
#X obj 245 91 t a a;
#X obj 296 161 tgl 19 0 empty empty empty 0 -10 0 12 #fcfcfc #000000 #000000 0 1;
#X obj 246 160 t a a;
#X obj 296 228 tgl 19 0 empty empty empty 0 -10 0 12 #fcfcfc #000000 #000000 0 1;
#X obj 246 227 t a a;
#X obj 295 294 tgl 19 0 empty empty empty 0 -10 0 12 #fcfcfc #000000 #000000 0 1;
#X obj 245 293 t a a;
#X obj 296 361 tgl 19 0 empty empty empty 0 -10 0 12 #fcfcfc #000000 #000000 0 1;
#X obj 246 360 t a a;
#X obj 307 496 tgl 19 0 empty empty empty 0 -10 0 12 #fcfcfc #000000 #000000 0 1;
#X obj 248 499 t a b a;
#X obj 130 257 tgl 19 0 empty empty empty 0 -10 0 12 #fcfcfc #000000 #000000 0 1;
#X obj 80 256 t a a;
#X msg 573 112 clear;
#X obj 287 546 ||;
#X obj 247 418 route 0;
#X msg 191 472 0;
#X obj 572 78 t b b;
#X msg 533 73 0;
#X msg 635 112 0 0 0 0 0 0 0 0 0 0 0 0;
#X obj 655 625 pak 0 0 0 0 0 0 0 0 0 0 0 0, f 49;
#X msg 664 193 set 0 0 0 0 0 0 0 0 0 0 0 0;
#X obj 190 447 delay 300;
#X obj 321 542 tgl 19 0 empty empty empty 0 -10 0 12 #fcfcfc #000000 #000000 0 1;
#X obj 80 161 pipe 145;
#X obj 81 228 pipe 145;
#X obj 80 287 pipe 145;
#X obj 82 348 pipe 145;
#X obj 246 66 pipe 145;
#X obj 245 122 pipe 145;
#X obj 246 191 pipe 145;
#X obj 246 257 pipe 145;
#X obj 245 324 pipe 145;
#X obj 246 391 pipe 145;
#X obj 81 95 pipe 150;
#X connect 0 0 7 0;
#X connect 3 0 34 0;
#X connect 5 0 7 0;
#X connect 7 0 51 0;
#X connect 7 1 6 0;
#X connect 7 1 37 0;
#X connect 9 0 41 0;
#X connect 9 1 8 0;
#X connect 9 1 37 1;
#X connect 11 0 42 0;
#X connect 11 1 10 0;
#X connect 11 1 37 2;
#X connect 13 0 44 0;
#X connect 13 1 12 0;
#X connect 13 1 37 4;
#X connect 15 0 45 0;
#X connect 15 1 14 0;
#X connect 15 1 37 5;
#X connect 17 0 46 0;
#X connect 17 1 16 0;
#X connect 17 1 37 6;
#X connect 19 0 47 0;
#X connect 19 1 18 0;
#X connect 19 1 37 7;
#X connect 21 0 48 0;
#X connect 21 1 20 0;
#X connect 21 1 37 8;
#X connect 23 0 49 0;
#X connect 23 1 22 0;
#X connect 23 1 37 9;
#X connect 25 0 50 0;
#X connect 25 1 24 0;
#X connect 25 1 31 0;
#X connect 25 1 37 10;
#X connect 27 0 2 0;
#X connect 27 1 31 0;
#X connect 27 2 31 1;
#X connect 27 2 26 0;
#X connect 29 0 43 0;
#X connect 29 1 28 0;
#X connect 29 1 37 3;
#X connect 30 0 41 0;
#X connect 30 0 42 0;
#X connect 30 0 43 0;
#X connect 30 0 44 0;
#X connect 30 0 45 0;
#X connect 30 0 46 0;
#X connect 30 0 47 0;
#X connect 30 0 48 0;
#X connect 30 0 49 0;
#X connect 30 0 50 0;
#X connect 30 0 51 0;
#X connect 31 0 4 0;
#X connect 31 0 40 0;
#X connect 31 0 37 11;
#X connect 32 0 39 0;
#X connect 32 1 27 0;
#X connect 33 0 27 0;
#X connect 34 0 36 0;
#X connect 34 0 35 0;
#X connect 34 0 38 0;
#X connect 34 1 30 0;
#X connect 36 0 1 0;
#X connect 37 0 1 0;
#X connect 38 0 37 0;
#X connect 39 0 33 0;
#X connect 41 0 11 0;
#X connect 42 0 29 0;
#X connect 43 0 13 0;
#X connect 44 0 15 0;
#X connect 45 0 17 0;
#X connect 46 0 19 0;
#X connect 47 0 21 0;
#X connect 48 0 23 0;
#X connect 49 0 25 0;
#X connect 50 0 32 0;
#X connect 51 0 9 0;
#X restore 319 241 pd ledstrip1;
#X msg 929 32 147;
#X text 1006 -31 instrument num;
#X obj 958 4 sel 0 1 2 3;
#X obj 1094 56 s instnum;
#X msg 1020 69 2;
#X msg 973 70 1;
#X msg 1049 33 150;
#X msg 974 31 148;
#X msg 1010 31 149;
#X obj 1189 101 switch~;
#X obj 1189 -31 inlet;
#X text 1200 -2 mode enable;
#X obj 298 609 s LEDstrip1;
#X obj 490 605 s LEDstrip2;
#X obj 398 381 s LEDaction1;
#X obj 497 383 s LEDaction2;
#X obj 743 600 s LEDreset;
#X text 1094 35 midi channel;
#X obj 809 2 change;
#X obj 752 80 ||;
#X obj 806 39 t b a;
#X obj 25 21 t b b;
#X msg 133 227 clear;
#X obj 400 286 t b a;
#X obj 494 288 t b a;
#X obj 447 304 tgl 19 0 empty empty empty 0 -10 0 12 #fcfcfc #000000 #000000 0 1;
#X obj 227 83 metro 1;
#X obj 546 307 tgl 19 0 empty empty empty 0 -10 0 12 #fcfcfc #000000 #000000 0 1;
#X obj 53 406 pack 0 0;
#X obj 105 371 switch 2 1;
#X msg 138 349 0;
#X obj 265 300 + 1;
#X obj 139 331 t b a a;
#X obj 265 370 i;
#X obj 265 390 t b a;
#X obj 265 323 change;
#X obj 52 560 outlet;
#X text 500 -30 play;
#X msg 460 276 0;
#X msg 62 351 0;
#N canvas 47 74 995 502 muteMidi 0;
#X obj 88 197 pack 55 0;
#X text 165 173 mute!;
#X obj 89 171 uzi 127 0;
#X obj 89 148 t b;
#X obj 90 35 inlet;
#X obj 90 58 t b;
#X obj 88 226 outlet midinotes;
#X obj 193 58 t b;
#X obj 192 31 inlet;
#X obj 225 81 del 100;
#X obj 247 106 del 100;
#X connect 0 0 6 0;
#X connect 2 2 0 0;
#X connect 3 0 2 0;
#X connect 4 0 5 0;
#X connect 5 0 3 0;
#X connect 7 0 3 0;
#X connect 7 0 9 0;
#X connect 8 0 7 0;
#X connect 9 0 3 0;
#X connect 9 0 10 0;
#X connect 10 0 3 0;
#X restore 100 513 pd muteMidi;
#X obj 52 483 spigot;
#X text 717 -29 sensor1;
#X text 860 -26 sensor2;
#X obj 490 522 LED_color;
#X obj 302 519 LED_color;
#X msg 549 482 0 0.5 1;
#X obj 375 452 loadbang;
#X obj 265 345 sel 2 1;
#X msg 358 479 0.4 1 0;
#X msg 26 48 read cello_audition.mid;
#X msg 1214 33 4;
#X floatatom 87 142 10 0 0 0 - - - 0;
#X obj 27 165 route 157;
#X obj 1188 66 == 4;
#X msg 30 73 track 10;
#X obj 172 118 route bang;
#X msg 300 44 73000;
#N canvas 431 406 824 369 LEDcounter 1;
#X msg 199 265 1 1 1 1 1 1 1 1 1 1 1 1;
#N canvas 229 268 814 510 tick1 0;
#X obj 55 65 t b b b;
#X msg 131 96 80;
#X msg 225 111 0;
#X obj 170 106 t b b;
#X msg 233 135 0 0 0 0 0 0 0 0 0 0 0 0;
#X obj 76 33 inlet;
#X obj 66 190 outlet;
#X obj 153 193 outlet;
#X msg 57 135 1 1 1 0 0 0 0 0 0 0 0 0;
#X obj 170 82 del 200;
#X connect 0 0 8 0;
#X connect 0 1 1 0;
#X connect 0 2 9 0;
#X connect 1 0 7 0;
#X connect 2 0 7 0;
#X connect 3 0 4 0;
#X connect 3 1 2 0;
#X connect 4 0 6 0;
#X connect 5 0 0 0;
#X connect 8 0 6 0;
#X connect 9 0 3 0;
#X restore 94 102 pd tick1;
#N canvas 229 268 814 510 tick2 0;
#X obj 55 65 t b b b;
#X msg 131 96 80;
#X obj 170 82 del 100;
#X msg 225 111 0;
#X obj 170 106 t b b;
#X msg 233 135 0 0 0 0 0 0 0 0 0 0 0 0;
#X obj 76 33 inlet;
#X obj 66 190 outlet;
#X obj 153 193 outlet;
#X msg 48 136 0 0 0 0 1 1 0 0 0 0 0 0;
#X connect 0 0 9 0;
#X connect 0 1 1 0;
#X connect 0 2 2 0;
#X connect 1 0 8 0;
#X connect 2 0 4 0;
#X connect 3 0 8 0;
#X connect 4 0 5 0;
#X connect 4 1 3 0;
#X connect 5 0 7 0;
#X connect 6 0 0 0;
#X connect 9 0 7 0;
#X restore 140 146 pd tick2;
#N canvas 229 268 814 510 tick3 0;
#X obj 55 65 t b b b;
#X msg 131 96 80;
#X obj 170 82 del 100;
#X msg 225 111 0;
#X obj 170 106 t b b;
#X msg 233 135 0 0 0 0 0 0 0 0 0 0 0 0;
#X obj 76 33 inlet;
#X obj 66 190 outlet;
#X obj 153 193 outlet;
#X msg 55 137 0 0 0 0 0 0 0 0 1 1 0 0;
#X connect 0 0 9 0;
#X connect 0 1 1 0;
#X connect 0 2 2 0;
#X connect 1 0 8 0;
#X connect 2 0 4 0;
#X connect 3 0 8 0;
#X connect 4 0 5 0;
#X connect 4 1 3 0;
#X connect 5 0 7 0;
#X connect 6 0 0 0;
#X connect 9 0 7 0;
#X restore 176 191 pd tick3;
#X obj 130 41 t b b;
#X obj 185 100 t b b;
#X obj 222 159 t b b;
#X obj 266 232 t b b;
#X msg 304 299 255;
#X obj 129 16 inlet;
#X obj 59 331 outlet list;
#X obj 226 343 outlet intensity;
#X obj 183 76 del 450;
#X obj 220 132 del 450;
#X obj 264 202 del 450;
#X connect 1 0 10 0;
#X connect 1 1 11 0;
#X connect 2 0 10 0;
#X connect 2 1 11 0;
#X connect 3 0 10 0;
#X connect 3 1 11 0;
#X connect 4 0 1 0;
#X connect 4 1 12 0;
#X connect 5 0 2 0;
#X connect 5 1 13 0;
#X connect 6 0 3 0;
#X connect 6 1 14 0;
#X connect 7 0 0 0;
#X connect 7 1 8 0;
#X connect 8 0 11 0;
#X connect 9 0 4 0;
#X connect 12 0 5 0;
#X connect 13 0 6 0;
#X connect 14 0 7 0;
#X restore 679 259 pd LEDcounter;
#X obj 53 261 pipe f f 1600;
#X obj 281 188 spigot;
#X msg 318 164 1;
#X msg 351 164 0;
#X obj 335 206 > 10;
#X obj 314 422 spigot;
#X obj 486 449 spigot;
#X obj 744 446 t b b;
#X msg 427 409 0;
#X obj 299 87 del 1600;
#X obj 680 230 del 250;
#X obj 781 561 del 300;
#X obj 743 523 del 200;
#X obj 238 495 print;
#X obj 140 288 route 0;
#X msg 126 309 0;
#X obj 185 309 clip 60 80;
#X connect 0 0 71 0;
#X connect 0 1 70 0;
#X connect 0 2 74 0;
#X connect 1 0 39 0;
#X connect 2 0 77 0;
#X connect 2 1 77 1;
#X connect 2 1 78 0;
#X connect 3 0 37 0;
#X connect 3 0 13 0;
#X connect 4 0 3 0;
#X connect 5 0 36 0;
#X connect 6 0 8 0;
#X connect 7 0 75 0;
#X connect 7 0 86 0;
#X connect 7 0 87 0;
#X connect 8 0 9 0;
#X connect 8 1 44 0;
#X connect 8 2 7 0;
#X connect 8 2 59 1;
#X connect 9 0 40 0;
#X connect 9 0 58 1;
#X connect 9 0 57 0;
#X connect 9 0 16 1;
#X connect 9 0 17 1;
#X connect 9 0 80 0;
#X connect 9 0 84 0;
#X connect 10 0 8 0;
#X connect 11 0 3 0;
#X connect 12 0 36 0;
#X connect 13 0 32 0;
#X connect 14 0 20 0;
#X connect 15 0 33 0;
#X connect 16 1 42 0;
#X connect 16 2 83 0;
#X connect 17 1 41 0;
#X connect 17 2 82 0;
#X connect 18 0 21 0;
#X connect 20 0 18 0;
#X connect 20 0 23 0;
#X connect 20 1 25 0;
#X connect 20 1 23 0;
#X connect 20 2 26 0;
#X connect 20 2 23 0;
#X connect 20 3 24 0;
#X connect 20 3 22 0;
#X connect 24 0 21 0;
#X connect 25 0 21 0;
#X connect 26 0 21 0;
#X connect 28 0 72 0;
#X connect 36 0 38 0;
#X connect 36 0 15 0;
#X connect 37 0 49 0;
#X connect 38 0 37 0;
#X connect 38 1 37 1;
#X connect 39 0 73 0;
#X connect 39 1 68 0;
#X connect 40 0 77 0;
#X connect 41 0 13 0;
#X connect 41 1 13 1;
#X connect 41 1 43 0;
#X connect 42 0 15 0;
#X connect 42 1 15 1;
#X connect 42 1 45 0;
#X connect 44 0 0 0;
#X connect 46 0 59 0;
#X connect 47 0 46 1;
#X connect 48 0 47 1;
#X connect 49 0 47 0;
#X connect 49 0 53 0;
#X connect 50 0 48 0;
#X connect 50 1 51 1;
#X connect 50 2 47 2;
#X connect 51 0 52 0;
#X connect 52 0 46 0;
#X connect 52 1 46 1;
#X connect 53 0 66 0;
#X connect 56 0 15 1;
#X connect 56 0 13 1;
#X connect 57 0 46 0;
#X connect 58 0 54 0;
#X connect 59 0 54 0;
#X connect 62 0 31 0;
#X connect 63 0 30 0;
#X connect 64 0 62 1;
#X connect 65 0 67 0;
#X connect 65 0 64 0;
#X connect 66 0 51 0;
#X connect 66 1 58 0;
#X connect 67 0 63 1;
#X connect 68 0 0 0;
#X connect 69 0 72 0;
#X connect 71 0 2 0;
#X connect 72 0 27 0;
#X connect 73 0 0 0;
#X connect 74 0 34 0;
#X connect 75 0 0 0;
#X connect 76 0 62 0;
#X connect 76 0 63 0;
#X connect 76 1 62 2;
#X connect 76 1 63 2;
#X connect 77 0 46 0;
#X connect 77 1 91 0;
#X connect 78 0 81 0;
#X connect 79 0 78 1;
#X connect 79 0 82 1;
#X connect 79 0 83 1;
#X connect 80 0 78 1;
#X connect 81 0 17 0;
#X connect 81 0 16 0;
#X connect 82 0 63 0;
#X connect 83 0 62 0;
#X connect 84 0 89 0;
#X connect 84 1 85 0;
#X connect 85 0 82 1;
#X connect 85 0 83 1;
#X connect 86 0 79 0;
#X connect 87 0 76 0;
#X connect 88 0 34 0;
#X connect 89 0 34 0;
#X connect 89 0 88 0;
#X connect 91 0 92 0;
#X connect 91 1 93 0;
#X connect 92 0 50 0;
#X connect 93 0 50 0;
