#N canvas 46 35 1188 691 12;
#N canvas 260 23 450 300 handle_polyphony 0;
#X obj 37 37 inlet;
#X obj 37 149 pack 0 0 0;
#X obj 38 120 - 1;
#X obj 37 170 outlet;
#X obj 38 78 poly 8 1;
#X connect 0 0 4 0;
#X connect 1 0 3 0;
#X connect 2 0 1 0;
#X connect 4 0 2 0;
#X connect 4 1 1 1;
#X connect 4 2 1 2;
#X restore 392 505 pd handle_polyphony;
#X msg 273 5 rewind;
#X obj 214 84 midifile;
#X obj 25 -7 loadbang;
#X obj 867 425 pack 55 0;
#X text 883 404 mute!;
#X obj 185 239 unpack;
#X obj 794 266 sel 1 0;
#X obj 768 33 change;
#X obj 780 -37 inlet;
#X obj 850 -35 inlet;
#X obj 551 -32 inlet;
#X obj 328 32 sel 1;
#X obj 551 -9 t a a a;
#X obj 549 23 sel 0;
#X obj 598 -31 tgl 19 0 empty empty empty 0 -10 0 12 #fcfcfc #000000 #000000 0 1;
#X obj 254 109 print info;
#X obj 824 -35 tgl 19 0 empty empty empty 0 -10 0 12 #fcfcfc #000000 #000000 0 1;
#X obj 897 -35 tgl 19 0 empty empty empty 0 -10 0 12 #fcfcfc #000000 #000000 0 1;
#X obj 364 246 &&;
#X obj 957 -31 inlet;
#X msg 26 48 read symphony_short.mid;
#X obj 119 112 route 144 128;
#X obj 1000 170 > 64;
#X obj 953 170 > 64;
#X obj 807 402 uzi 127 0;
#X obj 184 212 route 147;
#X obj 561 245 &&;
#X obj 1087 375 del 100;
#X obj 549 73 t b b b;
#N canvas 153 77 1127 701 ledstrip2 0;
#X obj 81 32 inlet;
#X obj 131 65 tgl 19 0 empty empty empty 0 -10 0 12 #fcfcfc #000000 #000000 0 1;
#X obj 81 95 pipe 125;
#X obj 81 64 t a a;
#X obj 130 131 tgl 19 0 empty empty empty 0 -10 0 12 #fcfcfc #000000 #000000 0 1;
#X obj 80 161 pipe 125;
#X obj 80 130 t a a;
#X obj 131 198 tgl 19 0 empty empty empty 0 -10 0 12 #fcfcfc #000000 #000000 0 1;
#X obj 81 228 pipe 125;
#X obj 81 197 t a a;
#X obj 132 267 tgl 19 0 empty empty empty 0 -10 0 12 #fcfcfc #000000 #000000 0 1;
#X obj 82 297 pipe 125;
#X obj 82 266 t a a;
#X obj 132 334 tgl 19 0 empty empty empty 0 -10 0 12 #fcfcfc #000000 #000000 0 1;
#X obj 82 364 pipe 125;
#X obj 82 333 t a a;
#X obj 131 400 tgl 19 0 empty empty empty 0 -10 0 12 #fcfcfc #000000 #000000 0 1;
#X obj 81 430 pipe 125;
#X obj 81 399 t a a;
#X obj 132 467 tgl 19 0 empty empty empty 0 -10 0 12 #fcfcfc #000000 #000000 0 1;
#X obj 82 497 pipe 125;
#X obj 82 466 t a a;
#X obj 843 664 outlet;
#X obj 105 654 outlet;
#X obj 317 69 tgl 19 0 empty empty empty 0 -10 0 12 #fcfcfc #000000 #000000 0 1;
#X obj 267 99 pipe 125;
#X obj 267 68 t a a;
#X obj 316 135 tgl 19 0 empty empty empty 0 -10 0 12 #fcfcfc #000000 #000000 0 1;
#X obj 266 165 pipe 125;
#X obj 266 134 t a a;
#X obj 317 202 tgl 19 0 empty empty empty 0 -10 0 12 #fcfcfc #000000 #000000 0 1;
#X obj 267 232 pipe 125;
#X obj 267 201 t a a;
#X obj 318 271 tgl 19 0 empty empty empty 0 -10 0 12 #fcfcfc #000000 #000000 0 1;
#X obj 268 301 pipe 125;
#X obj 268 270 t a a;
#X obj 318 338 tgl 19 0 empty empty empty 0 -10 0 12 #fcfcfc #000000 #000000 0 1;
#X obj 268 368 pipe 125;
#X obj 268 337 t a a;
#X obj 317 404 tgl 19 0 empty empty empty 0 -10 0 12 #fcfcfc #000000 #000000 0 1;
#X obj 267 434 pipe 125;
#X obj 267 403 t a a;
#X obj 318 471 tgl 19 0 empty empty empty 0 -10 0 12 #fcfcfc #000000 #000000 0 1;
#X obj 268 501 pipe 125;
#X obj 268 470 t a a;
#X obj 345 549 tgl 19 0 empty empty empty 0 -10 0 12 #fcfcfc #000000 #000000 0 1;
#X obj 267 602 t a b a;
#X obj 131 526 tgl 19 0 empty empty empty 0 -10 0 12 #fcfcfc #000000 #000000 0 1;
#X obj 81 556 pipe 125;
#X obj 81 525 t a a;
#X obj 655 625 pak 0 0 0 0 0 0 0 0 0 0 0 0 0 0 0 0, f 49;
#X obj 625 36 inlet;
#X msg 627 95 clear;
#X obj 333 647 outlet;
#X obj 339 614 ||;
#X obj 345 583 t b a;
#X obj 269 524 route 0;
#X msg 270 577 0;
#X obj 269 550 delay 500;
#X msg 640 140 0 0 0 0 0 0 0 0 0 0 0 0 0 0 0 0;
#X obj 622 66 t b b;
#X msg 583 64 0;
#X connect 0 0 3 0;
#X connect 2 0 6 0;
#X connect 3 0 2 0;
#X connect 3 1 1 0;
#X connect 3 1 50 0;
#X connect 5 0 9 0;
#X connect 6 0 5 0;
#X connect 6 1 4 0;
#X connect 6 1 50 1;
#X connect 8 0 12 0;
#X connect 9 0 8 0;
#X connect 9 1 7 0;
#X connect 9 1 50 2;
#X connect 11 0 15 0;
#X connect 12 0 11 0;
#X connect 12 1 10 0;
#X connect 12 1 50 3;
#X connect 14 0 18 0;
#X connect 15 0 14 0;
#X connect 15 1 13 0;
#X connect 15 1 50 4;
#X connect 17 0 21 0;
#X connect 18 0 17 0;
#X connect 18 1 16 0;
#X connect 18 1 50 5;
#X connect 20 0 49 0;
#X connect 21 0 20 0;
#X connect 21 1 19 0;
#X connect 21 1 50 6;
#X connect 25 0 29 0;
#X connect 26 0 25 0;
#X connect 26 1 24 0;
#X connect 26 1 50 8;
#X connect 28 0 32 0;
#X connect 29 0 28 0;
#X connect 29 1 27 0;
#X connect 29 1 50 9;
#X connect 31 0 35 0;
#X connect 32 0 31 0;
#X connect 32 1 30 0;
#X connect 32 1 50 10;
#X connect 34 0 38 0;
#X connect 35 0 34 0;
#X connect 35 1 33 0;
#X connect 35 1 50 11;
#X connect 37 0 41 0;
#X connect 38 0 37 0;
#X connect 38 1 36 0;
#X connect 38 1 50 12;
#X connect 40 0 44 0;
#X connect 41 0 40 0;
#X connect 41 1 39 0;
#X connect 41 1 50 13;
#X connect 43 0 56 0;
#X connect 44 0 43 0;
#X connect 44 1 42 0;
#X connect 44 1 50 14;
#X connect 44 1 54 0;
#X connect 46 0 23 0;
#X connect 46 1 50 0;
#X connect 46 2 45 0;
#X connect 46 2 50 15;
#X connect 46 2 55 0;
#X connect 48 0 26 0;
#X connect 49 0 48 0;
#X connect 49 1 47 0;
#X connect 49 1 50 7;
#X connect 50 0 22 0;
#X connect 51 0 60 0;
#X connect 52 0 2 0;
#X connect 52 0 5 0;
#X connect 52 0 8 0;
#X connect 52 0 11 0;
#X connect 52 0 14 0;
#X connect 52 0 17 0;
#X connect 52 0 20 0;
#X connect 52 0 48 0;
#X connect 52 0 25 0;
#X connect 52 0 28 0;
#X connect 52 0 31 0;
#X connect 52 0 34 0;
#X connect 52 0 37 0;
#X connect 52 0 40 0;
#X connect 52 0 43 0;
#X connect 54 0 53 0;
#X connect 55 0 54 0;
#X connect 55 1 54 1;
#X connect 56 0 58 0;
#X connect 56 1 46 0;
#X connect 57 0 46 0;
#X connect 58 0 57 0;
#X connect 59 0 22 0;
#X connect 60 0 59 0;
#X connect 60 0 61 0;
#X connect 60 1 52 0;
#X connect 61 0 3 0;
#X restore 560 187 pd ledstrip2;
#N canvas 153 44 1127 701 ledstrip1 0;
#X obj 81 32 inlet;
#X obj 131 65 tgl 19 0 empty empty empty 0 -10 0 12 #fcfcfc #000000 #000000 0 1;
#X obj 81 95 pipe 125;
#X obj 81 64 t a a;
#X obj 130 131 tgl 19 0 empty empty empty 0 -10 0 12 #fcfcfc #000000 #000000 0 1;
#X obj 80 161 pipe 125;
#X obj 80 130 t a a;
#X obj 131 198 tgl 19 0 empty empty empty 0 -10 0 12 #fcfcfc #000000 #000000 0 1;
#X obj 81 228 pipe 125;
#X obj 81 197 t a a;
#X obj 132 267 tgl 19 0 empty empty empty 0 -10 0 12 #fcfcfc #000000 #000000 0 1;
#X obj 82 297 pipe 125;
#X obj 82 266 t a a;
#X obj 132 334 tgl 19 0 empty empty empty 0 -10 0 12 #fcfcfc #000000 #000000 0 1;
#X obj 82 364 pipe 125;
#X obj 82 333 t a a;
#X obj 131 400 tgl 19 0 empty empty empty 0 -10 0 12 #fcfcfc #000000 #000000 0 1;
#X obj 81 430 pipe 125;
#X obj 81 399 t a a;
#X obj 132 467 tgl 19 0 empty empty empty 0 -10 0 12 #fcfcfc #000000 #000000 0 1;
#X obj 82 497 pipe 125;
#X obj 82 466 t a a;
#X obj 843 664 outlet;
#X obj 105 654 outlet;
#X obj 317 69 tgl 19 0 empty empty empty 0 -10 0 12 #fcfcfc #000000 #000000 0 1;
#X obj 267 99 pipe 125;
#X obj 267 68 t a a;
#X obj 316 135 tgl 19 0 empty empty empty 0 -10 0 12 #fcfcfc #000000 #000000 0 1;
#X obj 266 165 pipe 125;
#X obj 266 134 t a a;
#X obj 317 202 tgl 19 0 empty empty empty 0 -10 0 12 #fcfcfc #000000 #000000 0 1;
#X obj 267 232 pipe 125;
#X obj 267 201 t a a;
#X obj 318 271 tgl 19 0 empty empty empty 0 -10 0 12 #fcfcfc #000000 #000000 0 1;
#X obj 268 301 pipe 125;
#X obj 268 270 t a a;
#X obj 318 338 tgl 19 0 empty empty empty 0 -10 0 12 #fcfcfc #000000 #000000 0 1;
#X obj 268 368 pipe 125;
#X obj 268 337 t a a;
#X obj 317 404 tgl 19 0 empty empty empty 0 -10 0 12 #fcfcfc #000000 #000000 0 1;
#X obj 267 434 pipe 125;
#X obj 267 403 t a a;
#X obj 318 471 tgl 19 0 empty empty empty 0 -10 0 12 #fcfcfc #000000 #000000 0 1;
#X obj 268 501 pipe 125;
#X obj 268 470 t a a;
#X obj 334 594 tgl 19 0 empty empty empty 0 -10 0 12 #fcfcfc #000000 #000000 0 1;
#X obj 242 603 t a b a;
#X obj 131 526 tgl 19 0 empty empty empty 0 -10 0 12 #fcfcfc #000000 #000000 0 1;
#X obj 81 556 pipe 125;
#X obj 81 525 t a a;
#X obj 655 625 pak 0 0 0 0 0 0 0 0 0 0 0 0 0 0 0 0, f 49;
#X obj 572 42 inlet;
#X msg 573 112 clear;
#X obj 333 662 outlet;
#X obj 333 640 ||;
#X obj 242 529 route 0;
#X msg 242 577 0;
#X obj 132 28 tgl 19 0 empty empty empty 0 -10 0 12 #fcfcfc #000000 #000000 0 1;
#X obj 241 554 delay 500;
#X msg 635 112 0 0 0 0 0 0 0 0 0 0 0 0 0 0 0 0;
#X obj 572 78 t b b;
#X msg 533 73 0;
#X connect 0 0 3 0;
#X connect 2 0 6 0;
#X connect 3 0 2 0;
#X connect 3 1 1 0;
#X connect 3 1 50 0;
#X connect 5 0 9 0;
#X connect 6 0 5 0;
#X connect 6 1 4 0;
#X connect 6 1 50 1;
#X connect 8 0 12 0;
#X connect 9 0 8 0;
#X connect 9 1 7 0;
#X connect 9 1 50 2;
#X connect 11 0 15 0;
#X connect 12 0 11 0;
#X connect 12 1 10 0;
#X connect 12 1 50 3;
#X connect 14 0 18 0;
#X connect 15 0 14 0;
#X connect 15 1 13 0;
#X connect 15 1 50 4;
#X connect 17 0 21 0;
#X connect 18 0 17 0;
#X connect 18 1 16 0;
#X connect 18 1 50 5;
#X connect 20 0 49 0;
#X connect 21 0 20 0;
#X connect 21 1 19 0;
#X connect 21 1 50 6;
#X connect 25 0 29 0;
#X connect 26 0 25 0;
#X connect 26 1 24 0;
#X connect 26 1 50 8;
#X connect 28 0 32 0;
#X connect 29 0 28 0;
#X connect 29 1 27 0;
#X connect 29 1 50 9;
#X connect 31 0 35 0;
#X connect 32 0 31 0;
#X connect 32 1 30 0;
#X connect 32 1 50 10;
#X connect 34 0 38 0;
#X connect 35 0 34 0;
#X connect 35 1 33 0;
#X connect 35 1 50 11;
#X connect 37 0 41 0;
#X connect 38 0 37 0;
#X connect 38 1 36 0;
#X connect 38 1 50 12;
#X connect 40 0 44 0;
#X connect 41 0 40 0;
#X connect 41 1 39 0;
#X connect 41 1 50 13;
#X connect 43 0 55 0;
#X connect 44 0 43 0;
#X connect 44 1 42 0;
#X connect 44 1 50 14;
#X connect 44 1 54 0;
#X connect 46 0 23 0;
#X connect 46 1 54 0;
#X connect 46 2 45 0;
#X connect 46 2 50 15;
#X connect 46 2 54 1;
#X connect 48 0 26 0;
#X connect 49 0 48 0;
#X connect 49 1 47 0;
#X connect 49 1 50 7;
#X connect 50 0 22 0;
#X connect 51 0 60 0;
#X connect 52 0 2 0;
#X connect 52 0 5 0;
#X connect 52 0 8 0;
#X connect 52 0 11 0;
#X connect 52 0 14 0;
#X connect 52 0 17 0;
#X connect 52 0 20 0;
#X connect 52 0 48 0;
#X connect 52 0 25 0;
#X connect 52 0 28 0;
#X connect 52 0 31 0;
#X connect 52 0 34 0;
#X connect 52 0 37 0;
#X connect 52 0 40 0;
#X connect 52 0 43 0;
#X connect 54 0 53 0;
#X connect 55 0 58 0;
#X connect 55 1 46 0;
#X connect 56 0 46 0;
#X connect 57 0 3 0;
#X connect 58 0 56 0;
#X connect 59 0 22 0;
#X connect 60 0 59 0;
#X connect 60 0 61 0;
#X connect 60 1 52 0;
#X connect 61 0 3 0;
#X restore 364 185 pd ledstrip1;
#X msg 929 32 147;
#X text 1006 -31 instrument num;
#X obj 958 4 sel 0 1 2 3;
#X obj 1048 119 s instnum;
#X obj 241 185 r instnum;
#X obj 1062 144 route 54 55;
#X obj 954 144 route 102 103;
#X obj 976 120 gate 2 1;
#X msg 1020 69 2;
#X msg 973 70 1;
#X obj 1103 169 > 64;
#X obj 1063 170 > 64;
#X obj 805 376 t b;
#X obj 1088 275 route end;
#X obj 1086 323 t b;
#X obj 1087 299 route 7;
#X obj 1087 348 del 2000;
#X msg 1049 33 150;
#X msg 974 31 148;
#X msg 1010 31 149;
#X obj 1189 101 switch~;
#X obj 1189 -31 inlet;
#X text 1200 -2 mode enable;
#X obj 676 631 s LEDstrip1;
#X obj 766 631 s LEDstrip2;
#X obj 855 630 s LEDaction1;
#X obj 953 631 s LEDaction2;
#X obj 1051 628 s LEDreset;
#X text 1094 35 midi channel;
#X text 1052 72 bow movement choice;
#X text 1061 86 this will change;
#X obj 849 30 change;
#X obj 1085 404 t b;
#X obj 807 106 ||;
#X obj 846 67 t b a;
#X msg 26 75 track -1;
#X obj 25 21 t b b;
#X msg 498 93 0;
#X msg 243 239 clear;
#X obj 392 544 string_synth;
#X obj 393 611 throw~ mono;
#X obj 1188 66 == 2;
#X obj 363 215 t b a;
#X obj 560 218 t b a;
#X msg 1214 33 2;
#X msg 328 57 3300;
#X obj 405 235 tgl 19 0 empty empty empty 0 -10 0 12 #fcfcfc #000000 #000000 0 1;
#X obj 183 266 pipe f f 2000;
#X obj 828 146 tgl 19 0 empty empty empty 0 -10 0 12 #fcfcfc #000000 #000000 0 1;
#X obj 573 48 metro 1;
#X obj 612 237 tgl 19 0 empty empty empty 0 -10 0 12 #fcfcfc #000000 #000000 0 1;
#X obj 836 349 bng 19 250 50 0 empty empty empty 0 -10 0 12 #fcfcfc #000000 #000000;
#X obj 184 411 pack 0 0;
#X obj 237 362 switch 2 1;
#X msg 268 326 0;
#X obj 360 307 + 1;
#X obj 265 301 t b a a;
#X obj 482 301 ||;
#X obj 499 265 t b a;
#X obj 564 325 tgl 19 0 empty empty empty 0 -10 0 12 #fcfcfc #000000 #000000 0 1;
#X obj 361 385 i;
#X obj 361 414 t b a;
#X obj 361 338 change;
#X obj 361 360 sel 2;
#X connect 0 0 71 0;
#X connect 1 0 2 0;
#X connect 2 0 22 0;
#X connect 2 2 16 0;
#X connect 2 2 45 0;
#X connect 3 0 68 0;
#X connect 4 0 0 0;
#X connect 6 0 79 0;
#X connect 6 1 79 1;
#X connect 7 1 44 0;
#X connect 8 0 65 0;
#X connect 8 0 19 0;
#X connect 9 0 8 0;
#X connect 10 0 63 0;
#X connect 11 0 13 0;
#X connect 12 0 77 0;
#X connect 13 0 14 0;
#X connect 13 1 81 0;
#X connect 13 2 12 0;
#X connect 14 0 29 0;
#X connect 15 0 13 0;
#X connect 17 0 8 0;
#X connect 18 0 63 0;
#X connect 19 0 57 0;
#X connect 19 0 89 0;
#X connect 20 0 34 0;
#X connect 21 0 2 0;
#X connect 22 0 39 1;
#X connect 22 1 39 1;
#X connect 22 2 26 0;
#X connect 23 0 30 0;
#X connect 24 0 31 0;
#X connect 25 2 4 0;
#X connect 26 0 6 0;
#X connect 27 0 58 0;
#X connect 27 0 90 0;
#X connect 28 0 44 0;
#X connect 28 0 64 0;
#X connect 29 0 44 0;
#X connect 29 0 69 0;
#X connect 29 1 64 0;
#X connect 29 2 31 1;
#X connect 29 2 30 1;
#X connect 29 2 70 0;
#X connect 30 1 75 0;
#X connect 30 2 56 0;
#X connect 31 1 74 0;
#X connect 31 2 55 0;
#X connect 32 0 35 0;
#X connect 34 0 32 0;
#X connect 34 0 41 0;
#X connect 34 1 50 0;
#X connect 34 1 41 0;
#X connect 34 2 51 0;
#X connect 34 2 41 0;
#X connect 34 3 49 0;
#X connect 34 3 40 0;
#X connect 36 0 26 1;
#X connect 37 0 43 0;
#X connect 37 1 42 0;
#X connect 38 0 24 0;
#X connect 38 1 23 0;
#X connect 39 0 38 0;
#X connect 39 1 37 0;
#X connect 40 0 39 0;
#X connect 40 0 71 1;
#X connect 41 0 39 0;
#X connect 41 0 71 1;
#X connect 42 0 30 0;
#X connect 43 0 31 0;
#X connect 44 0 25 0;
#X connect 45 0 47 0;
#X connect 46 0 48 0;
#X connect 47 0 46 0;
#X connect 48 0 28 0;
#X connect 49 0 35 0;
#X connect 50 0 35 0;
#X connect 51 0 35 0;
#X connect 53 0 73 0;
#X connect 63 0 66 0;
#X connect 63 0 27 0;
#X connect 64 0 59 0;
#X connect 65 0 7 0;
#X connect 65 0 80 0;
#X connect 65 0 87 0;
#X connect 66 0 65 0;
#X connect 66 1 65 1;
#X connect 67 0 2 0;
#X connect 68 0 67 0;
#X connect 68 1 21 0;
#X connect 69 0 27 1;
#X connect 69 0 19 1;
#X connect 69 0 84 0;
#X connect 70 0 79 0;
#X connect 71 0 72 0;
#X connect 73 0 52 0;
#X connect 74 0 19 0;
#X connect 74 1 19 1;
#X connect 74 1 78 0;
#X connect 75 0 27 0;
#X connect 75 1 27 1;
#X connect 75 1 82 0;
#X connect 76 0 73 0;
#X connect 77 0 2 0;
#X connect 79 0 84 0;
#X connect 79 1 88 0;
#X connect 81 0 2 0;
#X connect 83 0 44 0;
#X connect 84 0 0 0;
#X connect 85 0 84 1;
#X connect 86 0 85 1;
#X connect 87 0 85 0;
#X connect 87 0 94 0;
#X connect 88 0 86 0;
#X connect 88 1 92 1;
#X connect 88 2 85 2;
#X connect 89 0 91 0;
#X connect 90 0 89 0;
#X connect 90 1 89 1;
#X connect 92 0 93 0;
#X connect 93 0 84 0;
#X connect 93 1 84 1;
#X connect 94 0 95 0;
#X connect 95 0 92 0;
