#N canvas 370 103 982 880 12;
#X msg 192 -12 rewind;
#X obj 26 105 midifile;
#X obj 25 -7 loadbang;
#X obj 45 277 unpack;
#X obj 671 -2 change;
#X obj 671 -29 inlet;
#X obj 809 -28 inlet;
#X obj 551 -32 inlet;
#X obj 278 -7 sel 1;
#X obj 550 -3 t a a a;
#X obj 550 25 sel 0;
#X obj 598 -31 tgl 19 0 empty empty empty 0 -10 0 12 #fcfcfc #000000 #000000 0 1;
#X obj 101 100 print info;
#X obj 732 0 tgl 19 0 empty empty empty 0 -10 0 12 #fcfcfc #000000 #000000 0 1;
#X obj 865 3 tgl 19 0 empty empty empty 0 -10 0 12 #fcfcfc #000000 #000000 0 1;
#X obj 499 408 &&;
#X obj 957 -31 inlet;
#X obj 17 168 route 144 128;
#X obj 45 248 route 147;
#X obj 593 406 &&;
#N canvas 1348 186 386 701 ledstrip2 0;
#X obj 81 32 inlet;
#X obj 642 674 outlet;
#X obj 105 654 outlet;
#X obj 570 40 inlet;
#X obj 333 647 outlet;
#X obj 131 65 tgl 19 0 empty empty empty 0 -10 0 12 #fcfcfc #000000 #000000 0 1;
#X obj 81 95 pipe 125;
#X obj 81 64 t a a;
#X obj 130 131 tgl 19 0 empty empty empty 0 -10 0 12 #fcfcfc #000000 #000000 0 1;
#X obj 80 161 pipe 125;
#X obj 80 130 t a a;
#X obj 131 198 tgl 19 0 empty empty empty 0 -10 0 12 #fcfcfc #000000 #000000 0 1;
#X obj 81 228 pipe 125;
#X obj 81 197 t a a;
#X obj 131 318 tgl 19 0 empty empty empty 0 -10 0 12 #fcfcfc #000000 #000000 0 1;
#X obj 81 348 pipe 125;
#X obj 81 317 t a a;
#X obj 130 384 tgl 19 0 empty empty empty 0 -10 0 12 #fcfcfc #000000 #000000 0 1;
#X obj 246 66 pipe 125;
#X obj 80 383 t a a;
#X obj 295 92 tgl 19 0 empty empty empty 0 -10 0 12 #fcfcfc #000000 #000000 0 1;
#X obj 245 122 pipe 125;
#X obj 245 91 t a a;
#X obj 296 161 tgl 19 0 empty empty empty 0 -10 0 12 #fcfcfc #000000 #000000 0 1;
#X obj 246 191 pipe 125;
#X obj 246 160 t a a;
#X obj 296 228 tgl 19 0 empty empty empty 0 -10 0 12 #fcfcfc #000000 #000000 0 1;
#X obj 246 258 pipe 125;
#X obj 246 227 t a a;
#X obj 295 294 tgl 19 0 empty empty empty 0 -10 0 12 #fcfcfc #000000 #000000 0 1;
#X obj 245 324 pipe 125;
#X obj 245 293 t a a;
#X obj 296 361 tgl 19 0 empty empty empty 0 -10 0 12 #fcfcfc #000000 #000000 0 1;
#X obj 246 391 pipe 125;
#X obj 246 360 t a a;
#X obj 307 496 tgl 19 0 empty empty empty 0 -10 0 12 #fcfcfc #000000 #000000 0 1;
#X obj 248 499 t a b a;
#X obj 130 257 tgl 19 0 empty empty empty 0 -10 0 12 #fcfcfc #000000 #000000 0 1;
#X obj 80 287 pipe 125;
#X obj 80 256 t a a;
#X msg 573 112 clear;
#X obj 275 537 ||;
#X obj 247 418 route 0;
#X msg 248 472 0;
#X obj 572 78 t b b;
#X msg 533 73 0;
#X msg 635 112 0 0 0 0 0 0 0 0 0 0 0 0;
#X obj 655 625 pak 0 0 0 0 0 0 0 0 0 0 0 0, f 49;
#X obj 133 32 tgl 19 0 empty empty empty 0 -10 0 12 #fcfcfc #000000 #000000 0 1;
#X msg 645 170 set 0 0 0 0 0 0 0 0 0 0 0 0;
#X obj 247 447 delay 200;
#X connect 0 0 7 0;
#X connect 3 0 44 0;
#X connect 6 0 10 0;
#X connect 7 0 6 0;
#X connect 7 1 5 0;
#X connect 7 1 47 0;
#X connect 9 0 13 0;
#X connect 10 0 9 0;
#X connect 10 1 8 0;
#X connect 10 1 47 1;
#X connect 12 0 39 0;
#X connect 13 0 12 0;
#X connect 13 1 11 0;
#X connect 13 1 47 2;
#X connect 15 0 19 0;
#X connect 16 0 15 0;
#X connect 16 1 14 0;
#X connect 16 1 47 4;
#X connect 18 0 22 0;
#X connect 19 0 18 0;
#X connect 19 1 17 0;
#X connect 19 1 47 5;
#X connect 21 0 25 0;
#X connect 22 0 21 0;
#X connect 22 1 20 0;
#X connect 22 1 47 6;
#X connect 24 0 28 0;
#X connect 25 0 24 0;
#X connect 25 1 23 0;
#X connect 25 1 47 7;
#X connect 27 0 31 0;
#X connect 28 0 27 0;
#X connect 28 1 26 0;
#X connect 28 1 47 8;
#X connect 30 0 34 0;
#X connect 31 0 30 0;
#X connect 31 1 29 0;
#X connect 31 1 47 9;
#X connect 33 0 42 0;
#X connect 34 0 33 0;
#X connect 34 1 32 0;
#X connect 34 1 41 0;
#X connect 34 1 47 10;
#X connect 36 0 2 0;
#X connect 36 1 41 0;
#X connect 36 2 35 0;
#X connect 36 2 41 1;
#X connect 36 2 47 11;
#X connect 38 0 16 0;
#X connect 39 0 38 0;
#X connect 39 1 37 0;
#X connect 39 1 47 3;
#X connect 40 0 6 0;
#X connect 40 0 9 0;
#X connect 40 0 12 0;
#X connect 40 0 38 0;
#X connect 40 0 15 0;
#X connect 40 0 18 0;
#X connect 40 0 21 0;
#X connect 40 0 24 0;
#X connect 40 0 27 0;
#X connect 40 0 30 0;
#X connect 40 0 33 0;
#X connect 41 0 4 0;
#X connect 42 0 50 0;
#X connect 42 1 36 0;
#X connect 43 0 36 0;
#X connect 44 0 46 0;
#X connect 44 0 45 0;
#X connect 44 0 49 0;
#X connect 44 1 40 0;
#X connect 46 0 1 0;
#X connect 47 0 1 0;
#X connect 48 0 7 0;
#X connect 49 0 47 0;
#X connect 50 0 43 0;
#X restore 553 338 pd ledstrip2;
#N canvas 30 187 389 701 ledstrip1 0;
#X obj 33 8 inlet;
#X obj 639 659 outlet;
#X obj 78 651 outlet;
#X obj 572 42 inlet;
#X obj 280 650 outlet;
#X obj 132 32 tgl 19 0 empty empty empty 0 -10 0 12 #fcfcfc #000000 #000000 0 1;
#X obj 131 65 tgl 19 0 empty empty empty 0 -10 0 12 #fcfcfc #000000 #000000 0 1;
#X obj 81 95 pipe 125;
#X obj 81 64 t a a;
#X obj 130 131 tgl 19 0 empty empty empty 0 -10 0 12 #fcfcfc #000000 #000000 0 1;
#X obj 80 161 pipe 125;
#X obj 80 130 t a a;
#X obj 131 198 tgl 19 0 empty empty empty 0 -10 0 12 #fcfcfc #000000 #000000 0 1;
#X obj 81 228 pipe 125;
#X obj 81 197 t a a;
#X obj 131 318 tgl 19 0 empty empty empty 0 -10 0 12 #fcfcfc #000000 #000000 0 1;
#X obj 81 348 pipe 125;
#X obj 81 317 t a a;
#X obj 130 384 tgl 19 0 empty empty empty 0 -10 0 12 #fcfcfc #000000 #000000 0 1;
#X obj 246 66 pipe 125;
#X obj 80 383 t a a;
#X obj 295 92 tgl 19 0 empty empty empty 0 -10 0 12 #fcfcfc #000000 #000000 0 1;
#X obj 245 122 pipe 125;
#X obj 245 91 t a a;
#X obj 296 161 tgl 19 0 empty empty empty 0 -10 0 12 #fcfcfc #000000 #000000 0 1;
#X obj 246 191 pipe 125;
#X obj 246 160 t a a;
#X obj 296 228 tgl 19 0 empty empty empty 0 -10 0 12 #fcfcfc #000000 #000000 0 1;
#X obj 246 258 pipe 125;
#X obj 246 227 t a a;
#X obj 295 294 tgl 19 0 empty empty empty 0 -10 0 12 #fcfcfc #000000 #000000 0 1;
#X obj 245 324 pipe 125;
#X obj 245 293 t a a;
#X obj 296 361 tgl 19 0 empty empty empty 0 -10 0 12 #fcfcfc #000000 #000000 0 1;
#X obj 246 391 pipe 125;
#X obj 246 360 t a a;
#X obj 307 496 tgl 19 0 empty empty empty 0 -10 0 12 #fcfcfc #000000 #000000 0 1;
#X obj 248 499 t a b a;
#X obj 130 257 tgl 19 0 empty empty empty 0 -10 0 12 #fcfcfc #000000 #000000 0 1;
#X obj 80 287 pipe 125;
#X obj 80 256 t a a;
#X msg 573 112 clear;
#X obj 275 537 ||;
#X obj 247 418 route 0;
#X msg 248 472 0;
#X obj 572 78 t b b;
#X msg 533 73 0;
#X msg 635 112 0 0 0 0 0 0 0 0 0 0 0 0;
#X obj 655 625 pak 0 0 0 0 0 0 0 0 0 0 0 0, f 49;
#X msg 664 193 set 0 0 0 0 0 0 0 0 0 0 0 0;
#X obj 247 447 delay 200;
#X connect 0 0 8 0;
#X connect 3 0 45 0;
#X connect 5 0 8 0;
#X connect 7 0 11 0;
#X connect 8 0 7 0;
#X connect 8 1 6 0;
#X connect 8 1 48 0;
#X connect 10 0 14 0;
#X connect 11 0 10 0;
#X connect 11 1 9 0;
#X connect 11 1 48 1;
#X connect 13 0 40 0;
#X connect 14 0 13 0;
#X connect 14 1 12 0;
#X connect 14 1 48 2;
#X connect 16 0 20 0;
#X connect 17 0 16 0;
#X connect 17 1 15 0;
#X connect 17 1 48 4;
#X connect 19 0 23 0;
#X connect 20 0 19 0;
#X connect 20 1 18 0;
#X connect 20 1 48 5;
#X connect 22 0 26 0;
#X connect 23 0 22 0;
#X connect 23 1 21 0;
#X connect 23 1 48 6;
#X connect 25 0 29 0;
#X connect 26 0 25 0;
#X connect 26 1 24 0;
#X connect 26 1 48 7;
#X connect 28 0 32 0;
#X connect 29 0 28 0;
#X connect 29 1 27 0;
#X connect 29 1 48 8;
#X connect 31 0 35 0;
#X connect 32 0 31 0;
#X connect 32 1 30 0;
#X connect 32 1 48 9;
#X connect 34 0 43 0;
#X connect 35 0 34 0;
#X connect 35 1 33 0;
#X connect 35 1 42 0;
#X connect 35 1 48 10;
#X connect 37 0 2 0;
#X connect 37 1 42 0;
#X connect 37 2 36 0;
#X connect 37 2 42 1;
#X connect 37 2 48 11;
#X connect 39 0 17 0;
#X connect 40 0 39 0;
#X connect 40 1 38 0;
#X connect 40 1 48 3;
#X connect 41 0 7 0;
#X connect 41 0 10 0;
#X connect 41 0 13 0;
#X connect 41 0 39 0;
#X connect 41 0 16 0;
#X connect 41 0 19 0;
#X connect 41 0 22 0;
#X connect 41 0 25 0;
#X connect 41 0 28 0;
#X connect 41 0 31 0;
#X connect 41 0 34 0;
#X connect 42 0 4 0;
#X connect 43 0 50 0;
#X connect 43 1 37 0;
#X connect 44 0 37 0;
#X connect 45 0 47 0;
#X connect 45 0 46 0;
#X connect 45 0 49 0;
#X connect 45 1 41 0;
#X connect 47 0 1 0;
#X connect 48 0 1 0;
#X connect 49 0 48 0;
#X connect 50 0 44 0;
#X restore 456 335 pd ledstrip1;
#X msg 929 32 147;
#X text 1006 -31 instrument num;
#X obj 958 4 sel 0 1 2 3;
#X obj 1094 56 s instnum;
#X obj 104 206 r instnum;
#X msg 1020 69 2;
#X msg 973 70 1;
#X obj 689 91 route end;
#X obj 687 139 t b;
#X obj 688 115 route 7;
#X msg 1049 33 150;
#X msg 974 31 148;
#X msg 1010 31 149;
#X obj 1189 101 switch~;
#X obj 1189 -31 inlet;
#X text 1200 -2 mode enable;
#X obj 463 780 s LEDstrip1;
#X obj 655 776 s LEDstrip2;
#X obj 496 472 s LEDaction1;
#X obj 595 474 s LEDaction2;
#X obj 677 164 s LEDreset;
#X text 1094 35 midi channel;
#X obj 809 2 change;
#X obj 786 247 ||;
#X obj 798 216 t b a;
#X msg 26 75 track -1;
#X obj 25 21 t b b;
#X msg 116 388 clear;
#X obj 1188 66 == 2;
#X obj 498 377 t b a;
#X obj 592 379 t b a;
#X msg 1214 33 2;
#X obj 545 395 tgl 19 0 empty empty empty 0 -10 0 12 #fcfcfc #000000 #000000 0 1;
#X obj 227 83 metro 1;
#X obj 644 398 tgl 19 0 empty empty empty 0 -10 0 12 #fcfcfc #000000 #000000 0 1;
#X obj 47 566 pack 0 0;
#X obj 100 517 switch 2 1;
#X msg 133 482 0;
#X obj 203 458 + 1;
#X obj 134 447 t b a a;
#X obj 203 528 i;
#X obj 203 548 t b a;
#X obj 203 481 change;
#X obj 46 720 outlet;
#X text 500 -30 play;
#X obj 409 63 s midiplayreset;
#X obj 20 484 r midiplayreset;
#X msg 558 367 0;
#X msg 19 510 0;
#X obj 117 363 r midiplayreset;
#N canvas 47 74 995 502 muteMidi 0;
#X obj 88 197 pack 55 0;
#X text 165 173 mute!;
#X obj 89 171 uzi 127 0;
#X obj 89 148 t b;
#X obj 90 35 inlet;
#X obj 90 58 t b;
#X obj 88 226 outlet midinotes;
#X obj 193 58 t b;
#X obj 192 31 inlet;
#X obj 225 81 del 100;
#X obj 247 106 del 100;
#X connect 0 0 6 0;
#X connect 2 2 0 0;
#X connect 3 0 2 0;
#X connect 4 0 5 0;
#X connect 5 0 3 0;
#X connect 7 0 3 0;
#X connect 7 0 9 0;
#X connect 8 0 7 0;
#X connect 9 0 3 0;
#X connect 9 0 10 0;
#X connect 10 0 3 0;
#X restore 94 673 pd muteMidi;
#X obj 46 643 spigot;
#X obj 676 69 r midiplayreset;
#X obj 985 98 t a;
#X text 717 -29 sensor1;
#X text 860 -26 sensor2;
#N canvas 110 143 1129 552 bowMoveData 0;
#X obj 173 174 > 64;
#X obj 126 174 > 64;
#X obj 235 148 route 54 55;
#X obj 127 148 route 102 103;
#X obj 149 124 gate 2 1;
#X obj 276 173 > 64;
#X obj 236 174 > 64;
#X text 145 199 bow movement choice;
#X text 156 215 this will change;
#X obj 93 55 inlet;
#X obj 241 49 inlet;
#X obj 115 293 outlet LED1;
#X obj 247 298 outlet LED2;
#X connect 0 0 12 0;
#X connect 1 0 11 0;
#X connect 2 0 6 0;
#X connect 2 1 5 0;
#X connect 3 0 1 0;
#X connect 3 1 0 0;
#X connect 4 0 3 0;
#X connect 4 1 2 0;
#X connect 5 0 12 0;
#X connect 6 0 11 0;
#X connect 9 0 4 0;
#X connect 10 0 4 1;
#X restore 457 299 pd bowMoveData;
#X obj 601 300 r midiplayreset;
#X obj 28 193 t a;
#X obj 655 693 LED_color;
#X obj 463 691 LED_color;
#X msg 714 653 0 0.5 1;
#X obj 540 623 loadbang;
#X obj 203 503 sel 2 1;
#X msg 523 650 0.4 1 0;
#X msg 329 19 3300;
#X obj 283 29 i;
#X obj 329 -6 loadbang;
#X msg 377 20 39600;
#X obj 313 80 r startPoint;
#X obj 233 58 tgl 19 0 empty empty empty 0 -10 0 12 #fcfcfc #000000 #000000 0 1;
#X msg 421 21 53600;
#X obj 47 411 pipe f f 1350;
#X obj 271 207 > 0;
#X obj 258 628 print;
#X obj 701 358 tgl 19 0 empty empty empty 0 -10 0 12 #fcfcfc #000000 #000000 0 1;
#X obj 229 288 gate 1 1;
#X msg 165 274 0;
#X msg 309 452 1;
#X msg 424 447 0;
#X obj 329 258 sel 1;
#X msg 332 285 1;
#X obj 506 228 gate 2 1;
#X obj 385 403 t b b b;
#X obj 373 455 tgl 19 0 empty empty empty 0 -10 0 12 #fcfcfc #000000 #000000 0 1;
#X obj 373 479 + 1;
#X obj 251 358 del 1350;
#X obj 374 325 loadbang;
#X msg 368 357 0;
#X msg 401 356 1;
#X obj 230 319 t b b a b;
#X msg 88 20 read symphony_short.mid;
#X msg 26 48 read tark.mid;
#X floatatom 196 216 5 0 0 0 - - - 0;
#X obj 122 271 print;
#X msg 195 181 150;
#X msg 231 182 154;
#X text 33 145 144 - 159: note-on;
#X text 33 128 128 - 143: note-off;
#X connect 0 0 1 0;
#X connect 1 0 17 0;
#X connect 1 2 29 0;
#X connect 2 0 48 0;
#X connect 3 0 94 0;
#X connect 3 1 94 1;
#X connect 4 0 15 0;
#X connect 4 0 45 0;
#X connect 5 0 4 0;
#X connect 6 0 44 0;
#X connect 7 0 9 0;
#X connect 8 0 88 0;
#X connect 9 0 10 0;
#X connect 9 1 55 0;
#X connect 9 2 8 0;
#X connect 9 2 73 1;
#X connect 10 0 67 0;
#X connect 11 0 9 0;
#X connect 13 0 4 0;
#X connect 14 0 44 0;
#X connect 15 0 40 0;
#X connect 16 0 24 0;
#X connect 17 0 80 0;
#X connect 17 1 80 0;
#X connect 17 2 18 0;
#X connect 18 0 3 0;
#X connect 18 1 116 0;
#X connect 19 0 41 0;
#X connect 20 1 52 0;
#X connect 20 2 81 0;
#X connect 21 1 51 0;
#X connect 21 2 82 0;
#X connect 22 0 25 0;
#X connect 24 0 22 0;
#X connect 24 0 28 0;
#X connect 24 1 33 0;
#X connect 24 1 28 0;
#X connect 24 2 34 0;
#X connect 24 2 28 0;
#X connect 24 3 32 0;
#X connect 24 3 27 0;
#X connect 26 0 18 1;
#X connect 27 0 75 0;
#X connect 28 0 75 0;
#X connect 29 0 31 0;
#X connect 30 0 42 0;
#X connect 31 0 30 0;
#X connect 32 0 25 0;
#X connect 33 0 25 0;
#X connect 34 0 25 0;
#X connect 36 0 50 0;
#X connect 44 0 19 0;
#X connect 44 0 46 0;
#X connect 45 0 60 0;
#X connect 46 0 45 0;
#X connect 46 1 45 1;
#X connect 47 0 1 0;
#X connect 48 0 47 0;
#X connect 48 1 114 0;
#X connect 49 0 94 0;
#X connect 50 0 35 0;
#X connect 51 0 15 0;
#X connect 51 1 15 1;
#X connect 51 1 54 0;
#X connect 52 0 19 0;
#X connect 52 1 19 1;
#X connect 52 1 56 0;
#X connect 53 0 50 0;
#X connect 55 0 1 0;
#X connect 57 0 73 0;
#X connect 58 0 57 1;
#X connect 59 0 58 1;
#X connect 60 0 58 0;
#X connect 60 0 64 0;
#X connect 61 0 59 0;
#X connect 61 1 62 1;
#X connect 61 2 58 2;
#X connect 62 0 63 0;
#X connect 63 0 57 0;
#X connect 63 1 57 1;
#X connect 64 0 85 0;
#X connect 68 0 70 0;
#X connect 68 0 72 1;
#X connect 69 0 19 1;
#X connect 69 0 15 1;
#X connect 70 0 57 0;
#X connect 71 0 49 0;
#X connect 72 0 65 0;
#X connect 73 0 65 0;
#X connect 74 0 42 0;
#X connect 75 0 78 0;
#X connect 78 0 21 0;
#X connect 78 1 20 0;
#X connect 78 1 97 0;
#X connect 79 0 21 1;
#X connect 79 0 20 1;
#X connect 79 0 69 0;
#X connect 80 0 78 1;
#X connect 81 0 39 0;
#X connect 82 0 38 0;
#X connect 83 0 81 1;
#X connect 84 0 86 0;
#X connect 84 0 83 0;
#X connect 85 0 62 0;
#X connect 85 1 72 0;
#X connect 86 0 82 1;
#X connect 87 0 88 1;
#X connect 88 0 1 0;
#X connect 89 0 87 0;
#X connect 90 0 88 1;
#X connect 91 0 88 1;
#X connect 92 0 55 0;
#X connect 93 0 88 1;
#X connect 94 0 57 0;
#X connect 94 1 61 0;
#X connect 95 0 98 1;
#X connect 98 0 112 0;
#X connect 99 0 98 0;
#X connect 100 0 98 0;
#X connect 101 0 104 1;
#X connect 102 0 103 0;
#X connect 103 0 104 1;
#X connect 104 0 21 0;
#X connect 104 1 20 0;
#X connect 105 0 100 0;
#X connect 105 1 106 0;
#X connect 105 2 101 0;
#X connect 106 0 107 0;
#X connect 107 0 104 0;
#X connect 108 0 105 0;
#X connect 109 0 110 0;
#X connect 110 0 106 0;
#X connect 111 0 98 0;
#X connect 112 0 108 0;
#X connect 112 2 102 0;
#X connect 112 3 99 0;
#X connect 114 0 1 0;
#X connect 115 0 18 1;
#X connect 117 0 18 1;
#X connect 118 0 18 1;
