#N canvas 59 23 1110 755 12;
#N canvas 0 23 450 300 handle_polyphony 0;
#X obj 37 37 inlet;
#X obj 37 149 pack 0 0 0;
#X obj 38 120 - 1;
#X obj 37 170 outlet;
#X obj 38 78 poly 8 1;
#X connect 0 0 4 0;
#X connect 1 0 3 0;
#X connect 2 0 1 0;
#X connect 4 0 2 0;
#X connect 4 1 1 1;
#X connect 4 2 1 2;
#X restore 520 501 pd handle_polyphony;
#X obj 985 418 pack 55 0;
#X text 1001 397 mute!;
#X obj 721 33 change;
#X obj 733 -37 inlet;
#X obj 850 -35 inlet;
#X obj 777 -35 tgl 19 0 empty empty empty 0 -10 0 12 #fcfcfc #000000 #000000 0 1;
#X obj 897 -35 tgl 19 0 empty empty empty 0 -10 0 12 #fcfcfc #000000 #000000 0 1;
#X obj 957 -31 inlet;
#X obj 925 395 uzi 127 0;
#X obj 1011 303 del 100;
#X msg 929 32 147;
#X text 1006 -31 instrument num;
#X obj 958 4 sel 0 1 2 3;
#X obj 1048 127 s instnum;
#X msg 1020 69 2;
#X msg 973 70 1;
#X obj 923 369 t b;
#X obj 1012 329 del 100;
#X obj 476 578 gate 2 1;
#X msg 1049 33 150;
#X msg 974 31 148;
#X msg 1010 31 149;
#X obj 1189 -31 inlet;
#X text 1200 -2 mode enable;
#X obj 676 631 s LEDstrip1;
#X obj 766 631 s LEDstrip2;
#X obj 855 630 s LEDaction1;
#X obj 953 631 s LEDaction2;
#X obj 1051 628 s LEDreset;
#X obj 849 30 change;
#X obj 1130 400 t b;
#X obj 519 394 + 60;
#X obj 570 320 random 15;
#X obj 572 390 + 45;
#X obj 519 361 gate 2 1;
#X msg 707 535 1 1 1 1 1 1 1 1 1 1 1 1 1 1 1 1;
#X obj 714 126 sel 1 0;
#X msg 728 561 0 0 0 0 0 0 0 0 0 0 0 0 0 0 0 0;
#X obj 854 126 sel 1 0;
#X msg 781 483 1 1 1 1 1 1 1 1 1 1 1 1 1 1 1 1;
#X msg 802 509 0 0 0 0 0 0 0 0 0 0 0 0 0 0 0 0;
#X msg 853 600 1;
#X msg 886 599 0;
#X msg 953 599 1;
#X msg 986 598 0;
#X msg 820 249 stop;
#X obj 523 466 pack;
#X obj 738 228 t b b;
#X obj 803 183 t b b;
#X obj 521 438 makenote 80 4000;
#X obj 326 -15 inlet;
#X obj 371 -14 tgl 19 0 empty empty empty 0 -10 0 12 #fcfcfc #000000 #000000 0 1;
#X obj 283 268 &&;
#X obj 407 263 &&;
#X obj 852 66 gate 2 1;
#X obj 718 65 gate 2 1;
#X obj 405 10 + 1;
#X text 397 -13 play;
#X obj 324 143 tgl 19 0 empty empty empty 0 -10 0 12 #fcfcfc #000000 #000000 0 1;
#X msg 340 113 1;
#X msg 352 137 0;
#X obj 257 144 gate 2 1;
#X msg 206 4 1;
#X obj 207 53 % 2;
#X obj 207 79 + 1;
#X msg 172 303 1;
#X floatatom 219 379 5 0 0 0 - - - 0;
#X obj 228 296 sel 1;
#X obj 405 239 t a a;
#X obj 326 43 sel 1 0;
#X obj 326 11 t a a a;
#X msg 58 448 60;
#X msg 134 450 64;
#X msg 201 449 67;
#X msg 279 450 71;
#X msg 239 449 69;
#X msg 313 451 72;
#X msg 95 449 62;
#X msg 165 450 65;
#X obj 464 658 throw~ mono;
#X obj 468 626 string_synth;
#X obj 1192 122 switch~;
#X obj 1188 66 == 1;
#N canvas 153 77 1127 701 ledstrip1 0;
#X obj 81 32 inlet;
#X obj 131 65 tgl 19 0 empty empty empty 0 -10 0 12 #fcfcfc #000000 #000000 0 1;
#X obj 81 64 t a a;
#X obj 130 131 tgl 19 0 empty empty empty 0 -10 0 12 #fcfcfc #000000 #000000 0 1;
#X obj 80 130 t a a;
#X obj 131 198 tgl 19 0 empty empty empty 0 -10 0 12 #fcfcfc #000000 #000000 0 1;
#X obj 81 197 t a a;
#X obj 132 267 tgl 19 0 empty empty empty 0 -10 0 12 #fcfcfc #000000 #000000 0 1;
#X obj 82 266 t a a;
#X obj 132 334 tgl 19 0 empty empty empty 0 -10 0 12 #fcfcfc #000000 #000000 0 1;
#X obj 82 333 t a a;
#X obj 131 400 tgl 19 0 empty empty empty 0 -10 0 12 #fcfcfc #000000 #000000 0 1;
#X obj 81 399 t a a;
#X obj 132 467 tgl 19 0 empty empty empty 0 -10 0 12 #fcfcfc #000000 #000000 0 1;
#X obj 82 466 t a a;
#X obj 843 664 outlet;
#X obj 105 654 outlet;
#X obj 317 69 tgl 19 0 empty empty empty 0 -10 0 12 #fcfcfc #000000 #000000 0 1;
#X obj 267 68 t a a;
#X obj 316 135 tgl 19 0 empty empty empty 0 -10 0 12 #fcfcfc #000000 #000000 0 1;
#X obj 266 134 t a a;
#X obj 317 202 tgl 19 0 empty empty empty 0 -10 0 12 #fcfcfc #000000 #000000 0 1;
#X obj 267 201 t a a;
#X obj 318 271 tgl 19 0 empty empty empty 0 -10 0 12 #fcfcfc #000000 #000000 0 1;
#X obj 268 270 t a a;
#X obj 318 338 tgl 19 0 empty empty empty 0 -10 0 12 #fcfcfc #000000 #000000 0 1;
#X obj 268 337 t a a;
#X obj 317 404 tgl 19 0 empty empty empty 0 -10 0 12 #fcfcfc #000000 #000000 0 1;
#X obj 267 403 t a a;
#X obj 318 471 tgl 19 0 empty empty empty 0 -10 0 12 #fcfcfc #000000 #000000 0 1;
#X obj 268 470 t a a;
#X obj 334 594 tgl 19 0 empty empty empty 0 -10 0 12 #fcfcfc #000000 #000000 0 1;
#X obj 242 603 t a b a;
#X obj 131 526 tgl 19 0 empty empty empty 0 -10 0 12 #fcfcfc #000000 #000000 0 1;
#X obj 81 525 t a a;
#X obj 655 625 pak 0 0 0 0 0 0 0 0 0 0 0 0 0 0 0 0, f 49;
#X obj 572 42 inlet;
#X msg 573 100 clear;
#X obj 333 662 outlet;
#X obj 358 626 ||;
#X obj 242 529 route 0;
#X msg 242 577 0;
#X obj 132 28 tgl 19 0 empty empty empty 0 -10 0 12 #fcfcfc #000000 #000000 0 1;
#X msg 652 79 0 0 0 0 0 0 0 0 0 0 0 0 0 0 0 0;
#X obj 572 71 t b b;
#X msg 531 78 0;
#X msg 180 611 1;
#X obj 225 643 tgl 19 0 empty empty empty 0 -10 0 12 #fcfcfc #000000 #000000 0 1;
#X obj 105 585 sel 1;
#X obj 81 95 pipe 100;
#X obj 80 161 pipe 100;
#X obj 81 228 pipe 100;
#X obj 82 297 pipe 100;
#X obj 82 364 pipe 100;
#X obj 81 430 pipe 100;
#X obj 82 497 pipe 100;
#X obj 81 556 pipe 100;
#X obj 267 99 pipe 100;
#X obj 266 165 pipe 100;
#X obj 267 232 pipe 100;
#X obj 268 301 pipe 100;
#X obj 268 368 pipe 100;
#X obj 267 434 pipe 100;
#X obj 268 501 pipe 100;
#X obj 241 554 delay 400;
#X connect 0 0 2 0;
#X connect 2 0 49 0;
#X connect 2 1 1 0;
#X connect 2 1 35 0;
#X connect 4 0 50 0;
#X connect 4 1 3 0;
#X connect 4 1 35 1;
#X connect 6 0 51 0;
#X connect 6 1 5 0;
#X connect 6 1 35 2;
#X connect 8 0 52 0;
#X connect 8 0 48 0;
#X connect 8 1 7 0;
#X connect 8 1 35 3;
#X connect 10 0 53 0;
#X connect 10 1 9 0;
#X connect 10 1 35 4;
#X connect 12 0 54 0;
#X connect 12 1 11 0;
#X connect 12 1 35 5;
#X connect 14 0 55 0;
#X connect 14 1 13 0;
#X connect 14 1 35 6;
#X connect 18 0 57 0;
#X connect 18 1 17 0;
#X connect 18 1 35 8;
#X connect 20 0 58 0;
#X connect 20 1 19 0;
#X connect 20 1 35 9;
#X connect 22 0 59 0;
#X connect 22 1 21 0;
#X connect 22 1 35 10;
#X connect 24 0 60 0;
#X connect 24 1 23 0;
#X connect 24 1 35 11;
#X connect 26 0 61 0;
#X connect 26 1 25 0;
#X connect 26 1 35 12;
#X connect 28 0 62 0;
#X connect 28 1 27 0;
#X connect 28 1 35 13;
#X connect 30 0 63 0;
#X connect 30 1 29 0;
#X connect 30 1 35 14;
#X connect 30 1 39 0;
#X connect 32 0 16 0;
#X connect 32 1 39 0;
#X connect 32 2 31 0;
#X connect 32 2 35 15;
#X connect 32 2 39 1;
#X connect 34 0 56 0;
#X connect 34 1 33 0;
#X connect 34 1 35 7;
#X connect 35 0 15 0;
#X connect 36 0 44 0;
#X connect 37 0 49 0;
#X connect 37 0 50 0;
#X connect 37 0 51 0;
#X connect 37 0 52 0;
#X connect 37 0 53 0;
#X connect 37 0 54 0;
#X connect 37 0 55 0;
#X connect 37 0 56 0;
#X connect 37 0 57 0;
#X connect 37 0 58 0;
#X connect 37 0 59 0;
#X connect 37 0 60 0;
#X connect 37 0 61 0;
#X connect 37 0 62 0;
#X connect 37 0 63 0;
#X connect 40 0 64 0;
#X connect 40 1 32 0;
#X connect 41 0 32 0;
#X connect 41 0 47 0;
#X connect 42 0 2 0;
#X connect 43 0 15 0;
#X connect 44 0 43 0;
#X connect 44 0 45 0;
#X connect 44 1 37 0;
#X connect 45 0 2 0;
#X connect 46 0 47 0;
#X connect 47 0 38 0;
#X connect 48 0 46 0;
#X connect 49 0 4 0;
#X connect 50 0 6 0;
#X connect 51 0 8 0;
#X connect 52 0 10 0;
#X connect 53 0 12 0;
#X connect 54 0 14 0;
#X connect 55 0 34 0;
#X connect 56 0 18 0;
#X connect 57 0 20 0;
#X connect 58 0 22 0;
#X connect 59 0 24 0;
#X connect 60 0 26 0;
#X connect 61 0 28 0;
#X connect 62 0 30 0;
#X connect 63 0 40 0;
#X connect 64 0 41 0;
#X restore 251 191 pd ledstrip1;
#X obj 171 409 sel 0 1 2 3 4 5 6 7;
#X obj 173 349 % 8;
#X obj 278 104 t b b;
#X obj 378 105 t b b;
#X obj 300 231 t a a;
#X obj 172 265 sel 1;
#X obj 206 29 +;
#X msg 240 31 0;
#X obj 172 325 + 0;
#X msg 207 327 -1;
#X obj 324 265 tgl 19 0 empty empty empty 0 -10 0 12 #fcfcfc #000000 #000000 0 1;
#X obj 309 559 makenote 80 4000;
#X obj 265 509 i;
#X obj 307 325 sel 1;
#X obj 295 297 change;
#X obj 354 359 sel 0;
#X msg 367 400 stop;
#X obj 403 209 t b a;
#X obj 257 231 t b a;
#X obj 410 320 sel 1;
#X obj 398 292 change;
#X obj 410 372 sel 0;
#X msg 423 413 stop;
#X obj 334 628 pack;
#N canvas 153 77 1127 701 ledstrip2 0;
#X obj 81 32 inlet;
#X obj 131 65 tgl 19 0 empty empty empty 0 -10 0 12 #fcfcfc #000000 #000000 0 1;
#X obj 81 64 t a a;
#X obj 130 131 tgl 19 0 empty empty empty 0 -10 0 12 #fcfcfc #000000 #000000 0 1;
#X obj 80 130 t a a;
#X obj 131 198 tgl 19 0 empty empty empty 0 -10 0 12 #fcfcfc #000000 #000000 0 1;
#X obj 81 197 t a a;
#X obj 132 267 tgl 19 0 empty empty empty 0 -10 0 12 #fcfcfc #000000 #000000 0 1;
#X obj 82 266 t a a;
#X obj 132 334 tgl 19 0 empty empty empty 0 -10 0 12 #fcfcfc #000000 #000000 0 1;
#X obj 82 333 t a a;
#X obj 131 400 tgl 19 0 empty empty empty 0 -10 0 12 #fcfcfc #000000 #000000 0 1;
#X obj 81 399 t a a;
#X obj 132 467 tgl 19 0 empty empty empty 0 -10 0 12 #fcfcfc #000000 #000000 0 1;
#X obj 82 466 t a a;
#X obj 843 664 outlet;
#X obj 105 654 outlet;
#X obj 317 69 tgl 19 0 empty empty empty 0 -10 0 12 #fcfcfc #000000 #000000 0 1;
#X obj 267 68 t a a;
#X obj 316 135 tgl 19 0 empty empty empty 0 -10 0 12 #fcfcfc #000000 #000000 0 1;
#X obj 266 134 t a a;
#X obj 317 202 tgl 19 0 empty empty empty 0 -10 0 12 #fcfcfc #000000 #000000 0 1;
#X obj 267 201 t a a;
#X obj 318 271 tgl 19 0 empty empty empty 0 -10 0 12 #fcfcfc #000000 #000000 0 1;
#X obj 268 270 t a a;
#X obj 318 338 tgl 19 0 empty empty empty 0 -10 0 12 #fcfcfc #000000 #000000 0 1;
#X obj 268 337 t a a;
#X obj 317 404 tgl 19 0 empty empty empty 0 -10 0 12 #fcfcfc #000000 #000000 0 1;
#X obj 267 403 t a a;
#X obj 318 471 tgl 19 0 empty empty empty 0 -10 0 12 #fcfcfc #000000 #000000 0 1;
#X obj 268 470 t a a;
#X obj 334 594 tgl 19 0 empty empty empty 0 -10 0 12 #fcfcfc #000000 #000000 0 1;
#X obj 242 603 t a b a;
#X obj 131 526 tgl 19 0 empty empty empty 0 -10 0 12 #fcfcfc #000000 #000000 0 1;
#X obj 81 525 t a a;
#X obj 655 625 pak 0 0 0 0 0 0 0 0 0 0 0 0 0 0 0 0, f 49;
#X obj 572 42 inlet;
#X msg 573 100 clear;
#X obj 333 662 outlet;
#X obj 358 626 ||;
#X obj 242 529 route 0;
#X msg 242 577 0;
#X obj 132 28 tgl 19 0 empty empty empty 0 -10 0 12 #fcfcfc #000000 #000000 0 1;
#X msg 652 79 0 0 0 0 0 0 0 0 0 0 0 0 0 0 0 0;
#X obj 572 71 t b b;
#X msg 531 78 0;
#X msg 180 611 1;
#X obj 225 643 tgl 19 0 empty empty empty 0 -10 0 12 #fcfcfc #000000 #000000 0 1;
#X obj 105 585 sel 1;
#X obj 81 95 pipe 100;
#X obj 80 161 pipe 100;
#X obj 81 228 pipe 100;
#X obj 82 297 pipe 100;
#X obj 82 364 pipe 100;
#X obj 81 430 pipe 100;
#X obj 82 497 pipe 100;
#X obj 81 556 pipe 100;
#X obj 267 99 pipe 100;
#X obj 266 165 pipe 100;
#X obj 267 232 pipe 100;
#X obj 268 301 pipe 100;
#X obj 268 368 pipe 100;
#X obj 267 434 pipe 100;
#X obj 268 501 pipe 100;
#X obj 241 554 delay 400;
#X connect 0 0 2 0;
#X connect 2 0 49 0;
#X connect 2 1 1 0;
#X connect 2 1 35 0;
#X connect 4 0 50 0;
#X connect 4 1 3 0;
#X connect 4 1 35 1;
#X connect 6 0 51 0;
#X connect 6 1 5 0;
#X connect 6 1 35 2;
#X connect 8 0 52 0;
#X connect 8 0 48 0;
#X connect 8 1 7 0;
#X connect 8 1 35 3;
#X connect 10 0 53 0;
#X connect 10 1 9 0;
#X connect 10 1 35 4;
#X connect 12 0 54 0;
#X connect 12 1 11 0;
#X connect 12 1 35 5;
#X connect 14 0 55 0;
#X connect 14 1 13 0;
#X connect 14 1 35 6;
#X connect 18 0 57 0;
#X connect 18 1 17 0;
#X connect 18 1 35 8;
#X connect 20 0 58 0;
#X connect 20 1 19 0;
#X connect 20 1 35 9;
#X connect 22 0 59 0;
#X connect 22 1 21 0;
#X connect 22 1 35 10;
#X connect 24 0 60 0;
#X connect 24 1 23 0;
#X connect 24 1 35 11;
#X connect 26 0 61 0;
#X connect 26 1 25 0;
#X connect 26 1 35 12;
#X connect 28 0 62 0;
#X connect 28 1 27 0;
#X connect 28 1 35 13;
#X connect 30 0 63 0;
#X connect 30 1 29 0;
#X connect 30 1 35 14;
#X connect 30 1 39 0;
#X connect 32 0 16 0;
#X connect 32 1 39 0;
#X connect 32 2 31 0;
#X connect 32 2 35 15;
#X connect 32 2 39 1;
#X connect 34 0 56 0;
#X connect 34 1 33 0;
#X connect 34 1 35 7;
#X connect 35 0 15 0;
#X connect 36 0 44 0;
#X connect 37 0 49 0;
#X connect 37 0 50 0;
#X connect 37 0 51 0;
#X connect 37 0 52 0;
#X connect 37 0 53 0;
#X connect 37 0 54 0;
#X connect 37 0 55 0;
#X connect 37 0 56 0;
#X connect 37 0 57 0;
#X connect 37 0 58 0;
#X connect 37 0 59 0;
#X connect 37 0 60 0;
#X connect 37 0 61 0;
#X connect 37 0 62 0;
#X connect 37 0 63 0;
#X connect 40 0 64 0;
#X connect 40 1 32 0;
#X connect 41 0 32 0;
#X connect 41 0 47 0;
#X connect 42 0 2 0;
#X connect 43 0 15 0;
#X connect 44 0 43 0;
#X connect 44 0 45 0;
#X connect 44 1 37 0;
#X connect 45 0 2 0;
#X connect 46 0 47 0;
#X connect 47 0 38 0;
#X connect 48 0 46 0;
#X connect 49 0 4 0;
#X connect 50 0 6 0;
#X connect 51 0 8 0;
#X connect 52 0 10 0;
#X connect 53 0 12 0;
#X connect 54 0 14 0;
#X connect 55 0 34 0;
#X connect 56 0 18 0;
#X connect 57 0 20 0;
#X connect 58 0 22 0;
#X connect 59 0 24 0;
#X connect 60 0 26 0;
#X connect 61 0 28 0;
#X connect 62 0 30 0;
#X connect 63 0 40 0;
#X connect 64 0 41 0;
#X restore 360 186 pd ledstrip2;
#X obj 377 84 del 200;
#X obj 278 77 metro 1800;
#X obj 490 65 print play;
#X msg 57 667 50;
#X msg 94 668 52;
#X msg 133 669 54;
#X msg 164 669 55;
#X msg 200 668 57;
#X msg 238 668 59;
#X msg 278 669 61;
#X msg 312 670 62;
#X obj 160 574 bng 19 250 50 0 empty empty empty 0 -10 0 12 #fcfcfc #000000 #000000;
#X obj 78 630 sel 0 1 2 3 4 5 6 7;
#X obj 153 384 gate 2 1;
#X connect 0 0 19 1;
#X connect 1 0 0 0;
#X connect 3 0 56 1;
#X connect 4 0 3 0;
#X connect 5 0 30 0;
#X connect 6 0 3 0;
#X connect 7 0 30 0;
#X connect 8 0 13 0;
#X connect 9 2 1 0;
#X connect 10 0 17 0;
#X connect 10 0 18 0;
#X connect 10 0 31 0;
#X connect 11 0 14 0;
#X connect 13 0 11 0;
#X connect 13 0 16 0;
#X connect 13 1 21 0;
#X connect 13 1 16 0;
#X connect 13 2 22 0;
#X connect 13 2 16 0;
#X connect 13 3 20 0;
#X connect 13 3 15 0;
#X connect 15 0 19 0;
#X connect 15 0 35 0;
#X connect 15 0 123 0;
#X connect 16 0 19 0;
#X connect 16 0 35 0;
#X connect 16 0 123 0;
#X connect 17 0 9 0;
#X connect 18 0 17 0;
#X connect 18 0 31 0;
#X connect 19 0 81 0;
#X connect 19 1 81 0;
#X connect 20 0 14 0;
#X connect 21 0 14 0;
#X connect 22 0 14 0;
#X connect 23 0 83 0;
#X connect 30 0 55 1;
#X connect 31 0 29 0;
#X connect 32 0 50 0;
#X connect 33 0 35 1;
#X connect 34 0 50 0;
#X connect 35 0 32 0;
#X connect 35 1 34 0;
#X connect 36 0 25 0;
#X connect 37 0 33 0;
#X connect 37 0 36 0;
#X connect 37 1 38 0;
#X connect 37 1 48 0;
#X connect 38 0 25 0;
#X connect 39 0 33 0;
#X connect 39 0 40 0;
#X connect 39 1 41 0;
#X connect 39 1 49 0;
#X connect 40 0 26 0;
#X connect 41 0 26 0;
#X connect 42 0 27 0;
#X connect 43 0 27 0;
#X connect 44 0 28 0;
#X connect 45 0 28 0;
#X connect 46 0 50 0;
#X connect 47 0 0 0;
#X connect 48 0 17 0;
#X connect 48 1 46 0;
#X connect 49 0 17 0;
#X connect 49 1 46 0;
#X connect 50 0 47 0;
#X connect 50 1 47 1;
#X connect 51 0 71 0;
#X connect 52 0 71 0;
#X connect 53 0 27 0;
#X connect 53 0 99 0;
#X connect 54 0 28 0;
#X connect 54 0 105 0;
#X connect 55 0 39 0;
#X connect 55 1 69 0;
#X connect 56 0 37 0;
#X connect 56 1 89 0;
#X connect 57 0 56 0;
#X connect 57 0 55 0;
#X connect 57 0 112 0;
#X connect 59 0 62 1;
#X connect 59 0 90 0;
#X connect 60 0 59 0;
#X connect 61 0 59 0;
#X connect 62 0 84 0;
#X connect 62 1 109 0;
#X connect 63 0 91 0;
#X connect 64 0 65 0;
#X connect 64 0 91 1;
#X connect 65 0 62 0;
#X connect 66 0 93 0;
#X connect 69 0 54 0;
#X connect 69 1 106 0;
#X connect 70 1 10 0;
#X connect 70 1 92 0;
#X connect 70 1 94 0;
#X connect 70 1 84 1;
#X connect 70 1 109 1;
#X connect 71 0 70 0;
#X connect 71 1 111 0;
#X connect 71 2 57 0;
#X connect 72 0 97 1;
#X connect 73 0 97 1;
#X connect 74 0 97 1;
#X connect 75 0 97 1;
#X connect 76 0 97 1;
#X connect 77 0 97 1;
#X connect 78 0 97 1;
#X connect 79 0 97 1;
#X connect 81 0 80 0;
#X connect 83 0 82 0;
#X connect 84 1 103 0;
#X connect 84 2 25 0;
#X connect 85 0 72 0;
#X connect 85 1 78 0;
#X connect 85 2 73 0;
#X connect 85 3 79 0;
#X connect 85 4 74 0;
#X connect 85 5 76 0;
#X connect 85 6 75 0;
#X connect 85 7 77 0;
#X connect 86 0 67 0;
#X connect 86 0 93 1;
#X connect 86 0 123 1;
#X connect 87 0 110 0;
#X connect 87 1 60 0;
#X connect 88 0 63 0;
#X connect 88 1 61 0;
#X connect 89 0 53 0;
#X connect 89 0 95 0;
#X connect 89 1 100 0;
#X connect 90 0 66 0;
#X connect 91 0 64 0;
#X connect 92 0 91 1;
#X connect 93 0 86 0;
#X connect 94 0 93 1;
#X connect 96 0 108 0;
#X connect 96 1 108 1;
#X connect 97 0 96 0;
#X connect 98 0 97 0;
#X connect 99 0 98 0;
#X connect 100 0 101 0;
#X connect 101 0 96 0;
#X connect 102 0 54 0;
#X connect 102 1 54 1;
#X connect 103 0 53 0;
#X connect 103 1 53 1;
#X connect 104 0 97 0;
#X connect 105 0 104 0;
#X connect 106 0 107 0;
#X connect 107 0 96 0;
#X connect 108 0 0 0;
#X connect 109 1 102 0;
#X connect 109 2 26 0;
#X connect 110 0 88 0;
#X connect 111 0 87 0;
#X connect 113 0 97 1;
#X connect 114 0 97 1;
#X connect 115 0 97 1;
#X connect 116 0 97 1;
#X connect 117 0 97 1;
#X connect 118 0 97 1;
#X connect 119 0 97 1;
#X connect 120 0 97 1;
#X connect 121 0 97 0;
#X connect 122 0 113 0;
#X connect 122 1 114 0;
#X connect 122 2 115 0;
#X connect 122 3 116 0;
#X connect 122 4 117 0;
#X connect 122 5 118 0;
#X connect 122 6 119 0;
#X connect 122 7 120 0;
#X connect 123 0 85 0;
#X connect 123 1 122 0;
