#N canvas 126 23 1100 643 12;
#N canvas 690 497 590 281 counter 0;
#X obj 159 129 t b b b;
#X floatatom 242 182 5 0 0 0 - - - 0;
#X obj 188 200 /;
#X floatatom 242 219 5 0 0 0 - - - 0;
#X obj 188 229 i;
#X floatatom 242 248 5 0 0 0 - - - 0;
#X obj 242 153 inlet;
#X obj 158 100 inlet;
#X msg 119 230 0;
#X obj 159 276 metro;
#X msg 188 171 60000;
#X msg 208 276 0;
#X obj 159 305 i;
#X obj 194 305 + 1;
#X floatatom 112 305 5 0 0 0 - - - 0;
#X floatatom 159 334 5 0 0 0 - - - 0;
#X obj 159 362 % 8;
#X floatatom 159 391 5 0 0 0 - - - 0;
#X obj 159 448 outlet;
#X text 54 22 Due to the absence of a Vanilla counter here is one from cheetomoskeeto;
#X text 346 110 BPM;
#X text 239 134 Recalculate;
#X text 156 76 Start clock;
#X obj 48 194 inlet;
#X text 47 171 Stop;
#X obj 349 135 inlet;
#X msg 398 163 120;
#X obj 274 98 bng 19 250 50 0 empty empty empty 0 -10 0 12 #fcfcfc #000000 #000000;
#X obj 89 85 bng 19 250 50 0 empty empty empty 0 -10 0 12 #fcfcfc #000000 #000000;
#X obj 288 291 inlet;
#X text 287 269 Reset;
#X obj 159 419 sel 0 1 2 3 4 5 6 7;
#X obj 175 477 outlet;
#X obj 191 506 outlet;
#X obj 207 535 outlet;
#X obj 224 448 outlet;
#X obj 240 477 outlet;
#X obj 256 506 outlet;
#X obj 272 535 outlet;
#X obj 103 419 outlet;
#X obj 398 134 loadbang;
#X text 396 109 Default BPM;
#X connect 0 0 9 0;
#X connect 0 1 10 0;
#X connect 0 2 1 0;
#X connect 1 0 2 1;
#X connect 2 0 3 0;
#X connect 2 0 4 0;
#X connect 4 0 5 0;
#X connect 4 0 9 1;
#X connect 6 0 1 0;
#X connect 7 0 0 0;
#X connect 8 0 9 0;
#X connect 9 0 12 0;
#X connect 9 0 14 0;
#X connect 10 0 2 0;
#X connect 11 0 12 1;
#X connect 12 0 13 0;
#X connect 12 0 15 0;
#X connect 13 0 12 1;
#X connect 15 0 16 0;
#X connect 16 0 17 0;
#X connect 17 0 31 0;
#X connect 23 0 8 0;
#X connect 25 0 1 0;
#X connect 26 0 1 0;
#X connect 27 0 1 0;
#X connect 28 0 0 0;
#X connect 29 0 11 0;
#X connect 31 0 18 0;
#X connect 31 1 32 0;
#X connect 31 2 33 0;
#X connect 31 3 34 0;
#X connect 31 4 35 0;
#X connect 31 5 36 0;
#X connect 31 6 37 0;
#X connect 31 7 38 0;
#X connect 40 0 26 0;
#X restore 566 251 pd counter;
#X f 17;
#X floatatom 488 283 5 0 0 0 - - - 0;
#X obj 537 222 bng 19 250 50 0 empty empty empty 0 -10 0 12 #fcfcfc #000000 #000000;
#X text 516 202 Start;
#X msg 756 261 60;
#X text 752 208 BPM input;
#X obj 576 222 bng 19 250 50 0 empty empty empty 0 -10 0 12 #fcfcfc #000000 #000000;
#X text 575 201 Recalculate BPM;
#X msg 756 290 120;
#X msg 756 232 30;
#X obj 479 222 bng 19 250 50 0 empty empty empty 0 -10 0 12 #fcfcfc #000000 #000000;
#X text 466 202 Stop;
#X obj 696 221 bng 19 250 50 0 empty empty empty 0 -10 0 12 #fcfcfc #000000 #000000;
#X text 692 201 Reset;
#X msg 756 319 240;
#X obj 580 281 bng 19 250 50 0 empty empty empty 0 -10 0 12 #fcfcfc #000000 #000000;
#X obj 595 310 bng 19 250 50 0 empty empty empty 0 -10 0 12 #fcfcfc #000000 #000000;
#X obj 610 339 bng 19 250 50 0 empty empty empty 0 -10 0 12 #fcfcfc #000000 #000000;
#X obj 624 368 bng 19 250 50 0 empty empty empty 0 -10 0 12 #fcfcfc #000000 #000000;
#X obj 638 281 bng 19 250 50 0 empty empty empty 0 -10 0 12 #fcfcfc #000000 #000000;
#X obj 653 310 bng 19 250 50 0 empty empty empty 0 -10 0 12 #fcfcfc #000000 #000000;
#X obj 668 339 bng 19 250 50 0 empty empty empty 0 -10 0 12 #fcfcfc #000000 #000000;
#X obj 682 368 bng 19 250 50 0 empty empty empty 0 -10 0 12 #fcfcfc #000000 #000000;
#N canvas 264 152 944 625 sample 0;
#N canvas 0 22 450 278 (subpatch) 0;
#X array array1 88192 float 2;
#X coords 0 1 88192 -1 200 140 1;
#X restore 267 43 graph;
#X obj 80 93 soundfiler;
#X floatatom 80 122 16 0 0 0 - - - 0;
#X obj 80 35 openpanel;
#X obj 80 5 bng 19 250 50 0 empty empty empty 0 -10 0 12 #fcfcfc #000000 #000000;
#X obj 494 259 tabread4~ array1;
#X floatatom 512 288 5 0 0 0 - - - 0;
#X obj 494 230 vline~;
#X msg 494 201 \$1 \, \$2 \$3;
#X obj 527 43 r end;
#X obj 494 173 pack f f f;
#X obj 723 14 r end;
#X floatatom 576 70 10 0 0 0 - - - 0;
#X obj 80 150 s end;
#X obj 268 196 hsl 200 19 0 88192 0 0 empty empty empty -2 -10 0 12 #c6ffc7 #000000 #000000 0 1;
#X msg 128 150 range 0 \$1;
#X floatatom 265 220 19 0 0 0 - - - 0;
#X obj 204 219 s start;
#X obj 523 14 r start;
#X obj 494 14 bng 19 250 50 0 empty empty empty 0 -10 0 12 #fcfcfc #000000 #000000;
#X obj 494 44 f;
#X msg 577 202 stop;
#X msg 627 208 \$1 100;
#X obj 627 179 r start;
#X obj 576 43 expr abs($f2 - $f1) / 44.1;
#X obj 267 256 hsl 200 19 0 88192 0 0 empty empty empty -2 -10 0 12 #ffc7c6 #000000 #000000 0 1;
#X obj 215 285 s end;
#X floatatom 264 285 19 0 0 0 - - - 0;
#X obj 690 179 r end;
#X obj 576 106 / 1;
#X floatatom 623 107 5 0.5 2 0 - - - 0;
#X obj 439 7 inlet;
#X msg 80 64 read -resize amen.wav array1;
#X obj 11 38 loadbang;
#X msg 176 309 6204;
#X msg 164 222 0;
#X obj 483 346 outlet~;
#X obj 92 286 loadbang;
#X obj 92 331 delay 1000;
#X obj 494 316 *~ 1;
#X connect 1 0 2 0;
#X connect 2 0 13 0;
#X connect 2 0 15 0;
#X connect 4 0 3 0;
#X connect 5 0 39 0;
#X connect 6 0 39 1;
#X connect 7 0 5 0;
#X connect 8 0 7 0;
#X connect 9 0 10 1;
#X connect 10 0 8 0;
#X connect 11 0 24 1;
#X connect 12 0 29 0;
#X connect 14 0 16 0;
#X connect 14 0 17 0;
#X connect 15 0 14 0;
#X connect 15 0 25 0;
#X connect 18 0 20 1;
#X connect 18 0 24 0;
#X connect 19 0 20 0;
#X connect 20 0 10 0;
#X connect 21 0 7 0;
#X connect 22 0 7 0;
#X connect 23 0 22 0;
#X connect 24 0 12 0;
#X connect 25 0 26 0;
#X connect 25 0 27 0;
#X connect 28 0 22 0;
#X connect 29 0 10 2;
#X connect 30 0 29 1;
#X connect 31 0 19 0;
#X connect 32 0 1 0;
#X connect 33 0 32 0;
#X connect 34 0 26 0;
#X connect 35 0 17 0;
#X connect 37 0 38 0;
#X connect 38 0 35 0;
#X connect 38 0 34 0;
#X connect 39 0 36 0;
#X restore 370 389 pd sample;
#X obj 446 59 inlet;
#X obj 572 59 inlet;
#X obj 273 62 inlet;
#X obj 320 63 tgl 19 0 empty empty empty 0 -10 0 12 #fcfcfc #000000 #000000 0 1;
#X obj 490 61 tgl 19 0 empty empty empty 0 -10 0 12 #fcfcfc #000000 #000000 0 1;
#X obj 619 59 tgl 19 0 empty empty empty 0 -10 0 12 #fcfcfc #000000 #000000 0 1;
#X obj 698 54 inlet;
#X text 747 54 instrument num;
#X obj 909 195 switch~;
#X obj 911 63 inlet;
#X text 929 104 mode enable;
#X msg 936 127 3;
#X obj 910 160 == 3;
#X text 693 75 ignore;
#X text 268 37 play/stop;
#X text 447 31 sensor1;
#X text 569 34 sensor2;
#X text 911 40 mode;
#X obj 1040 77 inlet;
#X obj 371 435 throw~ mono;
#X obj 374 358 bng 19 250 50 0 empty empty empty 0 -10 0 12 #fcfcfc #000000 #000000;
#X connect 0 0 1 0;
#X connect 0 1 15 0;
#X connect 0 2 16 0;
#X connect 0 3 17 0;
#X connect 0 4 18 0;
#X connect 0 5 19 0;
#X connect 0 6 20 0;
#X connect 0 7 21 0;
#X connect 0 8 22 0;
#X connect 2 0 0 1;
#X connect 4 0 0 4;
#X connect 6 0 0 2;
#X connect 8 0 0 4;
#X connect 9 0 0 4;
#X connect 10 0 0 0;
#X connect 12 0 0 3;
#X connect 14 0 0 4;
#X connect 23 0 43 0;
#X connect 33 0 36 0;
#X connect 35 0 36 0;
#X connect 36 0 32 0;
#X connect 42 0 23 0;
#X connect 44 0 23 0;
