#N canvas 0 40 1790 1032 12;
#X obj 225 687 inlet;
#X obj 370 687 inlet;
#X obj 72 684 inlet;
#X obj 119 685 tgl 19 0 empty empty empty 0 -10 0 12 #fcfcfc #000000 #000000 0 1;
#X obj 516 688 inlet;
#X text 512 663 instrument num;
#X obj 649 791 switch~;
#X obj 650 686 inlet;
#X text 668 710 mode enable;
#X msg 675 733 3;
#X obj 649 762 == 3;
#X text 511 709 ignore;
#X text 67 659 play/stop;
#X text 226 659 sensor1;
#X text 367 662 sensor2;
#X text 650 663 mode;
#X obj 72 715 sel 0 1;
#N canvas 51 97 1181 681 counter 0;
#X obj 159 129 t b b b;
#X floatatom 242 182 5 0 0 0 - - - 0;
#X obj 188 200 /;
#X floatatom 242 219 5 0 0 0 - - - 0;
#X obj 188 229 i;
#X floatatom 242 248 5 0 0 0 - - - 0;
#X obj 242 153 inlet;
#X obj 158 100 inlet;
#X msg 119 230 0;
#X obj 159 276 metro;
#X msg 188 171 60000;
#X msg 208 276 0;
#X obj 159 305 i;
#X obj 194 305 + 1;
#X floatatom 161 333 5 0 0 0 - - - 0;
#X text 54 22 Due to the absence of a Vanilla counter here is one from cheetomoskeeto;
#X text 346 110 BPM;
#X text 239 134 Recalculate;
#X text 156 76 Start clock;
#X obj 48 194 inlet;
#X text 47 171 Stop;
#X obj 349 135 inlet;
#X obj 274 98 bng 19 250 50 0 empty empty empty 0 -10 0 12 #fcfcfc #000000 #000000;
#X obj 89 85 bng 19 250 50 0 empty empty empty 0 -10 0 12 #fcfcfc #000000 #000000;
#X obj 303 80 inlet;
#X text 302 58 Reset;
#X obj 159 419 outlet;
#X obj 398 134 loadbang;
#X text 396 109 Default BPM;
#X msg 398 163 360;
#X obj 159 362 % 12;
#X obj 274 320 r reset_counter;
#X floatatom 185 386 5 0 0 0 - - - 0;
#X connect 0 0 9 0;
#X connect 0 1 10 0;
#X connect 0 2 1 0;
#X connect 1 0 2 1;
#X connect 2 0 3 0;
#X connect 2 0 4 0;
#X connect 4 0 5 0;
#X connect 4 0 9 1;
#X connect 6 0 1 0;
#X connect 7 0 0 0;
#X connect 8 0 9 0;
#X connect 9 0 12 0;
#X connect 10 0 2 0;
#X connect 11 0 12 1;
#X connect 11 0 14 0;
#X connect 12 0 13 0;
#X connect 12 0 14 0;
#X connect 13 0 12 1;
#X connect 14 0 30 0;
#X connect 19 0 8 0;
#X connect 21 0 1 0;
#X connect 22 0 1 0;
#X connect 22 0 0 0;
#X connect 23 0 0 0;
#X connect 24 0 11 0;
#X connect 27 0 29 0;
#X connect 29 0 1 0;
#X connect 30 0 26 0;
#X connect 30 0 32 0;
#X connect 31 0 11 0;
#X restore 1395 326 pd counter;
#X f 17;
#X obj 1344 295 bng 19 250 50 0 empty empty empty 0 -10 0 12 #fcfcfc #000000 #000000;
#X text 1346 275 Start;
#X msg 1464 36 60;
#X text 1387 38 BPM input;
#X obj 1405 297 bng 19 250 50 0 empty empty empty 0 -10 0 12 #fcfcfc #000000 #000000;
#X text 1404 276 Recalculate BPM;
#X msg 1464 94 120;
#X obj 1299 295 bng 19 250 50 0 empty empty empty 0 -10 0 12 #fcfcfc #000000 #000000;
#X text 1288 274 Stop, f 5;
#X obj 1531 294 bng 19 250 50 0 empty empty empty 0 -10 0 12 #fcfcfc #000000 #000000;
#X text 1527 274 Reset;
#X msg 1464 123 240;
#X msg 1464 65 90;
#X obj 1308 326 s stop;
#X obj 1264 139 r bpm;
#X obj 1264 168 t b b b;
#X text 19 10 Drumline;
#X obj 1359 350 hsl 162 19 0 12 0 0 empty empty empty -2 -10 0 12 #fcfcfc #000000 #000000 0 1;
#X obj 1396 381 s bar;
#X obj 72 71 r bar;
#X floatatom 25 107 5 0 0 0 - - - 0;
#X floatatom 73 161 5 0 0 0 - - - 0;
#X obj 238 167 bng 19 250 50 0 empty empty empty 0 -10 0 12 #fcfcfc #000000 #000000;
#X obj 237 138 spigot;
#X obj 477 72 r bar;
#X floatatom 430 108 5 0 0 0 - - - 0;
#X text 68 50 Kick;
#X obj 1165 583 r kick;
#N canvas 103 332 450 446 kick 0;
#X obj 134 212 vline~;
#X obj 172 328 *~;
#X obj 172 307 cos~;
#X obj 172 286 *~;
#X obj 172 264 *~;
#X obj 172 242 *~;
#X msg 134 190 1 0 0 \, 0 \$1 0;
#X obj 172 350 outlet~;
#X obj 228 397 switch~;
#X obj 228 349 env~;
#X obj 228 373 > 0.1;
#X msg 134 147 1;
#X obj 134 125 inlet;
#X obj 192 29 inlet;
#X obj 251 102 loadbang;
#X msg 194 127 2.4;
#X msg 135 169 70;
#X connect 0 0 1 1;
#X connect 0 0 5 0;
#X connect 0 0 3 1;
#X connect 1 0 7 0;
#X connect 1 0 9 0;
#X connect 2 0 1 0;
#X connect 3 0 2 0;
#X connect 4 0 3 0;
#X connect 5 0 4 1;
#X connect 5 0 4 0;
#X connect 6 0 0 0;
#X connect 9 0 10 0;
#X connect 10 0 8 0;
#X connect 11 0 8 0;
#X connect 11 0 16 0;
#X connect 12 0 11 0;
#X connect 13 0 15 0;
#X connect 14 0 15 0;
#X connect 15 0 5 1;
#X connect 16 0 6 0;
#X restore 1165 607 pd kick;
#X obj 238 191 s kick;
#X text 473 51 Snare;
#N canvas 237 74 450 704 snare 0;
#X obj 193 234 vline~;
#X obj 175 460 *~;
#X obj 211 296 cos~;
#X obj 161 169 t f f;
#X obj 211 276 *~;
#X obj 175 482 outlet~;
#X obj 231 529 switch~;
#X obj 231 481 env~;
#X obj 231 505 > 0.1;
#X msg 229 425 1;
#X obj 183 87 t b b b;
#X obj 183 41 inlet;
#X obj 193 392 *~;
#X obj 175 439 cos~;
#X obj 193 345 +~;
#X obj 175 365 *~;
#X obj 193 414 *~;
#X obj 193 322 sig~ 5;
#X obj 229 192 /;
#X obj 183 115 del 5;
#X msg 183 63 1;
#X msg 183 140 90;
#X msg 229 140 70;
#X msg 285 140 6;
#X msg 193 212 1 0 0 \, 0 \$1 3;
#X obj 257 91 loadbang;
#X obj 146 504 s~ \$0-snfb;
#X obj 175 254 r~ \$0-snfb;
#X connect 0 0 4 0;
#X connect 0 0 12 0;
#X connect 0 0 12 1;
#X connect 1 0 5 0;
#X connect 1 0 7 0;
#X connect 1 0 26 0;
#X connect 2 0 14 1;
#X connect 3 0 18 0;
#X connect 3 1 24 0;
#X connect 4 0 2 0;
#X connect 7 0 8 0;
#X connect 8 0 6 0;
#X connect 9 0 6 0;
#X connect 10 0 19 0;
#X connect 10 1 23 0;
#X connect 10 2 9 0;
#X connect 11 0 20 0;
#X connect 12 0 16 0;
#X connect 12 0 16 1;
#X connect 13 0 1 0;
#X connect 14 0 15 1;
#X connect 15 0 13 0;
#X connect 16 0 1 1;
#X connect 17 0 14 0;
#X connect 18 0 4 1;
#X connect 19 0 21 0;
#X connect 19 0 22 0;
#X connect 20 0 10 0;
#X connect 21 0 3 0;
#X connect 22 0 3 0;
#X connect 23 0 18 1;
#X connect 24 0 0 0;
#X connect 25 0 20 0;
#X connect 27 0 15 0;
#X restore 1095 606 pd snare;
#X obj 1095 582 r snare;
#N canvas 103 332 450 446 hihat 0;
#X obj 168 152 noise~;
#X obj 168 282 *~, f 5;
#X obj 170 73 inlet;
#X obj 168 326 outlet~;
#X obj 202 258 line~;
#X msg 202 219 1;
#X obj 170 94 t b b;
#X obj 168 194 hip~ 8000;
#X obj 168 173 hip~ 8000;
#X obj 168 303 *~ 0.4;
#X obj 240 83 vsl 15 128 0 127 0 0 empty empty empty 0 -9 0 10 #fcfcfc #000000 #000000 0 1;
#X msg 240 219 0 \$1;
#X obj 273 24 loadbang;
#X msg 273 53 127;
#X connect 0 0 8 0;
#X connect 1 0 9 0;
#X connect 2 0 6 0;
#X connect 4 0 1 1;
#X connect 5 0 4 0;
#X connect 6 0 10 0;
#X connect 6 1 5 0;
#X connect 7 0 1 0;
#X connect 8 0 7 0;
#X connect 9 0 3 0;
#X connect 10 0 11 0;
#X connect 11 0 4 0;
#X connect 12 0 13 0;
#X connect 13 0 10 0;
#X restore 1228 607 pd hihat;
#X obj 1228 583 r hihat;
#X obj 856 66 r bar;
#X floatatom 809 102 5 0 0 0 - - - 0;
#X text 852 45 Hi-Hat;
#X text 19 274 Sequences;
#X floatatom 472 162 5 0 0 0 - - - 0;
#X obj 644 167 bng 19 250 50 0 empty empty empty 0 -10 0 12 #fcfcfc #000000 #000000;
#X obj 643 139 spigot;
#X obj 472 138 tabread snareSequence;
#X obj 648 193 s snare;
#X floatatom 856 156 5 0 0 0 - - - 0;
#X obj 1014 171 bng 19 250 50 0 empty empty empty 0 -10 0 12 #fcfcfc #000000 #000000;
#X obj 1013 143 spigot;
#X obj 1014 195 s hihat;
#X obj 73 137 tabread kickSequence;
#X obj 856 132 tabread hatSequence;
#X text 110 11 The last position sends the message back to the subcscription server;
#X obj 1098 103 bng 19 250 50 0 empty empty empty 0 -10 0 12 #fcfcfc #000000 #000000;
#X obj 1097 132 bng 19 250 50 0 empty empty empty 0 -10 0 12 #fcfcfc #000000 #000000;
#X obj 715 109 bng 19 250 50 0 empty empty empty 0 -10 0 12 #fcfcfc #000000 #000000;
#X obj 714 138 bng 19 250 50 0 empty empty empty 0 -10 0 12 #fcfcfc #000000 #000000;
#X obj 310 108 bng 19 250 50 0 empty empty empty 0 -10 0 12 #fcfcfc #000000 #000000;
#X obj 311 137 bng 19 250 50 0 empty empty empty 0 -10 0 12 #fcfcfc #000000 #000000;
#X obj 311 166 s kickmsg;
#X obj 713 167 s snaremsg;
#X obj 1098 161 s hatmsg;
#X msg 1465 152 360;
#X msg 1510 143 \$1 1000;
#X floatatom 1542 172 5 0 0 0 - - - 0;
#X floatatom 1577 200 5 0 0 0 - - - 0;
#X obj 1510 229 line 0 100;
#X msg 1465 181 420;
#X msg 1526 326 0;
#X obj 105 744 s \$0-start;
#X obj 21 744 s \$0-stop;
#X obj 1189 217 r \$0-stop;
#X obj 1362 161 r \$0-start;
#X obj 796 693 inlet;
#X obj 795 751 s resetDrum;
#X obj 796 722 t b;
#X obj 766 751 bng 19 250 50 0 empty empty empty 0 -10 0 12 #fcfcfc #000000 #000000;
#X obj 247 711 s mode3sensor1;
#X obj 387 711 s mode3sensor2;
#X obj 1419 414 r mode3sensor1;
#X obj 969 386 r mode3sensor2;
#X obj 72 108 select 0 1 2 3 4 5 6 7 8 9 10 11;
#X text 56 788 Receive network sequences;
#X obj 477 109 select 0 1 2 3 4 5 6 7 8 9 10 11;
#X obj 856 103 select 0 1 2 3 4 5 6 7 8 9 10 11;
#X text 1094 556 Output audio;
#X text 792 667 reset drums;
#X obj 61 817 r seq;
#X obj 61 987 array set kickSequence;
#X floatatom 136 959 5 0 0 0 - - - 0;
#X floatatom 185 902 5 0 0 0 - - - 0;
#X obj 106 930 array set snareSequence;
#X floatatom 226 901 5 0 0 0 - - - 0;
#X obj 152 875 array set hatSequence;
#X obj 40 207 s LEDreset;
#X text 25 630 ==== Network Messages ==== DO NOT MOVE THEM \, THE INLETS ARE VERY IMPORTANT, f 76;
#N canvas 463 214 817 564 handleLED 0;
#X obj 26 10 r bar;
#X obj 26 39 select 0 1 2 3 4 5 6 7 8 9 10 11;
#X msg 26 389 1 0 0 0 0 0 0 0 0 0 0 0;
#X msg 44 360 0 1 0 0 0 0 0 0 0 0 0 0;
#X msg 62 331 0 0 1 0 0 0 0 0 0 0 0 0;
#X msg 82 302 0 0 0 1 0 0 0 0 0 0 0 0;
#X msg 102 273 0 0 0 0 1 0 0 0 0 0 0 0;
#X msg 122 244 0 0 0 0 0 1 0 0 0 0 0 0;
#X msg 142 215 0 0 0 0 0 0 1 0 0 0 0 0;
#X msg 162 186 0 0 0 0 0 0 0 1 0 0 0 0;
#X msg 182 157 0 0 0 0 0 0 0 0 1 0 0 0;
#X msg 222 99 0 0 0 0 0 0 0 0 0 0 1 0;
#X msg 202 128 0 0 0 0 0 0 0 0 0 1 0 0;
#X msg 242 70 1 1 1 1 1 1 1 1 1 1 1 1;
#X text 320 283 Quickly reset the light values to low state;
#X msg 323 338 0 0 0 0 0 0 0 0 0 0 0 0;
#X obj 415 496 s LEDstrip1;
#X obj 192 535 s LEDstrip2;
#X obj 244 444 list;
#X obj 132 488 list;
#X obj 411 442 LED_color;
#X obj 193 502 LED_color;
#X msg 496 434 0.2 0.8 0.8;
#X msg 290 518 0.7 0 1;
#X obj 291 496 loadbang;
#X obj 498 411 loadbang;
#X obj 323 309 r \$0-stop;
#X obj 533 338 s LEDreset;
#X obj 532 312 del 100;
#X connect 0 0 1 0;
#X connect 1 0 2 0;
#X connect 1 1 3 0;
#X connect 1 2 4 0;
#X connect 1 3 5 0;
#X connect 1 4 6 0;
#X connect 1 5 7 0;
#X connect 1 6 8 0;
#X connect 1 7 9 0;
#X connect 1 8 10 0;
#X connect 1 9 12 0;
#X connect 1 10 11 0;
#X connect 1 11 13 0;
#X connect 2 0 18 0;
#X connect 2 0 19 0;
#X connect 3 0 18 0;
#X connect 3 0 19 0;
#X connect 4 0 18 0;
#X connect 4 0 19 0;
#X connect 5 0 18 0;
#X connect 5 0 19 0;
#X connect 6 0 18 0;
#X connect 6 0 19 0;
#X connect 7 0 18 0;
#X connect 7 0 19 0;
#X connect 8 0 18 0;
#X connect 8 0 19 0;
#X connect 9 0 18 0;
#X connect 9 0 19 0;
#X connect 10 0 18 0;
#X connect 10 0 19 0;
#X connect 11 0 18 0;
#X connect 11 0 19 0;
#X connect 12 0 18 0;
#X connect 12 0 19 0;
#X connect 13 0 18 0;
#X connect 13 0 19 0;
#X connect 15 0 20 0;
#X connect 18 0 20 0;
#X connect 18 0 21 0;
#X connect 19 0 21 0;
#X connect 20 0 16 0;
#X connect 21 0 17 0;
#X connect 22 0 20 1;
#X connect 23 0 21 1;
#X connect 24 0 23 0;
#X connect 25 0 22 0;
#X connect 26 0 15 0;
#X connect 26 0 28 0;
#X connect 28 0 27 0;
#X restore 852 986 pd handleLED;
#X text 849 960 The LED chase;
#X obj 65 489 array get kickSequence;
#X floatatom 139 461 5 0 0 0 - - - 0;
#X obj 64 460 bng 19 250 50 0 empty empty empty 0 -10 0 12 #fcfcfc #000000 #000000;
#X obj 66 518 list prepend kick;
#X obj 66 547 list trim;
#X obj 43 432 r sendKickSequence;
#X text 39 408 Send network sequences;
#X floatatom 349 461 5 0 0 0 - - - 0;
#X obj 274 460 bng 19 250 50 0 empty empty empty 0 -10 0 12 #fcfcfc #000000 #000000;
#X obj 276 547 list trim;
#X text 249 408 Send network sequences;
#X obj 253 432 r sendSnareSequence;
#X obj 275 489 array get snareSequence;
#X obj 276 518 list prepend snare;
#X obj 66 576 s seq_message \$1;
#X obj 276 576 s seq_message \$1;
#X obj 1532 352 s reset_counter;
#X obj 1238 779 outlet~;
#X obj 940 694 inlet;
#X text 936 668 jam mode;
#X obj 966 721 tgl 19 0 empty empty empty 0 -10 0 12 #fcfcfc #000000 #000000 0 1;
#X obj 939 743 t a;
#X obj 1418 449 spigot 1;
#X obj 938 768 s \$0-jamstate;
#X obj 1529 384 r \$0-jamstate;
#X obj 1529 408 - 1;
#X obj 1529 432 abs;
#X obj 969 408 spigot 1;
#X obj 1382 562 r mode3sensor1;
#X obj 1383 589 spigot;
#X obj 1434 588 r \$0-jamstate;
#X obj 274 686 tgl 19 0 empty empty empty 0 -10 0 12 #fcfcfc #000000 #000000 0 1;
#X obj 419 687 tgl 19 0 empty empty empty 0 -10 0 12 #fcfcfc #000000 #000000 0 1;
#N canvas 108 23 1015 741 sampler1 0;
#N canvas 0 22 450 278 (subpatch) 0;
#X array jamsample1 50374 float 2;
#X coords 0 1 50374 -1 200 140 1 0 0;
#X restore 267 43 graph;
#X obj 14 210 soundfiler;
#X floatatom 14 232 16 0 0 0 - - - 0;
#X obj 494 230 vline~;
#X msg 494 201 \$1 \, \$2 \$3;
#X obj 494 173 pack f f f;
#X obj 268 196 hsl 200 19 0 88192 0 0 empty empty empty -2 -10 0 12 #c6ffc7 #000000 #000000 0 1;
#X floatatom 265 220 19 0 0 0 - - - 0;
#X obj 494 14 bng 19 250 50 0 empty empty empty 0 -10 0 12 #fcfcfc #000000 #000000;
#X obj 494 44 f;
#X msg 577 202 stop;
#X obj 576 43 expr abs($f2 - $f1) / 44.1;
#X obj 267 256 hsl 200 19 0 26222 0 0 empty empty empty -2 -10 0 12 #ffc7c6 #000000 #000000 0 1;
#X floatatom 264 285 19 0 0 0 - - - 0;
#X obj 576 106 / 1;
#X obj 493 351 outlet~;
#X obj 519 -19 inlet;
#X obj 520 5 t a a;
#X obj 521 27 sel 1;
#X obj 599 302 line~;
#X obj 494 316 *~;
#X msg 666 265 \$1 10;
#X floatatom 598 141 10 0 0 0 - - - 0;
#X obj 494 259 tabread4~ jamsample1;
#X msg 52 292 0;
#X obj 19 254 t b a;
#X msg 32 131 read -resize 5roll.wav jamsample1;
#X obj 739 101 / 10;
#X obj 739 123 + 0.5;
#X msg 13 155 read -resize 1beebupp.wav jamsample1;
#X msg 30 178 read -resize 6vocoder.wav jamsample1;
#X obj 35 95 sel 0 1 2;
#X obj 902 -17 inlet;
#X obj 36 28 % 3;
#X msg 818 80 seed \$1;
#X obj 796 50 t b a;
#X obj 905 7 t a a;
#X obj 737 79 random 11;
#X floatatom 757 160 5 0 0 0 - - - 0;
#X connect 1 0 2 0;
#X connect 2 0 11 1;
#X connect 2 0 25 0;
#X connect 3 0 23 0;
#X connect 4 0 3 0;
#X connect 5 0 4 0;
#X connect 6 0 7 0;
#X connect 6 0 9 1;
#X connect 6 0 11 0;
#X connect 8 0 9 0;
#X connect 9 0 5 0;
#X connect 10 0 3 0;
#X connect 11 0 14 0;
#X connect 12 0 13 0;
#X connect 12 0 11 1;
#X connect 12 0 5 1;
#X connect 14 0 5 2;
#X connect 14 0 22 0;
#X connect 16 0 17 0;
#X connect 17 0 18 0;
#X connect 17 1 21 0;
#X connect 18 0 9 0;
#X connect 19 0 20 1;
#X connect 20 0 15 0;
#X connect 21 0 19 0;
#X connect 23 0 20 0;
#X connect 24 0 6 0;
#X connect 25 0 24 0;
#X connect 25 1 12 0;
#X connect 26 0 1 0;
#X connect 27 0 28 0;
#X connect 28 0 14 1;
#X connect 28 0 38 0;
#X connect 29 0 1 0;
#X connect 30 0 1 0;
#X connect 31 0 29 0;
#X connect 31 1 26 0;
#X connect 31 2 30 0;
#X connect 32 0 36 0;
#X connect 33 0 31 0;
#X connect 34 0 37 0;
#X connect 35 0 37 0;
#X connect 35 1 34 0;
#X connect 36 0 33 0;
#X connect 36 1 35 0;
#X connect 37 0 27 0;
#X restore 1378 652 pd sampler1;
#N canvas 265 23 932 491 sampler2 0;
#N canvas 341 396 450 278 (subpatch) 0;
#X array jamsample2 26222 float 2;
#X coords 0 1 26222 -1 200 140 1 0 0;
#X restore 267 43 graph;
#X obj 42 203 soundfiler;
#X floatatom 42 232 16 0 0 0 - - - 0;
#X obj 494 230 vline~;
#X msg 494 201 \$1 \, \$2 \$3;
#X obj 494 173 pack f f f;
#X obj 271 197 hsl 200 19 0 59324 0 0 empty empty empty -2 -10 0 12 #c6ffc7 #000000 #000000 0 1;
#X floatatom 265 220 19 0 0 0 - - - 0;
#X obj 494 14 bng 19 250 50 0 empty empty empty 0 -10 0 12 #fcfcfc #000000 #000000;
#X obj 494 44 f;
#X msg 577 202 stop;
#X obj 576 43 expr abs($f2 - $f1) / 44.1;
#X obj 267 256 hsl 200 19 0 59324 0 0 empty empty empty -2 -10 0 12 #ffc7c6 #000000 #000000 0 1;
#X floatatom 264 285 19 0 0 0 - - - 0;
#X obj 576 106 / 1;
#X obj 493 351 outlet~;
#X obj 519 -19 inlet;
#X obj 520 5 t a a;
#X obj 521 27 sel 1;
#X obj 599 302 line~;
#X obj 494 316 *~;
#X msg 666 265 \$1 10;
#X floatatom 598 141 10 0 0 0 - - - 0;
#X obj 494 259 tabread4~ jamsample2;
#X obj 40 258 t b a;
#X msg 42 285 0;
#X msg 41 119 read -resize 4money.wav jamsample2;
#X msg 28 143 read -resize 2glas.wav jamsample2;
#X msg 17 170 read -resize 3knock.wav jamsample2;
#X obj 25 30 % 3;
#X obj 25 94 sel 0 1 2;
#X obj 814 -12 inlet;
#X obj 739 101 / 10;
#X msg 818 80 seed \$1;
#X obj 796 50 t b a;
#X obj 813 12 t a a;
#X obj 737 79 random 13;
#X msg 739 144 1.8;
#X obj 738 122 t b a;
#X obj 737 166 - 0.1;
#X floatatom 739 196 5 0 0 0 - - - 0;
#X connect 1 0 2 0;
#X connect 2 0 24 0;
#X connect 3 0 23 0;
#X connect 4 0 3 0;
#X connect 5 0 4 0;
#X connect 6 0 7 0;
#X connect 6 0 9 1;
#X connect 6 0 11 0;
#X connect 8 0 9 0;
#X connect 9 0 5 0;
#X connect 10 0 3 0;
#X connect 11 0 14 0;
#X connect 12 0 13 0;
#X connect 12 0 11 1;
#X connect 12 0 5 1;
#X connect 14 0 5 2;
#X connect 14 0 22 0;
#X connect 16 0 17 0;
#X connect 17 0 18 0;
#X connect 17 1 21 0;
#X connect 18 0 9 0;
#X connect 19 0 20 1;
#X connect 20 0 15 0;
#X connect 21 0 19 0;
#X connect 23 0 20 0;
#X connect 24 0 25 0;
#X connect 24 1 12 0;
#X connect 25 0 6 0;
#X connect 26 0 1 0;
#X connect 27 0 1 0;
#X connect 28 0 1 0;
#X connect 29 0 30 0;
#X connect 30 0 27 0;
#X connect 30 1 26 0;
#X connect 30 2 28 0;
#X connect 31 0 35 0;
#X connect 32 0 38 0;
#X connect 33 0 36 0;
#X connect 34 0 36 0;
#X connect 34 1 33 0;
#X connect 35 0 29 0;
#X connect 35 1 34 0;
#X connect 36 0 32 0;
#X connect 37 0 39 0;
#X connect 38 0 37 0;
#X connect 38 1 39 1;
#X connect 39 0 14 1;
#X connect 39 0 40 0;
#X restore 1484 666 pd sampler2;
#X obj 1474 635 spigot;
#X obj 1525 634 r \$0-jamstate;
#X obj 1473 608 r mode3sensor2;
#X obj 1084 390 r \$0-jamstate;
#X obj 1084 414 - 1;
#X obj 1084 438 abs;
#N canvas 399 174 867 604 inputKick 0;
#X obj 105 119 tabwrite kickSequence;
#X obj 267 119 r bar;
#X obj 49 121 s kick;
#X obj 105 90 spigot;
#X obj 105 65 t a a;
#X obj 48 92 sel 1;
#X obj 53 17 inlet;
#X connect 1 0 0 1;
#X connect 3 0 0 0;
#X connect 3 0 5 0;
#X connect 4 0 3 0;
#X connect 4 1 3 1;
#X connect 5 0 2 0;
#X connect 6 0 4 0;
#X restore 906 474 pd inputKick;
#N canvas 302 189 905 484 Sequencer_Kick 0;
#X obj 12 44 r resetKicks;
#X msg 12 73 \; kickSequence const 0;
#X floatatom 87 156 5 0 0 0 - - - 0;
#X obj 12 155 bng 19 250 50 0 empty empty empty 0 -10 0 12 #fcfcfc #000000 #000000;
#X obj 12 184 array get kickSequence;
#X obj 12 126 r kickmsg;
#X obj 12 213 print kickSequence \$1;
#X obj 245 74 bng 19 250 50 0 empty empty empty 0 -10 0 12 #fcfcfc #000000 #000000;
#X obj 205 103 bng 19 250 50 0 empty empty empty 0 -10 0 12 #fcfcfc #000000 #000000;
#X obj 248 192 sel 0;
#N canvas 912 88 593 637 compareArray 0;
#X obj 339 183 inlet;
#X obj 256 128 inlet;
#X obj 262 299 outlet;
#X obj 260 241 list-compare;
#X obj 261 270 tgl 19 0 empty empty empty 0 -10 0 12 #fcfcfc #000000 #000000 0 1;
#X connect 0 0 3 1;
#X connect 1 0 3 0;
#X connect 3 0 4 0;
#X connect 4 0 2 0;
#X restore 248 163 pd compareArray;
#X obj 245 105 array get kickSequence;
#X obj 205 134 array get kickSequence-prev;
#X floatatom 319 77 5 0 0 0 - - - 0;
#X obj 244 45 t b b;
#X obj 258 222 print dont send kick;
#X msg 228 279 copy kickSequence;
#X obj 228 308 arraycopy kickSequence-prev;
#X msg 10 270 \; kickSequence-prev const 0;
#X obj 10 241 loadbang;
#X obj 209 222 t b b;
#X obj 110 44 r resetDrum;
#X obj 244 16 r kickmsg;
#N canvas 0 433 500 229 kickSequences 0;
#N canvas 614 639 450 278 (subpatch) 0;
#X array kickSequence 12 float 2;
#X coords 0 2 12 -1 200 140 1 0 0;
#X restore 16 28 graph;
#N canvas 0 22 450 278 (subpatch) 0;
#X array kickSequence-prev 12 float 3;
#A 0 0 0 0 0 0 0 0 0 0 0 0 0;
#X coords 0 2 12 -1 200 140 1 0 0;
#X restore 244 29 graph;
#X restore 12 15 pd kickSequences;
#X obj 241 251 s sendKickSequence;
#X connect 0 0 1 0;
#X connect 2 0 4 1;
#X connect 3 0 4 0;
#X connect 5 0 3 0;
#X connect 7 0 11 0;
#X connect 8 0 12 0;
#X connect 9 0 20 0;
#X connect 10 0 9 0;
#X connect 11 0 10 0;
#X connect 12 0 10 1;
#X connect 13 0 11 1;
#X connect 13 0 12 1;
#X connect 14 0 11 0;
#X connect 14 1 12 0;
#X connect 16 0 17 0;
#X connect 19 0 18 0;
#X connect 20 0 16 0;
#X connect 20 1 24 0;
#X connect 21 0 1 0;
#X connect 22 0 14 0;
#X restore 25 305 pd Sequencer_Kick;
#N canvas 60 390 712 380 Sequencer_Snare 0;
#X obj 14 -78 r resetSnares;
#X msg 14 -49 \; snareSequence const 0;
#X floatatom 93 34 5 0 0 0 - - - 0;
#X obj 14 33 bng 19 250 50 0 empty empty empty 0 -10 0 12 #fcfcfc #000000 #000000;
#X obj 14 62 array get snareSequence;
#X obj 14 91 print snareSequence \$1;
#X obj 14 4 r snaremsg;
#X obj 249 -19 array get snareSequence;
#X obj 249 -50 bng 19 250 50 0 empty empty empty 0 -10 0 12 #fcfcfc #000000 #000000;
#X obj 209 -21 bng 19 250 50 0 empty empty empty 0 -10 0 12 #fcfcfc #000000 #000000;
#X obj 252 68 sel 0;
#N canvas 687 88 593 637 compareArray 0;
#X obj 339 183 inlet;
#X obj 256 128 inlet;
#X obj 262 299 outlet;
#X obj 260 241 list-compare;
#X obj 261 270 tgl 19 0 empty empty empty 0 -10 0 12 #fcfcfc #000000 #000000 0 1;
#X connect 0 0 3 1;
#X connect 1 0 3 0;
#X connect 3 0 4 0;
#X connect 4 0 2 0;
#X restore 252 39 pd compareArray;
#X obj 262 98 print dont send snare;
#X obj 209 10 array get snareSequence-prev;
#X floatatom 328 -47 5 0 0 0 - - - 0;
#X obj 248 -79 t b b;
#X obj 232 187 arraycopy snareSequence-prev;
#X msg 232 158 copy snareSequence;
#X msg 14 149 \; snareSequence-prev const 0;
#X obj 14 120 loadbang;
#X obj 248 -108 r snaremsg;
#X obj 213 99 t b b;
#X obj 119 -78 r resetDrum;
#N canvas 188 82 276 375 snareSequences 0;
#N canvas 14 764 450 278 (subpatch) 0;
#X array snareSequence 16 float 2;
#X coords 0 2 16 -1 200 140 1 0 0;
#X restore 17 25 graph;
#N canvas 0 22 450 278 (subpatch) 0;
#X array snareSequence-prev 16 float 3;
#A 0 0 0 0 0 0 0 0 0 0 0 0 0 0 0 0 0;
#X coords 0 2 16 -1 200 140 1 0 0;
#X restore 16 192 graph;
#X restore 14 -107 pd snareSequences;
#X obj 245 128 s sendSnareSequence;
#X obj 355 62 tgl 19 0 empty empty empty 0 -10 0 12 #fcfcfc #000000 #000000 0 1;
#X connect 0 0 1 0;
#X connect 2 0 4 1;
#X connect 3 0 4 0;
#X connect 6 0 3 0;
#X connect 7 0 11 0;
#X connect 8 0 7 0;
#X connect 9 0 13 0;
#X connect 10 0 21 0;
#X connect 11 0 10 0;
#X connect 11 0 25 0;
#X connect 13 0 11 1;
#X connect 14 0 7 1;
#X connect 14 0 13 1;
#X connect 15 0 7 0;
#X connect 15 1 13 0;
#X connect 17 0 16 0;
#X connect 19 0 18 0;
#X connect 20 0 15 0;
#X connect 21 0 17 0;
#X connect 21 1 24 0;
#X connect 22 0 1 0;
#X restore 168 307 pd Sequencer_Snare;
#N canvas 590 45 650 473 Sequencer_hihat 0;
#X obj 10 49 r resetHats;
#X msg 10 78 \; hatSequence const 0;
#X floatatom 83 161 5 0 0 0 - - - 0;
#X obj 11 160 bng 19 250 50 0 empty empty empty 0 -10 0 12 #fcfcfc #000000 #000000;
#X obj 11 131 r hatmsg;
#X obj 11 189 array get hatSequence;
#X obj 11 218 print hatSequence \$1;
#X obj 249 77 bng 19 250 50 0 empty empty empty 0 -10 0 12 #fcfcfc #000000 #000000;
#X obj 284 77 bng 19 250 50 0 empty empty empty 0 -10 0 12 #fcfcfc #000000 #000000;
#X obj 252 195 sel 0;
#X floatatom 322 80 5 0 0 0 - - - 0;
#X obj 248 48 t b b;
#X obj 233 311 arraycopy hatSequence-prev;
#X msg 233 282 copy hatSequence;
#X obj 11 247 loadbang;
#X msg 11 276 \; hatSequence-prev const 0;
#X obj 213 225 t b b;
#X obj 101 49 r resetDrum;
#N canvas 217 111 476 230 hatSequences 0;
#N canvas 817 814 450 278 (subpatch) 0;
#X array hatSequence 12 float 2;
#X coords 0 2 12 -1 200 140 1 0 0;
#X restore 19 26 graph;
#N canvas 830 114 450 278 (subpatch) 0;
#X array hatSequence-prev 12 float 3;
#A 0 0 0 0 0 0 0 0 0 0 0 0 0;
#X coords 0 2 12 -1 200 140 1 0 0;
#X restore 241 27 graph;
#X restore 10 20 pd hatSequences;
#X obj 255 254 s sendHatSequence;
#X obj 282 138 array get hatSequence-prev;
#X obj 248 19 r hatmsg;
#N canvas 687 88 593 637 compareArray 0;
#X obj 339 183 inlet;
#X obj 256 128 inlet;
#X obj 262 299 outlet;
#X obj 260 241 list-compare;
#X obj 261 270 tgl 19 0 empty empty empty 0 -10 0 12 #fcfcfc #000000 #000000 0 1;
#X connect 0 0 3 1;
#X connect 1 0 3 0;
#X connect 3 0 4 0;
#X connect 4 0 2 0;
#X restore 252 167 pd compareArray;
#X obj 249 107 array get hatSequence;
#X connect 0 0 1 0;
#X connect 2 0 5 1;
#X connect 3 0 5 0;
#X connect 4 0 3 0;
#X connect 7 0 23 0;
#X connect 8 0 20 0;
#X connect 9 0 16 0;
#X connect 10 0 20 1;
#X connect 10 0 23 1;
#X connect 11 0 23 0;
#X connect 11 1 20 0;
#X connect 13 0 12 0;
#X connect 14 0 15 0;
#X connect 16 0 13 0;
#X connect 16 1 19 0;
#X connect 17 0 1 0;
#X connect 20 0 22 1;
#X connect 21 0 11 0;
#X connect 22 0 9 0;
#X connect 23 0 22 0;
#X restore 179 347 pd Sequencer_hihat;
#N canvas 357 25 682 356 Sequencer_H_Kick 0;
#X floatatom 87 156 5 0 0 0 - - - 0;
#X obj 12 155 bng 19 250 50 0 empty empty empty 0 -10 0 12 #fcfcfc #000000 #000000;
#X obj 12 126 r kickmsg;
#X obj 245 74 bng 19 250 50 0 empty empty empty 0 -10 0 12 #fcfcfc #000000 #000000;
#X obj 205 103 bng 19 250 50 0 empty empty empty 0 -10 0 12 #fcfcfc #000000 #000000;
#X obj 248 192 sel 0;
#N canvas 687 88 593 637 compareArray 0;
#X obj 339 183 inlet;
#X obj 256 128 inlet;
#X obj 262 299 outlet;
#X obj 260 241 list-compare;
#X obj 261 270 tgl 19 0 empty empty empty 0 -10 0 12 #fcfcfc #000000 #000000 0 1;
#X connect 0 0 3 1;
#X connect 1 0 3 0;
#X connect 3 0 4 0;
#X connect 4 0 2 0;
#X restore 248 163 pd compareArray;
#X floatatom 319 77 5 0 0 0 - - - 0;
#X obj 244 45 t b b;
#X obj 10 241 loadbang;
#X obj 209 222 t b b;
#X obj 139 45 r resetDrum;
#X obj 244 16 r H_kickmsg;
#X obj 12 44 r resetHighKicks;
#N canvas 0 433 500 229 HighkickSequences 0;
#N canvas 614 500 450 278 (subpatch) 0;
#X array HighKickSequence 12 float 2;
#X coords 0 2 12 -1 200 140 1 0 0;
#X restore 16 28 graph;
#N canvas 677 218 450 278 (subpatch) 0;
#X array HighKickSequence-prev 12 float 3;
#A 0 0 0 0 0 0 0 0 0 0 0 0 0;
#X coords 0 2 12 -1 200 140 1 0 0;
#X restore 244 29 graph;
#X restore 12 15 pd HighkickSequences;
#X msg 12 73 \; HighKickSequence const 0;
#X obj 12 184 array get HighKickSequence;
#X obj 241 251 s sendHighKickSequence;
#X msg 228 279 copy HighKickSequence;
#X obj 228 308 arraycopy HighKickSequence-prev;
#X msg 10 270 \; HighKickSequence-prev const 0;
#X obj 245 105 array get HighKickSequence;
#X obj 205 134 array get HighKickSequence-prev;
#X connect 0 0 16 1;
#X connect 1 0 16 0;
#X connect 2 0 1 0;
#X connect 3 0 21 0;
#X connect 4 0 22 0;
#X connect 5 0 10 0;
#X connect 6 0 5 0;
#X connect 7 0 21 1;
#X connect 7 0 22 1;
#X connect 8 0 21 0;
#X connect 8 1 22 0;
#X connect 9 0 20 0;
#X connect 10 0 18 0;
#X connect 10 1 17 0;
#X connect 11 0 15 0;
#X connect 12 0 8 0;
#X connect 13 0 15 0;
#X connect 18 0 19 0;
#X connect 21 0 6 0;
#X connect 22 0 6 1;
#X restore 27 348 pd Sequencer_H_Kick;
#X obj 1293 581 r HighKick;
#N canvas 196 141 450 446 HighKick 0;
#X obj 134 212 vline~;
#X obj 172 328 *~;
#X obj 172 307 cos~;
#X obj 172 286 *~;
#X obj 172 264 *~;
#X obj 172 242 *~;
#X msg 134 190 1 0 0 \, 0 \$1 0;
#X obj 172 350 outlet~;
#X obj 228 397 switch~;
#X obj 228 349 env~;
#X obj 228 373 > 0.1;
#X msg 134 147 1;
#X obj 134 125 inlet;
#X obj 192 29 inlet;
#X obj 251 102 loadbang;
#X msg 135 169 70;
#X msg 194 127 3.5;
#X connect 0 0 1 1;
#X connect 0 0 5 0;
#X connect 0 0 3 1;
#X connect 1 0 7 0;
#X connect 1 0 9 0;
#X connect 2 0 1 0;
#X connect 3 0 2 0;
#X connect 4 0 3 0;
#X connect 5 0 4 1;
#X connect 5 0 4 0;
#X connect 6 0 0 0;
#X connect 9 0 10 0;
#X connect 10 0 8 0;
#X connect 11 0 8 0;
#X connect 11 0 15 0;
#X connect 12 0 11 0;
#X connect 13 0 16 0;
#X connect 14 0 16 0;
#X connect 15 0 6 0;
#X connect 16 0 5 1;
#X restore 1293 605 pd HighKick;
#X obj 383 234 r bar;
#X floatatom 336 270 5 0 0 0 - - - 0;
#X floatatom 384 324 5 0 0 0 - - - 0;
#X obj 549 330 bng 19 250 50 0 empty empty empty 0 -10 0 12 #fcfcfc #000000 #000000;
#X obj 548 301 spigot;
#X obj 621 271 bng 19 250 50 0 empty empty empty 0 -10 0 12 #fcfcfc #000000 #000000;
#X obj 622 300 bng 19 250 50 0 empty empty empty 0 -10 0 12 #fcfcfc #000000 #000000;
#X obj 383 271 select 0 1 2 3 4 5 6 7 8 9 10 11;
#X obj 351 370 s LEDreset;
#X text 379 213 HighKick;
#X obj 361 301 tabread HighKickSequence;
#X obj 549 354 s HighKick;
#X obj 621 329 s H_kickmsg;
#X floatatom 553 467 5 0 0 0 - - - 0;
#X obj 478 466 bng 19 250 50 0 empty empty empty 0 -10 0 12 #fcfcfc #000000 #000000;
#X obj 480 553 list trim;
#X text 453 414 Send network sequences;
#X obj 480 583 s seq_message \$1;
#X obj 457 438 r sendHighKickSequence;
#X obj 479 494 array get HighKickSequence;
#X obj 480 524 list prepend H_kick;
#X floatatom 756 465 5 0 0 0 - - - 0;
#X obj 681 464 bng 19 250 50 0 empty empty empty 0 -10 0 12 #fcfcfc #000000 #000000;
#X obj 683 551 list trim;
#X text 656 412 Send network sequences;
#X obj 684 576 s seq_message \$1;
#X obj 683 492 array get hatSequence;
#X obj 683 522 list prepend hat;
#X obj 665 439 r sendHatSequence;
#X obj 875 381 r my_id;
#N canvas 399 174 867 604 inputHighKick 0;
#X obj 292 117 r bar;
#X obj 105 90 spigot;
#X obj 105 65 t a a;
#X obj 48 92 sel 1;
#X obj 53 17 inlet;
#X obj 105 118 tabwrite HighKickSequence;
#X obj 19 120 s HighKick;
#X connect 0 0 5 1;
#X connect 1 0 3 0;
#X connect 1 0 5 0;
#X connect 2 0 1 0;
#X connect 2 1 1 1;
#X connect 3 0 6 0;
#X connect 4 0 2 0;
#X restore 1012 472 pd inputHighKick;
#N canvas 259 98 906 521 inputSnare 0;
#X obj 278 138 r bar;
#X obj 111 138 tabwrite snareSequence;
#X obj 110 107 spigot;
#X obj 110 78 t a a;
#X obj 45 136 s snare;
#X obj 48 111 sel 1;
#X obj 122 45 inlet;
#X connect 0 0 1 1;
#X connect 2 0 1 0;
#X connect 2 0 5 0;
#X connect 3 0 2 0;
#X connect 3 1 2 1;
#X connect 5 0 4 0;
#X connect 6 0 3 0;
#X restore 1380 508 pd inputSnare;
#N canvas 751 98 906 521 inputHihat 0;
#X obj 278 138 r bar;
#X obj 110 107 spigot;
#X obj 110 78 t a a;
#X obj 48 111 sel 1;
#X obj 122 45 inlet;
#X obj 111 138 tabwrite hatSequence;
#X obj 45 136 s hihat;
#X connect 0 0 5 1;
#X connect 1 0 3 0;
#X connect 1 0 5 0;
#X connect 2 0 1 0;
#X connect 2 1 1 1;
#X connect 3 0 6 0;
#X connect 4 0 2 0;
#X restore 1487 509 pd inputHihat;
#X obj 61 846 route kick snare hat H_kick;
#X obj 282 907 array set HighKickSequence;
#X obj 1405 620 r my_id;
#X obj 1300 666 *~ 0.8;
#X obj 1438 695 *~ 0.8;
#X obj 1220 634 *~ 4;
#X obj 976 444 gate 2;
#X obj 1423 477 gate 2;
#X msg 840 440 1;
#X msg 873 439 2;
#X obj 1356 418 r my_id;
#X msg 1325 471 1;
#X msg 1358 470 2;
#X obj 874 409 sel 1 2 4;
#X obj 1342 445 sel 1 2 4;
#X obj 1136 672 *~ 0.4;
#X obj 1082 190 s fadeoff;
#X obj 565 898 bng 19 250 50 0 empty empty empty 0 -10 0 12 #fcfcfc #000000 #000000;
#X obj 565 927 s fadeoff;
#X obj 566 956 bng 19 250 50 0 empty empty empty 0 -10 0 12 #fcfcfc #000000 #000000;
#X obj 566 980 s reset_fadeoff;
#X obj 370 735 s reset_fadeoff;
#X obj 225 735 s reset_fadeoff;
#X text 562 867 test fadeoff;
#X obj 1238 727 *~;
#X obj 1273 727 r fadeoff_amount;
#N canvas 1345 65 428 387 fadeloop 1;
#X obj 347 29 r fadeoff;
#X obj 347 77 +;
#X obj 382 77 1;
#X obj 347 101 % 6;
#X floatatom 347 125 5 0 0 0 - - - 0;
#X msg 347 53 1;
#X obj 228 77 r reset_fadeoff;
#X msg 228 101 0;
#X msg 347 172 1;
#X obj 270 245 +;
#X obj 305 245 1;
#X floatatom 270 293 5 0 0 0 - - - 0;
#X obj 270 197 spigot;
#X msg 319 316 0;
#X msg 270 221 1;
#X obj 270 173 r fadeoff;
#X msg 305 269 0;
#X obj 347 148 sel 5;
#X obj 144 340 s fadeoff_amount;
#X floatatom 270 340 5 0 0 0 - - - 0;
#X obj 270 269 % 5;
#X obj 270 316 sel 4;
#X obj 145 200 sel 0 1 2 3;
#X msg 144 316 0.75;
#X msg 163 292 0.5;
#X msg 182 268 0.25;
#X msg 200 244 0;
#X text 28 17 Loop fade;
#X msg 18 316 1;
#X obj 18 340 s fadeoff_amount;
#X obj 18 292 delay 200;
#X obj 18 244 delay 100;
#X obj 18 268 s resetDrum;
#X connect 0 0 5 0;
#X connect 1 0 2 0;
#X connect 1 0 3 0;
#X connect 2 0 1 1;
#X connect 3 0 4 0;
#X connect 4 0 17 0;
#X connect 5 0 1 0;
#X connect 6 0 7 0;
#X connect 7 0 4 0;
#X connect 8 0 12 1;
#X connect 9 0 10 0;
#X connect 9 0 20 0;
#X connect 10 0 9 1;
#X connect 11 0 21 0;
#X connect 11 0 22 0;
#X connect 12 0 14 0;
#X connect 13 0 12 1;
#X connect 14 0 9 0;
#X connect 15 0 12 0;
#X connect 16 0 11 0;
#X connect 17 0 8 0;
#X connect 20 0 11 0;
#X connect 21 0 13 0;
#X connect 21 0 19 0;
#X connect 22 0 23 0;
#X connect 22 1 24 0;
#X connect 22 2 25 0;
#X connect 22 3 26 0;
#X connect 22 3 30 0;
#X connect 22 3 31 0;
#X connect 22 3 7 0;
#X connect 22 3 16 0;
#X connect 23 0 18 0;
#X connect 24 0 18 0;
#X connect 25 0 18 0;
#X connect 26 0 18 0;
#X connect 28 0 29 0;
#X connect 30 0 28 0;
#X connect 31 0 32 0;
#X restore 1137 834 pd fadeloop;
#X floatatom 1273 751 5 0 0 0 - - - 0;
#X connect 0 0 93 0;
#X connect 0 0 217 0;
#X connect 1 0 94 0;
#X connect 1 0 216 0;
#X connect 2 0 16 0;
#X connect 3 0 16 0;
#X connect 7 0 10 0;
#X connect 9 0 10 0;
#X connect 10 0 6 0;
#X connect 16 0 86 0;
#X connect 16 1 85 0;
#X connect 17 0 35 0;
#X connect 17 0 36 0;
#X connect 18 0 17 1;
#X connect 18 0 130 0;
#X connect 20 0 79 0;
#X connect 22 0 17 2;
#X connect 24 0 79 0;
#X connect 25 0 17 0;
#X connect 25 0 31 0;
#X connect 27 0 17 3;
#X connect 27 0 84 0;
#X connect 27 0 130 0;
#X connect 29 0 79 0;
#X connect 30 0 79 0;
#X connect 32 0 33 0;
#X connect 33 0 18 0;
#X connect 33 1 22 0;
#X connect 33 2 25 0;
#X connect 37 0 38 0;
#X connect 37 0 97 0;
#X connect 38 0 66 0;
#X connect 39 0 41 1;
#X connect 40 0 47 0;
#X connect 41 0 40 0;
#X connect 42 0 43 0;
#X connect 42 0 99 0;
#X connect 43 0 60 0;
#X connect 45 0 46 0;
#X connect 46 0 200 0;
#X connect 49 0 210 0;
#X connect 50 0 49 0;
#X connect 51 0 200 0;
#X connect 52 0 51 0;
#X connect 53 0 54 0;
#X connect 53 0 100 0;
#X connect 54 0 67 0;
#X connect 57 0 59 1;
#X connect 58 0 61 0;
#X connect 59 0 58 0;
#X connect 60 0 57 0;
#X connect 62 0 64 1;
#X connect 63 0 65 0;
#X connect 64 0 63 0;
#X connect 66 0 39 0;
#X connect 67 0 62 0;
#X connect 78 0 79 0;
#X connect 79 0 82 0;
#X connect 80 0 82 1;
#X connect 81 0 82 2;
#X connect 82 0 17 4;
#X connect 82 0 18 0;
#X connect 83 0 79 0;
#X connect 84 0 35 0;
#X connect 87 0 25 0;
#X connect 88 0 18 0;
#X connect 89 0 91 0;
#X connect 91 0 90 0;
#X connect 92 0 90 0;
#X connect 95 0 136 0;
#X connect 96 0 141 0;
#X connect 97 0 41 0;
#X connect 97 1 41 0;
#X connect 97 1 110 0;
#X connect 97 2 41 0;
#X connect 97 3 41 0;
#X connect 97 4 41 0;
#X connect 97 5 41 0;
#X connect 97 6 41 0;
#X connect 97 7 41 0;
#X connect 97 8 41 0;
#X connect 97 9 41 0;
#X connect 97 10 41 0;
#X connect 97 11 41 0;
#X connect 97 11 74 0;
#X connect 97 11 75 0;
#X connect 97 12 73 0;
#X connect 99 0 59 0;
#X connect 99 1 59 0;
#X connect 99 2 59 0;
#X connect 99 3 59 0;
#X connect 99 4 59 0;
#X connect 99 5 59 0;
#X connect 99 6 59 0;
#X connect 99 7 59 0;
#X connect 99 8 59 0;
#X connect 99 9 59 0;
#X connect 99 10 59 0;
#X connect 99 11 59 0;
#X connect 99 11 72 0;
#X connect 99 11 76 0;
#X connect 99 12 71 0;
#X connect 100 0 64 0;
#X connect 100 1 64 0;
#X connect 100 2 64 0;
#X connect 100 3 64 0;
#X connect 100 4 64 0;
#X connect 100 5 64 0;
#X connect 100 6 64 0;
#X connect 100 7 64 0;
#X connect 100 8 64 0;
#X connect 100 9 64 0;
#X connect 100 10 64 0;
#X connect 100 11 64 0;
#X connect 100 11 70 0;
#X connect 100 11 77 0;
#X connect 100 11 211 0;
#X connect 100 12 69 0;
#X connect 103 0 195 0;
#X connect 105 0 104 1;
#X connect 106 0 107 1;
#X connect 108 0 109 1;
#X connect 114 0 117 0;
#X connect 115 0 114 1;
#X connect 116 0 114 0;
#X connect 117 0 118 0;
#X connect 118 0 128 0;
#X connect 119 0 114 0;
#X connect 121 0 126 1;
#X connect 122 0 126 0;
#X connect 123 0 129 0;
#X connect 125 0 126 0;
#X connect 126 0 127 0;
#X connect 127 0 123 0;
#X connect 132 0 135 0;
#X connect 134 0 135 0;
#X connect 135 0 137 0;
#X connect 136 0 202 1;
#X connect 138 0 139 0;
#X connect 139 0 140 0;
#X connect 140 0 136 1;
#X connect 141 0 201 1;
#X connect 142 0 143 0;
#X connect 143 0 147 0;
#X connect 144 0 143 1;
#X connect 145 0 93 0;
#X connect 146 0 94 0;
#X connect 147 0 198 0;
#X connect 148 0 199 0;
#X connect 149 0 148 0;
#X connect 150 0 149 1;
#X connect 151 0 149 0;
#X connect 152 0 153 0;
#X connect 153 0 154 0;
#X connect 154 0 141 1;
#X connect 160 0 161 0;
#X connect 161 0 200 0;
#X connect 162 0 163 0;
#X connect 162 0 169 0;
#X connect 163 0 172 0;
#X connect 164 0 166 1;
#X connect 165 0 173 0;
#X connect 166 0 165 0;
#X connect 169 0 166 0;
#X connect 169 1 166 0;
#X connect 169 1 170 0;
#X connect 169 2 166 0;
#X connect 169 3 166 0;
#X connect 169 4 166 0;
#X connect 169 5 166 0;
#X connect 169 6 166 0;
#X connect 169 7 166 0;
#X connect 169 8 166 0;
#X connect 169 9 166 0;
#X connect 169 10 166 0;
#X connect 169 11 166 0;
#X connect 169 11 168 0;
#X connect 169 11 174 0;
#X connect 169 12 167 0;
#X connect 172 0 164 0;
#X connect 175 0 181 1;
#X connect 176 0 181 0;
#X connect 177 0 179 0;
#X connect 180 0 181 0;
#X connect 181 0 182 0;
#X connect 182 0 177 0;
#X connect 183 0 188 1;
#X connect 184 0 188 0;
#X connect 185 0 187 0;
#X connect 188 0 189 0;
#X connect 189 0 185 0;
#X connect 190 0 188 0;
#X connect 191 0 208 0;
#X connect 195 0 104 0;
#X connect 195 1 107 0;
#X connect 195 2 109 0;
#X connect 195 3 196 0;
#X connect 197 0 147 1;
#X connect 197 0 148 1;
#X connect 198 0 219 0;
#X connect 199 0 219 0;
#X connect 200 0 210 0;
#X connect 201 0 155 0;
#X connect 201 1 192 0;
#X connect 202 0 193 0;
#X connect 202 1 194 0;
#X connect 203 0 201 0;
#X connect 204 0 201 0;
#X connect 205 0 209 0;
#X connect 206 0 202 0;
#X connect 207 0 202 0;
#X connect 208 0 203 0;
#X connect 208 1 204 0;
#X connect 208 2 204 0;
#X connect 209 0 206 0;
#X connect 209 1 207 0;
#X connect 209 2 206 0;
#X connect 210 0 219 0;
#X connect 212 0 213 0;
#X connect 214 0 215 0;
#X connect 219 0 131 0;
#X connect 220 0 219 1;
#X connect 220 0 222 0;
