#N canvas 265 23 982 755 12;
#N canvas 0 23 450 300 handle_polyphony 0;
#X obj 37 37 inlet;
#X obj 37 149 pack 0 0 0;
#X obj 38 120 - 1;
#X obj 37 170 outlet;
#X obj 38 78 poly 8 1;
#X connect 0 0 4 0;
#X connect 1 0 3 0;
#X connect 2 0 1 0;
#X connect 4 0 2 0;
#X connect 4 1 1 1;
#X connect 4 2 1 2;
#X restore 520 501 pd handle_polyphony;
#X obj 985 418 pack 55 0;
#X text 1001 397 mute!;
#X obj 721 33 change;
#X obj 733 -37 inlet;
#X obj 850 -35 inlet;
#X obj 777 -35 tgl 19 0 empty empty empty 0 -10 0 12 #fcfcfc #000000 #000000 0 1;
#X obj 897 -35 tgl 19 0 empty empty empty 0 -10 0 12 #fcfcfc #000000 #000000 0 1;
#X obj 957 -31 inlet;
#X obj 925 395 uzi 127 0;
#X obj 1011 303 del 100;
#X msg 929 32 147;
#X text 1006 -31 instrument num;
#X obj 958 4 sel 0 1 2 3;
#X obj 1048 127 s instnum;
#X msg 1020 69 2;
#X msg 973 70 1;
#X obj 923 369 t b;
#X obj 1012 329 del 100;
#X obj 476 578 gate 2 1;
#X msg 1049 33 150;
#X msg 974 31 148;
#X msg 1010 31 149;
#X obj 1189 -31 inlet;
#X text 1200 -2 mode enable;
#X obj 676 631 s LEDstrip1;
#X obj 766 631 s LEDstrip2;
#X obj 855 630 s LEDaction1;
#X obj 953 631 s LEDaction2;
#X obj 1051 628 s LEDreset;
#X obj 849 30 change;
#X obj 1130 400 t b;
#X obj 519 394 + 60;
#X obj 570 320 random 15;
#X obj 572 390 + 45;
#X obj 519 361 gate 2 1;
#X msg 707 535 1 1 1 1 1 1 1 1 1 1 1 1 1 1 1 1;
#X obj 714 126 sel 1 0;
#X msg 728 561 0 0 0 0 0 0 0 0 0 0 0 0 0 0 0 0;
#X obj 854 126 sel 1 0;
#X msg 781 483 1 1 1 1 1 1 1 1 1 1 1 1 1 1 1 1;
#X msg 802 509 0 0 0 0 0 0 0 0 0 0 0 0 0 0 0 0;
#X msg 853 600 1;
#X msg 886 599 0;
#X msg 953 599 1;
#X msg 986 598 0;
#X msg 820 249 stop;
#X obj 523 466 pack;
#X obj 738 228 t b b;
#X obj 803 183 t b b;
#X obj 521 438 makenote 80 4000;
#X obj 326 -15 inlet;
#X obj 371 -14 tgl 19 0 empty empty empty 0 -10 0 12 #fcfcfc #000000 #000000 0 1;
#X obj 268 257 &&;
#X obj 392 262 &&;
#X obj 852 66 gate 2 1;
#X obj 718 65 gate 2 1;
#X obj 440 23 + 1;
#X text 397 -13 play;
#X obj 343 158 tgl 19 0 empty empty empty 0 -10 0 12 #fcfcfc #000000 #000000 0 1;
#X msg 344 129 1;
#X msg 377 129 0;
#X obj 263 162 gate 2 1;
#X obj 351 42 t b b b;
#X obj 230 72 + 1;
#X msg 230 47 1;
#X obj 231 96 % 2;
#X obj 232 126 + 1;
#X obj 446 138 spigot;
#X obj 182 330 + 1;
#X msg 182 308 1;
#X obj 183 354 % 4;
#X floatatom 185 384 5 0 0 0 - - - 0;
#X obj 337 338 + 1;
#X msg 338 296 1;
#X obj 338 362 % 4;
#X floatatom 340 392 5 0 0 0 - - - 0;
#X msg 251 363 stop;
#X msg 421 358 stop;
#X obj 126 526 pack;
#X obj 283 528 pack;
#X obj 347 98 delay 1000;
#X obj 444 107 delay 2000;
#X obj 292 292 sel 0;
#X obj 126 498 makenote 80 4000;
#X obj 282 499 makenote 80 4000;
#X obj 267 231 t a a;
#X obj 246 293 sel 1;
#X obj 389 232 t a a;
#X obj 384 296 sel 1;
#X obj 436 291 sel 0;
#X obj 206 218 tgl 19 0 empty empty empty 0 -10 0 12 #fcfcfc #000000 #000000 0 1;
#X obj 453 214 tgl 19 0 empty empty empty 0 -10 0 12 #fcfcfc #000000 #000000 0 1;
#X msg 179 164 1;
#X obj 180 285 sel 1;
#X obj 211 252 change;
#X obj 338 261 sel 1;
#X obj 338 233 change;
#X floatatom 145 105 5 0 0 0 - - - 0;
#X obj 161 415 sel 0 1 2 3;
#X obj 133 471 i;
#X obj 326 413 sel 0 1 2 3;
#X obj 293 474 i;
#X obj 277 49 sel 1 0;
#N canvas 69 77 1127 701 ledstrip1 0;
#X obj 81 32 inlet;
#X obj 131 65 tgl 19 0 empty empty empty 0 -10 0 12 #fcfcfc #000000 #000000 0 1;
#X obj 81 95 pipe 125;
#X obj 81 64 t a a;
#X obj 130 131 tgl 19 0 empty empty empty 0 -10 0 12 #fcfcfc #000000 #000000 0 1;
#X obj 80 161 pipe 125;
#X obj 80 130 t a a;
#X obj 131 198 tgl 19 0 empty empty empty 0 -10 0 12 #fcfcfc #000000 #000000 0 1;
#X obj 81 228 pipe 125;
#X obj 81 197 t a a;
#X obj 132 267 tgl 19 0 empty empty empty 0 -10 0 12 #fcfcfc #000000 #000000 0 1;
#X obj 82 297 pipe 125;
#X obj 82 266 t a a;
#X obj 132 334 tgl 19 0 empty empty empty 0 -10 0 12 #fcfcfc #000000 #000000 0 1;
#X obj 82 364 pipe 125;
#X obj 82 333 t a a;
#X obj 131 400 tgl 19 0 empty empty empty 0 -10 0 12 #fcfcfc #000000 #000000 0 1;
#X obj 81 430 pipe 125;
#X obj 81 399 t a a;
#X obj 132 467 tgl 19 0 empty empty empty 0 -10 0 12 #fcfcfc #000000 #000000 0 1;
#X obj 82 497 pipe 125;
#X obj 82 466 t a a;
#X obj 843 664 outlet;
#X obj 105 654 outlet;
#X obj 317 69 tgl 19 0 empty empty empty 0 -10 0 12 #fcfcfc #000000 #000000 0 1;
#X obj 267 99 pipe 125;
#X obj 267 68 t a a;
#X obj 316 135 tgl 19 0 empty empty empty 0 -10 0 12 #fcfcfc #000000 #000000 0 1;
#X obj 266 165 pipe 125;
#X obj 266 134 t a a;
#X obj 317 202 tgl 19 0 empty empty empty 0 -10 0 12 #fcfcfc #000000 #000000 0 1;
#X obj 267 232 pipe 125;
#X obj 267 201 t a a;
#X obj 318 271 tgl 19 0 empty empty empty 0 -10 0 12 #fcfcfc #000000 #000000 0 1;
#X obj 268 301 pipe 125;
#X obj 268 270 t a a;
#X obj 318 338 tgl 19 0 empty empty empty 0 -10 0 12 #fcfcfc #000000 #000000 0 1;
#X obj 268 368 pipe 125;
#X obj 268 337 t a a;
#X obj 317 404 tgl 19 0 empty empty empty 0 -10 0 12 #fcfcfc #000000 #000000 0 1;
#X obj 267 434 pipe 125;
#X obj 267 403 t a a;
#X obj 318 471 tgl 19 0 empty empty empty 0 -10 0 12 #fcfcfc #000000 #000000 0 1;
#X obj 268 501 pipe 125;
#X obj 268 470 t a a;
#X obj 381 540 tgl 19 0 empty empty empty 0 -10 0 12 #fcfcfc #000000 #000000 0 1;
#X obj 269 539 t a b a;
#X obj 131 526 tgl 19 0 empty empty empty 0 -10 0 12 #fcfcfc #000000 #000000 0 1;
#X obj 81 556 pipe 125;
#X obj 81 525 t a a;
#X obj 655 625 pak 0 0 0 0 0 0 0 0 0 0 0 0 0 0 0 0, f 49;
#X obj 612 54 inlet;
#X msg 612 81 clear;
#X connect 0 0 3 0;
#X connect 2 0 6 0;
#X connect 3 0 2 0;
#X connect 3 1 1 0;
#X connect 3 1 50 0;
#X connect 5 0 9 0;
#X connect 6 0 5 0;
#X connect 6 1 4 0;
#X connect 6 1 50 1;
#X connect 8 0 12 0;
#X connect 9 0 8 0;
#X connect 9 1 7 0;
#X connect 9 1 50 2;
#X connect 11 0 15 0;
#X connect 12 0 11 0;
#X connect 12 1 10 0;
#X connect 12 1 50 3;
#X connect 14 0 18 0;
#X connect 15 0 14 0;
#X connect 15 1 13 0;
#X connect 15 1 50 4;
#X connect 17 0 21 0;
#X connect 18 0 17 0;
#X connect 18 1 16 0;
#X connect 18 1 50 5;
#X connect 20 0 49 0;
#X connect 21 0 20 0;
#X connect 21 1 19 0;
#X connect 21 1 50 6;
#X connect 25 0 29 0;
#X connect 26 0 25 0;
#X connect 26 1 24 0;
#X connect 26 1 50 8;
#X connect 28 0 32 0;
#X connect 29 0 28 0;
#X connect 29 1 27 0;
#X connect 29 1 50 9;
#X connect 31 0 35 0;
#X connect 32 0 31 0;
#X connect 32 1 30 0;
#X connect 32 1 50 10;
#X connect 34 0 38 0;
#X connect 35 0 34 0;
#X connect 35 1 33 0;
#X connect 35 1 50 11;
#X connect 37 0 41 0;
#X connect 38 0 37 0;
#X connect 38 1 36 0;
#X connect 38 1 50 12;
#X connect 40 0 44 0;
#X connect 41 0 40 0;
#X connect 41 1 39 0;
#X connect 41 1 50 13;
#X connect 43 0 46 0;
#X connect 44 0 43 0;
#X connect 44 1 42 0;
#X connect 44 1 50 14;
#X connect 46 0 23 0;
#X connect 46 2 45 0;
#X connect 46 2 50 15;
#X connect 48 0 26 0;
#X connect 49 0 48 0;
#X connect 49 1 47 0;
#X connect 49 1 50 7;
#X connect 50 0 22 0;
#X connect 51 0 52 0;
#X connect 52 0 2 0;
#X connect 52 0 5 0;
#X connect 52 0 8 0;
#X connect 52 0 11 0;
#X connect 52 0 14 0;
#X connect 52 0 17 0;
#X connect 52 0 20 0;
#X connect 52 0 48 0;
#X connect 52 0 25 0;
#X connect 52 0 28 0;
#X connect 52 0 31 0;
#X connect 52 0 34 0;
#X connect 52 0 37 0;
#X connect 52 0 40 0;
#X connect 52 0 43 0;
#X restore 263 183 pd ledstrip1;
#N canvas 153 44 1127 701 ledstrip2 0;
#X obj 81 32 inlet;
#X obj 131 65 tgl 19 0 empty empty empty 0 -10 0 12 #fcfcfc #000000 #000000 0 1;
#X obj 81 95 pipe 125;
#X obj 81 64 t a a;
#X obj 130 131 tgl 19 0 empty empty empty 0 -10 0 12 #fcfcfc #000000 #000000 0 1;
#X obj 80 161 pipe 125;
#X obj 80 130 t a a;
#X obj 131 198 tgl 19 0 empty empty empty 0 -10 0 12 #fcfcfc #000000 #000000 0 1;
#X obj 81 228 pipe 125;
#X obj 81 197 t a a;
#X obj 132 267 tgl 19 0 empty empty empty 0 -10 0 12 #fcfcfc #000000 #000000 0 1;
#X obj 82 297 pipe 125;
#X obj 82 266 t a a;
#X obj 132 334 tgl 19 0 empty empty empty 0 -10 0 12 #fcfcfc #000000 #000000 0 1;
#X obj 82 364 pipe 125;
#X obj 82 333 t a a;
#X obj 131 400 tgl 19 0 empty empty empty 0 -10 0 12 #fcfcfc #000000 #000000 0 1;
#X obj 81 430 pipe 125;
#X obj 81 399 t a a;
#X obj 132 467 tgl 19 0 empty empty empty 0 -10 0 12 #fcfcfc #000000 #000000 0 1;
#X obj 82 497 pipe 125;
#X obj 82 466 t a a;
#X obj 843 664 outlet;
#X obj 105 654 outlet;
#X obj 317 69 tgl 19 0 empty empty empty 0 -10 0 12 #fcfcfc #000000 #000000 0 1;
#X obj 267 99 pipe 125;
#X obj 267 68 t a a;
#X obj 316 135 tgl 19 0 empty empty empty 0 -10 0 12 #fcfcfc #000000 #000000 0 1;
#X obj 266 165 pipe 125;
#X obj 266 134 t a a;
#X obj 317 202 tgl 19 0 empty empty empty 0 -10 0 12 #fcfcfc #000000 #000000 0 1;
#X obj 267 232 pipe 125;
#X obj 267 201 t a a;
#X obj 318 271 tgl 19 0 empty empty empty 0 -10 0 12 #fcfcfc #000000 #000000 0 1;
#X obj 268 301 pipe 125;
#X obj 268 270 t a a;
#X obj 318 338 tgl 19 0 empty empty empty 0 -10 0 12 #fcfcfc #000000 #000000 0 1;
#X obj 268 368 pipe 125;
#X obj 268 337 t a a;
#X obj 317 404 tgl 19 0 empty empty empty 0 -10 0 12 #fcfcfc #000000 #000000 0 1;
#X obj 267 434 pipe 125;
#X obj 267 403 t a a;
#X obj 318 471 tgl 19 0 empty empty empty 0 -10 0 12 #fcfcfc #000000 #000000 0 1;
#X obj 268 501 pipe 125;
#X obj 268 470 t a a;
#X obj 329 539 tgl 19 0 empty empty empty 0 -10 0 12 #fcfcfc #000000 #000000 0 1;
#X obj 269 539 t a b a;
#X obj 131 526 tgl 19 0 empty empty empty 0 -10 0 12 #fcfcfc #000000 #000000 0 1;
#X obj 81 556 pipe 125;
#X obj 81 525 t a a;
#X obj 655 625 pak 0 0 0 0 0 0 0 0 0 0 0 0 0 0 0 0, f 49;
#X obj 612 54 inlet;
#X msg 612 81 clear;
#X connect 0 0 3 0;
#X connect 2 0 6 0;
#X connect 3 0 2 0;
#X connect 3 1 1 0;
#X connect 3 1 50 0;
#X connect 5 0 9 0;
#X connect 6 0 5 0;
#X connect 6 1 4 0;
#X connect 6 1 50 1;
#X connect 8 0 12 0;
#X connect 9 0 8 0;
#X connect 9 1 7 0;
#X connect 9 1 50 2;
#X connect 11 0 15 0;
#X connect 12 0 11 0;
#X connect 12 1 10 0;
#X connect 12 1 50 3;
#X connect 14 0 18 0;
#X connect 15 0 14 0;
#X connect 15 1 13 0;
#X connect 15 1 50 4;
#X connect 17 0 21 0;
#X connect 18 0 17 0;
#X connect 18 1 16 0;
#X connect 18 1 50 5;
#X connect 20 0 49 0;
#X connect 21 0 20 0;
#X connect 21 1 19 0;
#X connect 21 1 50 6;
#X connect 25 0 29 0;
#X connect 26 0 25 0;
#X connect 26 1 24 0;
#X connect 26 1 50 8;
#X connect 28 0 32 0;
#X connect 29 0 28 0;
#X connect 29 1 27 0;
#X connect 29 1 50 9;
#X connect 31 0 35 0;
#X connect 32 0 31 0;
#X connect 32 1 30 0;
#X connect 32 1 50 10;
#X connect 34 0 38 0;
#X connect 35 0 34 0;
#X connect 35 1 33 0;
#X connect 35 1 50 11;
#X connect 37 0 41 0;
#X connect 38 0 37 0;
#X connect 38 1 36 0;
#X connect 38 1 50 12;
#X connect 40 0 44 0;
#X connect 41 0 40 0;
#X connect 41 1 39 0;
#X connect 41 1 50 13;
#X connect 43 0 46 0;
#X connect 44 0 43 0;
#X connect 44 1 42 0;
#X connect 44 1 50 14;
#X connect 46 0 23 0;
#X connect 46 1 50 0;
#X connect 46 2 45 0;
#X connect 46 2 50 15;
#X connect 48 0 26 0;
#X connect 49 0 48 0;
#X connect 49 1 47 0;
#X connect 49 1 50 7;
#X connect 50 0 22 0;
#X connect 51 0 52 0;
#X connect 52 0 2 0;
#X connect 52 0 5 0;
#X connect 52 0 8 0;
#X connect 52 0 11 0;
#X connect 52 0 14 0;
#X connect 52 0 17 0;
#X connect 52 0 20 0;
#X connect 52 0 48 0;
#X connect 52 0 25 0;
#X connect 52 0 28 0;
#X connect 52 0 31 0;
#X connect 52 0 34 0;
#X connect 52 0 37 0;
#X connect 52 0 40 0;
#X connect 52 0 43 0;
#X restore 403 181 pd ledstrip2;
#X obj 326 11 t a a a;
#X obj 270 84 t b b b;
#X obj 401 203 t a a;
#X obj 263 204 t a a;
#X obj 180 188 t a a a;
#X msg 358 204 0;
#X obj 289 110 t b b b;
#X msg 203 448 60;
#X msg 245 450 64;
#X msg 132 447 67;
#X msg 171 448 71;
#X msg 298 444 69;
#X msg 331 447 72;
#X msg 367 449 62;
#X msg 406 449 65;
#X obj 464 658 throw~ mono;
#X obj 468 626 string_synth;
#X obj 1192 122 switch~;
#X obj 1188 66 == 1;
#X connect 0 0 19 1;
#X connect 1 0 0 0;
#X connect 3 0 56 1;
#X connect 4 0 3 0;
#X connect 5 0 30 0;
#X connect 6 0 3 0;
#X connect 7 0 30 0;
#X connect 8 0 13 0;
#X connect 9 2 1 0;
#X connect 10 0 17 0;
#X connect 10 0 18 0;
#X connect 10 0 31 0;
#X connect 11 0 14 0;
#X connect 13 0 11 0;
#X connect 13 0 16 0;
#X connect 13 1 21 0;
#X connect 13 1 16 0;
#X connect 13 2 22 0;
#X connect 13 2 16 0;
#X connect 13 3 20 0;
#X connect 13 3 15 0;
#X connect 15 0 19 0;
#X connect 15 0 35 0;
#X connect 16 0 19 0;
#X connect 16 0 35 0;
#X connect 17 0 9 0;
#X connect 18 0 17 0;
#X connect 18 0 31 0;
#X connect 19 0 122 0;
#X connect 19 1 122 0;
#X connect 20 0 14 0;
#X connect 21 0 14 0;
#X connect 22 0 14 0;
#X connect 23 0 124 0;
#X connect 30 0 55 1;
#X connect 31 0 29 0;
#X connect 32 0 50 0;
#X connect 33 0 35 1;
#X connect 34 0 50 0;
#X connect 35 0 32 0;
#X connect 35 1 34 0;
#X connect 36 0 25 0;
#X connect 37 0 33 0;
#X connect 37 0 36 0;
#X connect 37 0 42 0;
#X connect 37 1 38 0;
#X connect 37 1 48 0;
#X connect 37 1 43 0;
#X connect 38 0 25 0;
#X connect 39 0 33 0;
#X connect 39 0 40 0;
#X connect 39 0 44 0;
#X connect 39 1 41 0;
#X connect 39 1 45 0;
#X connect 39 1 49 0;
#X connect 40 0 26 0;
#X connect 41 0 26 0;
#X connect 42 0 27 0;
#X connect 43 0 27 0;
#X connect 44 0 28 0;
#X connect 45 0 28 0;
#X connect 46 0 50 0;
#X connect 47 0 0 0;
#X connect 48 0 17 0;
#X connect 48 1 46 0;
#X connect 49 0 17 0;
#X connect 49 1 46 0;
#X connect 50 0 47 0;
#X connect 50 1 47 1;
#X connect 51 0 106 0;
#X connect 52 0 106 0;
#X connect 53 0 87 0;
#X connect 53 0 27 0;
#X connect 54 0 89 0;
#X connect 54 0 28 0;
#X connect 55 0 39 0;
#X connect 55 1 88 0;
#X connect 56 0 37 0;
#X connect 56 1 86 0;
#X connect 57 0 56 0;
#X connect 57 0 55 0;
#X connect 59 0 62 1;
#X connect 60 0 59 0;
#X connect 61 0 59 0;
#X connect 62 0 104 0;
#X connect 62 1 105 0;
#X connect 63 0 81 0;
#X connect 63 1 60 0;
#X connect 63 2 65 0;
#X connect 64 0 66 0;
#X connect 65 0 64 0;
#X connect 66 0 64 1;
#X connect 66 0 67 0;
#X connect 67 0 62 0;
#X connect 67 0 98 0;
#X connect 68 0 63 0;
#X connect 69 0 71 0;
#X connect 70 0 69 0;
#X connect 71 0 69 1;
#X connect 71 0 72 0;
#X connect 71 0 99 0;
#X connect 73 0 75 0;
#X connect 74 0 73 0;
#X connect 75 0 73 1;
#X connect 75 0 76 0;
#X connect 75 0 101 0;
#X connect 77 0 84 0;
#X connect 78 0 85 0;
#X connect 79 0 0 0;
#X connect 80 0 0 0;
#X connect 81 0 61 0;
#X connect 81 0 82 0;
#X connect 82 0 68 0;
#X connect 83 0 77 0;
#X connect 84 0 79 0;
#X connect 84 1 79 1;
#X connect 85 0 80 0;
#X connect 85 1 80 1;
#X connect 86 0 53 0;
#X connect 86 1 83 0;
#X connect 87 0 100 0;
#X connect 88 0 54 0;
#X connect 88 1 90 0;
#X connect 89 0 102 0;
#X connect 90 0 78 0;
#X connect 93 0 110 0;
#X connect 94 0 70 0;
#X connect 95 0 94 0;
#X connect 96 0 74 0;
#X connect 97 0 96 0;
#X connect 99 0 115 0;
#X connect 99 1 116 0;
#X connect 99 2 113 0;
#X connect 99 3 114 0;
#X connect 100 0 84 0;
#X connect 101 0 117 0;
#X connect 101 1 118 0;
#X connect 101 2 119 0;
#X connect 101 3 120 0;
#X connect 102 0 85 0;
#X connect 103 0 107 0;
#X connect 103 1 10 0;
#X connect 103 1 112 0;
#X connect 104 0 109 0;
#X connect 104 1 25 0;
#X connect 105 0 108 0;
#X connect 105 1 26 0;
#X connect 106 0 103 0;
#X connect 106 1 68 1;
#X connect 106 2 57 0;
#X connect 107 0 63 0;
#X connect 107 2 93 0;
#X connect 108 0 97 0;
#X connect 108 1 54 1;
#X connect 108 1 92 0;
#X connect 109 0 91 0;
#X connect 109 0 95 0;
#X connect 109 1 53 1;
#X connect 110 0 69 1;
#X connect 110 1 73 1;
#X connect 110 2 64 1;
#X connect 111 0 97 0;
#X connect 111 0 95 0;
#X connect 112 0 104 1;
#X connect 112 1 105 1;
#X connect 112 2 111 0;
#X connect 113 0 100 1;
#X connect 114 0 100 1;
#X connect 115 0 100 1;
#X connect 116 0 100 1;
#X connect 117 0 102 1;
#X connect 118 0 102 1;
#X connect 119 0 102 1;
#X connect 120 0 102 1;
#X connect 122 0 121 0;
#X connect 124 0 123 0;
