#N canvas 0 25 1761 1010 12;
#X obj 225 687 inlet;
#X obj 370 687 inlet;
#X obj 72 684 inlet;
#X obj 119 685 tgl 19 0 empty empty empty 0 -10 0 12 #fcfcfc #000000 #000000 0 1;
#X obj 269 689 tgl 19 0 empty empty empty 0 -10 0 12 #fcfcfc #000000 #000000 0 1;
#X obj 417 687 tgl 19 0 empty empty empty 0 -10 0 12 #fcfcfc #000000 #000000 0 1;
#X obj 516 688 inlet;
#X text 512 663 instrument num;
#X obj 649 791 switch~;
#X obj 650 686 inlet;
#X text 668 710 mode enable;
#X msg 675 733 3;
#X obj 649 762 == 3;
#X text 511 709 ignore;
#X text 67 659 play/stop;
#X text 226 659 sensor1;
#X text 367 662 sensor2;
#X text 650 663 mode;
#X obj 72 715 sel 0 1;
#N canvas 51 97 1181 681 counter 0;
#X obj 159 129 t b b b;
#X floatatom 242 182 5 0 0 0 - - - 0;
#X obj 188 200 /;
#X floatatom 242 219 5 0 0 0 - - - 0;
#X obj 188 229 i;
#X floatatom 242 248 5 0 0 0 - - - 0;
#X obj 242 153 inlet;
#X obj 158 100 inlet;
#X msg 119 230 0;
#X obj 159 276 metro;
#X msg 188 171 60000;
#X msg 208 276 0;
#X obj 159 305 i;
#X obj 194 305 + 1;
#X floatatom 112 305 5 0 0 0 - - - 0;
#X floatatom 159 334 5 0 0 0 - - - 0;
#X floatatom 159 391 5 0 0 0 - - - 0;
#X text 54 22 Due to the absence of a Vanilla counter here is one from cheetomoskeeto;
#X text 346 110 BPM;
#X text 239 134 Recalculate;
#X text 156 76 Start clock;
#X obj 48 194 inlet;
#X text 47 171 Stop;
#X obj 349 135 inlet;
#X obj 274 98 bng 19 250 50 0 empty empty empty 0 -10 0 12 #fcfcfc #000000 #000000;
#X obj 89 85 bng 19 250 50 0 empty empty empty 0 -10 0 12 #fcfcfc #000000 #000000;
#X obj 288 291 inlet;
#X text 287 269 Reset;
#X obj 159 419 outlet;
#X obj 398 134 loadbang;
#X text 396 109 Default BPM;
#X msg 398 163 360;
#X obj 159 362 % 12;
#X obj 274 320 r reset_counter;
#X connect 0 0 9 0;
#X connect 0 1 10 0;
#X connect 0 2 1 0;
#X connect 1 0 2 1;
#X connect 2 0 3 0;
#X connect 2 0 4 0;
#X connect 4 0 5 0;
#X connect 4 0 9 1;
#X connect 6 0 1 0;
#X connect 7 0 0 0;
#X connect 8 0 9 0;
#X connect 9 0 12 0;
#X connect 9 0 14 0;
#X connect 10 0 2 0;
#X connect 11 0 12 1;
#X connect 11 0 15 0;
#X connect 12 0 13 0;
#X connect 12 0 15 0;
#X connect 13 0 12 1;
#X connect 15 0 32 0;
#X connect 16 0 28 0;
#X connect 21 0 8 0;
#X connect 23 0 1 0;
#X connect 24 0 1 0;
#X connect 24 0 0 0;
#X connect 25 0 0 0;
#X connect 26 0 11 0;
#X connect 29 0 31 0;
#X connect 31 0 1 0;
#X connect 32 0 16 0;
#X connect 33 0 11 0;
#X restore 1395 326 pd counter;
#X f 17;
#X obj 1344 295 bng 19 250 50 0 empty empty empty 0 -10 0 12 #fcfcfc #000000 #000000;
#X text 1346 275 Start;
#X msg 1464 36 60;
#X text 1387 38 BPM input;
#X obj 1405 297 bng 19 250 50 0 empty empty empty 0 -10 0 12 #fcfcfc #000000 #000000;
#X text 1404 276 Recalculate BPM;
#X msg 1464 94 120;
#X obj 1299 295 bng 19 250 50 0 empty empty empty 0 -10 0 12 #fcfcfc #000000 #000000;
#X text 1288 274 Stop, f 5;
#X obj 1531 294 bng 19 250 50 0 empty empty empty 0 -10 0 12 #fcfcfc #000000 #000000;
#X text 1527 274 Reset;
#X msg 1464 123 240;
#X msg 1464 65 90;
#X obj 1308 326 s stop;
#X obj 1264 139 r bpm;
#X obj 1264 168 t b b b;
#X text 19 10 Drumline;
#X obj 1372 355 hsl 162 19 0 12 0 0 empty empty empty -2 -10 0 12 #fcfcfc #000000 #000000 0 1;
#X obj 1369 384 s bar;
#X obj 72 71 r bar;
#X floatatom 25 107 5 0 0 0 - - - 0;
#X floatatom 73 161 5 0 0 0 - - - 0;
#X obj 238 167 bng 19 250 50 0 empty empty empty 0 -10 0 12 #fcfcfc #000000 #000000;
#X obj 237 138 spigot;
#X obj 477 72 r bar;
#X floatatom 430 108 5 0 0 0 - - - 0;
#X text 68 50 Kick;
#X obj 1200 740 r kick;
#N canvas 103 338 450 446 kick 0;
#X obj 134 212 vline~;
#X obj 172 328 *~;
#X obj 172 307 cos~;
#X obj 172 286 *~;
#X obj 172 264 *~;
#X obj 172 242 *~;
#X msg 134 190 1 0 0 \, 0 \$1 0;
#X msg 134 169 70;
#X obj 172 350 outlet~;
#X obj 228 397 switch~;
#X obj 228 349 env~;
#X obj 228 373 > 0.1;
#X msg 134 147 1;
#X obj 134 125 inlet;
#X obj 190 50 vsl 15 128 1.9 2.4 0 0 empty empty empty 0 -9 0 10 #fcfcfc #000000 #000000 0 1;
#X obj 190 26 inlet;
#X obj 251 102 loadbang;
#X msg 251 126 2.4;
#X connect 0 0 1 1;
#X connect 0 0 5 0;
#X connect 0 0 3 1;
#X connect 1 0 8 0;
#X connect 1 0 10 0;
#X connect 2 0 1 0;
#X connect 3 0 2 0;
#X connect 4 0 3 0;
#X connect 5 0 4 1;
#X connect 5 0 4 0;
#X connect 6 0 0 0;
#X connect 7 0 6 0;
#X connect 10 0 11 0;
#X connect 11 0 9 0;
#X connect 12 0 9 0;
#X connect 12 0 7 0;
#X connect 13 0 12 0;
#X connect 14 0 5 1;
#X connect 15 0 14 0;
#X connect 16 0 17 0;
#X connect 17 0 14 0;
#X restore 1200 764 pd kick;
#X obj 238 191 s kick;
#X text 473 51 Snare;
#N canvas 237 262 450 704 snare 0;
#X obj 193 234 vline~;
#X obj 175 460 *~;
#X obj 211 296 cos~;
#X obj 161 169 t f f;
#X obj 211 276 *~;
#X obj 175 482 outlet~;
#X obj 231 529 switch~;
#X obj 231 481 env~;
#X obj 231 505 > 0.1;
#X msg 229 425 1;
#X obj 183 87 t b b b;
#X obj 183 41 inlet;
#X obj 193 392 *~;
#X obj 175 439 cos~;
#X obj 193 345 +~;
#X obj 175 365 *~;
#X obj 193 414 *~;
#X obj 193 322 sig~ 5;
#X obj 229 192 /;
#X obj 183 115 del 5;
#X obj 146 504 s~ snfb;
#X obj 175 254 r~ snfb;
#X msg 183 63 1;
#X msg 183 140 90;
#X msg 229 140 70;
#X msg 285 140 6;
#X msg 193 212 1 0 0 \, 0 \$1 3;
#X connect 0 0 4 0;
#X connect 0 0 12 0;
#X connect 0 0 12 1;
#X connect 1 0 5 0;
#X connect 1 0 7 0;
#X connect 1 0 20 0;
#X connect 2 0 14 1;
#X connect 3 0 18 0;
#X connect 3 1 26 0;
#X connect 4 0 2 0;
#X connect 7 0 8 0;
#X connect 8 0 6 0;
#X connect 9 0 6 0;
#X connect 10 0 19 0;
#X connect 10 1 25 0;
#X connect 10 2 9 0;
#X connect 11 0 22 0;
#X connect 12 0 16 0;
#X connect 12 0 16 1;
#X connect 13 0 1 0;
#X connect 14 0 15 1;
#X connect 15 0 13 0;
#X connect 16 0 1 1;
#X connect 17 0 14 0;
#X connect 18 0 4 1;
#X connect 19 0 23 0;
#X connect 19 0 24 0;
#X connect 21 0 15 0;
#X connect 22 0 10 0;
#X connect 23 0 3 0;
#X connect 24 0 3 0;
#X connect 25 0 18 1;
#X connect 26 0 0 0;
#X restore 1130 763 pd snare;
#X obj 1130 739 r snare;
#N canvas 103 338 450 446 hihat 0;
#X obj 168 152 noise~;
#X obj 168 282 *~, f 5;
#X obj 170 73 inlet;
#X obj 168 326 outlet~;
#X obj 202 258 line~;
#X msg 202 219 1;
#X obj 170 94 t b b;
#X obj 168 194 hip~ 8000;
#X obj 168 173 hip~ 8000;
#X obj 168 303 *~ 0.4;
#X obj 240 83 vsl 15 128 0 127 0 0 empty empty empty 0 -9 0 10 #fcfcfc #000000 #000000 0 1;
#X msg 240 219 0 \$1;
#X obj 273 24 loadbang;
#X msg 273 53 127;
#X connect 0 0 8 0;
#X connect 1 0 9 0;
#X connect 2 0 6 0;
#X connect 4 0 1 1;
#X connect 5 0 4 0;
#X connect 6 0 10 0;
#X connect 6 1 5 0;
#X connect 7 0 1 0;
#X connect 8 0 7 0;
#X connect 9 0 3 0;
#X connect 10 0 11 0;
#X connect 11 0 4 0;
#X connect 12 0 13 0;
#X connect 13 0 10 0;
#X restore 1263 764 pd hihat;
#X obj 1263 740 r hihat;
#X obj 911 76 r bar;
#X floatatom 864 112 5 0 0 0 - - - 0;
#X text 907 55 Hi-Hat;
#X text 19 274 Sequences;
#X floatatom 472 162 5 0 0 0 - - - 0;
#X obj 644 167 bng 19 250 50 0 empty empty empty 0 -10 0 12 #fcfcfc #000000 #000000;
#X obj 643 139 spigot;
#X obj 472 138 tabread snareSequence;
#X obj 644 191 s snare;
#X floatatom 911 166 5 0 0 0 - - - 0;
#X obj 1069 181 bng 19 250 50 0 empty empty empty 0 -10 0 12 #fcfcfc #000000 #000000;
#X obj 1068 153 spigot;
#X obj 1069 205 s hihat;
#X obj 73 137 tabread kickSequence;
#X obj 917 331 r resetHats;
#X obj 461 331 r resetSnares;
#X msg 461 360 \; snareSequence const 0;
#X obj 22 332 r resetKicks;
#X msg 22 361 \; kickSequence const 0;
#X msg 917 360 \; hatSequence const 0;
#X obj 911 142 tabread hatSequence;
#X obj 1153 113 bng 19 250 50 0 empty empty empty 0 -10 0 12 #fcfcfc #000000 #000000;
#X obj 1152 142 bng 19 250 50 0 empty empty empty 0 -10 0 12 #fcfcfc #000000 #000000;
#X obj 715 109 bng 19 250 50 0 empty empty empty 0 -10 0 12 #fcfcfc #000000 #000000;
#X obj 714 138 bng 19 250 50 0 empty empty empty 0 -10 0 12 #fcfcfc #000000 #000000;
#X obj 310 108 bng 19 250 50 0 empty empty empty 0 -10 0 12 #fcfcfc #000000 #000000;
#X obj 311 137 bng 19 250 50 0 empty empty empty 0 -10 0 12 #fcfcfc #000000 #000000;
#X floatatom 97 444 5 0 0 0 - - - 0;
#X obj 22 443 bng 19 250 50 0 empty empty empty 0 -10 0 12 #fcfcfc #000000 #000000;
#X obj 22 472 array get kickSequence;
#X obj 22 414 r kickmsg;
#X obj 311 166 s kickmsg;
#X obj 713 167 s snaremsg;
#X obj 1153 171 s hatmsg;
#X floatatom 540 443 5 0 0 0 - - - 0;
#X obj 461 442 bng 19 250 50 0 empty empty empty 0 -10 0 12 #fcfcfc #000000 #000000;
#X obj 461 471 array get snareSequence;
#X floatatom 990 443 5 0 0 0 - - - 0;
#X obj 918 442 bng 19 250 50 0 empty empty empty 0 -10 0 12 #fcfcfc #000000 #000000;
#X obj 918 413 r hatmsg;
#X obj 918 471 array get hatSequence;
#X obj 22 501 print kickSequence \$1;
#X obj 461 500 print snareSequence \$1;
#X obj 918 500 print hatSequence \$1;
#X obj 461 413 r snaremsg;
#X obj 696 390 array get snareSequence;
#X obj 696 359 bng 19 250 50 0 empty empty empty 0 -10 0 12 #fcfcfc #000000 #000000;
#X obj 656 388 bng 19 250 50 0 empty empty empty 0 -10 0 12 #fcfcfc #000000 #000000;
#X obj 699 477 sel 0;
#N canvas 912 88 593 637 compareArray 0;
#X obj 339 183 inlet;
#X obj 256 128 inlet;
#X obj 262 299 outlet;
#X obj 260 241 list-compare;
#X obj 261 270 tgl 19 0 empty empty empty 0 -10 0 12 #fcfcfc #000000 #000000 0 1;
#X connect 0 0 3 1;
#X connect 1 0 3 0;
#X connect 3 0 4 0;
#X connect 4 0 2 0;
#X restore 699 448 pd compareArray;
#X obj 709 507 print dont send snare;
#X obj 656 419 array get snareSequence-prev;
#X obj 1156 359 bng 19 250 50 0 empty empty empty 0 -10 0 12 #fcfcfc #000000 #000000;
#X obj 1116 388 bng 19 250 50 0 empty empty empty 0 -10 0 12 #fcfcfc #000000 #000000;
#X obj 1159 477 sel 0;
#N canvas 912 88 593 637 compareArray 0;
#X obj 339 183 inlet;
#X obj 256 128 inlet;
#X obj 262 299 outlet;
#X obj 260 241 list-compare;
#X obj 261 270 tgl 19 0 empty empty empty 0 -10 0 12 #fcfcfc #000000 #000000 0 1;
#X connect 0 0 3 1;
#X connect 1 0 3 0;
#X connect 3 0 4 0;
#X connect 4 0 2 0;
#X restore 1159 448 pd compareArray;
#X obj 1156 390 array get hatSequence;
#X obj 1116 419 array get hatSequence-prev;
#X obj 1169 507 print dont send hat;
#X obj 1159 535 print send hat;
#X obj 255 362 bng 19 250 50 0 empty empty empty 0 -10 0 12 #fcfcfc #000000 #000000;
#X obj 215 391 bng 19 250 50 0 empty empty empty 0 -10 0 12 #fcfcfc #000000 #000000;
#X obj 258 480 sel 0;
#N canvas 912 88 593 637 compareArray 0;
#X obj 339 183 inlet;
#X obj 256 128 inlet;
#X obj 262 299 outlet;
#X obj 260 241 list-compare;
#X obj 261 270 tgl 19 0 empty empty empty 0 -10 0 12 #fcfcfc #000000 #000000 0 1;
#X connect 0 0 3 1;
#X connect 1 0 3 0;
#X connect 3 0 4 0;
#X connect 4 0 2 0;
#X restore 258 451 pd compareArray;
#X obj 255 393 array get kickSequence;
#X obj 215 422 array get kickSequence-prev;
#X floatatom 329 365 5 0 0 0 - - - 0;
#X floatatom 775 362 5 0 0 0 - - - 0;
#X floatatom 1229 362 5 0 0 0 - - - 0;
#X obj 695 330 t b b;
#X obj 254 333 t b b;
#X obj 1155 330 t b b;
#X obj 679 596 arraycopy snareSequence-prev;
#X msg 679 567 copy snareSequence;
#X obj 1140 593 arraycopy hatSequence-prev;
#X msg 1140 564 copy hatSequence;
#X obj 268 510 print dont send kick;
#X msg 238 567 copy kickSequence;
#X obj 238 596 arraycopy kickSequence-prev;
#X msg 20 558 \; kickSequence-prev const 0;
#X obj 20 529 loadbang;
#X msg 461 558 \; snareSequence-prev const 0;
#X obj 461 529 loadbang;
#X obj 918 529 loadbang;
#X msg 918 558 \; hatSequence-prev const 0;
#X obj 695 301 r snaremsg;
#X obj 1155 301 r snaremsg;
#X obj 1120 507 t b b;
#X obj 660 508 t b b;
#X obj 219 510 t b b;
#X msg 1465 152 360;
#X msg 1510 143 \$1 1000;
#X floatatom 1542 172 5 0 0 0 - - - 0;
#X floatatom 1577 200 5 0 0 0 - - - 0;
#X obj 1510 229 line 0 100;
#X msg 1465 181 420;
#X msg 1531 326 0;
#X obj 105 744 s \$0-start;
#X obj 21 744 s \$0-stop;
#X obj 1239 192 r \$0-stop;
#X obj 1362 161 r \$0-start;
#X obj 796 693 inlet;
#X obj 795 751 s resetDrum;
#X obj 796 722 t b;
#X obj 120 332 r resetDrum;
#X obj 1254 800 *~ 4;
#X obj 766 751 bng 19 250 50 0 empty empty empty 0 -10 0 12 #fcfcfc #000000 #000000;
#X obj 367 720 t a;
#X obj 227 724 t a;
#X obj 227 749 s mode3sensor1;
#X obj 367 749 s mode3sensor2;
#X obj 1587 536 r bar;
#X obj 1419 447 r mode3sensor1;
#X obj 1420 536 tabwrite snareSequence;
#X obj 1424 664 tabwrite kickSequence;
#X obj 1586 664 r bar;
#X obj 1368 664 s kick;
#X obj 1424 577 r mode3sensor2;
#X obj 1424 635 spigot;
#X obj 1424 606 t a a;
#X obj 1419 505 spigot;
#X obj 1419 476 t a a;
#X obj 1358 535 s snare;
#X obj 254 304 r kickmsg;
#X obj 566 331 r resetDrum;
#X obj 1008 331 r resetDrum;
#X obj 72 108 select 0 1 2 3 4 5 6 7 8 9 10 11;
#N canvas 0 433 500 229 kickSequences 0;
#N canvas 614 639 450 278 (subpatch) 0;
#X array kickSequence 12 float 2;
#X coords 0 2 12 -1 200 140 1 0 0;
#X restore 16 28 graph;
#N canvas 0 22 450 278 (subpatch) 0;
#X array kickSequence-prev 12 float 3;
#A 0 0 0 0 0 0 0 0 1 1 0 0 0;
#X coords 0 2 12 -1 200 140 1 0 0;
#X restore 244 29 graph;
#X restore 22 303 pd kickSequences;
#N canvas 188 82 276 375 snareSequences 0;
#N canvas 14 764 450 278 (subpatch) 0;
#X array snareSequence 16 float 2;
#X coords 0 2 16 -1 200 140 1 0 0;
#X restore 17 25 graph;
#N canvas 0 22 450 278 (subpatch) 0;
#X array snareSequence-prev 16 float 3;
#A 0 0 0 0 0 0 0 0 1 0 0 1 1 0 0 0 0;
#X coords 0 2 16 -1 200 140 1 0 0;
#X restore 16 192 graph;
#X restore 461 302 pd snareSequences;
#X text 56 788 Receive network sequences;
#N canvas 217 111 476 230 hatSequences 0;
#N canvas 817 814 450 278 (subpatch) 0;
#X array hatSequence 12 float 2;
#X coords 0 2 12 -1 200 140 1 0 0;
#X restore 19 26 graph;
#N canvas 0 22 450 278 (subpatch) 0;
#X array hatSequence-prev 16 float 3;
#A 0 0 0 0 0 0 0 0 0 0 0 0 0 0 0 0 0;
#X coords 0 2 16 -1 200 140 1 0 0;
#X restore 241 27 graph;
#X restore 917 302 pd hatSequences;
#X obj 477 109 select 0 1 2 3 4 5 6 7 8 9 10 11;
#X obj 911 113 select 0 1 2 3 4 5 6 7 8 9 10 11;
#X text 1129 713 Output audio;
#X text 792 667 reset drums;
#X obj 338 720 bng 19 250 50 0 empty empty empty 0 -10 0 12 #fcfcfc #000000 #000000;
#X obj 198 724 bng 19 250 50 0 empty empty empty 0 -10 0 12 #fcfcfc #000000 #000000;
#X obj 61 846 route kick snare hat;
#X obj 61 817 r seq;
#X obj 61 987 array set kickSequence;
#X floatatom 136 959 5 0 0 0 - - - 0;
#X floatatom 185 902 5 0 0 0 - - - 0;
#X obj 106 930 array set snareSequence;
#X floatatom 224 847 5 0 0 0 - - - 0;
#X obj 152 875 array set hatSequence;
#X obj 40 207 s LEDreset;
#X text 25 630 ==== Network Messages ==== DO NOT MOVE THEM \, THE INLETS ARE VERY IMPORTANT, f 76;
#N canvas 669 431 817 564 handleLED 0;
#X obj 26 10 r bar;
#X obj 26 39 select 0 1 2 3 4 5 6 7 8 9 10 11;
#X msg 26 389 1 0 0 0 0 0 0 0 0 0 0 0;
#X msg 44 360 0 1 0 0 0 0 0 0 0 0 0 0;
#X msg 62 331 0 0 1 0 0 0 0 0 0 0 0 0;
#X msg 82 302 0 0 0 1 0 0 0 0 0 0 0 0;
#X msg 102 273 0 0 0 0 1 0 0 0 0 0 0 0;
#X msg 122 244 0 0 0 0 0 1 0 0 0 0 0 0;
#X msg 142 215 0 0 0 0 0 0 1 0 0 0 0 0;
#X msg 162 186 0 0 0 0 0 0 0 1 0 0 0 0;
#X msg 182 157 0 0 0 0 0 0 0 0 1 0 0 0;
#X msg 222 99 0 0 0 0 0 0 0 0 0 0 1 0;
#X msg 202 128 0 0 0 0 0 0 0 0 0 1 0 0;
#X obj 211 485 s LEDstrip1;
#X obj 133 517 s LEDstrip2;
#X msg 242 70 1 1 1 1 1 1 1 1 1 1 1 1;
#X obj 323 309 r stop;
#X text 320 283 Quickly reset the light values to low state;
#X msg 323 338 0 0 0 0 0 0 0 0 0 0 0 0;
#X obj 339 366 s LEDstrip1;
#X obj 323 395 s LEDstrip2;
#X connect 0 0 1 0;
#X connect 1 0 2 0;
#X connect 1 1 3 0;
#X connect 1 2 4 0;
#X connect 1 3 5 0;
#X connect 1 4 6 0;
#X connect 1 5 7 0;
#X connect 1 6 8 0;
#X connect 1 7 9 0;
#X connect 1 8 10 0;
#X connect 1 9 12 0;
#X connect 1 10 11 0;
#X connect 1 11 15 0;
#X connect 2 0 13 0;
#X connect 2 0 14 0;
#X connect 3 0 13 0;
#X connect 3 0 14 0;
#X connect 4 0 13 0;
#X connect 4 0 14 0;
#X connect 5 0 13 0;
#X connect 5 0 14 0;
#X connect 6 0 13 0;
#X connect 6 0 14 0;
#X connect 7 0 13 0;
#X connect 7 0 14 0;
#X connect 8 0 13 0;
#X connect 8 0 14 0;
#X connect 9 0 13 0;
#X connect 9 0 14 0;
#X connect 10 0 13 0;
#X connect 10 0 14 0;
#X connect 11 0 13 0;
#X connect 11 0 14 0;
#X connect 12 0 13 0;
#X connect 12 0 14 0;
#X connect 15 0 13 0;
#X connect 15 0 14 0;
#X connect 16 0 18 0;
#X connect 18 0 19 0;
#X connect 18 0 20 0;
#X restore 907 842 pd handleLED;
#X text 904 816 The LED chase;
#X obj 354 903 array get kickSequence;
#X floatatom 428 875 5 0 0 0 - - - 0;
#X obj 353 874 bng 19 250 50 0 empty empty empty 0 -10 0 12 #fcfcfc #000000 #000000;
#X obj 355 932 list prepend kick;
#X obj 355 961 list trim;
#X obj 332 846 r sendKickSequence;
#X obj 251 539 s sendKickSequence;
#X text 328 822 Send network sequences;
#X floatatom 638 875 5 0 0 0 - - - 0;
#X obj 563 874 bng 19 250 50 0 empty empty empty 0 -10 0 12 #fcfcfc #000000 #000000;
#X obj 565 961 list trim;
#X text 538 822 Send network sequences;
#X obj 542 846 r sendSnareSequence;
#X obj 564 903 array get snareSequence;
#X obj 565 932 list prepend snare;
#X obj 355 990 s seq_message \$1;
#X obj 565 990 s seq_message \$1;
#X obj 692 537 s sendSnareSequence;
#X obj 1544 356 s reset_counter;
#X text 1142 891 The missing components are: Identifying *just* the performer's instruments;
#X obj 1156 828 throw~ mono-drums;
#X connect 0 0 163 0;
#X connect 1 0 162 0;
#X connect 2 0 18 0;
#X connect 3 0 18 0;
#X connect 4 0 163 0;
#X connect 5 0 162 0;
#X connect 9 0 12 0;
#X connect 11 0 12 0;
#X connect 12 0 8 0;
#X connect 18 0 153 0;
#X connect 18 1 152 0;
#X connect 19 0 37 0;
#X connect 20 0 19 1;
#X connect 20 0 29 0;
#X connect 22 0 146 0;
#X connect 24 0 19 2;
#X connect 26 0 146 0;
#X connect 27 0 19 0;
#X connect 27 0 33 0;
#X connect 29 0 19 3;
#X connect 29 0 151 0;
#X connect 29 0 222 0;
#X connect 31 0 146 0;
#X connect 32 0 146 0;
#X connect 34 0 35 0;
#X connect 35 0 20 0;
#X connect 35 1 24 0;
#X connect 35 2 27 0;
#X connect 37 0 38 0;
#X connect 39 0 40 0;
#X connect 39 0 181 0;
#X connect 40 0 68 0;
#X connect 41 0 43 1;
#X connect 42 0 49 0;
#X connect 43 0 42 0;
#X connect 44 0 45 0;
#X connect 44 0 186 0;
#X connect 45 0 62 0;
#X connect 47 0 48 0;
#X connect 48 0 160 0;
#X connect 51 0 224 0;
#X connect 52 0 51 0;
#X connect 53 0 160 0;
#X connect 54 0 53 0;
#X connect 55 0 56 0;
#X connect 55 0 187 0;
#X connect 56 0 75 0;
#X connect 59 0 61 1;
#X connect 60 0 63 0;
#X connect 61 0 60 0;
#X connect 62 0 59 0;
#X connect 64 0 66 1;
#X connect 65 0 67 0;
#X connect 66 0 65 0;
#X connect 68 0 41 0;
#X connect 69 0 74 0;
#X connect 70 0 71 0;
#X connect 72 0 73 0;
#X connect 75 0 64 0;
#X connect 82 0 84 1;
#X connect 83 0 84 0;
#X connect 84 0 96 0;
#X connect 85 0 83 0;
#X connect 89 0 91 1;
#X connect 90 0 91 0;
#X connect 91 0 97 0;
#X connect 92 0 95 1;
#X connect 93 0 95 0;
#X connect 94 0 93 0;
#X connect 99 0 90 0;
#X connect 100 0 104 0;
#X connect 101 0 100 0;
#X connect 102 0 106 0;
#X connect 103 0 143 0;
#X connect 104 0 103 0;
#X connect 106 0 104 1;
#X connect 107 0 111 0;
#X connect 108 0 112 0;
#X connect 109 0 142 0;
#X connect 110 0 109 0;
#X connect 111 0 110 0;
#X connect 112 0 110 1;
#X connect 115 0 119 0;
#X connect 116 0 120 0;
#X connect 117 0 144 0;
#X connect 118 0 117 0;
#X connect 119 0 118 0;
#X connect 120 0 118 1;
#X connect 121 0 119 1;
#X connect 121 0 120 1;
#X connect 122 0 100 1;
#X connect 122 0 106 1;
#X connect 123 0 111 1;
#X connect 123 0 112 1;
#X connect 124 0 100 0;
#X connect 124 1 106 0;
#X connect 125 0 119 0;
#X connect 125 1 120 0;
#X connect 126 0 111 0;
#X connect 126 1 112 0;
#X connect 128 0 127 0;
#X connect 130 0 129 0;
#X connect 132 0 133 0;
#X connect 135 0 134 0;
#X connect 137 0 136 0;
#X connect 138 0 139 0;
#X connect 140 0 124 0;
#X connect 141 0 126 0;
#X connect 142 0 130 0;
#X connect 143 0 128 0;
#X connect 143 1 221 0;
#X connect 144 0 132 0;
#X connect 144 1 210 0;
#X connect 145 0 146 0;
#X connect 146 0 149 0;
#X connect 147 0 149 1;
#X connect 148 0 149 2;
#X connect 149 0 19 4;
#X connect 149 0 20 0;
#X connect 150 0 146 0;
#X connect 151 0 37 0;
#X connect 154 0 27 0;
#X connect 155 0 20 0;
#X connect 156 0 158 0;
#X connect 158 0 157 0;
#X connect 159 0 73 0;
#X connect 160 0 224 0;
#X connect 161 0 157 0;
#X connect 162 0 165 0;
#X connect 162 0 190 0;
#X connect 163 0 164 0;
#X connect 163 0 191 0;
#X connect 166 0 168 1;
#X connect 167 0 176 0;
#X connect 170 0 169 1;
#X connect 172 0 174 0;
#X connect 173 0 169 0;
#X connect 173 0 171 0;
#X connect 174 0 173 0;
#X connect 174 1 173 1;
#X connect 175 0 168 0;
#X connect 175 0 177 0;
#X connect 176 0 175 0;
#X connect 176 1 175 1;
#X connect 178 0 125 0;
#X connect 179 0 71 0;
#X connect 180 0 74 0;
#X connect 181 0 43 0;
#X connect 181 1 43 0;
#X connect 181 1 200 0;
#X connect 181 2 43 0;
#X connect 181 3 43 0;
#X connect 181 4 43 0;
#X connect 181 5 43 0;
#X connect 181 6 43 0;
#X connect 181 7 43 0;
#X connect 181 8 43 0;
#X connect 181 9 43 0;
#X connect 181 10 43 0;
#X connect 181 11 43 0;
#X connect 181 11 81 0;
#X connect 181 11 86 0;
#X connect 181 12 80 0;
#X connect 186 0 61 0;
#X connect 186 1 61 0;
#X connect 186 2 61 0;
#X connect 186 3 61 0;
#X connect 186 4 61 0;
#X connect 186 5 61 0;
#X connect 186 6 61 0;
#X connect 186 7 61 0;
#X connect 186 8 61 0;
#X connect 186 9 61 0;
#X connect 186 10 61 0;
#X connect 186 11 61 0;
#X connect 186 11 79 0;
#X connect 186 11 87 0;
#X connect 186 12 78 0;
#X connect 187 0 66 0;
#X connect 187 1 66 0;
#X connect 187 2 66 0;
#X connect 187 3 66 0;
#X connect 187 4 66 0;
#X connect 187 5 66 0;
#X connect 187 6 66 0;
#X connect 187 7 66 0;
#X connect 187 8 66 0;
#X connect 187 9 66 0;
#X connect 187 10 66 0;
#X connect 187 11 66 0;
#X connect 187 11 77 0;
#X connect 187 11 88 0;
#X connect 187 12 76 0;
#X connect 192 0 194 0;
#X connect 192 1 197 0;
#X connect 192 2 199 0;
#X connect 193 0 192 0;
#X connect 195 0 194 1;
#X connect 196 0 197 1;
#X connect 198 0 199 1;
#X connect 204 0 207 0;
#X connect 205 0 204 1;
#X connect 206 0 204 0;
#X connect 207 0 208 0;
#X connect 208 0 219 0;
#X connect 209 0 204 0;
#X connect 212 0 217 1;
#X connect 213 0 217 0;
#X connect 214 0 220 0;
#X connect 216 0 217 0;
#X connect 217 0 218 0;
#X connect 218 0 214 0;
