#N canvas 0 23 1280 755 12;
#X obj 605 -36 inlet;
#X obj 722 -34 inlet;
#X obj 649 -34 tgl 19 0 empty empty empty 0 -10 0 12 #fcfcfc #000000 #000000 0 1;
#X obj 769 -34 tgl 19 0 empty empty empty 0 -10 0 12 #fcfcfc #000000 #000000 0 1;
#X obj 829 -30 inlet;
#X text 836 -20 instrument num;
#X obj 830 5 sel 0 1 2 3;
#X msg 875 30 2;
#X msg 828 31 1;
#X obj 949 -31 inlet;
#X text 960 -2 mode enable;
#X obj 243 316 s LEDaction1;
#X obj 405 313 s LEDaction2;
#X obj 1184 655 s LEDreset;
#X obj 1183 622 t b;
#X obj 510 591 + 60;
#X obj 510 565 gate 2 1;
#X obj 586 127 sel 1 0;
#X obj 726 127 sel 1 0;
#X msg 737 256 stop;
#X obj 509 649 pack;
#X obj 633 173 t b b;
#X obj 748 182 t b b;
#X obj 509 624 makenote 80 4000;
#X obj 303 -25 inlet;
#X obj 348 -24 tgl 19 0 empty empty empty 0 -10 0 12 #fcfcfc #000000 #000000 0 1;
#X obj 240 239 &&;
#X obj 489 33 + 1;
#X text 374 -23 play;
#X obj 359 113 tgl 19 0 empty empty empty 0 -10 0 12 #fcfcfc #000000 #000000 0 1;
#X msg 358 81 1;
#X msg 431 126 0;
#X obj 234 126 gate 2 1;
#X msg 83 296 1;
#X floatatom 119 343 5 0 0 0 - - - 0;
#X obj 435 200 t a a;
#X obj 303 33 sel 1 0;
#X obj 303 1 t a a a;
#X obj 951 124 switch~;
#X obj 951 59 == 1;
#X obj 84 342 % 8;
#X obj 373 49 t b b;
#X obj 400 102 t b b;
#X obj 269 211 t a a;
#X obj 82 273 sel 1;
#X msg 118 320 -1;
#X obj 272 523 makenote 80 4000;
#X obj 141 505 i;
#X obj 241 285 sel 1;
#X obj 241 262 change;
#X obj 301 243 sel 0;
#X msg 303 269 stop;
#X obj 393 200 t b a;
#X obj 226 211 t b a;
#X obj 407 283 sel 1;
#X obj 407 259 change;
#X obj 464 231 sel 0;
#X msg 464 255 stop;
#X obj 271 546 pack;
#X obj 130 374 gate 2 1;
#N canvas 153 77 1127 701 ledstrip2 0;
#X obj 81 32 inlet;
#X obj 691 658 outlet;
#X obj 105 654 outlet;
#X obj 570 40 inlet;
#X obj 333 647 outlet;
#X obj 131 65 tgl 19 0 empty empty empty 0 -10 0 12 #fcfcfc #000000 #000000 0 1;
#X obj 81 64 t a a;
#X obj 130 131 tgl 19 0 empty empty empty 0 -10 0 12 #fcfcfc #000000 #000000 0 1;
#X obj 80 130 t a a;
#X obj 131 198 tgl 19 0 empty empty empty 0 -10 0 12 #fcfcfc #000000 #000000 0 1;
#X obj 81 197 t a a;
#X obj 131 318 tgl 19 0 empty empty empty 0 -10 0 12 #fcfcfc #000000 #000000 0 1;
#X obj 81 317 t a a;
#X obj 130 384 tgl 19 0 empty empty empty 0 -10 0 12 #fcfcfc #000000 #000000 0 1;
#X obj 80 383 t a a;
#X obj 295 92 tgl 19 0 empty empty empty 0 -10 0 12 #fcfcfc #000000 #000000 0 1;
#X obj 245 91 t a a;
#X obj 296 161 tgl 19 0 empty empty empty 0 -10 0 12 #fcfcfc #000000 #000000 0 1;
#X obj 246 160 t a a;
#X obj 296 228 tgl 19 0 empty empty empty 0 -10 0 12 #fcfcfc #000000 #000000 0 1;
#X obj 246 227 t a a;
#X obj 295 294 tgl 19 0 empty empty empty 0 -10 0 12 #fcfcfc #000000 #000000 0 1;
#X obj 245 293 t a a;
#X obj 296 361 tgl 19 0 empty empty empty 0 -10 0 12 #fcfcfc #000000 #000000 0 1;
#X obj 246 360 t a a;
#X obj 232 602 tgl 19 0 empty empty empty 0 -10 0 12 #fcfcfc #000000 #000000 0 1;
#X obj 248 499 t a b a;
#X obj 130 257 tgl 19 0 empty empty empty 0 -10 0 12 #fcfcfc #000000 #000000 0 1;
#X obj 80 256 t a a;
#X msg 573 112 clear;
#X obj 275 537 ||;
#X obj 247 418 route 0;
#X msg 248 472 0;
#X obj 572 78 t b b;
#X msg 533 73 0;
#X msg 635 112 0 0 0 0 0 0 0 0 0 0 0 0;
#X obj 655 625 pak 0 0 0 0 0 0 0 0 0 0 0 0, f 49;
#X obj 133 32 tgl 19 0 empty empty empty 0 -10 0 12 #fcfcfc #000000 #000000 0 1;
#X obj 141 531 sel 1;
#X msg 140 561 1;
#X obj 83 95 pipe 100;
#X obj 80 161 pipe 100;
#X obj 81 228 pipe 100;
#X obj 80 287 pipe 100;
#X obj 81 348 pipe 100;
#X obj 246 66 pipe 100;
#X obj 245 122 pipe 100;
#X obj 246 191 pipe 100;
#X obj 246 258 pipe 100;
#X obj 245 325 pipe 100;
#X obj 246 391 pipe 100;
#X obj 247 447 delay 200;
#X connect 0 0 6 0;
#X connect 3 0 33 0;
#X connect 6 0 40 0;
#X connect 6 1 5 0;
#X connect 6 1 36 0;
#X connect 8 0 41 0;
#X connect 8 1 7 0;
#X connect 8 1 36 1;
#X connect 10 0 42 0;
#X connect 10 1 9 0;
#X connect 10 1 36 2;
#X connect 12 0 44 0;
#X connect 12 1 11 0;
#X connect 12 1 36 4;
#X connect 14 0 45 0;
#X connect 14 1 13 0;
#X connect 14 1 36 5;
#X connect 16 0 46 0;
#X connect 16 0 38 0;
#X connect 16 1 15 0;
#X connect 16 1 36 6;
#X connect 18 0 47 0;
#X connect 18 1 17 0;
#X connect 18 1 36 7;
#X connect 20 0 48 0;
#X connect 20 1 19 0;
#X connect 20 1 36 8;
#X connect 22 0 49 0;
#X connect 22 1 21 0;
#X connect 22 1 36 9;
#X connect 24 0 50 0;
#X connect 24 1 23 0;
#X connect 24 1 30 0;
#X connect 24 1 36 10;
#X connect 25 0 4 0;
#X connect 26 0 2 0;
#X connect 26 1 30 0;
#X connect 26 2 30 1;
#X connect 26 2 36 11;
#X connect 28 0 43 0;
#X connect 28 1 27 0;
#X connect 28 1 36 3;
#X connect 29 0 40 0;
#X connect 29 0 41 0;
#X connect 29 0 42 0;
#X connect 29 0 43 0;
#X connect 29 0 44 0;
#X connect 29 0 45 0;
#X connect 29 0 46 0;
#X connect 29 0 47 0;
#X connect 29 0 48 0;
#X connect 29 0 49 0;
#X connect 29 0 50 0;
#X connect 31 0 51 0;
#X connect 31 1 26 0;
#X connect 32 0 26 0;
#X connect 32 0 25 0;
#X connect 33 0 35 0;
#X connect 33 0 34 0;
#X connect 33 1 29 0;
#X connect 35 0 1 0;
#X connect 36 0 1 0;
#X connect 37 0 6 0;
#X connect 38 0 39 0;
#X connect 39 0 25 0;
#X connect 40 0 8 0;
#X connect 41 0 10 0;
#X connect 42 0 28 0;
#X connect 43 0 12 0;
#X connect 44 0 14 0;
#X connect 45 0 16 0;
#X connect 46 0 18 0;
#X connect 47 0 20 0;
#X connect 48 0 22 0;
#X connect 49 0 24 0;
#X connect 50 0 31 0;
#X connect 51 0 32 0;
#X restore 336 171 pd ledstrip2;
#N canvas 153 44 1127 701 ledstrip1 0;
#X obj 81 32 inlet;
#X obj 639 659 outlet;
#X obj 78 651 outlet;
#X obj 572 42 inlet;
#X obj 280 650 outlet;
#X obj 132 32 tgl 19 0 empty empty empty 0 -10 0 12 #fcfcfc #000000 #000000 0 1;
#X obj 131 65 tgl 19 0 empty empty empty 0 -10 0 12 #fcfcfc #000000 #000000 0 1;
#X obj 81 64 t a a;
#X obj 130 131 tgl 19 0 empty empty empty 0 -10 0 12 #fcfcfc #000000 #000000 0 1;
#X obj 80 130 t a a;
#X obj 131 198 tgl 19 0 empty empty empty 0 -10 0 12 #fcfcfc #000000 #000000 0 1;
#X obj 81 197 t a a;
#X obj 131 318 tgl 19 0 empty empty empty 0 -10 0 12 #fcfcfc #000000 #000000 0 1;
#X obj 81 317 t a a;
#X obj 130 384 tgl 19 0 empty empty empty 0 -10 0 12 #fcfcfc #000000 #000000 0 1;
#X obj 80 383 t a a;
#X obj 295 92 tgl 19 0 empty empty empty 0 -10 0 12 #fcfcfc #000000 #000000 0 1;
#X obj 245 91 t a a;
#X obj 296 161 tgl 19 0 empty empty empty 0 -10 0 12 #fcfcfc #000000 #000000 0 1;
#X obj 246 160 t a a;
#X obj 296 228 tgl 19 0 empty empty empty 0 -10 0 12 #fcfcfc #000000 #000000 0 1;
#X obj 246 227 t a a;
#X obj 295 294 tgl 19 0 empty empty empty 0 -10 0 12 #fcfcfc #000000 #000000 0 1;
#X obj 245 293 t a a;
#X obj 296 361 tgl 19 0 empty empty empty 0 -10 0 12 #fcfcfc #000000 #000000 0 1;
#X obj 246 360 t a a;
#X obj 269 603 tgl 19 0 empty empty empty 0 -10 0 12 #fcfcfc #000000 #000000 0 1;
#X obj 248 499 t a b a;
#X obj 130 257 tgl 19 0 empty empty empty 0 -10 0 12 #fcfcfc #000000 #000000 0 1;
#X obj 80 256 t a a;
#X msg 573 112 clear;
#X obj 275 537 ||;
#X obj 247 418 route 0;
#X msg 248 472 0;
#X obj 572 78 t b b;
#X msg 533 73 0;
#X msg 635 112 0 0 0 0 0 0 0 0 0 0 0 0;
#X obj 655 625 pak 0 0 0 0 0 0 0 0 0 0 0 0, f 49;
#X msg 173 500 1;
#X obj 160 473 sel 1;
#X obj 81 95 pipe 100;
#X obj 80 161 pipe 100;
#X obj 81 228 pipe 100;
#X obj 80 287 pipe 100;
#X obj 81 348 pipe 100;
#X obj 246 66 pipe 100;
#X obj 245 122 pipe 100;
#X obj 246 191 pipe 100;
#X obj 246 258 pipe 100;
#X obj 245 324 pipe 100;
#X obj 246 391 pipe 100;
#X obj 247 448 delay 200;
#X connect 0 0 7 0;
#X connect 3 0 34 0;
#X connect 5 0 7 0;
#X connect 7 0 40 0;
#X connect 7 1 6 0;
#X connect 7 1 37 0;
#X connect 9 0 41 0;
#X connect 9 1 8 0;
#X connect 9 1 37 1;
#X connect 11 0 42 0;
#X connect 11 1 10 0;
#X connect 11 1 37 2;
#X connect 13 0 44 0;
#X connect 13 1 12 0;
#X connect 13 1 37 4;
#X connect 15 0 45 0;
#X connect 15 1 14 0;
#X connect 15 1 37 5;
#X connect 17 0 46 0;
#X connect 17 0 39 0;
#X connect 17 1 16 0;
#X connect 17 1 37 6;
#X connect 19 0 47 0;
#X connect 19 1 18 0;
#X connect 19 1 37 7;
#X connect 21 0 48 0;
#X connect 21 1 20 0;
#X connect 21 1 37 8;
#X connect 23 0 49 0;
#X connect 23 1 22 0;
#X connect 23 1 37 9;
#X connect 25 0 50 0;
#X connect 25 1 24 0;
#X connect 25 1 31 0;
#X connect 25 1 37 10;
#X connect 26 0 4 0;
#X connect 27 0 2 0;
#X connect 27 1 31 0;
#X connect 27 2 31 1;
#X connect 27 2 37 11;
#X connect 29 0 43 0;
#X connect 29 1 28 0;
#X connect 29 1 37 3;
#X connect 30 0 40 0;
#X connect 30 0 41 0;
#X connect 30 0 42 0;
#X connect 30 0 43 0;
#X connect 30 0 44 0;
#X connect 30 0 45 0;
#X connect 30 0 46 0;
#X connect 30 0 47 0;
#X connect 30 0 48 0;
#X connect 30 0 49 0;
#X connect 30 0 50 0;
#X connect 32 0 51 0;
#X connect 32 1 27 0;
#X connect 33 0 27 0;
#X connect 33 0 26 0;
#X connect 34 0 36 0;
#X connect 34 0 35 0;
#X connect 34 1 30 0;
#X connect 35 0 7 0;
#X connect 36 0 1 0;
#X connect 37 0 1 0;
#X connect 38 0 26 0;
#X connect 39 0 38 0;
#X connect 40 0 9 0;
#X connect 41 0 11 0;
#X connect 42 0 29 0;
#X connect 43 0 13 0;
#X connect 44 0 15 0;
#X connect 45 0 17 0;
#X connect 46 0 19 0;
#X connect 47 0 21 0;
#X connect 48 0 23 0;
#X connect 49 0 25 0;
#X connect 50 0 32 0;
#X connect 51 0 33 0;
#X restore 187 172 pd ledstrip1;
#X obj 374 27 metro 1500;
#X msg 200 123 2;
#X msg 202 101 1;
#X msg 437 371 1 1 1 1 1 1 1 1 1 1 1 1;
#X msg 455 394 0 0 0 0 0 0 0 0 0 0 0 0;
#X msg 696 370 1 1 1 1 1 1 1 1 1 1 1 1;
#X msg 725 393 0 0 0 0 0 0 0 0 0 0 0 0;
#X obj 156 121 t a a;
#X obj 304 126 t a a;
#X obj 155 146 sel 0;
#X obj 304 149 sel 0;
#X obj 370 254 tgl 19 0 empty empty empty 0 -10 0 12 #fcfcfc #000000 #000000 0 1;
#X obj 365 228 tgl 19 0 empty empty empty 0 -10 0 12 #fcfcfc #000000 #000000 0 1;
#X obj 406 235 &&;
#X obj 399 81 del 300;
#X msg 966 27 1;
#X obj 367 707 outlet;
#N canvas 47 74 995 502 muteMidi 0;
#X obj 88 197 pack 55 0;
#X text 165 173 mute!;
#X obj 89 171 uzi 127 0;
#X obj 89 148 t b;
#X obj 90 35 inlet;
#X obj 90 58 t b;
#X obj 88 226 outlet midinotes;
#X obj 193 58 t b;
#X obj 192 31 inlet;
#X obj 225 81 del 100;
#X obj 247 106 del 100;
#X connect 0 0 6 0;
#X connect 2 2 0 0;
#X connect 3 0 2 0;
#X connect 4 0 5 0;
#X connect 5 0 3 0;
#X connect 7 0 3 0;
#X connect 7 0 9 0;
#X connect 8 0 7 0;
#X connect 9 0 3 0;
#X connect 9 0 10 0;
#X connect 10 0 3 0;
#X restore 638 257 pd muteMidi;
#N canvas 68 97 1167 638 cello_notes 0;
#X obj 59 258 sel 0 1 2 3 4 5 6 7;
#X obj 62 363 outlet;
#X obj 57 217 inlet;
#X msg 92 296 50;
#X msg 131 297 52;
#X msg 162 297 53;
#X msg 198 296 55;
#X msg 236 296 57;
#X msg 276 297 59;
#X msg 310 298 60;
#X msg 55 295 49;
#X connect 0 0 10 0;
#X connect 0 1 3 0;
#X connect 0 2 4 0;
#X connect 0 3 5 0;
#X connect 0 4 6 0;
#X connect 0 5 7 0;
#X connect 0 6 8 0;
#X connect 0 7 9 0;
#X connect 2 0 0 0;
#X connect 3 0 1 0;
#X connect 4 0 1 0;
#X connect 5 0 1 0;
#X connect 6 0 1 0;
#X connect 7 0 1 0;
#X connect 8 0 1 0;
#X connect 9 0 1 0;
#X connect 10 0 1 0;
#X restore 197 427 pd cello_notes;
#N canvas 89 120 1077 658 violin_notes 0;
#X msg 55 107 60;
#X msg 131 109 64;
#X msg 198 108 67;
#X msg 276 109 71;
#X msg 236 108 69;
#X msg 310 110 72;
#X msg 92 108 62;
#X msg 162 109 65;
#X obj 168 68 sel 0 1 2 3 4 5 6 7;
#X obj 116 238 outlet;
#X obj 164 24 inlet;
#X connect 0 0 9 0;
#X connect 1 0 9 0;
#X connect 2 0 9 0;
#X connect 3 0 9 0;
#X connect 4 0 9 0;
#X connect 5 0 9 0;
#X connect 6 0 9 0;
#X connect 7 0 9 0;
#X connect 8 0 0 0;
#X connect 8 1 6 0;
#X connect 8 2 1 0;
#X connect 8 3 7 0;
#X connect 8 4 2 0;
#X connect 8 5 4 0;
#X connect 8 6 3 0;
#X connect 8 7 5 0;
#X connect 10 0 8 0;
#X restore 78 428 pd violin_notes;
#X obj 83 318 + -1;
#X obj 868 79 t a;
#X obj 78 374 change;
#X obj 62 398 t b;
#X obj 322 354 t b;
#X obj 564 591 + 50;
#X obj 427 537 s LEDstrip1;
#X obj 694 533 s LEDstrip2;
#X obj 695 484 LED_color;
#X obj 427 485 LED_color;
#X msg 754 444 0 0.5 1;
#X msg 485 456 0.8 1 0;
#X obj 575 442 loadbang;
#X obj 504 -19 loadbang;
#X msg 505 4 0;
#X obj 648 572 == 0;
#X obj 648 599 sel 1;
#X floatatom 648 516 5 0 0 0 - - - 0;
#X obj 563 523 t a b;
#X msg 597 564 stop;
#X obj 648 548 % 4, f 4;
#X obj 564 481 random 15;
#X obj 647 623 del 300;
#X text 964 235 A;
#X text 1217 224 G;
#X obj 703 78 gate 3 1;
#X obj 556 69 gate 3 1;
#X obj 1144 216 gate 2 1;
#X obj 1104 252 sel 1 0;
#X obj 1182 250 sel 1 0;
#X obj 901 232 gate 2 1;
#X obj 975 261 sel 1 0;
#X obj 880 260 sel 1 0;
#X obj 1051 410 t a;
#X obj 1116 -26 inlet;
#X obj 1117 25 sel 1 0;
#X obj 1139 0 tgl 19 0 empty empty empty 0 -10 0 12 #fcfcfc #000000 #000000 0 1;
#X msg 1078 77 3;
#X obj 490 55 i 1;
#X obj 1094 52 t b b;
#X msg 1115 77 0;
#X obj 490 85 change;
#X obj 491 108 t b;
#X obj 1173 -26 inlet;
#X obj 1181 23 t a;
#X obj 1221 -25 inlet;
#X obj 1225 23 t a;
#X obj 1026 439 sel 0 1;
#X obj 823 440 sel 0 1;
#X obj 1195 -6 tgl 19 0 empty empty empty 0 -10 0 12 #fcfcfc #000000 #000000 0 1;
#X obj 1234 -1 tgl 19 0 empty empty empty 0 -10 0 12 #fcfcfc #000000 #000000 0 1;
#X msg 320 484 stop;
#N canvas 47 74 995 502 muteMidi 0;
#X obj 88 197 pack 55 0;
#X text 165 173 mute!;
#X obj 89 171 uzi 127 0;
#X obj 89 148 t b;
#X obj 90 35 inlet;
#X obj 90 58 t b;
#X obj 88 226 outlet midinotes;
#X obj 193 58 t b;
#X obj 192 31 inlet;
#X obj 225 81 del 100;
#X obj 247 106 del 100;
#X connect 0 0 6 0;
#X connect 2 2 0 0;
#X connect 3 0 2 0;
#X connect 4 0 5 0;
#X connect 5 0 3 0;
#X connect 7 0 3 0;
#X connect 7 0 9 0;
#X connect 8 0 7 0;
#X connect 9 0 3 0;
#X connect 9 0 10 0;
#X connect 10 0 3 0;
#X restore 354 588 pd muteMidi;
#X obj 981 647 LED_color_fade;
#X obj 1086 588 i;
#X obj 1086 612 change;
#X msg 996 483 0 1000;
#X obj 1085 566 line;
#X obj 822 645 LED_color_fade;
#X obj 927 586 i;
#X obj 927 610 change;
#X msg 814 477 0 1000;
#X obj 926 564 line;
#X msg 656 417 stop;
#X msg 707 606 stop;
#X obj 1071 228 tgl 19 0 empty empty empty 0 -10 0 12 #fcfcfc #000000 #000000 0 1;
#X obj 844 226 tgl 19 0 empty empty empty 0 -10 0 12 #fcfcfc #000000 #000000 0 1;
#X msg 1082 307 67 120;
#X msg 1139 280 67 0;
#X msg 1186 307 55 120;
#X msg 1231 281 55 0;
#X msg 873 311 69 120;
#X msg 926 288 69 0;
#X msg 969 324 57 120;
#X msg 1017 290 57 0;
#X obj 1100 703 outlet vol;
#X obj 1179 458 line;
#X obj 1093 280 t a b;
#X obj 1184 279 t a b;
#X obj 876 286 t a b;
#X obj 972 293 t a b;
#X msg 819 513 80 1000;
#X msg 1050 483 80 1000;
#X msg 1105 457 255 2000;
#X msg 1113 489 80 500;
#X msg 883 482 255 2000;
#X msg 890 507 80 500;
#X msg 1177 430 0.1 \, 1 2000;
#X obj 1196 180 spigot;
#X obj 952 204 spigot;
#X obj 721 31 t a;
#X obj 593 34 t a;
#X connect 0 0 173 0;
#X connect 1 0 172 0;
#X connect 2 0 173 0;
#X connect 3 0 172 0;
#X connect 4 0 6 0;
#X connect 6 0 8 0;
#X connect 6 1 8 0;
#X connect 6 2 8 0;
#X connect 6 3 7 0;
#X connect 7 0 83 0;
#X connect 8 0 83 0;
#X connect 9 0 39 0;
#X connect 14 0 13 0;
#X connect 15 0 23 0;
#X connect 16 0 15 0;
#X connect 16 1 87 0;
#X connect 17 0 65 0;
#X connect 17 0 103 0;
#X connect 17 1 66 0;
#X connect 17 1 21 0;
#X connect 17 1 133 0;
#X connect 17 1 145 0;
#X connect 17 1 146 0;
#X connect 18 0 67 0;
#X connect 18 0 103 0;
#X connect 18 1 68 0;
#X connect 18 1 22 0;
#X connect 18 1 133 0;
#X connect 18 1 145 0;
#X connect 18 1 146 0;
#X connect 19 0 23 0;
#X connect 20 0 78 0;
#X connect 21 0 79 0;
#X connect 21 1 19 0;
#X connect 22 0 79 0;
#X connect 22 1 19 0;
#X connect 23 0 20 0;
#X connect 23 1 20 1;
#X connect 24 0 37 0;
#X connect 25 0 37 0;
#X connect 26 0 11 0;
#X connect 26 0 49 0;
#X connect 27 0 120 0;
#X connect 29 0 32 1;
#X connect 30 0 29 0;
#X connect 30 0 44 0;
#X connect 31 0 29 0;
#X connect 32 0 69 0;
#X connect 32 1 70 0;
#X connect 33 0 82 0;
#X connect 35 0 75 0;
#X connect 35 1 56 0;
#X connect 36 1 45 0;
#X connect 36 1 61 1;
#X connect 36 1 60 1;
#X connect 36 1 64 0;
#X connect 36 1 79 1;
#X connect 37 0 36 0;
#X connect 37 1 62 0;
#X connect 37 2 27 0;
#X connect 39 0 38 0;
#X connect 39 0 107 0;
#X connect 39 0 108 0;
#X connect 40 0 34 0;
#X connect 40 0 59 1;
#X connect 40 0 82 1;
#X connect 41 0 76 0;
#X connect 41 1 30 0;
#X connect 42 1 31 0;
#X connect 43 0 26 0;
#X connect 43 1 50 0;
#X connect 44 0 33 0;
#X connect 45 0 82 1;
#X connect 46 0 58 0;
#X connect 46 1 58 1;
#X connect 47 0 46 0;
#X connect 48 0 86 0;
#X connect 49 0 48 0;
#X connect 50 0 51 0;
#X connect 51 0 46 0;
#X connect 52 0 75 0;
#X connect 52 1 75 1;
#X connect 52 1 74 0;
#X connect 53 0 26 0;
#X connect 53 1 26 1;
#X connect 54 0 86 0;
#X connect 55 0 54 0;
#X connect 56 0 57 0;
#X connect 57 0 46 0;
#X connect 58 0 78 0;
#X connect 59 0 81 0;
#X connect 59 1 80 0;
#X connect 60 1 52 0;
#X connect 60 2 90 0;
#X connect 61 1 53 0;
#X connect 61 2 91 0;
#X connect 62 0 41 0;
#X connect 63 0 32 0;
#X connect 64 0 32 0;
#X connect 65 0 91 0;
#X connect 66 0 91 0;
#X connect 67 0 90 0;
#X connect 68 0 90 0;
#X connect 69 0 71 0;
#X connect 69 1 61 0;
#X connect 70 0 72 0;
#X connect 70 1 60 0;
#X connect 71 0 63 0;
#X connect 72 0 64 0;
#X connect 75 0 12 0;
#X connect 75 0 55 0;
#X connect 75 0 73 0;
#X connect 76 0 42 0;
#X connect 77 0 39 0;
#X connect 79 0 78 0;
#X connect 80 0 47 1;
#X connect 81 0 47 1;
#X connect 82 0 40 0;
#X connect 83 0 84 0;
#X connect 83 0 16 0;
#X connect 83 0 109 0;
#X connect 83 0 112 0;
#X connect 84 0 59 0;
#X connect 84 0 85 0;
#X connect 85 0 45 0;
#X connect 86 0 47 0;
#X connect 87 0 23 0;
#X connect 90 0 89 0;
#X connect 91 0 88 0;
#X connect 92 0 135 1;
#X connect 92 0 90 1;
#X connect 93 0 140 1;
#X connect 93 0 91 1;
#X connect 94 0 93 0;
#X connect 94 0 92 0;
#X connect 95 0 96 0;
#X connect 96 0 172 0;
#X connect 96 0 173 0;
#X connect 97 0 98 0;
#X connect 98 0 104 0;
#X connect 100 0 16 1;
#X connect 100 1 101 0;
#X connect 101 0 23 0;
#X connect 102 0 97 0;
#X connect 103 0 99 0;
#X connect 103 0 100 0;
#X connect 103 0 102 0;
#X connect 104 0 103 0;
#X connect 107 0 18 0;
#X connect 107 1 35 0;
#X connect 107 2 170 0;
#X connect 108 0 17 0;
#X connect 108 1 43 0;
#X connect 108 2 171 0;
#X connect 109 0 110 0;
#X connect 109 1 111 0;
#X connect 110 0 159 0;
#X connect 110 1 150 0;
#X connect 110 1 166 0;
#X connect 111 0 160 0;
#X connect 111 1 152 0;
#X connect 111 1 166 0;
#X connect 112 0 114 0;
#X connect 112 1 113 0;
#X connect 113 0 162 0;
#X connect 113 1 156 0;
#X connect 113 1 168 0;
#X connect 114 0 161 0;
#X connect 114 1 154 0;
#X connect 114 1 168 0;
#X connect 115 0 78 0;
#X connect 116 0 117 0;
#X connect 117 0 121 0;
#X connect 117 1 120 0;
#X connect 118 0 117 0;
#X connect 119 0 108 0;
#X connect 119 0 107 0;
#X connect 120 0 108 0;
#X connect 120 0 107 0;
#X connect 120 0 123 0;
#X connect 121 0 119 0;
#X connect 121 1 122 0;
#X connect 122 0 37 0;
#X connect 123 0 124 0;
#X connect 124 0 133 0;
#X connect 124 0 14 0;
#X connect 124 0 134 0;
#X connect 125 0 126 0;
#X connect 126 0 129 0;
#X connect 126 0 170 1;
#X connect 127 0 128 0;
#X connect 128 0 130 0;
#X connect 128 0 171 1;
#X connect 129 0 138 0;
#X connect 129 1 164 0;
#X connect 130 0 143 0;
#X connect 130 1 163 0;
#X connect 131 0 126 0;
#X connect 133 0 46 0;
#X connect 134 0 78 0;
#X connect 135 0 89 0;
#X connect 136 0 137 0;
#X connect 137 0 135 2;
#X connect 138 0 139 0;
#X connect 139 0 136 0;
#X connect 140 0 88 0;
#X connect 141 0 142 0;
#X connect 142 0 140 2;
#X connect 143 0 144 0;
#X connect 144 0 141 0;
#X connect 145 0 23 0;
#X connect 146 0 104 0;
#X connect 147 0 110 0;
#X connect 148 0 114 0;
#X connect 149 0 115 0;
#X connect 150 0 115 0;
#X connect 151 0 115 0;
#X connect 152 0 115 0;
#X connect 153 0 115 0;
#X connect 154 0 115 0;
#X connect 155 0 115 0;
#X connect 156 0 115 0;
#X connect 158 0 157 0;
#X connect 159 0 149 0;
#X connect 159 1 169 0;
#X connect 159 1 165 0;
#X connect 160 0 151 0;
#X connect 160 1 169 0;
#X connect 160 1 165 0;
#X connect 161 0 153 0;
#X connect 161 1 169 0;
#X connect 161 1 167 0;
#X connect 162 0 155 0;
#X connect 162 1 169 0;
#X connect 162 1 167 0;
#X connect 163 0 144 0;
#X connect 164 0 139 0;
#X connect 165 0 139 0;
#X connect 166 0 139 0;
#X connect 167 0 144 0;
#X connect 168 0 144 0;
#X connect 169 0 158 0;
#X connect 170 0 109 1;
#X connect 171 0 112 1;
#X connect 172 0 107 1;
#X connect 173 0 108 1;
