#N canvas 183 23 1097 755 12;
#X obj 164 376 rcp.server;
#X msg 184 88 listen 10000;
#X obj 138 47 t b b b;
#X text 185 111 RCP is at port 10000;
#X obj 163 424 route update;
#X obj 163 401 list trim;
#X msg 163 205 expose f val1 @min 0 @max 1;
#X msg 175 231 expose f val2 @min 0 @max 1;
#X obj 160 488 s val1;
#X obj 205 512 s val2;
#X msg 228 289 expose t calib;
#X msg 246 314 expose t play;
#X msg 198 258 expose f volume @min 0 @max 1;
#X obj 254 488 s volume;
#X obj 294 536 s calib;
#X obj 339 501 s play;
#X msg 251 340 expose i inst;
#X obj 412 501 s inst;
#X text 318 18 RCP communicator;
#X msg 347 289 expose i mode;
#X msg 359 313 expose t debug;
#X obj 445 531 s mode;
#X obj 469 495 s debug;
#X obj 45 333 r message;
#X obj 51 8 r wifi_ready;
#X obj 148 6 loadbang;
#X msg 369 338 expose t takeover;
#X obj 537 497 s takeover;
#X msg 512 309 expose t st1;
#X msg 522 334 expose t st2;
#X obj 162 458 route val1 val2 volume calib play inst mode debug takeover st1 st2, f 81;
#X obj 632 505 s st1;
#X obj 685 506 s st2;
#X obj 625 537 print st1;
#X obj 154 145 t b b b b b b b b b b b;
#X connect 0 0 5 0;
#X connect 1 0 0 0;
#X connect 2 1 34 0;
#X connect 2 2 1 0;
#X connect 4 0 30 0;
#X connect 5 0 4 0;
#X connect 6 0 0 0;
#X connect 7 0 0 0;
#X connect 10 0 0 0;
#X connect 11 0 0 0;
#X connect 12 0 0 0;
#X connect 16 0 0 0;
#X connect 19 0 0 0;
#X connect 20 0 0 0;
#X connect 23 0 0 0;
#X connect 24 0 2 0;
#X connect 26 0 0 0;
#X connect 28 0 0 0;
#X connect 29 0 0 0;
#X connect 30 0 8 0;
#X connect 30 1 9 0;
#X connect 30 2 13 0;
#X connect 30 3 14 0;
#X connect 30 4 15 0;
#X connect 30 5 17 0;
#X connect 30 6 21 0;
#X connect 30 7 22 0;
#X connect 30 8 27 0;
#X connect 30 9 31 0;
#X connect 30 9 33 0;
#X connect 30 10 32 0;
#X connect 34 0 6 0;
#X connect 34 1 7 0;
#X connect 34 2 12 0;
#X connect 34 3 16 0;
#X connect 34 4 10 0;
#X connect 34 5 11 0;
#X connect 34 6 19 0;
#X connect 34 7 20 0;
#X connect 34 8 26 0;
#X connect 34 9 29 0;
#X connect 34 10 28 0;
