#N canvas 989 215 450 300 12;
#X obj 135 167 bng 19 250 50 0 empty empty empty 0 -10 0 12 #fcfcfc #000000 #000000;
#X text 132 145 stop;
#X obj 203 142 bng 19 250 50 0 empty empty empty 0 -10 0 12 #fcfcfc #000000 #000000;
#X text 200 121 amen;
#X obj 173 123 bng 19 250 50 0 empty empty empty 0 -10 0 12 #fcfcfc #000000 #000000;
#X text 125 101 kick loop;
#X obj 263 167 bng 19 250 50 0 empty empty empty 0 -10 0 12 #fcfcfc #000000 #000000;
#X text 261 147 start;
#X obj 245 122 bng 19 250 50 0 empty empty empty 0 -10 0 12 #fcfcfc #000000 #000000;
#X text 242 103 bass wobble;
#N canvas 885 380 872 530 sample 0;
#X obj 89 107 loadbang;
#N canvas 0 22 450 278 (subpatch) 0;
#X array loopData 352800 float 2;
#X coords 0 1 352800 -1 200 140 1;
#X restore 592 64 graph;
#X obj 149 213 soundfiler;
#X msg 149 170 read -resize 418632__realdavidfloat__bassline-c-120bpm-01.wav loopData;
#X obj 275 343 phasor~;
#X obj 275 430 *~;
#X obj 311 430 hsl 162 19 0 1 0 0 empty empty empty -2 -10 0 12 #fcfcfc #000000 #000000 0 1;
#X obj 263 459 dac~;
#X obj 339 285 bng 19 250 50 0 empty empty empty 0 -10 0 12 #fcfcfc #000000 #000000;
#X msg 338 343 0;
#X obj 275 372 *~;
#X msg 235 314 0;
#X floatatom 149 242 20 0 0 0 - - - 0;
#X obj 126 270 s length;
#X obj 310 256 r length;
#X obj 275 314 expr 44100 / $f1;
#X obj 275 401 tabread4~ loopData;
#X msg 219 141 read -resize amen-120bpm.wav loopData;
#X msg 160 88 read -resize 419046__realdavidfloat__kick-snare-loops-reverb-variations-120bpm.wav loopData, f 40;
#X obj 77 270 inlet;
#X obj 368 285 inlet;
#X obj 161 52 inlet;
#X obj 210 52 inlet;
#X obj 259 52 inlet;
#X msg 415 401 0.5;
#X obj 415 372 loadbang;
#X obj 485 372 inlet;
#X obj 89 136 t b b;
#X connect 0 0 27 0;
#X connect 2 0 12 0;
#X connect 2 0 13 0;
#X connect 3 0 2 0;
#X connect 4 0 10 0;
#X connect 5 0 7 0;
#X connect 5 0 7 1;
#X connect 6 0 5 1;
#X connect 8 0 9 0;
#X connect 8 0 15 0;
#X connect 9 0 4 1;
#X connect 10 0 16 0;
#X connect 11 0 4 0;
#X connect 14 0 15 0;
#X connect 14 0 10 1;
#X connect 15 0 4 0;
#X connect 16 0 5 0;
#X connect 17 0 2 0;
#X connect 18 0 2 0;
#X connect 19 0 11 0;
#X connect 20 0 8 0;
#X connect 21 0 18 0;
#X connect 22 0 17 0;
#X connect 23 0 3 0;
#X connect 24 0 6 0;
#X connect 25 0 24 0;
#X connect 26 0 24 0;
#X connect 27 0 11 0;
#X connect 27 1 3 0;
#X restore 164 196 pd sample;
#X obj 290 167 inlet;
#X obj 86 167 inlet;
#X obj 136 71 inlet;
#X obj 197 73 inlet;
#X obj 247 74 inlet;
#X obj 241 196 loadbang;
#X connect 0 0 10 0;
#X connect 2 0 10 2;
#X connect 4 0 10 1;
#X connect 6 0 10 4;
#X connect 8 0 10 3;
#X connect 11 0 10 4;
#X connect 12 0 10 0;
#X connect 13 0 10 1;
#X connect 14 0 10 2;
#X connect 15 0 10 3;
#X connect 16 0 10 5;
