#N canvas 468 42 812 704 12;
#X obj 173 346 *~ 1;
#X obj 99 535 outlet~;
#X obj 48 17 inlet;
#X msg 403 128 2000;
#X msg 470 128 500;
#X obj 444 24 inlet;
#X obj 453 63 sel 1 2;
#X msg 405 159 250;
#X msg 463 158 50;
#X msg 397 192 0.799;
#X msg 464 196 0.599;
#X obj 220 347 line;
#X msg 410 332 1 50;
#X obj 156 421 t a;
#X msg 331 449 predelay 0;
#X msg 334 523 decay 0.5;
#X msg 336 547 input_diffusion1 0.75;
#X msg 345 573 input_diffusion2 0.625;
#X msg 355 600 decay_diffusion1 0.7;
#X msg 364 626 decay_diffusion2 0.5;
#X msg 374 654 excursion 0.53761;
#X obj 388 400 loadbang;
#X msg 333 498 damping 1087;
#X msg 450 333 3 50;
#X msg 333 474 bandwidth 1000;
#X msg 459 471 bandwidth 300;
#X msg 457 523 decay 0.27;
#X msg 457 498 damping 305;
#N canvas 0 23 450 300 handle_polyphony 0;
#X obj 37 37 inlet;
#X obj 37 149 pack 0 0 0;
#X obj 38 120 - 1;
#X obj 37 170 outlet;
#X obj 38 78 poly 4 1;
#X connect 0 0 4 0;
#X connect 1 0 3 0;
#X connect 2 0 1 0;
#X connect 4 0 2 0;
#X connect 4 1 1 1;
#X connect 4 2 1 2;
#X restore 47 74 pd handle_polyphony;
#X obj 79 466 jon~;
#X obj 48 110 clone stringSynth.cl 4;
#X obj 113 158 r~ \$0-fb1;
#X obj 47 136 *~ 1;
#X obj 45 185 delwrite~ \$0-wg1 100;
#X obj 46 158 hip~ 250;
#X obj 218 39 sig~ 1;
#X obj 218 61 *~;
#X obj 219 133 vd~ \$0-wg1, f 12;
#X obj 220 229 s~ \$0-fb1;
#X obj 220 157 lop~ 2000;
#X obj 170 311 lop~ 1000;
#X obj 219 109 +~ 2;
#X obj 218 85 *~ 10;
#X obj 220 205 *~ 0.799;
#X obj 220 181 hip~ 250;
#X obj 169 283 hip~ 250;
#X obj 640 35 inlet;
#X text 651 64 mode enable;
#X obj 640 190 switch~;
#X msg 657 93 1;
#X obj 642 126 != 3;
#X connect 0 0 29 0;
#X connect 0 0 29 1;
#X connect 2 0 28 0;
#X connect 3 0 39 1;
#X connect 4 0 39 1;
#X connect 5 0 6 0;
#X connect 6 0 3 0;
#X connect 6 0 7 0;
#X connect 6 0 9 0;
#X connect 6 0 12 0;
#X connect 6 0 24 0;
#X connect 6 1 4 0;
#X connect 6 1 8 0;
#X connect 6 1 10 0;
#X connect 6 1 23 0;
#X connect 6 1 25 0;
#X connect 6 1 27 0;
#X connect 7 0 34 1;
#X connect 7 0 44 1;
#X connect 7 0 45 1;
#X connect 8 0 34 1;
#X connect 8 0 44 1;
#X connect 8 0 45 1;
#X connect 9 0 43 1;
#X connect 10 0 43 1;
#X connect 11 0 0 1;
#X connect 12 0 11 0;
#X connect 13 0 29 2;
#X connect 14 0 13 0;
#X connect 15 0 13 0;
#X connect 16 0 13 0;
#X connect 17 0 13 0;
#X connect 18 0 13 0;
#X connect 19 0 13 0;
#X connect 20 0 13 0;
#X connect 21 0 14 0;
#X connect 21 0 24 0;
#X connect 21 0 22 0;
#X connect 21 0 15 0;
#X connect 21 0 16 0;
#X connect 21 0 17 0;
#X connect 21 0 18 0;
#X connect 21 0 19 0;
#X connect 21 0 20 0;
#X connect 22 0 13 0;
#X connect 23 0 11 0;
#X connect 24 0 13 0;
#X connect 25 0 13 0;
#X connect 26 0 13 0;
#X connect 27 0 13 0;
#X connect 28 0 30 0;
#X connect 29 0 1 0;
#X connect 29 1 1 0;
#X connect 30 0 32 0;
#X connect 31 0 33 0;
#X connect 32 0 34 0;
#X connect 34 0 33 0;
#X connect 35 0 36 0;
#X connect 35 0 36 1;
#X connect 36 0 42 0;
#X connect 37 0 39 0;
#X connect 37 0 45 0;
#X connect 39 0 44 0;
#X connect 40 0 0 0;
#X connect 41 0 37 0;
#X connect 42 0 41 0;
#X connect 43 0 38 0;
#X connect 44 0 43 0;
#X connect 45 0 40 0;
#X connect 46 0 50 0;
#X connect 49 0 50 0;
#X connect 50 0 48 0;
