#N canvas 468 58 812 704 12;
#X obj 113 158 r~ \$0-fb1;
#X obj 47 136 *~ 1;
#X obj 218 39 sig~ 1;
#X obj 218 61 *~;
#X obj 219 133 vd~ \$0-wg1, f 12;
#X obj 220 229 s~ \$0-fb1;
#X obj 173 346 *~ 1;
#X obj 173 379 outlet~;
#X obj 48 17 inlet;
#X obj 220 157 lop~ 2000;
#X obj 170 311 lop~ 1000;
#X obj 219 109 +~ 2;
#X obj 218 85 *~ 10;
#X obj 220 205 *~ 0.799;
#X obj 45 185 delwrite~ \$0-wg1 100;
#X obj 220 181 hip~ 250;
#X obj 46 158 hip~ 250;
#X obj 169 283 hip~ 250;
#X obj 47 114 clone stringSynth.cl 8;
#X msg 403 128 2000;
#X msg 461 127 500;
#X obj 444 24 inlet;
#X obj 453 63 sel 1 2;
#X msg 405 159 250;
#X msg 463 158 50;
#X msg 397 192 0.799;
#X msg 464 196 0.599;
#X connect 0 0 14 0;
#X connect 1 0 16 0;
#X connect 2 0 3 0;
#X connect 2 0 3 1;
#X connect 3 0 12 0;
#X connect 4 0 9 0;
#X connect 4 0 17 0;
#X connect 6 0 7 0;
#X connect 8 0 18 0;
#X connect 9 0 15 0;
#X connect 10 0 6 0;
#X connect 11 0 4 0;
#X connect 12 0 11 0;
#X connect 13 0 5 0;
#X connect 15 0 13 0;
#X connect 16 0 14 0;
#X connect 17 0 10 0;
#X connect 18 0 1 0;
#X connect 19 0 9 1;
#X connect 20 0 9 1;
#X connect 21 0 22 0;
#X connect 22 0 19 0;
#X connect 22 0 23 0;
#X connect 22 0 25 0;
#X connect 22 1 20 0;
#X connect 22 1 24 0;
#X connect 22 1 26 0;
#X connect 23 0 15 1;
#X connect 23 0 17 1;
#X connect 23 0 16 1;
#X connect 24 0 15 1;
#X connect 24 0 17 1;
#X connect 24 0 16 1;
#X connect 25 0 13 1;
#X connect 26 0 13 1;
