#N canvas 279 125 562 501 12;
#X obj 225 372 zmq;
#X msg 115 124 socket subscribe;
#X obj 66 84 t b b b;
#X msg 282 341 close;
#X obj 89 185 symbol \$1;
#X msg 88 212 connect tcp://\$1;
#X obj 63 270 symbol \$2;
#X obj 64 295 list prepend subscribe;
#X obj 64 319 list trim;
#X obj 224 421 outlet;
#X obj 66 27 inlet;
#X obj 331 28 inlet close;
#X connect 0 0 9 0;
#X connect 1 0 0 0;
#X connect 2 0 6 0;
#X connect 2 1 4 0;
#X connect 2 2 1 0;
#X connect 3 0 0 0;
#X connect 4 0 5 0;
#X connect 5 0 0 0;
#X connect 6 0 7 0;
#X connect 7 0 8 0;
#X connect 8 0 0 0;
#X connect 10 0 2 0;
#X connect 11 0 3 0;
