#N canvas 559 23 721 642 12;
#X obj 32 271 route control;
#X obj 149 36 r wifi_ready;
#X obj 29 335 s val1;
#X obj 74 359 s val2;
#X obj 115 330 s volume;
#X obj 163 383 s calib;
#X obj 200 332 s play;
#X obj 244 384 s inst;
#X obj 287 338 s mode;
#X obj 330 249 print SUB;
#X obj 343 381 s debug;
#X msg 418 165 close;
#X obj 167 207 zmq;
#X msg 195 104 socket subscribe;
#X msg 168 129 connect tcp://192.168.0.100:5555;
#X obj 146 69 t b b b;
#X msg 145 157 subscribe control;
#X obj 384 341 s takeover;
#X obj 31 301 route val1 val2 volume calib play inst mode debug takeover st1 st2, f 70;
#X obj 427 403 s st1;
#X obj 472 369 s st2;
#X connect 0 0 18 0;
#X connect 1 0 15 0;
#X connect 11 0 12 0;
#X connect 12 0 0 0;
#X connect 12 0 9 0;
#X connect 13 0 12 0;
#X connect 14 0 12 0;
#X connect 15 0 16 0;
#X connect 15 1 14 0;
#X connect 15 2 13 0;
#X connect 16 0 12 0;
#X connect 18 0 2 0;
#X connect 18 1 3 0;
#X connect 18 2 4 0;
#X connect 18 3 5 0;
#X connect 18 4 6 0;
#X connect 18 5 7 0;
#X connect 18 6 8 0;
#X connect 18 7 10 0;
#X connect 18 8 17 0;
#X connect 18 9 19 0;
#X connect 18 10 20 0;
