#N canvas 327 23 953 755 12;
#X obj 149 36 r wifi_ready;
#X obj 29 442 s val1;
#X obj 92 444 s val2;
#X obj 157 425 s volume;
#X obj 217 359 s calib;
#X obj 273 471 s play;
#X obj 354 366 s inst;
#X obj 427 489 s mode;
#X obj 330 249 print SUB;
#X obj 482 426 s debug;
#X msg 418 165 close;
#X obj 167 207 zmq;
#X msg 195 104 socket subscribe;
#X msg 145 157 subscribe control;
#X obj 547 369 s takeover;
#X obj 615 478 s st1;
#X obj 680 388 s st2;
#X obj 738 446 s resetD;
#X obj 428 461 id_router;
#X obj 482 397 id_router;
#X obj 547 335 id_router;
#X obj 614 438 id_router;
#X obj 739 410 id_router;
#X obj 678 345 id_router;
#X obj 355 340 id_router;
#X obj 292 394 id_router;
#X obj 218 334 id_router;
#X obj 157 394 id_router;
#X obj 83 385 id_router;
#X obj 30 342 id_router;
#X obj 146 69 t b b b b;
#X msg 38 158 subscribe seq;
#X obj 32 271 route control seq;
#X obj 183 539 s seq;
#X obj 184 503 id_router;
#X obj 766 347 id_router;
#X obj 765 383 s flash;
#X obj 336 430 tgl 19 0 empty empty empty 0 -10 0 12 #fcfcfc #000000 #000000 0 1;
#X msg 489 74 connect tcp://192.168.0.100:5555;
#X obj 822 423 id_router;
#X obj 821 459 s jam;
#X obj 846 351 id_router;
#X obj 845 387 s tune;
#X obj 817 523 id_router;
#X obj 818 588 id_router;
#X obj 31 300 route val1 val2 volume calib play inst mode debug takeover st1 st2 resetD flash jam tune tuneG tuneA, f 104;
#X obj 816 559 s tuneG;
#X obj 817 624 s tuneA;
#X msg 168 128 connect tcp://192.168.0.100:5555;
#X connect 0 0 30 0;
#X connect 10 0 11 0;
#X connect 11 0 8 0;
#X connect 11 0 32 0;
#X connect 12 0 11 0;
#X connect 13 0 11 0;
#X connect 18 0 7 0;
#X connect 19 0 9 0;
#X connect 20 0 14 0;
#X connect 21 0 15 0;
#X connect 22 0 17 0;
#X connect 23 0 16 0;
#X connect 24 0 6 0;
#X connect 25 0 5 0;
#X connect 25 0 37 0;
#X connect 26 0 4 0;
#X connect 27 0 3 0;
#X connect 28 0 2 0;
#X connect 29 0 1 0;
#X connect 30 0 31 0;
#X connect 30 1 13 0;
#X connect 30 2 48 0;
#X connect 30 3 12 0;
#X connect 31 0 11 0;
#X connect 32 0 45 0;
#X connect 32 1 34 0;
#X connect 34 0 33 0;
#X connect 35 0 36 0;
#X connect 39 0 40 0;
#X connect 41 0 42 0;
#X connect 43 0 46 0;
#X connect 44 0 47 0;
#X connect 45 0 29 0;
#X connect 45 1 28 0;
#X connect 45 2 27 0;
#X connect 45 3 26 0;
#X connect 45 4 25 0;
#X connect 45 5 24 0;
#X connect 45 6 18 0;
#X connect 45 7 19 0;
#X connect 45 8 20 0;
#X connect 45 9 21 0;
#X connect 45 10 23 0;
#X connect 45 11 22 0;
#X connect 45 12 35 0;
#X connect 45 13 39 0;
#X connect 45 14 41 0;
#X connect 45 15 43 0;
#X connect 45 16 44 0;
#X connect 48 0 11 0;
