#N canvas 327 23 890 746 12;
#X obj 149 36 r wifi_ready;
#X obj 29 442 s val1;
#X obj 92 444 s val2;
#X obj 157 425 s volume;
#X obj 217 359 s calib;
#X obj 293 421 s play;
#X obj 354 366 s inst;
#X obj 427 489 s mode;
#X obj 330 249 print SUB;
#X obj 482 426 s debug;
#X msg 418 165 close;
#X obj 167 207 zmq;
#X msg 195 104 socket subscribe;
#X msg 168 129 connect tcp://192.168.0.100:5555;
#X msg 145 157 subscribe control;
#X obj 547 369 s takeover;
#X obj 615 478 s st1;
#X obj 680 388 s st2;
#X obj 738 446 s resetD;
#X obj 31 301 route val1 val2 volume calib play inst mode debug takeover st1 st2 resetD, f 111;
#X obj 428 461 id_router;
#X obj 482 397 id_router;
#X obj 547 335 id_router;
#X obj 614 438 id_router;
#X obj 739 410 id_router;
#X obj 678 345 id_router;
#X obj 355 340 id_router;
#X obj 292 394 id_router;
#X obj 218 334 id_router;
#X obj 157 394 id_router;
#X obj 83 385 id_router;
#X obj 30 342 id_router;
#X obj 146 69 t b b b b;
#X msg 38 158 subscribe seq;
#X obj 32 271 route control seq;
#X obj 183 539 s seq;
#X obj 184 503 id_router;
#X connect 0 0 32 0;
#X connect 10 0 11 0;
#X connect 11 0 8 0;
#X connect 11 0 34 0;
#X connect 12 0 11 0;
#X connect 13 0 11 0;
#X connect 14 0 11 0;
#X connect 19 0 31 0;
#X connect 19 1 30 0;
#X connect 19 2 29 0;
#X connect 19 3 28 0;
#X connect 19 4 27 0;
#X connect 19 5 26 0;
#X connect 19 6 20 0;
#X connect 19 7 21 0;
#X connect 19 8 22 0;
#X connect 19 9 23 0;
#X connect 19 10 25 0;
#X connect 19 11 24 0;
#X connect 20 0 7 0;
#X connect 21 0 9 0;
#X connect 22 0 15 0;
#X connect 23 0 16 0;
#X connect 24 0 18 0;
#X connect 25 0 17 0;
#X connect 26 0 6 0;
#X connect 27 0 5 0;
#X connect 28 0 4 0;
#X connect 29 0 3 0;
#X connect 30 0 2 0;
#X connect 31 0 1 0;
#X connect 32 0 33 0;
#X connect 32 1 14 0;
#X connect 32 2 13 0;
#X connect 32 3 12 0;
#X connect 33 0 11 0;
#X connect 34 0 19 0;
#X connect 34 1 36 0;
#X connect 36 0 35 0;
