#N canvas 22 23 491 366 12;
#X obj 28 116 route control;
#X obj 30 45 r wifi_ready;
#X obj 25 180 s val1;
#X obj 70 204 s val2;
#X obj 111 175 s volume;
#X obj 159 228 s calib;
#X obj 196 177 s play;
#X obj 240 229 s inst;
#X obj 27 146 route val1 val2 volume calib play inst mode;
#X obj 283 183 s mode;
#X obj 30 79 zmq_sub 192.168.0.100:5555 control;
#X connect 0 0 8 0;
#X connect 1 0 10 0;
#X connect 8 0 2 0;
#X connect 8 1 3 0;
#X connect 8 2 4 0;
#X connect 8 3 5 0;
#X connect 8 4 6 0;
#X connect 8 5 7 0;
#X connect 8 6 9 0;
#X connect 10 0 0 0;
