#N canvas 9 23 1271 577 12;
#X text 235 184 making sure that wifi setup is ready;
#X obj 559 96 r my_id;
#X obj 622 303 r my_ip;
#X obj 109 505 list trim;
#X obj 620 376 symbol;
#X obj 468 334 r send_ip;
#X obj 468 358 t b;
#X obj 559 156 t b a;
#X msg 447 606 socket publish;
#X obj 414 580 t b b;
#X obj 135 794 print PUB;
#X obj 400 437 list prepend send info;
#X obj 568 437 print ip-setup;
#X obj 543 334 del 400;
#X obj 106 203 r message;
#X msg 220 575 1;
#X obj 217 513 r wifi_ready;
#X obj 111 669 spigot;
#X obj 111 701 zmq;
#X obj 217 545 t b b;
#X msg 186 285 sensor \$1;
#X obj 107 374 list prepend send;
#X obj 106 337 list prepend sensor;
#X obj 755 489 list trim;
#X obj 753 358 list prepend send;
#X obj 752 321 list prepend seq;
#X obj 750 214 r seq_message;
#X obj 753 269 list prepend all;
#X obj 567 376 i;
#X obj 567 408 pack 0 s;
#X msg 508 671 connect tcp://192.168.0.100:5556;
#X msg 413 630 connect tcp://192.168.0.100:5556;
#X connect 1 0 7 0;
#X connect 2 0 4 0;
#X connect 3 0 17 0;
#X connect 4 0 29 1;
#X connect 5 0 6 0;
#X connect 6 0 28 0;
#X connect 7 0 13 0;
#X connect 7 1 20 0;
#X connect 7 1 28 1;
#X connect 8 0 17 0;
#X connect 9 0 31 0;
#X connect 9 1 8 0;
#X connect 11 0 3 0;
#X connect 13 0 28 0;
#X connect 14 0 22 0;
#X connect 15 0 17 1;
#X connect 16 0 19 0;
#X connect 17 0 18 0;
#X connect 19 0 9 0;
#X connect 19 1 15 0;
#X connect 20 0 22 1;
#X connect 21 0 3 0;
#X connect 22 0 21 0;
#X connect 23 0 3 0;
#X connect 24 0 23 0;
#X connect 25 0 24 0;
#X connect 26 0 27 0;
#X connect 27 0 25 0;
#X connect 28 0 29 0;
#X connect 29 0 11 0;
#X connect 29 0 12 0;
#X connect 31 0 17 0;
