#N canvas 9 176 1271 577 12;
#X text 167 320 making sure that wifi setup is ready;
#X obj 559 96 r my_id;
#X obj 622 303 r my_ip;
#X obj 559 128 symbol;
#X obj 109 505 list trim;
#X obj 620 376 symbol;
#X obj 468 334 r send_ip;
#X obj 567 408 pack s s;
#X obj 567 376 symbol;
#X obj 468 358 t b;
#X obj 559 156 t b a;
#X msg 447 606 socket publish;
#X obj 414 580 t b b;
#X obj 135 794 print PUB;
#X obj 400 437 list prepend send info;
#X obj 568 437 print ip-setup;
#X obj 543 334 del 400;
#X obj 106 203 r message;
#X msg 219 614 1;
#X obj 217 513 r wifi_ready;
#X obj 111 669 spigot;
#X obj 111 701 zmq;
#X obj 217 545 t b b;
#X msg 413 630 connect tcp://192.168.0.100:5556;
#X obj 152 427 print;
#X obj 106 337 list prepend;
#X msg 186 285 sensor \$1;
#X obj 107 374 list prepend send;
#X connect 1 0 3 0;
#X connect 2 0 5 0;
#X connect 3 0 10 0;
#X connect 4 0 20 0;
#X connect 5 0 7 1;
#X connect 6 0 9 0;
#X connect 7 0 14 0;
#X connect 7 0 15 0;
#X connect 8 0 7 0;
#X connect 9 0 8 0;
#X connect 10 0 16 0;
#X connect 10 1 26 0;
#X connect 10 1 8 1;
#X connect 11 0 20 0;
#X connect 12 0 23 0;
#X connect 12 1 11 0;
#X connect 14 0 4 0;
#X connect 16 0 8 0;
#X connect 17 0 25 0;
#X connect 18 0 20 1;
#X connect 19 0 22 0;
#X connect 20 0 21 0;
#X connect 22 0 12 0;
#X connect 22 1 18 0;
#X connect 23 0 20 0;
#X connect 25 0 27 0;
#X connect 26 0 25 1;
#X connect 27 0 4 0;
#X connect 27 0 24 0;
