#N canvas 15 23 1265 755 12;
#X declare -lib rcp;
#X obj 131 83 adc~ 3 4;
#X obj 111 155 snapshot~;
#X obj 299 96 loadbang;
#X obj 299 119 tgl 16 0 empty empty empty 0 -8 0 10 #fcfcfc #000000 #000000 0 1;
#X obj 207 156 snapshot~;
#X obj 301 140 metro 40;
#X obj 112 128 average~ 10;
#X obj 207 128 average~ 10;
#X obj 125 206 change;
#X obj 233 214 change;
#X obj 296 661 dac~;
#N canvas 96 23 1184 714 mode1_string 1;
#N canvas 0 23 450 300 handle_polyphony 0;
#X obj 37 37 inlet;
#X obj 37 149 pack 0 0 0;
#X obj 38 120 - 1;
#X obj 37 170 outlet;
#X obj 38 78 poly 8 1;
#X connect 0 0 4 0;
#X connect 1 0 3 0;
#X connect 2 0 1 0;
#X connect 4 0 2 0;
#X connect 4 1 1 1;
#X connect 4 2 1 2;
#X restore 396 499 pd handle_polyphony;
#X msg 383 74 rewind;
#X msg 211 49 track \$1;
#X obj 211 9 hradio 15 1 0 16 empty empty play_track_number 0 -6 0 12 #3c50fc #e8e828 #000000 0;
#X obj 211 26 - 1;
#X floatatom 166 46 5 0 0 0 - - - 0;
#X text 246 26 -1 = play all tracks;
#X obj 212 114 midifile;
#X obj 43 49 loadbang;
#X obj 775 427 pack 55 0;
#X text 823 374 mute!;
#X obj 247 341 == 0;
#X obj 247 392 gate 2 1;
#X obj 247 364 + 1;
#X obj 797 374 bng 19 250 50 0 empty empty empty 0 -10 0 12 #fcfcfc #000000 #000000;
#X obj 201 245 unpack;
#X obj 201 312 pack;
#X msg 289 74 1600;
#X obj 495 445 list;
#X obj 446 467 route bang;
#X obj 445 385 spigot;
#X obj 446 359 t b l l;
#X obj 788 173 ||;
#X obj 396 433 t l b;
#X obj 784 249 sel 1 0;
#X obj 826 148 t b a;
#X obj 787 197 change;
#X obj 397 528 string_synth;
#X obj 780 -37 inlet;
#X obj 850 -35 inlet;
#X obj 395 566 outlet~;
#X obj 551 -32 inlet;
#X obj 337 49 sel 1;
#X obj 551 -9 t a a a;
#X obj 529 22 sel 0;
#X obj 596 70 tgl 19 0 empty empty empty 0 -10 0 12 #fcfcfc #000000 #000000 0 1;
#X obj 252 139 print info;
#X obj 755 64 tgl 19 0 empty empty empty 0 -10 0 12 #fcfcfc #000000 #000000 0 1;
#X obj 868 72 tgl 19 0 empty empty empty 0 -10 0 12 #fcfcfc #000000 #000000 0 1;
#X obj 336 264 &&;
#X obj 785 223 t a b a a;
#X obj 336 291 tgl 19 0 empty empty empty 0 -10 0 12 #fcfcfc #000000 #000000 0 1;
#X obj 968 -29 inlet;
#X msg 38 90 read symphony_short.mid;
#X obj 551 99 metro 1;
#X obj 113 166 route 144 128;
#X obj 96 451 > 64;
#X obj 49 451 > 64;
#X obj 777 403 uzi 127 0;
#X obj 254 215 route 147;
#X obj 201 286 pipe f f 2000;
#X obj 498 245 &&;
#X obj 585 284 tgl 19 0 empty empty empty 0 -10 0 12 #fcfcfc #000000 #000000 0 1;
#X obj 890 349 del 100;
#X obj 497 52 t b b b;
#X obj 890 316 del 2000;
#N canvas 153 44 1127 701 ledstrip2 0;
#X obj 81 32 inlet;
#X obj 131 65 tgl 19 0 empty empty empty 0 -10 0 12 #fcfcfc #000000 #000000 0 1;
#X obj 81 95 pipe 125;
#X obj 81 64 t a a;
#X obj 130 131 tgl 19 0 empty empty empty 0 -10 0 12 #fcfcfc #000000 #000000 0 1;
#X obj 80 161 pipe 125;
#X obj 80 130 t a a;
#X obj 131 198 tgl 19 0 empty empty empty 0 -10 0 12 #fcfcfc #000000 #000000 0 1;
#X obj 81 228 pipe 125;
#X obj 81 197 t a a;
#X obj 132 267 tgl 19 0 empty empty empty 0 -10 0 12 #fcfcfc #000000 #000000 0 1;
#X obj 82 297 pipe 125;
#X obj 82 266 t a a;
#X obj 132 334 tgl 19 0 empty empty empty 0 -10 0 12 #fcfcfc #000000 #000000 0 1;
#X obj 82 364 pipe 125;
#X obj 82 333 t a a;
#X obj 131 400 tgl 19 0 empty empty empty 0 -10 0 12 #fcfcfc #000000 #000000 0 1;
#X obj 81 430 pipe 125;
#X obj 81 399 t a a;
#X obj 132 467 tgl 19 0 empty empty empty 0 -10 0 12 #fcfcfc #000000 #000000 0 1;
#X obj 82 497 pipe 125;
#X obj 82 466 t a a;
#X obj 843 664 outlet;
#X obj 105 654 outlet;
#X obj 317 69 tgl 19 0 empty empty empty 0 -10 0 12 #fcfcfc #000000 #000000 0 1;
#X obj 267 99 pipe 125;
#X obj 267 68 t a a;
#X obj 316 135 tgl 19 0 empty empty empty 0 -10 0 12 #fcfcfc #000000 #000000 0 1;
#X obj 266 165 pipe 125;
#X obj 266 134 t a a;
#X obj 317 202 tgl 19 0 empty empty empty 0 -10 0 12 #fcfcfc #000000 #000000 0 1;
#X obj 267 232 pipe 125;
#X obj 267 201 t a a;
#X obj 318 271 tgl 19 0 empty empty empty 0 -10 0 12 #fcfcfc #000000 #000000 0 1;
#X obj 268 301 pipe 125;
#X obj 268 270 t a a;
#X obj 318 338 tgl 19 0 empty empty empty 0 -10 0 12 #fcfcfc #000000 #000000 0 1;
#X obj 268 368 pipe 125;
#X obj 268 337 t a a;
#X obj 317 404 tgl 19 0 empty empty empty 0 -10 0 12 #fcfcfc #000000 #000000 0 1;
#X obj 267 434 pipe 125;
#X obj 267 403 t a a;
#X obj 318 471 tgl 19 0 empty empty empty 0 -10 0 12 #fcfcfc #000000 #000000 0 1;
#X obj 268 501 pipe 125;
#X obj 268 470 t a a;
#X obj 381 540 tgl 19 0 empty empty empty 0 -10 0 12 #fcfcfc #000000 #000000 0 1;
#X obj 269 539 t a b a;
#X obj 131 526 tgl 19 0 empty empty empty 0 -10 0 12 #fcfcfc #000000 #000000 0 1;
#X obj 81 556 pipe 125;
#X obj 81 525 t a a;
#X obj 655 625 pak 0 0 0 0 0 0 0 0 0 0 0 0 0 0 0 0, f 49;
#X connect 0 0 3 0;
#X connect 2 0 6 0;
#X connect 3 0 2 0;
#X connect 3 1 1 0;
#X connect 3 1 50 0;
#X connect 5 0 9 0;
#X connect 6 0 5 0;
#X connect 6 1 4 0;
#X connect 6 1 50 1;
#X connect 8 0 12 0;
#X connect 9 0 8 0;
#X connect 9 1 7 0;
#X connect 9 1 50 2;
#X connect 11 0 15 0;
#X connect 12 0 11 0;
#X connect 12 1 10 0;
#X connect 12 1 50 3;
#X connect 14 0 18 0;
#X connect 15 0 14 0;
#X connect 15 1 13 0;
#X connect 15 1 50 4;
#X connect 17 0 21 0;
#X connect 18 0 17 0;
#X connect 18 1 16 0;
#X connect 18 1 50 5;
#X connect 20 0 49 0;
#X connect 21 0 20 0;
#X connect 21 1 19 0;
#X connect 21 1 50 6;
#X connect 25 0 29 0;
#X connect 26 0 25 0;
#X connect 26 1 24 0;
#X connect 26 1 50 8;
#X connect 28 0 32 0;
#X connect 29 0 28 0;
#X connect 29 1 27 0;
#X connect 29 1 50 9;
#X connect 31 0 35 0;
#X connect 32 0 31 0;
#X connect 32 1 30 0;
#X connect 32 1 50 10;
#X connect 34 0 38 0;
#X connect 35 0 34 0;
#X connect 35 1 33 0;
#X connect 35 1 50 11;
#X connect 37 0 41 0;
#X connect 38 0 37 0;
#X connect 38 1 36 0;
#X connect 38 1 50 12;
#X connect 40 0 44 0;
#X connect 41 0 40 0;
#X connect 41 1 39 0;
#X connect 41 1 50 13;
#X connect 43 0 46 0;
#X connect 44 0 43 0;
#X connect 44 1 42 0;
#X connect 44 1 50 14;
#X connect 46 0 23 0;
#X connect 46 1 50 0;
#X connect 46 2 45 0;
#X connect 46 2 50 15;
#X connect 48 0 26 0;
#X connect 49 0 48 0;
#X connect 49 1 47 0;
#X connect 49 1 50 7;
#X connect 50 0 22 0;
#X restore 505 184 pd ledstrip2;
#N canvas 153 44 1127 701 ledstrip1 0;
#X obj 81 32 inlet;
#X obj 131 65 tgl 19 0 empty empty empty 0 -10 0 12 #fcfcfc #000000 #000000 0 1;
#X obj 81 95 pipe 125;
#X obj 81 64 t a a;
#X obj 130 131 tgl 19 0 empty empty empty 0 -10 0 12 #fcfcfc #000000 #000000 0 1;
#X obj 80 161 pipe 125;
#X obj 80 130 t a a;
#X obj 131 198 tgl 19 0 empty empty empty 0 -10 0 12 #fcfcfc #000000 #000000 0 1;
#X obj 81 228 pipe 125;
#X obj 81 197 t a a;
#X obj 132 267 tgl 19 0 empty empty empty 0 -10 0 12 #fcfcfc #000000 #000000 0 1;
#X obj 82 297 pipe 125;
#X obj 82 266 t a a;
#X obj 132 334 tgl 19 0 empty empty empty 0 -10 0 12 #fcfcfc #000000 #000000 0 1;
#X obj 82 364 pipe 125;
#X obj 82 333 t a a;
#X obj 131 400 tgl 19 0 empty empty empty 0 -10 0 12 #fcfcfc #000000 #000000 0 1;
#X obj 81 430 pipe 125;
#X obj 81 399 t a a;
#X obj 132 467 tgl 19 0 empty empty empty 0 -10 0 12 #fcfcfc #000000 #000000 0 1;
#X obj 82 497 pipe 125;
#X obj 82 466 t a a;
#X obj 843 664 outlet;
#X obj 105 654 outlet;
#X obj 317 69 tgl 19 0 empty empty empty 0 -10 0 12 #fcfcfc #000000 #000000 0 1;
#X obj 267 99 pipe 125;
#X obj 267 68 t a a;
#X obj 316 135 tgl 19 0 empty empty empty 0 -10 0 12 #fcfcfc #000000 #000000 0 1;
#X obj 266 165 pipe 125;
#X obj 266 134 t a a;
#X obj 317 202 tgl 19 0 empty empty empty 0 -10 0 12 #fcfcfc #000000 #000000 0 1;
#X obj 267 232 pipe 125;
#X obj 267 201 t a a;
#X obj 318 271 tgl 19 0 empty empty empty 0 -10 0 12 #fcfcfc #000000 #000000 0 1;
#X obj 268 301 pipe 125;
#X obj 268 270 t a a;
#X obj 318 338 tgl 19 0 empty empty empty 0 -10 0 12 #fcfcfc #000000 #000000 0 1;
#X obj 268 368 pipe 125;
#X obj 268 337 t a a;
#X obj 317 404 tgl 19 0 empty empty empty 0 -10 0 12 #fcfcfc #000000 #000000 0 1;
#X obj 267 434 pipe 125;
#X obj 267 403 t a a;
#X obj 318 471 tgl 19 0 empty empty empty 0 -10 0 12 #fcfcfc #000000 #000000 0 1;
#X obj 268 501 pipe 125;
#X obj 268 470 t a a;
#X obj 381 540 tgl 19 0 empty empty empty 0 -10 0 12 #fcfcfc #000000 #000000 0 1;
#X obj 269 539 t a b a;
#X obj 131 526 tgl 19 0 empty empty empty 0 -10 0 12 #fcfcfc #000000 #000000 0 1;
#X obj 81 556 pipe 125;
#X obj 81 525 t a a;
#X obj 655 625 pak 0 0 0 0 0 0 0 0 0 0 0 0 0 0 0 0, f 49;
#X connect 0 0 3 0;
#X connect 2 0 6 0;
#X connect 3 0 2 0;
#X connect 3 1 1 0;
#X connect 3 1 50 0;
#X connect 5 0 9 0;
#X connect 6 0 5 0;
#X connect 6 1 4 0;
#X connect 6 1 50 1;
#X connect 8 0 12 0;
#X connect 9 0 8 0;
#X connect 9 1 7 0;
#X connect 9 1 50 2;
#X connect 11 0 15 0;
#X connect 12 0 11 0;
#X connect 12 1 10 0;
#X connect 12 1 50 3;
#X connect 14 0 18 0;
#X connect 15 0 14 0;
#X connect 15 1 13 0;
#X connect 15 1 50 4;
#X connect 17 0 21 0;
#X connect 18 0 17 0;
#X connect 18 1 16 0;
#X connect 18 1 50 5;
#X connect 20 0 49 0;
#X connect 21 0 20 0;
#X connect 21 1 19 0;
#X connect 21 1 50 6;
#X connect 25 0 29 0;
#X connect 26 0 25 0;
#X connect 26 1 24 0;
#X connect 26 1 50 8;
#X connect 28 0 32 0;
#X connect 29 0 28 0;
#X connect 29 1 27 0;
#X connect 29 1 50 9;
#X connect 31 0 35 0;
#X connect 32 0 31 0;
#X connect 32 1 30 0;
#X connect 32 1 50 10;
#X connect 34 0 38 0;
#X connect 35 0 34 0;
#X connect 35 1 33 0;
#X connect 35 1 50 11;
#X connect 37 0 41 0;
#X connect 38 0 37 0;
#X connect 38 1 36 0;
#X connect 38 1 50 12;
#X connect 40 0 44 0;
#X connect 41 0 40 0;
#X connect 41 1 39 0;
#X connect 41 1 50 13;
#X connect 43 0 46 0;
#X connect 44 0 43 0;
#X connect 44 1 42 0;
#X connect 44 1 50 14;
#X connect 46 0 23 0;
#X connect 46 2 45 0;
#X connect 46 2 50 15;
#X connect 48 0 26 0;
#X connect 49 0 48 0;
#X connect 49 1 47 0;
#X connect 49 1 50 7;
#X connect 50 0 22 0;
#X restore 343 185 pd ledstrip1;
#X msg 911 40 147;
#X msg 1031 47 151;
#X text 1029 -18 instrument num;
#X msg 956 45 148;
#X msg 992 45 150;
#X obj 958 4 sel 0 1 2 3;
#X obj 967 113 s instnum;
#X obj 344 139 r instnum;
#X obj 158 425 route 54 55;
#X obj 50 425 route 102 103;
#X obj 72 329 gate 2 1;
#X msg 1070 68 2;
#X msg 922 68 1;
#X obj 199 450 > 64;
#X obj 159 451 > 64;
#X obj 749 367 t b;
#X obj 890 381 del 100;
#X obj 291 470 route end;
#X obj 289 518 t b;
#X obj 292 630 bng 19 250 50 0 empty empty empty 0 -10 0 12 #fcfcfc #000000 #000000;
#X msg 336 104 80000;
#X obj 254 555 bng 19 250 50 0 empty empty empty 0 -10 0 12 #fcfcfc #000000 #000000;
#X obj 290 494 route 7;
#X obj 290 567 del 2000;
#N canvas 80 23 1200 628 LEDV2 0;
#X obj 295 668 netsend -u -b;
#X msg 48 609 connect bela.local 7562;
#X obj 52 559 loadbang;
#X msg 47 582 connect 127.0.0.1 7562;
#X obj 164 22 inlet;
#X obj 123 233 zl join;
#X obj 509 31 inlet;
#X obj 271 373 zl join;
#X obj 503 219 zl join;
#X obj 507 115 t b l;
#X obj 572 169 zl join;
#X msg 631 51 0 0 0 0 0 0 0 0 0 0 0 0 0 0 0 0;
#X obj 724 25 inlet mute;
#X msg 282 578 disconnect;
#X obj 575 115 t b a;
#X obj 164 46 zl rev;
#X obj 508 60 zl rev;
#X obj 504 245 oscformat leds setRaw r;
#X obj 119 436 oscformat leds setRaw rgb;
#X obj 197 136 unpack 0 0;
#X obj 311 319 t b a;
#X obj 894 27 inlet;
#X obj 988 29 inlet;
#X obj 287 101 t b l;
#X msg 96 202 0 \$1;
#X msg 504 196 16 \$1;
#X msg 457 174 30;
#X msg 499 175 255;
#X obj 82 122 gate 2 1;
#X obj 894 53 + 1;
#X obj 467 146 gate 2 1;
#X obj 988 54 + 1;
#X msg 434 624 connect 192.168.0.54 7562;
#X msg 203 176 1;
#X msg 168 176 0;
#X obj 81 149 t b b;
#X obj 137 148 t b b;
#X msg 129 172 155, f 4;
#X obj 508 89 zl slice 1;
#X msg 574 141 17 30;
#X obj 314 287 unpack 0 0 0 0 0 0 0 0 0 0 0 0 0 0 0, f 88;
#X obj 311 347 pack 0 0 0 0 0 0 0 0 0 0 0 0 0 0 0 0 0 0 0 0 0 0 0 0 0 0 0 0 0 0 0 0 0 0 0 0 0 0 0 0 0 0 0 0 0, f 95;
#X obj 163 71 zl slice 1;
#X obj 170 205 pack 0 0 0;
#X msg 80 172 255;
#X obj 163 97 t b a;
#X obj 944 16 tgl 19 0 empty empty empty 0 -10 0 12 #fcfcfc #000000 #000000 0 1;
#X msg 238 21 1 1 1 0 0 0 0 0 0 0 0 0 0 0 1 1;
#X msg 284 127 1 255;
#X connect 1 0 0 0;
#X connect 2 0 3 0;
#X connect 3 0 0 0;
#X connect 4 0 15 0;
#X connect 5 0 18 0;
#X connect 6 0 16 0;
#X connect 7 0 18 0;
#X connect 8 0 17 0;
#X connect 9 0 30 1;
#X connect 9 1 8 1;
#X connect 10 0 17 0;
#X connect 11 0 38 0;
#X connect 11 0 42 0;
#X connect 12 0 11 0;
#X connect 13 0 0 0;
#X connect 14 0 39 0;
#X connect 14 1 10 1;
#X connect 15 0 42 0;
#X connect 16 0 38 0;
#X connect 17 0 0 0;
#X connect 18 0 0 0;
#X connect 19 0 43 2;
#X connect 19 0 43 1;
#X connect 20 0 41 0;
#X connect 20 1 41 1;
#X connect 21 0 29 0;
#X connect 22 0 31 0;
#X connect 23 0 48 0;
#X connect 23 1 40 0;
#X connect 24 0 5 0;
#X connect 25 0 8 0;
#X connect 26 0 25 0;
#X connect 27 0 25 0;
#X connect 28 0 35 0;
#X connect 28 1 36 0;
#X connect 29 0 28 0;
#X connect 30 0 26 0;
#X connect 30 1 27 0;
#X connect 31 0 30 0;
#X connect 32 0 0 0;
#X connect 33 0 43 0;
#X connect 34 0 43 0;
#X connect 35 0 44 0;
#X connect 35 1 34 0;
#X connect 36 0 37 0;
#X connect 36 1 33 0;
#X connect 37 0 24 0;
#X connect 38 0 9 0;
#X connect 38 1 14 0;
#X connect 39 0 10 0;
#X connect 40 0 20 0;
#X connect 40 0 41 2;
#X connect 40 1 41 5;
#X connect 40 1 41 4;
#X connect 40 2 41 8;
#X connect 40 2 41 7;
#X connect 40 3 41 11;
#X connect 40 3 41 10;
#X connect 40 4 41 14;
#X connect 40 4 41 13;
#X connect 40 5 41 17;
#X connect 40 5 41 16;
#X connect 40 6 41 20;
#X connect 40 6 41 19;
#X connect 40 7 41 23;
#X connect 40 7 41 22;
#X connect 40 8 41 26;
#X connect 40 8 41 25;
#X connect 40 9 41 29;
#X connect 40 9 41 28;
#X connect 40 10 41 32;
#X connect 40 10 41 31;
#X connect 40 11 41 35;
#X connect 40 11 41 34;
#X connect 40 12 41 38;
#X connect 40 12 41 37;
#X connect 40 13 41 41;
#X connect 40 13 41 40;
#X connect 40 14 41 44;
#X connect 40 14 41 43;
#X connect 41 0 7 1;
#X connect 42 0 45 0;
#X connect 42 1 23 0;
#X connect 43 0 5 1;
#X connect 44 0 24 0;
#X connect 45 0 28 1;
#X connect 45 1 19 0;
#X connect 46 0 29 0;
#X connect 47 0 15 0;
#X connect 48 0 7 0;
#X restore 439 320 pd LEDV2;
#X f 10;
#N canvas 289 23 1158 531 LEDV1 0;
#X obj 295 668 netsend -u -b;
#X msg 48 609 connect bela.local 7562;
#X obj 52 559 loadbang;
#X msg 47 582 connect 127.0.0.1 7562;
#X obj 164 22 inlet;
#X obj 123 233 zl join;
#X obj 509 31 inlet;
#X obj 271 373 zl join;
#X obj 503 219 zl join;
#X obj 507 115 t b l;
#X obj 572 169 zl join;
#X msg 631 51 0 0 0 0 0 0 0 0 0 0 0 0 0 0 0 0;
#X obj 724 25 inlet mute;
#X msg 282 578 disconnect;
#X obj 575 115 t b a;
#X obj 504 245 oscformat leds setRaw r;
#X obj 119 436 oscformat leds setRaw rgb;
#X obj 197 136 unpack 0 0;
#X obj 311 319 t b a;
#X obj 894 27 inlet;
#X obj 988 29 inlet;
#X obj 287 101 t b l;
#X msg 96 202 0 \$1;
#X msg 504 196 16 \$1;
#X msg 457 174 30;
#X msg 499 175 255;
#X obj 82 122 gate 2 1;
#X obj 894 53 + 1;
#X obj 467 146 gate 2 1;
#X obj 988 54 + 1;
#X msg 434 624 connect 192.168.0.54 7562;
#X msg 203 176 1;
#X msg 168 176 0;
#X obj 81 149 t b b;
#X obj 137 148 t b b;
#X msg 129 172 155, f 4;
#X obj 314 287 unpack 0 0 0 0 0 0 0 0 0 0 0 0 0 0 0, f 88;
#X obj 311 347 pack 0 0 0 0 0 0 0 0 0 0 0 0 0 0 0 0 0 0 0 0 0 0 0 0 0 0 0 0 0 0 0 0 0 0 0 0 0 0 0 0 0 0 0 0 0, f 95;
#X obj 170 205 pack 0 0 0;
#X msg 80 172 255;
#X obj 163 97 t b a;
#X obj 944 16 tgl 19 0 empty empty empty 0 -10 0 12 #fcfcfc #000000 #000000 0 1;
#X msg 238 21 1 1 1 0 0 0 0 0 0 0 0 0 0 0 1 1;
#X msg 284 127 1 255;
#X obj 163 61 zl slice 15;
#X obj 508 89 zl slice 15;
#X msg 574 141 17 30;
#X connect 1 0 0 0;
#X connect 2 0 3 0;
#X connect 3 0 0 0;
#X connect 4 0 44 0;
#X connect 5 0 16 0;
#X connect 6 0 45 0;
#X connect 7 0 16 0;
#X connect 8 0 15 0;
#X connect 9 0 28 1;
#X connect 9 1 8 1;
#X connect 10 0 15 0;
#X connect 11 0 44 0;
#X connect 11 0 45 0;
#X connect 12 0 11 0;
#X connect 13 0 0 0;
#X connect 14 0 46 0;
#X connect 14 1 10 1;
#X connect 15 0 0 0;
#X connect 16 0 0 0;
#X connect 17 0 38 2;
#X connect 17 0 38 1;
#X connect 18 0 37 0;
#X connect 18 1 37 1;
#X connect 19 0 27 0;
#X connect 20 0 29 0;
#X connect 21 0 43 0;
#X connect 21 1 36 0;
#X connect 22 0 5 0;
#X connect 23 0 8 0;
#X connect 24 0 23 0;
#X connect 25 0 23 0;
#X connect 26 0 33 0;
#X connect 26 1 34 0;
#X connect 27 0 26 0;
#X connect 28 0 24 0;
#X connect 28 1 25 0;
#X connect 29 0 28 0;
#X connect 30 0 0 0;
#X connect 31 0 38 0;
#X connect 32 0 38 0;
#X connect 33 0 39 0;
#X connect 33 1 32 0;
#X connect 34 0 35 0;
#X connect 34 1 31 0;
#X connect 35 0 22 0;
#X connect 36 0 18 0;
#X connect 36 0 37 2;
#X connect 36 1 37 5;
#X connect 36 1 37 4;
#X connect 36 2 37 8;
#X connect 36 2 37 7;
#X connect 36 3 37 11;
#X connect 36 3 37 10;
#X connect 36 4 37 14;
#X connect 36 4 37 13;
#X connect 36 5 37 17;
#X connect 36 5 37 16;
#X connect 36 6 37 20;
#X connect 36 6 37 19;
#X connect 36 7 37 23;
#X connect 36 7 37 22;
#X connect 36 8 37 26;
#X connect 36 8 37 25;
#X connect 36 9 37 29;
#X connect 36 9 37 28;
#X connect 36 10 37 32;
#X connect 36 10 37 31;
#X connect 36 11 37 35;
#X connect 36 11 37 34;
#X connect 36 12 37 38;
#X connect 36 12 37 37;
#X connect 36 13 37 41;
#X connect 36 13 37 40;
#X connect 36 14 37 44;
#X connect 36 14 37 43;
#X connect 37 0 7 1;
#X connect 38 0 5 1;
#X connect 39 0 22 0;
#X connect 40 0 26 1;
#X connect 40 1 17 0;
#X connect 41 0 27 0;
#X connect 43 0 7 0;
#X connect 44 0 21 0;
#X connect 44 1 40 0;
#X connect 45 0 9 0;
#X connect 45 1 14 0;
#X connect 46 0 10 0;
#X restore 641 597 pd LEDV1;
#X f 10;
#X connect 0 0 27 0;
#X connect 1 0 7 0;
#X connect 2 0 7 0;
#X connect 3 0 4 0;
#X connect 4 0 2 0;
#X connect 4 0 5 0;
#X connect 7 0 45 0;
#X connect 7 2 36 0;
#X connect 7 2 75 0;
#X connect 8 0 43 0;
#X connect 9 0 0 0;
#X connect 11 0 13 0;
#X connect 12 0 21 0;
#X connect 12 1 23 0;
#X connect 13 0 12 0;
#X connect 14 0 48 0;
#X connect 15 0 50 0;
#X connect 15 1 50 1;
#X connect 16 0 12 1;
#X connect 17 0 7 0;
#X connect 18 0 19 0;
#X connect 19 1 0 0;
#X connect 20 0 19 0;
#X connect 21 1 18 1;
#X connect 21 2 20 0;
#X connect 22 0 26 0;
#X connect 23 0 0 0;
#X connect 23 1 18 1;
#X connect 24 0 18 0;
#X connect 24 1 48 0;
#X connect 25 0 22 0;
#X connect 25 1 22 1;
#X connect 26 0 40 0;
#X connect 27 0 30 0;
#X connect 28 0 22 0;
#X connect 29 0 25 0;
#X connect 31 0 33 0;
#X connect 32 0 1 0;
#X connect 33 0 34 0;
#X connect 33 1 44 0;
#X connect 33 2 32 0;
#X connect 34 0 54 0;
#X connect 35 0 33 0;
#X connect 37 0 22 0;
#X connect 38 0 25 0;
#X connect 39 0 41 0;
#X connect 39 0 82 4;
#X connect 40 0 24 0;
#X connect 40 1 39 0;
#X connect 40 1 51 0;
#X connect 40 2 39 1;
#X connect 40 2 51 1;
#X connect 40 3 20 1;
#X connect 42 0 63 0;
#X connect 43 0 7 0;
#X connect 44 0 7 0;
#X connect 45 0 68 1;
#X connect 45 1 68 1;
#X connect 45 2 49 0;
#X connect 46 0 56 0;
#X connect 47 0 57 0;
#X connect 48 2 9 0;
#X connect 49 0 15 0;
#X connect 50 0 16 0;
#X connect 50 1 16 1;
#X connect 50 1 11 0;
#X connect 51 0 52 0;
#X connect 51 0 82 3;
#X connect 53 0 73 0;
#X connect 53 0 74 0;
#X connect 54 0 73 0;
#X connect 54 2 55 0;
#X connect 55 0 53 0;
#X connect 55 0 73 0;
#X connect 56 0 51 0;
#X connect 56 1 82 0;
#X connect 57 0 39 0;
#X connect 57 1 82 1;
#X connect 58 0 64 0;
#X connect 59 0 64 0;
#X connect 61 0 64 0;
#X connect 62 0 64 0;
#X connect 63 0 58 0;
#X connect 63 0 70 0;
#X connect 63 1 61 0;
#X connect 63 1 70 0;
#X connect 63 2 62 0;
#X connect 63 2 69 0;
#X connect 63 3 59 0;
#X connect 63 3 69 0;
#X connect 65 0 49 1;
#X connect 66 0 72 0;
#X connect 66 1 71 0;
#X connect 67 0 47 0;
#X connect 67 1 46 0;
#X connect 68 0 67 0;
#X connect 68 1 66 0;
#X connect 69 0 68 0;
#X connect 70 0 68 0;
#X connect 71 0 56 0;
#X connect 72 0 57 0;
#X connect 73 0 48 0;
#X connect 73 0 82 2;
#X connect 74 0 73 0;
#X connect 75 0 80 0;
#X connect 76 0 79 0;
#X connect 76 0 81 0;
#X connect 78 0 7 0;
#X connect 80 0 76 0;
#X connect 81 0 77 0;
#X connect 81 0 55 0;
#X restore 302 509 pd mode1_string;
#X obj 299 413 tgl 19 0 empty empty empty 0 -10 0 12 #fcfcfc #000000 #000000 0 1;
#X obj 340 467 tgl 19 0 empty empty empty 0 -10 0 12 #fcfcfc #000000 #000000 0 1;
#X obj 393 467 tgl 19 0 empty empty empty 0 -10 0 12 #fcfcfc #000000 #000000 0 1;
#X text 334 447 sensor1;
#X text 394 448 sensor2;
#X text 295 392 play;
#X obj 304 624 *~;
#X obj 339 603 line~;
#X msg 340 579 1 100;
#X obj 339 549 loadbang;
#X msg 402 580 \$1 100;
#N canvas 62 323 709 452 calib 0;
#X obj 170 189 > 0;
#X obj 179 139 t a a a;
#X obj 203 191 spigot;
#X obj 89 141 t a a a;
#X obj 113 192 spigot;
#X obj 80 191 < 1;
#X obj 204 225 f;
#X obj 115 223 f;
#X text 113 246 min;
#X text 203 250 max;
#X floatatom 237 229 5 0 0 0 - - - 0;
#X floatatom 146 223 5 0 0 0 - - - 0;
#X msg 144 169 1;
#X msg 248 169 0;
#X obj 111 42 inlet;
#X obj 110 98 t a a;
#X obj 204 321 outlet;
#X obj 335 53 inlet;
#X obj 110 70 spigot;
#X obj 284 65 t a a;
#X obj 317 89 sel 1 0;
#X obj 117 323 outlet;
#X obj 351 276 -;
#X obj 348 244 t b a;
#X obj 351 331 outlet;
#X obj 351 304 / 3;
#X connect 0 0 2 1;
#X connect 1 1 2 0;
#X connect 1 2 0 0;
#X connect 2 0 0 1;
#X connect 2 0 6 1;
#X connect 2 0 10 0;
#X connect 3 1 4 0;
#X connect 3 2 5 0;
#X connect 4 0 5 1;
#X connect 4 0 7 1;
#X connect 4 0 11 0;
#X connect 5 0 4 1;
#X connect 6 0 16 0;
#X connect 6 0 22 0;
#X connect 7 0 21 0;
#X connect 7 0 23 0;
#X connect 12 0 5 1;
#X connect 13 0 0 1;
#X connect 14 0 18 0;
#X connect 15 0 3 0;
#X connect 15 1 1 0;
#X connect 17 0 19 0;
#X connect 18 0 15 0;
#X connect 19 0 18 1;
#X connect 19 1 20 0;
#X connect 20 0 13 0;
#X connect 20 0 12 0;
#X connect 20 1 6 0;
#X connect 20 1 7 0;
#X connect 22 0 25 0;
#X connect 23 0 22 0;
#X connect 23 1 22 1;
#X connect 25 0 24 0;
#X restore 208 245 pd calib;
#X obj 671 82 loadbang;
#X obj 699 437 rcp.server;
#X msg 719 149 listen 10000;
#X obj 673 108 t b b b;
#X text 720 172 RCP is at port 10000;
#X obj 698 485 route update;
#X obj 698 462 list trim;
#X text 754 77 RCP tester;
#X msg 698 266 expose f val1 @min 0 @max 1;
#X msg 710 292 expose f val2 @min 0 @max 1;
#X obj 695 549 s val1;
#X obj 740 573 s val2;
#X msg 763 350 expose t calib;
#X msg 781 375 expose t play;
#X msg 733 319 expose f volume @min 0 @max 1;
#X obj 789 549 s volume;
#X obj 829 597 s calib;
#X obj 874 562 s play;
#X obj 319 354 r play;
#X obj 327 199 r calib;
#X obj 697 515 route val1 val2 volume calib play inst;
#X msg 786 401 expose i inst;
#X obj 947 562 s inst;
#X obj 475 425 r inst;
#X obj 404 559 r volume;
#X obj 62 20 declare -lib rcp;
#X obj 689 206 t b b b b b b b b b;
#X obj 1079 339 t b b b b b b b b b;
#X msg 1089 384 expose t LED1;
#X msg 1109 410 expose t LED2;
#X msg 1132 431 expose t LED3;
#X msg 1161 455 expose t LED4;
#X msg 1200 380 expose t LED5;
#X msg 1220 406 expose t LED6;
#X msg 1243 427 expose t LED7, f 14;
#X msg 1272 451 expose t LED8;
#X msg 1282 497 expose t LEDMatch;
#X obj 581 417 r rcp_message;
#X msg 415 169 val1 \$1;
#X msg 477 170 val2 \$1;
#X obj 416 106 metro 200;
#X obj 415 132 f;
#X obj 478 130 f;
#X obj 418 82 del 1000;
#X msg 1065 271 expose t string1;
#X msg 1076 299 expose t string2;
#X obj 242 332 - 0.1;
#X obj 124 184 < 0.7;
#X obj 231 187 < 0.7;
#X obj 262 286 t b a;
#N canvas 62 323 709 452 calib 0;
#X obj 170 189 > 0;
#X obj 179 139 t a a a;
#X obj 203 191 spigot;
#X obj 89 141 t a a a;
#X obj 113 192 spigot;
#X obj 80 191 < 1;
#X obj 204 225 f;
#X obj 115 223 f;
#X text 113 246 min;
#X text 203 250 max;
#X floatatom 237 229 5 0 0 0 - - - 0;
#X floatatom 146 223 5 0 0 0 - - - 0;
#X msg 144 169 1;
#X msg 248 169 0;
#X obj 111 42 inlet;
#X obj 110 98 t a a;
#X obj 204 321 outlet;
#X obj 335 53 inlet;
#X obj 110 70 spigot;
#X obj 284 65 t a a;
#X obj 317 89 sel 1 0;
#X obj 117 323 outlet;
#X obj 351 276 -;
#X obj 348 244 t b a;
#X obj 351 331 outlet;
#X obj 351 304 / 3;
#X connect 0 0 2 1;
#X connect 1 1 2 0;
#X connect 1 2 0 0;
#X connect 2 0 0 1;
#X connect 2 0 6 1;
#X connect 2 0 10 0;
#X connect 3 1 4 0;
#X connect 3 2 5 0;
#X connect 4 0 5 1;
#X connect 4 0 7 1;
#X connect 4 0 11 0;
#X connect 5 0 4 1;
#X connect 6 0 16 0;
#X connect 6 0 22 0;
#X connect 7 0 21 0;
#X connect 7 0 23 0;
#X connect 12 0 5 1;
#X connect 13 0 0 1;
#X connect 14 0 18 0;
#X connect 15 0 3 0;
#X connect 15 1 1 0;
#X connect 17 0 19 0;
#X connect 18 0 15 0;
#X connect 19 0 18 1;
#X connect 19 1 20 0;
#X connect 20 0 13 0;
#X connect 20 0 12 0;
#X connect 20 1 6 0;
#X connect 20 1 7 0;
#X connect 22 0 25 0;
#X connect 23 0 22 0;
#X connect 23 1 22 1;
#X connect 25 0 24 0;
#X restore 100 243 pd calib;
#X obj 136 334 - 0.1;
#X obj 150 279 t b a;
#N canvas 47 74 450 300 limiter 0;
#X obj 62 191 *~;
#X obj 92 69 env~;
#X obj 92 91 dbtorms;
#X obj 92 135 -;
#X obj 92 157 lop~ 20;
#X msg 92 113 1 \$1;
#X obj 62 4 inlet~;
#X obj 62 266 outlet~;
#X connect 0 0 7 0;
#X connect 1 0 2 0;
#X connect 2 0 5 0;
#X connect 3 0 4 0;
#X connect 4 0 0 1;
#X connect 5 0 3 0;
#X connect 6 0 1 0;
#X connect 6 0 0 0;
#X restore 234 586 pd limiter;
#X obj 238 548 clip~ -1 1;
#X obj 398 398 loadbang;
#X connect 0 0 6 0;
#X connect 0 1 7 0;
#X connect 1 0 65 1;
#X connect 1 0 71 0;
#X connect 1 0 74 0;
#X connect 2 0 3 0;
#X connect 3 0 5 0;
#X connect 4 0 23 0;
#X connect 4 0 66 1;
#X connect 4 0 72 0;
#X connect 5 0 1 0;
#X connect 5 0 4 0;
#X connect 6 0 1 0;
#X connect 7 0 4 0;
#X connect 8 0 11 1;
#X connect 11 0 78 0;
#X connect 12 0 11 0;
#X connect 13 0 11 1;
#X connect 14 0 11 2;
#X connect 18 0 10 0;
#X connect 18 0 10 1;
#X connect 19 0 18 1;
#X connect 20 0 19 0;
#X connect 21 0 20 0;
#X connect 22 0 19 0;
#X connect 23 1 70 0;
#X connect 23 2 73 0;
#X connect 24 0 27 0;
#X connect 25 0 30 0;
#X connect 26 0 25 0;
#X connect 27 0 67 0;
#X connect 27 1 50 0;
#X connect 27 2 26 0;
#X connect 29 0 44 0;
#X connect 30 0 29 0;
#X connect 32 0 25 0;
#X connect 33 0 25 0;
#X connect 36 0 25 0;
#X connect 37 0 25 0;
#X connect 38 0 25 0;
#X connect 42 0 11 0;
#X connect 43 0 23 1;
#X connect 43 0 74 1;
#X connect 44 0 34 0;
#X connect 44 1 35 0;
#X connect 44 2 39 0;
#X connect 44 3 40 0;
#X connect 44 4 41 0;
#X connect 44 5 46 0;
#X connect 45 0 25 0;
#X connect 47 0 11 3;
#X connect 48 0 22 0;
#X connect 50 0 32 0;
#X connect 50 1 33 0;
#X connect 50 2 38 0;
#X connect 50 3 45 0;
#X connect 50 4 36 0;
#X connect 50 5 37 0;
#X connect 51 0 52 0;
#X connect 51 1 53 0;
#X connect 51 2 54 0;
#X connect 51 3 55 0;
#X connect 51 4 56 0;
#X connect 51 5 57 0;
#X connect 51 6 58 0;
#X connect 51 7 59 0;
#X connect 51 8 60 0;
#X connect 52 0 25 0;
#X connect 53 0 25 0;
#X connect 54 0 25 0;
#X connect 55 0 25 0;
#X connect 56 0 25 0;
#X connect 57 0 25 0;
#X connect 58 0 25 0;
#X connect 59 0 25 0;
#X connect 60 0 25 0;
#X connect 61 0 25 0;
#X connect 62 0 25 0;
#X connect 63 0 25 0;
#X connect 64 0 65 0;
#X connect 64 0 66 0;
#X connect 65 0 62 0;
#X connect 66 0 63 0;
#X connect 67 0 64 0;
#X connect 70 0 72 1;
#X connect 71 0 8 0;
#X connect 72 0 9 0;
#X connect 73 0 70 0;
#X connect 73 1 70 1;
#X connect 74 1 75 0;
#X connect 74 2 76 0;
#X connect 75 0 71 1;
#X connect 76 0 75 0;
#X connect 76 1 75 1;
#X connect 77 0 18 0;
#X connect 78 0 77 0;
#X connect 79 0 14 0;
