#N canvas 47 74 812 704 12;
#X obj 113 105 r~ \$0-fb1;
#X obj 47 83 *~ 1;
#X obj 218 39 sig~ 1;
#X obj 218 61 *~;
#X obj 219 133 vd~ \$0-wg1, f 12;
#X obj 220 205 s~ \$0-fb1;
#X obj 218 85 *~ 10;
#X obj 220 181 *~ 0.999;
#X obj 219 109 +~ 2;
#X obj 47 61 clone stringSynth.cl 8;
#X obj 45 132 delwrite~ \$0-wg1 100;
#X obj 173 280 *~ 1;
#X obj 173 313 outlet~;
#X obj 48 17 inlet;
#X obj 46 105 hip~ 150;
#X obj 220 157 lop~ 1000;
#X connect 0 0 10 0;
#X connect 1 0 14 0;
#X connect 2 0 3 0;
#X connect 2 0 3 1;
#X connect 3 0 6 0;
#X connect 4 0 11 0;
#X connect 4 0 15 0;
#X connect 6 0 8 0;
#X connect 7 0 5 0;
#X connect 8 0 4 0;
#X connect 9 0 1 0;
#X connect 11 0 12 0;
#X connect 13 0 9 0;
#X connect 14 0 10 0;
#X connect 15 0 7 0;
