#N canvas 106 23 1174 755 12;
#X obj 42 979 s controller_message;
#X obj 60 476 s modeall;
#X obj 106 141 tgl 12 0 empty empty callResponce\ running 20 6 0 14 #ffffff #000000 #000000 0 1;
#X obj 121 387 sel 1 0;
#X msg 59 445 4;
#X obj 136 940 spigot;
#X obj 106 194 tgl 19 0 empty empty stop\ the\ sequence! 25 10 0 12 #fcfcfc #000000 #000000 0 1;
#X text 137 158 this will autostart;
#X text 138 174 entire sequence;
#X obj 304 250 - 1;
#X obj 304 274 abs;
#X msg 127 442 0;
#X obj 35 289 spigot 1;
#X obj 111 41 r resetsignal;
#X msg 164 443 1;
#X obj 417 309 bng 19 250 50 0 empty empty empty 0 -10 0 12 #fcfcfc #000000 #000000;
#X obj 464 385 spigot;
#X obj 34 321 t a a a;
#X obj 91 262 tgl 19 0 empty empty empty 0 -10 0 12 #fcfcfc #000000 #000000 0 1;
#X msg 203 320 1;
#X obj 34 349 sel 1;
#X msg 111 64 set 0;
#X obj 255 235 t a a;
#X obj 255 259 sel 1;
#X obj 515 386 bng 19 250 50 0 empty empty empty 0 -10 0 12 #fcfcfc #000000 #000000;
#X obj 618 474 bng 19 250 50 0 empty empty empty 0 -10 0 12 #fcfcfc #000000 #000000;
#X obj 618 572 bng 19 250 50 0 empty empty empty 0 -10 0 12 #fcfcfc #000000 #000000;
#X obj 647 674 bng 19 250 50 0 empty empty empty 0 -10 0 12 #fcfcfc #000000 #000000;
#X obj 654 760 bng 19 250 50 0 empty empty empty 0 -10 0 12 #fcfcfc #000000 #000000;
#X obj 663 852 bng 19 250 50 0 empty empty empty 0 -10 0 12 #fcfcfc #000000 #000000;
#X obj 654 932 bng 19 250 50 0 empty empty empty 0 -10 0 12 #fcfcfc #000000 #000000;
#X obj 566 472 spigot;
#X obj 502 360 r \$0-cr;
#X obj 604 447 r \$0-cr;
#X obj 304 299 s \$0-cr;
#X obj 564 570 spigot;
#X obj 602 545 r \$0-cr;
#X obj 593 674 spigot;
#X obj 631 649 r \$0-cr;
#X obj 599 760 spigot;
#X obj 637 735 r \$0-cr;
#X obj 611 854 spigot;
#X obj 649 829 r \$0-cr;
#X obj 602 930 spigot;
#X obj 640 905 r \$0-cr;
#X obj 1087 1172 s \$0-crend;
#X obj 349 211 r \$0-crend;
#X msg 349 235 1;
#X msg 383 333 1;
#X msg 464 411 2;
#X obj 1017 533 t a;
#X msg 567 498 3;
#X msg 564 597 4;
#X msg 593 702 5;
#X msg 601 785 6;
#X msg 613 878 7;
#X msg 604 956 8;
#X msg 159 64 1;
#X obj 319 11 inlet;
#X msg 320 63 1;
#X obj 37 188 sel 0;
#X msg 37 214 1;
#X msg 236 322 set 0;
#X obj 205 294 t b b b;
#X msg 255 378 0;
#X obj 70 1009 s voiceMessage;
#X obj 663 1016 bng 19 250 50 0 empty empty empty 0 -10 0 12 #fcfcfc #000000 #000000;
#X obj 611 1014 spigot;
#X obj 649 989 r \$0-cr;
#X msg 613 1040 9;
#X obj 228 907 tgl 19 0 empty empty empty 0 -10 0 12 #fcfcfc #000000 #000000 0 1;
#N canvas 152 23 856 680 wplayer 0;
#X obj 64 644 outlet;
#X obj 81 8 inlet;
#X obj 80 74 t b b b;
#X obj 108 47 bng 19 250 50 0 empty empty empty 0 -10 0 12 #fcfcfc #000000 #000000;
#X obj 751 624 outlet;
#X obj 485 115 del 1500;
#X obj 714 115 del 2500;
#X obj 635 115 del 1300;
#X obj 184 113 del 1200;
#X obj 341 115 del 1200;
#X obj 415 116 del 1300;
#X msg 56 152 all group2 loadfile end_W_1_l.wav;
#X msg 92 183 all group3 loadfile end_W_2_m.wav;
#X msg 170 211 all group4 loadfile end_W_3_a.wav;
#X msg 254 238 all group5 loadfile end_W_4_l.wav;
#X msg 328 267 all group6 loadfile end_W_5_a.wav;
#X msg 404 299 all group1 loadfile end_W_6_m.wav;
#X msg 472 331 all group3 loadfile end_W_7_l.wav;
#X msg 539 361 all group5 loadfile end_W_8_a.wav;
#X msg 677 436 all group4 loadfile end_Q_1.wav;
#X obj 104 114 del 3000;
#X obj 562 116 del 1800;
#X msg 598 404 all group2 loadfile end_W_9_m.wav;
#X obj 265 113 del 1300;
#X obj 782 116 del 3500;
#X connect 1 0 2 0;
#X connect 2 0 11 0;
#X connect 2 1 20 0;
#X connect 3 0 2 0;
#X connect 5 0 17 0;
#X connect 5 0 21 0;
#X connect 6 0 19 0;
#X connect 6 0 24 0;
#X connect 7 0 6 0;
#X connect 7 0 22 0;
#X connect 8 0 13 0;
#X connect 8 0 23 0;
#X connect 9 0 10 0;
#X connect 9 0 15 0;
#X connect 10 0 5 0;
#X connect 10 0 16 0;
#X connect 11 0 0 0;
#X connect 12 0 0 0;
#X connect 13 0 0 0;
#X connect 14 0 0 0;
#X connect 15 0 0 0;
#X connect 16 0 0 0;
#X connect 17 0 0 0;
#X connect 18 0 0 0;
#X connect 19 0 0 0;
#X connect 20 0 8 0;
#X connect 20 0 12 0;
#X connect 21 0 7 0;
#X connect 21 0 18 0;
#X connect 22 0 0 0;
#X connect 23 0 9 0;
#X connect 23 0 14 0;
#X connect 24 0 4 0;
#X restore 712 1123 pd wplayer;
#X obj 709 1100 bng 19 250 50 0 empty empty empty 0 -10 0 12 #fcfcfc #000000 #000000;
#X obj 657 1098 spigot;
#X obj 695 1073 r \$0-cr;
#X msg 659 1124 10;
#X obj 105 111 hradio 19 1 0 11 empty empty empty 0 -10 0 12 #fcfcfc #000000 #000000 0;
#X obj 383 357 bng 19 250 50 0 empty empty empty 0 -10 0 12 #fcfcfc #000000 #000000;
#X obj 464 435 bng 19 250 50 0 empty empty empty 0 -10 0 12 #fcfcfc #000000 #000000;
#X obj 567 522 bng 19 250 50 0 empty empty empty 0 -10 0 12 #fcfcfc #000000 #000000;
#X obj 564 621 bng 19 250 50 0 empty empty empty 0 -10 0 12 #fcfcfc #000000 #000000;
#X obj 593 726 bng 19 250 50 0 empty empty empty 0 -10 0 12 #fcfcfc #000000 #000000;
#X obj 601 809 bng 19 250 50 0 empty empty empty 0 -10 0 12 #fcfcfc #000000 #000000;
#X obj 613 902 bng 19 250 50 0 empty empty empty 0 -10 0 12 #fcfcfc #000000 #000000;
#X obj 604 980 bng 19 250 50 0 empty empty empty 0 -10 0 12 #fcfcfc #000000 #000000;
#X obj 613 1064 bng 19 250 50 0 empty empty empty 0 -10 0 12 #fcfcfc #000000 #000000;
#X obj 659 1148 bng 19 250 50 0 empty empty empty 0 -10 0 12 #fcfcfc #000000 #000000;
#X obj 571 360 del 500;
#X obj 668 440 del 1500;
#X obj 726 635 del 2000;
#X obj 757 985 del 2000;
#X obj 750 729 del 2500;
#X obj 757 819 del 2000;
#X obj 713 533 del 2800;
#X obj 766 1076 del 1300;
#X obj 24 420 s startRec;
#X obj 852 1165 outlet;
#X obj 33 374 del 500;
#N canvas 68 97 1012 677 voicePlayer_a 0;
#X obj 141 546 outlet;
#X obj 81 8 inlet;
#X obj 765 608 outlet;
#X obj 85 85 t b b b;
#X obj 108 47 bng 19 250 50 0 empty empty empty 0 -10 0 12 #fcfcfc #000000 #000000;
#X obj 592 395 list append wisper;
#X obj 424 396 list append wisper;
#X obj 478 362 gate 3 1;
#X obj 766 395 list append wisper;
#X obj 424 423 list append end_a_n_2.wav;
#X obj 592 423 list append end_a_n_1.wav;
#X obj 759 424 list append end_a_n_3.wav;
#X obj 127 129 del 9500;
#X obj 336 134 del 1200;
#X msg 43 319 all group1 loadfile end_a_c.wav;
#X msg 122 355 all group2 loadfile end_a_r.wav;
#X obj 545 183 r id_list;
#X obj 544 210 zl scramble;
#X obj 529 304 zl nth;
#X msg 596 235 set 0;
#X obj 595 260 counter;
#X obj 529 280 list;
#X obj 596 306 t b a;
#X obj 596 283 + 1;
#X obj 451 297 random 50;
#X obj 530 333 t a b;
#X obj 451 321 % 3;
#X obj 452 343 + 1;
#X obj 653 185 bng 19 250 50 0 empty empty empty 0 -10 0 12 #fcfcfc #000000 #000000;
#N canvas 91 23 907 734 whisperTimer 0;
#X obj 125 25 inlet;
#X obj 111 656 outlet;
#X obj 126 50 t b b;
#X obj 163 73 del 300;
#X obj 178 107 del 300;
#X obj 207 143 del 300;
#X obj 227 183 del 300;
#X obj 248 227 del 300;
#X obj 265 264 del 300;
#X obj 294 300 del 300;
#X obj 314 340 del 300;
#X obj 334 376 del 300;
#X obj 351 413 del 300;
#X obj 380 449 del 300;
#X obj 400 489 del 300;
#X obj 421 533 del 300;
#X obj 438 570 del 300;
#X obj 467 606 del 300;
#X obj 484 634 del 300;
#X obj 487 680 outlet;
#X connect 0 0 2 0;
#X connect 2 0 1 0;
#X connect 2 1 3 0;
#X connect 3 0 1 0;
#X connect 3 0 4 0;
#X connect 4 0 1 0;
#X connect 4 0 5 0;
#X connect 5 0 6 0;
#X connect 5 0 1 0;
#X connect 6 0 7 0;
#X connect 6 0 1 0;
#X connect 7 0 8 0;
#X connect 7 0 1 0;
#X connect 8 0 9 0;
#X connect 8 0 1 0;
#X connect 9 0 10 0;
#X connect 9 0 1 0;
#X connect 10 0 11 0;
#X connect 10 0 1 0;
#X connect 11 0 12 0;
#X connect 11 0 1 0;
#X connect 12 0 13 0;
#X connect 12 0 1 0;
#X connect 13 0 14 0;
#X connect 13 0 1 0;
#X connect 14 0 15 0;
#X connect 14 0 1 0;
#X connect 15 0 16 0;
#X connect 15 0 1 0;
#X connect 16 0 17 0;
#X connect 16 0 1 0;
#X connect 17 0 18 0;
#X connect 17 0 1 0;
#X connect 18 0 1 0;
#X restore 937 98 pd whisperTimer;
#N canvas 393 23 907 734 whisperTimer_a 0;
#X obj 125 25 inlet;
#X obj 111 656 outlet;
#X obj 126 50 t b b;
#X obj 487 680 outlet;
#X obj 227 183 del 800;
#X obj 163 73 del 500;
#X obj 178 107 del 600;
#X obj 207 143 del 500;
#X obj 296 300 del 1300;
#X obj 266 264 del 1000;
#X obj 248 227 del 700;
#X connect 0 0 2 0;
#X connect 2 0 1 0;
#X connect 2 1 5 0;
#X connect 4 0 1 0;
#X connect 4 0 10 0;
#X connect 5 0 1 0;
#X connect 5 0 6 0;
#X connect 6 0 1 0;
#X connect 6 0 7 0;
#X connect 7 0 1 0;
#X connect 7 0 4 0;
#X connect 8 0 1 0;
#X connect 8 0 3 0;
#X connect 9 0 1 0;
#X connect 9 0 8 0;
#X connect 10 0 1 0;
#X connect 10 0 9 0;
#X restore 654 160 pd whisperTimer_a;
#X connect 1 0 3 0;
#X connect 3 0 14 0;
#X connect 3 1 12 0;
#X connect 3 2 19 0;
#X connect 4 0 3 0;
#X connect 5 0 10 0;
#X connect 6 0 9 0;
#X connect 7 0 6 0;
#X connect 7 1 5 0;
#X connect 7 2 8 0;
#X connect 8 0 11 0;
#X connect 9 0 0 0;
#X connect 10 0 0 0;
#X connect 11 0 0 0;
#X connect 12 0 13 0;
#X connect 12 0 15 0;
#X connect 13 0 30 0;
#X connect 14 0 0 0;
#X connect 15 0 0 0;
#X connect 16 0 17 0;
#X connect 17 0 21 1;
#X connect 18 0 25 0;
#X connect 19 0 20 0;
#X connect 20 0 23 0;
#X connect 21 0 18 0;
#X connect 22 0 21 0;
#X connect 22 1 18 1;
#X connect 23 0 22 0;
#X connect 24 0 26 0;
#X connect 25 0 7 1;
#X connect 25 1 24 0;
#X connect 26 0 27 0;
#X connect 27 0 7 0;
#X connect 28 0 20 0;
#X connect 30 0 28 0;
#X connect 30 1 2 0;
#X restore 423 338 pd voicePlayer_a;
#X f 35;
#N canvas 45 102 1012 677 voicePlayer_b 0;
#X obj 141 546 outlet;
#X obj 81 8 inlet;
#X obj 765 608 outlet;
#X obj 85 85 t b b b;
#X obj 108 47 bng 19 250 50 0 empty empty empty 0 -10 0 12 #fcfcfc #000000 #000000;
#X obj 592 395 list append wisper;
#X obj 404 398 list append wisper;
#X obj 478 362 gate 3 1;
#X obj 786 392 list append wisper;
#X obj 336 134 del 1200;
#X obj 545 183 r id_list;
#X obj 544 210 zl scramble;
#X obj 529 304 zl nth;
#X msg 596 235 set 0;
#X obj 595 260 counter;
#X obj 529 280 list;
#X obj 596 306 t b a;
#X obj 596 283 + 1;
#X obj 451 297 random 50;
#X obj 530 333 t a b;
#X obj 451 321 % 3;
#X obj 452 343 + 1;
#X obj 653 185 bng 19 250 50 0 empty empty empty 0 -10 0 12 #fcfcfc #000000 #000000;
#N canvas 91 23 907 734 whisperTimer 0;
#X obj 125 25 inlet;
#X obj 111 656 outlet;
#X obj 126 50 t b b;
#X obj 163 73 del 300;
#X obj 178 107 del 300;
#X obj 207 143 del 300;
#X obj 227 183 del 300;
#X obj 248 227 del 300;
#X obj 265 264 del 300;
#X obj 294 300 del 300;
#X obj 314 340 del 300;
#X obj 334 376 del 300;
#X obj 351 413 del 300;
#X obj 380 449 del 300;
#X obj 400 489 del 300;
#X obj 421 533 del 300;
#X obj 438 570 del 300;
#X obj 467 606 del 300;
#X obj 484 634 del 300;
#X obj 487 680 outlet;
#X connect 0 0 2 0;
#X connect 2 0 1 0;
#X connect 2 1 3 0;
#X connect 3 0 1 0;
#X connect 3 0 4 0;
#X connect 4 0 1 0;
#X connect 4 0 5 0;
#X connect 5 0 6 0;
#X connect 5 0 1 0;
#X connect 6 0 7 0;
#X connect 6 0 1 0;
#X connect 7 0 8 0;
#X connect 7 0 1 0;
#X connect 8 0 9 0;
#X connect 8 0 1 0;
#X connect 9 0 10 0;
#X connect 9 0 1 0;
#X connect 10 0 11 0;
#X connect 10 0 1 0;
#X connect 11 0 12 0;
#X connect 11 0 1 0;
#X connect 12 0 13 0;
#X connect 12 0 1 0;
#X connect 13 0 14 0;
#X connect 13 0 1 0;
#X connect 14 0 15 0;
#X connect 14 0 1 0;
#X connect 15 0 16 0;
#X connect 15 0 1 0;
#X connect 16 0 17 0;
#X connect 16 0 1 0;
#X connect 17 0 18 0;
#X connect 17 0 1 0;
#X connect 18 0 1 0;
#X restore 937 98 pd whisperTimer;
#X obj 127 129 del 8800;
#X msg 43 319 all group3 loadfile end_b_c.wav;
#X msg 122 355 all group4 loadfile end_b_r.wav;
#X obj 404 425 list append end_b_n_2.wav;
#X obj 592 423 list append end_b_n_1.wav;
#X obj 779 421 list append end_b_n_3.wav;
#N canvas 91 23 907 734 whisperTimer_b 0;
#X obj 125 25 inlet;
#X obj 111 656 outlet;
#X obj 126 50 t b b;
#X obj 248 227 del 300;
#X obj 265 264 del 300;
#X obj 294 300 del 300;
#X obj 314 340 del 300;
#X obj 334 376 del 300;
#X obj 351 413 del 300;
#X obj 380 449 del 300;
#X obj 400 489 del 300;
#X obj 421 533 del 300;
#X obj 438 570 del 300;
#X obj 467 606 del 300;
#X obj 484 634 del 300;
#X obj 487 680 outlet;
#X obj 227 183 del 1000;
#X obj 163 73 del 800;
#X obj 207 143 del 950;
#X obj 178 107 del 900;
#X connect 0 0 2 0;
#X connect 2 0 1 0;
#X connect 2 1 17 0;
#X connect 3 0 4 0;
#X connect 3 0 1 0;
#X connect 4 0 5 0;
#X connect 4 0 1 0;
#X connect 5 0 6 0;
#X connect 5 0 1 0;
#X connect 6 0 7 0;
#X connect 6 0 1 0;
#X connect 7 0 1 0;
#X connect 7 0 8 0;
#X connect 8 0 9 0;
#X connect 8 0 1 0;
#X connect 9 0 10 0;
#X connect 9 0 1 0;
#X connect 10 0 11 0;
#X connect 10 0 1 0;
#X connect 11 0 12 0;
#X connect 11 0 1 0;
#X connect 12 0 13 0;
#X connect 12 0 1 0;
#X connect 13 0 14 0;
#X connect 13 0 1 0;
#X connect 14 0 1 0;
#X connect 16 0 1 0;
#X connect 16 0 15 0;
#X connect 17 0 1 0;
#X connect 17 0 19 0;
#X connect 18 0 1 0;
#X connect 18 0 16 0;
#X connect 19 0 1 0;
#X connect 19 0 18 0;
#X restore 665 151 pd whisperTimer_b;
#X obj 665 115 bng 19 250 50 0 empty empty empty 0 -10 0 12 #fcfcfc #000000 #000000;
#X connect 1 0 3 0;
#X connect 3 0 25 0;
#X connect 3 1 24 0;
#X connect 3 2 13 0;
#X connect 4 0 3 0;
#X connect 5 0 28 0;
#X connect 6 0 27 0;
#X connect 7 0 6 0;
#X connect 7 1 5 0;
#X connect 7 2 8 0;
#X connect 8 0 29 0;
#X connect 9 0 30 0;
#X connect 10 0 11 0;
#X connect 11 0 15 1;
#X connect 12 0 19 0;
#X connect 13 0 14 0;
#X connect 14 0 17 0;
#X connect 15 0 12 0;
#X connect 16 0 15 0;
#X connect 16 1 12 1;
#X connect 17 0 16 0;
#X connect 18 0 20 0;
#X connect 19 0 7 1;
#X connect 19 1 18 0;
#X connect 20 0 21 0;
#X connect 21 0 7 0;
#X connect 22 0 14 0;
#X connect 24 0 9 0;
#X connect 24 0 26 0;
#X connect 25 0 0 0;
#X connect 26 0 0 0;
#X connect 27 0 0 0;
#X connect 28 0 0 0;
#X connect 29 0 0 0;
#X connect 30 0 22 0;
#X connect 30 1 2 0;
#X connect 31 0 30 0;
#X restore 515 412 pd voicePlayer_b;
#X f 35;
#N canvas 45 101 1012 677 voicePlayer_c 0;
#X obj 141 546 outlet;
#X obj 81 8 inlet;
#X obj 765 608 outlet;
#X obj 85 85 t b b b;
#X obj 108 47 bng 19 250 50 0 empty empty empty 0 -10 0 12 #fcfcfc #000000 #000000;
#X obj 592 395 list append wisper;
#X obj 404 398 list append wisper;
#X obj 478 362 gate 3 1;
#X obj 786 392 list append wisper;
#X obj 545 183 r id_list;
#X obj 544 210 zl scramble;
#X obj 529 304 zl nth;
#X msg 596 235 set 0;
#X obj 595 260 counter;
#X obj 529 280 list;
#X obj 596 306 t b a;
#X obj 596 283 + 1;
#X obj 451 297 random 50;
#X obj 530 333 t a b;
#X obj 451 321 % 3;
#X obj 452 343 + 1;
#X obj 653 185 bng 19 250 50 0 empty empty empty 0 -10 0 12 #fcfcfc #000000 #000000;
#N canvas 91 23 907 734 whisperTimer 0;
#X obj 125 25 inlet;
#X obj 111 656 outlet;
#X obj 126 50 t b b;
#X obj 163 73 del 300;
#X obj 178 107 del 300;
#X obj 207 143 del 300;
#X obj 227 183 del 300;
#X obj 248 227 del 300;
#X obj 265 264 del 300;
#X obj 294 300 del 300;
#X obj 314 340 del 300;
#X obj 334 376 del 300;
#X obj 351 413 del 300;
#X obj 380 449 del 300;
#X obj 400 489 del 300;
#X obj 421 533 del 300;
#X obj 438 570 del 300;
#X obj 467 606 del 300;
#X obj 484 634 del 300;
#X obj 487 680 outlet;
#X connect 0 0 2 0;
#X connect 2 0 1 0;
#X connect 2 1 3 0;
#X connect 3 0 1 0;
#X connect 3 0 4 0;
#X connect 4 0 1 0;
#X connect 4 0 5 0;
#X connect 5 0 6 0;
#X connect 5 0 1 0;
#X connect 6 0 7 0;
#X connect 6 0 1 0;
#X connect 7 0 8 0;
#X connect 7 0 1 0;
#X connect 8 0 9 0;
#X connect 8 0 1 0;
#X connect 9 0 10 0;
#X connect 9 0 1 0;
#X connect 10 0 11 0;
#X connect 10 0 1 0;
#X connect 11 0 12 0;
#X connect 11 0 1 0;
#X connect 12 0 13 0;
#X connect 12 0 1 0;
#X connect 13 0 14 0;
#X connect 13 0 1 0;
#X connect 14 0 15 0;
#X connect 14 0 1 0;
#X connect 15 0 16 0;
#X connect 15 0 1 0;
#X connect 16 0 17 0;
#X connect 16 0 1 0;
#X connect 17 0 18 0;
#X connect 17 0 1 0;
#X connect 18 0 1 0;
#X restore 937 98 pd whisperTimer;
#X obj 665 115 bng 19 250 50 0 empty empty empty 0 -10 0 12 #fcfcfc #000000 #000000;
#X msg 122 355 all group6 loadfile end_c_r.wav;
#X msg 43 319 all group2 loadfile end_c_c.wav;
#N canvas 91 23 907 734 whisperTimer_c 0;
#X obj 125 25 inlet;
#X obj 111 656 outlet;
#X obj 126 50 t b b;
#X obj 264 226 del 300;
#X obj 281 263 del 300;
#X obj 310 299 del 300;
#X obj 330 339 del 300;
#X obj 350 375 del 300;
#X obj 367 412 del 300;
#X obj 396 448 del 300;
#X obj 416 488 del 300;
#X obj 437 532 del 300;
#X obj 454 569 del 300;
#X obj 483 605 del 300;
#X obj 500 633 del 300;
#X obj 248 677 outlet;
#X obj 178 107 del 900;
#X obj 163 73 del 1500;
#X obj 207 143 del 1800;
#X obj 227 183 del 2000;
#X connect 0 0 2 0;
#X connect 2 0 1 0;
#X connect 2 1 17 0;
#X connect 3 0 4 0;
#X connect 3 0 1 0;
#X connect 4 0 5 0;
#X connect 4 0 1 0;
#X connect 5 0 6 0;
#X connect 5 0 1 0;
#X connect 6 0 7 0;
#X connect 6 0 1 0;
#X connect 7 0 1 0;
#X connect 7 0 8 0;
#X connect 8 0 9 0;
#X connect 8 0 1 0;
#X connect 9 0 10 0;
#X connect 9 0 1 0;
#X connect 10 0 11 0;
#X connect 10 0 1 0;
#X connect 11 0 12 0;
#X connect 11 0 1 0;
#X connect 12 0 13 0;
#X connect 12 0 1 0;
#X connect 13 0 14 0;
#X connect 13 0 1 0;
#X connect 14 0 1 0;
#X connect 16 0 1 0;
#X connect 16 0 18 0;
#X connect 17 0 1 0;
#X connect 17 0 16 0;
#X connect 18 0 1 0;
#X connect 18 0 19 0;
#X connect 19 0 1 0;
#X connect 19 0 15 0;
#X restore 665 151 pd whisperTimer_c;
#X obj 127 129 del 9800;
#X obj 336 134 del 7000;
#X obj 404 425 list append end_c_n_2.wav;
#X obj 592 423 list append end_c_n_1.wav;
#X obj 779 421 list append end_c_n_3.wav;
#X connect 1 0 3 0;
#X connect 3 0 25 0;
#X connect 3 1 27 0;
#X connect 3 2 12 0;
#X connect 4 0 3 0;
#X connect 5 0 30 0;
#X connect 6 0 29 0;
#X connect 7 0 6 0;
#X connect 7 1 5 0;
#X connect 7 2 8 0;
#X connect 8 0 31 0;
#X connect 9 0 10 0;
#X connect 10 0 14 1;
#X connect 11 0 18 0;
#X connect 12 0 13 0;
#X connect 13 0 16 0;
#X connect 14 0 11 0;
#X connect 15 0 14 0;
#X connect 15 1 11 1;
#X connect 16 0 15 0;
#X connect 17 0 19 0;
#X connect 18 0 7 1;
#X connect 18 1 17 0;
#X connect 19 0 20 0;
#X connect 20 0 7 0;
#X connect 21 0 13 0;
#X connect 23 0 26 0;
#X connect 24 0 0 0;
#X connect 25 0 0 0;
#X connect 26 0 21 0;
#X connect 26 1 2 0;
#X connect 27 0 24 0;
#X connect 27 0 28 0;
#X connect 28 0 26 0;
#X connect 29 0 0 0;
#X connect 30 0 0 0;
#X connect 31 0 0 0;
#X restore 614 505 pd voicePlayer_c;
#X f 35;
#N canvas 45 101 1012 677 voicePlayer_d 0;
#X obj 141 546 outlet;
#X obj 81 8 inlet;
#X obj 765 608 outlet;
#X obj 85 85 t b b b;
#X obj 108 47 bng 19 250 50 0 empty empty empty 0 -10 0 12 #fcfcfc #000000 #000000;
#X obj 974 402 list append wisper;
#X obj 786 405 list append wisper;
#X obj 860 369 gate 3 1;
#X obj 1168 399 list append wisper;
#X obj 927 190 r id_list;
#X obj 926 217 zl scramble;
#X obj 911 311 zl nth;
#X msg 978 242 set 0;
#X obj 977 267 counter;
#X obj 911 287 list;
#X obj 978 313 t b a;
#X obj 978 290 + 1;
#X obj 833 304 random 50;
#X obj 912 340 t a b;
#X obj 833 328 % 3;
#X obj 834 350 + 1;
#X obj 1035 192 bng 19 250 50 0 empty empty empty 0 -10 0 12 #fcfcfc #000000 #000000;
#N canvas 91 23 907 734 whisperTimer 0;
#X obj 125 25 inlet;
#X obj 111 656 outlet;
#X obj 126 50 t b b;
#X obj 163 73 del 300;
#X obj 178 107 del 300;
#X obj 207 143 del 300;
#X obj 227 183 del 300;
#X obj 248 227 del 300;
#X obj 265 264 del 300;
#X obj 294 300 del 300;
#X obj 314 340 del 300;
#X obj 334 376 del 300;
#X obj 351 413 del 300;
#X obj 380 449 del 300;
#X obj 400 489 del 300;
#X obj 421 533 del 300;
#X obj 438 570 del 300;
#X obj 467 606 del 300;
#X obj 484 634 del 300;
#X obj 487 680 outlet;
#X connect 0 0 2 0;
#X connect 2 0 1 0;
#X connect 2 1 3 0;
#X connect 3 0 1 0;
#X connect 3 0 4 0;
#X connect 4 0 1 0;
#X connect 4 0 5 0;
#X connect 5 0 6 0;
#X connect 5 0 1 0;
#X connect 6 0 7 0;
#X connect 6 0 1 0;
#X connect 7 0 8 0;
#X connect 7 0 1 0;
#X connect 8 0 9 0;
#X connect 8 0 1 0;
#X connect 9 0 10 0;
#X connect 9 0 1 0;
#X connect 10 0 11 0;
#X connect 10 0 1 0;
#X connect 11 0 12 0;
#X connect 11 0 1 0;
#X connect 12 0 13 0;
#X connect 12 0 1 0;
#X connect 13 0 14 0;
#X connect 13 0 1 0;
#X connect 14 0 15 0;
#X connect 14 0 1 0;
#X connect 15 0 16 0;
#X connect 15 0 1 0;
#X connect 16 0 17 0;
#X connect 16 0 1 0;
#X connect 17 0 18 0;
#X connect 17 0 1 0;
#X connect 18 0 1 0;
#X restore 1117 68 pd whisperTimer;
#X obj 1047 122 bng 19 250 50 0 empty empty empty 0 -10 0 12 #fcfcfc #000000 #000000;
#X obj 672 152 del 3100;
#X msg 43 319 all group2 loadfile end_d_c.wav;
#X msg 521 326 all group6 loadfile end_d_r.wav;
#X obj 786 432 list append end_d_n_2.wav;
#X obj 974 430 list append end_d_n_1.wav;
#X obj 1161 428 list append end_d_n_3.wav;
#X obj 410 401 list append wisper;
#X obj 242 402 list append wisper;
#X obj 296 368 gate 3 1;
#X obj 579 402 list append wisper;
#X obj 410 429 list append end_b_n_1.wav;
#X obj 240 429 list append end_b_n_2.wav;
#X obj 579 430 list append end_b_n_3.wav;
#X obj 411 169 r id_list;
#X obj 410 196 zl scramble;
#X obj 384 293 zl nth;
#X msg 451 224 set 0;
#X obj 450 249 counter;
#X obj 384 269 list;
#X obj 451 295 t b a;
#X obj 451 272 + 1;
#X obj 306 286 random 50;
#X obj 385 322 t a b;
#X obj 306 310 % 3;
#X obj 307 332 + 1;
#N canvas 91 23 907 734 whisperTimer_d1 0;
#X obj 125 25 inlet;
#X obj 111 656 outlet;
#X obj 126 50 t b b;
#X obj 264 226 del 300;
#X obj 281 263 del 300;
#X obj 310 299 del 300;
#X obj 330 339 del 300;
#X obj 350 375 del 300;
#X obj 367 412 del 300;
#X obj 396 448 del 300;
#X obj 416 488 del 300;
#X obj 437 532 del 300;
#X obj 454 569 del 300;
#X obj 483 605 del 300;
#X obj 500 633 del 300;
#X obj 248 677 outlet;
#X obj 178 107 del 900;
#X obj 163 73 del 1500;
#X obj 207 143 del 1000;
#X obj 227 183 del 1200;
#X connect 0 0 2 0;
#X connect 2 0 1 0;
#X connect 2 1 17 0;
#X connect 3 0 4 0;
#X connect 3 0 1 0;
#X connect 4 0 5 0;
#X connect 4 0 1 0;
#X connect 5 0 6 0;
#X connect 5 0 1 0;
#X connect 6 0 7 0;
#X connect 6 0 1 0;
#X connect 7 0 1 0;
#X connect 7 0 8 0;
#X connect 8 0 9 0;
#X connect 8 0 1 0;
#X connect 9 0 10 0;
#X connect 9 0 1 0;
#X connect 10 0 11 0;
#X connect 10 0 1 0;
#X connect 11 0 12 0;
#X connect 11 0 1 0;
#X connect 12 0 13 0;
#X connect 12 0 1 0;
#X connect 13 0 14 0;
#X connect 13 0 1 0;
#X connect 14 0 1 0;
#X connect 16 0 1 0;
#X connect 16 0 18 0;
#X connect 17 0 1 0;
#X connect 17 0 16 0;
#X connect 18 0 1 0;
#X connect 18 0 19 0;
#X connect 19 0 1 0;
#X connect 19 0 15 0;
#X restore 270 197 pd whisperTimer_d1;
#X obj 425 228 bng 19 250 50 0 empty empty empty 0 -10 0 12 #fcfcfc #000000 #000000;
#N canvas 91 23 907 734 whisperTimer_d2 0;
#X obj 125 25 inlet;
#X obj 111 656 outlet;
#X obj 126 50 t b b;
#X obj 310 299 del 300;
#X obj 330 339 del 300;
#X obj 350 375 del 300;
#X obj 367 412 del 300;
#X obj 396 448 del 300;
#X obj 416 488 del 300;
#X obj 437 532 del 300;
#X obj 454 569 del 300;
#X obj 483 605 del 300;
#X obj 500 633 del 300;
#X obj 248 677 outlet;
#X obj 178 107 del 900;
#X obj 207 143 del 800;
#X obj 281 263 del 1300;
#X obj 227 183 del 700;
#X obj 163 73 del 700;
#X obj 264 226 del 900;
#X connect 0 0 2 0;
#X connect 2 0 1 0;
#X connect 2 1 18 0;
#X connect 3 0 4 0;
#X connect 3 0 1 0;
#X connect 4 0 5 0;
#X connect 4 0 1 0;
#X connect 5 0 1 0;
#X connect 5 0 6 0;
#X connect 6 0 7 0;
#X connect 6 0 1 0;
#X connect 7 0 8 0;
#X connect 7 0 1 0;
#X connect 8 0 9 0;
#X connect 8 0 1 0;
#X connect 9 0 10 0;
#X connect 9 0 1 0;
#X connect 10 0 11 0;
#X connect 10 0 1 0;
#X connect 11 0 12 0;
#X connect 11 0 1 0;
#X connect 12 0 1 0;
#X connect 14 0 1 0;
#X connect 14 0 15 0;
#X connect 15 0 1 0;
#X connect 15 0 17 0;
#X connect 16 0 1 0;
#X connect 16 0 13 0;
#X connect 17 0 1 0;
#X connect 17 0 19 0;
#X connect 18 0 1 0;
#X connect 18 0 14 0;
#X connect 19 0 1 0;
#X connect 19 0 16 0;
#X restore 1047 158 pd whisperTimer_d2;
#X obj 127 177 del 5200;
#X obj 613 266 del 1000;
#X obj 544 230 del 1;
#X connect 1 0 3 0;
#X connect 3 0 54 0;
#X connect 3 2 12 0;
#X connect 4 0 3 0;
#X connect 5 0 28 0;
#X connect 6 0 27 0;
#X connect 7 0 6 0;
#X connect 7 1 5 0;
#X connect 7 2 8 0;
#X connect 8 0 29 0;
#X connect 9 0 10 0;
#X connect 10 0 14 1;
#X connect 11 0 18 0;
#X connect 12 0 13 0;
#X connect 13 0 16 0;
#X connect 14 0 11 0;
#X connect 15 0 14 0;
#X connect 15 1 11 1;
#X connect 16 0 15 0;
#X connect 17 0 19 0;
#X connect 18 0 7 1;
#X connect 18 1 17 0;
#X connect 19 0 20 0;
#X connect 20 0 7 0;
#X connect 21 0 13 0;
#X connect 23 0 51 0;
#X connect 24 0 51 0;
#X connect 25 0 0 0;
#X connect 26 0 0 0;
#X connect 27 0 0 0;
#X connect 28 0 0 0;
#X connect 29 0 0 0;
#X connect 30 0 34 0;
#X connect 31 0 35 0;
#X connect 32 0 31 0;
#X connect 32 1 30 0;
#X connect 32 2 33 0;
#X connect 33 0 36 0;
#X connect 34 0 0 0;
#X connect 35 0 0 0;
#X connect 36 0 0 0;
#X connect 37 0 38 0;
#X connect 38 0 42 1;
#X connect 39 0 46 0;
#X connect 40 0 41 0;
#X connect 41 0 44 0;
#X connect 42 0 39 0;
#X connect 43 0 42 0;
#X connect 43 1 39 1;
#X connect 44 0 43 0;
#X connect 45 0 47 0;
#X connect 46 0 32 1;
#X connect 46 1 45 0;
#X connect 47 0 48 0;
#X connect 48 0 32 0;
#X connect 49 0 50 0;
#X connect 50 0 41 0;
#X connect 51 0 21 0;
#X connect 51 1 2 0;
#X connect 52 0 49 0;
#X connect 54 0 26 0;
#X connect 54 0 24 0;
#X restore 609 605 pd voicePlayer_d;
#X f 35;
#N canvas 45 101 1012 677 voicePlayer_ref 0;
#X obj 141 546 outlet;
#X obj 81 8 inlet;
#X obj 765 608 outlet;
#X obj 85 85 t b b b;
#X obj 108 47 bng 19 250 50 0 empty empty empty 0 -10 0 12 #fcfcfc #000000 #000000;
#N canvas 91 23 907 734 whisperTimer 0;
#X obj 125 25 inlet;
#X obj 111 656 outlet;
#X obj 126 50 t b b;
#X obj 163 73 del 300;
#X obj 178 107 del 300;
#X obj 207 143 del 300;
#X obj 227 183 del 300;
#X obj 248 227 del 300;
#X obj 265 264 del 300;
#X obj 294 300 del 300;
#X obj 314 340 del 300;
#X obj 334 376 del 300;
#X obj 351 413 del 300;
#X obj 380 449 del 300;
#X obj 400 489 del 300;
#X obj 421 533 del 300;
#X obj 438 570 del 300;
#X obj 467 606 del 300;
#X obj 484 634 del 300;
#X obj 487 680 outlet;
#X connect 0 0 2 0;
#X connect 2 0 1 0;
#X connect 2 1 3 0;
#X connect 3 0 1 0;
#X connect 3 0 4 0;
#X connect 4 0 1 0;
#X connect 4 0 5 0;
#X connect 5 0 6 0;
#X connect 5 0 1 0;
#X connect 6 0 7 0;
#X connect 6 0 1 0;
#X connect 7 0 8 0;
#X connect 7 0 1 0;
#X connect 8 0 9 0;
#X connect 8 0 1 0;
#X connect 9 0 10 0;
#X connect 9 0 1 0;
#X connect 10 0 11 0;
#X connect 10 0 1 0;
#X connect 11 0 12 0;
#X connect 11 0 1 0;
#X connect 12 0 13 0;
#X connect 12 0 1 0;
#X connect 13 0 14 0;
#X connect 13 0 1 0;
#X connect 14 0 15 0;
#X connect 14 0 1 0;
#X connect 15 0 16 0;
#X connect 15 0 1 0;
#X connect 16 0 17 0;
#X connect 16 0 1 0;
#X connect 17 0 18 0;
#X connect 17 0 1 0;
#X connect 18 0 1 0;
#X restore 937 98 pd whisperTimer;
#X obj 127 129 del 9500;
#X obj 336 134 del 3300;
#X msg 43 319 all group5 loadfile end_ref_c.wav;
#X msg 122 355 all group4 loadfile end_ref_r.wav;
#X connect 1 0 3 0;
#X connect 3 0 8 0;
#X connect 3 1 6 0;
#X connect 4 0 3 0;
#X connect 6 0 9 0;
#X connect 6 0 7 0;
#X connect 7 0 2 0;
#X connect 8 0 0 0;
#X connect 9 0 0 0;
#X restore 641 704 pd voicePlayer_ref;
#X f 35;
#N canvas 45 101 1012 677 voicePlayer_e 0;
#X obj 141 546 outlet;
#X obj 81 8 inlet;
#X obj 765 608 outlet;
#X obj 85 85 t b b b;
#X obj 108 47 bng 19 250 50 0 empty empty empty 0 -10 0 12 #fcfcfc #000000 #000000;
#X obj 592 395 list append wisper;
#X obj 404 398 list append wisper;
#X obj 478 362 gate 3 1;
#X obj 786 392 list append wisper;
#X obj 545 183 r id_list;
#X obj 544 210 zl scramble;
#X obj 529 304 zl nth;
#X msg 596 235 set 0;
#X obj 595 260 counter;
#X obj 529 280 list;
#X obj 596 306 t b a;
#X obj 596 283 + 1;
#X obj 451 297 random 50;
#X obj 530 333 t a b;
#X obj 451 321 % 3;
#X obj 452 343 + 1;
#X obj 653 185 bng 19 250 50 0 empty empty empty 0 -10 0 12 #fcfcfc #000000 #000000;
#X obj 665 115 bng 19 250 50 0 empty empty empty 0 -10 0 12 #fcfcfc #000000 #000000;
#X msg 43 319 all group2 loadfile end_e_c.wav;
#X obj 404 425 list append end_e_n_2.wav;
#X obj 592 423 list append end_e_n_1.wav;
#X obj 779 421 list append end_e_n_3.wav;
#N canvas 91 23 907 734 whisperTimer_e 0;
#X obj 125 25 inlet;
#X obj 111 656 outlet;
#X obj 126 50 t b b;
#X obj 350 375 del 300;
#X obj 367 412 del 300;
#X obj 396 448 del 300;
#X obj 416 488 del 300;
#X obj 437 532 del 300;
#X obj 454 569 del 300;
#X obj 483 605 del 300;
#X obj 500 633 del 300;
#X obj 248 677 outlet;
#X obj 178 107 del 900;
#X obj 163 73 del 1000;
#X obj 207 143 del 800;
#X obj 227 183 del 500;
#X obj 264 226 del 600;
#X obj 281 263 del 1000;
#X obj 310 299 del 1300;
#X obj 330 339 del 1000;
#X connect 0 0 2 0;
#X connect 2 0 1 0;
#X connect 2 1 13 0;
#X connect 3 0 1 0;
#X connect 3 0 4 0;
#X connect 4 0 5 0;
#X connect 4 0 1 0;
#X connect 5 0 6 0;
#X connect 5 0 1 0;
#X connect 6 0 7 0;
#X connect 6 0 1 0;
#X connect 7 0 8 0;
#X connect 7 0 1 0;
#X connect 8 0 9 0;
#X connect 8 0 1 0;
#X connect 9 0 10 0;
#X connect 9 0 1 0;
#X connect 10 0 1 0;
#X connect 12 0 1 0;
#X connect 12 0 14 0;
#X connect 13 0 1 0;
#X connect 13 0 12 0;
#X connect 14 0 1 0;
#X connect 14 0 15 0;
#X connect 15 0 1 0;
#X connect 15 0 16 0;
#X connect 16 0 1 0;
#X connect 16 0 17 0;
#X connect 17 0 1 0;
#X connect 17 0 11 0;
#X connect 18 0 1 0;
#X connect 18 0 19 0;
#X connect 19 0 1 0;
#X restore 666 151 pd whisperTimer_e;
#X obj 127 129 del 5500;
#X obj 336 134 del 3500;
#X msg 122 355 all group1 loadfile end_e_r.wav;
#X connect 1 0 3 0;
#X connect 3 0 23 0;
#X connect 3 1 28 0;
#X connect 3 2 12 0;
#X connect 4 0 3 0;
#X connect 5 0 25 0;
#X connect 6 0 24 0;
#X connect 7 0 6 0;
#X connect 7 1 5 0;
#X connect 7 2 8 0;
#X connect 8 0 26 0;
#X connect 9 0 10 0;
#X connect 10 0 14 1;
#X connect 11 0 18 0;
#X connect 12 0 13 0;
#X connect 13 0 16 0;
#X connect 14 0 11 0;
#X connect 15 0 14 0;
#X connect 15 1 11 1;
#X connect 16 0 15 0;
#X connect 17 0 19 0;
#X connect 18 0 7 1;
#X connect 18 1 17 0;
#X connect 19 0 20 0;
#X connect 20 0 7 0;
#X connect 21 0 13 0;
#X connect 22 0 27 0;
#X connect 23 0 0 0;
#X connect 24 0 0 0;
#X connect 25 0 0 0;
#X connect 26 0 0 0;
#X connect 27 0 21 0;
#X connect 27 1 2 0;
#X connect 28 0 30 0;
#X connect 28 0 29 0;
#X connect 29 0 27 0;
#X connect 30 0 0 0;
#X restore 644 791 pd voicePlayer_e;
#X f 35;
#N canvas 45 101 1012 677 voicePlayer_f 0;
#X obj 141 546 outlet;
#X obj 81 8 inlet;
#X obj 765 608 outlet;
#X obj 85 85 t b b b;
#X obj 108 47 bng 19 250 50 0 empty empty empty 0 -10 0 12 #fcfcfc #000000 #000000;
#X obj 592 395 list append wisper;
#X obj 404 398 list append wisper;
#X obj 478 362 gate 3 1;
#X obj 786 392 list append wisper;
#X obj 545 183 r id_list;
#X obj 544 210 zl scramble;
#X obj 529 304 zl nth;
#X msg 596 235 set 0;
#X obj 595 260 counter;
#X obj 529 280 list;
#X obj 596 306 t b a;
#X obj 596 283 + 1;
#X obj 451 297 random 50;
#X obj 530 333 t a b;
#X obj 451 321 % 3;
#X obj 452 343 + 1;
#X obj 653 185 bng 19 250 50 0 empty empty empty 0 -10 0 12 #fcfcfc #000000 #000000;
#N canvas 91 23 907 734 whisperTimer 0;
#X obj 125 25 inlet;
#X obj 111 656 outlet;
#X obj 126 50 t b b;
#X obj 163 73 del 300;
#X obj 178 107 del 300;
#X obj 207 143 del 300;
#X obj 227 183 del 300;
#X obj 248 227 del 300;
#X obj 265 264 del 300;
#X obj 294 300 del 300;
#X obj 314 340 del 300;
#X obj 334 376 del 300;
#X obj 351 413 del 300;
#X obj 380 449 del 300;
#X obj 400 489 del 300;
#X obj 421 533 del 300;
#X obj 438 570 del 300;
#X obj 467 606 del 300;
#X obj 484 634 del 300;
#X obj 487 680 outlet;
#X connect 0 0 2 0;
#X connect 2 0 1 0;
#X connect 2 1 3 0;
#X connect 3 0 1 0;
#X connect 3 0 4 0;
#X connect 4 0 1 0;
#X connect 4 0 5 0;
#X connect 5 0 6 0;
#X connect 5 0 1 0;
#X connect 6 0 7 0;
#X connect 6 0 1 0;
#X connect 7 0 8 0;
#X connect 7 0 1 0;
#X connect 8 0 9 0;
#X connect 8 0 1 0;
#X connect 9 0 10 0;
#X connect 9 0 1 0;
#X connect 10 0 11 0;
#X connect 10 0 1 0;
#X connect 11 0 12 0;
#X connect 11 0 1 0;
#X connect 12 0 13 0;
#X connect 12 0 1 0;
#X connect 13 0 14 0;
#X connect 13 0 1 0;
#X connect 14 0 15 0;
#X connect 14 0 1 0;
#X connect 15 0 16 0;
#X connect 15 0 1 0;
#X connect 16 0 17 0;
#X connect 16 0 1 0;
#X connect 17 0 18 0;
#X connect 17 0 1 0;
#X connect 18 0 1 0;
#X restore 937 98 pd whisperTimer;
#X obj 665 115 bng 19 250 50 0 empty empty empty 0 -10 0 12 #fcfcfc #000000 #000000;
#N canvas 91 23 907 734 whisperTimer_e 0;
#X obj 125 25 inlet;
#X obj 111 656 outlet;
#X obj 126 50 t b b;
#X obj 350 375 del 300;
#X obj 367 412 del 300;
#X obj 396 448 del 300;
#X obj 416 488 del 300;
#X obj 437 532 del 300;
#X obj 454 569 del 300;
#X obj 483 605 del 300;
#X obj 500 633 del 300;
#X obj 248 677 outlet;
#X obj 178 107 del 900;
#X obj 163 73 del 1000;
#X obj 207 143 del 800;
#X obj 227 183 del 500;
#X obj 264 226 del 600;
#X obj 281 263 del 1000;
#X obj 310 299 del 1300;
#X obj 330 339 del 1000;
#X connect 0 0 2 0;
#X connect 2 0 1 0;
#X connect 2 1 13 0;
#X connect 3 0 1 0;
#X connect 3 0 4 0;
#X connect 4 0 5 0;
#X connect 4 0 1 0;
#X connect 5 0 6 0;
#X connect 5 0 1 0;
#X connect 6 0 7 0;
#X connect 6 0 1 0;
#X connect 7 0 8 0;
#X connect 7 0 1 0;
#X connect 8 0 9 0;
#X connect 8 0 1 0;
#X connect 9 0 10 0;
#X connect 9 0 1 0;
#X connect 10 0 1 0;
#X connect 12 0 1 0;
#X connect 12 0 14 0;
#X connect 13 0 1 0;
#X connect 13 0 12 0;
#X connect 14 0 1 0;
#X connect 14 0 15 0;
#X connect 15 0 1 0;
#X connect 15 0 11 0;
#X connect 16 0 1 0;
#X connect 16 0 17 0;
#X connect 17 0 1 0;
#X connect 18 0 1 0;
#X connect 18 0 19 0;
#X connect 19 0 1 0;
#X restore 666 151 pd whisperTimer_e;
#X obj 127 129 del 6800;
#X obj 336 134 del 1200;
#X obj 850 158 del 1500;
#X msg 43 319 all group4 loadfile end_f_c.wav;
#X msg 850 205 all group1 loadfile end_f_r_4.wav;
#X obj 404 425 list append end_f_r_1.wav;
#X obj 592 423 list append end_f_r_2.wav;
#X obj 780 421 list append end_f_r_3.wav;
#X msg 122 355 all group5 loadfile end_f_r2.wav;
#X connect 1 0 3 0;
#X connect 3 0 28 0;
#X connect 3 1 25 0;
#X connect 3 2 12 0;
#X connect 4 0 3 0;
#X connect 5 0 31 0;
#X connect 6 0 30 0;
#X connect 7 0 6 0;
#X connect 7 1 5 0;
#X connect 7 2 8 0;
#X connect 8 0 32 0;
#X connect 9 0 10 0;
#X connect 10 0 14 1;
#X connect 11 0 18 0;
#X connect 12 0 13 0;
#X connect 13 0 16 0;
#X connect 14 0 11 0;
#X connect 15 0 14 0;
#X connect 15 1 11 1;
#X connect 16 0 15 0;
#X connect 17 0 19 0;
#X connect 18 0 7 1;
#X connect 18 1 17 0;
#X connect 19 0 20 0;
#X connect 20 0 7 0;
#X connect 21 0 13 0;
#X connect 23 0 24 0;
#X connect 24 0 21 0;
#X connect 24 1 27 0;
#X connect 25 0 33 0;
#X connect 25 0 26 0;
#X connect 26 0 24 0;
#X connect 27 0 29 0;
#X connect 27 0 2 0;
#X connect 28 0 0 0;
#X connect 29 0 0 0;
#X connect 30 0 0 0;
#X connect 31 0 0 0;
#X connect 32 0 0 0;
#X connect 33 0 0 0;
#X restore 653 880 pd voicePlayer_f;
#X f 35;
#N canvas 45 101 1012 677 voicePlayer_g 0;
#X obj 141 546 outlet;
#X obj 81 8 inlet;
#X obj 765 608 outlet;
#X obj 85 85 t b b b;
#X obj 108 47 bng 19 250 50 0 empty empty empty 0 -10 0 12 #fcfcfc #000000 #000000;
#X obj 592 395 list append wisper;
#X obj 404 398 list append wisper;
#X obj 478 362 gate 3 1;
#X obj 786 392 list append wisper;
#X obj 545 183 r id_list;
#X obj 544 210 zl scramble;
#X obj 529 304 zl nth;
#X msg 596 235 set 0;
#X obj 595 260 counter;
#X obj 529 280 list;
#X obj 596 306 t b a;
#X obj 596 283 + 1;
#X obj 451 297 random 50;
#X obj 530 333 t a b;
#X obj 451 321 % 3;
#X obj 452 343 + 1;
#X obj 653 185 bng 19 250 50 0 empty empty empty 0 -10 0 12 #fcfcfc #000000 #000000;
#N canvas 91 23 907 734 whisperTimer 0;
#X obj 125 25 inlet;
#X obj 111 656 outlet;
#X obj 126 50 t b b;
#X obj 163 73 del 300;
#X obj 178 107 del 300;
#X obj 207 143 del 300;
#X obj 227 183 del 300;
#X obj 248 227 del 300;
#X obj 265 264 del 300;
#X obj 294 300 del 300;
#X obj 314 340 del 300;
#X obj 334 376 del 300;
#X obj 351 413 del 300;
#X obj 380 449 del 300;
#X obj 400 489 del 300;
#X obj 421 533 del 300;
#X obj 438 570 del 300;
#X obj 467 606 del 300;
#X obj 484 634 del 300;
#X obj 487 680 outlet;
#X connect 0 0 2 0;
#X connect 2 0 1 0;
#X connect 2 1 3 0;
#X connect 3 0 1 0;
#X connect 3 0 4 0;
#X connect 4 0 1 0;
#X connect 4 0 5 0;
#X connect 5 0 6 0;
#X connect 5 0 1 0;
#X connect 6 0 7 0;
#X connect 6 0 1 0;
#X connect 7 0 8 0;
#X connect 7 0 1 0;
#X connect 8 0 9 0;
#X connect 8 0 1 0;
#X connect 9 0 10 0;
#X connect 9 0 1 0;
#X connect 10 0 11 0;
#X connect 10 0 1 0;
#X connect 11 0 12 0;
#X connect 11 0 1 0;
#X connect 12 0 13 0;
#X connect 12 0 1 0;
#X connect 13 0 14 0;
#X connect 13 0 1 0;
#X connect 14 0 15 0;
#X connect 14 0 1 0;
#X connect 15 0 16 0;
#X connect 15 0 1 0;
#X connect 16 0 17 0;
#X connect 16 0 1 0;
#X connect 17 0 18 0;
#X connect 17 0 1 0;
#X connect 18 0 1 0;
#X restore 937 98 pd whisperTimer;
#X obj 665 115 bng 19 250 50 0 empty empty empty 0 -10 0 12 #fcfcfc #000000 #000000;
#X obj 127 129 del 2800;
#X obj 336 134 del 8500;
#X msg 43 319 all group2 loadfile end_g_c.wav;
#X msg 122 355 all group1 loadfile end_g_r.wav;
#X obj 404 425 list append end_g_n_2.wav;
#X obj 592 423 list append end_g_n_1.wav;
#X obj 779 421 list append end_g_n_3.wav;
#N canvas 91 23 907 734 whisperTimer_g 0;
#X obj 125 25 inlet;
#X obj 111 656 outlet;
#X obj 126 50 t b b;
#X obj 350 375 del 300;
#X obj 367 412 del 300;
#X obj 396 448 del 300;
#X obj 416 488 del 300;
#X obj 437 532 del 300;
#X obj 454 569 del 300;
#X obj 483 605 del 300;
#X obj 500 633 del 300;
#X obj 248 677 outlet;
#X obj 178 107 del 900;
#X obj 163 73 del 1000;
#X obj 207 143 del 800;
#X obj 227 183 del 500;
#X obj 264 226 del 600;
#X obj 281 263 del 1000;
#X obj 310 299 del 1300;
#X obj 330 339 del 1000;
#X connect 0 0 2 0;
#X connect 2 0 1 0;
#X connect 2 1 13 0;
#X connect 3 0 1 0;
#X connect 3 0 4 0;
#X connect 4 0 5 0;
#X connect 4 0 1 0;
#X connect 5 0 6 0;
#X connect 5 0 1 0;
#X connect 6 0 7 0;
#X connect 6 0 1 0;
#X connect 7 0 8 0;
#X connect 7 0 1 0;
#X connect 8 0 9 0;
#X connect 8 0 1 0;
#X connect 9 0 10 0;
#X connect 9 0 1 0;
#X connect 10 0 1 0;
#X connect 12 0 1 0;
#X connect 12 0 14 0;
#X connect 13 0 1 0;
#X connect 13 0 12 0;
#X connect 14 0 1 0;
#X connect 14 0 15 0;
#X connect 15 0 1 0;
#X connect 15 0 16 0;
#X connect 16 0 1 0;
#X connect 16 0 17 0;
#X connect 17 0 1 0;
#X connect 17 0 11 0;
#X connect 18 0 1 0;
#X connect 18 0 19 0;
#X connect 19 0 1 0;
#X restore 666 151 pd whisperTimer_g;
#X connect 1 0 3 0;
#X connect 3 0 26 0;
#X connect 3 1 24 0;
#X connect 3 2 12 0;
#X connect 4 0 3 0;
#X connect 5 0 29 0;
#X connect 6 0 28 0;
#X connect 7 0 6 0;
#X connect 7 1 5 0;
#X connect 7 2 8 0;
#X connect 8 0 30 0;
#X connect 9 0 10 0;
#X connect 10 0 14 1;
#X connect 11 0 18 0;
#X connect 12 0 13 0;
#X connect 13 0 16 0;
#X connect 14 0 11 0;
#X connect 15 0 14 0;
#X connect 15 1 11 1;
#X connect 16 0 15 0;
#X connect 17 0 19 0;
#X connect 18 0 7 1;
#X connect 18 1 17 0;
#X connect 19 0 20 0;
#X connect 20 0 7 0;
#X connect 21 0 13 0;
#X connect 23 0 31 0;
#X connect 24 0 27 0;
#X connect 24 0 25 0;
#X connect 25 0 31 0;
#X connect 26 0 0 0;
#X connect 27 0 0 0;
#X connect 28 0 0 0;
#X connect 29 0 0 0;
#X connect 30 0 0 0;
#X connect 31 0 21 0;
#X connect 31 1 2 0;
#X restore 649 960 pd voicePlayer_g;
#X f 35;
#N canvas 45 101 1012 677 voicePlayer_h 0;
#X obj 141 546 outlet;
#X obj 81 8 inlet;
#X obj 765 608 outlet;
#X obj 85 85 t b b b;
#X obj 108 47 bng 19 250 50 0 empty empty empty 0 -10 0 12 #fcfcfc #000000 #000000;
#X msg 43 319 all group5 loadfile end_h_c.wav;
#X obj 127 129 del 4500;
#X obj 336 134 del 1000;
#X msg 122 355 all group2 loadfile end_h_r.wav;
#X connect 1 0 3 0;
#X connect 3 0 5 0;
#X connect 3 1 6 0;
#X connect 4 0 3 0;
#X connect 5 0 0 0;
#X connect 6 0 8 0;
#X connect 6 0 7 0;
#X connect 7 0 2 0;
#X connect 8 0 0 0;
#X restore 650 1042 pd voicePlayer_h;
#X f 35;
#X obj 737 914 del 4000;
#X obj 419 51 s getIDlist;
#X obj 417 30 t b;
#X obj 319 37 del 6000;
#N canvas 45 101 1012 677 voicePlayer_d_ohne 0;
#X obj 141 546 outlet;
#X obj 81 8 inlet;
#X obj 765 608 outlet;
#X obj 85 85 t b b b;
#X obj 108 47 bng 19 250 50 0 empty empty empty 0 -10 0 12 #fcfcfc #000000 #000000;
#X obj 974 402 list append wisper;
#X obj 786 405 list append wisper;
#X obj 860 369 gate 3 1;
#X obj 1168 399 list append wisper;
#X obj 927 190 r id_list;
#X obj 926 217 zl scramble;
#X obj 911 311 zl nth;
#X msg 978 242 set 0;
#X obj 977 267 counter;
#X obj 911 287 list;
#X obj 978 313 t b a;
#X obj 978 290 + 1;
#X obj 833 304 random 50;
#X obj 912 340 t a b;
#X obj 833 328 % 3;
#X obj 834 350 + 1;
#X obj 1035 192 bng 19 250 50 0 empty empty empty 0 -10 0 12 #fcfcfc #000000 #000000;
#N canvas 91 23 907 734 whisperTimer 0;
#X obj 125 25 inlet;
#X obj 111 656 outlet;
#X obj 126 50 t b b;
#X obj 163 73 del 300;
#X obj 178 107 del 300;
#X obj 207 143 del 300;
#X obj 227 183 del 300;
#X obj 248 227 del 300;
#X obj 265 264 del 300;
#X obj 294 300 del 300;
#X obj 314 340 del 300;
#X obj 334 376 del 300;
#X obj 351 413 del 300;
#X obj 380 449 del 300;
#X obj 400 489 del 300;
#X obj 421 533 del 300;
#X obj 438 570 del 300;
#X obj 467 606 del 300;
#X obj 484 634 del 300;
#X obj 487 680 outlet;
#X connect 0 0 2 0;
#X connect 2 0 1 0;
#X connect 2 1 3 0;
#X connect 3 0 1 0;
#X connect 3 0 4 0;
#X connect 4 0 1 0;
#X connect 4 0 5 0;
#X connect 5 0 6 0;
#X connect 5 0 1 0;
#X connect 6 0 7 0;
#X connect 6 0 1 0;
#X connect 7 0 8 0;
#X connect 7 0 1 0;
#X connect 8 0 9 0;
#X connect 8 0 1 0;
#X connect 9 0 10 0;
#X connect 9 0 1 0;
#X connect 10 0 11 0;
#X connect 10 0 1 0;
#X connect 11 0 12 0;
#X connect 11 0 1 0;
#X connect 12 0 13 0;
#X connect 12 0 1 0;
#X connect 13 0 14 0;
#X connect 13 0 1 0;
#X connect 14 0 15 0;
#X connect 14 0 1 0;
#X connect 15 0 16 0;
#X connect 15 0 1 0;
#X connect 16 0 17 0;
#X connect 16 0 1 0;
#X connect 17 0 18 0;
#X connect 17 0 1 0;
#X connect 18 0 1 0;
#X restore 1117 68 pd whisperTimer;
#X obj 1047 122 bng 19 250 50 0 empty empty empty 0 -10 0 12 #fcfcfc #000000 #000000;
#X obj 672 152 del 3100;
#X msg 43 319 all group2 loadfile end_d_c.wav;
#X msg 521 326 all group6 loadfile end_d_r.wav;
#X obj 786 432 list append end_d_n_2.wav;
#X obj 974 430 list append end_d_n_1.wav;
#X obj 1161 428 list append end_d_n_3.wav;
#X obj 410 401 list append wisper;
#X obj 242 402 list append wisper;
#X obj 296 368 gate 3 1;
#X obj 579 402 list append wisper;
#X obj 410 429 list append end_b_n_1.wav;
#X obj 240 429 list append end_b_n_2.wav;
#X obj 579 430 list append end_b_n_3.wav;
#X obj 411 169 r id_list;
#X obj 410 196 zl scramble;
#X obj 384 293 zl nth;
#X msg 451 224 set 0;
#X obj 450 249 counter;
#X obj 384 269 list;
#X obj 451 295 t b a;
#X obj 451 272 + 1;
#X obj 306 286 random 50;
#X obj 385 322 t a b;
#X obj 306 310 % 3;
#X obj 307 332 + 1;
#N canvas 91 23 907 734 whisperTimer_d1 0;
#X obj 125 25 inlet;
#X obj 111 656 outlet;
#X obj 126 50 t b b;
#X obj 264 226 del 300;
#X obj 281 263 del 300;
#X obj 310 299 del 300;
#X obj 330 339 del 300;
#X obj 350 375 del 300;
#X obj 367 412 del 300;
#X obj 396 448 del 300;
#X obj 416 488 del 300;
#X obj 437 532 del 300;
#X obj 454 569 del 300;
#X obj 483 605 del 300;
#X obj 500 633 del 300;
#X obj 248 677 outlet;
#X obj 178 107 del 900;
#X obj 163 73 del 1500;
#X obj 207 143 del 1000;
#X obj 227 183 del 1200;
#X connect 0 0 2 0;
#X connect 2 0 1 0;
#X connect 2 1 17 0;
#X connect 3 0 4 0;
#X connect 3 0 1 0;
#X connect 4 0 5 0;
#X connect 4 0 1 0;
#X connect 5 0 6 0;
#X connect 5 0 1 0;
#X connect 6 0 7 0;
#X connect 6 0 1 0;
#X connect 7 0 1 0;
#X connect 7 0 8 0;
#X connect 8 0 9 0;
#X connect 8 0 1 0;
#X connect 9 0 10 0;
#X connect 9 0 1 0;
#X connect 10 0 11 0;
#X connect 10 0 1 0;
#X connect 11 0 12 0;
#X connect 11 0 1 0;
#X connect 12 0 13 0;
#X connect 12 0 1 0;
#X connect 13 0 14 0;
#X connect 13 0 1 0;
#X connect 14 0 1 0;
#X connect 16 0 1 0;
#X connect 16 0 18 0;
#X connect 17 0 1 0;
#X connect 17 0 16 0;
#X connect 18 0 1 0;
#X connect 18 0 19 0;
#X connect 19 0 1 0;
#X connect 19 0 15 0;
#X restore 270 197 pd whisperTimer_d1;
#X obj 425 228 bng 19 250 50 0 empty empty empty 0 -10 0 12 #fcfcfc #000000 #000000;
#N canvas 91 23 907 734 whisperTimer_d2 0;
#X obj 125 25 inlet;
#X obj 111 656 outlet;
#X obj 126 50 t b b;
#X obj 310 299 del 300;
#X obj 330 339 del 300;
#X obj 350 375 del 300;
#X obj 367 412 del 300;
#X obj 396 448 del 300;
#X obj 416 488 del 300;
#X obj 437 532 del 300;
#X obj 454 569 del 300;
#X obj 483 605 del 300;
#X obj 500 633 del 300;
#X obj 248 677 outlet;
#X obj 178 107 del 900;
#X obj 207 143 del 800;
#X obj 281 263 del 1300;
#X obj 227 183 del 700;
#X obj 163 73 del 700;
#X obj 264 226 del 900;
#X connect 0 0 2 0;
#X connect 2 0 1 0;
#X connect 2 1 18 0;
#X connect 3 0 4 0;
#X connect 3 0 1 0;
#X connect 4 0 5 0;
#X connect 4 0 1 0;
#X connect 5 0 1 0;
#X connect 5 0 6 0;
#X connect 6 0 7 0;
#X connect 6 0 1 0;
#X connect 7 0 8 0;
#X connect 7 0 1 0;
#X connect 8 0 9 0;
#X connect 8 0 1 0;
#X connect 9 0 10 0;
#X connect 9 0 1 0;
#X connect 10 0 11 0;
#X connect 10 0 1 0;
#X connect 11 0 12 0;
#X connect 11 0 1 0;
#X connect 12 0 1 0;
#X connect 14 0 1 0;
#X connect 14 0 15 0;
#X connect 15 0 1 0;
#X connect 15 0 17 0;
#X connect 16 0 1 0;
#X connect 16 0 13 0;
#X connect 17 0 1 0;
#X connect 17 0 19 0;
#X connect 18 0 1 0;
#X connect 18 0 14 0;
#X connect 19 0 1 0;
#X connect 19 0 16 0;
#X restore 1047 158 pd whisperTimer_d2;
#X obj 127 129 del 5200;
#X obj 613 266 del 1000;
#X obj 573 230 del 1;
#X connect 1 0 3 0;
#X connect 3 0 54 0;
#X connect 3 1 52 0;
#X connect 3 2 12 0;
#X connect 3 2 40 0;
#X connect 4 0 3 0;
#X connect 5 0 28 0;
#X connect 6 0 27 0;
#X connect 7 0 6 0;
#X connect 7 1 5 0;
#X connect 7 2 8 0;
#X connect 8 0 29 0;
#X connect 9 0 10 0;
#X connect 10 0 14 1;
#X connect 11 0 18 0;
#X connect 12 0 13 0;
#X connect 13 0 16 0;
#X connect 14 0 11 0;
#X connect 15 0 14 0;
#X connect 15 1 11 1;
#X connect 16 0 15 0;
#X connect 17 0 19 0;
#X connect 18 0 7 1;
#X connect 18 1 17 0;
#X connect 19 0 20 0;
#X connect 20 0 7 0;
#X connect 21 0 13 0;
#X connect 23 0 51 0;
#X connect 24 0 51 0;
#X connect 25 0 0 0;
#X connect 26 0 0 0;
#X connect 27 0 0 0;
#X connect 28 0 0 0;
#X connect 29 0 0 0;
#X connect 30 0 34 0;
#X connect 31 0 35 0;
#X connect 32 0 31 0;
#X connect 32 1 30 0;
#X connect 32 2 33 0;
#X connect 33 0 36 0;
#X connect 34 0 0 0;
#X connect 35 0 0 0;
#X connect 36 0 0 0;
#X connect 37 0 38 0;
#X connect 38 0 42 1;
#X connect 39 0 46 0;
#X connect 40 0 41 0;
#X connect 41 0 44 0;
#X connect 42 0 39 0;
#X connect 43 0 42 0;
#X connect 43 1 39 1;
#X connect 44 0 43 0;
#X connect 45 0 47 0;
#X connect 46 0 32 1;
#X connect 46 1 45 0;
#X connect 47 0 48 0;
#X connect 48 0 32 0;
#X connect 49 0 50 0;
#X connect 50 0 41 0;
#X connect 51 0 21 0;
#X connect 51 1 2 0;
#X connect 52 0 49 0;
#X connect 54 0 26 0;
#X connect 54 0 24 0;
#X restore 993 606 pd voicePlayer_d_ohne;
#X f 35;
#X connect 2 0 12 0;
#X connect 2 0 60 0;
#X connect 3 0 4 0;
#X connect 3 0 11 0;
#X connect 3 1 14 0;
#X connect 4 0 1 0;
#X connect 5 0 0 0;
#X connect 5 0 65 0;
#X connect 6 0 22 0;
#X connect 9 0 10 0;
#X connect 10 0 34 0;
#X connect 11 0 6 0;
#X connect 11 0 18 0;
#X connect 12 0 17 0;
#X connect 13 0 21 0;
#X connect 13 0 57 0;
#X connect 14 0 6 0;
#X connect 15 0 48 0;
#X connect 15 0 98 0;
#X connect 16 0 49 0;
#X connect 16 0 99 0;
#X connect 17 0 20 0;
#X connect 17 1 5 1;
#X connect 17 2 3 0;
#X connect 18 0 12 1;
#X connect 19 0 18 0;
#X connect 20 0 97 0;
#X connect 21 0 2 0;
#X connect 21 0 76 0;
#X connect 22 0 23 0;
#X connect 22 1 9 0;
#X connect 23 0 63 0;
#X connect 24 0 99 0;
#X connect 25 0 100 0;
#X connect 26 0 101 0;
#X connect 27 0 102 0;
#X connect 28 0 103 0;
#X connect 29 0 104 0;
#X connect 30 0 105 0;
#X connect 31 0 51 0;
#X connect 31 0 100 0;
#X connect 32 0 16 1;
#X connect 33 0 31 1;
#X connect 35 0 52 0;
#X connect 35 0 101 0;
#X connect 36 0 35 1;
#X connect 37 0 53 0;
#X connect 37 0 102 0;
#X connect 38 0 37 1;
#X connect 39 0 54 0;
#X connect 39 0 103 0;
#X connect 40 0 39 1;
#X connect 41 0 55 0;
#X connect 41 0 104 0;
#X connect 42 0 41 1;
#X connect 43 0 56 0;
#X connect 43 0 105 0;
#X connect 44 0 43 1;
#X connect 46 0 47 0;
#X connect 47 0 6 0;
#X connect 48 0 50 0;
#X connect 48 0 77 0;
#X connect 49 0 50 0;
#X connect 49 0 78 0;
#X connect 50 0 76 0;
#X connect 51 0 50 0;
#X connect 51 0 79 0;
#X connect 52 0 50 0;
#X connect 52 0 80 0;
#X connect 53 0 50 0;
#X connect 53 0 81 0;
#X connect 54 0 50 0;
#X connect 54 0 82 0;
#X connect 55 0 50 0;
#X connect 55 0 83 0;
#X connect 56 0 50 0;
#X connect 56 0 84 0;
#X connect 57 0 6 0;
#X connect 58 0 109 0;
#X connect 58 0 110 0;
#X connect 59 0 2 0;
#X connect 60 0 61 0;
#X connect 61 0 6 0;
#X connect 62 0 2 0;
#X connect 63 0 19 0;
#X connect 63 1 62 0;
#X connect 63 2 64 0;
#X connect 64 0 5 1;
#X connect 66 0 106 0;
#X connect 67 0 69 0;
#X connect 67 0 106 0;
#X connect 68 0 67 1;
#X connect 69 0 50 0;
#X connect 69 0 85 0;
#X connect 70 0 5 1;
#X connect 71 0 5 0;
#X connect 71 1 96 0;
#X connect 71 1 45 0;
#X connect 72 0 71 0;
#X connect 73 0 75 0;
#X connect 73 0 71 0;
#X connect 74 0 73 1;
#X connect 75 0 50 0;
#X connect 75 0 86 0;
#X connect 87 0 16 0;
#X connect 88 0 31 0;
#X connect 89 0 37 0;
#X connect 90 0 67 0;
#X connect 91 0 39 0;
#X connect 92 0 41 0;
#X connect 93 0 35 0;
#X connect 94 0 73 0;
#X connect 97 0 95 0;
#X connect 97 0 15 0;
#X connect 98 0 5 0;
#X connect 98 1 87 0;
#X connect 99 0 5 0;
#X connect 99 1 88 0;
#X connect 100 0 5 0;
#X connect 100 1 93 0;
#X connect 101 0 5 0;
#X connect 101 1 89 0;
#X connect 102 0 5 0;
#X connect 102 1 91 0;
#X connect 103 0 5 0;
#X connect 103 1 92 0;
#X connect 104 0 5 0;
#X connect 104 1 107 0;
#X connect 105 0 5 0;
#X connect 105 1 90 0;
#X connect 106 0 5 0;
#X connect 106 1 94 0;
#X connect 107 0 43 0;
#X connect 109 0 108 0;
#X connect 110 0 59 0;
#X coords 0 -1 1 1 220 120 2 100 100;
