#N canvas 19 25 1233 747 16;
#X obj 16 492 bng 19 250 50 0 empty empty empty 0 -10 0 12 #fcfcfc #000000 #000000;
#X text 49 491 reopen onnections;
#N canvas 509 186 731 377 volumeControl 0;
#X obj 110 161 hsl 162 19 0 1.5 0 0 empty empty empty -2 -10 0 12 #ffc7c6 #000000 #000000 0 1;
#X obj 67 39 loadbang;
#X obj 410 450 s controller_message;
#N canvas 411 407 696 365 vol-ctr 0;
#X obj 71 109 line;
#X obj 70 169 outlet;
#X obj 30 28 inlet fadeout;
#X obj 503 391 line;
#X msg 445 364 0 1000;
#X msg 501 363 0 10;
#X msg 543 363 2 10;
#X obj 139 28 inlet mute;
#X obj 228 29 inlet on;
#X msg 113 69 0 10;
#X msg 35 70 0 1000;
#X obj 308 29 inlet half;
#X msg 154 68 1 10;
#X msg 258 70 0.3 1000;
#X msg 369 75 1 2000;
#X obj 443 36 inlet fadein;
#X obj 581 33 inlet loud;
#X msg 495 94 1.5 100;
#X connect 0 0 1 0;
#X connect 2 0 10 0;
#X connect 4 0 3 0;
#X connect 5 0 3 0;
#X connect 6 0 3 0;
#X connect 7 0 9 0;
#X connect 8 0 12 0;
#X connect 9 0 0 0;
#X connect 10 0 0 0;
#X connect 11 0 13 0;
#X connect 12 0 0 0;
#X connect 13 0 0 0;
#X connect 14 0 0 0;
#X connect 15 0 14 0;
#X connect 16 0 17 0;
#X connect 17 0 0 0;
#X restore 182 61 pd vol-ctr;
#X obj 280 115 bng 19 250 50 0 empty empty empty 0 -10 0 12 #ff0400 #000000 #000000;
#X text 303 114 fade out;
#X obj 280 138 bng 19 250 50 0 empty empty empty 0 -10 0 12 #ff0400 #000000 #000000;
#X text 303 136 mute;
#X obj 280 161 bng 19 250 50 0 empty empty empty 0 -10 0 12 #ff0400 #000000 #000000;
#X text 303 159 sound on;
#X text 107 139 volume audience;
#X obj 395 161 hsl 162 19 0 2 0 0 empty empty empty -2 -10 0 12 #ffc7c6 #000000 #000000 0 1;
#X obj 473 41 loadbang;
#N canvas 411 413 744 296 vol-ctr 0;
#X obj 58 98 line;
#X obj 103 166 outlet;
#X obj 30 28 inlet fadeout;
#X obj 503 391 line;
#X msg 445 364 0 1000;
#X msg 501 363 0 10;
#X msg 543 363 2 10;
#X obj 139 28 inlet mute;
#X obj 228 29 inlet on;
#X msg 36 69 0 1000;
#X msg 113 69 0 10;
#X obj 331 40 inlet fadein;
#X msg 333 75 1 2000;
#X msg 154 68 1.3 10;
#X obj 581 33 inlet loud;
#X msg 495 94 2 100;
#X connect 0 0 1 0;
#X connect 2 0 9 0;
#X connect 4 0 3 0;
#X connect 5 0 3 0;
#X connect 6 0 3 0;
#X connect 7 0 10 0;
#X connect 8 0 13 0;
#X connect 9 0 0 0;
#X connect 10 0 0 0;
#X connect 11 0 12 0;
#X connect 12 0 0 0;
#X connect 13 0 0 0;
#X connect 14 0 15 0;
#X connect 15 0 0 0;
#X restore 653 408 pd vol-ctr;
#X obj 563 115 bng 19 250 50 0 empty empty empty 0 -10 0 12 #ffc7c6 #000000 #000000;
#X obj 563 138 bng 19 250 50 0 empty empty empty 0 -10 0 12 #ffc7c6 #000000 #000000;
#X text 591 139 mute;
#X obj 563 161 bng 19 250 50 0 empty empty empty 0 -10 0 12 #ffc7c6 #000000 #000000;
#X text 391 139 volume actor;
#X obj 355 68 r au_vol_on;
#X obj 594 63 r ac_vol_on;
#X obj 585 13 r ac_vol_fade;
#X obj 354 16 r au_vol_fade;
#X obj 584 38 r ac_vol_mute;
#X obj 354 41 r au_vol_mute;
#X obj 128 4 r au_vol_half;
#X msg 275 373 audience all volume \$1;
#X msg 553 373 actor all volume \$1;
#X obj 180 31 r au_vol_fadein;
#X obj 749 379 r ac_vol_fadein;
#X msg 67 65 set 1;
#X msg 473 68 set 1;
#X msg 21 391 audience all string_vol \$1;
#X obj 110 210 hsl 162 19 0 1 0 0 empty empty empty -2 -10 0 12 #fcfcfc #000000 #000000 0 1;
#X text 107 187 string vol audience;
#X obj 21 325 r au_string_vol;
#X text 591 162 on;
#X text 591 117 f-out;
#X obj 743 311 r ac_vol_loud;
#X obj 277 -9 r au_vol_loud;
#X connect 0 0 26 0;
#X connect 1 0 30 0;
#X connect 3 0 0 0;
#X connect 4 0 3 0;
#X connect 6 0 3 1;
#X connect 8 0 3 2;
#X connect 11 0 27 0;
#X connect 12 0 31 0;
#X connect 13 0 11 0;
#X connect 14 0 13 0;
#X connect 15 0 13 1;
#X connect 17 0 13 2;
#X connect 19 0 8 0;
#X connect 20 0 17 0;
#X connect 21 0 14 0;
#X connect 22 0 4 0;
#X connect 23 0 15 0;
#X connect 24 0 6 0;
#X connect 25 0 3 3;
#X connect 26 0 2 0;
#X connect 27 0 2 0;
#X connect 28 0 3 4;
#X connect 29 0 13 3;
#X connect 30 0 0 0;
#X connect 31 0 11 0;
#X connect 32 0 2 0;
#X connect 33 0 32 0;
#X connect 35 0 33 0;
#X connect 38 0 13 4;
#X connect 39 0 3 5;
#X coords 0 -1 1 1 550 140 1 100 100;
#X restore 11 340 pd volumeControl;
#N canvas 641 130 639 585 modeControl 0;
#X obj 115 128 hradio 19 1 0 7 empty empty empty 120 10 0 12 #fcfcfc #000000 #000000 0;
#X obj 288 471 s controller_message;
#X obj 115 311 hradio 19 1 0 7 empty empty actor\ cello 140 10 0 12 #fcfcfc #000000 #000000 0;
#X obj 115 237 hradio 19 1 0 6 empty empty audience\ cello 120 10 0 12 #fcfcfc #000000 #000000 0;
#X obj 115 200 hradio 19 1 0 6 empty empty audience\ viola 120 10 0 12 #fcfcfc #000000 #000000 0;
#X obj 115 165 hradio 19 1 0 6 empty empty audience\ violin 120 10 0 12 #fcfcfc #000000 #000000 0;
#X obj 115 275 hradio 19 1 0 6 empty empty actor\ violin 120 10 0 12 #fcfcfc #000000 #000000 0;
#X obj 37 105 r au_v;
#X obj 37 173 r au_o;
#X obj 37 207 r au_c;
#X obj 54 57 r modeall;
#X obj 37 241 r ac_v;
#X obj 37 275 r ac_c;
#X obj 15 425 sel 1;
#X obj 48 480 s au_vol_on;
#X obj 15 528 s au_vol_half;
#X obj 48 451 t b;
#X obj 191 508 hradio 19 1 0 6 empty empty audience\ violin2 120 10 0 12 #fcfcfc #000000 #000000 0;
#X msg 385 147 all all mode \$1;
#X msg 385 185 audience violin string_mode \$1;
#X msg 402 537 audience violin2 string_mode \$1;
#X msg 385 258 audience viola string_mode \$1;
#X msg 385 295 audience cello string_mode \$1;
#X msg 385 332 actor violin string_mode \$1;
#X msg 385 370 actor cello string_mode \$1;
#X obj 288 445 repeater;
#X text 262 126 mode;
#X text 136 104 1|2|3|4|5;
#X obj 64 363 r au_stringmodes;
#X connect 0 0 18 0;
#X connect 2 0 24 0;
#X connect 3 0 22 0;
#X connect 4 0 21 0;
#X connect 5 0 19 0;
#X connect 6 0 23 0;
#X connect 7 0 5 0;
#X connect 7 0 13 0;
#X connect 8 0 4 0;
#X connect 8 0 13 0;
#X connect 9 0 3 0;
#X connect 9 0 13 0;
#X connect 10 0 0 0;
#X connect 11 0 6 0;
#X connect 12 0 2 0;
#X connect 13 0 15 0;
#X connect 13 1 16 0;
#X connect 16 0 14 0;
#X connect 17 0 20 0;
#X connect 18 0 25 0;
#X connect 19 0 25 0;
#X connect 20 0 25 0;
#X connect 21 0 25 0;
#X connect 22 0 25 0;
#X connect 23 0 25 0;
#X connect 24 0 25 0;
#X connect 25 0 1 0;
#X connect 28 0 5 0;
#X connect 28 0 4 0;
#X connect 28 0 3 0;
#X connect 28 0 6 0;
#X connect 28 0 2 0;
#X coords 0 -1 1 1 250 240 2 100 100;
#X restore 13 18 pd modeControl;
#N canvas 613 25 624 384 freePlayMode 0;
#X obj 110 123 bng 19 250 50 0 empty empty empty 0 -10 0 12 #00ff04 #000000 #000000;
#X obj 162 218 s ac_v;
#X obj 120 271 s ac_c;
#X obj 157 334 s modeall;
#X obj 138 244 s au_v;
#X obj 98 294 s au_o;
#X obj 73 319 s au_c;
#X msg 123 166 1;
#X obj 123 189 t a a;
#X obj 238 186 s au_vol_on;
#X obj 253 250 s au_string_vol;
#X msg 251 221 1;
#X text 141 122 audience free play;
#X connect 0 0 7 0;
#X connect 0 0 9 0;
#X connect 0 0 11 0;
#X connect 7 0 8 0;
#X connect 8 0 4 0;
#X connect 8 0 5 0;
#X connect 8 0 6 0;
#X connect 8 0 1 0;
#X connect 8 0 2 0;
#X connect 8 1 3 0;
#X connect 11 0 10 0;
#X coords 0 -1 1 1 240 50 1 100 100;
#X restore 273 15 pd freePlayMode;
#N canvas 366 69 775 709 toneAG 0;
#X obj 301 476 s ac_c;
#X obj 128 433 s au_v;
#X obj 127 139 tgl 19 0 empty empty note\ A 25 10 0 14 #c6ffc7 #000000 #000000 0 1;
#X obj 223 139 tgl 19 0 empty empty note\ G 25 10 0 14 #c6ffc7 #000000 #000000 0 1;
#X obj 415 556 tgl 19 0 empty empty note\ A 20 10 0 12 #fcfcfc #000000 #000000 0 1;
#X obj 486 555 tgl 19 0 empty empty note\ G 20 10 0 12 #fcfcfc #000000 #000000 0 1;
#X obj 127 175 tgl 19 0 empty empty note\ A 25 10 0 14 #c6ffc7 #000000 #000000 0 1;
#X obj 223 175 tgl 19 0 empty empty note\ G 25 10 0 14 #c6ffc7 #000000 #000000 0 1;
#X obj 127 210 tgl 19 0 empty empty note\ A 25 10 0 14 #c6ffc7 #000000 #000000 0 1;
#X obj 223 210 tgl 19 0 empty empty note\ G 25 10 0 14 #c6ffc7 #000000 #000000 0 1;
#X obj 488 468 tgl 19 0 empty empty note\ A 20 10 0 12 #fcfcfc #000000 #000000 0 1;
#X obj 560 466 tgl 19 0 empty empty note\ G 20 10 0 12 #fcfcfc #000000 #000000 0 1;
#X obj 108 555 s ac_v;
#X obj 211 434 s au_o;
#X obj 205 515 s au_c;
#X text 558 555 actor violin;
#X text 632 467 actor cello;
#X obj 348 325 bng 19 250 50 0 empty empty all\ off 30 10 0 12 #fcfcfc #000000 #000000;
#X msg 22 324 0;
#X obj 516 510 tgl 19 0 empty empty note\ A 20 10 0 12 #fcfcfc #000000 #000000 0 1;
#X obj 587 510 tgl 19 0 empty empty note\ G 20 10 0 12 #fcfcfc #000000 #000000 0 1;
#X text 658 509 audience violin2;
#X obj 376 439 s au_v2;
#X obj 127 246 tgl 19 0 empty empty note\ A 25 10 0 14 #00ff04 #000000 #000000 0 1;
#X obj 223 246 tgl 19 0 empty empty note\ G 25 10 0 14 #00ff04 #000000 #000000 0 1;
#X text 313 324 all;
#X obj 128 410 noteAG;
#X obj 108 530 noteAG;
#X obj 211 410 noteAG;
#X obj 203 490 noteAG;
#X obj 375 413 noteAG;
#X obj 300 453 noteAG;
#X obj 163 314 noteAG;
#X text 323 209 cello;
#X text 322 174 viola;
#X text 322 138 violin;
#X text 323 243 ALL;
#X connect 2 0 26 0;
#X connect 3 0 26 1;
#X connect 4 0 27 0;
#X connect 5 0 27 1;
#X connect 6 0 28 0;
#X connect 7 0 28 1;
#X connect 8 0 29 0;
#X connect 9 0 29 1;
#X connect 10 0 31 0;
#X connect 11 0 31 1;
#X connect 17 0 18 0;
#X connect 18 0 3 0;
#X connect 18 0 5 0;
#X connect 18 0 7 0;
#X connect 18 0 9 0;
#X connect 18 0 11 0;
#X connect 18 0 2 0;
#X connect 18 0 4 0;
#X connect 18 0 6 0;
#X connect 18 0 8 0;
#X connect 18 0 10 0;
#X connect 18 0 19 0;
#X connect 18 0 20 0;
#X connect 19 0 30 0;
#X connect 20 0 30 1;
#X connect 23 0 32 0;
#X connect 24 0 32 1;
#X connect 26 0 1 0;
#X connect 26 0 12 0;
#X connect 27 0 12 0;
#X connect 28 0 13 0;
#X connect 29 0 14 0;
#X connect 29 0 0 0;
#X connect 30 0 22 0;
#X connect 31 0 0 0;
#X connect 32 0 1 0;
#X connect 32 0 13 0;
#X connect 32 0 12 0;
#X connect 32 0 14 0;
#X connect 32 0 0 0;
#X connect 32 0 22 0;
#X coords 0 -1 1 1 300 180 1 100 100;
#X restore 273 70 pd toneAG;
#N canvas 443 25 778 456 toneLiter 0;
#X obj 405 317 s ac_c;
#X obj 113 313 s au_v;
#X obj 502 103 tgl 19 0 empty empty toneliter 20 10 0 12 #fcfcfc #000000 #000000 0 1;
#X obj 503 130 tgl 19 0 empty empty toneliter 20 10 0 12 #fcfcfc #000000 #000000 0 1;
#X obj 503 181 tgl 19 0 empty empty toneliter 20 10 0 12 #fcfcfc #000000 #000000 0 1;
#X obj 503 208 tgl 19 0 empty empty toneliter 20 10 0 12 #fcfcfc #000000 #000000 0 1;
#X obj 503 237 tgl 19 0 empty empty toneliter 20 10 0 12 #fcfcfc #000000 #000000 0 1;
#X obj 187 313 s ac_v;
#X obj 265 313 s au_o;
#X obj 335 313 s au_c;
#X text 592 102 audience violin;
#X text 593 127 actor violin;
#X text 593 179 audience viola;
#X text 593 207 audience cello;
#X text 593 235 actor cello;
#X obj 106 127 tgl 19 0 empty empty tonleiter 25 10 0 16 #00ff04 #000000 #000000 0 1;
#N canvas 530 57 450 300 toneL 0;
#X obj 91 61 inlet;
#X obj 154 256 outlet;
#X obj 111 115 sel 1 0;
#X msg 140 138 1;
#X obj 113 163 t a;
#X msg 111 139 4;
#X connect 0 0 2 0;
#X connect 2 0 5 0;
#X connect 2 1 3 0;
#X connect 3 0 4 0;
#X connect 4 0 1 0;
#X connect 5 0 4 0;
#X restore 112 291 pd toneL;
#N canvas 530 57 450 300 toneL 0;
#X obj 91 61 inlet;
#X obj 154 256 outlet;
#X obj 111 115 sel 1 0;
#X msg 140 138 1;
#X obj 113 163 t a;
#X msg 111 139 4;
#X connect 0 0 2 0;
#X connect 2 0 5 0;
#X connect 2 1 3 0;
#X connect 3 0 4 0;
#X connect 4 0 1 0;
#X connect 5 0 4 0;
#X restore 263 291 pd toneL;
#N canvas 530 57 450 300 toneL 0;
#X obj 91 61 inlet;
#X obj 154 256 outlet;
#X obj 111 115 sel 1 0;
#X msg 140 138 1;
#X obj 113 163 t a;
#X msg 111 139 4;
#X connect 0 0 2 0;
#X connect 2 0 5 0;
#X connect 2 1 3 0;
#X connect 3 0 4 0;
#X connect 4 0 1 0;
#X connect 5 0 4 0;
#X restore 401 292 pd toneL;
#N canvas 530 57 450 300 toneL 0;
#X obj 91 61 inlet;
#X obj 154 256 outlet;
#X obj 111 115 sel 1 0;
#X msg 140 138 1;
#X obj 113 163 t a;
#X msg 111 139 4;
#X connect 0 0 2 0;
#X connect 2 0 5 0;
#X connect 2 1 3 0;
#X connect 3 0 4 0;
#X connect 4 0 1 0;
#X connect 5 0 4 0;
#X restore 186 291 pd toneL;
#N canvas 530 57 450 300 toneL 0;
#X obj 91 61 inlet;
#X obj 154 256 outlet;
#X obj 111 115 sel 1 0;
#X msg 140 138 1;
#X obj 113 163 t a;
#X msg 111 139 4;
#X connect 0 0 2 0;
#X connect 2 0 5 0;
#X connect 2 1 3 0;
#X connect 3 0 4 0;
#X connect 4 0 1 0;
#X connect 5 0 4 0;
#X restore 333 291 pd toneL;
#N canvas 530 57 450 300 toneL 0;
#X obj 91 61 inlet;
#X obj 154 256 outlet;
#X obj 111 115 sel 1 0;
#X msg 140 138 1;
#X obj 113 163 t a;
#X msg 111 139 4;
#X connect 0 0 2 0;
#X connect 2 0 5 0;
#X connect 2 1 3 0;
#X connect 3 0 4 0;
#X connect 4 0 1 0;
#X connect 5 0 4 0;
#X restore 142 231 pd toneL;
#X obj 505 157 tgl 19 0 empty empty toneliter 20 10 0 12 #fcfcfc #000000 #000000 0 1;
#X text 595 155 audience violin2;
#N canvas 530 57 450 300 toneL 0;
#X obj 91 61 inlet;
#X obj 154 256 outlet;
#X obj 111 115 sel 1 0;
#X msg 140 138 1;
#X obj 113 163 t a;
#X msg 111 139 4;
#X connect 0 0 2 0;
#X connect 2 0 5 0;
#X connect 2 1 3 0;
#X connect 3 0 4 0;
#X connect 4 0 1 0;
#X connect 5 0 4 0;
#X restore 130 347 pd toneL;
#X obj 131 368 s au_v2;
#X obj 226 128 tgl 19 0 empty empty arpeggio 25 10 0 16 #00ff04 #000000 #000000 0 1;
#X obj 341 130 hradio 19 1 0 4 empty empty speed 0 -10 0 12 #c6ffc7 #000000 #000000 0;
#X obj 536 417 s controller_message;
#X obj 536 390 repeater;
#X msg 536 363 all all tonespeed \$1;
#X msg 536 335 all all arpeggio \$1;
#X msg 225 242 0;
#X msg 267 231 1;
#X obj 231 183 t a a;
#X obj 142 197 t a a;
#X obj 201 213 sel 1;
#X obj 266 208 sel 1;
#X obj 101 29 r resetsignal;
#X msg 101 64 set 0;
#X connect 2 0 16 0;
#X connect 3 0 19 0;
#X connect 4 0 17 0;
#X connect 5 0 20 0;
#X connect 6 0 18 0;
#X connect 15 0 35 0;
#X connect 16 0 1 0;
#X connect 17 0 8 0;
#X connect 18 0 0 0;
#X connect 19 0 7 0;
#X connect 20 0 9 0;
#X connect 21 0 0 0;
#X connect 21 0 9 0;
#X connect 21 0 8 0;
#X connect 21 0 7 0;
#X connect 21 0 1 0;
#X connect 22 0 24 0;
#X connect 24 0 25 0;
#X connect 26 0 34 0;
#X connect 27 0 30 0;
#X connect 29 0 28 0;
#X connect 30 0 29 0;
#X connect 31 0 29 0;
#X connect 32 0 31 0;
#X connect 33 0 31 0;
#X connect 34 0 21 0;
#X connect 34 1 37 0;
#X connect 35 0 21 0;
#X connect 35 1 36 0;
#X connect 36 0 32 0;
#X connect 37 0 33 0;
#X connect 38 0 39 0;
#X connect 39 0 15 0;
#X connect 39 0 26 0;
#X connect 39 0 27 0;
#X coords 0 -1 1 1 340 60 2 100 100;
#X restore 583 73 pd toneLiter;
#N canvas 613 25 624 384 half 0;
#X obj 138 123 bng 19 250 50 0 empty empty empty 0 -10 0 12 #fcfcfc #000000 #000000;
#X text 167 122 volume down!;
#X obj 138 162 s au_vol_half;
#X connect 0 0 2 0;
#X coords 0 -1 1 1 240 50 1 100 100;
#X restore 521 16 pd half vol;
#N canvas 384 25 896 690 playSong 0;
#X obj 361 462 s ac_c;
#X obj 67 459 s au_v;
#X obj 147 222 tgl 19 0 empty empty play 25 10 0 16 #c6ffc7 #000000 #000000 0 1;
#X obj 122 579 tgl 19 0 empty empty playSong 20 10 0 12 #fcfcfc #000000 #000000 0 1;
#X obj 147 255 tgl 19 0 empty empty play 25 10 0 16 #c6ffc7 #000000 #000000 0 1;
#X obj 147 289 tgl 19 0 empty empty play 25 10 0 16 #c6ffc7 #000000 #000000 0 1;
#X obj 421 527 tgl 19 0 empty empty playSong 20 10 0 12 #fcfcfc #000000 #000000 0 1;
#X obj 141 459 s ac_v;
#X obj 217 459 s au_o;
#X obj 287 459 s au_c;
#X text 212 576 actor violin;
#X text 511 525 actor cello;
#X obj 147 189 tgl 19 0 empty empty play 25 10 0 16 #00ff04 #000000 #000000 0 1;
#X text 218 188 ALL;
#X obj 462 282 s controller_message;
#X obj 573 405 tgl 19 0 empty empty playSong 20 10 0 12 #fcfcfc #000000 #000000 0 1;
#X text 663 403 audience violin2;
#X obj 573 460 s au_v2;
#X obj 147 135 hradio 19 1 0 4 empty empty empty 0 -10 0 12 #00ff04 #000000 #000000 0;
#X msg 462 206 all all startPoint \$1;
#X obj 343 394 song;
#X obj 262 391 song;
#X obj 167 391 song;
#X obj 78 392 song;
#X obj 123 605 song;
#X obj 417 556 song;
#X obj 572 432 song;
#X text 220 221 violin;
#X text 221 253 viola;
#X text 221 288 cello;
#X obj 342 347 t a a;
#X obj 392 375 sel 1;
#X obj 262 347 t a a;
#X obj 165 350 t a a;
#X obj 82 344 t a a;
#X obj 291 371 sel 1;
#X obj 203 375 sel 1;
#X obj 117 369 sel 1;
#X obj 463 240 repeater;
#X text 146 159 tact1/14/57/388;
#X obj 101 29 r resetsignal;
#X msg 101 64 set 0;
#X obj 402 81 r playPoint;
#X connect 2 0 34 0;
#X connect 3 0 24 0;
#X connect 4 0 33 0;
#X connect 5 0 32 0;
#X connect 6 0 25 0;
#X connect 12 0 30 0;
#X connect 15 0 26 0;
#X connect 18 0 19 0;
#X connect 19 0 38 0;
#X connect 20 0 0 0;
#X connect 20 0 9 0;
#X connect 20 0 8 0;
#X connect 20 0 7 0;
#X connect 20 0 1 0;
#X connect 20 0 17 0;
#X connect 21 0 9 0;
#X connect 21 0 0 0;
#X connect 22 0 8 0;
#X connect 23 0 1 0;
#X connect 23 0 7 0;
#X connect 24 0 7 0;
#X connect 25 0 0 0;
#X connect 26 0 17 0;
#X connect 30 0 20 0;
#X connect 30 1 31 0;
#X connect 31 0 18 0;
#X connect 32 0 21 0;
#X connect 32 1 35 0;
#X connect 33 0 22 0;
#X connect 33 1 36 0;
#X connect 34 0 23 0;
#X connect 34 1 37 0;
#X connect 35 0 18 0;
#X connect 36 0 18 0;
#X connect 37 0 18 0;
#X connect 38 0 14 0;
#X connect 40 0 41 0;
#X connect 41 0 18 0;
#X connect 41 0 12 0;
#X connect 41 0 2 0;
#X connect 41 0 4 0;
#X connect 41 0 5 0;
#X connect 42 0 18 0;
#X coords 0 -1 1 1 250 220 1 100 100;
#X restore 583 144 pd playSong;
#N canvas 528 25 439 631 audition 0;
#X obj 147 588 s ac_c;
#X obj 155 217 tgl 19 0 empty empty playSong 30 10 0 12 #fcfcfc #000000 #000000 0 1;
#X text 155 188 choose start point;
#X obj 214 508 s controller_message;
#N canvas 530 57 450 300 auditionMode 0;
#X obj 91 61 inlet;
#X obj 154 256 outlet;
#X obj 111 115 sel 1 0;
#X msg 140 138 1;
#X obj 113 163 t a;
#X msg 111 139 6;
#X connect 0 0 2 0;
#X connect 2 0 5 0;
#X connect 2 1 3 0;
#X connect 3 0 4 0;
#X connect 4 0 1 0;
#X connect 5 0 4 0;
#X restore 147 560 pd auditionMode;
#X text 252 216 audition 1;
#X obj 112 344 t a b;
#X obj 155 248 tgl 19 0 empty empty playSong 30 10 0 12 #fcfcfc #000000 #000000 0 1;
#X text 252 247 audition 2;
#X obj 159 304 t a b;
#X msg 214 409 73000;
#X msg 267 408 10600;
#X msg 214 462 actor cello startPoint \$1;
#X obj 214 484 repeater;
#X connect 1 0 6 0;
#X connect 4 0 0 0;
#X connect 6 0 4 0;
#X connect 6 1 10 0;
#X connect 7 0 9 0;
#X connect 9 0 4 0;
#X connect 9 1 11 0;
#X connect 10 0 12 0;
#X connect 11 0 12 0;
#X connect 12 0 13 0;
#X connect 13 0 3 0;
#X coords 0 -1 1 1 200 140 1 100 100;
#X restore 821 1091 pd audition;
#N canvas 264 23 985 755 Sequencer 0;
#X obj 146 176 bng 19 250 50 0 empty empty mode\ 3 30 10 0 12 #00faff #000000 #000000;
#X obj 495 713 s controller_message;
#X obj 146 203 tgl 19 0 empty empty playLoop 30 10 0 12 #00faff #000000 #000000 0 1;
#X text 399 80 only ID 1 \, 2 \, 4 can input loop;
#X obj 147 477 tgl 19 0 empty empty empty 0 -10 0 12 #00faff #000000 #000000 0 1;
#X text 174 480 start Jam!;
#X obj 146 338 bng 19 250 50 0 empty empty reset\ loop 30 10 0 12 #00faff #000000 #000000;
#X obj 137 660 bng 19 250 50 0 empty empty empty 0 -10 0 12 #00faff #000000 #000000;
#X obj 135 721 s ac_vol_fade;
#X obj 237 722 s au_vol_fade;
#X text 156 656 END all fade out;
#X obj 404 166 s modeall;
#X msg 401 142 3;
#X obj 146 506 bng 19 250 50 0 empty empty next\ words 20 10 0 12 #00faff #000000 #000000;
#X text 244 205 actor;
#X obj 146 231 tgl 19 0 empty empty playLoop 30 10 0 12 #00faff #000000 #000000 0 1;
#X text 240 231 violin;
#X obj 146 257 tgl 19 0 empty empty playLoop 30 10 0 12 #00faff #000000 #000000 0 1;
#X text 237 257 violin2;
#X obj 146 285 tgl 19 0 empty empty playLoop 30 10 0 12 #00faff #000000 #000000 0 1;
#X text 241 286 viola;
#X obj 146 311 tgl 19 0 empty empty playLoop 30 10 0 12 #00faff #000000 #000000 0 1;
#X text 242 312 cello;
#X obj 146 366 bng 19 250 50 0 empty empty reset\ loop 30 10 0 12 #00faff #000000 #000000;
#X text 255 367 kick;
#X obj 146 392 bng 19 250 50 0 empty empty reset\ loop 30 10 0 12 #00faff #000000 #000000;
#X text 252 392 snare;
#X obj 146 420 bng 19 250 50 0 empty empty reset\ loop 30 10 0 12 #00faff #000000 #000000;
#X obj 146 446 bng 19 250 50 0 empty empty reset\ loop 30 10 0 12 #00faff #000000 #000000;
#X text 252 425 hihat;
#X text 251 449 hikick;
#X text 256 340 all;
#X msg 379 222 actor all playLoop \$1;
#X msg 379 250 audience violin playLoop \$1;
#X msg 379 276 audience violin2 playLoop \$1;
#X msg 379 305 audience viola playLoop \$1;
#X msg 379 331 audience cello playLoop \$1;
#X msg 255 581 all all sequenceNext bang;
#X msg 379 496 all all jam \$1;
#X obj 572 628 repeater;
#X msg 379 357 all all resetD bang;
#X msg 379 385 all all resetK bang;
#X msg 379 411 all all resetS bang;
#X msg 379 438 all all resetH bang;
#X msg 379 466 all all resetHk bang;
#X connect 0 0 12 0;
#X connect 2 0 32 0;
#X connect 4 0 38 0;
#X connect 6 0 40 0;
#X connect 7 0 8 0;
#X connect 7 0 9 0;
#X connect 12 0 11 0;
#X connect 13 0 37 0;
#X connect 15 0 33 0;
#X connect 17 0 34 0;
#X connect 19 0 35 0;
#X connect 21 0 36 0;
#X connect 23 0 41 0;
#X connect 25 0 42 0;
#X connect 27 0 43 0;
#X connect 28 0 44 0;
#X connect 32 0 39 0;
#X connect 33 0 39 0;
#X connect 34 0 39 0;
#X connect 35 0 39 0;
#X connect 36 0 39 0;
#X connect 37 0 1 0;
#X connect 38 0 39 0;
#X connect 39 0 1 0;
#X connect 40 0 39 0;
#X connect 41 0 39 0;
#X connect 42 0 39 0;
#X connect 43 0 39 0;
#X connect 44 0 39 0;
#X coords 0 -1 1 1 200 400 1 100 100;
#X restore 599 963 pd Sequencer;
#N canvas 619 263 660 432 instrumentModes 0;
#X obj 112 208 hradio 19 1 0 4 empty empty empty 0 -10 0 12 #e3c6ff #000000 #000000 0;
#X obj 202 208 hradio 19 1 0 4 empty empty empty 0 -10 0 12 #e3c6ff #000000 #000000 0;
#X obj 292 210 hradio 19 1 0 4 empty empty empty 0 -10 0 12 #e3c6ff #000000 #000000 0;
#X obj 206 433 s controller_message;
#X text 114 186 ID1;
#X text 205 186 ID2;
#X obj 381 211 hradio 19 1 0 4 empty empty empty 0 -10 0 12 #e3c6ff #000000 #000000 0;
#X text 294 187 ID4;
#X obj 467 210 hradio 19 1 0 4 empty empty empty 0 -10 0 12 #e3c6ff #000000 #000000 0;
#X floatatom 467 187 5 0 0 0 - - - 0;
#X text 377 187 ID6;
#X obj 206 405 repeater;
#X msg 116 267 1 inst \$1;
#X msg 205 270 2 inst \$1;
#X msg 292 271 4 inst \$1;
#X msg 382 272 6 inst \$1;
#X msg 460 342 \$1 inst \$2;
#X obj 460 306 pack 0 0;
#X obj 489 277 t b a;
#X connect 0 0 12 0;
#X connect 1 0 13 0;
#X connect 2 0 14 0;
#X connect 6 0 15 0;
#X connect 8 0 18 0;
#X connect 9 0 17 0;
#X connect 11 0 3 0;
#X connect 12 0 11 0;
#X connect 13 0 11 0;
#X connect 14 0 11 0;
#X connect 15 0 11 0;
#X connect 16 0 11 0;
#X connect 17 0 16 0;
#X connect 18 0 17 0;
#X connect 18 1 17 1;
#X coords 0 -1 1 1 450 80 1 100 100;
#X restore 74 1238 pd instrumentModes;
#N canvas 377 163 391 438 Flash 0;
#X obj 159 349 s controller_message;
#X obj 140 122 bng 30 250 50 0 empty empty empty 0 -10 0 12 #faff00 #000000 #000000;
#X obj 252 122 bng 30 250 50 0 empty empty empty 0 -10 0 12 #faff00 #000000 #000000;
#X floatatom 192 128 5 0 0 0 - - - 0;
#X msg 139 204 all all flash bang;
#X msg 59 243 9 flash bang;
#X obj 232 244 int 0;
#X msg 232 288 \$1 flash bang;
#X obj 110 133 tgl 19 0 empty empty empty 0 -10 0 12 #fcfcfc #000000 #000000 0 1;
#X obj 83 44 metro 2000;
#X connect 1 0 4 0;
#X connect 2 0 6 0;
#X connect 3 0 6 1;
#X connect 4 0 0 0;
#X connect 5 0 0 0;
#X connect 6 0 7 0;
#X connect 7 0 0 0;
#X connect 8 0 9 0;
#X connect 9 0 1 0;
#X coords 0 -1 1 1 200 60 1 100 100;
#X restore 17 272 pd Flash;
#N canvas 80 135 521 404 monitor 0;
#X obj 315 211 route val1 val2;
#X floatatom 108 210 5 0 0 0 - - - 0;
#X floatatom 172 210 5 0 0 0 - - - 0;
#X obj 141 356 s controller_message;
#X obj 315 152 r sensor_message;
#X floatatom 107 133 5 1 65 0 - - - 0;
#X obj 108 165 tgl 19 0 empty empty empty 0 -10 0 12 #fcfcfc #000000 #000000 0 1;
#X obj 106 60 loadbang;
#X obj 315 187 route 1, f 8;
#X text 170 136 whih ID?;
#X text 131 164 click to start;
#X msg 141 324 \$2 debug \$1;
#X obj 141 296 pack 0 0;
#X text 105 184 sensor value;
#X connect 0 0 1 0;
#X connect 0 1 2 0;
#X connect 4 0 8 0;
#X connect 5 0 8 1;
#X connect 5 0 12 1;
#X connect 6 0 12 0;
#X connect 7 0 5 0;
#X connect 8 0 0 0;
#X connect 11 0 3 0;
#X connect 12 0 11 0;
#X coords 0 -1 1 1 180 140 1 100 100;
#X restore 382 488 pd monitor;
#N canvas 387 23 893 686 violinVoice 0;
#X obj 133 184 tgl 19 0 empty empty voice\ violin 20 10 0 12 #fcfcfc #000000 #000000 0 1;
#X obj 133 213 tgl 19 0 empty empty voice\ violin2 20 10 0 12 #fcfcfc #000000 #000000 0 1;
#X obj 133 240 tgl 19 0 empty empty voice\ viola 20 10 0 12 #fcfcfc #000000 #000000 0 1;
#X obj 133 269 tgl 19 0 empty empty voice\ cello 20 10 0 12 #fcfcfc #000000 #000000 0 1;
#X obj 135 298 bng 19 250 50 0 empty empty all\ off 30 10 0 12 #fcfcfc #000000 #000000;
#X obj 71 395 + 1;
#X obj 212 393 + 1;
#X obj 360 393 + 1;
#X obj 503 394 + 1;
#X obj 298 504 s au_vol_mute;
#X obj 402 502 s ac_vol_mute;
#X obj 127 434 s au_v;
#X obj 203 429 s au_v2;
#X obj 356 434 s au_o;
#X obj 458 432 s au_c;
#X obj 73 434 s ac_v;
#X obj 512 433 s ac_c;
#X connect 0 0 5 0;
#X connect 1 0 6 0;
#X connect 2 0 7 0;
#X connect 3 0 8 0;
#X connect 4 0 9 0;
#X connect 4 0 10 0;
#X connect 5 0 15 0;
#X connect 5 0 11 0;
#X connect 6 0 12 0;
#X connect 7 0 13 0;
#X connect 8 0 16 0;
#X connect 8 0 14 0;
#X coords 0 -1 1 1 150 180 1 100 100;
#X restore 398 991 pd violinVoice;
#X obj 937 148 dumbtyper;
#X obj 13 544 ctrl_zmq_recv;
#X obj 16 514 ctrl_zmq_send;
#N canvas 129 215 1151 563 canon 0;
#X obj 402 612 s controller_message;
#X obj 892 610 s controller_message;
#X obj 170 201 bng 19 250 50 0 empty empty empty 0 -10 0 12 #fcfcfc #000000 #000000;
#X obj 170 235 bng 19 250 50 0 empty empty empty 0 -10 0 12 #fcfcfc #000000 #000000;
#X obj 170 270 bng 19 250 50 0 empty empty empty 0 -10 0 12 #fcfcfc #000000 #000000;
#X floatatom 768 120 5 0 0 0 - - - 0;
#X floatatom 780 151 5 0 0 0 - - - 0;
#X floatatom 910 306 5 0 0 0 - - - 0;
#X floatatom 917 336 5 0 0 0 - - - 0;
#X obj 170 303 bng 19 250 50 0 empty empty empty 0 -10 0 12 #fcfcfc #000000 #000000;
#X obj 858 461 del 1000;
#X obj 880 490 del 1000;
#X floatatom 920 420 5 0 0 0 - - - 0;
#X floatatom 927 450 5 0 0 0 - - - 0;
#X obj 799 251 del 2000;
#X obj 822 280 del 2000;
#X obj 848 347 del 2000;
#X obj 870 375 del 2000;
#X obj 170 337 bng 19 250 50 0 empty empty empty 0 -10 0 12 #fcfcfc #000000 #000000;
#X obj 1210 155 del 2000;
#X obj 1232 182 del 2000;
#X obj 170 371 bng 19 250 50 0 empty empty empty 0 -10 0 12 #fcfcfc #000000 #000000;
#X obj 1265 240 del 2000;
#X obj 1287 268 del 2000;
#X obj 170 405 bng 19 250 50 0 empty empty empty 0 -10 0 12 #fcfcfc #000000 #000000;
#X obj 1332 325 del 2000;
#X obj 1354 352 del 2000;
#X obj 170 440 bng 19 250 50 0 empty empty empty 0 -10 0 12 #fcfcfc #000000 #000000;
#X obj 1373 430 del 2000;
#X obj 1395 458 del 2000;
#X obj 699 151 del 2000;
#X obj 722 180 del 2000;
#X msg 428 180 all viola loadfile c_Gymnasium;
#X msg 484 280 all viola loadfile c_Kindergarten;
#X msg 557 371 all viola loadfile c_Musiklehrer;
#X msg 617 490 all viola loadfile c_Physik;
#X msg 935 175 all viola loadfile c_Putzen;
#X msg 985 263 all viola loadfile c_schaffner;
#X msg 1035 350 all viola loadfile c_Schuldirektor;
#X msg 1068 440 all viola loadfile c_Supermarkt;
#X text 205 202 Gymnasium;
#X msg 412 153 all cello loadfile c_Gymnasium;
#X msg 447 205 all violin loadfile c_Gymnasium;
#X msg 503 305 all violin loadfile c_Kindergarten;
#X msg 577 396 all violin loadfile c_Musiklehrer;
#X msg 637 515 all violin loadfile c_Physik;
#X msg 954 200 all violin loadfile c_Putzen;
#X msg 1004 288 all violin loadfile c_schaffner;
#X msg 1054 375 all violin loadfile c_Schuldirektor;
#X msg 1087 465 all violin loadfile c_Supermarkt;
#X msg 467 253 all cello loadfile c_Kindergarten;
#X msg 540 345 all cello loadfile c_Musiklehrer;
#X msg 600 465 all cello loadfile c_Physik;
#X msg 918 148 all cello loadfile c_Putzen;
#X msg 968 237 all cello loadfile c_schaffner;
#X msg 1018 325 all cello loadfile c_Schuldirektor;
#X msg 1052 413 all cello loadfile c_Supermarkt;
#X text 207 234 Kindergarten;
#X text 205 269 Musiklehrer;
#X text 207 305 Physik;
#X text 207 337 Putzen;
#X text 204 370 schaffner;
#X text 204 405 Schuldirektor;
#X text 204 441 Supermarkt;
#X obj 154 562 s modeall;
#X obj 172 172 tgl 19 0 empty empty empty 0 -10 0 12 #fcfcfc #000000 #000000 0 1;
#X obj 157 500 sel 1 0;
#X msg 190 533 1;
#X text 207 174 canon on/off;
#X msg 157 533 3;
#X connect 2 0 41 0;
#X connect 2 0 30 0;
#X connect 3 0 50 0;
#X connect 3 0 14 0;
#X connect 4 0 51 0;
#X connect 4 0 16 0;
#X connect 5 0 6 0;
#X connect 5 0 30 1;
#X connect 6 0 31 1;
#X connect 7 0 8 0;
#X connect 7 0 16 1;
#X connect 8 0 17 1;
#X connect 9 0 10 0;
#X connect 9 0 52 0;
#X connect 10 0 11 0;
#X connect 10 0 35 0;
#X connect 11 0 45 0;
#X connect 12 0 13 0;
#X connect 12 0 10 1;
#X connect 13 0 11 1;
#X connect 14 0 33 0;
#X connect 14 0 15 0;
#X connect 15 0 43 0;
#X connect 16 0 34 0;
#X connect 16 0 17 0;
#X connect 17 0 44 0;
#X connect 18 0 19 0;
#X connect 18 0 53 0;
#X connect 19 0 20 0;
#X connect 19 0 36 0;
#X connect 20 0 46 0;
#X connect 21 0 22 0;
#X connect 21 0 54 0;
#X connect 22 0 23 0;
#X connect 22 0 37 0;
#X connect 23 0 47 0;
#X connect 24 0 25 0;
#X connect 24 0 55 0;
#X connect 25 0 26 0;
#X connect 25 0 38 0;
#X connect 26 0 48 0;
#X connect 27 0 28 0;
#X connect 27 0 56 0;
#X connect 28 0 29 0;
#X connect 28 0 39 0;
#X connect 29 0 49 0;
#X connect 30 0 32 0;
#X connect 30 0 31 0;
#X connect 31 0 42 0;
#X connect 32 0 0 0;
#X connect 33 0 0 0;
#X connect 34 0 0 0;
#X connect 35 0 0 0;
#X connect 36 0 1 0;
#X connect 37 0 1 0;
#X connect 38 0 1 0;
#X connect 39 0 1 0;
#X connect 41 0 0 0;
#X connect 42 0 0 0;
#X connect 43 0 0 0;
#X connect 44 0 0 0;
#X connect 45 0 0 0;
#X connect 46 0 1 0;
#X connect 47 0 1 0;
#X connect 48 0 1 0;
#X connect 49 0 1 0;
#X connect 50 0 0 0;
#X connect 51 0 0 0;
#X connect 52 0 0 0;
#X connect 53 0 1 0;
#X connect 54 0 1 0;
#X connect 55 0 1 0;
#X connect 56 0 1 0;
#X connect 65 0 66 0;
#X connect 66 0 69 0;
#X connect 66 1 67 0;
#X connect 67 0 64 0;
#X connect 69 0 64 0;
#X coords 0 -1 1 1 200 320 1 100 100;
#X restore 1001 958 pd canon;
#N canvas 301 152 979 589 violin_to_voice 0;
#X obj 438 333 s controller_message;
#X obj 115 238 tgl 19 0 empty empty empty 0 -10 0 12 #fcfcfc #000000 #000000 0 1;
#X msg 385 136 20000;
#X msg 385 163 all all mode12cross \$1;
#X msg 459 246 all all mode2bow \$1;
#X obj 112 130 tgl 19 0 empty empty empty 20 10 0 16 #00ff04 #000000 #000000 0 1;
#X obj 322 532 s modeall;
#X obj 168 458 sel 1;
#X msg 323 504 2;
#X obj 65 287 bng 19 250 50 0 empty empty empty 0 -10 0 12 #00ff04 #000000 #000000;
#X text 89 286 start fading in 20 sec;
#X text 167 258 bow active for speach;
#X obj 337 51 s au_vol_on;
#X obj 463 51 s ac_vol_on;
#X obj 338 15 sel 1;
#X msg 328 361 1;
#X obj 308 314 del 15000;
#X msg 23 450 5, f 2;
#X obj 53 481 t a;
#X obj 33 403 sel 1 0;
#X msg 94 455 1, f 2;
#X obj 230 416 sel 1;
#X msg 276 358 0;
#X text 137 128 Play last song;
#X obj 101 29 r resetsignal;
#X msg 101 64 set 0;
#X obj 354 435 s playPoint;
#X msg 306 434 0;
#X obj 24 353 t a a a;
#X obj 15 539 s au_stringmodes;
#X obj 5 508 s au_vol_on;
#X obj 215 538 bng 24 250 50 0 empty empty empty 0 -12 0 16 #fcfcfc #000000 #000000;
#X obj 195 499 delay 8000;
#X obj 431 296 repeater;
#X obj 623 522 outlet;
#X obj 588 443 del 30000;
#X connect 1 0 4 0;
#X connect 2 0 3 0;
#X connect 3 0 33 0;
#X connect 4 0 33 0;
#X connect 5 0 14 0;
#X connect 5 0 28 0;
#X connect 7 0 8 0;
#X connect 7 0 32 0;
#X connect 8 0 6 0;
#X connect 9 0 2 0;
#X connect 9 0 16 0;
#X connect 14 0 12 0;
#X connect 14 1 13 0;
#X connect 15 0 1 0;
#X connect 16 0 15 0;
#X connect 16 0 22 0;
#X connect 16 0 35 0;
#X connect 17 0 18 0;
#X connect 18 0 29 0;
#X connect 19 0 17 0;
#X connect 19 0 30 0;
#X connect 19 1 20 0;
#X connect 20 0 18 0;
#X connect 21 0 27 0;
#X connect 22 0 5 0;
#X connect 24 0 25 0;
#X connect 25 0 5 0;
#X connect 25 0 1 0;
#X connect 27 0 26 0;
#X connect 28 0 19 0;
#X connect 28 1 7 0;
#X connect 28 2 21 0;
#X connect 32 0 31 0;
#X connect 32 0 9 0;
#X connect 33 0 0 0;
#X connect 35 0 34 0;
#X coords 0 -1 1 1 200 60 1 100 100;
#X restore 937 74 pd violin_to_voice;
#N canvas 183 23 1011 755 ping 0;
#X obj 57 34 inlet;
#X obj 136 54 sel 1 2 3 4 5 6 7 8 9 10, f 33;
#X obj 382 54 - 10;
#X obj 138 149 tgl 19 0 empty empty empty 0 -10 0 12 #fcfcfc #000000 #000000 0 1;
#X obj 136 86 wd10, f 30;
#X obj 162 149 tgl 19 0 empty empty empty 0 -10 0 12 #fcfcfc #000000 #000000 0 1;
#X obj 185 149 tgl 19 0 empty empty empty 0 -10 0 12 #fcfcfc #000000 #000000 0 1;
#X obj 207 149 tgl 19 0 empty empty empty 0 -10 0 12 #fcfcfc #000000 #000000 0 1;
#X obj 231 149 tgl 19 0 empty empty empty 0 -10 0 12 #fcfcfc #000000 #000000 0 1;
#X obj 253 149 tgl 19 0 empty empty empty 0 -10 0 12 #fcfcfc #000000 #000000 0 1;
#X obj 277 149 tgl 19 0 empty empty empty 0 -10 0 12 #fcfcfc #000000 #000000 0 1;
#X obj 300 149 tgl 19 0 empty empty empty 0 -10 0 12 #fcfcfc #000000 #000000 0 1;
#X obj 322 149 tgl 19 0 empty empty empty 0 -10 0 12 #fcfcfc #000000 #000000 0 1;
#X obj 346 149 tgl 19 0 empty empty empty 0 -10 0 12 #fcfcfc #000000 #000000 0 1;
#X text 372 148 1 .. 10;
#X obj 646 59 sel 1 2 3 4 5 6 7 8 9 10, f 33;
#X obj 892 59 - 10;
#X obj 138 179 tgl 19 0 empty empty empty 0 -10 0 12 #fcfcfc #000000 #000000 0 1;
#X obj 646 91 wd10, f 30;
#X obj 162 179 tgl 19 0 empty empty empty 0 -10 0 12 #fcfcfc #000000 #000000 0 1;
#X obj 185 179 tgl 19 0 empty empty empty 0 -10 0 12 #fcfcfc #000000 #000000 0 1;
#X obj 207 179 tgl 19 0 empty empty empty 0 -10 0 12 #fcfcfc #000000 #000000 0 1;
#X obj 231 179 tgl 19 0 empty empty empty 0 -10 0 12 #fcfcfc #000000 #000000 0 1;
#X obj 253 179 tgl 19 0 empty empty empty 0 -10 0 12 #fcfcfc #000000 #000000 0 1;
#X obj 277 179 tgl 19 0 empty empty empty 0 -10 0 12 #fcfcfc #000000 #000000 0 1;
#X obj 300 179 tgl 19 0 empty empty empty 0 -10 0 12 #fcfcfc #000000 #000000 0 1;
#X obj 322 179 tgl 19 0 empty empty empty 0 -10 0 12 #fcfcfc #000000 #000000 0 1;
#X obj 346 179 tgl 19 0 empty empty empty 0 -10 0 12 #fcfcfc #000000 #000000 0 1;
#X text 372 178 11 .. 20;
#X obj 660 191 sel 1 2 3 4 5 6 7 8 9 10, f 33;
#X obj 907 190 - 10;
#X obj 138 208 tgl 19 0 empty empty empty 0 -10 0 12 #fcfcfc #000000 #000000 0 1;
#X obj 660 224 wd10, f 30;
#X obj 162 208 tgl 19 0 empty empty empty 0 -10 0 12 #fcfcfc #000000 #000000 0 1;
#X obj 185 208 tgl 19 0 empty empty empty 0 -10 0 12 #fcfcfc #000000 #000000 0 1;
#X obj 207 208 tgl 19 0 empty empty empty 0 -10 0 12 #fcfcfc #000000 #000000 0 1;
#X obj 231 208 tgl 19 0 empty empty empty 0 -10 0 12 #fcfcfc #000000 #000000 0 1;
#X obj 253 208 tgl 19 0 empty empty empty 0 -10 0 12 #fcfcfc #000000 #000000 0 1;
#X obj 277 208 tgl 19 0 empty empty empty 0 -10 0 12 #fcfcfc #000000 #000000 0 1;
#X obj 300 208 tgl 19 0 empty empty empty 0 -10 0 12 #fcfcfc #000000 #000000 0 1;
#X obj 322 208 tgl 19 0 empty empty empty 0 -10 0 12 #fcfcfc #000000 #000000 0 1;
#X obj 346 208 tgl 19 0 empty empty empty 0 -10 0 12 #fcfcfc #000000 #000000 0 1;
#X obj 637 274 sel 1 2 3 4 5 6 7 8 9 10, f 33;
#X obj 883 274 - 10;
#X obj 138 236 tgl 19 0 empty empty empty 0 -10 0 12 #fcfcfc #000000 #000000 0 1;
#X obj 637 306 wd10, f 30;
#X obj 162 236 tgl 19 0 empty empty empty 0 -10 0 12 #fcfcfc #000000 #000000 0 1;
#X obj 185 236 tgl 19 0 empty empty empty 0 -10 0 12 #fcfcfc #000000 #000000 0 1;
#X obj 207 236 tgl 19 0 empty empty empty 0 -10 0 12 #fcfcfc #000000 #000000 0 1;
#X obj 231 236 tgl 19 0 empty empty empty 0 -10 0 12 #fcfcfc #000000 #000000 0 1;
#X obj 253 236 tgl 19 0 empty empty empty 0 -10 0 12 #fcfcfc #000000 #000000 0 1;
#X obj 277 236 tgl 19 0 empty empty empty 0 -10 0 12 #fcfcfc #000000 #000000 0 1;
#X obj 300 236 tgl 19 0 empty empty empty 0 -10 0 12 #fcfcfc #000000 #000000 0 1;
#X obj 322 236 tgl 19 0 empty empty empty 0 -10 0 12 #fcfcfc #000000 #000000 0 1;
#X obj 346 236 tgl 19 0 empty empty empty 0 -10 0 12 #fcfcfc #000000 #000000 0 1;
#X text 372 207 21 .. 30;
#X text 372 235 31 .. 40;
#X obj 637 376 sel 1 2 3 4 5 6 7 8 9 10, f 33;
#X obj 883 375 - 10;
#X obj 138 265 tgl 19 0 empty empty empty 0 -10 0 12 #fcfcfc #000000 #000000 0 1;
#X obj 637 409 wd10, f 30;
#X obj 162 265 tgl 19 0 empty empty empty 0 -10 0 12 #fcfcfc #000000 #000000 0 1;
#X obj 185 265 tgl 19 0 empty empty empty 0 -10 0 12 #fcfcfc #000000 #000000 0 1;
#X obj 207 265 tgl 19 0 empty empty empty 0 -10 0 12 #fcfcfc #000000 #000000 0 1;
#X obj 231 265 tgl 19 0 empty empty empty 0 -10 0 12 #fcfcfc #000000 #000000 0 1;
#X obj 253 265 tgl 19 0 empty empty empty 0 -10 0 12 #fcfcfc #000000 #000000 0 1;
#X obj 277 265 tgl 19 0 empty empty empty 0 -10 0 12 #fcfcfc #000000 #000000 0 1;
#X obj 300 265 tgl 19 0 empty empty empty 0 -10 0 12 #fcfcfc #000000 #000000 0 1;
#X obj 322 265 tgl 19 0 empty empty empty 0 -10 0 12 #fcfcfc #000000 #000000 0 1;
#X obj 346 265 tgl 19 0 empty empty empty 0 -10 0 12 #fcfcfc #000000 #000000 0 1;
#X obj 636 474 sel 1 2 3 4 5 6 7 8 9 10, f 33;
#X obj 882 473 - 10;
#X obj 138 294 tgl 19 0 empty empty empty 0 -10 0 12 #fcfcfc #000000 #000000 0 1;
#X obj 636 505 wd10, f 30;
#X obj 162 294 tgl 19 0 empty empty empty 0 -10 0 12 #fcfcfc #000000 #000000 0 1;
#X obj 185 294 tgl 19 0 empty empty empty 0 -10 0 12 #fcfcfc #000000 #000000 0 1;
#X obj 207 294 tgl 19 0 empty empty empty 0 -10 0 12 #fcfcfc #000000 #000000 0 1;
#X obj 231 294 tgl 19 0 empty empty empty 0 -10 0 12 #fcfcfc #000000 #000000 0 1;
#X obj 253 294 tgl 19 0 empty empty empty 0 -10 0 12 #fcfcfc #000000 #000000 0 1;
#X obj 277 294 tgl 19 0 empty empty empty 0 -10 0 12 #fcfcfc #000000 #000000 0 1;
#X obj 300 294 tgl 19 0 empty empty empty 0 -10 0 12 #fcfcfc #000000 #000000 0 1;
#X obj 322 294 tgl 19 0 empty empty empty 0 -10 0 12 #fcfcfc #000000 #000000 0 1;
#X obj 346 294 tgl 19 0 empty empty empty 0 -10 0 12 #fcfcfc #000000 #000000 0 1;
#X obj 631 571 sel 1 2 3 4 5 6 7 8 9 10, f 33;
#X obj 877 570 - 10;
#X obj 138 324 tgl 19 0 empty empty empty 0 -10 0 12 #fcfcfc #000000 #000000 0 1;
#X obj 631 604 wd10, f 30;
#X obj 162 324 tgl 19 0 empty empty empty 0 -10 0 12 #fcfcfc #000000 #000000 0 1;
#X obj 185 324 tgl 19 0 empty empty empty 0 -10 0 12 #fcfcfc #000000 #000000 0 1;
#X obj 207 324 tgl 19 0 empty empty empty 0 -10 0 12 #fcfcfc #000000 #000000 0 1;
#X obj 231 324 tgl 19 0 empty empty empty 0 -10 0 12 #fcfcfc #000000 #000000 0 1;
#X obj 253 324 tgl 19 0 empty empty empty 0 -10 0 12 #fcfcfc #000000 #000000 0 1;
#X obj 277 324 tgl 19 0 empty empty empty 0 -10 0 12 #fcfcfc #000000 #000000 0 1;
#X obj 300 324 tgl 19 0 empty empty empty 0 -10 0 12 #fcfcfc #000000 #000000 0 1;
#X obj 322 324 tgl 19 0 empty empty empty 0 -10 0 12 #fcfcfc #000000 #000000 0 1;
#X obj 346 324 tgl 19 0 empty empty empty 0 -10 0 12 #fcfcfc #000000 #000000 0 1;
#X obj 630 669 sel 1 2 3 4 5 6 7 8 9 10, f 33;
#X obj 877 668 - 10;
#X obj 138 353 tgl 19 0 empty empty empty 0 -10 0 12 #fcfcfc #000000 #000000 0 1;
#X obj 630 700 wd10, f 30;
#X obj 162 353 tgl 19 0 empty empty empty 0 -10 0 12 #fcfcfc #000000 #000000 0 1;
#X obj 185 353 tgl 19 0 empty empty empty 0 -10 0 12 #fcfcfc #000000 #000000 0 1;
#X obj 207 353 tgl 19 0 empty empty empty 0 -10 0 12 #fcfcfc #000000 #000000 0 1;
#X obj 231 353 tgl 19 0 empty empty empty 0 -10 0 12 #fcfcfc #000000 #000000 0 1;
#X obj 253 353 tgl 19 0 empty empty empty 0 -10 0 12 #fcfcfc #000000 #000000 0 1;
#X obj 277 353 tgl 19 0 empty empty empty 0 -10 0 12 #fcfcfc #000000 #000000 0 1;
#X obj 300 353 tgl 19 0 empty empty empty 0 -10 0 12 #fcfcfc #000000 #000000 0 1;
#X obj 322 353 tgl 19 0 empty empty empty 0 -10 0 12 #fcfcfc #000000 #000000 0 1;
#X obj 346 353 tgl 19 0 empty empty empty 0 -10 0 12 #fcfcfc #000000 #000000 0 1;
#X text 372 264 41 .. 50;
#X text 372 293 51 .. 60;
#X text 372 323 61 .. 70;
#X text 372 352 71 .. 80;
#X obj 57 61 i;
#X connect 0 0 113 0;
#X connect 1 0 4 0;
#X connect 1 1 4 1;
#X connect 1 2 4 2;
#X connect 1 3 4 3;
#X connect 1 4 4 4;
#X connect 1 5 4 5;
#X connect 1 6 4 6;
#X connect 1 7 4 7;
#X connect 1 8 4 8;
#X connect 1 9 4 9;
#X connect 1 10 2 0;
#X connect 2 0 15 0;
#X connect 4 0 3 0;
#X connect 4 1 5 0;
#X connect 4 2 6 0;
#X connect 4 3 7 0;
#X connect 4 4 8 0;
#X connect 4 5 9 0;
#X connect 4 6 10 0;
#X connect 4 7 11 0;
#X connect 4 8 12 0;
#X connect 4 9 13 0;
#X connect 15 0 18 0;
#X connect 15 1 18 1;
#X connect 15 2 18 2;
#X connect 15 3 18 3;
#X connect 15 4 18 4;
#X connect 15 5 18 5;
#X connect 15 6 18 6;
#X connect 15 7 18 7;
#X connect 15 8 18 8;
#X connect 15 9 18 9;
#X connect 15 10 16 0;
#X connect 16 0 29 0;
#X connect 18 0 17 0;
#X connect 18 1 19 0;
#X connect 18 2 20 0;
#X connect 18 3 21 0;
#X connect 18 4 22 0;
#X connect 18 5 23 0;
#X connect 18 6 24 0;
#X connect 18 7 25 0;
#X connect 18 8 26 0;
#X connect 18 9 27 0;
#X connect 29 0 32 0;
#X connect 29 1 32 1;
#X connect 29 2 32 2;
#X connect 29 3 32 3;
#X connect 29 4 32 4;
#X connect 29 5 32 5;
#X connect 29 6 32 6;
#X connect 29 7 32 7;
#X connect 29 8 32 8;
#X connect 29 9 32 9;
#X connect 29 10 30 0;
#X connect 30 0 42 0;
#X connect 32 0 31 0;
#X connect 32 1 33 0;
#X connect 32 2 34 0;
#X connect 32 3 35 0;
#X connect 32 4 36 0;
#X connect 32 5 37 0;
#X connect 32 6 38 0;
#X connect 32 7 39 0;
#X connect 32 8 40 0;
#X connect 32 9 41 0;
#X connect 42 0 45 0;
#X connect 42 1 45 1;
#X connect 42 2 45 2;
#X connect 42 3 45 3;
#X connect 42 4 45 4;
#X connect 42 5 45 5;
#X connect 42 6 45 6;
#X connect 42 7 45 7;
#X connect 42 8 45 8;
#X connect 42 9 45 9;
#X connect 42 10 43 0;
#X connect 43 0 57 0;
#X connect 45 0 44 0;
#X connect 45 1 46 0;
#X connect 45 2 47 0;
#X connect 45 3 48 0;
#X connect 45 4 49 0;
#X connect 45 5 50 0;
#X connect 45 6 51 0;
#X connect 45 7 52 0;
#X connect 45 8 53 0;
#X connect 45 9 54 0;
#X connect 57 0 60 0;
#X connect 57 1 60 1;
#X connect 57 2 60 2;
#X connect 57 3 60 3;
#X connect 57 4 60 4;
#X connect 57 5 60 5;
#X connect 57 6 60 6;
#X connect 57 7 60 7;
#X connect 57 8 60 8;
#X connect 57 9 60 9;
#X connect 57 10 58 0;
#X connect 58 0 70 0;
#X connect 60 0 59 0;
#X connect 60 1 61 0;
#X connect 60 2 62 0;
#X connect 60 3 63 0;
#X connect 60 4 64 0;
#X connect 60 5 65 0;
#X connect 60 6 66 0;
#X connect 60 7 67 0;
#X connect 60 8 68 0;
#X connect 60 9 69 0;
#X connect 70 0 73 0;
#X connect 70 1 73 1;
#X connect 70 2 73 2;
#X connect 70 3 73 3;
#X connect 70 4 73 4;
#X connect 70 5 73 5;
#X connect 70 6 73 6;
#X connect 70 7 73 7;
#X connect 70 8 73 8;
#X connect 70 9 73 9;
#X connect 70 10 71 0;
#X connect 71 0 83 0;
#X connect 73 0 72 0;
#X connect 73 1 74 0;
#X connect 73 2 75 0;
#X connect 73 3 76 0;
#X connect 73 4 77 0;
#X connect 73 5 78 0;
#X connect 73 6 79 0;
#X connect 73 7 80 0;
#X connect 73 8 81 0;
#X connect 73 9 82 0;
#X connect 83 0 86 0;
#X connect 83 1 86 1;
#X connect 83 2 86 2;
#X connect 83 3 86 3;
#X connect 83 4 86 4;
#X connect 83 5 86 5;
#X connect 83 6 86 6;
#X connect 83 7 86 7;
#X connect 83 8 86 8;
#X connect 83 9 86 9;
#X connect 83 10 84 0;
#X connect 84 0 96 0;
#X connect 86 0 85 0;
#X connect 86 1 87 0;
#X connect 86 2 88 0;
#X connect 86 3 89 0;
#X connect 86 4 90 0;
#X connect 86 5 91 0;
#X connect 86 6 92 0;
#X connect 86 7 93 0;
#X connect 86 8 94 0;
#X connect 86 9 95 0;
#X connect 96 0 99 0;
#X connect 96 1 99 1;
#X connect 96 2 99 2;
#X connect 96 3 99 3;
#X connect 96 4 99 4;
#X connect 96 5 99 5;
#X connect 96 6 99 6;
#X connect 96 7 99 7;
#X connect 96 8 99 8;
#X connect 96 9 99 9;
#X connect 96 10 97 0;
#X connect 99 0 98 0;
#X connect 99 1 100 0;
#X connect 99 2 101 0;
#X connect 99 3 102 0;
#X connect 99 4 103 0;
#X connect 99 5 104 0;
#X connect 99 6 105 0;
#X connect 99 7 106 0;
#X connect 99 8 107 0;
#X connect 99 9 108 0;
#X connect 113 0 1 0;
#X coords 0 -1 1 1 330 260 1 100 100;
#X restore 588 385 pd ping;
#X obj 835 362 r idping;
#X obj 13 567 s idping;
#N canvas 92 117 953 655 LooperMode 1;
#X obj 537 497 s controller_message;
#X obj 539 466 repeater;
#X obj 113 147 bng 19 250 50 0 empty empty empty 0 -10 0 12 #00ff04 #000000 #000000;
#X text 539 137 aki cell as looper;
#X obj 283 348 t b b b;
#X msg 367 373 51 ImAki 1;
#X msg 524 254 51 aki_send \$1;
#X obj 115 227 tgl 19 0 empty empty empty 0 -10 0 12 #00ff04 #000000 #000000 0 1;
#X msg 317 405 all all resetD bang;
#X msg 697 331 51 resetD bang;
#X obj 281 490 del 100;
#X msg 257 530 51 mode 5;
#X text 138 148 all looper mode;
#X msg 353 584 all all playLoop \$1;
#X obj 112 186 tgl 19 0 empty empty empty 0 -10 0 12 #ffffff #000000 #000000 0 1;
#X text 146 184 all play;
#X text 142 223 send beat;
#X obj 9 40 r resetsignal;
#X obj 158 497 del 500;
#X msg 146 536 1;
#X msg 9 75 0;
#X obj 171 256 bng 30 250 50 0 empty empty empty 0 -10 0 12 #ff0400 #000000 #000000;
#X obj 390 324 s modeall;
#X msg 391 279 0;
#X text 202 262 END;
#X obj 348 156 sel 1;
#X msg 351 229 1;
#X msg 314 300 stop;
#X obj 717 265 s ac_vol_loud;
#X obj 720 230 s au_vol_loud;
#X msg -27 427 all all mode 5;
#X obj 146 625 s au_string_vol;
#X msg 148 593 0.3;
#X obj 199 576 del 50;
#X msg 299 449 5;
#X obj 347 194 del 16000;
#X connect 1 0 0 0;
#X connect 2 0 4 0;
#X connect 2 0 28 0;
#X connect 4 0 30 0;
#X connect 4 0 10 0;
#X connect 4 0 18 0;
#X connect 4 0 33 0;
#X connect 4 0 34 0;
#X connect 4 1 8 0;
#X connect 4 2 5 0;
#X connect 5 0 1 0;
#X connect 6 0 0 0;
#X connect 7 0 6 0;
#X connect 8 0 0 0;
#X connect 9 0 0 0;
#X connect 10 0 11 0;
#X connect 11 0 1 0;
#X connect 13 0 1 0;
#X connect 14 0 13 0;
#X connect 14 0 25 0;
#X connect 17 0 20 0;
#X connect 18 0 19 0;
#X connect 19 0 14 0;
#X connect 20 0 14 0;
#X connect 20 0 7 0;
#X connect 21 0 23 0;
#X connect 21 0 27 0;
#X connect 23 0 22 0;
#X connect 25 0 29 0;
#X connect 25 0 35 0;
#X connect 26 0 7 0;
#X connect 27 0 35 0;
#X connect 32 0 31 0;
#X connect 33 0 32 0;
#X connect 34 0 22 0;
#X connect 35 0 26 0;
#X coords 0 -1 1 1 200 200 1 100 100;
#X restore 940 284 pd LooperMode;
#N canvas 794 25 455 506 reset 0;
#X obj 110 128 bng 30 250 50 0 empty empty reset 0 -10 0 12 #00ff04 #000000 #000000;
#X obj 244 258 s modeall;
#X obj 325 121 s au_v;
#X obj 325 151 s au_o;
#X obj 325 185 s au_c;
#X obj 325 219 s ac_v;
#X obj 325 253 s ac_c;
#X msg 246 231 1;
#X msg 301 90 1;
#X obj 144 255 s au_vol_on;
#X obj 144 229 s ac_vol_on;
#X obj 28 255 s au_string_vol;
#X msg 29 230 1;
#X obj 168 176 t b b b b;
#X obj 178 126 bng 30 250 50 0 empty empty MUTE 0 -10 0 12 #ff0400 #000000 #000000;
#X obj 239 126 bng 30 250 50 0 empty empty fadein 0 -10 0 12 #00ff04 #000000 #000000;
#X obj 183 60 s au_vol_mute;
#X obj 183 39 s ac_vol_mute;
#X obj 325 38 s au_vol_fadein;
#X obj 326 61 s ac_vol_fadein;
#X obj 390 198 s au_string_vol;
#X msg 391 173 1;
#X obj 15 181 s resetsignal;
#X connect 0 0 13 0;
#X connect 7 0 1 0;
#X connect 8 0 2 0;
#X connect 8 0 3 0;
#X connect 8 0 4 0;
#X connect 8 0 5 0;
#X connect 8 0 6 0;
#X connect 12 0 11 0;
#X connect 13 0 12 0;
#X connect 13 0 22 0;
#X connect 13 1 10 0;
#X connect 13 1 9 0;
#X connect 13 2 7 0;
#X connect 13 3 8 0;
#X connect 14 0 17 0;
#X connect 14 0 16 0;
#X connect 15 0 18 0;
#X connect 15 0 19 0;
#X connect 21 0 20 0;
#X coords 0 -1 1 1 185 70 2 100 100;
#X restore 280 261 pd reset;
#X connect 0 0 17 0;
#X connect 0 0 16 0;
#X connect 16 0 22 0;
#X connect 21 0 20 0;
