#N canvas 134 23 1067 704 12;
#X obj 445 134 tgl 15 0 empty empty empty 17 7 0 10 #fcfcfc #000000 #000000 0 1;
#X obj 552 96 tgl 15 0 empty empty empty 17 7 0 10 #fcfcfc #000000 #000000 0 1;
#X obj 295 330 zmq;
#X msg 325 72 socket publish;
#X obj 292 46 t b b;
#X msg 291 96 connect tcp://192.168.0.100:5556;
#X text 506 220 making sure that wifi setup is ready;
#X obj 444 349 list trim;
#X obj 445 277 list prepend control;
#X obj 443 312 list prepend send;
#X obj 292 17 bng 19 250 50 0 empty empty empty 0 -10 0 12 #fcfcfc #000000 #000000;
#X msg 444 71 close;
#X obj 656 111 hradio 19 1 0 3 empty empty empty 0 -10 0 12 #fcfcfc #000000 #000000 0;
#X obj 755 132 hsl 162 19 0 1.5 0 0 empty empty empty -2 -10 0 12 #fcfcfc #000000 #000000 0 1;
#X obj 899 175 tgl 15 0 empty empty empty 17 7 0 10 #fcfcfc #000000 #000000 0 1;
#X obj 450 416 bng 19 250 50 0 empty empty empty 0 -10 0 12 #fcfcfc #000000 #000000;
#X msg 627 472 close;
#X obj 471 531 zmq;
#X msg 494 472 socket subscribe;
#X msg 472 497 connect tcp://192.168.0.100:5555;
#X obj 450 445 t b b b;
#X msg 345 496 subscribe sensor;
#X obj 470 553 route sensor;
#X obj 470 611 route val1 val2;
#X floatatom 467 651 5 0 0 0 - - - 0;
#X floatatom 519 651 5 0 0 0 - - - 0;
#X obj 632 263 tgl 15 0 empty empty empty 17 7 0 10 #fcfcfc #000000 #000000 0 1;
#X obj 632 318 tgl 15 0 empty empty empty 17 7 0 10 #fcfcfc #000000 #000000 0 1;
#X msg 632 342 st1 \$1;
#X obj 634 367 tgl 15 0 empty empty empty 17 7 0 10 #fcfcfc #000000 #000000 0 1;
#X msg 634 391 st2 \$1;
#X obj 592 613 route val1 val2;
#X floatatom 589 653 5 0 0 0 - - - 0;
#X floatatom 641 653 5 0 0 0 - - - 0;
#X obj 656 143 + 1;
#X obj 713 615 route val1 val2;
#X floatatom 710 655 5 0 0 0 - - - 0;
#X floatatom 762 655 5 0 0 0 - - - 0;
#X obj 471 577 route p1 p2 p3;
#X msg 759 262 inst p1 \$1;
#X msg 757 314 inst p2 \$1;
#X msg 758 373 inst p3 \$1;
#X msg 760 421 inst all \$1;
#X obj 451 380 print;
#X obj 757 239 hradio 19 1 0 4 empty empty empty 0 -10 0 12 #fcfcfc #000000 #000000 0;
#X obj 757 290 hradio 19 1 0 4 empty empty empty 0 -10 0 12 #fcfcfc #000000 #000000 0;
#X obj 758 348 hradio 19 1 0 4 empty empty empty 0 -10 0 12 #fcfcfc #000000 #000000 0;
#X obj 760 397 hradio 19 1 0 4 empty empty empty 0 -10 0 12 #fcfcfc #000000 #000000 0;
#X obj 750 36 loadbang;
#X msg 445 158 calib all \$1;
#X obj 409 171 tgl 15 0 empty empty empty 17 7 0 10 #fcfcfc #000000 #000000 0 1;
#X msg 409 195 calib p1 \$1;
#X obj 390 194 tgl 15 0 empty empty empty 17 7 0 10 #fcfcfc #000000 #000000 0 1;
#X msg 390 218 calib p2 \$1;
#X obj 370 217 tgl 15 0 empty empty empty 17 7 0 10 #fcfcfc #000000 #000000 0 1;
#X msg 370 241 calib p3 \$1;
#X obj 157 177 hradio 19 1 0 3 empty empty empty 0 -10 0 12 #fcfcfc #000000 #000000 0;
#X obj 157 209 + 1;
#X obj 87 287 tgl 15 0 empty empty empty 17 7 0 10 #fcfcfc #000000 #000000 0 1;
#X obj 602 35 bng 19 250 50 0 empty empty empty 0 -10 0 12 #fcfcfc #000000 #000000;
#X msg 598 68 resetD bang;
#X msg 99 380 seq 0 1 0 1 0 1 1 1 1 0 0 0 1 0 0 0;
#X msg 99 438 seq 0 0 0 1 0 1 0 0 0 0 1 0 0 0 0 0;
#X text 82 561 test if the clock shifts out overtime;
#X text 83 584 try only sending reset;
#X msg 158 240 mode p1 \$1;
#X msg 87 311 play p1 \$1;
#X obj 44 109 hsl 162 19 0 1 0 0 empty empty empty -2 -10 0 12 #fcfcfc #000000 #000000 0 1;
#X msg 40 132 volume p1 \$1;
#X msg 657 174 mode p2 \$1;
#X msg 574 173 mode p3 \$1;
#X msg 552 120 play p2 \$1;
#X msg 562 143 play p3 \$1;
#X msg 751 155 volume all \$1;
#X msg 898 199 debug all \$1;
#X msg 632 287 takeover all \$1;
#X msg 751 62 set 1.5;
#X connect 0 0 49 0;
#X connect 1 0 71 0;
#X connect 1 0 72 0;
#X connect 3 0 2 0;
#X connect 4 0 5 0;
#X connect 4 1 3 0;
#X connect 5 0 2 0;
#X connect 7 0 2 0;
#X connect 7 0 43 0;
#X connect 8 0 9 0;
#X connect 9 0 7 0;
#X connect 10 0 4 0;
#X connect 11 0 2 0;
#X connect 12 0 34 0;
#X connect 13 0 73 0;
#X connect 14 0 74 0;
#X connect 15 0 20 0;
#X connect 16 0 17 0;
#X connect 17 0 22 0;
#X connect 18 0 17 0;
#X connect 19 0 17 0;
#X connect 20 0 21 0;
#X connect 20 1 19 0;
#X connect 20 2 18 0;
#X connect 21 0 17 0;
#X connect 22 0 38 0;
#X connect 23 0 24 0;
#X connect 23 1 25 0;
#X connect 26 0 75 0;
#X connect 27 0 28 0;
#X connect 28 0 8 0;
#X connect 29 0 30 0;
#X connect 30 0 8 0;
#X connect 31 0 32 0;
#X connect 31 1 33 0;
#X connect 34 0 69 0;
#X connect 34 0 70 0;
#X connect 35 0 36 0;
#X connect 35 1 37 0;
#X connect 38 0 23 0;
#X connect 38 1 31 0;
#X connect 38 2 35 0;
#X connect 39 0 8 0;
#X connect 40 0 8 0;
#X connect 41 0 8 0;
#X connect 42 0 8 0;
#X connect 44 0 39 0;
#X connect 45 0 40 0;
#X connect 46 0 41 0;
#X connect 47 0 42 0;
#X connect 48 0 76 0;
#X connect 49 0 8 0;
#X connect 50 0 51 0;
#X connect 51 0 8 0;
#X connect 52 0 53 0;
#X connect 53 0 8 0;
#X connect 54 0 55 0;
#X connect 55 0 8 0;
#X connect 56 0 57 0;
#X connect 57 0 65 0;
#X connect 58 0 66 0;
#X connect 59 0 60 0;
#X connect 60 0 8 0;
#X connect 61 0 8 0;
#X connect 62 0 8 0;
#X connect 65 0 8 0;
#X connect 66 0 8 0;
#X connect 67 0 68 0;
#X connect 68 0 8 0;
#X connect 69 0 8 0;
#X connect 70 0 8 0;
#X connect 71 0 8 0;
#X connect 72 0 8 0;
#X connect 73 0 8 0;
#X connect 74 0 8 0;
#X connect 75 0 8 0;
#X connect 76 0 13 0;
