#N canvas 53 23 1067 704 12;
#X floatatom 587 152 5 0 0 0 - - - 0;
#X obj 444 151 tgl 15 0 empty empty empty 17 7 0 10 #fcfcfc #000000 #000000 0 1;
#X msg 444 175 calib \$1;
#X obj 520 151 tgl 15 0 empty empty empty 17 7 0 10 #fcfcfc #000000 #000000 0 1;
#X msg 520 175 play \$1;
#X msg 587 174 inst \$1;
#X obj 295 330 zmq;
#X msg 325 72 socket publish;
#X obj 292 46 t b b;
#X msg 291 96 connect tcp://192.168.0.100:5556;
#X text 506 220 making sure that wifi setup is ready;
#X obj 444 309 list trim;
#X obj 445 237 list prepend control;
#X obj 443 272 list prepend send;
#X obj 292 17 bng 19 250 50 0 empty empty empty 0 -10 0 12 #fcfcfc #000000 #000000;
#X msg 444 71 close;
#X msg 657 174 mode \$1;
#X obj 656 150 hradio 19 1 0 3 empty empty empty 0 -10 0 12 #fcfcfc #000000 #000000 0;
#X msg 724 173 volume \$1;
#X obj 728 150 hsl 162 19 0 1 0 0 empty empty empty -2 -10 0 12 #fcfcfc #000000 #000000 0 1;
#X obj 898 152 tgl 15 0 empty empty empty 17 7 0 10 #fcfcfc #000000 #000000 0 1;
#X msg 898 176 debug \$1;
#X obj 450 416 bng 19 250 50 0 empty empty empty 0 -10 0 12 #fcfcfc #000000 #000000;
#X msg 627 472 close;
#X obj 471 531 zmq;
#X msg 494 472 socket subscribe;
#X msg 472 497 connect tcp://192.168.0.100:5555;
#X obj 450 445 t b b b;
#X msg 345 496 subscribe sensor;
#X obj 470 553 route sensor;
#X obj 470 611 route val1 val2;
#X floatatom 467 651 5 0 0 0 - - - 0;
#X floatatom 519 651 5 0 0 0 - - - 0;
#X obj 471 577 route else;
#X connect 0 0 5 0;
#X connect 1 0 2 0;
#X connect 2 0 12 0;
#X connect 3 0 4 0;
#X connect 4 0 12 0;
#X connect 5 0 12 0;
#X connect 7 0 6 0;
#X connect 8 0 9 0;
#X connect 8 1 7 0;
#X connect 9 0 6 0;
#X connect 11 0 6 0;
#X connect 12 0 13 0;
#X connect 13 0 11 0;
#X connect 14 0 8 0;
#X connect 15 0 6 0;
#X connect 16 0 12 0;
#X connect 17 0 16 0;
#X connect 18 0 12 0;
#X connect 19 0 18 0;
#X connect 20 0 21 0;
#X connect 21 0 12 0;
#X connect 22 0 27 0;
#X connect 23 0 24 0;
#X connect 24 0 29 0;
#X connect 25 0 24 0;
#X connect 26 0 24 0;
#X connect 27 0 28 0;
#X connect 27 1 26 0;
#X connect 27 2 25 0;
#X connect 28 0 24 0;
#X connect 29 0 33 0;
#X connect 30 0 31 0;
#X connect 30 1 32 0;
#X connect 33 0 30 0;
