#N canvas 99 23 1067 704 12;
#X obj 67 519 rcp.client;
#X obj 67 170 bng 15 250 50 0 empty empty empty 17 7 0 10 #fcfcfc #000000 #000000;
#X msg 101 220 close;
#X obj 67 634 route list;
#X obj 67 658 route add update remove;
#X floatatom 330 335 5 0 0 0 - - - 0;
#X obj 187 334 tgl 15 0 empty empty empty 17 7 0 10 #fcfcfc #000000 #000000 0 1;
#X text 65 798 <group-label-list> <value>;
#X text 171 706 <group-label-list>;
#X obj 172 687 print client_remove;
#X obj 67 775 print client_added;
#X obj 119 745 print client_update;
#X floatatom 89 603 5 0 0 0 - - - 0;
#X text 132 602 parameter id;
#X obj 111 575 tgl 15 0 empty empty empty 17 7 0 10 #fcfcfc #000000 #000000 0 1;
#X text 132 573 connected;
#X text 152 219 close connection;
#X obj 134 545 print client_info;
#X text 328 198 connect to a rcp server;
#X msg 187 358 calib \$1;
#X obj 263 334 tgl 15 0 empty empty empty 17 7 0 10 #fcfcfc #000000 #000000 0 1;
#X msg 263 358 play \$1;
#X msg 330 357 inst \$1;
#X obj 523 511 rcp.client;
#X obj 523 162 bng 15 250 50 0 empty empty empty 17 7 0 10 #fcfcfc #000000 #000000;
#X msg 557 212 close;
#X obj 523 626 route list;
#X obj 523 650 route add update remove;
#X floatatom 786 327 5 0 0 0 - - - 0;
#X obj 643 326 tgl 15 0 empty empty empty 17 7 0 10 #fcfcfc #000000 #000000 0 1;
#X text 521 790 <group-label-list> <value>;
#X text 627 698 <group-label-list>;
#X obj 628 679 print client_remove;
#X obj 523 767 print client_added;
#X obj 575 737 print client_update;
#X floatatom 545 595 5 0 0 0 - - - 0;
#X text 588 594 parameter id;
#X obj 567 567 tgl 15 0 empty empty empty 17 7 0 10 #fcfcfc #000000 #000000 0 1;
#X text 588 565 connected;
#X text 608 211 close connection;
#X obj 590 537 print client_info;
#X text 784 190 connect to a rcp server;
#X msg 643 350 calib \$1;
#X obj 719 326 tgl 15 0 empty empty empty 17 7 0 10 #fcfcfc #000000 #000000 0 1;
#X msg 719 350 play \$1;
#X msg 786 349 inst \$1;
#X msg 547 190 open ws://192.168.0.102:10000;
#X obj 452 292 tgl 19 0 empty empty empty 0 -10 0 12 #fcfcfc #000000 #000000 0 1;
#X text 427 272 play start;
#X obj 454 349 tgl 19 0 empty empty empty 0 -10 0 12 #fcfcfc #000000 #000000 0 1;
#X text 429 329 calibration;
#X msg 91 198 open ws://192.168.0.100:10000;
#X connect 0 1 12 0;
#X connect 0 2 14 0;
#X connect 0 3 17 0;
#X connect 1 0 0 0;
#X connect 2 0 0 0;
#X connect 3 0 4 0;
#X connect 5 0 22 0;
#X connect 6 0 19 0;
#X connect 19 0 0 0;
#X connect 20 0 21 0;
#X connect 21 0 0 0;
#X connect 22 0 0 0;
#X connect 23 1 35 0;
#X connect 23 2 37 0;
#X connect 23 3 40 0;
#X connect 24 0 23 0;
#X connect 25 0 23 0;
#X connect 26 0 27 0;
#X connect 28 0 45 0;
#X connect 29 0 42 0;
#X connect 42 0 23 0;
#X connect 43 0 44 0;
#X connect 44 0 23 0;
#X connect 45 0 23 0;
#X connect 46 0 23 0;
#X connect 47 0 20 0;
#X connect 47 0 43 0;
#X connect 49 0 6 0;
#X connect 49 0 29 0;
#X connect 51 0 0 0;
