#N canvas 213 23 1280 687 12;
#N canvas 441 25 450 300 zmqsender 0;
#X obj 38 137 zmq;
#X msg 72 82 socket publish;
#X obj 39 56 t b b;
#X obj 39 245 list trim;
#X obj 40 173 list prepend control;
#X obj 38 208 list prepend send;
#X obj 39 27 bng 19 250 50 0 empty empty empty 0 -10 0 12 #fcfcfc #000000 #000000;
#X msg 191 81 close;
#X obj 67 27 loadbang;
#X obj 73 138 r controller_message;
#X msg 39 107 connect tcp://192.168.0.100:5556;
#X obj 134 28 inlet;
#X obj 153 258 print;
#X connect 1 0 0 0;
#X connect 2 0 10 0;
#X connect 2 1 1 0;
#X connect 3 0 0 0;
#X connect 3 0 12 0;
#X connect 4 0 5 0;
#X connect 5 0 3 0;
#X connect 6 0 2 0;
#X connect 7 0 0 0;
#X connect 8 0 2 0;
#X connect 9 0 4 0;
#X connect 10 0 0 0;
#X connect 11 0 2 0;
#X restore 19 -110 pd zmqsender;
#N canvas 266 230 450 300 zmqreciver 0;
#X obj 4 17 bng 19 250 50 0 empty empty empty 0 -10 0 12 #fcfcfc #000000 #000000;
#X msg 175 87 close;
#X obj 33 146 zmq;
#X msg 32 64 socket subscribe;
#X obj 33 42 t b b b;
#X msg 33 87 subscribe sensor;
#X obj 32 168 route sensor;
#X obj 81 14 loadbang;
#X msg 34 113 connect tcp://192.168.0.100:5555;
#X obj 33 197 s sensor_message;
#X obj 33 14 inlet;
#X connect 0 0 4 0;
#X connect 1 0 2 0;
#X connect 2 0 6 0;
#X connect 3 0 2 0;
#X connect 4 0 5 0;
#X connect 4 1 8 0;
#X connect 4 2 3 0;
#X connect 5 0 2 0;
#X connect 6 0 9 0;
#X connect 7 0 4 0;
#X connect 8 0 2 0;
#X connect 10 0 4 0;
#X restore 111 -110 pd zmqreciver;
#X obj 21 -133 bng 19 250 50 0 empty empty empty 0 -10 0 12 #fcfcfc #000000 #000000;
#X obj 184 -130 bng 19 250 50 0 empty empty empty 0 -10 0 12 #fcfcfc #000000 #000000;
#X text 51 -130 reopen onnections;
#X obj 1577 322 s au_vol_fade;
#N canvas 509 186 731 377 volumeControl 0;
#X obj 114 164 hsl 162 19 0 2 0 0 empty empty empty -2 -10 0 12 #ffc7c6 #000000 #000000 0 1;
#X obj 111 108 loadbang;
#X obj 111 213 s controller_message;
#X msg 111 134 set 2;
#N canvas 411 413 450 300 vol-ctr 0;
#X obj 71 109 line;
#X obj 70 169 outlet;
#X obj 30 28 inlet fadeout;
#X obj 503 391 line;
#X msg 445 364 0 1000;
#X msg 501 363 0 10;
#X msg 543 362 2 10;
#X obj 139 27 inlet mute;
#X obj 228 29 inlet on;
#X msg 112 69 0 10;
#X msg 154 68 2 10;
#X msg 35 70 0 1000;
#X obj 308 29 inlet half;
#X msg 262 70 0.6 1000;
#X connect 0 0 1 0;
#X connect 2 0 11 0;
#X connect 4 0 3 0;
#X connect 5 0 3 0;
#X connect 6 0 3 0;
#X connect 7 0 9 0;
#X connect 8 0 10 0;
#X connect 9 0 0 0;
#X connect 10 0 0 0;
#X connect 11 0 0 0;
#X connect 12 0 13 0;
#X connect 13 0 0 0;
#X restore 186 64 pd vol-ctr;
#X obj 283 114 bng 19 250 50 0 empty empty empty 0 -10 0 12 #ff0400 #000000 #000000;
#X text 310 115 fade out;
#X obj 284 137 bng 19 250 50 0 empty empty empty 0 -10 0 12 #ff0400 #000000 #000000;
#X text 311 138 mute;
#X obj 285 163 bng 19 250 50 0 empty empty empty 0 -10 0 12 #ff0400 #000000 #000000;
#X text 309 164 sound on;
#X text 146 132 volume audience;
#X obj 391 163 hsl 162 19 0 2 0 0 empty empty empty -2 -10 0 12 #ffc7c6 #000000 #000000 0 1;
#X obj 388 107 loadbang;
#X msg 388 133 set 2;
#N canvas 411 413 450 300 vol-ctr 0;
#X obj 58 97 line;
#X obj 102 166 outlet;
#X obj 30 28 inlet fadeout;
#X obj 503 391 line;
#X msg 445 364 0 1000;
#X msg 501 363 0 10;
#X msg 543 362 2 10;
#X obj 139 27 inlet mute;
#X obj 228 29 inlet on;
#X msg 36 69 0 1000;
#X msg 112 69 0 10;
#X msg 154 68 2 10;
#X connect 0 0 1 0;
#X connect 2 0 9 0;
#X connect 4 0 3 0;
#X connect 5 0 3 0;
#X connect 6 0 3 0;
#X connect 7 0 10 0;
#X connect 8 0 11 0;
#X connect 9 0 0 0;
#X connect 10 0 0 0;
#X connect 11 0 0 0;
#X restore 451 80 pd vol-ctr;
#X obj 560 113 bng 19 250 50 0 empty empty empty 0 -10 0 12 #ffc7c6 #000000 #000000;
#X text 587 114 fade out;
#X obj 561 136 bng 19 250 50 0 empty empty empty 0 -10 0 12 #ffc7c6 #000000 #000000;
#X text 588 137 mute;
#X obj 562 162 bng 19 250 50 0 empty empty empty 0 -10 0 12 #ffc7c6 #000000 #000000;
#X text 586 163 sound on;
#X text 442 132 volume actor;
#X obj 282 186 r au_vol_on;
#X obj 560 184 r ac_vol_on;
#X obj 560 207 r ac_vol_fade;
#X obj 280 207 r au_vol_fade;
#X obj 559 231 r ac_vol_mute;
#X obj 281 232 r au_vol_mute;
#X msg 111 188 volume audience all \$1;
#X msg 388 188 volume actor all \$1;
#X obj 282 259 r au_vol_half;
#X connect 0 0 29 0;
#X connect 1 0 3 0;
#X connect 3 0 0 0;
#X connect 4 0 0 0;
#X connect 5 0 4 0;
#X connect 7 0 4 1;
#X connect 9 0 4 2;
#X connect 12 0 30 0;
#X connect 13 0 14 0;
#X connect 14 0 12 0;
#X connect 15 0 12 0;
#X connect 16 0 15 0;
#X connect 18 0 15 1;
#X connect 20 0 15 2;
#X connect 23 0 9 0;
#X connect 24 0 20 0;
#X connect 25 0 16 0;
#X connect 26 0 5 0;
#X connect 27 0 18 0;
#X connect 28 0 7 0;
#X connect 29 0 2 0;
#X connect 30 0 2 0;
#X connect 31 0 4 3;
#X coords 0 -1 1 1 550 100 1 100 100;
#X restore 19 274 pd volumeControl;
#N canvas 567 23 639 585 modeControl 0;
#X obj 114 127 hradio 19 1 0 3 empty empty mode\ violin/seq 60 10 0 12 #fcfcfc #000000 #000000 0;
#X obj 117 454 s controller_message;
#N canvas 353 378 450 300 repeater 0;
#X obj 142 46 inlet message;
#X obj 168 106 list;
#X obj 153 246 outlet message;
#X obj 142 72 t a a b;
#X obj 222 104 del 10;
#X obj 167 133 list trim;
#X connect 0 0 3 0;
#X connect 1 0 5 0;
#X connect 3 0 2 0;
#X connect 3 1 1 1;
#X connect 3 2 4 0;
#X connect 4 0 1 0;
#X connect 5 0 2 0;
#X restore 118 428 pd repeater;
#X msg 114 151 mode all all \$1;
#X obj 114 377 hradio 19 1 0 7 empty empty actor\ cello 140 10 0 12 #fcfcfc #000000 #000000 0;
#X obj 114 277 hradio 19 1 0 6 empty empty audience\ cello 120 10 0 12 #fcfcfc #000000 #000000 0;
#X obj 114 227 hradio 19 1 0 6 empty empty audience\ viola 120 10 0 12 #fcfcfc #000000 #000000 0;
#X obj 114 177 hradio 19 1 0 6 empty empty audience\ violin 120 10 0 12 #fcfcfc #000000 #000000 0;
#X msg 116 199 string_mode audience violin \$1;
#X msg 118 249 string_mode audience viola \$1;
#X msg 118 299 string_mode audience cello \$1;
#X obj 114 327 hradio 19 1 0 6 empty empty actor\ violin 120 10 0 12 #fcfcfc #000000 #000000 0;
#X msg 121 348 string_mode actor violin \$1;
#X msg 120 402 string_mode actor cello \$1;
#X obj 30 170 r au_v;
#X obj 33 222 r au_o;
#X obj 33 272 r au_c;
#X obj 10 126 r modeall;
#X obj 32 321 r ac_v;
#X obj 34 375 r ac_c;
#X obj 46 415 sel 1;
#X obj 14 455 s au_vol_on;
#X obj 14 484 s au_vol_half;
#X obj 16 434 t b;
#X connect 0 0 3 0;
#X connect 2 0 1 0;
#X connect 3 0 2 0;
#X connect 4 0 13 0;
#X connect 5 0 10 0;
#X connect 6 0 9 0;
#X connect 7 0 8 0;
#X connect 8 0 2 0;
#X connect 9 0 2 0;
#X connect 10 0 2 0;
#X connect 11 0 12 0;
#X connect 12 0 2 0;
#X connect 13 0 2 0;
#X connect 14 0 7 0;
#X connect 14 0 20 0;
#X connect 15 0 6 0;
#X connect 15 0 20 0;
#X connect 16 0 5 0;
#X connect 16 0 20 0;
#X connect 17 0 0 0;
#X connect 18 0 11 0;
#X connect 19 0 4 0;
#X connect 20 0 22 0;
#X connect 20 1 23 0;
#X connect 23 0 21 0;
#X coords 0 -1 1 1 250 300 1 100 100;
#X restore 18 -46 pd modeControl;
#N canvas 613 23 624 384 freePlayMode 0;
#X text 140 121 start: audience free play;
#X obj 112 122 bng 19 250 50 0 empty empty empty 0 -10 0 12 #fcfcfc #000000 #000000;
#X obj 243 166 s ac_v;
#X obj 245 189 s ac_c;
#X obj 111 212 s modeall;
#X obj 191 165 s au_v;
#X obj 192 189 s au_o;
#X obj 192 212 s au_c;
#X msg 110 165 1;
#X obj 110 188 t a a;
#X obj 312 181 s au_vol_on;
#X connect 1 0 8 0;
#X connect 1 0 10 0;
#X connect 8 0 9 0;
#X connect 9 0 5 0;
#X connect 9 0 6 0;
#X connect 9 0 7 0;
#X connect 9 0 2 0;
#X connect 9 0 3 0;
#X connect 9 1 4 0;
#X coords 0 -1 1 1 240 50 1 100 100;
#X restore 292 -46 pd freePlayMode;
#N canvas 614 149 450 300 toneAG 0;
#X obj 277 432 s ac_c;
#X obj 115 429 s au_v;
#X obj 113 135 tgl 19 0 empty empty note\ A 20 10 0 12 #fcfcfc #000000 #000000 0 1;
#X obj 184 134 tgl 19 0 empty empty note\ G 20 10 0 12 #fcfcfc #000000 #000000 0 1;
#X obj 113 163 tgl 19 0 empty empty note\ A 20 10 0 12 #fcfcfc #000000 #000000 0 1;
#X obj 184 162 tgl 19 0 empty empty note\ G 20 10 0 12 #fcfcfc #000000 #000000 0 1;
#N canvas 530 57 450 300 noteAG 0;
#X obj 91 61 inlet;
#X obj 246 65 inlet;
#X obj 154 256 outlet;
#X obj 111 115 sel 1 0;
#X msg 111 139 2;
#X msg 140 138 1;
#X obj 172 114 sel 1 0;
#X msg 201 137 1;
#X msg 172 138 3;
#X obj 113 163 t a;
#X obj 174 162 t a;
#X connect 0 0 3 0;
#X connect 1 0 6 0;
#X connect 3 0 4 0;
#X connect 3 1 5 0;
#X connect 4 0 9 0;
#X connect 5 0 9 0;
#X connect 6 0 8 0;
#X connect 6 1 7 0;
#X connect 7 0 10 0;
#X connect 8 0 10 0;
#X connect 9 0 2 0;
#X connect 10 0 2 0;
#X restore 114 407 pd noteAG;
#N canvas 530 57 450 300 noteAG 0;
#X obj 91 61 inlet;
#X obj 246 65 inlet;
#X obj 154 256 outlet;
#X obj 111 115 sel 1 0;
#X msg 111 139 2;
#X msg 140 138 1;
#X obj 172 114 sel 1 0;
#X msg 201 137 1;
#X msg 172 138 3;
#X obj 113 163 t a;
#X obj 174 162 t a;
#X connect 0 0 3 0;
#X connect 1 0 6 0;
#X connect 3 0 4 0;
#X connect 3 1 5 0;
#X connect 4 0 9 0;
#X connect 5 0 9 0;
#X connect 6 0 8 0;
#X connect 6 1 7 0;
#X connect 7 0 10 0;
#X connect 8 0 10 0;
#X connect 9 0 2 0;
#X connect 10 0 2 0;
#X restore 114 455 pd noteAG;
#N canvas 530 57 450 300 noteAG 0;
#X obj 91 61 inlet;
#X obj 246 65 inlet;
#X obj 154 256 outlet;
#X obj 111 115 sel 1 0;
#X msg 111 139 2;
#X msg 140 138 1;
#X obj 172 114 sel 1 0;
#X msg 201 137 1;
#X msg 172 138 3;
#X obj 113 163 t a;
#X obj 174 162 t a;
#X connect 0 0 3 0;
#X connect 1 0 6 0;
#X connect 3 0 4 0;
#X connect 3 1 5 0;
#X connect 4 0 9 0;
#X connect 5 0 9 0;
#X connect 6 0 8 0;
#X connect 6 1 7 0;
#X connect 7 0 10 0;
#X connect 8 0 10 0;
#X connect 9 0 2 0;
#X connect 10 0 2 0;
#X restore 197 406 pd noteAG;
#X obj 113 191 tgl 19 0 empty empty note\ A 20 10 0 12 #fcfcfc #000000 #000000 0 1;
#X obj 184 190 tgl 19 0 empty empty note\ G 20 10 0 12 #fcfcfc #000000 #000000 0 1;
#X obj 113 219 tgl 19 0 empty empty note\ A 20 10 0 12 #fcfcfc #000000 #000000 0 1;
#X obj 184 218 tgl 19 0 empty empty note\ G 20 10 0 12 #fcfcfc #000000 #000000 0 1;
#X obj 113 247 tgl 19 0 empty empty note\ A 20 10 0 12 #fcfcfc #000000 #000000 0 1;
#X obj 184 246 tgl 19 0 empty empty note\ G 20 10 0 12 #fcfcfc #000000 #000000 0 1;
#N canvas 530 57 450 300 noteAG 0;
#X obj 91 61 inlet;
#X obj 246 65 inlet;
#X obj 154 256 outlet;
#X obj 111 115 sel 1 0;
#X msg 111 139 2;
#X msg 140 138 1;
#X obj 172 114 sel 1 0;
#X msg 201 137 1;
#X msg 172 138 3;
#X obj 113 163 t a;
#X obj 174 162 t a;
#X connect 0 0 3 0;
#X connect 1 0 6 0;
#X connect 3 0 4 0;
#X connect 3 1 5 0;
#X connect 4 0 9 0;
#X connect 5 0 9 0;
#X connect 6 0 8 0;
#X connect 6 1 7 0;
#X connect 7 0 10 0;
#X connect 8 0 10 0;
#X connect 9 0 2 0;
#X connect 10 0 2 0;
#X restore 199 453 pd noteAG;
#N canvas 530 57 450 300 noteAG 0;
#X obj 91 61 inlet;
#X obj 246 65 inlet;
#X obj 154 256 outlet;
#X obj 111 115 sel 1 0;
#X msg 111 139 2;
#X msg 140 138 1;
#X obj 172 114 sel 1 0;
#X msg 201 137 1;
#X msg 172 138 3;
#X obj 113 163 t a;
#X obj 174 162 t a;
#X connect 0 0 3 0;
#X connect 1 0 6 0;
#X connect 3 0 4 0;
#X connect 3 1 5 0;
#X connect 4 0 9 0;
#X connect 5 0 9 0;
#X connect 6 0 8 0;
#X connect 6 1 7 0;
#X connect 7 0 10 0;
#X connect 8 0 10 0;
#X connect 9 0 2 0;
#X connect 10 0 2 0;
#X restore 276 408 pd noteAG;
#X obj 114 479 s ac_v;
#X obj 197 430 s au_o;
#X obj 200 478 s au_c;
#X text 256 134 audience violin;
#X text 256 162 actor violin;
#X text 256 190 audience viola;
#X text 256 218 audience cello;
#X text 256 246 actor cello;
#X obj 119 283 bng 19 250 50 0 empty empty all\ off 30 10 0 12 #fcfcfc #000000 #000000;
#X msg 120 310 0;
#X connect 2 0 6 0;
#X connect 3 0 6 1;
#X connect 4 0 7 0;
#X connect 5 0 7 1;
#X connect 6 0 1 0;
#X connect 7 0 17 0;
#X connect 8 0 18 0;
#X connect 9 0 8 0;
#X connect 10 0 8 1;
#X connect 11 0 15 0;
#X connect 12 0 15 1;
#X connect 13 0 16 0;
#X connect 14 0 16 1;
#X connect 15 0 19 0;
#X connect 16 0 0 0;
#X connect 25 0 26 0;
#X connect 26 0 3 0;
#X connect 26 0 5 0;
#X connect 26 0 10 0;
#X connect 26 0 12 0;
#X connect 26 0 14 0;
#X connect 26 0 2 0;
#X connect 26 0 4 0;
#X connect 26 0 9 0;
#X connect 26 0 11 0;
#X connect 26 0 13 0;
#X coords 0 -1 1 1 300 210 1 100 100;
#X restore 295 28 pd toneAG;
#N canvas 528 23 717 619 toneLiter 0;
#X obj 293 432 s ac_c;
#X obj 2 428 s au_v;
#X obj 115 165 tgl 19 0 empty empty toneliter 20 10 0 12 #fcfcfc #000000 #000000 0 1;
#X obj 115 193 tgl 19 0 empty empty toneliter 20 10 0 12 #fcfcfc #000000 #000000 0 1;
#X obj 115 221 tgl 19 0 empty empty toneliter 20 10 0 12 #fcfcfc #000000 #000000 0 1;
#X obj 115 249 tgl 19 0 empty empty toneliter 20 10 0 12 #fcfcfc #000000 #000000 0 1;
#X obj 115 277 tgl 19 0 empty empty toneliter 20 10 0 12 #fcfcfc #000000 #000000 0 1;
#X obj 76 429 s ac_v;
#X obj 153 429 s au_o;
#X obj 223 429 s au_c;
#X text 205 163 audience violin;
#X text 205 191 actor violin;
#X text 205 219 audience viola;
#X text 205 247 audience cello;
#X text 205 275 actor cello;
#X obj 115 137 tgl 19 0 empty empty toneliter 20 10 0 12 #fcfcfc #000000 #000000 0 1;
#X text 207 138 ALL;
#N canvas 530 57 450 300 toneL 0;
#X obj 91 61 inlet;
#X obj 154 256 outlet;
#X obj 111 115 sel 1 0;
#X msg 140 138 1;
#X obj 113 163 t a;
#X msg 111 139 4;
#X connect 0 0 2 0;
#X connect 2 0 5 0;
#X connect 2 1 3 0;
#X connect 3 0 4 0;
#X connect 4 0 1 0;
#X connect 5 0 4 0;
#X restore 1 406 pd toneL;
#N canvas 530 57 450 300 toneL 0;
#X obj 91 61 inlet;
#X obj 154 256 outlet;
#X obj 111 115 sel 1 0;
#X msg 140 138 1;
#X obj 113 163 t a;
#X msg 111 139 4;
#X connect 0 0 2 0;
#X connect 2 0 5 0;
#X connect 2 1 3 0;
#X connect 3 0 4 0;
#X connect 4 0 1 0;
#X connect 5 0 4 0;
#X restore 152 406 pd toneL;
#N canvas 530 57 450 300 toneL 0;
#X obj 91 61 inlet;
#X obj 154 256 outlet;
#X obj 111 115 sel 1 0;
#X msg 140 138 1;
#X obj 113 163 t a;
#X msg 111 139 4;
#X connect 0 0 2 0;
#X connect 2 0 5 0;
#X connect 2 1 3 0;
#X connect 3 0 4 0;
#X connect 4 0 1 0;
#X connect 5 0 4 0;
#X restore 290 407 pd toneL;
#N canvas 530 57 450 300 toneL 0;
#X obj 91 61 inlet;
#X obj 154 256 outlet;
#X obj 111 115 sel 1 0;
#X msg 140 138 1;
#X obj 113 163 t a;
#X msg 111 139 4;
#X connect 0 0 2 0;
#X connect 2 0 5 0;
#X connect 2 1 3 0;
#X connect 3 0 4 0;
#X connect 4 0 1 0;
#X connect 5 0 4 0;
#X restore 74 406 pd toneL;
#N canvas 530 57 450 300 toneL 0;
#X obj 91 61 inlet;
#X obj 154 256 outlet;
#X obj 111 115 sel 1 0;
#X msg 140 138 1;
#X obj 113 163 t a;
#X msg 111 139 4;
#X connect 0 0 2 0;
#X connect 2 0 5 0;
#X connect 2 1 3 0;
#X connect 3 0 4 0;
#X connect 4 0 1 0;
#X connect 5 0 4 0;
#X restore 222 406 pd toneL;
#N canvas 530 57 450 300 toneL 0;
#X obj 91 61 inlet;
#X obj 154 256 outlet;
#X obj 111 115 sel 1 0;
#X msg 140 138 1;
#X obj 113 163 t a;
#X msg 111 139 4;
#X connect 0 0 2 0;
#X connect 2 0 5 0;
#X connect 2 1 3 0;
#X connect 3 0 4 0;
#X connect 4 0 1 0;
#X connect 5 0 4 0;
#X restore 363 408 pd toneL;
#X connect 2 0 17 0;
#X connect 3 0 20 0;
#X connect 4 0 18 0;
#X connect 5 0 21 0;
#X connect 6 0 19 0;
#X connect 15 0 22 0;
#X connect 17 0 1 0;
#X connect 18 0 8 0;
#X connect 19 0 0 0;
#X connect 20 0 7 0;
#X connect 21 0 9 0;
#X connect 22 0 0 0;
#X connect 22 0 9 0;
#X connect 22 0 8 0;
#X connect 22 0 7 0;
#X connect 22 0 1 0;
#X coords 0 -1 1 1 300 210 1 100 100;
#X restore 610 30 pd toneLiter;
#N canvas 613 23 624 384 half 0;
#X obj 112 122 bng 19 250 50 0 empty empty empty 0 -10 0 12 #fcfcfc #000000 #000000;
#X text 140 121 volume down!;
#X obj 112 161 s au_vol_half;
#X connect 0 0 2 0;
#X coords 0 -1 1 1 240 50 1 100 100;
#X restore 549 -46 pd half vol;
#N canvas 528 23 717 619 playSong 0;
#X obj 293 432 s ac_c;
#X obj 2 428 s au_v;
#X obj 117 224 tgl 19 0 empty empty playSong 20 10 0 12 #fcfcfc #000000 #000000 0 1;
#X obj 117 252 tgl 19 0 empty empty playSong 20 10 0 12 #fcfcfc #000000 #000000 0 1;
#X obj 117 280 tgl 19 0 empty empty playSong 20 10 0 12 #fcfcfc #000000 #000000 0 1;
#X obj 117 308 tgl 19 0 empty empty playSong 20 10 0 12 #fcfcfc #000000 #000000 0 1;
#X obj 117 336 tgl 19 0 empty empty playSong 20 10 0 12 #fcfcfc #000000 #000000 0 1;
#X obj 76 429 s ac_v;
#X obj 153 429 s au_o;
#X obj 223 429 s au_c;
#X text 207 222 audience violin;
#X text 207 250 actor violin;
#X text 207 278 audience viola;
#X text 207 306 audience cello;
#X text 207 334 actor cello;
#X obj 117 196 tgl 19 0 empty empty playSong 20 10 0 12 #fcfcfc #000000 #000000 0 1;
#X text 209 197 ALL;
#N canvas 530 57 450 300 song 0;
#X obj 91 61 inlet;
#X obj 154 256 outlet;
#X obj 111 115 sel 1 0;
#X msg 140 138 1;
#X obj 113 163 t a;
#X msg 111 139 5;
#X connect 0 0 2 0;
#X connect 2 0 5 0;
#X connect 2 1 3 0;
#X connect 3 0 4 0;
#X connect 4 0 1 0;
#X connect 5 0 4 0;
#X restore 1 406 pd song;
#N canvas 530 57 450 300 song 0;
#X obj 91 61 inlet;
#X obj 154 256 outlet;
#X obj 111 115 sel 1 0;
#X msg 140 138 1;
#X obj 113 163 t a;
#X msg 111 139 5;
#X connect 0 0 2 0;
#X connect 2 0 5 0;
#X connect 2 1 3 0;
#X connect 3 0 4 0;
#X connect 4 0 1 0;
#X connect 5 0 4 0;
#X restore 75 407 pd song;
#N canvas 530 57 450 300 song 0;
#X obj 91 61 inlet;
#X obj 154 256 outlet;
#X obj 111 115 sel 1 0;
#X msg 140 138 1;
#X obj 113 163 t a;
#X msg 111 139 5;
#X connect 0 0 2 0;
#X connect 2 0 5 0;
#X connect 2 1 3 0;
#X connect 3 0 4 0;
#X connect 4 0 1 0;
#X connect 5 0 4 0;
#X restore 153 404 pd song;
#N canvas 530 57 450 300 song 0;
#X obj 91 61 inlet;
#X obj 154 256 outlet;
#X obj 111 115 sel 1 0;
#X msg 140 138 1;
#X obj 113 163 t a;
#X msg 111 139 5;
#X connect 0 0 2 0;
#X connect 2 0 5 0;
#X connect 2 1 3 0;
#X connect 3 0 4 0;
#X connect 4 0 1 0;
#X connect 5 0 4 0;
#X restore 224 406 pd song;
#N canvas 530 57 450 300 song 0;
#X obj 91 61 inlet;
#X obj 154 256 outlet;
#X obj 111 115 sel 1 0;
#X msg 140 138 1;
#X obj 113 163 t a;
#X msg 111 139 5;
#X connect 0 0 2 0;
#X connect 2 0 5 0;
#X connect 2 1 3 0;
#X connect 3 0 4 0;
#X connect 4 0 1 0;
#X connect 5 0 4 0;
#X restore 293 405 pd song;
#N canvas 530 57 450 300 song 0;
#X obj 91 61 inlet;
#X obj 154 256 outlet;
#X obj 111 115 sel 1 0;
#X msg 140 138 1;
#X obj 113 163 t a;
#X msg 111 139 5;
#X connect 0 0 2 0;
#X connect 2 0 5 0;
#X connect 2 1 3 0;
#X connect 3 0 4 0;
#X connect 4 0 1 0;
#X connect 5 0 4 0;
#X restore 365 404 pd song;
#X msg 432 197 3300;
#X text 114 133 choose start point;
#X obj 116 162 bng 19 250 50 0 empty empty empty 0 -10 0 12 #ff8300 #000000 #000000;
#X obj 227 164 bng 19 250 50 0 empty empty empty 0 -10 0 12 #ff8300 #000000 #000000;
#X msg 432 222 53600;
#X msg 432 249 startPoint all all \$1;
#X text 250 164 tact14;
#X text 141 162 from strat;
#X obj 433 306 s controller_message;
#N canvas 353 378 450 300 repeater 0;
#X obj 142 46 inlet message;
#X obj 168 106 list;
#X obj 153 246 outlet message;
#X obj 142 72 t a a b;
#X obj 222 104 del 10;
#X obj 167 133 list trim;
#X connect 0 0 3 0;
#X connect 1 0 5 0;
#X connect 3 0 2 0;
#X connect 3 1 1 1;
#X connect 3 2 4 0;
#X connect 4 0 1 0;
#X connect 5 0 2 0;
#X restore 433 281 pd repeater;
#X connect 2 0 17 0;
#X connect 3 0 18 0;
#X connect 4 0 19 0;
#X connect 5 0 20 0;
#X connect 6 0 21 0;
#X connect 15 0 22 0;
#X connect 17 0 1 0;
#X connect 18 0 7 0;
#X connect 19 0 8 0;
#X connect 20 0 9 0;
#X connect 21 0 0 0;
#X connect 22 0 0 0;
#X connect 22 0 9 0;
#X connect 22 0 8 0;
#X connect 22 0 7 0;
#X connect 22 0 1 0;
#X connect 23 0 28 0;
#X connect 25 0 23 0;
#X connect 26 0 27 0;
#X connect 27 0 28 0;
#X connect 28 0 32 0;
#X connect 32 0 31 0;
#X coords 0 -1 1 1 250 280 1 100 100;
#X restore 931 30 pd playSong;
#N canvas 528 23 717 619 audition 0;
#X obj 293 432 s ac_c;
#X obj 117 163 tgl 19 0 empty empty playSong 30 10 0 12 #fcfcfc #000000 #000000 0 1;
#X text 114 133 choose start point;
#X obj 433 306 s controller_message;
#N canvas 353 378 450 300 repeater 0;
#X obj 142 46 inlet message;
#X obj 168 106 list;
#X obj 153 246 outlet message;
#X obj 142 72 t a a b;
#X obj 222 104 del 10;
#X obj 167 133 list trim;
#X connect 0 0 3 0;
#X connect 1 0 5 0;
#X connect 3 0 2 0;
#X connect 3 1 1 1;
#X connect 3 2 4 0;
#X connect 4 0 1 0;
#X connect 5 0 2 0;
#X restore 433 283 pd repeater;
#N canvas 530 57 450 300 auditionMode 0;
#X obj 91 61 inlet;
#X obj 154 256 outlet;
#X obj 111 115 sel 1 0;
#X msg 140 138 1;
#X obj 113 163 t a;
#X msg 111 139 6;
#X connect 0 0 2 0;
#X connect 2 0 5 0;
#X connect 2 1 3 0;
#X connect 3 0 4 0;
#X connect 4 0 1 0;
#X connect 5 0 4 0;
#X restore 293 405 pd auditionMode;
#X text 210 164 audition 1;
#X obj 129 394 t a b;
#X obj 118 194 tgl 19 0 empty empty playSong 30 10 0 12 #fcfcfc #000000 #000000 0 1;
#X text 213 194 audition 2;
#X obj 176 355 t a b;
#X msg 432 249 startPoint actor cello \$1;
#X msg 432 197 73000;
#X msg 484 195 10600;
#X connect 1 0 7 0;
#X connect 4 0 3 0;
#X connect 5 0 0 0;
#X connect 7 0 5 0;
#X connect 7 1 12 0;
#X connect 8 0 10 0;
#X connect 10 0 5 0;
#X connect 10 1 13 0;
#X connect 11 0 4 0;
#X connect 12 0 11 0;
#X connect 13 0 11 0;
#X coords 0 -1 1 1 250 140 1 100 100;
#X restore 615 253 pd audition;
#N canvas 556 194 724 584 Sequencer 0;
#X obj 116 112 bng 19 250 50 0 empty empty empty 0 -10 0 12 #00faff #000000 #000000;
#X text 140 114 Try Mode3;
#X obj 116 327 s controller_message;
#N canvas 353 378 450 300 repeater 0;
#X obj 142 46 inlet message;
#X obj 168 106 list;
#X obj 153 246 outlet message;
#X obj 142 72 t a a b;
#X obj 222 104 del 10;
#X obj 167 133 list trim;
#X connect 0 0 3 0;
#X connect 1 0 5 0;
#X connect 3 0 2 0;
#X connect 3 1 1 1;
#X connect 3 2 4 0;
#X connect 4 0 1 0;
#X connect 5 0 2 0;
#X restore 116 302 pd repeater;
#X obj 115 194 tgl 19 0 empty empty empty 0 -10 0 12 #00faff #000000 #000000 0 1;
#X text 141 192 loop play on/off;
#X text 143 211 only ID 1 \, 2 \, 4 can input loop;
#X obj 116 260 tgl 19 0 empty empty empty 0 -10 0 12 #00faff #000000 #000000 0 1;
#X text 141 259 start Jam!;
#X obj 222 237 bng 19 250 50 0 empty empty empty 0 -10 0 12 #00faff #000000 #000000;
#X text 244 239 reset Loop;
#X obj 122 352 bng 19 250 50 0 empty empty empty 0 -10 0 12 #00faff #000000 #000000;
#X obj 122 381 s ac_vol_fade;
#X obj 224 382 s au_vol_fade;
#X text 144 351 END all fade out;
#X msg 223 284 resetD all all bang;
#X msg 116 230 play all all \$1;
#X msg 117 281 jam all all \$1;
#X obj 10 126 s modeall;
#X msg 8 102 2;
#X connect 0 0 19 0;
#X connect 3 0 2 0;
#X connect 4 0 16 0;
#X connect 7 0 17 0;
#X connect 9 0 15 0;
#X connect 11 0 12 0;
#X connect 11 0 13 0;
#X connect 15 0 3 0;
#X connect 16 0 3 0;
#X connect 17 0 3 0;
#X connect 19 0 18 0;
#X coords 0 -1 1 1 200 300 1 100 100;
#X restore 893 327 pd Sequencer;
#N canvas 619 263 660 432 instrumentModes 0;
#X obj 109 146 hradio 19 1 0 4 empty empty empty 0 -10 0 12 #e3c6ff #000000 #000000 0;
#X obj 199 146 hradio 19 1 0 4 empty empty empty 0 -10 0 12 #e3c6ff #000000 #000000 0;
#X obj 288 147 hradio 19 1 0 4 empty empty empty 0 -10 0 12 #e3c6ff #000000 #000000 0;
#X msg 112 205 inst 1 \$1;
#X obj 275 317 s controller_message;
#X msg 201 208 inst 2 \$1;
#N canvas 353 378 450 300 repeater 0;
#X obj 142 46 inlet message;
#X obj 168 106 list;
#X obj 153 246 outlet message;
#X obj 142 72 t a a b;
#X obj 222 104 del 10;
#X obj 167 133 list trim;
#X connect 0 0 3 0;
#X connect 1 0 5 0;
#X connect 3 0 2 0;
#X connect 3 1 1 1;
#X connect 3 2 4 0;
#X connect 4 0 1 0;
#X connect 5 0 2 0;
#X restore 275 288 pd repeater;
#X text 110 124 ID1;
#X text 201 124 ID2;
#X obj 377 149 hradio 19 1 0 4 empty empty empty 0 -10 0 12 #e3c6ff #000000 #000000 0;
#X msg 289 209 inst 4 \$1;
#X text 374 125 ID5;
#X text 290 125 ID4;
#X msg 378 210 inst 5 \$1;
#X connect 0 0 3 0;
#X connect 1 0 5 0;
#X connect 2 0 10 0;
#X connect 3 0 6 0;
#X connect 5 0 6 0;
#X connect 6 0 4 0;
#X connect 9 0 13 0;
#X connect 10 0 6 0;
#X connect 13 0 6 0;
#X coords 0 -1 1 1 360 80 1 100 100;
#X restore 24 393 pd instrumentModes;
#N canvas 703 355 450 300 Flash 0;
#X obj 221 173 s controller_message;
#X msg 223 145 flash all bang;
#X obj 127 122 bng 30 250 50 0 empty empty empty 0 -10 0 12 #faff00 #000000 #000000;
#X connect 1 0 0 0;
#X connect 2 0 1 0;
#X coords 0 -1 1 1 85 60 1 100 100;
#X restore 399 413 pd Flash;
#N canvas 80 135 925 633 monitor 0;
#X obj 396 201 route val1 val2;
#X floatatom 111 206 5 0 0 0 - - - 0;
#X floatatom 162 206 5 0 0 0 - - - 0;
#X obj 588 251 s controller_message;
#X obj 398 87 r sensor_message;
#X floatatom 111 131 5 1 62 0 - - - 0;
#X obj 513 204 list prepend debug;
#X obj 113 156 tgl 19 0 empty empty empty 0 -10 0 12 #fcfcfc #000000 #000000 0 1;
#X obj 512 229 list prepend;
#X obj 448 129 loadbang;
#X obj 513 251 list trim;
#X obj 396 178 route 1, f 8;
#X text 155 132 whih ID?;
#X text 139 160 click to start;
#X text 109 180 receiving sensor value;
#X connect 0 0 1 0;
#X connect 0 1 2 0;
#X connect 4 0 11 0;
#X connect 5 0 6 0;
#X connect 5 0 11 1;
#X connect 6 0 8 1;
#X connect 7 0 8 0;
#X connect 8 0 10 0;
#X connect 9 0 5 0;
#X connect 10 0 3 0;
#X connect 11 0 0 0;
#X coords 0 -1 1 1 180 140 1 100 100;
#X restore 498 407 pd monitor;
#X connect 2 0 0 0;
#X connect 3 0 1 0;
