#N canvas 0 23 1280 755 12;
#X obj 16 492 bng 19 250 50 0 empty empty empty 0 -10 0 12 #fcfcfc #000000 #000000;
#X text 49 491 reopen onnections;
#N canvas 509 186 731 377 volumeControl 0;
#X obj 110 161 hsl 162 19 0 1.5 0 0 empty empty empty -2 -10 0 12 #ffc7c6 #000000 #000000 0 1;
#X obj 67 39 loadbang;
#X obj 410 450 s controller_message;
#N canvas 411 407 696 365 vol-ctr 0;
#X obj 69 136 line, f 17;
#X obj 70 169 outlet;
#X obj 30 28 inlet fadeout;
#X obj 503 391 line;
#X msg 445 364 0 1000;
#X msg 501 363 0 10;
#X msg 543 363 2 10;
#X obj 139 28 inlet mute;
#X obj 228 29 inlet on;
#X msg 113 69 0 10;
#X msg 35 70 0 1000;
#X obj 308 29 inlet half;
#X msg 154 68 1 10;
#X msg 258 70 0.3 1000;
#X obj 390 30 inlet fadein;
#X obj 485 30 inlet loud;
#X msg 487 76 1.5 100;
#X msg 369 75 1 1000;
#X obj 570 32 inlet val;
#X connect 0 0 1 0;
#X connect 2 0 10 0;
#X connect 4 0 3 0;
#X connect 5 0 3 0;
#X connect 6 0 3 0;
#X connect 7 0 9 0;
#X connect 8 0 12 0;
#X connect 9 0 0 0;
#X connect 10 0 0 0;
#X connect 11 0 13 0;
#X connect 12 0 0 0;
#X connect 13 0 0 0;
#X connect 14 0 17 0;
#X connect 15 0 16 0;
#X connect 16 0 0 0;
#X connect 17 0 0 0;
#X connect 18 0 0 0;
#X restore 182 61 pd vol-ctr;
#X obj 280 115 bng 19 250 50 0 empty empty empty 0 -10 0 12 #ff0400 #000000 #000000;
#X text 303 114 fade out;
#X obj 280 138 bng 19 250 50 0 empty empty empty 0 -10 0 12 #ff0400 #000000 #000000;
#X text 303 136 mute;
#X obj 280 161 bng 19 250 50 0 empty empty empty 0 -10 0 12 #ff0400 #000000 #000000;
#X text 303 159 sound on;
#X text 107 139 volume audience;
#X obj 395 161 hsl 162 19 0 2 0 0 empty empty empty -2 -10 0 12 #ffc7c6 #000000 #000000 0 1;
#X obj 473 41 loadbang;
#N canvas 411 413 744 296 vol-ctr 0;
#X obj 97 116 line, f 10;
#X obj 103 166 outlet;
#X obj 30 28 inlet fadeout;
#X obj 503 391 line;
#X msg 445 364 0 1000;
#X msg 501 363 0 10;
#X msg 543 363 2 10;
#X obj 139 28 inlet mute;
#X obj 228 29 inlet on;
#X msg 36 69 0 1000;
#X msg 113 69 0 10;
#X obj 293 29 inlet fadein;
#X msg 295 64 1 2000;
#X msg 154 68 1.3 10;
#X obj 388 28 inlet loud;
#X msg 390 52 2 100;
#X obj 483 29 inlet val;
#X connect 0 0 1 0;
#X connect 2 0 9 0;
#X connect 4 0 3 0;
#X connect 5 0 3 0;
#X connect 6 0 3 0;
#X connect 7 0 10 0;
#X connect 8 0 13 0;
#X connect 9 0 0 0;
#X connect 10 0 0 0;
#X connect 11 0 12 0;
#X connect 12 0 0 0;
#X connect 13 0 0 0;
#X connect 14 0 15 0;
#X connect 15 0 0 0;
#X connect 16 0 0 0;
#X restore 653 408 pd vol-ctr;
#X obj 563 115 bng 19 250 50 0 empty empty empty 0 -10 0 12 #ffc7c6 #000000 #000000;
#X obj 563 138 bng 19 250 50 0 empty empty empty 0 -10 0 12 #ffc7c6 #000000 #000000;
#X text 591 139 mute;
#X obj 563 161 bng 19 250 50 0 empty empty empty 0 -10 0 12 #ffc7c6 #000000 #000000;
#X text 391 139 volume actor;
#X obj 355 68 r au_vol_on;
#X obj 594 63 r ac_vol_on;
#X obj 585 13 r ac_vol_fade;
#X obj 354 16 r au_vol_fade;
#X obj 584 38 r ac_vol_mute;
#X obj 354 41 r au_vol_mute;
#X obj 128 4 r au_vol_half;
#X msg 275 373 audience all volume \$1;
#X msg 553 373 actor all volume \$1;
#X obj 218 24 r au_vol_fadein;
#X obj 708 340 r ac_vol_fadein;
#X msg 67 65 set 1;
#X msg 473 68 set 1;
#X msg 21 391 audience all string_vol \$1;
#X obj 135 298 hsl 162 19 0 1 0 0 empty empty empty -2 -10 0 12 #fcfcfc #000000 #000000 0 1;
#X text 132 275 string vol audience;
#X obj 21 325 r au_string_vol;
#X text 591 162 on;
#X text 591 117 f-out;
#X obj 743 311 r ac_vol_loud;
#X obj 220 -17 r au_vol_loud;
#X obj 247 1 r au_vol_val;
#X obj 731 374 r ac_vol_val;
#X connect 0 0 26 0;
#X connect 1 0 30 0;
#X connect 3 0 0 0;
#X connect 4 0 3 0;
#X connect 6 0 3 1;
#X connect 8 0 3 2;
#X connect 11 0 27 0;
#X connect 12 0 31 0;
#X connect 13 0 11 0;
#X connect 14 0 13 0;
#X connect 15 0 13 1;
#X connect 17 0 13 2;
#X connect 19 0 8 0;
#X connect 20 0 17 0;
#X connect 21 0 14 0;
#X connect 22 0 4 0;
#X connect 23 0 15 0;
#X connect 24 0 6 0;
#X connect 25 0 3 3;
#X connect 26 0 2 0;
#X connect 27 0 2 0;
#X connect 28 0 3 4;
#X connect 29 0 13 3;
#X connect 30 0 0 0;
#X connect 31 0 11 0;
#X connect 32 0 2 0;
#X connect 33 0 32 0;
#X connect 35 0 33 0;
#X connect 38 0 13 4;
#X connect 39 0 3 5;
#X connect 40 0 3 6;
#X connect 41 0 13 5;
#X coords 0 -1 1 1 550 100 1 100 100;
#X restore 11 340 pd volumeControl;
#N canvas 641 130 639 585 modeControl 0;
#X obj 115 128 hradio 19 1 0 10 empty empty empty 120 10 0 12 #fcfcfc #000000 #000000 0;
#X obj 288 471 s controller_message;
#X obj 115 311 hradio 19 1 0 7 empty empty actor\ cello 140 10 0 12 #fcfcfc #000000 #000000 0;
#X obj 115 237 hradio 19 1 0 6 empty empty audience\ cello 120 10 0 12 #fcfcfc #000000 #000000 0;
#X obj 115 200 hradio 19 1 0 6 empty empty audience\ viola 120 10 0 12 #fcfcfc #000000 #000000 0;
#X obj 115 165 hradio 19 1 0 6 empty empty audience\ violin 120 10 0 12 #fcfcfc #000000 #000000 0;
#X obj 115 275 hradio 19 1 0 6 empty empty actor\ violin 120 10 0 12 #fcfcfc #000000 #000000 0;
#X obj 37 105 r au_v;
#X obj 37 173 r au_o;
#X obj 37 207 r au_c;
#X obj 54 57 r modeall;
#X obj 37 241 r ac_v;
#X obj 37 275 r ac_c;
#X obj 15 408 sel 1;
#X obj 48 480 s au_vol_on;
#X obj 15 528 s au_vol_half;
#X obj 48 434 t b;
#X obj 191 508 hradio 19 1 0 6 empty empty audience\ violin2 120 10 0 12 #fcfcfc #000000 #000000 0;
#X msg 385 147 all all mode \$1;
#X msg 385 185 audience violin string_mode \$1;
#X msg 402 537 audience violin2 string_mode \$1;
#X msg 385 258 audience viola string_mode \$1;
#X msg 385 295 audience cello string_mode \$1;
#X msg 385 332 actor violin string_mode \$1;
#X msg 385 370 actor cello string_mode \$1;
#X text 262 126 mode;
#X text 136 104 1|2|3|4|5;
#X obj 64 363 r au_stringmodes;
#X obj 48 457 del 500;
#X obj 288 445 t a;
#X connect 0 0 18 0;
#X connect 2 0 24 0;
#X connect 3 0 22 0;
#X connect 4 0 21 0;
#X connect 5 0 19 0;
#X connect 6 0 23 0;
#X connect 7 0 5 0;
#X connect 7 0 13 0;
#X connect 8 0 4 0;
#X connect 8 0 13 0;
#X connect 9 0 3 0;
#X connect 9 0 13 0;
#X connect 10 0 0 0;
#X connect 11 0 6 0;
#X connect 12 0 2 0;
#X connect 13 0 15 0;
#X connect 13 1 16 0;
#X connect 16 0 28 0;
#X connect 17 0 20 0;
#X connect 18 0 29 0;
#X connect 19 0 29 0;
#X connect 20 0 29 0;
#X connect 21 0 29 0;
#X connect 22 0 29 0;
#X connect 23 0 29 0;
#X connect 24 0 29 0;
#X connect 27 0 5 0;
#X connect 27 0 4 0;
#X connect 27 0 3 0;
#X connect 27 0 6 0;
#X connect 27 0 2 0;
#X connect 28 0 14 0;
#X connect 29 0 1 0;
#X coords 0 -1 1 1 250 240 2 100 100;
#X restore 14 17 pd modeControl;
#N canvas 613 25 624 384 freePlayMode 0;
#X obj 110 123 bng 19 250 50 0 empty empty empty 0 -10 0 12 #00ff04 #000000 #000000;
#X obj 162 218 s ac_v;
#X obj 120 271 s ac_c;
#X obj 157 334 s modeall;
#X obj 138 244 s au_v;
#X obj 98 294 s au_o;
#X obj 73 319 s au_c;
#X msg 123 166 1;
#X obj 123 189 t a a;
#X obj 238 186 s au_vol_on;
#X obj 253 250 s au_string_vol;
#X msg 252 222 1;
#X text 141 122 audience free play;
#X obj 335 185 s ac_vol_on;
#X obj 256 273 s ac_string_vol;
#X connect 0 0 7 0;
#X connect 0 0 9 0;
#X connect 0 0 11 0;
#X connect 0 0 13 0;
#X connect 7 0 8 0;
#X connect 8 0 4 0;
#X connect 8 0 5 0;
#X connect 8 0 6 0;
#X connect 8 0 1 0;
#X connect 8 0 2 0;
#X connect 8 1 3 0;
#X connect 11 0 10 0;
#X connect 11 0 14 0;
#X coords 0 -1 1 1 240 50 1 100 100;
#X restore 274 16 pd freePlayMode;
#N canvas 366 69 775 709 toneAG 0;
#X obj 301 476 s ac_c;
#X obj 128 433 s au_v;
#X obj 127 139 tgl 19 0 empty empty note\ A 25 10 0 14 #c6ffc7 #000000 #000000 0 1;
#X obj 223 139 tgl 19 0 empty empty note\ G 25 10 0 14 #c6ffc7 #000000 #000000 0 1;
#X obj 415 556 tgl 19 0 empty empty note\ A 20 10 0 12 #fcfcfc #000000 #000000 0 1;
#X obj 486 555 tgl 19 0 empty empty note\ G 20 10 0 12 #fcfcfc #000000 #000000 0 1;
#X obj 127 175 tgl 19 0 empty empty note\ A 25 10 0 14 #c6ffc7 #000000 #000000 0 1;
#X obj 223 175 tgl 19 0 empty empty note\ G 25 10 0 14 #c6ffc7 #000000 #000000 0 1;
#X obj 127 210 tgl 19 0 empty empty note\ A 25 10 0 14 #c6ffc7 #000000 #000000 0 1;
#X obj 223 210 tgl 19 0 empty empty note\ G 25 10 0 14 #c6ffc7 #000000 #000000 0 1;
#X obj 488 468 tgl 19 0 empty empty note\ A 20 10 0 12 #fcfcfc #000000 #000000 0 1;
#X obj 560 466 tgl 19 0 empty empty note\ G 20 10 0 12 #fcfcfc #000000 #000000 0 1;
#X obj 108 555 s ac_v;
#X obj 211 434 s au_o;
#X obj 205 515 s au_c;
#X text 558 555 actor violin;
#X text 632 467 actor cello;
#X obj 348 325 bng 19 250 50 0 empty empty all\ off 30 10 0 12 #fcfcfc #000000 #000000;
#X msg 22 324 0;
#X obj 516 510 tgl 19 0 empty empty note\ A 20 10 0 12 #fcfcfc #000000 #000000 0 1;
#X obj 587 510 tgl 19 0 empty empty note\ G 20 10 0 12 #fcfcfc #000000 #000000 0 1;
#X text 658 509 audience violin2;
#X obj 376 439 s au_v2;
#X obj 127 246 tgl 19 0 empty empty note\ A 25 10 0 14 #00ff04 #000000 #000000 0 1;
#X obj 223 246 tgl 19 0 empty empty note\ G 25 10 0 14 #00ff04 #000000 #000000 0 1;
#X text 313 324 all;
#X obj 128 410 noteAG;
#X obj 108 530 noteAG;
#X obj 211 410 noteAG;
#X obj 203 490 noteAG;
#X obj 375 413 noteAG;
#X obj 300 453 noteAG;
#X obj 163 314 noteAG;
#X text 323 209 cello;
#X text 322 174 viola;
#X text 322 138 violin;
#X text 323 243 ALL;
#X connect 2 0 26 0;
#X connect 3 0 26 1;
#X connect 4 0 27 0;
#X connect 5 0 27 1;
#X connect 6 0 28 0;
#X connect 7 0 28 1;
#X connect 8 0 29 0;
#X connect 9 0 29 1;
#X connect 10 0 31 0;
#X connect 11 0 31 1;
#X connect 17 0 18 0;
#X connect 18 0 3 0;
#X connect 18 0 5 0;
#X connect 18 0 7 0;
#X connect 18 0 9 0;
#X connect 18 0 11 0;
#X connect 18 0 2 0;
#X connect 18 0 4 0;
#X connect 18 0 6 0;
#X connect 18 0 8 0;
#X connect 18 0 10 0;
#X connect 18 0 19 0;
#X connect 18 0 20 0;
#X connect 19 0 30 0;
#X connect 20 0 30 1;
#X connect 23 0 32 0;
#X connect 24 0 32 1;
#X connect 26 0 1 0;
#X connect 26 0 12 0;
#X connect 27 0 12 0;
#X connect 28 0 13 0;
#X connect 29 0 14 0;
#X connect 29 0 0 0;
#X connect 30 0 22 0;
#X connect 31 0 0 0;
#X connect 32 0 1 0;
#X connect 32 0 13 0;
#X connect 32 0 12 0;
#X connect 32 0 14 0;
#X connect 32 0 0 0;
#X connect 32 0 22 0;
#X coords 0 -1 1 1 300 180 1 100 100;
#X restore 274 72 pd toneAG;
#N canvas 443 25 778 456 toneLiter 0;
#X obj 405 317 s ac_c;
#X obj 113 313 s au_v;
#X obj 502 103 tgl 19 0 empty empty toneliter 20 10 0 12 #fcfcfc #000000 #000000 0 1;
#X obj 503 130 tgl 19 0 empty empty toneliter 20 10 0 12 #fcfcfc #000000 #000000 0 1;
#X obj 503 181 tgl 19 0 empty empty toneliter 20 10 0 12 #fcfcfc #000000 #000000 0 1;
#X obj 503 208 tgl 19 0 empty empty toneliter 20 10 0 12 #fcfcfc #000000 #000000 0 1;
#X obj 503 237 tgl 19 0 empty empty toneliter 20 10 0 12 #fcfcfc #000000 #000000 0 1;
#X obj 187 313 s ac_v;
#X obj 265 313 s au_o;
#X obj 335 313 s au_c;
#X text 592 102 audience violin;
#X text 593 127 actor violin;
#X text 593 179 audience viola;
#X text 593 207 audience cello;
#X text 593 235 actor cello;
#X obj 111 130 tgl 19 0 empty empty tonleiter 25 10 0 14 #00ff04 #000000 #000000 0 1;
#N canvas 530 57 450 300 toneL 0;
#X obj 91 61 inlet;
#X obj 154 256 outlet;
#X obj 111 115 sel 1 0;
#X msg 140 138 1;
#X obj 113 163 t a;
#X msg 111 139 4;
#X connect 0 0 2 0;
#X connect 2 0 5 0;
#X connect 2 1 3 0;
#X connect 3 0 4 0;
#X connect 4 0 1 0;
#X connect 5 0 4 0;
#X restore 112 291 pd toneL;
#N canvas 530 57 450 300 toneL 0;
#X obj 91 61 inlet;
#X obj 154 256 outlet;
#X obj 111 115 sel 1 0;
#X msg 140 138 1;
#X obj 113 163 t a;
#X msg 111 139 4;
#X connect 0 0 2 0;
#X connect 2 0 5 0;
#X connect 2 1 3 0;
#X connect 3 0 4 0;
#X connect 4 0 1 0;
#X connect 5 0 4 0;
#X restore 263 291 pd toneL;
#N canvas 530 57 450 300 toneL 0;
#X obj 91 61 inlet;
#X obj 154 256 outlet;
#X obj 111 115 sel 1 0;
#X msg 140 138 1;
#X obj 113 163 t a;
#X msg 111 139 4;
#X connect 0 0 2 0;
#X connect 2 0 5 0;
#X connect 2 1 3 0;
#X connect 3 0 4 0;
#X connect 4 0 1 0;
#X connect 5 0 4 0;
#X restore 401 292 pd toneL;
#N canvas 530 57 450 300 toneL 0;
#X obj 91 61 inlet;
#X obj 154 256 outlet;
#X obj 111 115 sel 1 0;
#X msg 140 138 1;
#X obj 113 163 t a;
#X msg 111 139 4;
#X connect 0 0 2 0;
#X connect 2 0 5 0;
#X connect 2 1 3 0;
#X connect 3 0 4 0;
#X connect 4 0 1 0;
#X connect 5 0 4 0;
#X restore 186 291 pd toneL;
#N canvas 530 57 450 300 toneL 0;
#X obj 91 61 inlet;
#X obj 154 256 outlet;
#X obj 111 115 sel 1 0;
#X msg 140 138 1;
#X obj 113 163 t a;
#X msg 111 139 4;
#X connect 0 0 2 0;
#X connect 2 0 5 0;
#X connect 2 1 3 0;
#X connect 3 0 4 0;
#X connect 4 0 1 0;
#X connect 5 0 4 0;
#X restore 333 291 pd toneL;
#N canvas 530 57 450 300 toneL 0;
#X obj 91 61 inlet;
#X obj 154 256 outlet;
#X obj 111 115 sel 1 0;
#X msg 140 138 1;
#X obj 113 163 t a;
#X msg 111 139 4;
#X connect 0 0 2 0;
#X connect 2 0 5 0;
#X connect 2 1 3 0;
#X connect 3 0 4 0;
#X connect 4 0 1 0;
#X connect 5 0 4 0;
#X restore 142 231 pd toneL;
#X obj 505 157 tgl 19 0 empty empty toneliter 20 10 0 12 #fcfcfc #000000 #000000 0 1;
#X text 595 155 audience violin2;
#N canvas 530 57 450 300 toneL 0;
#X obj 91 61 inlet;
#X obj 154 256 outlet;
#X obj 111 115 sel 1 0;
#X msg 140 138 1;
#X obj 113 163 t a;
#X msg 111 139 4;
#X connect 0 0 2 0;
#X connect 2 0 5 0;
#X connect 2 1 3 0;
#X connect 3 0 4 0;
#X connect 4 0 1 0;
#X connect 5 0 4 0;
#X restore 130 347 pd toneL;
#X obj 131 368 s au_v2;
#X obj 215 129 tgl 19 0 empty empty arpeggio 25 10 0 14 #00ff04 #000000 #000000 0 1;
#X obj 314 130 hradio 19 1 0 4 empty empty speed 0 -10 0 12 #c6ffc7 #000000 #000000 0;
#X obj 536 417 s controller_message;
#X obj 536 390 repeater;
#X msg 536 363 all all tonespeed \$1;
#X msg 536 335 all all arpeggio \$1;
#X msg 225 242 0;
#X msg 267 231 1;
#X obj 231 183 t a a;
#X obj 142 197 t a a;
#X obj 201 213 sel 1;
#X obj 266 208 sel 1;
#X obj 101 29 r resetsignal;
#X msg 101 64 set 0;
#X connect 2 0 16 0;
#X connect 3 0 19 0;
#X connect 4 0 17 0;
#X connect 5 0 20 0;
#X connect 6 0 18 0;
#X connect 15 0 35 0;
#X connect 16 0 1 0;
#X connect 17 0 8 0;
#X connect 18 0 0 0;
#X connect 19 0 7 0;
#X connect 20 0 9 0;
#X connect 21 0 0 0;
#X connect 21 0 9 0;
#X connect 21 0 8 0;
#X connect 21 0 7 0;
#X connect 21 0 1 0;
#X connect 22 0 24 0;
#X connect 24 0 25 0;
#X connect 26 0 34 0;
#X connect 27 0 30 0;
#X connect 29 0 28 0;
#X connect 30 0 29 0;
#X connect 31 0 29 0;
#X connect 32 0 31 0;
#X connect 33 0 31 0;
#X connect 34 0 21 0;
#X connect 34 1 37 0;
#X connect 35 0 21 0;
#X connect 35 1 36 0;
#X connect 36 0 32 0;
#X connect 37 0 33 0;
#X connect 38 0 39 0;
#X connect 39 0 15 0;
#X connect 39 0 26 0;
#X connect 39 0 27 0;
#X coords 0 -1 1 1 300 60 1 100 100;
#X restore 583 73 pd toneLiter;
#N canvas 613 25 624 384 half 0;
#X obj 138 123 bng 19 250 50 0 empty empty empty 0 -10 0 12 #fcfcfc #000000 #000000;
#X text 167 122 volume down!;
#X obj 138 162 s au_vol_half;
#X connect 0 0 2 0;
#X coords 0 -1 1 1 240 50 1 100 100;
#X restore 521 16 pd half vol;
#N canvas 352 79 896 690 playSong 0;
#X obj 361 462 s ac_c;
#X obj 67 459 s au_v;
#X obj 111 213 tgl 19 0 empty empty play\ Violin 25 10 0 14 #c6ffc7 #000000 #000000 0 1;
#X obj 122 579 tgl 19 0 empty empty playSong 20 10 0 12 #fcfcfc #000000 #000000 0 1;
#X obj 111 246 tgl 19 0 empty empty play\ Viola 25 10 0 14 #c6ffc7 #000000 #000000 0 1;
#X obj 111 280 tgl 19 0 empty empty play\ Cello 25 10 0 14 #c6ffc7 #000000 #000000 0 1;
#X obj 421 527 tgl 19 0 empty empty playSong 20 10 0 12 #fcfcfc #000000 #000000 0 1;
#X obj 141 459 s ac_v;
#X obj 217 459 s au_o;
#X obj 287 459 s au_c;
#X text 212 576 actor violin;
#X text 511 525 actor cello;
#X obj 112 181 tgl 19 0 empty empty play\ All 25 10 0 14 #00ff04 #000000 #000000 0 1;
#X obj 462 282 s controller_message;
#X obj 573 405 tgl 19 0 empty empty playSong 20 10 0 12 #fcfcfc #000000 #000000 0 1;
#X text 663 403 audience violin2;
#X obj 573 460 s au_v2;
#X obj 111 125 hradio 19 1 0 4 empty empty empty 0 -10 0 12 #00ff04 #000000 #000000 0;
#X msg 462 206 all all startPoint \$1;
#X obj 343 394 song;
#X obj 262 391 song;
#X obj 167 391 song;
#X obj 78 392 song;
#X obj 123 605 song;
#X obj 417 556 song;
#X obj 572 432 song;
#X obj 342 347 t a a;
#X obj 392 375 sel 1;
#X obj 262 347 t a a;
#X obj 165 350 t a a;
#X obj 82 344 t a a;
#X obj 291 371 sel 1;
#X obj 203 375 sel 1;
#X obj 117 369 sel 1;
#X text 111 148 tact1/14/57/388;
#X obj 101 29 r resetsignal;
#X msg 101 64 set 0;
#X obj 402 81 r playPoint;
#X connect 2 0 30 0;
#X connect 3 0 23 0;
#X connect 4 0 29 0;
#X connect 5 0 28 0;
#X connect 6 0 24 0;
#X connect 12 0 26 0;
#X connect 14 0 25 0;
#X connect 17 0 18 0;
#X connect 18 0 13 0;
#X connect 19 0 0 0;
#X connect 19 0 9 0;
#X connect 19 0 8 0;
#X connect 19 0 7 0;
#X connect 19 0 1 0;
#X connect 19 0 16 0;
#X connect 20 0 9 0;
#X connect 20 0 0 0;
#X connect 21 0 8 0;
#X connect 22 0 1 0;
#X connect 22 0 7 0;
#X connect 23 0 7 0;
#X connect 24 0 0 0;
#X connect 25 0 16 0;
#X connect 26 0 19 0;
#X connect 26 1 27 0;
#X connect 27 0 17 0;
#X connect 28 0 20 0;
#X connect 28 1 31 0;
#X connect 29 0 21 0;
#X connect 29 1 32 0;
#X connect 30 0 22 0;
#X connect 30 1 33 0;
#X connect 31 0 17 0;
#X connect 32 0 17 0;
#X connect 33 0 17 0;
#X connect 35 0 36 0;
#X connect 36 0 17 0;
#X connect 36 0 12 0;
#X connect 36 0 2 0;
#X connect 36 0 4 0;
#X connect 36 0 5 0;
#X connect 37 0 17 0;
#X coords 0 -1 1 1 140 210 1 100 100;
#X restore 583 144 pd playSong;
#N canvas 528 25 439 631 audition 0;
#X obj 147 588 s ac_c;
#X obj 155 217 tgl 19 0 empty empty playSong 30 10 0 12 #fcfcfc #000000 #000000 0 1;
#X text 155 188 choose start point;
#X obj 214 508 s controller_message;
#N canvas 530 57 450 300 auditionMode 0;
#X obj 91 61 inlet;
#X obj 154 256 outlet;
#X obj 111 115 sel 1 0;
#X msg 140 138 1;
#X obj 113 163 t a;
#X msg 111 139 6;
#X connect 0 0 2 0;
#X connect 2 0 5 0;
#X connect 2 1 3 0;
#X connect 3 0 4 0;
#X connect 4 0 1 0;
#X connect 5 0 4 0;
#X restore 147 560 pd auditionMode;
#X text 252 216 audition 1;
#X obj 112 344 t a b;
#X obj 155 248 tgl 19 0 empty empty playSong 30 10 0 12 #fcfcfc #000000 #000000 0 1;
#X text 252 247 audition 2;
#X obj 159 304 t a b;
#X msg 214 409 73000;
#X msg 267 408 10600;
#X msg 214 462 actor cello startPoint \$1;
#X obj 214 484 repeater;
#X connect 1 0 6 0;
#X connect 4 0 0 0;
#X connect 6 0 4 0;
#X connect 6 1 10 0;
#X connect 7 0 9 0;
#X connect 9 0 4 0;
#X connect 9 1 11 0;
#X connect 10 0 12 0;
#X connect 11 0 12 0;
#X connect 12 0 13 0;
#X connect 13 0 3 0;
#X coords 0 -1 1 1 200 140 1 100 100;
#X restore 821 1091 pd audition;
#N canvas 264 23 985 755 Sequencer 0;
#X obj 146 176 bng 19 250 50 0 empty empty mode\ 3 30 10 0 12 #00faff #000000 #000000;
#X obj 495 713 s controller_message;
#X obj 146 203 tgl 19 0 empty empty playLoop 30 10 0 12 #00faff #000000 #000000 0 1;
#X text 399 80 only ID 1 \, 2 \, 4 can input loop;
#X obj 147 477 tgl 19 0 empty empty empty 0 -10 0 12 #00faff #000000 #000000 0 1;
#X text 174 480 start Jam!;
#X obj 146 338 bng 19 250 50 0 empty empty reset\ loop 30 10 0 12 #00faff #000000 #000000;
#X obj 137 660 bng 19 250 50 0 empty empty empty 0 -10 0 12 #00faff #000000 #000000;
#X obj 135 721 s ac_vol_fade;
#X obj 237 722 s au_vol_fade;
#X text 156 656 END all fade out;
#X obj 404 166 s modeall;
#X msg 401 142 3;
#X obj 146 506 bng 19 250 50 0 empty empty next\ words 20 10 0 12 #00faff #000000 #000000;
#X text 244 205 actor;
#X obj 146 231 tgl 19 0 empty empty playLoop 30 10 0 12 #00faff #000000 #000000 0 1;
#X text 240 231 violin;
#X obj 146 257 tgl 19 0 empty empty playLoop 30 10 0 12 #00faff #000000 #000000 0 1;
#X text 237 257 violin2;
#X obj 146 285 tgl 19 0 empty empty playLoop 30 10 0 12 #00faff #000000 #000000 0 1;
#X text 241 286 viola;
#X obj 146 311 tgl 19 0 empty empty playLoop 30 10 0 12 #00faff #000000 #000000 0 1;
#X text 242 312 cello;
#X obj 146 366 bng 19 250 50 0 empty empty reset\ loop 30 10 0 12 #00faff #000000 #000000;
#X text 255 367 kick;
#X obj 146 392 bng 19 250 50 0 empty empty reset\ loop 30 10 0 12 #00faff #000000 #000000;
#X text 252 392 snare;
#X obj 146 420 bng 19 250 50 0 empty empty reset\ loop 30 10 0 12 #00faff #000000 #000000;
#X obj 146 446 bng 19 250 50 0 empty empty reset\ loop 30 10 0 12 #00faff #000000 #000000;
#X text 252 425 hihat;
#X text 251 449 hikick;
#X text 256 340 all;
#X msg 379 222 actor all playLoop \$1;
#X msg 379 250 audience violin playLoop \$1;
#X msg 379 276 audience violin2 playLoop \$1;
#X msg 379 305 audience viola playLoop \$1;
#X msg 379 331 audience cello playLoop \$1;
#X msg 255 581 all all sequenceNext bang;
#X msg 379 496 all all jam \$1;
#X obj 572 628 repeater;
#X msg 379 357 all all resetD bang;
#X msg 379 385 all all resetK bang;
#X msg 379 411 all all resetS bang;
#X msg 379 438 all all resetH bang;
#X msg 379 466 all all resetHk bang;
#X connect 0 0 12 0;
#X connect 2 0 32 0;
#X connect 4 0 38 0;
#X connect 6 0 40 0;
#X connect 7 0 8 0;
#X connect 7 0 9 0;
#X connect 12 0 11 0;
#X connect 13 0 37 0;
#X connect 15 0 33 0;
#X connect 17 0 34 0;
#X connect 19 0 35 0;
#X connect 21 0 36 0;
#X connect 23 0 41 0;
#X connect 25 0 42 0;
#X connect 27 0 43 0;
#X connect 28 0 44 0;
#X connect 32 0 39 0;
#X connect 33 0 39 0;
#X connect 34 0 39 0;
#X connect 35 0 39 0;
#X connect 36 0 39 0;
#X connect 37 0 1 0;
#X connect 38 0 39 0;
#X connect 39 0 1 0;
#X connect 40 0 39 0;
#X connect 41 0 39 0;
#X connect 42 0 39 0;
#X connect 43 0 39 0;
#X connect 44 0 39 0;
#X coords 0 -1 1 1 200 400 1 100 100;
#X restore 599 963 pd Sequencer;
#N canvas 619 263 660 432 instrumentModes 0;
#X obj 112 208 hradio 19 1 0 4 empty empty empty 0 -10 0 12 #e3c6ff #000000 #000000 0;
#X obj 202 208 hradio 19 1 0 4 empty empty empty 0 -10 0 12 #e3c6ff #000000 #000000 0;
#X obj 292 210 hradio 19 1 0 4 empty empty empty 0 -10 0 12 #e3c6ff #000000 #000000 0;
#X obj 206 433 s controller_message;
#X text 114 186 ID1;
#X text 205 186 ID2;
#X obj 381 211 hradio 19 1 0 4 empty empty empty 0 -10 0 12 #e3c6ff #000000 #000000 0;
#X text 294 187 ID4;
#X obj 467 210 hradio 19 1 0 4 empty empty empty 0 -10 0 12 #e3c6ff #000000 #000000 0;
#X floatatom 467 187 5 0 0 0 - - - 0;
#X text 377 187 ID6;
#X obj 206 405 repeater;
#X msg 116 267 1 inst \$1;
#X msg 205 270 2 inst \$1;
#X msg 292 271 4 inst \$1;
#X msg 382 272 6 inst \$1;
#X msg 460 342 \$1 inst \$2;
#X obj 460 306 pack 0 0;
#X obj 489 277 t b a;
#X connect 0 0 12 0;
#X connect 1 0 13 0;
#X connect 2 0 14 0;
#X connect 6 0 15 0;
#X connect 8 0 18 0;
#X connect 9 0 17 0;
#X connect 11 0 3 0;
#X connect 12 0 11 0;
#X connect 13 0 11 0;
#X connect 14 0 11 0;
#X connect 15 0 11 0;
#X connect 16 0 11 0;
#X connect 17 0 16 0;
#X connect 18 0 17 0;
#X connect 18 1 17 1;
#X coords 0 -1 1 1 450 80 1 100 100;
#X restore 74 1238 pd instrumentModes;
#N canvas 377 163 391 438 Flash 0;
#X obj 159 349 s controller_message;
#X obj 140 122 bng 30 250 50 0 empty empty empty 0 -10 0 12 #faff00 #000000 #000000;
#X obj 252 122 bng 30 250 50 0 empty empty empty 0 -10 0 12 #faff00 #000000 #000000;
#X floatatom 192 128 5 0 0 0 - - - 0;
#X msg 139 204 all all flash bang;
#X msg 59 243 9 flash bang;
#X obj 232 244 int 0;
#X msg 232 288 \$1 flash bang;
#X obj 110 133 tgl 19 0 empty empty empty 0 -10 0 12 #fcfcfc #000000 #000000 0 1;
#X obj 83 44 metro 2000;
#X connect 1 0 4 0;
#X connect 2 0 6 0;
#X connect 3 0 6 1;
#X connect 4 0 0 0;
#X connect 5 0 0 0;
#X connect 6 0 7 0;
#X connect 7 0 0 0;
#X connect 8 0 9 0;
#X connect 9 0 1 0;
#X coords 0 -1 1 1 200 60 1 100 100;
#X restore 17 272 pd Flash;
#N canvas 80 135 521 404 monitor 0;
#X obj 315 211 route val1 val2;
#X floatatom 108 210 5 0 0 0 - - - 0;
#X floatatom 172 210 5 0 0 0 - - - 0;
#X obj 141 356 s controller_message;
#X obj 315 152 r sensor_message;
#X floatatom 107 133 5 1 65 0 - - - 0;
#X obj 108 165 tgl 19 0 empty empty empty 0 -10 0 12 #fcfcfc #000000 #000000 0 1;
#X obj 106 60 loadbang;
#X obj 315 187 route 1, f 8;
#X text 170 136 whih ID?;
#X text 131 164 click to start;
#X msg 141 324 \$2 debug \$1;
#X obj 141 296 pack 0 0;
#X text 105 184 sensor value;
#X connect 0 0 1 0;
#X connect 0 1 2 0;
#X connect 4 0 8 0;
#X connect 5 0 8 1;
#X connect 5 0 12 1;
#X connect 6 0 12 0;
#X connect 7 0 5 0;
#X connect 8 0 0 0;
#X connect 11 0 3 0;
#X connect 12 0 11 0;
#X coords 0 -1 1 1 180 140 1 100 100;
#X restore 382 488 pd monitor;
#N canvas 387 23 893 686 violinVoice 0;
#X obj 133 184 tgl 19 0 empty empty voice\ violin 20 10 0 12 #fcfcfc #000000 #000000 0 1;
#X obj 133 213 tgl 19 0 empty empty voice\ violin2 20 10 0 12 #fcfcfc #000000 #000000 0 1;
#X obj 133 240 tgl 19 0 empty empty voice\ viola 20 10 0 12 #fcfcfc #000000 #000000 0 1;
#X obj 133 269 tgl 19 0 empty empty voice\ cello 20 10 0 12 #fcfcfc #000000 #000000 0 1;
#X obj 135 298 bng 19 250 50 0 empty empty all\ off 30 10 0 12 #fcfcfc #000000 #000000;
#X obj 71 395 + 1;
#X obj 212 393 + 1;
#X obj 360 393 + 1;
#X obj 503 394 + 1;
#X obj 298 504 s au_vol_mute;
#X obj 402 502 s ac_vol_mute;
#X obj 127 434 s au_v;
#X obj 203 429 s au_v2;
#X obj 356 434 s au_o;
#X obj 458 432 s au_c;
#X obj 73 434 s ac_v;
#X obj 512 433 s ac_c;
#X connect 0 0 5 0;
#X connect 1 0 6 0;
#X connect 2 0 7 0;
#X connect 3 0 8 0;
#X connect 4 0 9 0;
#X connect 4 0 10 0;
#X connect 5 0 15 0;
#X connect 5 0 11 0;
#X connect 6 0 12 0;
#X connect 7 0 13 0;
#X connect 8 0 16 0;
#X connect 8 0 14 0;
#X coords 0 -1 1 1 150 180 1 100 100;
#X restore 398 991 pd violinVoice;
#X obj 15 538 ctrl_zmq_recv;
#X obj 16 514 ctrl_zmq_send;
#N canvas 129 215 1151 563 canon 0;
#X obj 402 612 s controller_message;
#X obj 892 610 s controller_message;
#X obj 170 201 bng 19 250 50 0 empty empty empty 0 -10 0 12 #fcfcfc #000000 #000000;
#X obj 170 235 bng 19 250 50 0 empty empty empty 0 -10 0 12 #fcfcfc #000000 #000000;
#X obj 170 270 bng 19 250 50 0 empty empty empty 0 -10 0 12 #fcfcfc #000000 #000000;
#X floatatom 768 120 5 0 0 0 - - - 0;
#X floatatom 780 151 5 0 0 0 - - - 0;
#X floatatom 910 306 5 0 0 0 - - - 0;
#X floatatom 917 336 5 0 0 0 - - - 0;
#X obj 170 303 bng 19 250 50 0 empty empty empty 0 -10 0 12 #fcfcfc #000000 #000000;
#X obj 858 461 del 1000;
#X obj 880 490 del 1000;
#X floatatom 920 420 5 0 0 0 - - - 0;
#X floatatom 927 450 5 0 0 0 - - - 0;
#X obj 799 251 del 2000;
#X obj 822 280 del 2000;
#X obj 848 347 del 2000;
#X obj 870 375 del 2000;
#X obj 170 337 bng 19 250 50 0 empty empty empty 0 -10 0 12 #fcfcfc #000000 #000000;
#X obj 1210 155 del 2000;
#X obj 1232 182 del 2000;
#X obj 170 371 bng 19 250 50 0 empty empty empty 0 -10 0 12 #fcfcfc #000000 #000000;
#X obj 1265 240 del 2000;
#X obj 1287 268 del 2000;
#X obj 170 405 bng 19 250 50 0 empty empty empty 0 -10 0 12 #fcfcfc #000000 #000000;
#X obj 1332 325 del 2000;
#X obj 1354 352 del 2000;
#X obj 170 440 bng 19 250 50 0 empty empty empty 0 -10 0 12 #fcfcfc #000000 #000000;
#X obj 1373 430 del 2000;
#X obj 1395 458 del 2000;
#X obj 699 151 del 2000;
#X obj 722 180 del 2000;
#X msg 428 180 all viola loadfile c_Gymnasium;
#X msg 484 280 all viola loadfile c_Kindergarten;
#X msg 557 371 all viola loadfile c_Musiklehrer;
#X msg 617 490 all viola loadfile c_Physik;
#X msg 935 175 all viola loadfile c_Putzen;
#X msg 985 263 all viola loadfile c_schaffner;
#X msg 1035 350 all viola loadfile c_Schuldirektor;
#X msg 1068 440 all viola loadfile c_Supermarkt;
#X text 205 202 Gymnasium;
#X msg 412 153 all cello loadfile c_Gymnasium;
#X msg 447 205 all violin loadfile c_Gymnasium;
#X msg 503 305 all violin loadfile c_Kindergarten;
#X msg 577 396 all violin loadfile c_Musiklehrer;
#X msg 637 515 all violin loadfile c_Physik;
#X msg 954 200 all violin loadfile c_Putzen;
#X msg 1004 288 all violin loadfile c_schaffner;
#X msg 1054 375 all violin loadfile c_Schuldirektor;
#X msg 1087 465 all violin loadfile c_Supermarkt;
#X msg 467 253 all cello loadfile c_Kindergarten;
#X msg 540 345 all cello loadfile c_Musiklehrer;
#X msg 600 465 all cello loadfile c_Physik;
#X msg 918 148 all cello loadfile c_Putzen;
#X msg 968 237 all cello loadfile c_schaffner;
#X msg 1018 325 all cello loadfile c_Schuldirektor;
#X msg 1052 413 all cello loadfile c_Supermarkt;
#X text 207 234 Kindergarten;
#X text 205 269 Musiklehrer;
#X text 207 305 Physik;
#X text 207 337 Putzen;
#X text 204 370 schaffner;
#X text 204 405 Schuldirektor;
#X text 204 441 Supermarkt;
#X obj 154 562 s modeall;
#X obj 172 172 tgl 19 0 empty empty empty 0 -10 0 12 #fcfcfc #000000 #000000 0 1;
#X obj 157 500 sel 1 0;
#X msg 190 533 1;
#X text 207 174 canon on/off;
#X msg 157 533 3;
#X connect 2 0 41 0;
#X connect 2 0 30 0;
#X connect 3 0 50 0;
#X connect 3 0 14 0;
#X connect 4 0 51 0;
#X connect 4 0 16 0;
#X connect 5 0 6 0;
#X connect 5 0 30 1;
#X connect 6 0 31 1;
#X connect 7 0 8 0;
#X connect 7 0 16 1;
#X connect 8 0 17 1;
#X connect 9 0 10 0;
#X connect 9 0 52 0;
#X connect 10 0 11 0;
#X connect 10 0 35 0;
#X connect 11 0 45 0;
#X connect 12 0 13 0;
#X connect 12 0 10 1;
#X connect 13 0 11 1;
#X connect 14 0 33 0;
#X connect 14 0 15 0;
#X connect 15 0 43 0;
#X connect 16 0 34 0;
#X connect 16 0 17 0;
#X connect 17 0 44 0;
#X connect 18 0 19 0;
#X connect 18 0 53 0;
#X connect 19 0 20 0;
#X connect 19 0 36 0;
#X connect 20 0 46 0;
#X connect 21 0 22 0;
#X connect 21 0 54 0;
#X connect 22 0 23 0;
#X connect 22 0 37 0;
#X connect 23 0 47 0;
#X connect 24 0 25 0;
#X connect 24 0 55 0;
#X connect 25 0 26 0;
#X connect 25 0 38 0;
#X connect 26 0 48 0;
#X connect 27 0 28 0;
#X connect 27 0 56 0;
#X connect 28 0 29 0;
#X connect 28 0 39 0;
#X connect 29 0 49 0;
#X connect 30 0 32 0;
#X connect 30 0 31 0;
#X connect 31 0 42 0;
#X connect 32 0 0 0;
#X connect 33 0 0 0;
#X connect 34 0 0 0;
#X connect 35 0 0 0;
#X connect 36 0 1 0;
#X connect 37 0 1 0;
#X connect 38 0 1 0;
#X connect 39 0 1 0;
#X connect 41 0 0 0;
#X connect 42 0 0 0;
#X connect 43 0 0 0;
#X connect 44 0 0 0;
#X connect 45 0 0 0;
#X connect 46 0 1 0;
#X connect 47 0 1 0;
#X connect 48 0 1 0;
#X connect 49 0 1 0;
#X connect 50 0 0 0;
#X connect 51 0 0 0;
#X connect 52 0 0 0;
#X connect 53 0 1 0;
#X connect 54 0 1 0;
#X connect 55 0 1 0;
#X connect 56 0 1 0;
#X connect 65 0 66 0;
#X connect 66 0 69 0;
#X connect 66 1 67 0;
#X connect 67 0 64 0;
#X connect 69 0 64 0;
#X coords 0 -1 1 1 200 320 1 100 100;
#X restore 1001 958 pd canon;
#N canvas 301 23 979 589 violin_to_voice 0;
#X obj 486 606 s controller_message;
#X msg 486 471 20000;
#X msg 485 496 all all mode12cross \$1;
#X obj 108 166 tgl 19 0 empty empty Play\ Lasttime 30 10 0 14 #00ff04 #000000 #000000 0 1;
#X obj 224 337 s au_vol_on;
#X obj 313 339 s ac_vol_on;
#X obj 475 36 r resetsignal;
#X msg 474 101 set 0;
#X obj 785 612 outlet;
#X obj 109 132 tgl 19 0 empty empty Play\ tact\ 388 30 10 0 14 #00ff04 #000000 #000000 0 1;
#X obj 173 372 s playPoint;
#X obj 129 349 s modeall;
#X msg 130 321 2;
#X msg 169 321 2;
#X obj 108 204 sel 1 0;
#X msg 132 257 1, f 2;
#X obj 225 301 t b b;
#X obj 109 285 t b b b b;
#X msg 93 322 5, f 2;
#X obj 90 396 s au_stringmodes;
#X obj 131 233 t b b;
#X msg 162 257 1;
#X obj 228 559 s au_vol_on;
#X obj 316 560 s ac_vol_on;
#X obj 188 593 s playPoint;
#X obj 125 557 s modeall;
#X msg 125 534 2;
#X obj 112 431 sel 1 0;
#X msg 136 479 1, f 2;
#X obj 229 523 t b b;
#X msg 100 560 5, f 2;
#X obj 99 618 s au_stringmodes;
#X msg 188 572 0;
#X obj 112 507 t b b b b b;
#X obj 385 483 delay 10000;
#X obj 286 175 tgl 12 0 empty empty ended -15 -8 0 10 #fcfcfc #000000 #000000 0 1;
#X msg 368 231 1;
#X msg 166 479 0, f 2;
#X msg 814 168 set 0;
#X obj 785 536 t b b b;
#X obj 135 455 t b b b;
#X msg 195 477 stop;
#X msg 706 567 0;
#X obj 242 243 sel 0;
#X msg 286 273 stop;
#X obj 213 279 del 1500;
#X obj 384 509 delay 10000;
#X obj 385 452 delay 5000;
#X connect 1 0 2 0;
#X connect 2 0 0 0;
#X connect 3 0 27 0;
#X connect 3 0 43 0;
#X connect 6 0 7 0;
#X connect 7 0 3 0;
#X connect 7 0 9 0;
#X connect 7 0 35 0;
#X connect 9 0 14 0;
#X connect 12 0 11 0;
#X connect 13 0 10 0;
#X connect 14 0 17 0;
#X connect 14 1 20 0;
#X connect 15 0 19 0;
#X connect 16 0 4 0;
#X connect 16 1 5 0;
#X connect 17 0 18 0;
#X connect 17 1 12 0;
#X connect 17 2 13 0;
#X connect 17 3 45 0;
#X connect 18 0 19 0;
#X connect 20 0 15 0;
#X connect 20 1 21 0;
#X connect 21 0 11 0;
#X connect 26 0 25 0;
#X connect 27 0 33 0;
#X connect 27 1 40 0;
#X connect 28 0 31 0;
#X connect 29 0 22 0;
#X connect 29 1 23 0;
#X connect 30 0 31 0;
#X connect 32 0 24 0;
#X connect 33 0 30 0;
#X connect 33 1 26 0;
#X connect 33 2 32 0;
#X connect 33 3 29 0;
#X connect 33 4 47 0;
#X connect 34 0 46 0;
#X connect 36 0 35 0;
#X connect 37 0 25 0;
#X connect 38 0 35 0;
#X connect 38 0 9 0;
#X connect 38 0 3 0;
#X connect 39 0 8 0;
#X connect 39 0 42 0;
#X connect 39 1 38 0;
#X connect 40 0 28 0;
#X connect 40 1 37 0;
#X connect 40 2 41 0;
#X connect 41 0 34 0;
#X connect 41 0 46 0;
#X connect 41 0 47 0;
#X connect 42 0 31 0;
#X connect 43 0 44 0;
#X connect 44 0 34 0;
#X connect 44 0 46 0;
#X connect 44 0 47 0;
#X connect 45 0 16 0;
#X connect 46 0 36 0;
#X connect 46 0 39 0;
#X connect 47 0 1 0;
#X connect 47 0 34 0;
#X coords 0 -1 1 1 200 90 1 100 100;
#X restore 936 54 pd violin_to_voice;
#N canvas 186 23 922 716 ping 0;
#X obj 345 53 - 10;
#X obj 105 131 tgl 19 0 empty empty empty 0 -10 0 12 #fcfcfc #000000 #000000 0 1;
#X obj 129 131 tgl 19 0 empty empty empty 0 -10 0 12 #fcfcfc #000000 #000000 0 1;
#X obj 152 131 tgl 19 0 empty empty empty 0 -10 0 12 #fcfcfc #000000 #000000 0 1;
#X obj 174 131 tgl 19 0 empty empty empty 0 -10 0 12 #fcfcfc #000000 #000000 0 1;
#X obj 198 131 tgl 19 0 empty empty empty 0 -10 0 12 #fcfcfc #000000 #000000 0 1;
#X obj 220 131 tgl 19 0 empty empty empty 0 -10 0 12 #fcfcfc #000000 #000000 0 1;
#X obj 244 131 tgl 19 0 empty empty empty 0 -10 0 12 #fcfcfc #000000 #000000 0 1;
#X obj 267 131 tgl 19 0 empty empty empty 0 -10 0 12 #fcfcfc #000000 #000000 0 1;
#X obj 289 131 tgl 19 0 empty empty empty 0 -10 0 12 #fcfcfc #000000 #000000 0 1;
#X obj 313 131 tgl 19 0 empty empty empty 0 -10 0 12 #fcfcfc #000000 #000000 0 1;
#X text 339 130 1 .. 10;
#X obj 837 81 - 10;
#X obj 105 161 tgl 19 0 empty empty empty 0 -10 0 12 #fcfcfc #000000 #000000 0 1;
#X obj 129 161 tgl 19 0 empty empty empty 0 -10 0 12 #fcfcfc #000000 #000000 0 1;
#X obj 152 161 tgl 19 0 empty empty empty 0 -10 0 12 #fcfcfc #000000 #000000 0 1;
#X obj 174 161 tgl 19 0 empty empty empty 0 -10 0 12 #fcfcfc #000000 #000000 0 1;
#X obj 198 161 tgl 19 0 empty empty empty 0 -10 0 12 #fcfcfc #000000 #000000 0 1;
#X obj 220 161 tgl 19 0 empty empty empty 0 -10 0 12 #fcfcfc #000000 #000000 0 1;
#X obj 244 161 tgl 19 0 empty empty empty 0 -10 0 12 #fcfcfc #000000 #000000 0 1;
#X obj 267 161 tgl 19 0 empty empty empty 0 -10 0 12 #fcfcfc #000000 #000000 0 1;
#X obj 289 161 tgl 19 0 empty empty empty 0 -10 0 12 #fcfcfc #000000 #000000 0 1;
#X obj 313 161 tgl 19 0 empty empty empty 0 -10 0 12 #fcfcfc #000000 #000000 0 1;
#X text 339 160 11 .. 20;
#X obj 840 154 - 10;
#X obj 105 190 tgl 19 0 empty empty empty 0 -10 0 12 #fcfcfc #000000 #000000 0 1;
#X obj 129 190 tgl 19 0 empty empty empty 0 -10 0 12 #fcfcfc #000000 #000000 0 1;
#X obj 152 190 tgl 19 0 empty empty empty 0 -10 0 12 #fcfcfc #000000 #000000 0 1;
#X obj 174 190 tgl 19 0 empty empty empty 0 -10 0 12 #fcfcfc #000000 #000000 0 1;
#X obj 198 190 tgl 19 0 empty empty empty 0 -10 0 12 #fcfcfc #000000 #000000 0 1;
#X obj 220 190 tgl 19 0 empty empty empty 0 -10 0 12 #fcfcfc #000000 #000000 0 1;
#X obj 244 190 tgl 19 0 empty empty empty 0 -10 0 12 #fcfcfc #000000 #000000 0 1;
#X obj 267 190 tgl 19 0 empty empty empty 0 -10 0 12 #fcfcfc #000000 #000000 0 1;
#X obj 289 190 tgl 19 0 empty empty empty 0 -10 0 12 #fcfcfc #000000 #000000 0 1;
#X obj 313 190 tgl 19 0 empty empty empty 0 -10 0 12 #fcfcfc #000000 #000000 0 1;
#X obj 841 214 - 10;
#X obj 105 218 tgl 19 0 empty empty empty 0 -10 0 12 #fcfcfc #000000 #000000 0 1;
#X obj 129 218 tgl 19 0 empty empty empty 0 -10 0 12 #fcfcfc #000000 #000000 0 1;
#X obj 152 218 tgl 19 0 empty empty empty 0 -10 0 12 #fcfcfc #000000 #000000 0 1;
#X obj 174 218 tgl 19 0 empty empty empty 0 -10 0 12 #fcfcfc #000000 #000000 0 1;
#X obj 198 218 tgl 19 0 empty empty empty 0 -10 0 12 #fcfcfc #000000 #000000 0 1;
#X obj 220 218 tgl 19 0 empty empty empty 0 -10 0 12 #fcfcfc #000000 #000000 0 1;
#X obj 244 218 tgl 19 0 empty empty empty 0 -10 0 12 #fcfcfc #000000 #000000 0 1;
#X obj 267 218 tgl 19 0 empty empty empty 0 -10 0 12 #fcfcfc #000000 #000000 0 1;
#X obj 289 218 tgl 19 0 empty empty empty 0 -10 0 12 #fcfcfc #000000 #000000 0 1;
#X obj 313 218 tgl 19 0 empty empty empty 0 -10 0 12 #fcfcfc #000000 #000000 0 1;
#X text 339 189 21 .. 30;
#X text 339 217 31 .. 40;
#X obj 842 263 - 10;
#X obj 105 247 tgl 19 0 empty empty empty 0 -10 0 12 #fcfcfc #000000 #000000 0 1;
#X obj 129 247 tgl 19 0 empty empty empty 0 -10 0 12 #fcfcfc #000000 #000000 0 1;
#X obj 152 247 tgl 19 0 empty empty empty 0 -10 0 12 #fcfcfc #000000 #000000 0 1;
#X obj 174 247 tgl 19 0 empty empty empty 0 -10 0 12 #fcfcfc #000000 #000000 0 1;
#X obj 198 247 tgl 19 0 empty empty empty 0 -10 0 12 #fcfcfc #000000 #000000 0 1;
#X obj 220 247 tgl 19 0 empty empty empty 0 -10 0 12 #fcfcfc #000000 #000000 0 1;
#X obj 244 247 tgl 19 0 empty empty empty 0 -10 0 12 #fcfcfc #000000 #000000 0 1;
#X obj 267 247 tgl 19 0 empty empty empty 0 -10 0 12 #fcfcfc #000000 #000000 0 1;
#X obj 289 247 tgl 19 0 empty empty empty 0 -10 0 12 #fcfcfc #000000 #000000 0 1;
#X obj 313 247 tgl 19 0 empty empty empty 0 -10 0 12 #fcfcfc #000000 #000000 0 1;
#X obj 836 336 - 10;
#X obj 105 276 tgl 19 0 empty empty empty 0 -10 0 12 #fcfcfc #000000 #000000 0 1;
#X obj 129 276 tgl 19 0 empty empty empty 0 -10 0 12 #fcfcfc #000000 #000000 0 1;
#X obj 152 276 tgl 19 0 empty empty empty 0 -10 0 12 #fcfcfc #000000 #000000 0 1;
#X obj 174 276 tgl 19 0 empty empty empty 0 -10 0 12 #fcfcfc #000000 #000000 0 1;
#X obj 198 276 tgl 19 0 empty empty empty 0 -10 0 12 #fcfcfc #000000 #000000 0 1;
#X obj 220 276 tgl 19 0 empty empty empty 0 -10 0 12 #fcfcfc #000000 #000000 0 1;
#X obj 244 276 tgl 19 0 empty empty empty 0 -10 0 12 #fcfcfc #000000 #000000 0 1;
#X obj 267 276 tgl 19 0 empty empty empty 0 -10 0 12 #fcfcfc #000000 #000000 0 1;
#X obj 289 276 tgl 19 0 empty empty empty 0 -10 0 12 #fcfcfc #000000 #000000 0 1;
#X obj 313 276 tgl 19 0 empty empty empty 0 -10 0 12 #fcfcfc #000000 #000000 0 1;
#X obj 835 400 - 10;
#X obj 105 306 tgl 19 0 empty empty empty 0 -10 0 12 #fcfcfc #000000 #000000 0 1;
#X obj 129 306 tgl 19 0 empty empty empty 0 -10 0 12 #fcfcfc #000000 #000000 0 1;
#X obj 152 306 tgl 19 0 empty empty empty 0 -10 0 12 #fcfcfc #000000 #000000 0 1;
#X obj 174 306 tgl 19 0 empty empty empty 0 -10 0 12 #fcfcfc #000000 #000000 0 1;
#X obj 198 306 tgl 19 0 empty empty empty 0 -10 0 12 #fcfcfc #000000 #000000 0 1;
#X obj 220 306 tgl 19 0 empty empty empty 0 -10 0 12 #fcfcfc #000000 #000000 0 1;
#X obj 244 306 tgl 19 0 empty empty empty 0 -10 0 12 #fcfcfc #000000 #000000 0 1;
#X obj 267 306 tgl 19 0 empty empty empty 0 -10 0 12 #fcfcfc #000000 #000000 0 1;
#X obj 289 306 tgl 19 0 empty empty empty 0 -10 0 12 #fcfcfc #000000 #000000 0 1;
#X obj 313 306 tgl 19 0 empty empty empty 0 -10 0 12 #fcfcfc #000000 #000000 0 1;
#X obj 105 335 tgl 19 0 empty empty empty 0 -10 0 12 #fcfcfc #000000 #000000 0 1;
#X obj 129 335 tgl 19 0 empty empty empty 0 -10 0 12 #fcfcfc #000000 #000000 0 1;
#X obj 152 335 tgl 19 0 empty empty empty 0 -10 0 12 #fcfcfc #000000 #000000 0 1;
#X obj 174 335 tgl 19 0 empty empty empty 0 -10 0 12 #fcfcfc #000000 #000000 0 1;
#X obj 198 335 tgl 19 0 empty empty empty 0 -10 0 12 #fcfcfc #000000 #000000 0 1;
#X obj 220 335 tgl 19 0 empty empty empty 0 -10 0 12 #fcfcfc #000000 #000000 0 1;
#X obj 244 335 tgl 19 0 empty empty empty 0 -10 0 12 #fcfcfc #000000 #000000 0 1;
#X obj 267 335 tgl 19 0 empty empty empty 0 -10 0 12 #fcfcfc #000000 #000000 0 1;
#X obj 289 335 tgl 19 0 empty empty empty 0 -10 0 12 #fcfcfc #000000 #000000 0 1;
#X obj 313 335 tgl 19 0 empty empty empty 0 -10 0 12 #fcfcfc #000000 #000000 0 1;
#X text 339 246 41 .. 50;
#X text 339 275 51 .. 60;
#X text 339 305 61 .. 70;
#X text 339 334 71 .. 80;
#X obj 24 43 i;
#X msg 112 449 dump;
#X obj 167 570 list;
#X obj 109 392 bng 19 250 50 0 empty empty empty 0 -10 0 12 #fcfcfc #000000 #000000;
#X obj 210 524 list prepend;
#X msg 329 440 clear;
#X obj 350 493 list;
#X obj 167 595 list trim;
#X obj 167 619 route clear;
#X obj 109 417 t b b;
#X obj 236 677 outlet;
#X obj 113 487 cyclone/coll active_ids 1;
#C restore;
#X obj 103 68 wd10 0, f 30;
#X obj 613 73 wd10 10, f 30;
#X obj 608 132 wd10 20, f 30;
#X obj 609 191 wd10 30, f 30;
#X obj 610 255 wd10 40, f 30;
#X obj 604 308 wd10 50, f 30;
#X obj 609 365 wd10 60, f 30;
#X obj 610 432 wd10 70, f 30;
#X obj 167 644 route bang;
#X obj 13 108 inlet;
#X obj 22 18 r idping;
#X connect 0 0 108 0;
#X connect 12 0 109 0;
#X connect 24 0 110 0;
#X connect 35 0 111 0;
#X connect 48 0 112 0;
#X connect 59 0 113 0;
#X connect 70 0 114 0;
#X connect 95 0 107 0;
#X connect 96 0 106 0;
#X connect 97 0 102 0;
#X connect 98 0 104 0;
#X connect 99 0 97 1;
#X connect 99 0 101 0;
#X connect 100 0 101 0;
#X connect 100 0 97 1;
#X connect 101 0 99 1;
#X connect 102 0 103 0;
#X connect 103 0 115 0;
#X connect 104 0 96 0;
#X connect 104 1 100 0;
#X connect 106 1 99 0;
#X connect 106 3 97 0;
#X connect 107 0 1 0;
#X connect 107 1 2 0;
#X connect 107 2 3 0;
#X connect 107 3 4 0;
#X connect 107 4 5 0;
#X connect 107 5 6 0;
#X connect 107 6 7 0;
#X connect 107 7 8 0;
#X connect 107 8 9 0;
#X connect 107 9 10 0;
#X connect 107 10 0 0;
#X connect 108 0 13 0;
#X connect 108 1 14 0;
#X connect 108 2 15 0;
#X connect 108 3 16 0;
#X connect 108 4 17 0;
#X connect 108 5 18 0;
#X connect 108 6 19 0;
#X connect 108 7 20 0;
#X connect 108 8 21 0;
#X connect 108 9 22 0;
#X connect 108 10 12 0;
#X connect 109 0 25 0;
#X connect 109 1 26 0;
#X connect 109 2 27 0;
#X connect 109 3 28 0;
#X connect 109 4 29 0;
#X connect 109 5 30 0;
#X connect 109 6 31 0;
#X connect 109 7 32 0;
#X connect 109 8 33 0;
#X connect 109 9 34 0;
#X connect 109 10 24 0;
#X connect 110 0 36 0;
#X connect 110 1 37 0;
#X connect 110 2 38 0;
#X connect 110 3 39 0;
#X connect 110 4 40 0;
#X connect 110 5 41 0;
#X connect 110 6 42 0;
#X connect 110 7 43 0;
#X connect 110 8 44 0;
#X connect 110 9 45 0;
#X connect 110 10 35 0;
#X connect 111 0 49 0;
#X connect 111 1 50 0;
#X connect 111 2 51 0;
#X connect 111 3 52 0;
#X connect 111 4 53 0;
#X connect 111 5 54 0;
#X connect 111 6 55 0;
#X connect 111 7 56 0;
#X connect 111 8 57 0;
#X connect 111 9 58 0;
#X connect 111 10 48 0;
#X connect 112 0 60 0;
#X connect 112 1 61 0;
#X connect 112 2 62 0;
#X connect 112 3 63 0;
#X connect 112 4 64 0;
#X connect 112 5 65 0;
#X connect 112 6 66 0;
#X connect 112 7 67 0;
#X connect 112 8 68 0;
#X connect 112 9 69 0;
#X connect 112 10 59 0;
#X connect 113 0 71 0;
#X connect 113 1 72 0;
#X connect 113 2 73 0;
#X connect 113 3 74 0;
#X connect 113 4 75 0;
#X connect 113 5 76 0;
#X connect 113 6 77 0;
#X connect 113 7 78 0;
#X connect 113 8 79 0;
#X connect 113 9 80 0;
#X connect 113 10 70 0;
#X connect 114 0 81 0;
#X connect 114 1 82 0;
#X connect 114 2 83 0;
#X connect 114 3 84 0;
#X connect 114 4 85 0;
#X connect 114 5 86 0;
#X connect 114 6 87 0;
#X connect 114 7 88 0;
#X connect 114 8 89 0;
#X connect 114 9 90 0;
#X connect 115 1 105 0;
#X connect 116 0 104 0;
#X connect 117 0 95 0;
#X coords 0 -1 1 1 330 260 1 100 100;
#X restore 583 363 pd ping;
#N canvas 285 23 995 755 LooperMode 0;
#X obj 351 616 s controller_message;
#X text 539 137 aki cell as looper;
#X text 253 58 all looper mode;
#X obj 9 40 r resetsignal;
#X obj 194 191 bng 30 250 50 0 empty empty ALL\ STOP! 35 15 0 12 #ff0400 #000000 #000000;
#X obj 71 380 s modeall;
#X msg 72 354 0;
#X msg 799 139 stop;
#X floatatom 770 110 5 0 70 2 Aki\ ID - - 0;
#X obj 771 51 loadbang;
#X msg 772 74 51;
#X obj 782 331 list append ImAki;
#X obj 702 337 tgl 19 0 empty empty empty 0 -10 0 12 #fcfcfc #000000 #000000 0 1;
#X obj 701 362 list prepend;
#X obj 785 414 list append aki_send;
#X obj 705 439 list prepend;
#X obj 704 415 tgl 19 0 empty empty empty 0 -10 0 12 #fcfcfc #000000 #000000 0 1;
#X obj 115 136 tgl 19 0 empty empty start\ instruments 25 10 0 14 #fcfcfc #000000 #000000 0 1;
#X obj 233 346 sel 1 0;
#X msg 669 338 1;
#X msg 610 274 all all resetD bang;
#X msg 785 259 \$1 mode 5;
#X obj 785 235 i;
#X obj 272 451 s modeall;
#X obj 233 374 t b b b b b;
#X msg 189 483 all all playLoop \$1;
#X msg 189 435 1;
#X obj 865 173 del 7500;
#X msg 669 416 1;
#X obj 864 109 tgl 15 0 empty empty Audience\ Active 20 8 0 12 #fcfcfc #000000 #000000 0 1;
#X obj 786 173 del 10000;
#X msg 865 142 1;
#X msg 854 234 all all mode 6;
#X obj 189 459 tgl 19 0 empty empty empty 0 -10 0 12 #fcfcfc #000000 #000000 0 1;
#X obj 785 207 t b b;
#X obj 51 300 t b b b;
#X msg 158 436 0;
#X msg 9 75 set 0;
#X msg 617 249 all all jamp \$1;
#X obj 693 217 tgl 19 0 empty empty empty 0 -10 0 12 #fcfcfc #000000 #000000 0 1;
#X msg 621 301 all all resetD bang;
#X msg 799 467 11 mode 5;
#X msg 813 499 11 mode 6;
#X msg 271 425 9;
#X obj 168 23 inlet;
#X msg 155 77 1;
#X obj 155 55 del 2000;
#X obj 706 514 t a;
#X obj 189 403 del 500;
#X msg 348 583 all all loopHead bang;
#X text 426 500 autoplay version;
#N canvas 51 97 1181 681 counter 0;
#X obj 144 100 inlet;
#X msg 54 199 0;
#X text 142 76 Start clock;
#X obj 46 102 inlet;
#X text 45 79 Stop;
#X obj 303 100 inlet;
#X text 302 78 Reset;
#X obj 137 420 outlet;
#X obj 477 98 loadbang;
#X text 475 73 Default BPM;
#X obj 138 338 counter 15 0;
#X obj 137 302 metro 166;
#X msg 143 204 1;
#X obj 388 260 expr 60000/$f1;
#X obj 388 284 i;
#X floatatom 411 314 5 0 0 0 - - - 0;
#X obj 388 235 line;
#X msg 389 210 \$1 5000;
#X obj 389 181 * 4;
#X text 429 181 1/16 notes;
#X obj 400 99 inlet;
#X text 400 78 BPM;
#X msg 478 127 70;
#X msg 523 125 120;
#X msg 562 125 60;
#X floatatom 234 384 5 0 0 0 - - - 0;
#X msg 296 316 set 0;
#X connect 0 0 12 0;
#X connect 1 0 11 0;
#X connect 3 0 1 0;
#X connect 5 0 26 0;
#X connect 8 0 22 0;
#X connect 10 0 7 0;
#X connect 10 0 25 0;
#X connect 11 0 10 0;
#X connect 12 0 11 0;
#X connect 13 0 14 0;
#X connect 14 0 15 0;
#X connect 14 0 11 1;
#X connect 16 0 13 0;
#X connect 17 0 16 0;
#X connect 18 0 17 0;
#X connect 20 0 18 0;
#X connect 22 0 18 0;
#X connect 23 0 18 0;
#X connect 24 0 18 0;
#X connect 26 0 10 0;
#X restore 346 531 pd counter;
#X f 17;
#X obj 344 477 sel 0 1;
#X obj 382 500 t a a;
#X floatatom 115 200 5 0 0 0 - - - 0;
#X obj 161 200 bng 19 250 50 0 empty empty empty 0 -10 0 12 #fcfcfc #000000 #000000;
#X obj 346 556 sel 0;
#X obj 336 403 s au_vol_mute;
#X obj 248 403 s ac_vol_on;
#X obj 25 267 s au_vol_fadein;
#X obj 115 162 bng 19 250 50 0 empty empty audience\ play 25 10 0 12 #fcfcfc #000000 #000000;
#X obj 195 225 bng 30 250 50 0 empty empty fade\ OUT 35 15 0 12 #ffc7c6 #000000 #000000;
#X obj 350 280 s au_vol_val;
#X obj 349 305 s ac_vol_val;
#X msg 347 254 0 5000;
#X obj 40 426 s au_vol_mute;
#X obj 39 451 s ac_vol_mute;
#X connect 3 0 37 0;
#X connect 4 0 35 0;
#X connect 6 0 5 0;
#X connect 7 0 27 0;
#X connect 7 0 30 0;
#X connect 8 0 11 0;
#X connect 8 0 14 0;
#X connect 8 0 22 1;
#X connect 9 0 10 0;
#X connect 10 0 8 0;
#X connect 11 0 13 1;
#X connect 12 0 13 0;
#X connect 13 0 47 0;
#X connect 14 0 15 1;
#X connect 15 0 47 0;
#X connect 16 0 15 0;
#X connect 17 0 18 0;
#X connect 18 0 24 0;
#X connect 18 1 35 0;
#X connect 19 0 12 0;
#X connect 20 0 47 0;
#X connect 22 0 21 0;
#X connect 24 0 48 0;
#X connect 24 1 58 0;
#X connect 24 2 43 0;
#X connect 24 3 57 0;
#X connect 25 0 0 0;
#X connect 26 0 33 0;
#X connect 28 0 16 0;
#X connect 30 0 31 0;
#X connect 30 0 34 0;
#X connect 31 0 29 0;
#X connect 33 0 25 0;
#X connect 33 0 52 0;
#X connect 34 0 22 0;
#X connect 34 1 32 0;
#X connect 35 0 65 0;
#X connect 35 0 66 0;
#X connect 35 1 6 0;
#X connect 35 1 36 0;
#X connect 36 0 33 0;
#X connect 37 0 17 0;
#X connect 38 0 47 0;
#X connect 39 0 38 0;
#X connect 40 0 47 0;
#X connect 41 0 47 0;
#X connect 42 0 47 0;
#X connect 43 0 23 0;
#X connect 44 0 46 0;
#X connect 46 0 45 0;
#X connect 48 0 26 0;
#X connect 49 0 0 0;
#X connect 51 0 54 0;
#X connect 51 0 56 0;
#X connect 52 0 51 0;
#X connect 52 1 53 0;
#X connect 53 0 51 1;
#X connect 53 1 51 2;
#X connect 56 0 49 0;
#X connect 56 0 55 0;
#X connect 60 0 59 0;
#X connect 61 0 64 0;
#X connect 64 0 62 0;
#X connect 64 0 63 0;
#X coords 0 -1 1 1 200 160 1 100 100;
#X restore 935 277 pd LooperMode;
#N canvas 794 25 455 506 reset 0;
#X obj 110 128 bng 30 250 50 0 empty empty reset 0 -10 0 12 #00ff04 #000000 #000000;
#X obj 244 258 s modeall;
#X obj 325 121 s au_v;
#X obj 325 151 s au_o;
#X obj 325 185 s au_c;
#X obj 325 219 s ac_v;
#X obj 325 253 s ac_c;
#X msg 246 231 1;
#X msg 301 90 1;
#X obj 144 255 s au_vol_on;
#X obj 144 229 s ac_vol_on;
#X obj 28 255 s au_string_vol;
#X msg 29 230 1;
#X obj 168 176 t b b b b;
#X obj 178 126 bng 30 250 50 0 empty empty MUTE 0 -10 0 12 #ff0400 #000000 #000000;
#X obj 239 126 bng 30 250 50 0 empty empty fadein 0 -10 0 12 #00ff04 #000000 #000000;
#X obj 183 60 s au_vol_mute;
#X obj 183 39 s ac_vol_mute;
#X obj 325 38 s au_vol_fadein;
#X obj 326 61 s ac_vol_fadein;
#X obj 390 198 s au_string_vol;
#X msg 391 173 1;
#X obj 15 181 s resetsignal;
#X connect 0 0 13 0;
#X connect 7 0 1 0;
#X connect 8 0 2 0;
#X connect 8 0 3 0;
#X connect 8 0 4 0;
#X connect 8 0 5 0;
#X connect 8 0 6 0;
#X connect 12 0 11 0;
#X connect 13 0 12 0;
#X connect 13 0 22 0;
#X connect 13 1 10 0;
#X connect 13 1 9 0;
#X connect 13 2 7 0;
#X connect 13 3 8 0;
#X connect 14 0 17 0;
#X connect 14 0 16 0;
#X connect 15 0 18 0;
#X connect 15 0 19 0;
#X connect 21 0 20 0;
#X coords 0 -1 1 1 185 70 2 100 100;
#X restore 280 261 pd reset;
#X obj 937 150 callresponce;
#N canvas 178 24 987 653 remote 0;
#X obj 321 625 s controller_message;
#X msg 146 65 4 st1 \$1;
#X obj 121 64 tgl 19 0 empty empty empty 0 -10 0 12 #fcfcfc #000000 #000000 0 1;
#X obj 345 577 tgl 19 0 empty empty empty 0 -10 0 12 #fcfcfc #000000 #000000 0 1;
#X obj 121 90 tgl 19 0 empty empty empty 0 -10 0 12 #fcfcfc #000000 #000000 0 1;
#X msg 146 91 4 st2 \$1;
#X obj 121 116 tgl 19 0 empty empty empty 0 -10 0 12 #fcfcfc #000000 #000000 0 1;
#X obj 121 142 tgl 19 0 empty empty empty 0 -10 0 12 #fcfcfc #000000 #000000 0 1;
#X msg 146 117 5 st1 \$1;
#X msg 146 143 5 st2 \$1;
#X obj 121 168 tgl 19 0 empty empty empty 0 -10 0 12 #fcfcfc #000000 #000000 0 1;
#X obj 121 194 tgl 19 0 empty empty empty 0 -10 0 12 #fcfcfc #000000 #000000 0 1;
#X msg 146 169 8 st1 \$1;
#X msg 146 195 8 st2 \$1;
#X obj 121 220 tgl 19 0 empty empty empty 0 -10 0 12 #fcfcfc #000000 #000000 0 1;
#X obj 121 246 tgl 19 0 empty empty empty 0 -10 0 12 #fcfcfc #000000 #000000 0 1;
#X msg 146 221 18 st1 \$1;
#X msg 146 247 18 st2 \$1;
#X obj 227 64 tgl 19 0 empty empty empty 0 -10 0 12 #fcfcfc #000000 #000000 0 1;
#X obj 227 90 tgl 19 0 empty empty empty 0 -10 0 12 #fcfcfc #000000 #000000 0 1;
#X obj 227 116 tgl 19 0 empty empty empty 0 -10 0 12 #fcfcfc #000000 #000000 0 1;
#X obj 227 142 tgl 19 0 empty empty empty 0 -10 0 12 #fcfcfc #000000 #000000 0 1;
#X obj 227 168 tgl 19 0 empty empty empty 0 -10 0 12 #fcfcfc #000000 #000000 0 1;
#X obj 227 194 tgl 19 0 empty empty empty 0 -10 0 12 #fcfcfc #000000 #000000 0 1;
#X obj 227 220 tgl 19 0 empty empty empty 0 -10 0 12 #fcfcfc #000000 #000000 0 1;
#X obj 227 246 tgl 19 0 empty empty empty 0 -10 0 12 #fcfcfc #000000 #000000 0 1;
#X msg 252 65 17 st1 \$1;
#X msg 252 91 17 st2 \$1;
#X msg 252 117 20 st1 \$1;
#X msg 252 143 20 st2 \$1;
#X msg 252 169 21 st1 \$1;
#X msg 252 195 21 st2 \$1;
#X msg 252 221 25 st1 \$1;
#X msg 252 247 25 st2 \$1;
#X obj 224 18 metro 1000;
#X obj 224 -7 tgl 19 0 empty empty empty 0 -10 0 12 #fcfcfc #000000 #000000 0 1;
#X obj 83 -8 tgl 19 0 empty empty empty 0 -10 0 12 #fcfcfc #000000 #000000 0 1;
#X obj 83 17 metro 700;
#X obj 352 66 tgl 19 0 empty empty empty 0 -10 0 12 #fcfcfc #000000 #000000 0 1;
#X obj 352 92 tgl 19 0 empty empty empty 0 -10 0 12 #fcfcfc #000000 #000000 0 1;
#X obj 352 118 tgl 19 0 empty empty empty 0 -10 0 12 #fcfcfc #000000 #000000 0 1;
#X obj 352 144 tgl 19 0 empty empty empty 0 -10 0 12 #fcfcfc #000000 #000000 0 1;
#X obj 352 170 tgl 19 0 empty empty empty 0 -10 0 12 #fcfcfc #000000 #000000 0 1;
#X obj 352 196 tgl 19 0 empty empty empty 0 -10 0 12 #fcfcfc #000000 #000000 0 1;
#X obj 352 222 tgl 19 0 empty empty empty 0 -10 0 12 #fcfcfc #000000 #000000 0 1;
#X obj 352 248 tgl 19 0 empty empty empty 0 -10 0 12 #fcfcfc #000000 #000000 0 1;
#X msg 377 67 26 st1 \$1;
#X msg 377 119 28 st1 \$1;
#X obj 378 275 t a;
#X obj 470 63 tgl 19 0 empty empty empty 0 -10 0 12 #fcfcfc #000000 #000000 0 1;
#X obj 470 89 tgl 19 0 empty empty empty 0 -10 0 12 #fcfcfc #000000 #000000 0 1;
#X obj 470 115 tgl 19 0 empty empty empty 0 -10 0 12 #fcfcfc #000000 #000000 0 1;
#X obj 470 141 tgl 19 0 empty empty empty 0 -10 0 12 #fcfcfc #000000 #000000 0 1;
#X obj 470 167 tgl 19 0 empty empty empty 0 -10 0 12 #fcfcfc #000000 #000000 0 1;
#X obj 470 193 tgl 19 0 empty empty empty 0 -10 0 12 #fcfcfc #000000 #000000 0 1;
#X obj 470 219 tgl 19 0 empty empty empty 0 -10 0 12 #fcfcfc #000000 #000000 0 1;
#X obj 470 245 tgl 19 0 empty empty empty 0 -10 0 12 #fcfcfc #000000 #000000 0 1;
#X obj 496 272 t a;
#X obj 588 63 tgl 19 0 empty empty empty 0 -10 0 12 #fcfcfc #000000 #000000 0 1;
#X obj 588 89 tgl 19 0 empty empty empty 0 -10 0 12 #fcfcfc #000000 #000000 0 1;
#X obj 588 115 tgl 19 0 empty empty empty 0 -10 0 12 #fcfcfc #000000 #000000 0 1;
#X obj 588 141 tgl 19 0 empty empty empty 0 -10 0 12 #fcfcfc #000000 #000000 0 1;
#X obj 588 167 tgl 19 0 empty empty empty 0 -10 0 12 #fcfcfc #000000 #000000 0 1;
#X obj 588 193 tgl 19 0 empty empty empty 0 -10 0 12 #fcfcfc #000000 #000000 0 1;
#X obj 588 219 tgl 19 0 empty empty empty 0 -10 0 12 #fcfcfc #000000 #000000 0 1;
#X obj 588 245 tgl 19 0 empty empty empty 0 -10 0 12 #fcfcfc #000000 #000000 0 1;
#X obj 614 272 t a;
#X msg 377 93 26 st2 \$1;
#X msg 377 145 28 st2 \$1;
#X msg 377 171 29 st1 \$1;
#X msg 377 197 29 st2 \$1;
#X msg 377 223 30 st1 \$1;
#X msg 377 249 30 st2 \$1;
#X msg 495 64 31 st1 \$1;
#X msg 495 90 31 st2 \$1;
#X msg 495 116 32 st1 \$1;
#X msg 495 142 32 st2 \$1;
#X msg 495 168 33 st1 \$1;
#X msg 495 194 33 st2 \$1;
#X msg 495 220 34 st1 \$1;
#X msg 495 246 34 st2 \$1;
#X msg 613 64 35 st1 \$1;
#X msg 613 90 35 st2 \$1;
#X msg 613 116 36 st1 \$1;
#X msg 613 142 36 st2 \$1;
#X msg 613 168 37 st1 \$1;
#X msg 613 194 37 st2 \$1;
#X msg 613 220 38 st1 \$1;
#X msg 613 246 38 st2 \$1;
#X obj 701 60 tgl 19 0 empty empty empty 0 -10 0 12 #fcfcfc #000000 #000000 0 1;
#X obj 701 86 tgl 19 0 empty empty empty 0 -10 0 12 #fcfcfc #000000 #000000 0 1;
#X obj 701 112 tgl 19 0 empty empty empty 0 -10 0 12 #fcfcfc #000000 #000000 0 1;
#X obj 701 138 tgl 19 0 empty empty empty 0 -10 0 12 #fcfcfc #000000 #000000 0 1;
#X obj 701 164 tgl 19 0 empty empty empty 0 -10 0 12 #fcfcfc #000000 #000000 0 1;
#X obj 701 190 tgl 19 0 empty empty empty 0 -10 0 12 #fcfcfc #000000 #000000 0 1;
#X obj 701 216 tgl 19 0 empty empty empty 0 -10 0 12 #fcfcfc #000000 #000000 0 1;
#X obj 701 242 tgl 19 0 empty empty empty 0 -10 0 12 #fcfcfc #000000 #000000 0 1;
#X obj 727 269 t a;
#X obj 811 58 tgl 19 0 empty empty empty 0 -10 0 12 #fcfcfc #000000 #000000 0 1;
#X obj 811 84 tgl 19 0 empty empty empty 0 -10 0 12 #fcfcfc #000000 #000000 0 1;
#X obj 811 110 tgl 19 0 empty empty empty 0 -10 0 12 #fcfcfc #000000 #000000 0 1;
#X obj 811 136 tgl 19 0 empty empty empty 0 -10 0 12 #fcfcfc #000000 #000000 0 1;
#X obj 811 162 tgl 19 0 empty empty empty 0 -10 0 12 #fcfcfc #000000 #000000 0 1;
#X obj 811 188 tgl 19 0 empty empty empty 0 -10 0 12 #fcfcfc #000000 #000000 0 1;
#X obj 811 214 tgl 19 0 empty empty empty 0 -10 0 12 #fcfcfc #000000 #000000 0 1;
#X obj 811 240 tgl 19 0 empty empty empty 0 -10 0 12 #fcfcfc #000000 #000000 0 1;
#X obj 837 267 t a;
#X msg 346 600 all viola takeover \$1;
#X msg 726 61 39 st1 \$1;
#X msg 726 87 39 st2 \$1;
#X msg 726 113 40 st1 \$1;
#X msg 726 138 40 st2 \$1;
#X msg 726 165 41 st1 \$1;
#X msg 726 191 41 st2 \$1;
#X msg 726 217 42 st1 \$1;
#X msg 726 243 42 st2 \$1;
#X msg 836 59 43 st1 \$1;
#X msg 836 85 43 st2 \$1;
#X msg 836 111 44 st1 \$1;
#X msg 836 137 44 st2 \$1;
#X msg 836 189 45 st2 \$1;
#X msg 836 163 45 st1 \$1;
#X msg 836 215 46 st1 \$1;
#X msg 836 241 46 st2 \$1;
#X obj 785 20 metro 1000;
#X obj 785 -5 tgl 19 0 empty empty empty 0 -10 0 12 #fcfcfc #000000 #000000 0 1;
#X obj 644 -6 tgl 19 0 empty empty empty 0 -10 0 12 #fcfcfc #000000 #000000 0 1;
#X obj 646 19 metro 2400;
#X obj 529 0 tgl 19 0 empty empty empty 0 -10 0 12 #fcfcfc #000000 #000000 0 1;
#X obj 529 25 metro 3000;
#X connect 1 0 0 0;
#X connect 2 0 1 0;
#X connect 3 0 107 0;
#X connect 4 0 5 0;
#X connect 5 0 0 0;
#X connect 6 0 8 0;
#X connect 7 0 9 0;
#X connect 8 0 0 0;
#X connect 9 0 0 0;
#X connect 10 0 12 0;
#X connect 11 0 13 0;
#X connect 12 0 0 0;
#X connect 13 0 0 0;
#X connect 14 0 16 0;
#X connect 15 0 17 0;
#X connect 16 0 0 0;
#X connect 17 0 0 0;
#X connect 18 0 26 0;
#X connect 19 0 27 0;
#X connect 20 0 28 0;
#X connect 21 0 29 0;
#X connect 22 0 30 0;
#X connect 23 0 31 0;
#X connect 24 0 32 0;
#X connect 25 0 33 0;
#X connect 26 0 0 0;
#X connect 27 0 0 0;
#X connect 28 0 0 0;
#X connect 29 0 0 0;
#X connect 30 0 0 0;
#X connect 31 0 0 0;
#X connect 32 0 0 0;
#X connect 33 0 0 0;
#X connect 34 0 25 0;
#X connect 34 0 21 0;
#X connect 34 0 11 0;
#X connect 35 0 34 0;
#X connect 36 0 37 0;
#X connect 37 0 18 0;
#X connect 37 0 14 0;
#X connect 38 0 46 0;
#X connect 39 0 67 0;
#X connect 40 0 47 0;
#X connect 41 0 68 0;
#X connect 42 0 69 0;
#X connect 43 0 70 0;
#X connect 44 0 71 0;
#X connect 45 0 72 0;
#X connect 46 0 48 0;
#X connect 47 0 48 0;
#X connect 48 0 0 0;
#X connect 49 0 73 0;
#X connect 50 0 74 0;
#X connect 51 0 75 0;
#X connect 52 0 76 0;
#X connect 53 0 77 0;
#X connect 54 0 78 0;
#X connect 55 0 79 0;
#X connect 56 0 80 0;
#X connect 57 0 0 0;
#X connect 58 0 81 0;
#X connect 59 0 82 0;
#X connect 60 0 83 0;
#X connect 61 0 84 0;
#X connect 62 0 85 0;
#X connect 63 0 86 0;
#X connect 64 0 87 0;
#X connect 65 0 88 0;
#X connect 66 0 0 0;
#X connect 67 0 48 0;
#X connect 68 0 48 0;
#X connect 69 0 48 0;
#X connect 70 0 48 0;
#X connect 71 0 48 0;
#X connect 72 0 48 0;
#X connect 73 0 57 0;
#X connect 74 0 57 0;
#X connect 75 0 57 0;
#X connect 76 0 57 0;
#X connect 77 0 57 0;
#X connect 78 0 57 0;
#X connect 79 0 57 0;
#X connect 80 0 57 0;
#X connect 81 0 66 0;
#X connect 82 0 66 0;
#X connect 83 0 66 0;
#X connect 84 0 66 0;
#X connect 85 0 66 0;
#X connect 86 0 66 0;
#X connect 87 0 66 0;
#X connect 88 0 66 0;
#X connect 89 0 108 0;
#X connect 90 0 109 0;
#X connect 91 0 110 0;
#X connect 92 0 111 0;
#X connect 93 0 112 0;
#X connect 94 0 113 0;
#X connect 95 0 114 0;
#X connect 96 0 115 0;
#X connect 97 0 0 0;
#X connect 98 0 116 0;
#X connect 99 0 117 0;
#X connect 100 0 118 0;
#X connect 101 0 119 0;
#X connect 102 0 121 0;
#X connect 103 0 120 0;
#X connect 104 0 122 0;
#X connect 105 0 123 0;
#X connect 106 0 0 0;
#X connect 107 0 0 0;
#X connect 108 0 97 0;
#X connect 109 0 97 0;
#X connect 110 0 97 0;
#X connect 111 0 97 0;
#X connect 112 0 97 0;
#X connect 113 0 97 0;
#X connect 114 0 97 0;
#X connect 115 0 97 0;
#X connect 116 0 106 0;
#X connect 117 0 106 0;
#X connect 118 0 106 0;
#X connect 119 0 106 0;
#X connect 120 0 106 0;
#X connect 121 0 106 0;
#X connect 122 0 106 0;
#X connect 123 0 106 0;
#X connect 124 0 90 0;
#X connect 124 0 93 0;
#X connect 124 0 59 0;
#X connect 124 0 100 0;
#X connect 124 0 105 0;
#X connect 124 0 95 0;
#X connect 125 0 124 0;
#X connect 126 0 127 0;
#X connect 127 0 58 0;
#X connect 127 0 61 0;
#X connect 127 0 65 0;
#X connect 127 0 102 0;
#X connect 128 0 129 0;
#X connect 129 0 62 0;
#X connect 129 0 91 0;
#X connect 129 0 103 0;
#X restore 943 578 pd remote;
#X text 937 464 actors violin 1 2;
#X text 937 506 viola 35 - 50;
#X text 937 485 violin 3 - 34;
#X text 936 547 cello 53 70;
#X text 936 528 actors cello 51 52;
#X obj 606 635 print id_list;
#X obj 769 344 bng 19 250 50 0 empty empty empty 0 -10 0 12 #fcfcfc #000000 #000000;
#X text 793 342 get id list;
#X obj 13 703 s idping;
#X obj 14 676 iter;
#X obj 584 662 group_assignment;
#X obj 576 687 s id_list;
#X obj 767 320 r getIDlist;
#X msg 16 651 1 2 3 4 5 6 7 8 9 10 11 12 13 14 15 16 17 18 19 20 21 22 23 24 25, f 67;
#N canvas 659 23 588 518 planB 0;
#X msg 172 286 1;
#X obj 174 262 del 500;
#X obj 147 198 t b b b;
#X obj 141 391 dac~;
#X obj 146 313 readsf~ 2;
#X msg 280 309 \; pd dsp 1;
#X obj 109 116 bng 19 250 50 0 empty empty play\ recorded\ end\ sequence 25 10 0 12 #ffc7c6 #000000 #000000;
#X msg 117 286 0;
#X obj 109 137 bng 19 250 50 0 empty empty stop 25 10 0 12 #ffc7c6 #000000 #000000;
#X msg 146 227 open symphony_endpart_2.wav;
#X connect 0 0 4 0;
#X connect 1 0 0 0;
#X connect 2 0 1 0;
#X connect 2 1 9 0;
#X connect 2 2 5 0;
#X connect 4 0 3 0;
#X connect 4 1 3 1;
#X connect 6 0 2 0;
#X connect 7 0 4 0;
#X connect 8 0 7 0;
#X connect 9 0 4 0;
#X coords 0 -1 1 1 225 60 1 100 100;
#X restore 1026 562 pd planB;
#X connect 0 0 16 0;
#X connect 0 0 15 0;
#X connect 18 0 22 0;
#X connect 19 0 29 0;
#X connect 19 0 34 0;
#X connect 19 0 35 0;
#X connect 30 0 19 0;
#X connect 33 0 32 0;
#X connect 36 0 30 0;
#X connect 37 0 33 0;
