#N canvas 82 25 1198 690 12;
#X obj 17 682 bng 19 250 50 0 empty empty empty 0 -10 0 12 #fcfcfc #000000 #000000;
#X obj 192 684 bng 19 250 50 0 empty empty empty 0 -10 0 12 #fcfcfc #000000 #000000;
#X text 49 681 reopen onnections;
#N canvas 509 186 731 377 volumeControl 0;
#X obj 114 164 hsl 162 19 0 2 0 0 empty empty empty -2 -10 0 12 #ffc7c6 #000000 #000000 0 1;
#X obj 70 42 loadbang;
#X obj 246 306 s controller_message;
#X msg 70 68 set 2;
#N canvas 411 413 450 300 vol-ctr 0;
#X obj 71 109 line;
#X obj 70 169 outlet;
#X obj 30 28 inlet fadeout;
#X obj 503 391 line;
#X msg 445 364 0 1000;
#X msg 501 363 0 10;
#X msg 543 362 2 10;
#X obj 139 27 inlet mute;
#X obj 228 29 inlet on;
#X msg 112 69 0 10;
#X msg 35 70 0 1000;
#X obj 308 29 inlet half;
#X msg 154 68 1 10;
#X msg 258 70 0.3 1000;
#X connect 0 0 1 0;
#X connect 2 0 10 0;
#X connect 4 0 3 0;
#X connect 5 0 3 0;
#X connect 6 0 3 0;
#X connect 7 0 9 0;
#X connect 8 0 12 0;
#X connect 9 0 0 0;
#X connect 10 0 0 0;
#X connect 11 0 13 0;
#X connect 12 0 0 0;
#X connect 13 0 0 0;
#X restore 186 64 pd vol-ctr;
#X obj 285 118 bng 19 250 50 0 empty empty empty 0 -10 0 12 #ff0400 #000000 #000000;
#X text 312 119 fade out;
#X obj 285 141 bng 19 250 50 0 empty empty empty 0 -10 0 12 #ff0400 #000000 #000000;
#X text 312 142 mute;
#X obj 285 164 bng 19 250 50 0 empty empty empty 0 -10 0 12 #ff0400 #000000 #000000;
#X text 312 165 sound on;
#X text 111 142 volume audience;
#X obj 391 164 hsl 162 19 0 2 0 0 empty empty empty -2 -10 0 12 #ffc7c6 #000000 #000000 0 1;
#X obj 477 44 loadbang;
#X msg 477 70 set 2;
#N canvas 411 413 450 300 vol-ctr 0;
#X obj 58 97 line;
#X obj 102 166 outlet;
#X obj 30 28 inlet fadeout;
#X obj 503 391 line;
#X msg 445 364 0 1000;
#X msg 501 363 0 10;
#X msg 543 362 2 10;
#X obj 139 27 inlet mute;
#X obj 228 29 inlet on;
#X msg 36 69 0 1000;
#X msg 112 69 0 10;
#X msg 154 68 2 10;
#X connect 0 0 1 0;
#X connect 2 0 9 0;
#X connect 4 0 3 0;
#X connect 5 0 3 0;
#X connect 6 0 3 0;
#X connect 7 0 10 0;
#X connect 8 0 11 0;
#X connect 9 0 0 0;
#X connect 10 0 0 0;
#X connect 11 0 0 0;
#X restore 488 263 pd vol-ctr;
#X obj 560 118 bng 19 250 50 0 empty empty empty 0 -10 0 12 #ffc7c6 #000000 #000000;
#X text 587 119 fade out;
#X obj 560 141 bng 19 250 50 0 empty empty empty 0 -10 0 12 #ffc7c6 #000000 #000000;
#X text 587 142 mute;
#X obj 560 164 bng 19 250 50 0 empty empty empty 0 -10 0 12 #ffc7c6 #000000 #000000;
#X text 587 165 sound on;
#X text 387 142 volume actor;
#X obj 360 70 r au_vol_on;
#X obj 598 66 r ac_vol_on;
#X obj 590 16 r ac_vol_fade;
#X obj 358 19 r au_vol_fade;
#X obj 589 40 r ac_vol_mute;
#X obj 359 44 r au_vol_mute;
#X obj 253 33 r au_vol_half;
#X msg 111 229 audience all volume \$1;
#X msg 388 229 actor all volume \$1;
#X connect 0 0 30 0;
#X connect 1 0 3 0;
#X connect 3 0 0 0;
#X connect 4 0 0 0;
#X connect 5 0 4 0;
#X connect 7 0 4 1;
#X connect 9 0 4 2;
#X connect 12 0 31 0;
#X connect 13 0 14 0;
#X connect 14 0 12 0;
#X connect 15 0 12 0;
#X connect 16 0 15 0;
#X connect 18 0 15 1;
#X connect 20 0 15 2;
#X connect 23 0 9 0;
#X connect 24 0 20 0;
#X connect 25 0 16 0;
#X connect 26 0 5 0;
#X connect 27 0 18 0;
#X connect 28 0 7 0;
#X connect 29 0 4 3;
#X connect 30 0 2 0;
#X connect 31 0 2 0;
#X coords 0 -1 1 1 550 100 1 100 100;
#X restore 11 318 pd volumeControl;
#N canvas 641 130 639 585 modeControl 0;
#X obj 114 127 hradio 19 1 0 7 empty empty empty 120 10 0 12 #fcfcfc #000000 #000000 0;
#X obj 287 470 s controller_message;
#X obj 114 310 hradio 19 1 0 7 empty empty actor\ cello 140 10 0 12 #fcfcfc #000000 #000000 0;
#X obj 114 236 hradio 19 1 0 6 empty empty audience\ cello 120 10 0 12 #fcfcfc #000000 #000000 0;
#X obj 114 199 hradio 19 1 0 6 empty empty audience\ viola 120 10 0 12 #fcfcfc #000000 #000000 0;
#X obj 114 164 hradio 19 1 0 6 empty empty audience\ violin 120 10 0 12 #fcfcfc #000000 #000000 0;
#X obj 114 273 hradio 19 1 0 6 empty empty actor\ violin 120 10 0 12 #fcfcfc #000000 #000000 0;
#X obj 34 104 r au_v;
#X obj 34 172 r au_o;
#X obj 34 206 r au_c;
#X obj 51 54 r modeall;
#X obj 34 240 r ac_v;
#X obj 34 274 r ac_c;
#X obj 13 423 sel 1;
#X obj 45 478 s au_vol_on;
#X obj 15 503 s au_vol_half;
#X obj 45 450 t b;
#X obj 248 532 hradio 19 1 0 6 empty empty audience\ violin2 120 10 0 12 #fcfcfc #000000 #000000 0;
#X obj 168 469 r au_v2;
#X msg 384 146 all all mode \$1;
#X msg 384 183 audience violin string_mode \$1;
#X msg 401 536 audience violin2 string_mode \$1;
#X msg 384 257 audience viola string_mode \$1;
#X msg 384 294 audience cello string_mode \$1;
#X msg 384 331 actor violin string_mode \$1;
#X msg 384 368 actor cello string_mode \$1;
#X obj 287 444 repeater;
#X text 261 125 mode;
#X text 134 108 1||2||3||4|5;
#X connect 0 0 19 0;
#X connect 2 0 25 0;
#X connect 3 0 23 0;
#X connect 4 0 22 0;
#X connect 5 0 20 0;
#X connect 6 0 24 0;
#X connect 7 0 5 0;
#X connect 7 0 13 0;
#X connect 8 0 4 0;
#X connect 8 0 13 0;
#X connect 9 0 3 0;
#X connect 9 0 13 0;
#X connect 10 0 0 0;
#X connect 11 0 6 0;
#X connect 12 0 2 0;
#X connect 13 0 15 0;
#X connect 13 1 16 0;
#X connect 16 0 14 0;
#X connect 17 0 21 0;
#X connect 18 0 17 0;
#X connect 18 0 13 0;
#X connect 19 0 26 0;
#X connect 20 0 26 0;
#X connect 21 0 26 0;
#X connect 22 0 26 0;
#X connect 23 0 26 0;
#X connect 24 0 26 0;
#X connect 25 0 26 0;
#X connect 26 0 1 0;
#X coords 0 -1 1 1 250 280 2 100 100;
#X restore 11 13 pd modeControl;
#N canvas 613 23 624 384 freePlayMode 0;
#X text 140 121 start: audience free play;
#X obj 112 122 bng 19 250 50 0 empty empty empty 0 -10 0 12 #fcfcfc #000000 #000000;
#X obj 148 217 s ac_v;
#X obj 106 270 s ac_c;
#X obj 143 333 s modeall;
#X obj 125 243 s au_v;
#X obj 85 293 s au_o;
#X obj 60 318 s au_c;
#X msg 110 165 1;
#X obj 110 188 t a a;
#X obj 225 185 s au_vol_on;
#X connect 1 0 8 0;
#X connect 1 0 10 0;
#X connect 8 0 9 0;
#X connect 9 0 5 0;
#X connect 9 0 6 0;
#X connect 9 0 7 0;
#X connect 9 0 2 0;
#X connect 9 0 3 0;
#X connect 9 1 4 0;
#X coords 0 -1 1 1 240 50 1 100 100;
#X restore 273 15 pd freePlayMode;
#N canvas 505 69 775 709 toneAG 0;
#X obj 287 473 s ac_c;
#X obj 115 429 s au_v;
#X obj 113 135 tgl 19 0 empty empty note\ A 20 10 0 12 #fcfcfc #000000 #000000 0 1;
#X obj 184 135 tgl 19 0 empty empty note\ G 20 10 0 12 #fcfcfc #000000 #000000 0 1;
#X obj 401 553 tgl 19 0 empty empty note\ A 20 10 0 12 #fcfcfc #000000 #000000 0 1;
#X obj 472 552 tgl 19 0 empty empty note\ G 20 10 0 12 #fcfcfc #000000 #000000 0 1;
#X obj 113 171 tgl 19 0 empty empty note\ A 20 10 0 12 #fcfcfc #000000 #000000 0 1;
#X obj 184 171 tgl 19 0 empty empty note\ G 20 10 0 12 #fcfcfc #000000 #000000 0 1;
#X obj 113 207 tgl 19 0 empty empty note\ A 20 10 0 12 #fcfcfc #000000 #000000 0 1;
#X obj 184 207 tgl 19 0 empty empty note\ G 20 10 0 12 #fcfcfc #000000 #000000 0 1;
#X obj 475 464 tgl 19 0 empty empty note\ A 20 10 0 12 #fcfcfc #000000 #000000 0 1;
#X obj 546 463 tgl 19 0 empty empty note\ G 20 10 0 12 #fcfcfc #000000 #000000 0 1;
#X obj 94 551 s ac_v;
#X obj 197 430 s au_o;
#X obj 191 512 s au_c;
#X text 256 134 audience violin;
#X text 544 552 actor violin;
#X text 257 170 audience viola;
#X text 258 206 audience cello;
#X text 618 463 actor cello;
#X obj 301 243 bng 19 250 50 0 empty empty all\ off 30 10 0 12 #fcfcfc #000000 #000000;
#X msg 441 44 0;
#X obj 502 507 tgl 19 0 empty empty note\ A 20 10 0 12 #fcfcfc #000000 #000000 0 1;
#X obj 573 506 tgl 19 0 empty empty note\ G 20 10 0 12 #fcfcfc #000000 #000000 0 1;
#X text 645 506 audience violin2;
#X obj 362 435 s au_v2;
#X obj 113 243 tgl 19 0 empty empty note\ A 20 10 0 12 #fcfcfc #000000 #000000 0 1;
#X obj 184 243 tgl 19 0 empty empty note\ G 20 10 0 12 #fcfcfc #000000 #000000 0 1;
#X text 265 242 all;
#X obj 114 407 noteAG;
#X obj 94 527 noteAG;
#X obj 197 406 noteAG;
#X obj 190 487 noteAG;
#X obj 361 409 noteAG;
#X obj 286 449 noteAG;
#X obj 149 310 noteAG;
#X connect 2 0 29 0;
#X connect 3 0 29 1;
#X connect 4 0 30 0;
#X connect 5 0 30 1;
#X connect 6 0 31 0;
#X connect 7 0 31 1;
#X connect 8 0 32 0;
#X connect 9 0 32 1;
#X connect 10 0 34 0;
#X connect 11 0 34 1;
#X connect 20 0 21 0;
#X connect 21 0 3 0;
#X connect 21 0 5 0;
#X connect 21 0 7 0;
#X connect 21 0 9 0;
#X connect 21 0 11 0;
#X connect 21 0 2 0;
#X connect 21 0 4 0;
#X connect 21 0 6 0;
#X connect 21 0 8 0;
#X connect 21 0 10 0;
#X connect 21 0 22 0;
#X connect 21 0 23 0;
#X connect 22 0 33 0;
#X connect 23 0 33 1;
#X connect 26 0 35 0;
#X connect 27 0 35 1;
#X connect 29 0 1 0;
#X connect 29 0 12 0;
#X connect 30 0 12 0;
#X connect 31 0 13 0;
#X connect 32 0 14 0;
#X connect 32 0 0 0;
#X connect 33 0 25 0;
#X connect 34 0 0 0;
#X connect 35 0 1 0;
#X connect 35 0 13 0;
#X connect 35 0 12 0;
#X connect 35 0 14 0;
#X connect 35 0 0 0;
#X connect 35 0 25 0;
#X coords 0 -1 1 1 300 180 1 100 100;
#X restore 273 70 pd toneAG;
#N canvas 443 25 778 456 toneLiter 0;
#X obj 375 313 s ac_c;
#X obj 84 309 s au_v;
#X obj 473 100 tgl 19 0 empty empty toneliter 20 10 0 12 #fcfcfc #000000 #000000 0 1;
#X obj 474 126 tgl 19 0 empty empty toneliter 20 10 0 12 #fcfcfc #000000 #000000 0 1;
#X obj 474 177 tgl 19 0 empty empty toneliter 20 10 0 12 #fcfcfc #000000 #000000 0 1;
#X obj 474 205 tgl 19 0 empty empty toneliter 20 10 0 12 #fcfcfc #000000 #000000 0 1;
#X obj 474 233 tgl 19 0 empty empty toneliter 20 10 0 12 #fcfcfc #000000 #000000 0 1;
#X obj 158 310 s ac_v;
#X obj 235 310 s au_o;
#X obj 305 310 s au_c;
#X text 563 98 audience violin;
#X text 564 124 actor violin;
#X text 564 175 audience viola;
#X text 564 203 audience cello;
#X text 564 231 actor cello;
#X obj 115 107 tgl 19 0 empty empty tonleiter 20 10 0 12 #fcfcfc #000000 #000000 0 1;
#N canvas 530 57 450 300 toneL 0;
#X obj 91 61 inlet;
#X obj 154 256 outlet;
#X obj 111 115 sel 1 0;
#X msg 140 138 1;
#X obj 113 163 t a;
#X msg 111 139 4;
#X connect 0 0 2 0;
#X connect 2 0 5 0;
#X connect 2 1 3 0;
#X connect 3 0 4 0;
#X connect 4 0 1 0;
#X connect 5 0 4 0;
#X restore 83 287 pd toneL;
#N canvas 530 57 450 300 toneL 0;
#X obj 91 61 inlet;
#X obj 154 256 outlet;
#X obj 111 115 sel 1 0;
#X msg 140 138 1;
#X obj 113 163 t a;
#X msg 111 139 4;
#X connect 0 0 2 0;
#X connect 2 0 5 0;
#X connect 2 1 3 0;
#X connect 3 0 4 0;
#X connect 4 0 1 0;
#X connect 5 0 4 0;
#X restore 234 287 pd toneL;
#N canvas 530 57 450 300 toneL 0;
#X obj 91 61 inlet;
#X obj 154 256 outlet;
#X obj 111 115 sel 1 0;
#X msg 140 138 1;
#X obj 113 163 t a;
#X msg 111 139 4;
#X connect 0 0 2 0;
#X connect 2 0 5 0;
#X connect 2 1 3 0;
#X connect 3 0 4 0;
#X connect 4 0 1 0;
#X connect 5 0 4 0;
#X restore 372 288 pd toneL;
#N canvas 530 57 450 300 toneL 0;
#X obj 91 61 inlet;
#X obj 154 256 outlet;
#X obj 111 115 sel 1 0;
#X msg 140 138 1;
#X obj 113 163 t a;
#X msg 111 139 4;
#X connect 0 0 2 0;
#X connect 2 0 5 0;
#X connect 2 1 3 0;
#X connect 3 0 4 0;
#X connect 4 0 1 0;
#X connect 5 0 4 0;
#X restore 156 287 pd toneL;
#N canvas 530 57 450 300 toneL 0;
#X obj 91 61 inlet;
#X obj 154 256 outlet;
#X obj 111 115 sel 1 0;
#X msg 140 138 1;
#X obj 113 163 t a;
#X msg 111 139 4;
#X connect 0 0 2 0;
#X connect 2 0 5 0;
#X connect 2 1 3 0;
#X connect 3 0 4 0;
#X connect 4 0 1 0;
#X connect 5 0 4 0;
#X restore 304 287 pd toneL;
#N canvas 530 57 450 300 toneL 0;
#X obj 91 61 inlet;
#X obj 154 256 outlet;
#X obj 111 115 sel 1 0;
#X msg 140 138 1;
#X obj 113 163 t a;
#X msg 111 139 4;
#X connect 0 0 2 0;
#X connect 2 0 5 0;
#X connect 2 1 3 0;
#X connect 3 0 4 0;
#X connect 4 0 1 0;
#X connect 5 0 4 0;
#X restore 113 227 pd toneL;
#X obj 475 153 tgl 19 0 empty empty toneliter 20 10 0 12 #fcfcfc #000000 #000000 0 1;
#X text 565 151 audience violin2;
#N canvas 530 57 450 300 toneL 0;
#X obj 91 61 inlet;
#X obj 154 256 outlet;
#X obj 111 115 sel 1 0;
#X msg 140 138 1;
#X obj 113 163 t a;
#X msg 111 139 4;
#X connect 0 0 2 0;
#X connect 2 0 5 0;
#X connect 2 1 3 0;
#X connect 3 0 4 0;
#X connect 4 0 1 0;
#X connect 5 0 4 0;
#X restore 100 343 pd toneL;
#X obj 101 365 s au_v2;
#X obj 117 136 tgl 19 0 empty empty arpeggio 20 10 0 12 #fcfcfc #000000 #000000 0 1;
#X obj 239 127 hradio 19 1 0 4 empty empty speed 0 -10 0 12 #fcfcfc #000000 #000000 0;
#X obj 507 413 s controller_message;
#X obj 507 386 repeater;
#X msg 507 359 all all tonespeed \$1;
#X msg 506 331 all all arpeggio \$1;
#X msg 195 238 0;
#X msg 238 227 1;
#X obj 202 180 t a a;
#X obj 113 193 t a a;
#X obj 171 209 sel 1;
#X obj 236 204 sel 1;
#X connect 2 0 16 0;
#X connect 3 0 19 0;
#X connect 4 0 17 0;
#X connect 5 0 20 0;
#X connect 6 0 18 0;
#X connect 15 0 35 0;
#X connect 16 0 1 0;
#X connect 17 0 8 0;
#X connect 18 0 0 0;
#X connect 19 0 7 0;
#X connect 20 0 9 0;
#X connect 21 0 0 0;
#X connect 21 0 9 0;
#X connect 21 0 8 0;
#X connect 21 0 7 0;
#X connect 21 0 1 0;
#X connect 22 0 24 0;
#X connect 24 0 25 0;
#X connect 26 0 34 0;
#X connect 27 0 30 0;
#X connect 29 0 28 0;
#X connect 30 0 29 0;
#X connect 31 0 29 0;
#X connect 32 0 31 0;
#X connect 33 0 31 0;
#X connect 34 0 21 0;
#X connect 34 1 37 0;
#X connect 35 0 21 0;
#X connect 35 1 36 0;
#X connect 36 0 32 0;
#X connect 37 0 33 0;
#X coords 0 -1 1 1 340 60 2 100 100;
#X restore 582 72 pd toneLiter;
#N canvas 613 25 624 384 half 0;
#X obj 112 122 bng 19 250 50 0 empty empty empty 0 -10 0 12 #fcfcfc #000000 #000000;
#X text 140 121 volume down!;
#X obj 112 161 s au_vol_half;
#X connect 0 0 2 0;
#X coords 0 -1 1 1 240 50 1 100 100;
#X restore 521 16 pd half vol;
#N canvas 384 25 896 690 playSong 0;
#X obj 331 455 s ac_c;
#X obj 37 451 s au_v;
#X obj 117 222 tgl 19 0 empty empty playSong 20 10 0 12 #fcfcfc #000000 #000000 0 1;
#X obj 93 571 tgl 19 0 empty empty playSong 20 10 0 12 #fcfcfc #000000 #000000 0 1;
#X obj 117 250 tgl 19 0 empty empty playSong 20 10 0 12 #fcfcfc #000000 #000000 0 1;
#X obj 117 278 tgl 19 0 empty empty playSong 20 10 0 12 #fcfcfc #000000 #000000 0 1;
#X obj 391 520 tgl 19 0 empty empty playSong 20 10 0 12 #fcfcfc #000000 #000000 0 1;
#X obj 111 452 s ac_v;
#X obj 188 452 s au_o;
#X obj 258 452 s au_c;
#X text 183 569 actor violin;
#X text 481 518 actor cello;
#X obj 117 194 tgl 19 0 empty empty playSong 20 10 0 12 #fcfcfc #000000 #000000 0 1;
#X text 203 193 ALL;
#X msg 578 162 3300;
#X text 203 165 choose start point;
#X msg 619 160 53600;
#X obj 433 275 s controller_message;
#X msg 601 96 55600;
#X msg 549 58 140000;
#X obj 544 398 tgl 19 0 empty empty playSong 20 10 0 12 #fcfcfc #000000 #000000 0 1;
#X text 634 396 audience violin2;
#X obj 544 453 s au_v2;
#X obj 380 344 i;
#X obj 172 346 t a b;
#X obj 429 121 loadbang;
#X obj 289 349 t a b;
#X obj 117 166 hradio 19 1 0 4 empty empty empty 0 -10 0 12 #fcfcfc #000000 #000000 0;
#X msg 433 221 all all startPoint \$1;
#X obj 433 248 repeater;
#X msg 379 369 actor cello startPoint \$1;
#X obj 314 387 song;
#X obj 232 384 song;
#X obj 137 384 song;
#X obj 49 385 song;
#X obj 94 598 song;
#X obj 387 549 song;
#X obj 543 425 song;
#X text 203 221 violin;
#X text 203 249 viola;
#X text 203 277 cello;
#X connect 2 0 34 0;
#X connect 3 0 35 0;
#X connect 4 0 33 0;
#X connect 5 0 24 0;
#X connect 6 0 36 0;
#X connect 12 0 26 0;
#X connect 20 0 37 0;
#X connect 23 0 30 0;
#X connect 24 0 32 0;
#X connect 24 1 23 0;
#X connect 26 0 31 0;
#X connect 26 1 23 0;
#X connect 27 0 28 0;
#X connect 28 0 29 0;
#X connect 29 0 17 0;
#X connect 31 0 0 0;
#X connect 31 0 9 0;
#X connect 31 0 8 0;
#X connect 31 0 7 0;
#X connect 31 0 1 0;
#X connect 31 0 22 0;
#X connect 32 0 9 0;
#X connect 32 0 0 0;
#X connect 33 0 8 0;
#X connect 34 0 1 0;
#X connect 34 0 7 0;
#X connect 35 0 7 0;
#X connect 36 0 0 0;
#X connect 37 0 22 0;
#X coords 0 -1 1 1 250 220 1 100 100;
#X restore 800 145 pd playSong;
#N canvas 528 25 439 631 audition 0;
#X obj 106 533 s ac_c;
#X obj 114 162 tgl 19 0 empty empty playSong 30 10 0 12 #fcfcfc #000000 #000000 0 1;
#X text 114 133 choose start point;
#X obj 173 453 s controller_message;
#N canvas 530 57 450 300 auditionMode 0;
#X obj 91 61 inlet;
#X obj 154 256 outlet;
#X obj 111 115 sel 1 0;
#X msg 140 138 1;
#X obj 113 163 t a;
#X msg 111 139 6;
#X connect 0 0 2 0;
#X connect 2 0 5 0;
#X connect 2 1 3 0;
#X connect 3 0 4 0;
#X connect 4 0 1 0;
#X connect 5 0 4 0;
#X restore 106 506 pd auditionMode;
#X text 210 161 audition 1;
#X obj 71 289 t a b;
#X obj 114 193 tgl 19 0 empty empty playSong 30 10 0 12 #fcfcfc #000000 #000000 0 1;
#X text 210 192 audition 2;
#X obj 118 250 t a b;
#X msg 173 355 73000;
#X msg 225 353 10600;
#X msg 173 407 actor cello startPoint \$1;
#X obj 173 430 repeater;
#X connect 1 0 6 0;
#X connect 4 0 0 0;
#X connect 6 0 4 0;
#X connect 6 1 10 0;
#X connect 7 0 9 0;
#X connect 9 0 4 0;
#X connect 9 1 11 0;
#X connect 10 0 12 0;
#X connect 11 0 12 0;
#X connect 12 0 13 0;
#X connect 13 0 3 0;
#X coords 0 -1 1 1 200 140 1 100 100;
#X restore 834 965 pd audition;
#N canvas 264 85 985 763 Sequencer 0;
#X obj 116 128 bng 19 250 50 0 empty empty mode\ 3 30 10 0 12 #00faff #000000 #000000;
#X obj 465 665 s controller_message;
#X obj 116 155 tgl 19 0 empty empty playLoop 30 10 0 12 #00faff #000000 #000000 0 1;
#X text 369 31 only ID 1 \, 2 \, 4 can input loop;
#X obj 117 429 tgl 19 0 empty empty empty 0 -10 0 12 #00faff #000000 #000000 0 1;
#X text 143 431 start Jam!;
#X obj 116 290 bng 19 250 50 0 empty empty reset\ loop 30 10 0 12 #00faff #000000 #000000;
#X obj 107 611 bng 19 250 50 0 empty empty empty 0 -10 0 12 #00faff #000000 #000000;
#X obj 105 673 s ac_vol_fade;
#X obj 207 674 s au_vol_fade;
#X text 126 608 END all fade out;
#X obj 373 118 s modeall;
#X msg 371 94 3;
#X obj 116 458 bng 19 250 50 0 empty empty next\ words 20 10 0 12 #00faff #000000 #000000;
#X text 214 157 actor;
#X obj 116 182 tgl 19 0 empty empty playLoop 30 10 0 12 #00faff #000000 #000000 0 1;
#X text 210 183 violin;
#X obj 116 209 tgl 19 0 empty empty playLoop 30 10 0 12 #00faff #000000 #000000 0 1;
#X text 207 209 violin2;
#X obj 116 236 tgl 19 0 empty empty playLoop 30 10 0 12 #00faff #000000 #000000 0 1;
#X text 211 238 viola;
#X obj 116 263 tgl 19 0 empty empty playLoop 30 10 0 12 #00faff #000000 #000000 0 1;
#X text 212 264 cello;
#X obj 116 317 bng 19 250 50 0 empty empty reset\ loop 30 10 0 12 #00faff #000000 #000000;
#X text 225 319 kick;
#X obj 116 344 bng 19 250 50 0 empty empty reset\ loop 30 10 0 12 #00faff #000000 #000000;
#X text 222 344 snare;
#X obj 116 371 bng 19 250 50 0 empty empty reset\ loop 30 10 0 12 #00faff #000000 #000000;
#X obj 116 398 bng 19 250 50 0 empty empty reset\ loop 30 10 0 12 #00faff #000000 #000000;
#X text 222 376 hihat;
#X text 221 400 hikick;
#X text 226 291 all;
#X msg 348 174 actor all playLoop \$1;
#X msg 348 201 audience violin playLoop \$1;
#X msg 348 228 audience violin2 playLoop \$1;
#X msg 348 256 audience viola playLoop \$1;
#X msg 348 282 audience cello playLoop \$1;
#X msg 225 533 all all sequenceNext bang;
#X msg 348 448 all all jam \$1;
#X obj 542 580 repeater;
#X msg 348 309 all all resetD bang;
#X msg 348 336 all all resetK bang;
#X msg 348 363 all all resetS bang;
#X msg 348 390 all all resetH bang;
#X msg 348 417 all all resetHk bang;
#X connect 0 0 12 0;
#X connect 2 0 32 0;
#X connect 4 0 38 0;
#X connect 6 0 40 0;
#X connect 7 0 8 0;
#X connect 7 0 9 0;
#X connect 12 0 11 0;
#X connect 13 0 37 0;
#X connect 15 0 33 0;
#X connect 17 0 34 0;
#X connect 19 0 35 0;
#X connect 21 0 36 0;
#X connect 23 0 41 0;
#X connect 25 0 42 0;
#X connect 27 0 43 0;
#X connect 28 0 44 0;
#X connect 32 0 39 0;
#X connect 33 0 39 0;
#X connect 34 0 39 0;
#X connect 35 0 39 0;
#X connect 36 0 39 0;
#X connect 37 0 1 0;
#X connect 38 0 39 0;
#X connect 39 0 1 0;
#X connect 40 0 39 0;
#X connect 41 0 39 0;
#X connect 42 0 39 0;
#X connect 43 0 39 0;
#X connect 44 0 39 0;
#X coords 0 -1 1 1 200 400 1 100 100;
#X restore 599 962 pd Sequencer;
#N canvas 619 263 660 432 instrumentModes 0;
#X obj 109 146 hradio 19 1 0 4 empty empty empty 0 -10 0 12 #e3c6ff #000000 #000000 0;
#X obj 199 146 hradio 19 1 0 4 empty empty empty 0 -10 0 12 #e3c6ff #000000 #000000 0;
#X obj 288 147 hradio 19 1 0 4 empty empty empty 0 -10 0 12 #e3c6ff #000000 #000000 0;
#X obj 202 371 s controller_message;
#X text 110 124 ID1;
#X text 201 124 ID2;
#X obj 377 149 hradio 19 1 0 4 empty empty empty 0 -10 0 12 #e3c6ff #000000 #000000 0;
#X text 290 125 ID4;
#X obj 463 148 hradio 19 1 0 4 empty empty empty 0 -10 0 12 #e3c6ff #000000 #000000 0;
#X floatatom 463 125 5 0 0 0 - - - 0;
#X text 374 125 ID6;
#X obj 202 342 repeater;
#X msg 112 205 1 inst \$1;
#X msg 201 208 2 inst \$1;
#X msg 289 209 4 inst \$1;
#X msg 378 210 6 inst \$1;
#X msg 456 280 \$1 inst \$2;
#X obj 456 244 pack 0 0;
#X obj 485 215 t b a;
#X connect 0 0 12 0;
#X connect 1 0 13 0;
#X connect 2 0 14 0;
#X connect 6 0 15 0;
#X connect 8 0 18 0;
#X connect 9 0 17 0;
#X connect 11 0 3 0;
#X connect 12 0 11 0;
#X connect 13 0 11 0;
#X connect 14 0 11 0;
#X connect 15 0 11 0;
#X connect 16 0 11 0;
#X connect 17 0 16 0;
#X connect 18 0 17 0;
#X connect 18 1 17 1;
#X coords 0 -1 1 1 450 80 1 100 100;
#X restore 13 427 pd instrumentModes;
#N canvas 377 163 391 438 Flash 0;
#X obj 147 319 s controller_message;
#X obj 127 127 bng 30 250 50 0 empty empty empty 0 -10 0 12 #faff00 #000000 #000000;
#X obj 216 127 bng 30 250 50 0 empty empty empty 0 -10 0 12 #faff00 #000000 #000000;
#X floatatom 216 104 5 0 0 0 - - - 0;
#X msg 127 174 all all flash bang;
#X msg 47 212 9 flash bang;
#X obj 219 214 int 0;
#X msg 219 257 \$1 flash bang;
#X connect 1 0 4 0;
#X connect 2 0 6 0;
#X connect 3 0 6 1;
#X connect 4 0 0 0;
#X connect 5 0 0 0;
#X connect 6 0 7 0;
#X connect 7 0 0 0;
#X coords 0 -1 1 1 200 60 1 100 100;
#X restore 200 518 pd Flash;
#N canvas 80 135 521 404 monitor 0;
#X obj 291 178 route val1 val2;
#X floatatom 111 206 5 0 0 0 - - - 0;
#X floatatom 162 206 5 0 0 0 - - - 0;
#X obj 117 323 s controller_message;
#X obj 291 119 r sensor_message;
#X floatatom 111 131 5 1 65 0 - - - 0;
#X obj 111 156 tgl 19 0 empty empty empty 0 -10 0 12 #fcfcfc #000000 #000000 0 1;
#X obj 111 48 loadbang;
#X obj 291 154 route 1, f 8;
#X text 155 132 whih ID?;
#X text 139 160 click to start;
#X text 109 180 receiving sensor value;
#X msg 117 291 \$2 debug \$1;
#X obj 117 263 pack 0 0;
#X connect 0 0 1 0;
#X connect 0 1 2 0;
#X connect 4 0 8 0;
#X connect 5 0 8 1;
#X connect 5 0 13 1;
#X connect 6 0 13 0;
#X connect 7 0 5 0;
#X connect 8 0 0 0;
#X connect 12 0 3 0;
#X connect 13 0 12 0;
#X coords 0 -1 1 1 180 140 1 100 100;
#X restore 12 516 pd monitor;
#N canvas 387 23 893 686 violinVoice 0;
#X obj 113 135 tgl 19 0 empty empty voice\ violin 20 10 0 12 #fcfcfc #000000 #000000 0 1;
#X obj 113 163 tgl 19 0 empty empty voice\ violin2 20 10 0 12 #fcfcfc #000000 #000000 0 1;
#X obj 113 191 tgl 19 0 empty empty voice\ viola 20 10 0 12 #fcfcfc #000000 #000000 0 1;
#X obj 113 219 tgl 19 0 empty empty voice\ cello 20 10 0 12 #fcfcfc #000000 #000000 0 1;
#X obj 114 248 bng 19 250 50 0 empty empty all\ off 30 10 0 12 #fcfcfc #000000 #000000;
#X obj 51 346 + 1;
#X obj 192 343 + 1;
#X obj 340 343 + 1;
#X obj 483 344 + 1;
#X obj 278 454 s au_vol_mute;
#X obj 382 452 s ac_vol_mute;
#X obj 107 385 s au_v;
#X obj 183 380 s au_v2;
#X obj 336 385 s au_o;
#X obj 438 382 s au_c;
#X obj 53 385 s ac_v;
#X obj 492 383 s ac_c;
#X connect 0 0 5 0;
#X connect 1 0 6 0;
#X connect 2 0 7 0;
#X connect 3 0 8 0;
#X connect 4 0 9 0;
#X connect 4 0 10 0;
#X connect 5 0 15 0;
#X connect 5 0 11 0;
#X connect 6 0 12 0;
#X connect 7 0 13 0;
#X connect 8 0 16 0;
#X connect 8 0 14 0;
#X coords 0 -1 1 1 150 180 1 100 100;
#X restore 398 991 pd violinVoice;
#N canvas 666 25 450 300 vote 0;
#X obj 87 223 s au_vol_on;
#X obj 178 223 s ac_vol_on;
#X obj 113 119 tgl 19 0 empty empty empty 0 -10 0 12 #fcfcfc #000000 #000000 0 1;
#X obj 253 195 s au_vol_half;
#X obj 140 172 sel 1 0;
#X text 145 118 audience volume up;
#X connect 2 0 4 0;
#X connect 4 0 0 0;
#X connect 4 1 3 0;
#X coords 0 -1 1 1 200 50 1 100 100;
#X restore 768 17 pd vote;
#X obj 587 307 dumbtyper;
#X obj 119 705 ctrl_zmq_recv;
#X obj 17 705 ctrl_zmq_send;
#N canvas 129 215 1151 563 canon 0;
#X obj 352 564 s controller_message;
#X obj 842 561 s controller_message;
#X obj 120 153 bng 19 250 50 0 empty empty empty 0 -10 0 12 #fcfcfc #000000 #000000;
#X obj 120 187 bng 19 250 50 0 empty empty empty 0 -10 0 12 #fcfcfc #000000 #000000;
#X obj 120 221 bng 19 250 50 0 empty empty empty 0 -10 0 12 #fcfcfc #000000 #000000;
#X floatatom 718 71 5 0 0 0 - - - 0;
#X floatatom 730 103 5 0 0 0 - - - 0;
#X floatatom 860 258 5 0 0 0 - - - 0;
#X floatatom 866 288 5 0 0 0 - - - 0;
#X obj 120 255 bng 19 250 50 0 empty empty empty 0 -10 0 12 #fcfcfc #000000 #000000;
#X obj 808 413 del 1000;
#X obj 830 441 del 1000;
#X floatatom 870 372 5 0 0 0 - - - 0;
#X floatatom 876 402 5 0 0 0 - - - 0;
#X obj 749 203 del 2000;
#X obj 771 231 del 2000;
#X obj 798 299 del 2000;
#X obj 820 327 del 2000;
#X obj 120 289 bng 19 250 50 0 empty empty empty 0 -10 0 12 #fcfcfc #000000 #000000;
#X obj 1160 106 del 2000;
#X obj 1182 134 del 2000;
#X obj 120 323 bng 19 250 50 0 empty empty empty 0 -10 0 12 #fcfcfc #000000 #000000;
#X obj 1215 192 del 2000;
#X obj 1237 220 del 2000;
#X obj 120 357 bng 19 250 50 0 empty empty empty 0 -10 0 12 #fcfcfc #000000 #000000;
#X obj 1282 276 del 2000;
#X obj 1304 304 del 2000;
#X obj 120 391 bng 19 250 50 0 empty empty empty 0 -10 0 12 #fcfcfc #000000 #000000;
#X obj 1323 382 del 2000;
#X obj 1345 410 del 2000;
#X obj 649 103 del 2000;
#X obj 671 131 del 2000;
#X msg 378 131 all viola loadfile c_Gymnasium;
#X msg 434 231 all viola loadfile c_Kindergarten;
#X msg 507 323 all viola loadfile c_Musiklehrer;
#X msg 567 442 all viola loadfile c_Physik;
#X msg 885 126 all viola loadfile c_Putzen;
#X msg 935 215 all viola loadfile c_schaffner;
#X msg 985 302 all viola loadfile c_Schuldirektor;
#X msg 1018 391 all viola loadfile c_Supermarkt;
#X text 155 154 Gymnasium;
#X msg 361 105 all cello loadfile c_Gymnasium;
#X msg 397 156 all violin loadfile c_Gymnasium;
#X msg 453 256 all violin loadfile c_Kindergarten;
#X msg 526 348 all violin loadfile c_Musiklehrer;
#X msg 586 467 all violin loadfile c_Physik;
#X msg 904 151 all violin loadfile c_Putzen;
#X msg 954 240 all violin loadfile c_schaffner;
#X msg 1004 327 all violin loadfile c_Schuldirektor;
#X msg 1037 416 all violin loadfile c_Supermarkt;
#X msg 417 205 all cello loadfile c_Kindergarten;
#X msg 490 297 all cello loadfile c_Musiklehrer;
#X msg 550 416 all cello loadfile c_Physik;
#X msg 868 100 all cello loadfile c_Putzen;
#X msg 918 189 all cello loadfile c_schaffner;
#X msg 968 276 all cello loadfile c_Schuldirektor;
#X msg 1001 365 all cello loadfile c_Supermarkt;
#X text 157 186 Kindergarten;
#X text 155 221 Musiklehrer;
#X text 156 257 Physik;
#X text 156 289 Putzen;
#X text 154 322 schaffner;
#X text 154 357 Schuldirektor;
#X text 154 393 Supermarkt;
#X obj 104 514 s modeall;
#X obj 121 124 tgl 19 0 empty empty empty 0 -10 0 12 #fcfcfc #000000 #000000 0 1;
#X obj 107 451 sel 1 0;
#X msg 140 485 1;
#X text 156 126 canon on/off;
#X msg 106 485 3;
#X connect 2 0 41 0;
#X connect 2 0 30 0;
#X connect 3 0 50 0;
#X connect 3 0 14 0;
#X connect 4 0 51 0;
#X connect 4 0 16 0;
#X connect 5 0 6 0;
#X connect 5 0 30 1;
#X connect 6 0 31 1;
#X connect 7 0 8 0;
#X connect 7 0 16 1;
#X connect 8 0 17 1;
#X connect 9 0 10 0;
#X connect 9 0 52 0;
#X connect 10 0 11 0;
#X connect 10 0 35 0;
#X connect 11 0 45 0;
#X connect 12 0 13 0;
#X connect 12 0 10 1;
#X connect 13 0 11 1;
#X connect 14 0 33 0;
#X connect 14 0 15 0;
#X connect 15 0 43 0;
#X connect 16 0 34 0;
#X connect 16 0 17 0;
#X connect 17 0 44 0;
#X connect 18 0 19 0;
#X connect 18 0 53 0;
#X connect 19 0 20 0;
#X connect 19 0 36 0;
#X connect 20 0 46 0;
#X connect 21 0 22 0;
#X connect 21 0 54 0;
#X connect 22 0 23 0;
#X connect 22 0 37 0;
#X connect 23 0 47 0;
#X connect 24 0 25 0;
#X connect 24 0 55 0;
#X connect 25 0 26 0;
#X connect 25 0 38 0;
#X connect 26 0 48 0;
#X connect 27 0 28 0;
#X connect 27 0 56 0;
#X connect 28 0 29 0;
#X connect 28 0 39 0;
#X connect 29 0 49 0;
#X connect 30 0 32 0;
#X connect 30 0 31 0;
#X connect 31 0 42 0;
#X connect 32 0 0 0;
#X connect 33 0 0 0;
#X connect 34 0 0 0;
#X connect 35 0 0 0;
#X connect 36 0 1 0;
#X connect 37 0 1 0;
#X connect 38 0 1 0;
#X connect 39 0 1 0;
#X connect 41 0 0 0;
#X connect 42 0 0 0;
#X connect 43 0 0 0;
#X connect 44 0 0 0;
#X connect 45 0 0 0;
#X connect 46 0 1 0;
#X connect 47 0 1 0;
#X connect 48 0 1 0;
#X connect 49 0 1 0;
#X connect 50 0 0 0;
#X connect 51 0 0 0;
#X connect 52 0 0 0;
#X connect 53 0 1 0;
#X connect 54 0 1 0;
#X connect 55 0 1 0;
#X connect 56 0 1 0;
#X connect 65 0 66 0;
#X connect 66 0 69 0;
#X connect 66 1 67 0;
#X connect 67 0 64 0;
#X connect 69 0 64 0;
#X coords 0 -1 1 1 200 320 1 100 100;
#X restore 905 641 pd canon;
#N canvas 301 126 979 589 violin_to_voice 0;
#X obj 437 333 s controller_message;
#X obj 361 191 bng 19 250 50 0 empty empty empty 0 -10 0 12 #fcfcfc #000000 #000000;
#X obj 361 218 bng 19 250 50 0 empty empty empty 0 -10 0 12 #fcfcfc #000000 #000000;
#X obj 112 204 tgl 19 0 empty empty empty 0 -10 0 12 #fcfcfc #000000 #000000 0 1;
#X msg 385 136 20000;
#X msg 385 163 all all mode12cross \$1;
#X msg 385 190 all all mode2on bang;
#X msg 385 217 all all mode2auto bang;
#X msg 385 244 all all mode2bow \$1;
#X obj 463 292 repeater;
#X obj 172 539 s ac_c;
#X obj -122 535 s au_v;
#X obj -48 536 s ac_v;
#X obj 29 536 s au_o;
#X obj 99 536 s au_c;
#X obj 110 131 tgl 19 0 empty empty playSong 20 10 0 12 #fcfcfc #000000 #000000 0 1;
#X text 195 131 ALL;
#X obj 304 495 s modeall;
#X obj 111 391 t a a;
#X obj 159 475 sel 1;
#X msg 306 466 2;
#X obj 111 167 bng 19 250 50 0 empty empty empty 0 -10 0 12 #fcfcfc #000000 #000000;
#X text 135 167 start fading in 20 sec;
#X text 138 203 bow active for speach;
#X obj 360 70 s au_vol_on;
#X obj 464 70 s ac_vol_on;
#X obj 339 107 sel 1;
#X msg 315 349 1;
#X obj 307 314 del 15000;
#X obj 56 428 sel 1;
#X msg 56 453 5;
#X obj 105 468 t a;
#X connect 1 0 6 0;
#X connect 2 0 7 0;
#X connect 3 0 8 0;
#X connect 4 0 5 0;
#X connect 5 0 0 0;
#X connect 6 0 0 0;
#X connect 7 0 0 0;
#X connect 8 0 9 0;
#X connect 9 0 0 0;
#X connect 15 0 18 0;
#X connect 15 0 26 0;
#X connect 18 0 29 0;
#X connect 18 1 19 0;
#X connect 19 0 20 0;
#X connect 20 0 17 0;
#X connect 21 0 4 0;
#X connect 21 0 28 0;
#X connect 26 0 24 0;
#X connect 26 1 25 0;
#X connect 27 0 3 0;
#X connect 28 0 27 0;
#X connect 29 0 30 0;
#X connect 30 0 31 0;
#X connect 31 0 10 0;
#X connect 31 0 14 0;
#X connect 31 0 13 0;
#X connect 31 0 12 0;
#X connect 31 0 11 0;
#X coords 0 -1 1 1 200 150 1 100 100;
#X restore 587 145 pd violin_to_voice;
#X connect 0 0 19 0;
#X connect 1 0 18 0;
