#N canvas -11 25 1280 687 12;
#X obj 23 118 hradio 19 1 0 4 empty empty empty 0 -10 0 12 #fcfcfc #000000 #000000 0;
#X obj 29 416 hsl 162 19 0 2 0 0 empty empty empty -2 -10 0 12 #ffc7c6 #000000 #000000 0 1;
#X obj 22 619 route val1 val2;
#X floatatom 22 643 5 0 0 0 - - - 0;
#X floatatom 73 643 5 0 0 0 - - - 0;
#X obj 190 531 hradio 19 1 0 4 empty empty empty 0 -10 0 12 #e3c6ff #000000 #000000 0;
#X obj 280 531 hradio 19 1 0 4 empty empty empty 0 -10 0 12 #e3c6ff #000000 #000000 0;
#X obj 369 532 hradio 19 1 0 4 empty empty empty 0 -10 0 12 #e3c6ff #000000 #000000 0;
#X obj 26 360 loadbang;
#X text 159 597 click to start receiving sensor value;
#X obj 447 644 s controller_message;
#X obj 214 669 s controller_message;
#X obj 23 297 s controller_message;
#X msg 192 554 inst 1 \$1;
#X obj 444 587 s controller_message;
#X floatatom 150 138 5 0 0 0 - - - 0;
#X msg 449 616 flash all bang;
#N canvas 441 25 450 300 zmqsender 0;
#X obj 38 137 zmq;
#X msg 72 82 socket publish;
#X obj 39 56 t b b;
#X obj 39 245 list trim;
#X obj 40 173 list prepend control;
#X obj 38 208 list prepend send;
#X obj 39 27 bng 19 250 50 0 empty empty empty 0 -10 0 12 #fcfcfc #000000 #000000;
#X msg 191 81 close;
#X obj 67 27 loadbang;
#X obj 73 138 r controller_message;
#X msg 39 107 connect tcp://192.168.0.100:5556;
#X obj 134 28 inlet;
#X obj 153 258 print;
#X connect 1 0 0 0;
#X connect 2 0 10 0;
#X connect 2 1 1 0;
#X connect 3 0 0 0;
#X connect 3 0 12 0;
#X connect 4 0 5 0;
#X connect 5 0 3 0;
#X connect 6 0 2 0;
#X connect 7 0 0 0;
#X connect 8 0 2 0;
#X connect 9 0 4 0;
#X connect 10 0 0 0;
#X connect 11 0 2 0;
#X restore 16 54 pd zmqsender;
#N canvas 266 230 450 300 zmqreciver 0;
#X obj 4 17 bng 19 250 50 0 empty empty empty 0 -10 0 12 #fcfcfc #000000 #000000;
#X msg 175 87 close;
#X obj 33 146 zmq;
#X msg 32 64 socket subscribe;
#X obj 33 42 t b b b;
#X msg 33 87 subscribe sensor;
#X obj 32 168 route sensor;
#X obj 81 14 loadbang;
#X msg 34 113 connect tcp://192.168.0.100:5555;
#X obj 33 197 s sensor_message;
#X obj 33 14 inlet;
#X connect 0 0 4 0;
#X connect 1 0 2 0;
#X connect 2 0 6 0;
#X connect 3 0 2 0;
#X connect 4 0 5 0;
#X connect 4 1 8 0;
#X connect 4 2 3 0;
#X connect 5 0 2 0;
#X connect 6 0 9 0;
#X connect 7 0 4 0;
#X connect 8 0 2 0;
#X connect 10 0 4 0;
#X restore 108 54 pd zmqreciver;
#X obj 24 497 r sensor_message;
#X obj 18 31 bng 19 250 50 0 empty empty empty 0 -10 0 12 #fcfcfc #000000 #000000;
#X obj 181 34 bng 19 250 50 0 empty empty empty 0 -10 0 12 #fcfcfc #000000 #000000;
#X text 48 34 reopen onnections;
#X floatatom 74 572 5 1 62 0 - - - 0;
#X obj 139 622 list prepend debug;
#X obj 134 596 tgl 19 0 empty empty empty 0 -10 0 12 #fcfcfc #000000 #000000 0 1;
#X obj 138 647 list prepend;
#X obj 74 547 loadbang;
#X obj 139 669 list trim;
#X obj 22 596 route 1, f 8;
#X text 118 573 whih ID?;
#N canvas 324 349 450 300 unusedMessage 0;
#X obj 37 36 tgl 15 0 empty empty empty 17 7 0 10 #fcfcfc #000000 #000000 0 1;
#X msg 37 60 calib all \$1;
#X obj 37 91 tgl 15 0 empty empty empty 17 7 0 10 #fcfcfc #000000 #000000 0 1;
#X obj 39 143 tgl 15 0 empty empty empty 17 7 0 10 #fcfcfc #000000 #000000 0 1;
#X msg 37 115 calib 1 \$1;
#X msg 39 167 calib 2 \$1;
#X obj 38 193 tgl 15 0 empty empty empty 17 7 0 10 #fcfcfc #000000 #000000 0 1;
#X msg 38 217 calib 61 \$1;
#X text 61 192 cello;
#X obj 22 246 s controller_message;
#X text 55 36 calibrate all;
#X connect 0 0 1 0;
#X connect 1 0 9 0;
#X connect 2 0 4 0;
#X connect 3 0 5 0;
#X connect 4 0 9 0;
#X connect 5 0 9 0;
#X connect 6 0 7 0;
#X connect 7 0 9 0;
#X restore 16 696 pd unusedMessage;
#X text 27 98 0 1 2 3;
#N canvas 353 378 450 300 repeater 1;
#X obj 142 46 inlet message;
#X obj 168 106 list;
#X obj 153 246 outlet message;
#X obj 142 72 t a a b;
#X obj 222 104 del 10;
#X obj 167 133 list trim;
#X connect 0 0 3 0;
#X connect 1 0 5 0;
#X connect 3 0 2 0;
#X connect 3 1 1 1;
#X connect 3 2 4 0;
#X connect 4 0 1 0;
#X connect 5 0 2 0;
#X restore 24 271 pd repeater;
#X msg 23 145 mode audience \$1;
#X obj 27 209 hradio 19 1 0 5 empty empty empty 0 -10 0 12 #fcfcfc #000000 #000000 0;
#X floatatom 148 228 5 0 0 0 - - - 0;
#X text 31 189 0 1 2 3 4;
#X obj 26 465 s controller_message;
#X msg 26 386 set 2;
#N canvas 411 413 450 300 vol-ctr 0;
#X obj 71 109 line;
#X obj 102 166 outlet;
#X obj 30 28 inlet fadeout;
#X obj 503 391 line;
#X msg 445 364 0 1000;
#X msg 501 363 0 10;
#X msg 543 362 2 10;
#X obj 139 27 inlet mute;
#X obj 228 29 inlet on;
#X msg 112 69 0;
#X msg 154 68 2;
#X msg 35 70 2 \, 0 1000;
#X connect 0 0 1 0;
#X connect 2 0 11 0;
#X connect 4 0 3 0;
#X connect 5 0 3 0;
#X connect 6 0 3 0;
#X connect 7 0 9 0;
#X connect 8 0 10 0;
#X connect 9 0 1 0;
#X connect 10 0 1 0;
#X connect 11 0 0 0;
#X restore 88 390 pd vol-ctr;
#X obj 198 366 bng 19 250 50 0 empty empty empty 0 -10 0 12 #ff0400 #000000 #000000;
#X text 225 367 fade out;
#X obj 199 389 bng 19 250 50 0 empty empty empty 0 -10 0 12 #ff0400 #000000 #000000;
#X text 226 390 mute;
#X obj 200 415 bng 19 250 50 0 empty empty empty 0 -10 0 12 #ff0400 #000000 #000000;
#X text 224 416 sound on;
#X text 87 361 volume audience;
#X obj 306 415 hsl 162 19 0 2 0 0 empty empty empty -2 -10 0 12 #ffc7c6 #000000 #000000 0 1;
#X obj 303 359 loadbang;
#X msg 303 385 set 2;
#N canvas 411 413 450 300 vol-ctr 0;
#X obj 58 97 line;
#X obj 102 166 outlet;
#X obj 30 28 inlet fadeout;
#X obj 503 391 line;
#X msg 445 364 0 1000;
#X msg 501 363 0 10;
#X msg 543 362 2 10;
#X obj 139 27 inlet mute;
#X obj 228 29 inlet on;
#X msg 112 69 0;
#X msg 154 68 2;
#X msg 36 69 2 \, 0 1000;
#X connect 0 0 1 0;
#X connect 2 0 11 0;
#X connect 4 0 3 0;
#X connect 5 0 3 0;
#X connect 6 0 3 0;
#X connect 7 0 9 0;
#X connect 8 0 10 0;
#X connect 9 0 1 0;
#X connect 10 0 1 0;
#X connect 11 0 0 0;
#X restore 365 389 pd vol-ctr;
#X obj 475 365 bng 19 250 50 0 empty empty empty 0 -10 0 12 #ffc7c6 #000000 #000000;
#X text 502 366 fade out;
#X obj 476 388 bng 19 250 50 0 empty empty empty 0 -10 0 12 #ffc7c6 #000000 #000000;
#X text 503 389 mute;
#X obj 477 414 bng 19 250 50 0 empty empty empty 0 -10 0 12 #ffc7c6 #000000 #000000;
#X text 501 415 sound on;
#X msg 303 440 volume actor \$1;
#X text 364 360 volume actor;
#X obj 22 79 r au_mode;
#X obj 27 170 r ac_mode, f 10;
#X obj 229 87 s au_mode;
#X obj 228 33 bng 19 250 50 0 empty empty empty 0 -10 0 12 #00ff04 #000000 #000000;
#X msg 271 59 1;
#X obj 303 87 s ac_mode, f 10;
#X obj 401 61 s au_vol_on;
#X obj 313 60 s ac_vol_on;
#X obj 197 438 r au_vol_on;
#X obj 475 436 r ac_vol_on;
#X obj 228 119 bng 19 250 50 0 empty empty empty 0 -10 0 12 #00ff04 #000000 #000000;
#X text 250 118 scene1 lala sofie enters;
#X obj 228 148 s ac_vol_fade;
#X obj 330 149 s au_vol_fade;
#X obj 475 459 r ac_vol_fade;
#X obj 195 459 r au_vol_fade;
#X obj 231 182 bng 19 250 50 0 empty empty empty 0 -10 0 12 #00ff04 #000000 #000000;
#X obj 318 234 s au_vol_on;
#X obj 230 233 s ac_vol_on;
#X msg 407 234 tune all 1;
#X obj 231 207 t b b b b;
#X obj 340 208 s au_mode;
#X msg 308 209 1;
#X obj 414 208 s ac_mode, f 10;
#X msg 230 286 tuneG all \$1;
#X msg 340 285 tuneA all \$1;
#X obj 230 259 tgl 19 0 empty empty empty 0 -10 0 12 #00ff04 #000000 #000000 0 1;
#X obj 340 260 tgl 19 0 empty empty empty 0 -10 0 12 #00ff04 #000000 #000000 0 1;
#X text 253 182 Tuning sequence;
#X text 365 258 tone A;
#X text 255 260 tone G;
#X text 548 31 Tonelighter;
#X obj 521 31 bng 19 250 50 0 empty empty empty 0 -10 0 12 #00ff04 #000000 #000000;
#X obj 604 63 s au_mode;
#X msg 572 64 1;
#X obj 678 63 s ac_mode, f 10;
#X obj 609 91 s au_vol_on;
#X obj 521 90 s ac_vol_on;
#X obj 521 63 t b b;
#X obj 521 114 tgl 19 0 empty empty empty 0 -10 0 12 #00ff04 #000000 #000000 0 1;
#X text 544 115 tone lighter on/off;
#X msg 521 166 play all \$1;
#X obj 525 289 s controller_message;
#N canvas 353 378 450 300 repeater 0;
#X obj 142 46 inlet message;
#X obj 168 106 list;
#X obj 153 246 outlet message;
#X obj 142 72 t a a b;
#X obj 222 104 del 10;
#X obj 167 133 list trim;
#X connect 0 0 3 0;
#X connect 1 0 5 0;
#X connect 3 0 2 0;
#X connect 3 1 1 1;
#X connect 3 2 4 0;
#X connect 4 0 1 0;
#X connect 5 0 2 0;
#X restore 526 263 pd repeater;
#X obj 425 258 bng 19 250 50 0 empty empty empty 0 -10 0 12 #c6ffc7 #000000 #000000;
#X msg 438 284 tune all 0;
#X obj 522 200 s ac_vol_fade;
#X obj 609 201 s au_vol_fade;
#X obj 616 139 bng 19 250 50 0 empty empty empty 0 -10 0 12 #c6ffc7 #000000 #000000;
#X text 640 140 vol fadeout;
#X text 250 32 audience free play;
#X obj 474 483 r ac_vol_mute;
#X obj 196 484 r au_vol_mute;
#X obj 521 223 s ac_vol_on;
#X obj 608 224 s au_vol_on;
#X obj 616 167 bng 19 250 50 0 empty empty empty 0 -10 0 12 #c6ffc7 #000000 #000000;
#X text 642 161 vol on;
#X text 640 178 random play;
#X obj 771 29 bng 19 250 50 0 empty empty empty 0 -10 0 12 #00ff04 #000000 #000000;
#X obj 772 102 s au_mode;
#X msg 771 80 0;
#X obj 847 102 s ac_mode, f 10;
#X obj 771 125 s ac_vol_on;
#X obj 771 56 t b b b;
#X msg 843 78 1;
#X text 794 30 Audition free play;
#X text 794 145 Audition song play;
#X obj 815 238 s ac_mode, f 10;
#X msg 873 175 4;
#X obj 817 214 s ac_vol_on;
#X obj 771 146 tgl 19 0 empty empty empty 0 -10 0 12 #00ff04 #000000 #000000 0 1;
#X obj 766 175 sel 1;
#X obj 809 176 t b b b;
#X msg 764 261 play 2 1;
#X msg 764 284 play 4 1;
#X obj 763 334 s controller_message;
#N canvas 353 378 450 300 repeater 0;
#X obj 142 46 inlet message;
#X obj 168 106 list;
#X obj 153 246 outlet message;
#X obj 142 72 t a a b;
#X obj 222 104 del 10;
#X obj 167 133 list trim;
#X connect 0 0 3 0;
#X connect 1 0 5 0;
#X connect 3 0 2 0;
#X connect 3 1 1 1;
#X connect 3 2 4 0;
#X connect 4 0 1 0;
#X connect 5 0 2 0;
#X restore 763 309 pd repeater;
#X obj 764 237 t b b;
#X obj 903 214 sel 0;
#X obj 895 307 s ac_mode, f 10;
#X obj 900 236 t b b b;
#X obj 896 259 del 50;
#X msg 896 283 1;
#X msg 946 258 play 2 0;
#X msg 946 281 play 4 0;
#X msg 26 440 volume audience \$1;
#X obj 529 140 sel 1;
#X msg 41 236 mode actor \$1;
#X obj 764 214 del 100;
#X msg 281 557 inst 2 \$1;
#X text 975 29 voting;
#X obj 1049 180 s controller_message;
#N canvas 353 378 450 300 repeater 0;
#X obj 142 46 inlet message;
#X obj 168 106 list;
#X obj 153 246 outlet message;
#X obj 142 72 t a a b;
#X obj 222 104 del 10;
#X obj 167 133 list trim;
#X connect 0 0 3 0;
#X connect 1 0 5 0;
#X connect 3 0 2 0;
#X connect 3 1 1 1;
#X connect 3 2 4 0;
#X connect 4 0 1 0;
#X connect 5 0 2 0;
#X restore 1049 155 pd repeater;
#X obj 950 106 s au_vol_on;
#X msg 1039 106 tune all 1;
#X obj 950 79 t b b b b;
#X obj 1059 80 s au_mode;
#X msg 1027 81 1;
#X obj 1164 80 s ac_mode, f 10;
#X msg 1131 80 0;
#X obj 951 136 tgl 19 0 empty empty empty 0 -10 0 12 #00ff04 #000000 #000000 0 1;
#X text 976 134 tone A;
#X msg 1122 105 tune all 0;
#X msg 951 161 tuneA all \$1;
#X obj 950 28 tgl 19 0 empty empty empty 0 -10 0 12 #00ff04 #000000 #000000 0 1;
#X obj 951 56 sel 1 0;
#X obj 1159 129 s au_mode;
#X msg 1127 130 0;
#X obj 1068 132 del 100;
#X obj 766 364 tgl 15 0 empty empty empty 17 7 0 10 #ff8300 #000000 #000000 0 1;
#X msg 617 407 3300;
#X msg 757 516 startPoint all \$1;
#X text 617 362 play song sequene;
#X obj 848 462 s au_mode;
#X obj 849 484 s ac_mode, f 10;
#X msg 850 440 2;
#X text 689 407 begin;
#X text 689 432 tat14;
#X text 616 382 choose start point;
#X obj 757 565 s controller_message;
#N canvas 353 378 450 300 repeater 0;
#X obj 142 46 inlet message;
#X obj 168 106 list;
#X obj 153 246 outlet message;
#X obj 142 72 t a a b;
#X obj 222 104 del 10;
#X obj 167 133 list trim;
#X connect 0 0 3 0;
#X connect 1 0 5 0;
#X connect 3 0 2 0;
#X connect 3 1 1 1;
#X connect 3 2 4 0;
#X connect 4 0 1 0;
#X connect 5 0 2 0;
#X restore 757 540 pd repeater;
#X obj 912 439 s au_vol_on;
#X text 791 362 play/stop all;
#X obj 614 503 tgl 15 0 empty empty empty 17 7 0 10 #ff8300 #000000 #000000 0 1;
#X text 635 499 play/stop ator;
#X msg 369 558 inst 4 \$1;
#N canvas 353 378 450 300 repeater 0;
#X obj 142 46 inlet message;
#X obj 168 106 list;
#X obj 153 246 outlet message;
#X obj 142 72 t a a b;
#X obj 222 104 del 10;
#X obj 167 133 list trim;
#X connect 0 0 3 0;
#X connect 1 0 5 0;
#X connect 3 0 2 0;
#X connect 3 1 1 1;
#X connect 3 2 4 0;
#X connect 4 0 1 0;
#X connect 5 0 2 0;
#X restore 444 558 pd repeater;
#X obj 913 417 s ac_vol_on;
#X obj 767 391 sel 1 0;
#X obj 926 484 s au_mode;
#X msg 877 439 1;
#X obj 925 463 s ac_mode;
#X obj 766 417 t b b b;
#X msg 764 461 play all 1;
#X obj 834 394 t b b;
#X msg 878 393 play all 0;
#X obj 833 418 del 300;
#X obj 650 570 s ac_vol_on;
#X obj 614 548 t b b b;
#X obj 617 596 s ac_mode, f 10;
#X msg 616 572 2;
#X obj 615 523 sel 1 0;
#X obj 673 620 t b b b;
#X msg 613 644 play actor 1;
#X msg 759 615 play actor 0;
#X obj 759 590 s au_mode;
#X msg 700 596 0;
#X text 445 259 random;
#X obj 911 515 tgl 15 0 empty empty empty 17 7 0 10 #ff8300 #000000 #000000 0 1;
#X obj 944 582 s ac_vol_on;
#X obj 912 560 t b b b;
#X obj 911 608 s ac_mode, f 10;
#X msg 910 584 2;
#X obj 966 562 sel 1 0;
#X obj 967 632 t b b b;
#X obj 1025 607 s au_mode;
#X msg 994 608 0;
#X text 929 511 play/stop cello;
#X msg 907 656 play 2 1;
#X msg 1023 632 play 2 0;
#X obj 912 537 tgl 15 0 empty empty empty 17 7 0 10 #ff8300 #000000 #000000 0 1;
#X text 930 533 play/stop 1st geiger;
#X obj 1132 619 s ac_vol_on;
#X obj 1100 597 t b b b;
#X obj 1099 645 s ac_mode, f 10;
#X msg 1098 621 2;
#X obj 1096 668 del 100;
#X obj 1098 572 sel 1 0;
#X obj 1155 669 t b b b;
#X obj 1214 676 s au_mode;
#X msg 1182 645 0;
#X msg 1095 693 play 1 1;
#X msg 1212 701 play 1 0;
#X obj 614 619 del 50;
#X obj 765 438 del 50;
#X obj 908 631 del 50;
#X obj 759 638 s au_mode;
#X msg 710 644 1;
#X obj 943 684 s au_mode;
#X msg 912 685 1;
#X obj 1251 645 s au_mode;
#X msg 1220 646 1;
#X text 1027 31 dont forget to turn off;
#X obj 664 407 bng 19 250 50 0 empty empty empty 0 -10 0 12 #ff8300 #000000 #000000;
#X obj 664 430 bng 19 250 50 0 empty empty empty 0 -10 0 12 #ff8300 #000000 #000000;
#X obj 423 617 bng 19 250 50 0 empty empty empty 0 -10 0 12 #faff00 #000000 #000000;
#X text 281 512 cello;
#X text 373 513 audition cello;
#X obj 1016 457 bng 19 250 50 0 empty empty empty 0 -10 0 12 #ff8300 #000000 #000000;
#X obj 1016 486 s ac_vol_fade;
#X obj 1118 487 s au_vol_fade;
#X text 1038 456 END all fade out;
#X obj 1119 543 s au_mode;
#X msg 1088 544 0;
#X obj 1189 545 s ac_mode;
#X obj 1112 521 del 5000;
#X msg 617 432 53600;
#X obj 1023 211 bng 19 250 50 0 empty empty empty 0 -10 0 12 #00faff #000000 #000000;
#X text 1047 213 Try Mode3;
#X obj 1056 264 s au_mode;
#X obj 1130 264 s ac_mode, f 10;
#X msg 1024 265 3;
#X obj 1023 238 t b b;
#X obj 1066 239 s ac_vol_on;
#X obj 1149 240 s au_vol_on;
#X obj 1023 426 s controller_message;
#N canvas 353 378 450 300 repeater 0;
#X obj 142 46 inlet message;
#X obj 168 106 list;
#X obj 153 246 outlet message;
#X obj 142 72 t a a b;
#X obj 222 104 del 10;
#X obj 167 133 list trim;
#X connect 0 0 3 0;
#X connect 1 0 5 0;
#X connect 3 0 2 0;
#X connect 3 1 1 1;
#X connect 3 2 4 0;
#X connect 4 0 1 0;
#X connect 5 0 2 0;
#X restore 1023 401 pd repeater;
#X obj 1022 293 tgl 19 0 empty empty empty 0 -10 0 12 #00faff #000000 #000000 0 1;
#X msg 1023 329 play all \$1;
#X text 1048 291 loop play on/off;
#X text 1050 310 only ID 1 \, 2 \, 4 can input loop;
#X obj 1023 359 tgl 19 0 empty empty empty 0 -10 0 12 #00faff #000000 #000000 0 1;
#X msg 1024 380 jam all \$1;
#X text 1048 358 start Jam!;
#X msg 1130 383 resetD all bang;
#X obj 1129 336 bng 19 250 50 0 empty empty empty 0 -10 0 12 #00faff #000000 #000000;
#X text 1151 338 reset Loop;
#X text 130 119 mode audience;
#X text 139 210 mode ator;
#X obj 1183 419 bng 19 250 50 0 empty empty empty 0 -10 0 12 #00faff #000000 #000000;
#X obj 1183 448 s ac_vol_fade;
#X obj 1285 449 s au_vol_fade;
#X text 1205 418 END all fade out;
#X msg 484 513 inst 13 3;
#X msg 483 535 inst 14 3;
#X connect 0 0 15 0;
#X connect 0 0 34 0;
#X connect 1 0 145 0;
#X connect 2 0 3 0;
#X connect 2 1 4 0;
#X connect 5 0 13 0;
#X connect 6 0 149 0;
#X connect 7 0 185 0;
#X connect 8 0 39 0;
#X connect 13 0 186 0;
#X connect 16 0 10 0;
#X connect 19 0 29 0;
#X connect 20 0 17 0;
#X connect 21 0 18 0;
#X connect 23 0 24 0;
#X connect 23 0 29 1;
#X connect 24 0 26 1;
#X connect 25 0 26 0;
#X connect 26 0 28 0;
#X connect 27 0 23 0;
#X connect 28 0 11 0;
#X connect 29 0 2 0;
#X connect 33 0 12 0;
#X connect 34 0 33 0;
#X connect 35 0 36 0;
#X connect 35 0 147 0;
#X connect 39 0 1 0;
#X connect 40 0 1 0;
#X connect 41 0 40 0;
#X connect 43 0 40 1;
#X connect 45 0 40 2;
#X connect 48 0 58 0;
#X connect 49 0 50 0;
#X connect 50 0 48 0;
#X connect 51 0 48 0;
#X connect 52 0 51 0;
#X connect 54 0 51 1;
#X connect 56 0 51 2;
#X connect 58 0 38 0;
#X connect 60 0 0 0;
#X connect 61 0 35 0;
#X connect 63 0 64 0;
#X connect 63 0 66 0;
#X connect 63 0 67 0;
#X connect 64 0 62 0;
#X connect 64 0 65 0;
#X connect 68 0 45 0;
#X connect 69 0 56 0;
#X connect 70 0 72 0;
#X connect 70 0 73 0;
#X connect 74 0 52 0;
#X connect 75 0 41 0;
#X connect 76 0 80 0;
#X connect 79 0 33 0;
#X connect 80 0 79 0;
#X connect 80 1 78 0;
#X connect 80 2 77 0;
#X connect 80 3 82 0;
#X connect 82 0 81 0;
#X connect 82 0 83 0;
#X connect 84 0 33 0;
#X connect 85 0 33 0;
#X connect 86 0 84 0;
#X connect 87 0 85 0;
#X connect 92 0 98 0;
#X connect 94 0 93 0;
#X connect 94 0 95 0;
#X connect 98 0 97 0;
#X connect 98 0 96 0;
#X connect 98 1 94 0;
#X connect 99 0 101 0;
#X connect 99 0 146 0;
#X connect 101 0 103 0;
#X connect 103 0 102 0;
#X connect 104 0 105 0;
#X connect 105 0 33 0;
#X connect 108 0 106 0;
#X connect 108 0 107 0;
#X connect 111 0 54 0;
#X connect 112 0 43 0;
#X connect 115 0 113 0;
#X connect 115 0 114 0;
#X connect 118 0 123 0;
#X connect 120 0 119 0;
#X connect 123 0 120 0;
#X connect 123 1 122 0;
#X connect 123 2 124 0;
#X connect 124 0 121 0;
#X connect 128 0 127 0;
#X connect 130 0 131 0;
#X connect 130 0 138 0;
#X connect 131 0 132 0;
#X connect 132 0 148 0;
#X connect 132 1 129 0;
#X connect 132 2 128 0;
#X connect 133 0 136 0;
#X connect 134 0 136 0;
#X connect 136 0 135 0;
#X connect 137 0 133 0;
#X connect 137 1 134 0;
#X connect 138 0 140 0;
#X connect 140 0 141 0;
#X connect 140 1 144 0;
#X connect 140 2 143 0;
#X connect 141 0 142 0;
#X connect 142 0 139 0;
#X connect 143 0 136 0;
#X connect 144 0 136 0;
#X connect 145 0 38 0;
#X connect 146 0 115 0;
#X connect 147 0 33 0;
#X connect 148 0 137 0;
#X connect 149 0 186 0;
#X connect 152 0 151 0;
#X connect 154 0 152 0;
#X connect 155 0 154 0;
#X connect 155 2 153 0;
#X connect 155 3 157 0;
#X connect 155 3 159 0;
#X connect 157 0 156 0;
#X connect 159 0 158 0;
#X connect 160 0 163 0;
#X connect 162 0 152 0;
#X connect 163 0 152 0;
#X connect 164 0 165 0;
#X connect 165 0 155 0;
#X connect 165 1 162 0;
#X connect 165 1 168 0;
#X connect 167 0 166 0;
#X connect 168 0 167 0;
#X connect 169 0 188 0;
#X connect 170 0 171 0;
#X connect 171 0 180 0;
#X connect 175 0 173 0;
#X connect 175 0 174 0;
#X connect 180 0 179 0;
#X connect 183 0 201 0;
#X connect 185 0 186 0;
#X connect 186 0 14 0;
#X connect 188 0 192 0;
#X connect 188 1 194 0;
#X connect 190 0 191 0;
#X connect 190 0 189 0;
#X connect 192 0 234 0;
#X connect 192 1 175 0;
#X connect 192 2 187 0;
#X connect 192 2 181 0;
#X connect 193 0 180 0;
#X connect 194 0 196 0;
#X connect 194 1 195 0;
#X connect 195 0 180 0;
#X connect 196 0 190 0;
#X connect 198 0 233 0;
#X connect 198 1 200 0;
#X connect 198 2 197 0;
#X connect 198 2 206 0;
#X connect 200 0 199 0;
#X connect 201 0 198 0;
#X connect 201 1 202 0;
#X connect 202 1 237 0;
#X connect 202 2 204 0;
#X connect 203 0 180 0;
#X connect 204 0 180 0;
#X connect 206 0 205 0;
#X connect 208 0 213 0;
#X connect 210 0 235 0;
#X connect 210 1 212 0;
#X connect 210 2 209 0;
#X connect 210 2 216 0;
#X connect 212 0 211 0;
#X connect 213 0 210 0;
#X connect 213 1 214 0;
#X connect 214 1 239 0;
#X connect 214 2 219 0;
#X connect 216 0 215 0;
#X connect 218 0 180 0;
#X connect 219 0 180 0;
#X connect 220 0 227 0;
#X connect 223 0 226 0;
#X connect 223 1 225 0;
#X connect 223 2 222 0;
#X connect 223 2 230 0;
#X connect 225 0 224 0;
#X connect 226 0 231 0;
#X connect 227 0 223 0;
#X connect 227 1 228 0;
#X connect 228 1 241 0;
#X connect 228 2 232 0;
#X connect 230 0 229 0;
#X connect 231 0 180 0;
#X connect 232 0 180 0;
#X connect 233 0 203 0;
#X connect 234 0 193 0;
#X connect 235 0 218 0;
#X connect 237 0 236 0;
#X connect 239 0 238 0;
#X connect 241 0 240 0;
#X connect 243 0 170 0;
#X connect 244 0 256 0;
#X connect 245 0 16 0;
#X connect 248 0 249 0;
#X connect 248 0 250 0;
#X connect 248 0 255 0;
#X connect 253 0 252 0;
#X connect 253 0 254 0;
#X connect 255 0 253 0;
#X connect 256 0 171 0;
#X connect 257 0 262 0;
#X connect 261 0 259 0;
#X connect 261 0 260 0;
#X connect 262 0 263 0;
#X connect 262 0 264 0;
#X connect 262 1 261 0;
#X connect 266 0 265 0;
#X connect 267 0 268 0;
#X connect 268 0 266 0;
#X connect 271 0 272 0;
#X connect 272 0 266 0;
#X connect 274 0 266 0;
#X connect 275 0 274 0;
#X connect 279 0 280 0;
#X connect 279 0 281 0;
#X connect 283 0 186 0;
#X connect 284 0 186 0;
