#N canvas 340 49 596 520 12;
#X obj 41 52 bng 19 250 50 0 empty empty empty 0 -10 0 12 #fcfcfc #000000 #000000;
#X msg 260 169 close;
#X obj 70 208 zmq;
#X msg 116 103 socket subscribe;
#X obj 70 77 t b b b;
#X msg 69 154 subscribe sensor;
#X obj 118 49 loadbang;
#X obj 70 49 inlet;
#X msg 366 169 subscribe controller;
#X obj 70 289 s sensor_message;
#X obj 211 219 print received;
#X obj 471 373 print INFO;
#X obj 243 380 print IP;
#X text 288 332 id: 1 .. 80;
#X msg 50 179 subscribe info;
#X msg 93 129 connect tcp://192.168.0.100:5555;
#X obj 374 455 outlet;
#X obj 70 260 route sensor info;
#X obj 243 307 route ip ping ImHere;
#X obj 288 355 s idping;
#X connect 0 0 4 0;
#X connect 1 0 2 0;
#X connect 2 0 17 0;
#X connect 3 0 2 0;
#X connect 4 0 5 0;
#X connect 4 0 14 0;
#X connect 4 1 15 0;
#X connect 4 2 3 0;
#X connect 5 0 2 0;
#X connect 6 0 4 0;
#X connect 7 0 4 0;
#X connect 8 0 2 0;
#X connect 14 0 2 0;
#X connect 15 0 2 0;
#X connect 17 0 9 0;
#X connect 17 1 18 0;
#X connect 18 0 12 0;
#X connect 18 1 19 0;
#X connect 18 2 16 0;
#X connect 18 3 11 0;
