#N canvas 180 68 541 704 12;
#X obj 41 52 bng 19 250 50 0 empty empty empty 0 -10 0 12 #fcfcfc #000000 #000000;
#X msg 260 169 close;
#X obj 70 208 zmq;
#X msg 116 103 socket subscribe;
#X obj 70 77 t b b b;
#X msg 69 154 subscribe sensor;
#X obj 118 49 loadbang;
#X msg 93 129 connect tcp://192.168.0.100:5555;
#X obj 70 49 inlet;
#X msg 366 169 subscribe controller;
#X obj 70 289 s sensor_message;
#X obj 213 242 print received;
#X obj 70 260 route sensor info;
#X obj 377 303 print INFO;
#X obj 243 307 route ip ping;
#X obj 243 380 print IP;
#X text 288 332 id: 1 .. 80;
#N canvas 183 25 1011 747 ping 0;
#X obj 27 14 inlet;
#X obj 106 35 sel 1 2 3 4 5 6 7 8 9 10, f 33;
#X obj 353 34 - 10;
#X obj 109 130 tgl 19 0 empty empty empty 0 -10 0 12 #fcfcfc #000000 #000000 0 1;
#X obj 106 67 wd10, f 30;
#X obj 132 130 tgl 19 0 empty empty empty 0 -10 0 12 #fcfcfc #000000 #000000 0 1;
#X obj 155 130 tgl 19 0 empty empty empty 0 -10 0 12 #fcfcfc #000000 #000000 0 1;
#X obj 178 130 tgl 19 0 empty empty empty 0 -10 0 12 #fcfcfc #000000 #000000 0 1;
#X obj 201 130 tgl 19 0 empty empty empty 0 -10 0 12 #fcfcfc #000000 #000000 0 1;
#X obj 224 130 tgl 19 0 empty empty empty 0 -10 0 12 #fcfcfc #000000 #000000 0 1;
#X obj 247 130 tgl 19 0 empty empty empty 0 -10 0 12 #fcfcfc #000000 #000000 0 1;
#X obj 270 130 tgl 19 0 empty empty empty 0 -10 0 12 #fcfcfc #000000 #000000 0 1;
#X obj 293 130 tgl 19 0 empty empty empty 0 -10 0 12 #fcfcfc #000000 #000000 0 1;
#X obj 316 130 tgl 19 0 empty empty empty 0 -10 0 12 #fcfcfc #000000 #000000 0 1;
#X text 343 129 1 .. 10;
#X obj 616 40 sel 1 2 3 4 5 6 7 8 9 10, f 33;
#X obj 863 39 - 10;
#X obj 109 159 tgl 19 0 empty empty empty 0 -10 0 12 #fcfcfc #000000 #000000 0 1;
#X obj 616 72 wd10, f 30;
#X obj 132 159 tgl 19 0 empty empty empty 0 -10 0 12 #fcfcfc #000000 #000000 0 1;
#X obj 155 159 tgl 19 0 empty empty empty 0 -10 0 12 #fcfcfc #000000 #000000 0 1;
#X obj 178 159 tgl 19 0 empty empty empty 0 -10 0 12 #fcfcfc #000000 #000000 0 1;
#X obj 201 159 tgl 19 0 empty empty empty 0 -10 0 12 #fcfcfc #000000 #000000 0 1;
#X obj 224 159 tgl 19 0 empty empty empty 0 -10 0 12 #fcfcfc #000000 #000000 0 1;
#X obj 247 159 tgl 19 0 empty empty empty 0 -10 0 12 #fcfcfc #000000 #000000 0 1;
#X obj 270 159 tgl 19 0 empty empty empty 0 -10 0 12 #fcfcfc #000000 #000000 0 1;
#X obj 293 159 tgl 19 0 empty empty empty 0 -10 0 12 #fcfcfc #000000 #000000 0 1;
#X obj 316 159 tgl 19 0 empty empty empty 0 -10 0 12 #fcfcfc #000000 #000000 0 1;
#X text 343 158 11 .. 20;
#X obj 630 172 sel 1 2 3 4 5 6 7 8 9 10, f 33;
#X obj 877 171 - 10;
#X obj 109 188 tgl 19 0 empty empty empty 0 -10 0 12 #fcfcfc #000000 #000000 0 1;
#X obj 630 204 wd10, f 30;
#X obj 132 188 tgl 19 0 empty empty empty 0 -10 0 12 #fcfcfc #000000 #000000 0 1;
#X obj 155 188 tgl 19 0 empty empty empty 0 -10 0 12 #fcfcfc #000000 #000000 0 1;
#X obj 178 188 tgl 19 0 empty empty empty 0 -10 0 12 #fcfcfc #000000 #000000 0 1;
#X obj 201 188 tgl 19 0 empty empty empty 0 -10 0 12 #fcfcfc #000000 #000000 0 1;
#X obj 224 188 tgl 19 0 empty empty empty 0 -10 0 12 #fcfcfc #000000 #000000 0 1;
#X obj 247 188 tgl 19 0 empty empty empty 0 -10 0 12 #fcfcfc #000000 #000000 0 1;
#X obj 270 188 tgl 19 0 empty empty empty 0 -10 0 12 #fcfcfc #000000 #000000 0 1;
#X obj 293 188 tgl 19 0 empty empty empty 0 -10 0 12 #fcfcfc #000000 #000000 0 1;
#X obj 316 188 tgl 19 0 empty empty empty 0 -10 0 12 #fcfcfc #000000 #000000 0 1;
#X obj 607 255 sel 1 2 3 4 5 6 7 8 9 10, f 33;
#X obj 854 254 - 10;
#X obj 109 217 tgl 19 0 empty empty empty 0 -10 0 12 #fcfcfc #000000 #000000 0 1;
#X obj 607 287 wd10, f 30;
#X obj 132 217 tgl 19 0 empty empty empty 0 -10 0 12 #fcfcfc #000000 #000000 0 1;
#X obj 155 217 tgl 19 0 empty empty empty 0 -10 0 12 #fcfcfc #000000 #000000 0 1;
#X obj 178 217 tgl 19 0 empty empty empty 0 -10 0 12 #fcfcfc #000000 #000000 0 1;
#X obj 201 217 tgl 19 0 empty empty empty 0 -10 0 12 #fcfcfc #000000 #000000 0 1;
#X obj 224 217 tgl 19 0 empty empty empty 0 -10 0 12 #fcfcfc #000000 #000000 0 1;
#X obj 247 217 tgl 19 0 empty empty empty 0 -10 0 12 #fcfcfc #000000 #000000 0 1;
#X obj 270 217 tgl 19 0 empty empty empty 0 -10 0 12 #fcfcfc #000000 #000000 0 1;
#X obj 293 217 tgl 19 0 empty empty empty 0 -10 0 12 #fcfcfc #000000 #000000 0 1;
#X obj 316 217 tgl 19 0 empty empty empty 0 -10 0 12 #fcfcfc #000000 #000000 0 1;
#X text 343 187 21 .. 30;
#X text 343 216 31 .. 40;
#X obj 607 357 sel 1 2 3 4 5 6 7 8 9 10, f 33;
#X obj 854 356 - 10;
#X obj 109 246 tgl 19 0 empty empty empty 0 -10 0 12 #fcfcfc #000000 #000000 0 1;
#X obj 607 389 wd10, f 30;
#X obj 132 246 tgl 19 0 empty empty empty 0 -10 0 12 #fcfcfc #000000 #000000 0 1;
#X obj 155 246 tgl 19 0 empty empty empty 0 -10 0 12 #fcfcfc #000000 #000000 0 1;
#X obj 178 246 tgl 19 0 empty empty empty 0 -10 0 12 #fcfcfc #000000 #000000 0 1;
#X obj 201 246 tgl 19 0 empty empty empty 0 -10 0 12 #fcfcfc #000000 #000000 0 1;
#X obj 224 246 tgl 19 0 empty empty empty 0 -10 0 12 #fcfcfc #000000 #000000 0 1;
#X obj 247 246 tgl 19 0 empty empty empty 0 -10 0 12 #fcfcfc #000000 #000000 0 1;
#X obj 270 246 tgl 19 0 empty empty empty 0 -10 0 12 #fcfcfc #000000 #000000 0 1;
#X obj 293 246 tgl 19 0 empty empty empty 0 -10 0 12 #fcfcfc #000000 #000000 0 1;
#X obj 316 246 tgl 19 0 empty empty empty 0 -10 0 12 #fcfcfc #000000 #000000 0 1;
#X obj 606 454 sel 1 2 3 4 5 6 7 8 9 10, f 33;
#X obj 853 453 - 10;
#X obj 109 275 tgl 19 0 empty empty empty 0 -10 0 12 #fcfcfc #000000 #000000 0 1;
#X obj 606 486 wd10, f 30;
#X obj 132 275 tgl 19 0 empty empty empty 0 -10 0 12 #fcfcfc #000000 #000000 0 1;
#X obj 155 275 tgl 19 0 empty empty empty 0 -10 0 12 #fcfcfc #000000 #000000 0 1;
#X obj 178 275 tgl 19 0 empty empty empty 0 -10 0 12 #fcfcfc #000000 #000000 0 1;
#X obj 201 275 tgl 19 0 empty empty empty 0 -10 0 12 #fcfcfc #000000 #000000 0 1;
#X obj 224 275 tgl 19 0 empty empty empty 0 -10 0 12 #fcfcfc #000000 #000000 0 1;
#X obj 247 275 tgl 19 0 empty empty empty 0 -10 0 12 #fcfcfc #000000 #000000 0 1;
#X obj 270 275 tgl 19 0 empty empty empty 0 -10 0 12 #fcfcfc #000000 #000000 0 1;
#X obj 293 275 tgl 19 0 empty empty empty 0 -10 0 12 #fcfcfc #000000 #000000 0 1;
#X obj 316 275 tgl 19 0 empty empty empty 0 -10 0 12 #fcfcfc #000000 #000000 0 1;
#X obj 601 552 sel 1 2 3 4 5 6 7 8 9 10, f 33;
#X obj 848 551 - 10;
#X obj 109 304 tgl 19 0 empty empty empty 0 -10 0 12 #fcfcfc #000000 #000000 0 1;
#X obj 601 584 wd10, f 30;
#X obj 132 304 tgl 19 0 empty empty empty 0 -10 0 12 #fcfcfc #000000 #000000 0 1;
#X obj 155 304 tgl 19 0 empty empty empty 0 -10 0 12 #fcfcfc #000000 #000000 0 1;
#X obj 178 304 tgl 19 0 empty empty empty 0 -10 0 12 #fcfcfc #000000 #000000 0 1;
#X obj 201 304 tgl 19 0 empty empty empty 0 -10 0 12 #fcfcfc #000000 #000000 0 1;
#X obj 224 304 tgl 19 0 empty empty empty 0 -10 0 12 #fcfcfc #000000 #000000 0 1;
#X obj 247 304 tgl 19 0 empty empty empty 0 -10 0 12 #fcfcfc #000000 #000000 0 1;
#X obj 270 304 tgl 19 0 empty empty empty 0 -10 0 12 #fcfcfc #000000 #000000 0 1;
#X obj 293 304 tgl 19 0 empty empty empty 0 -10 0 12 #fcfcfc #000000 #000000 0 1;
#X obj 316 304 tgl 19 0 empty empty empty 0 -10 0 12 #fcfcfc #000000 #000000 0 1;
#X obj 600 649 sel 1 2 3 4 5 6 7 8 9 10, f 33;
#X obj 921 653 - 10;
#X obj 109 333 tgl 19 0 empty empty empty 0 -10 0 12 #fcfcfc #000000 #000000 0 1;
#X obj 600 681 wd10, f 30;
#X obj 132 333 tgl 19 0 empty empty empty 0 -10 0 12 #fcfcfc #000000 #000000 0 1;
#X obj 155 333 tgl 19 0 empty empty empty 0 -10 0 12 #fcfcfc #000000 #000000 0 1;
#X obj 178 333 tgl 19 0 empty empty empty 0 -10 0 12 #fcfcfc #000000 #000000 0 1;
#X obj 201 333 tgl 19 0 empty empty empty 0 -10 0 12 #fcfcfc #000000 #000000 0 1;
#X obj 224 333 tgl 19 0 empty empty empty 0 -10 0 12 #fcfcfc #000000 #000000 0 1;
#X obj 247 333 tgl 19 0 empty empty empty 0 -10 0 12 #fcfcfc #000000 #000000 0 1;
#X obj 270 333 tgl 19 0 empty empty empty 0 -10 0 12 #fcfcfc #000000 #000000 0 1;
#X obj 293 333 tgl 19 0 empty empty empty 0 -10 0 12 #fcfcfc #000000 #000000 0 1;
#X obj 316 333 tgl 19 0 empty empty empty 0 -10 0 12 #fcfcfc #000000 #000000 0 1;
#X text 343 245 41 .. 50;
#X text 343 274 51 .. 60;
#X text 343 303 61 .. 70;
#X text 343 332 71 .. 80;
#X obj 27 42 i;
#X connect 0 0 113 0;
#X connect 1 0 4 0;
#X connect 1 1 4 1;
#X connect 1 2 4 2;
#X connect 1 3 4 3;
#X connect 1 4 4 4;
#X connect 1 5 4 5;
#X connect 1 6 4 6;
#X connect 1 7 4 7;
#X connect 1 8 4 8;
#X connect 1 9 4 9;
#X connect 1 10 2 0;
#X connect 2 0 15 0;
#X connect 4 0 3 0;
#X connect 4 1 5 0;
#X connect 4 2 6 0;
#X connect 4 3 7 0;
#X connect 4 4 8 0;
#X connect 4 5 9 0;
#X connect 4 6 10 0;
#X connect 4 7 11 0;
#X connect 4 8 12 0;
#X connect 4 9 13 0;
#X connect 15 0 18 0;
#X connect 15 1 18 1;
#X connect 15 2 18 2;
#X connect 15 3 18 3;
#X connect 15 4 18 4;
#X connect 15 5 18 5;
#X connect 15 6 18 6;
#X connect 15 7 18 7;
#X connect 15 8 18 8;
#X connect 15 9 18 9;
#X connect 15 10 16 0;
#X connect 16 0 29 0;
#X connect 18 0 17 0;
#X connect 18 1 19 0;
#X connect 18 2 20 0;
#X connect 18 3 21 0;
#X connect 18 4 22 0;
#X connect 18 5 23 0;
#X connect 18 6 24 0;
#X connect 18 7 25 0;
#X connect 18 8 26 0;
#X connect 18 9 27 0;
#X connect 29 0 32 0;
#X connect 29 1 32 1;
#X connect 29 2 32 2;
#X connect 29 3 32 3;
#X connect 29 4 32 4;
#X connect 29 5 32 5;
#X connect 29 6 32 6;
#X connect 29 7 32 7;
#X connect 29 8 32 8;
#X connect 29 9 32 9;
#X connect 29 10 30 0;
#X connect 30 0 42 0;
#X connect 32 0 31 0;
#X connect 32 1 33 0;
#X connect 32 2 34 0;
#X connect 32 3 35 0;
#X connect 32 4 36 0;
#X connect 32 5 37 0;
#X connect 32 6 38 0;
#X connect 32 7 39 0;
#X connect 32 8 40 0;
#X connect 32 9 41 0;
#X connect 42 0 45 0;
#X connect 42 1 45 1;
#X connect 42 2 45 2;
#X connect 42 3 45 3;
#X connect 42 4 45 4;
#X connect 42 5 45 5;
#X connect 42 6 45 6;
#X connect 42 7 45 7;
#X connect 42 8 45 8;
#X connect 42 9 45 9;
#X connect 42 10 43 0;
#X connect 43 0 57 0;
#X connect 45 0 44 0;
#X connect 45 1 46 0;
#X connect 45 2 47 0;
#X connect 45 3 48 0;
#X connect 45 4 49 0;
#X connect 45 5 50 0;
#X connect 45 6 51 0;
#X connect 45 7 52 0;
#X connect 45 8 53 0;
#X connect 45 9 54 0;
#X connect 57 0 60 0;
#X connect 57 1 60 1;
#X connect 57 2 60 2;
#X connect 57 3 60 3;
#X connect 57 4 60 4;
#X connect 57 5 60 5;
#X connect 57 6 60 6;
#X connect 57 7 60 7;
#X connect 57 8 60 8;
#X connect 57 9 60 9;
#X connect 57 10 58 0;
#X connect 58 0 70 0;
#X connect 60 0 59 0;
#X connect 60 1 61 0;
#X connect 60 2 62 0;
#X connect 60 3 63 0;
#X connect 60 4 64 0;
#X connect 60 5 65 0;
#X connect 60 6 66 0;
#X connect 60 7 67 0;
#X connect 60 8 68 0;
#X connect 60 9 69 0;
#X connect 70 0 73 0;
#X connect 70 1 73 1;
#X connect 70 2 73 2;
#X connect 70 3 73 3;
#X connect 70 4 73 4;
#X connect 70 5 73 5;
#X connect 70 6 73 6;
#X connect 70 7 73 7;
#X connect 70 8 73 8;
#X connect 70 9 73 9;
#X connect 70 10 71 0;
#X connect 71 0 83 0;
#X connect 73 0 72 0;
#X connect 73 1 74 0;
#X connect 73 2 75 0;
#X connect 73 3 76 0;
#X connect 73 4 77 0;
#X connect 73 5 78 0;
#X connect 73 6 79 0;
#X connect 73 7 80 0;
#X connect 73 8 81 0;
#X connect 73 9 82 0;
#X connect 83 0 86 0;
#X connect 83 1 86 1;
#X connect 83 2 86 2;
#X connect 83 3 86 3;
#X connect 83 4 86 4;
#X connect 83 5 86 5;
#X connect 83 6 86 6;
#X connect 83 7 86 7;
#X connect 83 8 86 8;
#X connect 83 9 86 9;
#X connect 83 10 84 0;
#X connect 84 0 96 0;
#X connect 86 0 85 0;
#X connect 86 1 87 0;
#X connect 86 2 88 0;
#X connect 86 3 89 0;
#X connect 86 4 90 0;
#X connect 86 5 91 0;
#X connect 86 6 92 0;
#X connect 86 7 93 0;
#X connect 86 8 94 0;
#X connect 86 9 95 0;
#X connect 96 0 99 0;
#X connect 96 1 99 1;
#X connect 96 2 99 2;
#X connect 96 3 99 3;
#X connect 96 4 99 4;
#X connect 96 5 99 5;
#X connect 96 6 99 6;
#X connect 96 7 99 7;
#X connect 96 8 99 8;
#X connect 99 0 98 0;
#X connect 99 1 100 0;
#X connect 99 2 101 0;
#X connect 99 3 102 0;
#X connect 99 4 103 0;
#X connect 99 5 104 0;
#X connect 99 6 105 0;
#X connect 99 7 106 0;
#X connect 99 8 107 0;
#X connect 99 9 108 0;
#X connect 113 0 1 0;
#X coords 0 -1 1 1 330 260 1 100 100;
#X restore 56 405 pd ping;
#X msg 50 179 subscribe info;
#X obj 465 662 outlet;
#X connect 0 0 4 0;
#X connect 1 0 2 0;
#X connect 2 0 12 0;
#X connect 3 0 2 0;
#X connect 4 0 5 0;
#X connect 4 0 18 0;
#X connect 4 1 7 0;
#X connect 4 2 3 0;
#X connect 5 0 2 0;
#X connect 6 0 4 0;
#X connect 7 0 2 0;
#X connect 8 0 4 0;
#X connect 9 0 2 0;
#X connect 12 0 10 0;
#X connect 12 1 14 0;
#X connect 14 0 15 0;
#X connect 14 1 17 0;
#X connect 14 1 19 0;
#X connect 14 2 13 0;
#X connect 18 0 2 0;
