#N canvas 289 23 429 433 12;
#X obj 101 357 zmq;
#X msg 74 124 socket publish;
#X obj 42 96 t b b;
#X obj 164 299 list trim;
#X obj 164 229 list prepend control;
#X obj 164 264 list prepend send;
#X obj 42 67 bng 19 250 50 0 empty empty empty 0 -10 0 12 #fcfcfc #000000 #000000;
#X msg 241 318 close;
#X obj 70 67 loadbang;
#X obj 164 194 r controller_message;
#X obj 137 68 inlet;
#X msg 42 151 connect tcp://192.168.0.100:5556;
#X connect 1 0 0 0;
#X connect 2 0 11 0;
#X connect 2 1 1 0;
#X connect 3 0 0 0;
#X connect 4 0 5 0;
#X connect 5 0 3 0;
#X connect 6 0 2 0;
#X connect 7 0 0 0;
#X connect 8 0 2 0;
#X connect 9 0 4 0;
#X connect 10 0 2 0;
#X connect 11 0 0 0;
