#N canvas 75 53 1225 737 12;
#X obj 114 603 s controller_message;
#X obj 168 36 tgl 19 0 empty empty empty 0 -10 0 12 #fcfcfc #000000 #000000 0 1;
#X obj 436 85 bng 19 250 50 0 empty empty empty 0 -10 0 12 #fcfcfc #000000 #000000;
#X obj 445 175 bng 19 250 50 0 empty empty empty 0 -10 0 12 #fcfcfc #000000 #000000;
#X obj 637 169 bng 19 250 50 0 empty empty empty 0 -10 0 12 #fcfcfc #000000 #000000;
#X obj 273 76 metro 200;
#X obj 862 151 bng 19 250 50 0 empty empty empty 0 -10 0 12 #fcfcfc #000000 #000000;
#X obj 143 79 metro 600;
#X obj 567 59 metro 400;
#X obj 564 27 tgl 19 0 empty empty empty 0 -10 0 12 #fcfcfc #000000 #000000 0 1;
#X obj 800 417 bng 19 250 50 0 empty empty empty 0 -10 0 12 #fcfcfc #000000 #000000;
#X obj 913 403 tgl 19 0 empty empty empty 0 -10 0 12 #fcfcfc #000000 #000000 0 1;
#X obj 910 427 metro 956;
#X obj 394 30 hradio 19 1 0 8 empty empty empty 0 -10 0 12 #fcfcfc #000000 #000000 0;
#X obj 347 97 gate 4 1;
#X obj 215 151 bng 19 250 50 0 empty empty empty 0 -10 0 12 #fcfcfc #000000 #000000;
#X obj 206 210 random 9;
#X obj 205 240 + 15;
#X msg 153 250 24;
#X msg 388 238 24;
#X obj 647 220 counter 24 15;
#X obj 455 226 counter 24 15;
#X obj 872 202 counter 24 15;
#X obj 809 462 counter 24 15;
#X obj 692 511 random 9;
#X obj 695 556 + 15;
#X floatatom 647 244 5 0 0 0 - - - 0;
#X text 558 341 nie;
#X obj 446 135 counter 24 15;
#X obj 804 268 hradio 19 1 0 8 empty empty empty 0 -10 0 12 #fcfcfc #000000 #000000 0;
#X obj 812 295 gate 4 1;
#X msg 391 5 3;
#X msg 803 239 1;
#X text 833 238 nie;
#X text 422 5 nie;
#X obj 114 570 repeater;
#X msg 697 582 \$1 loadfile l028.wav;
#X msg 751 522 \$1 loadfile l026.wav;
#X msg 649 420 \$1 loadfile l001.wav;
#X msg 649 392 \$1 loadfile l002.wav;
#X msg 794 351 \$1 loadfile l016.wav;
#X msg 871 326 \$1 loadfile l001.wav;
#X msg 474 362 \$1 loadfile l019.wav;
#X msg 588 274 \$1 loadfile l018.wav;
#X msg 396 280 \$1 loadfile l017.wav;
#X msg 204 277 \$1 loadfile l0016.wav;
#X connect 1 0 5 0;
#X connect 1 0 7 0;
#X connect 2 0 28 0;
#X connect 3 0 21 0;
#X connect 4 0 20 0;
#X connect 5 0 14 1;
#X connect 6 0 22 0;
#X connect 7 0 22 0;
#X connect 8 0 20 0;
#X connect 9 0 8 0;
#X connect 10 0 23 0;
#X connect 10 0 24 0;
#X connect 11 0 12 0;
#X connect 12 0 23 0;
#X connect 13 0 14 0;
#X connect 13 0 1 0;
#X connect 14 0 21 0;
#X connect 14 1 20 0;
#X connect 14 2 22 0;
#X connect 14 3 16 0;
#X connect 15 0 16 0;
#X connect 16 0 17 0;
#X connect 17 0 45 0;
#X connect 18 0 45 0;
#X connect 19 0 44 0;
#X connect 20 0 43 0;
#X connect 20 0 26 0;
#X connect 21 0 44 0;
#X connect 22 0 30 1;
#X connect 23 0 37 0;
#X connect 24 0 25 0;
#X connect 25 0 36 0;
#X connect 28 0 45 0;
#X connect 29 0 30 0;
#X connect 30 0 42 0;
#X connect 30 1 39 0;
#X connect 30 2 40 0;
#X connect 30 3 41 0;
#X connect 31 0 13 0;
#X connect 32 0 29 0;
#X connect 35 0 0 0;
#X connect 36 0 35 0;
#X connect 37 0 35 0;
#X connect 38 0 35 0;
#X connect 39 0 35 0;
#X connect 40 0 35 0;
#X connect 41 0 35 0;
#X connect 42 0 35 0;
#X connect 43 0 35 0;
#X connect 44 0 35 0;
#X connect 45 0 35 0;
