#N canvas 26 34 1254 744 12;
#X obj 138 974 s controller_message;
#X obj 15 467 s modeall;
#X obj 116 113 tgl 25 0 empty empty dumptype\ on/off 30 12 0 14 #00ff04 #000000 #000000 0 1;
#X obj 16 340 sel 1 0;
#X msg 17 438 4;
#X obj 23 177 t a a;
#X msg 915 530 \$1 loadfile Teilnehmer;
#X obj 136 940 spigot;
#X msg 32 733 1;
#X obj 95 383 sel 1 0;
#X obj 19 792 del 20000;
#X msg 21 816 0;
#N canvas 526 148 754 596 schaffner 0;
#X obj 144 239 random 30;
#X obj 144 265 + 1;
#X obj 143 181 bng 19 250 50 0 empty empty empty 0 -10 0 12 #fcfcfc #000000 #000000;
#X obj 143 213 uzi 6;
#X obj 222 182 bng 19 250 50 0 empty empty empty 0 -10 0 12 #fcfcfc #000000 #000000;
#X obj 223 240 random 14;
#X obj 223 266 + 32;
#X obj 222 214 uzi 6;
#X obj 297 180 bng 19 250 50 0 empty empty empty 0 -10 0 12 #fcfcfc #000000 #000000;
#X obj 297 212 uzi 6;
#X obj 298 238 random 18;
#X obj 298 264 + 50;
#X msg 254 444 \$1 wisper 4 1;
#X obj 401 182 + 1;
#X obj 401 156 random 68;
#X msg 409 94 1;
#X msg 447 98 0;
#X obj 141 546 outlet;
#X obj 403 123 metro 200;
#X obj 163 42 inlet;
#X obj 225 42 inlet;
#X obj 298 41 inlet;
#X msg 221 405 \$1 loadfile schaffner;
#X obj 509 156 random 40;
#X obj 509 180 * 20;
#X obj 506 204 + 200;
#X obj 416 302 del 6000;
#X obj 502 285 del 11000;
#X connect 0 0 1 0;
#X connect 1 0 22 0;
#X connect 2 0 3 0;
#X connect 2 0 26 0;
#X connect 3 0 0 0;
#X connect 4 0 7 0;
#X connect 4 0 26 0;
#X connect 5 0 6 0;
#X connect 6 0 22 0;
#X connect 7 0 5 0;
#X connect 8 0 9 0;
#X connect 8 0 26 0;
#X connect 9 0 10 0;
#X connect 10 0 11 0;
#X connect 11 0 22 0;
#X connect 12 0 17 0;
#X connect 13 0 12 0;
#X connect 14 0 13 0;
#X connect 15 0 18 0;
#X connect 16 0 18 0;
#X connect 18 0 14 0;
#X connect 18 0 23 0;
#X connect 19 0 2 0;
#X connect 20 0 4 0;
#X connect 21 0 8 0;
#X connect 22 0 17 0;
#X connect 23 0 24 0;
#X connect 24 0 25 0;
#X connect 25 0 18 1;
#X connect 26 0 15 0;
#X connect 26 0 27 0;
#X connect 27 0 16 0;
#X restore 282 656 pd schaffner;
#N canvas 526 148 754 596 putzen 0;
#X obj 144 239 random 30;
#X obj 144 265 + 1;
#X obj 143 181 bng 19 250 50 0 empty empty empty 0 -10 0 12 #fcfcfc #000000 #000000;
#X obj 143 213 uzi 6;
#X obj 222 182 bng 19 250 50 0 empty empty empty 0 -10 0 12 #fcfcfc #000000 #000000;
#X obj 223 240 random 14;
#X obj 223 266 + 32;
#X obj 222 214 uzi 6;
#X obj 297 180 bng 19 250 50 0 empty empty empty 0 -10 0 12 #fcfcfc #000000 #000000;
#X obj 401 182 + 1;
#X obj 401 156 random 68;
#X msg 409 94 1;
#X msg 447 98 0;
#X obj 141 546 outlet;
#X obj 403 123 metro 200;
#X obj 509 180 * 10;
#X obj 509 156 random 30;
#X obj 163 42 inlet;
#X obj 225 42 inlet;
#X obj 298 41 inlet;
#X msg 254 444 \$1 wisper 3 1;
#X obj 416 302 del 4500;
#X msg 221 405 \$1 loadfile Putzen;
#X obj 298 264 + 53;
#X obj 298 238 random 15;
#X obj 297 212 uzi 4;
#X obj 502 285 del 4000;
#X floatatom 551 90 5 0 0 0 - - - 0;
#X obj 509 204 + 400;
#X connect 0 0 1 0;
#X connect 1 0 22 0;
#X connect 2 0 3 0;
#X connect 2 0 21 0;
#X connect 3 0 0 0;
#X connect 4 0 7 0;
#X connect 4 0 21 0;
#X connect 5 0 6 0;
#X connect 6 0 22 0;
#X connect 7 0 5 0;
#X connect 8 0 21 0;
#X connect 8 0 25 0;
#X connect 9 0 20 0;
#X connect 10 0 9 0;
#X connect 11 0 14 0;
#X connect 12 0 14 0;
#X connect 14 0 16 0;
#X connect 14 0 10 0;
#X connect 15 0 28 0;
#X connect 16 0 15 0;
#X connect 17 0 2 0;
#X connect 18 0 4 0;
#X connect 19 0 8 0;
#X connect 20 0 13 0;
#X connect 21 0 11 0;
#X connect 21 0 26 0;
#X connect 22 0 13 0;
#X connect 23 0 22 0;
#X connect 24 0 23 0;
#X connect 25 0 24 0;
#X connect 26 0 12 0;
#X connect 28 0 14 1;
#X restore 146 659 pd putzen;
#N canvas 526 148 754 596 Physik 0;
#X obj 144 239 random 30;
#X obj 144 265 + 1;
#X obj 143 181 bng 19 250 50 0 empty empty empty 0 -10 0 12 #fcfcfc #000000 #000000;
#X obj 143 213 uzi 6;
#X obj 222 182 bng 19 250 50 0 empty empty empty 0 -10 0 12 #fcfcfc #000000 #000000;
#X obj 223 240 random 14;
#X obj 223 266 + 32;
#X obj 222 214 uzi 6;
#X obj 297 180 bng 19 250 50 0 empty empty empty 0 -10 0 12 #fcfcfc #000000 #000000;
#X obj 297 212 uzi 6;
#X obj 298 238 random 18;
#X obj 298 264 + 50;
#X obj 401 182 + 1;
#X obj 401 156 random 68;
#X msg 409 94 1;
#X msg 447 98 0;
#X obj 141 546 outlet;
#X obj 403 123 metro 200;
#X obj 509 180 * 10;
#X obj 509 156 random 30;
#X obj 509 204 + 100;
#X obj 163 42 inlet;
#X obj 225 42 inlet;
#X obj 298 41 inlet;
#X msg 221 405 \$1 loadfile Physik;
#X msg 254 444 \$1 wisper 2 1;
#X obj 416 302 del 2000;
#X obj 502 285 del 4000;
#X connect 0 0 1 0;
#X connect 1 0 24 0;
#X connect 2 0 3 0;
#X connect 2 0 26 0;
#X connect 3 0 0 0;
#X connect 4 0 7 0;
#X connect 4 0 26 0;
#X connect 5 0 6 0;
#X connect 6 0 24 0;
#X connect 7 0 5 0;
#X connect 8 0 9 0;
#X connect 8 0 26 0;
#X connect 9 0 10 0;
#X connect 10 0 11 0;
#X connect 11 0 24 0;
#X connect 12 0 25 0;
#X connect 13 0 12 0;
#X connect 14 0 17 0;
#X connect 15 0 17 0;
#X connect 17 0 13 0;
#X connect 17 0 19 0;
#X connect 18 0 20 0;
#X connect 19 0 18 0;
#X connect 20 0 17 1;
#X connect 21 0 2 0;
#X connect 22 0 4 0;
#X connect 23 0 8 0;
#X connect 24 0 16 0;
#X connect 25 0 16 0;
#X connect 26 0 14 0;
#X connect 26 0 27 0;
#X connect 27 0 15 0;
#X restore 449 701 pd Physik;
#N canvas 526 148 754 596 Gymnasium 0;
#X obj 144 239 random 30;
#X obj 144 265 + 1;
#X obj 143 181 bng 19 250 50 0 empty empty empty 0 -10 0 12 #fcfcfc #000000 #000000;
#X obj 143 213 uzi 6;
#X obj 222 182 bng 19 250 50 0 empty empty empty 0 -10 0 12 #fcfcfc #000000 #000000;
#X obj 223 240 random 14;
#X obj 223 266 + 32;
#X obj 222 214 uzi 6;
#X obj 297 180 bng 19 250 50 0 empty empty empty 0 -10 0 12 #fcfcfc #000000 #000000;
#X obj 297 212 uzi 6;
#X obj 401 182 + 1;
#X obj 401 156 random 68;
#X msg 409 94 1;
#X msg 447 98 0;
#X obj 141 546 outlet;
#X obj 403 123 metro 200;
#X obj 509 180 * 10;
#X obj 509 156 random 30;
#X obj 509 204 + 100;
#X obj 163 42 inlet;
#X obj 225 42 inlet;
#X obj 298 41 inlet;
#X obj 416 302 del 5000;
#X msg 221 405 \$1 loadfile Gymnasium;
#X msg 254 444 \$1 wisper 0 1;
#X obj 502 285 del 8000;
#X obj 298 264 + 53;
#X obj 298 238 random 15;
#X connect 0 0 1 0;
#X connect 1 0 23 0;
#X connect 2 0 3 0;
#X connect 2 0 22 0;
#X connect 3 0 0 0;
#X connect 4 0 7 0;
#X connect 4 0 22 0;
#X connect 5 0 6 0;
#X connect 6 0 23 0;
#X connect 7 0 5 0;
#X connect 8 0 9 0;
#X connect 8 0 22 0;
#X connect 9 0 27 0;
#X connect 10 0 24 0;
#X connect 11 0 10 0;
#X connect 12 0 15 0;
#X connect 13 0 15 0;
#X connect 15 0 11 0;
#X connect 15 0 17 0;
#X connect 16 0 18 0;
#X connect 17 0 16 0;
#X connect 18 0 15 1;
#X connect 19 0 2 0;
#X connect 20 0 4 0;
#X connect 21 0 8 0;
#X connect 22 0 12 0;
#X connect 22 0 25 0;
#X connect 23 0 14 0;
#X connect 24 0 14 0;
#X connect 25 0 13 0;
#X connect 26 0 23 0;
#X connect 27 0 26 0;
#X restore 423 539 pd Gymnasium;
#N canvas 376 25 754 596 Schuldirektor 0;
#X obj 144 239 random 30;
#X obj 144 265 + 1;
#X obj 143 181 bng 19 250 50 0 empty empty empty 0 -10 0 12 #fcfcfc #000000 #000000;
#X obj 143 213 uzi 6;
#X obj 222 182 bng 19 250 50 0 empty empty empty 0 -10 0 12 #fcfcfc #000000 #000000;
#X obj 223 240 random 14;
#X obj 223 266 + 32;
#X obj 222 214 uzi 6;
#X obj 297 180 bng 19 250 50 0 empty empty empty 0 -10 0 12 #fcfcfc #000000 #000000;
#X obj 297 212 uzi 6;
#X obj 298 238 random 18;
#X obj 298 264 + 50;
#X obj 401 182 + 1;
#X obj 401 156 random 68;
#X msg 409 94 1;
#X msg 447 98 0;
#X obj 141 546 outlet;
#X obj 403 123 metro 200;
#X obj 509 180 * 10;
#X obj 509 156 random 30;
#X obj 509 204 + 100;
#X obj 163 42 inlet;
#X obj 225 42 inlet;
#X obj 298 41 inlet;
#X msg 221 405 \$1 loadfile Schuldirektor;
#X msg 254 444 \$1 wisper 5 1;
#X obj 416 302 del 6000;
#X msg 279 353 51;
#X obj 502 285 del 6000;
#X text 574 287 changed;
#X connect 0 0 1 0;
#X connect 1 0 24 0;
#X connect 2 0 3 0;
#X connect 2 0 26 0;
#X connect 3 0 0 0;
#X connect 4 0 7 0;
#X connect 4 0 26 0;
#X connect 5 0 6 0;
#X connect 6 0 24 0;
#X connect 7 0 5 0;
#X connect 8 0 9 0;
#X connect 8 0 26 0;
#X connect 9 0 10 0;
#X connect 10 0 11 0;
#X connect 11 0 24 0;
#X connect 12 0 25 0;
#X connect 13 0 12 0;
#X connect 14 0 17 0;
#X connect 15 0 17 0;
#X connect 17 0 13 0;
#X connect 17 0 19 0;
#X connect 18 0 20 0;
#X connect 19 0 18 0;
#X connect 20 0 17 1;
#X connect 21 0 2 0;
#X connect 22 0 4 0;
#X connect 23 0 8 0;
#X connect 24 0 16 0;
#X connect 25 0 16 0;
#X connect 26 0 14 0;
#X connect 26 0 28 0;
#X connect 27 0 24 0;
#X connect 28 0 15 0;
#X restore 753 589 pd Schuldirektor;
#X obj 818 747 bng 19 250 50 0 empty empty empty 0 -10 0 12 #fcfcfc #000000 #000000;
#N canvas 526 148 754 596 Musiklehrer 0;
#X obj 144 239 random 30;
#X obj 144 265 + 1;
#X obj 143 181 bng 19 250 50 0 empty empty empty 0 -10 0 12 #fcfcfc #000000 #000000;
#X obj 143 213 uzi 6;
#X obj 222 182 bng 19 250 50 0 empty empty empty 0 -10 0 12 #fcfcfc #000000 #000000;
#X obj 223 240 random 14;
#X obj 223 266 + 32;
#X obj 222 214 uzi 6;
#X obj 297 180 bng 19 250 50 0 empty empty empty 0 -10 0 12 #fcfcfc #000000 #000000;
#X obj 297 212 uzi 6;
#X obj 401 182 + 1;
#X obj 401 156 random 68;
#X msg 409 94 1;
#X msg 447 98 0;
#X obj 141 546 outlet;
#X obj 403 123 metro 200;
#X obj 509 180 * 10;
#X obj 509 156 random 30;
#X obj 163 42 inlet;
#X obj 225 42 inlet;
#X obj 298 41 inlet;
#X msg 254 444 \$1 wisper 1 1;
#X obj 416 302 del 8000;
#X obj 502 285 del 2000;
#X obj 509 204 + 200;
#X msg 221 405 \$1 loadfile Musiklehrer;
#X obj 298 264 + 53;
#X obj 298 238 random 15;
#X connect 0 0 1 0;
#X connect 1 0 25 0;
#X connect 2 0 3 0;
#X connect 3 0 0 0;
#X connect 4 0 7 0;
#X connect 5 0 6 0;
#X connect 6 0 25 0;
#X connect 7 0 5 0;
#X connect 8 0 9 0;
#X connect 9 0 27 0;
#X connect 10 0 21 0;
#X connect 11 0 10 0;
#X connect 12 0 15 0;
#X connect 13 0 15 0;
#X connect 15 0 11 0;
#X connect 15 0 17 0;
#X connect 16 0 24 0;
#X connect 17 0 16 0;
#X connect 18 0 2 0;
#X connect 19 0 4 0;
#X connect 20 0 8 0;
#X connect 21 0 14 0;
#X connect 22 0 12 0;
#X connect 22 0 23 0;
#X connect 23 0 13 0;
#X connect 24 0 15 1;
#X connect 25 0 14 0;
#X connect 26 0 25 0;
#X connect 27 0 26 0;
#X restore 795 786 pd Musiklehrer;
#X obj 919 469 random 30;
#X obj 919 495 + 1;
#X obj 918 411 bng 19 250 50 0 empty empty empty 0 -10 0 12 #fcfcfc #000000 #000000;
#X obj 997 412 bng 19 250 50 0 empty empty empty 0 -10 0 12 #fcfcfc #000000 #000000;
#X obj 998 470 random 14;
#X obj 998 496 + 32;
#X obj 1072 410 bng 19 250 50 0 empty empty empty 0 -10 0 12 #fcfcfc #000000 #000000;
#X obj 1073 468 random 18;
#X obj 1073 494 + 50;
#X obj 574 407 bng 19 250 50 0 empty empty empty 0 -10 0 12 #fcfcfc #000000 #000000;
#X obj 719 412 bng 19 250 50 0 empty empty empty 0 -10 0 12 #fcfcfc #000000 #000000;
#X obj 647 397 bng 19 250 50 0 empty empty empty 0 -10 0 12 #fcfcfc #000000 #000000;
#X obj 691 345 bng 19 250 50 0 empty empty empty 0 -10 0 12 #fcfcfc #000000 #000000;
#X obj 143 625 bng 19 250 50 0 empty empty empty 0 -10 0 12 #fcfcfc #000000 #000000;
#X obj 170 624 bng 19 250 50 0 empty empty empty 0 -10 0 12 #fcfcfc #000000 #000000;
#X obj 201 579 bng 19 250 50 0 empty empty empty 0 -10 0 12 #fcfcfc #000000 #000000;
#X obj 282 625 bng 19 250 50 0 empty empty empty 0 -10 0 12 #fcfcfc #000000 #000000;
#X obj 309 624 bng 19 250 50 0 empty empty empty 0 -10 0 12 #fcfcfc #000000 #000000;
#X obj 340 624 bng 19 250 50 0 empty empty empty 0 -10 0 12 #fcfcfc #000000 #000000;
#X obj 423 499 bng 19 250 50 0 empty empty empty 0 -10 0 12 #fcfcfc #000000 #000000;
#X obj 454 502 bng 19 250 50 0 empty empty empty 0 -10 0 12 #fcfcfc #000000 #000000;
#X obj 500 460 bng 19 250 50 0 empty empty empty 0 -10 0 12 #fcfcfc #000000 #000000;
#X obj 473 659 bng 19 250 50 0 empty empty empty 0 -10 0 12 #fcfcfc #000000 #000000;
#X obj 778 549 bng 19 250 50 0 empty empty empty 0 -10 0 12 #fcfcfc #000000 #000000;
#X obj 818 513 bng 19 250 50 0 empty empty empty 0 -10 0 12 #fcfcfc #000000 #000000;
#X obj 851 548 bng 19 250 50 0 empty empty empty 0 -10 0 12 #fcfcfc #000000 #000000;
#X obj 842 751 bng 19 250 50 0 empty empty empty 0 -10 0 12 #fcfcfc #000000 #000000;
#X obj 872 716 bng 19 250 50 0 empty empty empty 0 -10 0 12 #fcfcfc #000000 #000000;
#X text 821 484 1;
#X text 209 552 2;
#X msg 598 844 \$1 loadfile zwichen;
#X obj 598 734 bng 19 250 50 0 empty empty empty 0 -10 0 12 #fcfcfc #000000 #000000;
#X obj 599 792 random 14;
#X obj 599 818 + 32;
#X obj 598 766 uzi 6;
#X text 284 600 3;
#X text 698 322 4;
#X text 479 635 5;
#X text 505 439 6;
#X text 877 696 7;
#X text 602 711 8;
#X obj 947 339 bng 19 250 50 0 empty empty empty 0 -10 0 12 #fcfcfc #000000 #000000;
#X obj 997 444 uzi 2;
#X obj 1072 442 uzi 2;
#X obj 918 443 uzi 10;
#X text 958 310 9;
#X obj 856 853 del 8000;
#N canvas 526 148 754 596 Physik 0;
#X obj 144 239 random 30;
#X obj 144 265 + 1;
#X obj 143 181 bng 19 250 50 0 empty empty empty 0 -10 0 12 #fcfcfc #000000 #000000;
#X obj 143 213 uzi 6;
#X obj 222 182 bng 19 250 50 0 empty empty empty 0 -10 0 12 #fcfcfc #000000 #000000;
#X obj 223 240 random 14;
#X obj 223 266 + 32;
#X obj 222 214 uzi 6;
#X obj 297 180 bng 19 250 50 0 empty empty empty 0 -10 0 12 #fcfcfc #000000 #000000;
#X obj 297 212 uzi 6;
#X obj 401 182 + 1;
#X obj 401 156 random 68;
#X msg 409 94 1;
#X msg 447 98 0;
#X obj 141 546 outlet;
#X obj 403 123 metro 200;
#X obj 509 180 * 10;
#X obj 509 156 random 30;
#X obj 163 42 inlet;
#X obj 225 42 inlet;
#X obj 298 41 inlet;
#X msg 221 405 \$1 loadfile Physik;
#X obj 416 302 del 2000;
#X msg 254 444 \$1 wisper 2 0.5;
#X obj 509 204 + 200;
#X obj 502 285 del 4000;
#X obj 298 267 + 53;
#X obj 298 238 random 15;
#X connect 0 0 1 0;
#X connect 1 0 21 0;
#X connect 2 0 3 0;
#X connect 2 0 22 0;
#X connect 3 0 0 0;
#X connect 4 0 7 0;
#X connect 4 0 22 0;
#X connect 5 0 6 0;
#X connect 6 0 21 0;
#X connect 7 0 5 0;
#X connect 8 0 9 0;
#X connect 8 0 22 0;
#X connect 9 0 27 0;
#X connect 10 0 23 0;
#X connect 11 0 10 0;
#X connect 12 0 15 0;
#X connect 13 0 15 0;
#X connect 15 0 11 0;
#X connect 15 0 17 0;
#X connect 16 0 24 0;
#X connect 17 0 16 0;
#X connect 18 0 2 0;
#X connect 19 0 4 0;
#X connect 20 0 8 0;
#X connect 21 0 14 0;
#X connect 22 0 12 0;
#X connect 22 0 25 0;
#X connect 23 0 14 0;
#X connect 24 0 15 1;
#X connect 25 0 13 0;
#X connect 26 0 21 0;
#X connect 27 0 26 0;
#X restore 1038 627 pd Physik;
#X obj 1096 593 bng 19 250 50 0 empty empty empty 0 -10 0 12 #fcfcfc #000000 #000000;
#N canvas 526 148 754 596 putzen 0;
#X obj 144 239 random 30;
#X obj 144 265 + 1;
#X obj 143 181 bng 19 250 50 0 empty empty empty 0 -10 0 12 #fcfcfc #000000 #000000;
#X obj 222 182 bng 19 250 50 0 empty empty empty 0 -10 0 12 #fcfcfc #000000 #000000;
#X obj 223 240 random 14;
#X obj 223 266 + 32;
#X obj 297 180 bng 19 250 50 0 empty empty empty 0 -10 0 12 #fcfcfc #000000 #000000;
#X obj 298 238 random 18;
#X obj 298 264 + 50;
#X obj 401 182 + 1;
#X obj 401 156 random 68;
#X msg 409 94 1;
#X msg 447 98 0;
#X obj 141 546 outlet;
#X obj 403 123 metro 200;
#X obj 509 180 * 10;
#X obj 509 156 random 30;
#X obj 509 204 + 100;
#X obj 163 42 inlet;
#X obj 225 42 inlet;
#X obj 298 41 inlet;
#X msg 221 405 \$1 loadfile Putzen;
#X msg 254 444 \$1 wisper 3 1;
#X obj 416 302 del 4500;
#X obj 143 213 uzi 12;
#X obj 222 214 uzi 10;
#X obj 297 212 uzi 10;
#X obj 502 285 del 4000;
#X connect 0 0 1 0;
#X connect 1 0 21 0;
#X connect 2 0 23 0;
#X connect 2 0 24 0;
#X connect 3 0 23 0;
#X connect 3 0 25 0;
#X connect 4 0 5 0;
#X connect 5 0 21 0;
#X connect 6 0 23 0;
#X connect 6 0 26 0;
#X connect 7 0 8 0;
#X connect 8 0 21 0;
#X connect 9 0 22 0;
#X connect 10 0 9 0;
#X connect 11 0 14 0;
#X connect 12 0 14 0;
#X connect 14 0 10 0;
#X connect 14 0 16 0;
#X connect 15 0 17 0;
#X connect 16 0 15 0;
#X connect 17 0 14 1;
#X connect 18 0 2 0;
#X connect 19 0 3 0;
#X connect 20 0 6 0;
#X connect 21 0 13 0;
#X connect 22 0 13 0;
#X connect 23 0 11 0;
#X connect 23 0 27 0;
#X connect 24 0 0 0;
#X connect 25 0 4 0;
#X connect 26 0 7 0;
#X connect 27 0 12 0;
#X restore 1114 720 pd putzen;
#X obj 1138 685 bng 19 250 50 0 empty empty empty 0 -10 0 12 #fcfcfc #000000 #000000;
#N canvas 526 148 754 596 Gymnasium 0;
#X obj 144 239 random 30;
#X obj 144 265 + 1;
#X obj 143 181 bng 19 250 50 0 empty empty empty 0 -10 0 12 #fcfcfc #000000 #000000;
#X obj 143 213 uzi 6;
#X obj 222 182 bng 19 250 50 0 empty empty empty 0 -10 0 12 #fcfcfc #000000 #000000;
#X obj 223 240 random 14;
#X obj 223 266 + 32;
#X obj 222 214 uzi 6;
#X obj 297 180 bng 19 250 50 0 empty empty empty 0 -10 0 12 #fcfcfc #000000 #000000;
#X obj 401 182 + 1;
#X obj 401 156 random 68;
#X msg 408 93 1;
#X msg 446 97 0;
#X obj 141 546 outlet;
#X obj 402 122 metro 200;
#X obj 509 156 random 30;
#X obj 163 42 inlet;
#X obj 225 42 inlet;
#X obj 298 41 inlet;
#X msg 221 405 \$1 loadfile Gymnasium;
#X obj 416 302 del 5000;
#X obj 509 204 + 200;
#X obj 509 180 * 20;
#X msg 254 444 \$1 wisper 0 0.7;
#X obj 502 285 del 30000;
#X obj 297 212 uzi 8;
#X obj 549 523 outlet;
#X obj 614 44 inlet;
#X obj 298 238 random 15;
#X obj 298 264 + 53;
#X connect 0 0 1 0;
#X connect 1 0 19 0;
#X connect 2 0 3 0;
#X connect 2 0 20 0;
#X connect 3 0 0 0;
#X connect 4 0 7 0;
#X connect 4 0 20 0;
#X connect 5 0 6 0;
#X connect 6 0 19 0;
#X connect 7 0 5 0;
#X connect 8 0 20 0;
#X connect 8 0 25 0;
#X connect 9 0 23 0;
#X connect 10 0 9 0;
#X connect 11 0 14 0;
#X connect 12 0 14 0;
#X connect 14 0 10 0;
#X connect 14 0 15 0;
#X connect 15 0 22 0;
#X connect 16 0 2 0;
#X connect 17 0 4 0;
#X connect 18 0 8 0;
#X connect 19 0 13 0;
#X connect 20 0 11 0;
#X connect 20 0 24 0;
#X connect 21 0 14 1;
#X connect 22 0 21 0;
#X connect 23 0 13 0;
#X connect 24 0 12 0;
#X connect 24 0 26 0;
#X connect 25 0 28 0;
#X connect 27 0 12 0;
#X connect 28 0 29 0;
#X connect 29 0 19 0;
#X restore 977 980 pd Gymnasium;
#X obj 977 940 bng 19 250 50 0 empty empty empty 0 -10 0 12 #fcfcfc #000000 #000000;
#X obj 1008 943 bng 19 250 50 0 empty empty empty 0 -10 0 12 #fcfcfc #000000 #000000;
#X obj 1054 935 bng 19 250 50 0 empty empty empty 0 -10 0 12 #fcfcfc #000000 #000000;
#X obj 1022 366 del 8000;
#X obj 584 165 bng 19 250 50 0 empty empty empty 0 -10 0 12 #fcfcfc #000000 #000000;
#X text 1077 932 end;
#N canvas 509 34 587 566 supermarkt 0;
#X msg 100 255 \$1 loadfile Supermarkt;
#X obj 112 154 random 30;
#X obj 112 180 + 1;
#X obj 191 155 random 14;
#X obj 191 181 + 32;
#X obj 265 127 uzi 6;
#X obj 190 129 uzi 3;
#X obj 111 128 uzi 6;
#X obj 108 83 inlet;
#X obj 189 84 inlet;
#X obj 273 85 inlet;
#X obj 160 333 outlet;
#X obj 266 179 + 53;
#X obj 266 153 random 15;
#X connect 0 0 11 0;
#X connect 1 0 2 0;
#X connect 2 0 0 0;
#X connect 3 0 4 0;
#X connect 4 0 0 0;
#X connect 5 0 13 0;
#X connect 6 0 3 0;
#X connect 7 0 1 0;
#X connect 8 0 7 0;
#X connect 9 0 6 0;
#X connect 10 0 5 0;
#X connect 12 0 0 0;
#X connect 13 0 12 0;
#X restore 623 447 pd supermarkt;
#X obj 1066 756 bng 19 250 50 0 empty empty empty 0 -10 0 12 #fcfcfc #000000 #000000;
#X obj 1156 756 bng 19 250 50 0 empty empty empty 0 -10 0 12 #fcfcfc #000000 #000000;
#X obj 1114 757 bng 19 250 50 0 empty empty empty 0 -10 0 12 #fcfcfc #000000 #000000;
#N canvas 509 34 587 566 supermarkt 0;
#X msg 100 255 \$1 loadfile Supermarkt;
#X obj 112 154 random 30;
#X obj 112 180 + 1;
#X obj 191 155 random 14;
#X obj 191 181 + 32;
#X obj 265 127 uzi 6;
#X obj 266 153 random 18;
#X obj 266 179 + 50;
#X obj 190 129 uzi 3;
#X obj 111 128 uzi 6;
#X obj 108 83 inlet;
#X obj 189 84 inlet;
#X obj 273 85 inlet;
#X obj 160 333 outlet;
#X connect 0 0 13 0;
#X connect 1 0 2 0;
#X connect 2 0 0 0;
#X connect 3 0 4 0;
#X connect 4 0 0 0;
#X connect 5 0 6 0;
#X connect 6 0 7 0;
#X connect 7 0 0 0;
#X connect 8 0 3 0;
#X connect 9 0 1 0;
#X connect 10 0 9 0;
#X connect 11 0 8 0;
#X connect 12 0 5 0;
#X restore 1072 787 pd supermarkt;
#X obj 968 800 del 10500;
#N canvas 526 176 754 596 schaffner 0;
#X msg 221 405 \$1 loadfile schaffner;
#X obj 144 239 random 30;
#X obj 144 265 + 1;
#X obj 143 181 bng 19 250 50 0 empty empty empty 0 -10 0 12 #fcfcfc #000000 #000000;
#X obj 222 182 bng 19 250 50 0 empty empty empty 0 -10 0 12 #fcfcfc #000000 #000000;
#X obj 223 240 random 14;
#X obj 223 266 + 32;
#X obj 222 214 uzi 6;
#X obj 297 180 bng 19 250 50 0 empty empty empty 0 -10 0 12 #fcfcfc #000000 #000000;
#X msg 254 444 \$1 wisper 4 1;
#X obj 401 182 + 1;
#X obj 401 156 random 68;
#X msg 409 94 1;
#X msg 447 98 0;
#X obj 141 546 outlet;
#X obj 403 123 metro 200;
#X obj 509 180 * 10;
#X obj 509 156 random 30;
#X obj 416 302 del 7000;
#X obj 163 42 inlet;
#X obj 225 42 inlet;
#X obj 298 41 inlet;
#X obj 509 204 + 200;
#X obj 297 212 uzi 6;
#X obj 144 213 uzi 10;
#X obj 502 285 del 8000;
#X obj 298 238 random 15;
#X obj 298 264 + 53;
#X connect 0 0 14 0;
#X connect 1 0 2 0;
#X connect 2 0 0 0;
#X connect 3 0 18 0;
#X connect 3 0 24 0;
#X connect 4 0 7 0;
#X connect 4 0 18 0;
#X connect 5 0 6 0;
#X connect 6 0 0 0;
#X connect 7 0 5 0;
#X connect 8 0 18 0;
#X connect 8 0 23 0;
#X connect 9 0 14 0;
#X connect 10 0 9 0;
#X connect 11 0 10 0;
#X connect 12 0 15 0;
#X connect 13 0 15 0;
#X connect 15 0 11 0;
#X connect 15 0 17 0;
#X connect 16 0 22 0;
#X connect 17 0 16 0;
#X connect 18 0 12 0;
#X connect 18 0 25 0;
#X connect 19 0 3 0;
#X connect 20 0 4 0;
#X connect 21 0 8 0;
#X connect 22 0 15 1;
#X connect 23 0 26 0;
#X connect 24 0 1 0;
#X connect 25 0 13 0;
#X connect 26 0 27 0;
#X connect 27 0 0 0;
#X restore 1099 867 pd schaffner;
#X obj 1102 836 bng 19 250 50 0 empty empty empty 0 -10 0 12 #fcfcfc #000000 #000000;
#X obj 1129 835 bng 19 250 50 0 empty empty empty 0 -10 0 12 #fcfcfc #000000 #000000;
#X obj 1160 835 bng 19 250 50 0 empty empty empty 0 -10 0 12 #fcfcfc #000000 #000000;
#X msg 778 961 \$1 loadfile zwichen;
#X obj 778 854 bng 19 250 50 0 empty empty empty 0 -10 0 12 #fcfcfc #000000 #000000;
#X obj 779 912 random 14;
#X obj 779 938 + 32;
#X obj 778 886 uzi 6;
#X obj 861 908 del 3500;
#X obj 73 548 t b b;
#X obj 243 338 bng 30 250 50 0 empty empty all\ OFF 0 -10 0 12 #ff0400 #000000 #000000;
#X msg 300 445 0;
#X obj 437 582 spigot 1;
#X obj 639 570 tgl 19 0 empty empty empty 0 -10 0 12 #fcfcfc #000000 #000000 0 1;
#X obj 210 685 spigot 1;
#X obj 540 530 spigot 1;
#X obj 576 594 spigot 1;
#X obj 551 634 spigot 1;
#X obj 731 690 spigot 1;
#X obj 1107 543 spigot 1;
#X obj 1136 651 spigot 1;
#X obj 966 715 spigot 1;
#X obj 968 829 spigot 1;
#X obj 988 894 spigot 1;
#X obj 871 933 spigot 1;
#X obj 1095 966 sel 0;
#X obj 120 191 tgl 19 0 empty empty empty 0 -10 0 12 #fcfcfc #000000 #000000 0 1;
#X text 140 145 this will autostart;
#X text 140 166 entire sequence;
#X text 143 190 stop the sequence;
#X obj 329 426 - 1;
#X obj 329 450 abs;
#X obj 105 325 t a a;
#X obj 143 351 sel 1;
#X msg 159 382 0;
#X obj 220 388 sel 1;
#X msg 199 435 0;
#X obj 680 534 del 12000;
#X obj 686 493 del 11500;
#X text 1049 599 10;
#X obj 1135 616 del 5500;
#X obj 1023 675 del 7000;
#X obj 995 860 del 10000;
#X obj 669 223 del 2000;
#X obj 508 674 del 5500;
#X obj 464 392 del 13500;
#X obj 646 711 del 4500;
#X obj 189 722 del 8000;
#X obj 65 296 spigot 1;
#X msg 101 270 0;
#X msg 219 277 0;
#X obj 220 246 t b b;
#X msg 252 286 1;
#X obj 333 709 del 16500;
#X obj 209 412 t b b;
#X msg 235 438 1;
#X obj 107 34 r resetsignal;
#X msg 107 69 0;
#X msg 39 367 1;
#X connect 2 0 5 0;
#X connect 2 0 132 0;
#X connect 3 0 4 0;
#X connect 3 1 142 0;
#X connect 4 0 1 0;
#X connect 5 1 3 0;
#X connect 6 0 7 0;
#X connect 7 0 0 0;
#X connect 8 0 7 1;
#X connect 9 0 93 0;
#X connect 9 0 133 0;
#X connect 9 1 10 0;
#X connect 10 0 11 0;
#X connect 12 0 7 0;
#X connect 13 0 7 0;
#X connect 14 0 7 0;
#X connect 15 0 7 0;
#X connect 16 0 7 0;
#X connect 17 0 18 0;
#X connect 18 0 7 0;
#X connect 19 0 20 0;
#X connect 20 0 6 0;
#X connect 21 0 63 0;
#X connect 22 0 61 0;
#X connect 23 0 24 0;
#X connect 24 0 6 0;
#X connect 25 0 62 0;
#X connect 26 0 27 0;
#X connect 27 0 6 0;
#X connect 28 0 77 0;
#X connect 29 0 77 2;
#X connect 30 0 77 1;
#X connect 31 0 30 0;
#X connect 31 0 29 0;
#X connect 31 0 122 0;
#X connect 32 0 13 0;
#X connect 33 0 13 1;
#X connect 34 0 13 2;
#X connect 34 0 131 0;
#X connect 35 0 12 0;
#X connect 35 0 137 0;
#X connect 36 0 12 1;
#X connect 37 0 12 2;
#X connect 38 0 15 0;
#X connect 39 0 15 1;
#X connect 40 0 15 2;
#X connect 40 0 129 0;
#X connect 41 0 14 1;
#X connect 41 0 128 0;
#X connect 42 0 16 0;
#X connect 43 0 16 1;
#X connect 43 0 121 0;
#X connect 44 0 16 2;
#X connect 45 0 18 1;
#X connect 46 0 18 2;
#X connect 46 0 65 0;
#X connect 49 0 7 0;
#X connect 50 0 53 0;
#X connect 50 0 130 0;
#X connect 51 0 52 0;
#X connect 52 0 49 0;
#X connect 53 0 51 0;
#X connect 60 0 21 0;
#X connect 60 0 22 0;
#X connect 60 0 74 0;
#X connect 61 0 23 0;
#X connect 62 0 26 0;
#X connect 63 0 19 0;
#X connect 65 0 50 0;
#X connect 66 0 7 0;
#X connect 67 0 66 2;
#X connect 67 0 124 0;
#X connect 68 0 7 0;
#X connect 69 0 68 1;
#X connect 69 0 125 0;
#X connect 70 0 7 0;
#X connect 70 1 135 0;
#X connect 71 0 70 0;
#X connect 72 0 70 1;
#X connect 73 0 70 2;
#X connect 74 0 103 0;
#X connect 75 0 127 0;
#X connect 77 0 7 0;
#X connect 78 0 81 0;
#X connect 79 0 81 2;
#X connect 80 0 81 1;
#X connect 80 0 82 0;
#X connect 81 0 7 0;
#X connect 82 0 106 0;
#X connect 83 0 7 0;
#X connect 84 0 83 0;
#X connect 85 0 83 1;
#X connect 86 0 83 2;
#X connect 86 0 126 0;
#X connect 87 0 7 0;
#X connect 88 0 91 0;
#X connect 88 0 92 0;
#X connect 89 0 90 0;
#X connect 90 0 87 0;
#X connect 91 0 89 0;
#X connect 92 0 108 0;
#X connect 93 0 75 0;
#X connect 93 1 8 0;
#X connect 94 0 95 0;
#X connect 95 0 1 0;
#X connect 96 0 34 0;
#X connect 97 0 96 1;
#X connect 97 0 98 1;
#X connect 97 0 99 1;
#X connect 97 0 100 1;
#X connect 97 0 101 1;
#X connect 97 0 102 1;
#X connect 97 0 103 1;
#X connect 97 0 104 1;
#X connect 97 0 105 1;
#X connect 97 0 106 1;
#X connect 97 0 107 1;
#X connect 97 0 108 1;
#X connect 97 0 109 0;
#X connect 98 0 35 0;
#X connect 99 0 31 0;
#X connect 100 0 41 0;
#X connect 101 0 40 0;
#X connect 102 0 60 0;
#X connect 103 0 67 0;
#X connect 104 0 69 0;
#X connect 105 0 80 0;
#X connect 106 0 86 0;
#X connect 107 0 88 0;
#X connect 108 0 73 0;
#X connect 109 0 70 3;
#X connect 110 0 114 0;
#X connect 110 0 119 0;
#X connect 114 0 115 0;
#X connect 115 0 99 1;
#X connect 115 0 97 0;
#X connect 116 0 9 0;
#X connect 116 1 117 0;
#X connect 117 0 118 0;
#X connect 118 0 110 0;
#X connect 119 0 138 0;
#X connect 120 0 2 0;
#X connect 121 0 96 0;
#X connect 122 0 100 0;
#X connect 124 0 104 0;
#X connect 125 0 105 0;
#X connect 126 0 107 0;
#X connect 127 0 43 0;
#X connect 128 0 101 0;
#X connect 129 0 46 0;
#X connect 130 0 102 0;
#X connect 131 0 98 0;
#X connect 132 0 116 0;
#X connect 133 0 132 1;
#X connect 134 0 2 0;
#X connect 135 0 134 0;
#X connect 135 1 136 0;
#X connect 136 0 132 1;
#X connect 137 0 99 0;
#X connect 138 0 120 0;
#X connect 138 1 139 0;
#X connect 139 0 132 1;
#X connect 140 0 141 0;
#X connect 141 0 2 0;
#X connect 142 0 110 0;
#X coords 0 -1 1 1 200 120 2 100 100;
