#N canvas 500 23 780 683 12;
#X obj 114 603 s controller_message;
#N canvas 353 378 450 300 repeater 0;
#X obj 142 46 inlet message;
#X obj 168 106 list;
#X obj 153 246 outlet message;
#X obj 142 72 t a a b;
#X obj 222 104 del 10;
#X obj 167 133 list trim;
#X connect 0 0 3 0;
#X connect 1 0 5 0;
#X connect 3 0 2 0;
#X connect 3 1 1 1;
#X connect 3 2 4 0;
#X connect 4 0 1 0;
#X connect 5 0 2 0;
#X restore 114 570 pd repeater;
#X msg 204 277 loadfile \$1 l0016.wav;
#X obj 168 36 tgl 19 0 empty empty empty 0 -10 0 12 #fcfcfc #000000 #000000 0 1;
#X obj 436 85 bng 19 250 50 0 empty empty empty 0 -10 0 12 #fcfcfc #000000 #000000;
#X msg 396 280 loadfile \$1 l017.wav;
#X obj 445 175 bng 19 250 50 0 empty empty empty 0 -10 0 12 #fcfcfc #000000 #000000;
#X obj 637 169 bng 19 250 50 0 empty empty empty 0 -10 0 12 #fcfcfc #000000 #000000;
#X msg 588 274 loadfile \$1 l018.wav;
#X obj 273 76 metro 200;
#X obj 862 151 bng 19 250 50 0 empty empty empty 0 -10 0 12 #fcfcfc #000000 #000000;
#X msg 474 362 loadfile \$1 l019.wav;
#X obj 143 79 metro 600;
#X obj 567 59 metro 400;
#X obj 564 27 tgl 19 0 empty empty empty 0 -10 0 12 #fcfcfc #000000 #000000 0 1;
#X obj 800 417 bng 19 250 50 0 empty empty empty 0 -10 0 12 #fcfcfc #000000 #000000;
#X msg 751 522 loadfile \$1 l026.wav;
#X obj 913 403 tgl 19 0 empty empty empty 0 -10 0 12 #fcfcfc #000000 #000000 0 1;
#X obj 910 427 metro 956;
#X msg 697 582 loadfile \$1 l028.wav;
#X obj 394 30 hradio 19 1 0 8 empty empty empty 0 -10 0 12 #fcfcfc #000000 #000000 0;
#X obj 347 97 gate 4 1;
#X obj 215 151 bng 19 250 50 0 empty empty empty 0 -10 0 12 #fcfcfc #000000 #000000;
#X msg 649 420 loadfile \$1 l001.wav;
#X msg 649 392 loadfile \$1 l002.wav;
#X obj 206 210 random 9;
#X obj 205 240 + 15;
#X msg 153 250 24;
#X msg 388 238 24;
#X obj 647 220 counter 24 15;
#X obj 455 226 counter 24 15;
#X obj 872 202 counter 24 15;
#X obj 809 462 counter 24 15;
#X obj 692 511 random 9;
#X obj 695 556 + 15;
#X floatatom 647 244 5 0 0 0 - - - 0;
#X text 558 341 nie;
#X obj 446 135 counter 24 15;
#X msg 794 351 loadfile \$1 l016.wav;
#X obj 804 268 hradio 19 1 0 8 empty empty empty 0 -10 0 12 #fcfcfc #000000 #000000 0;
#X msg 871 326 loadfile \$1 l001.wav;
#X obj 812 295 gate 4 1;
#X msg 391 5 3;
#X msg 803 239 1;
#X text 833 238 nie;
#X text 422 5 nie;
#X connect 1 0 0 0;
#X connect 2 0 1 0;
#X connect 3 0 9 0;
#X connect 3 0 12 0;
#X connect 4 0 37 0;
#X connect 5 0 1 0;
#X connect 6 0 30 0;
#X connect 7 0 29 0;
#X connect 8 0 1 0;
#X connect 9 0 21 1;
#X connect 10 0 31 0;
#X connect 11 0 1 0;
#X connect 12 0 31 0;
#X connect 13 0 29 0;
#X connect 14 0 13 0;
#X connect 15 0 32 0;
#X connect 15 0 33 0;
#X connect 16 0 1 0;
#X connect 17 0 18 0;
#X connect 18 0 32 0;
#X connect 19 0 1 0;
#X connect 20 0 21 0;
#X connect 20 0 3 0;
#X connect 21 0 30 0;
#X connect 21 1 29 0;
#X connect 21 2 31 0;
#X connect 21 3 25 0;
#X connect 22 0 25 0;
#X connect 23 0 1 0;
#X connect 24 0 1 0;
#X connect 25 0 26 0;
#X connect 26 0 2 0;
#X connect 27 0 2 0;
#X connect 28 0 5 0;
#X connect 29 0 8 0;
#X connect 29 0 35 0;
#X connect 30 0 5 0;
#X connect 31 0 41 1;
#X connect 32 0 16 0;
#X connect 33 0 34 0;
#X connect 34 0 19 0;
#X connect 37 0 2 0;
#X connect 38 0 1 0;
#X connect 39 0 41 0;
#X connect 40 0 1 0;
#X connect 41 0 11 0;
#X connect 41 1 24 0;
#X connect 41 2 38 0;
#X connect 41 3 40 0;
#X connect 42 0 20 0;
#X connect 43 0 39 0;
