#N canvas 316 23 778 665 12;
#X obj 181 98 zl scramble;
#X obj 226 136 zl len;
#X obj 226 192 int;
#X text 262 164 number of groups;
#X obj 147 287 zl slice;
#X obj 149 135 list;
#X obj 211 317 zl slice;
#X obj 268 348 zl slice;
#X obj 332 378 zl slice;
#X obj 389 409 zl slice;
#X obj 453 439 zl slice;
#X obj 452 145 zl group 100;
#X msg 493 99 zlclear;
#X obj 453 532 iter;
#X obj 453 590 s controller_message;
#X msg 453 561 \$1 subgroup group6;
#X obj 389 442 iter;
#X obj 389 500 s controller_message;
#X msg 389 471 \$1 subgroup group5;
#X obj 297 524 iter;
#X obj 297 582 s controller_message;
#X msg 297 553 \$1 subgroup group4;
#X obj 227 430 iter;
#X obj 227 488 s controller_message;
#X msg 227 459 \$1 subgroup group3;
#X obj 139 519 iter;
#X obj 139 577 s controller_message;
#X msg 139 548 \$1 subgroup group2;
#X obj 71 359 iter;
#X obj 71 417 s controller_message;
#X msg 71 388 \$1 subgroup group1;
#X obj 436 39 bng 19 250 50 0 empty empty empty 0 -10 0 12 #fcfcfc #000000 #000000;
#X obj 439 64 t b b;
#X obj 149 55 t b a;
#X obj 433 99 uzi 60;
#X obj 149 21 inlet;
#X obj 115 350 print group1;
#X obj 216 374 print group2;
#X obj 277 404 print group3;
#X obj 475 316 print group4;
#X obj 513 361 print group5;
#X obj 554 407 print group6;
#X obj 226 165 / 6;
#X connect 0 0 1 0;
#X connect 0 0 5 1;
#X connect 1 0 42 0;
#X connect 2 0 4 1;
#X connect 2 0 6 1;
#X connect 2 0 7 1;
#X connect 2 0 8 1;
#X connect 2 0 9 1;
#X connect 2 0 10 1;
#X connect 4 0 28 0;
#X connect 4 0 36 0;
#X connect 4 1 6 0;
#X connect 5 0 4 0;
#X connect 6 0 25 0;
#X connect 6 0 37 0;
#X connect 6 1 7 0;
#X connect 7 0 22 0;
#X connect 7 0 38 0;
#X connect 7 1 8 0;
#X connect 8 0 19 0;
#X connect 8 0 39 0;
#X connect 8 1 9 0;
#X connect 9 0 16 0;
#X connect 9 0 40 0;
#X connect 9 1 10 0;
#X connect 10 0 13 0;
#X connect 10 0 41 0;
#X connect 11 0 33 0;
#X connect 12 0 11 0;
#X connect 13 0 15 0;
#X connect 15 0 14 0;
#X connect 16 0 18 0;
#X connect 18 0 17 0;
#X connect 19 0 21 0;
#X connect 21 0 20 0;
#X connect 22 0 24 0;
#X connect 24 0 23 0;
#X connect 25 0 27 0;
#X connect 27 0 26 0;
#X connect 28 0 30 0;
#X connect 30 0 29 0;
#X connect 31 0 32 0;
#X connect 32 0 34 0;
#X connect 32 1 12 0;
#X connect 33 0 5 0;
#X connect 33 1 0 0;
#X connect 34 1 11 0;
#X connect 34 2 11 0;
#X connect 35 0 33 0;
#X connect 42 0 2 0;
