#N canvas 31 160 720 480 12;
#X obj 63 150 text get id 0;
#X obj 50 50 inlet;
#X obj 233 38 inlet;
#X obj 63 176 outlet;
#X obj 63 122 random 70;
#X connect 0 0 3 0;
#X connect 1 0 4 0;
#X connect 2 0 4 1;
#X connect 4 0 0 0;
