#N canvas 89 114 1007 658 12;
#X obj 143 234 s controller_message;
#X obj 104 121 hradio 19 1 0 3 empty empty empty 0 -10 0 12 #fcfcfc #000000 #000000 0;
#X obj 195 74 sel 0 1 2;
#X obj 224 155 t b b b;
#X msg 186 127 \$1 mode 0;
#X msg 300 125 \$1 jam 1;
#X msg 118 205 \$1 mode 5;
#X msg 305 205 \$1 jam 0;
#X obj 381 146 print;
#X obj 301 100 int \$1;
#X obj 190 101 int \$1;
#X obj 307 181 int \$1;
#X obj 220 180 int \$1;
#X obj 123 180 int \$1;
#X obj 162 31 inlet;
#X connect 1 0 2 0;
#X connect 2 0 10 0;
#X connect 2 1 3 0;
#X connect 2 2 9 0;
#X connect 3 0 13 0;
#X connect 3 1 12 0;
#X connect 3 2 11 0;
#X connect 4 0 0 0;
#X connect 5 0 0 0;
#X connect 5 0 8 0;
#X connect 6 0 0 0;
#X connect 7 0 0 0;
#X connect 9 0 5 0;
#X connect 10 0 4 0;
#X connect 11 0 7 0;
#X connect 13 0 6 0;
#X connect 14 0 1 0;
#X coords 0 -1 1 1 65 45 1 100 100;
