#N canvas 446 511 450 300 12;
#X obj 91 61 inlet;
#X obj 187 56 inlet;
#X obj 154 256 outlet;
#X obj 90 114 sel 1 0;
#X msg 90 138 2;
#X msg 119 137 1;
#X obj 197 118 sel 1 0;
#X msg 226 141 1;
#X msg 197 142 3;
#X obj 92 162 t a;
#X obj 199 166 t a;
#X connect 0 0 3 0;
#X connect 1 0 6 0;
#X connect 3 0 4 0;
#X connect 3 1 5 0;
#X connect 4 0 9 0;
#X connect 5 0 9 0;
#X connect 6 0 8 0;
#X connect 6 1 7 0;
#X connect 7 0 10 0;
#X connect 8 0 10 0;
#X connect 9 0 2 0;
#X connect 10 0 2 0;
