#N canvas 173 212 1055 563 12;
#X obj 141 546 outlet;
#X obj 81 8 inlet;
#X obj 522 538 outlet;
#X obj 72 369 id_selector;
#X obj 245 373 id_selector;
#X obj 85 85 t b b b;
#X obj 72 421 list append \$1_c.wav;
#X obj 246 422 list append \$1_r.wav;
#X obj 73 344 uzi \$2;
#X obj 245 345 uzi \$3;
#X obj 246 398 list append loadfile;
#X obj 72 394 list append loadfile;
#X obj 108 47 bng 19 250 50 0 empty empty empty 0 -10 0 12 #fcfcfc #000000 #000000;
#X obj 254 107 del \$4;
#X obj 388 107 del \$5;
#X connect 1 0 5 0;
#X connect 3 0 11 0;
#X connect 4 0 10 0;
#X connect 5 0 8 0;
#X connect 5 1 13 0;
#X connect 5 2 3 1;
#X connect 5 2 4 1;
#X connect 6 0 0 0;
#X connect 7 0 0 0;
#X connect 8 0 3 0;
#X connect 9 0 4 0;
#X connect 10 0 7 0;
#X connect 11 0 6 0;
#X connect 12 0 5 0;
#X connect 13 0 9 0;
#X connect 13 0 14 0;
#X connect 14 0 2 0;
