#N canvas 190 145 226 275 12;
#X obj 30 24 inlet message;
#X obj 30 122 list;
#X obj 59 218 outlet message;
#X obj 30 96 del 10;
#X obj 30 148 list trim;
#X obj 30 50 t b a;
#X connect 0 0 5 0;
#X connect 1 0 4 0;
#X connect 3 0 1 0;
#X connect 4 0 2 0;
#X connect 5 0 3 0;
#X connect 5 1 1 1;
#X connect 5 1 2 0;
