#N canvas 425 488 196 300 12;
#X obj 69 40 inlet;
#X obj 81 217 outlet;
#X obj 69 82 sel 1 0;
#X msg 104 122 1;
#X obj 80 175 t a;
#X msg 58 124 5;
#X connect 0 0 2 0;
#X connect 2 0 5 0;
#X connect 2 1 3 0;
#X connect 3 0 4 0;
#X connect 4 0 1 0;
#X connect 5 0 4 0;
