#N canvas 73 23 1207 572 12;
#X msg 855 111 1;
#X msg 902 134 0;
#X obj 141 546 outlet;
#X obj 81 8 inlet;
#X obj 842 229 t a b;
#X obj 875 310 + 1;
#X obj 858 134 tgl 19 0 empty empty empty 0 -10 0 12 #fcfcfc #000000 #000000 0 1;
#X obj 522 538 outlet;
#X obj 72 369 id_selector;
#X obj 507 237 id_selector;
#X obj 85 85 t b b b;
#X obj 842 206 id_selector;
#X obj 72 421 list append \$1_c.wav;
#X obj 508 286 list append \$1_r.wav;
#X obj 990 409 list append \$1_n_1.wav;
#X obj 822 409 list append \$1_n_2.wav;
#X obj 73 344 uzi \$2;
#X obj 507 209 uzi \$3;
#X obj 508 262 list append loadfile;
#X obj 76 394 list append loadfile;
#X obj 108 47 bng 19 250 50 0 empty empty empty 0 -10 0 12 #fcfcfc #000000 #000000;
#X obj 990 381 list append wisper;
#X obj 822 382 list append wisper;
#X obj 868 70 del \$5;
#X obj 902 107 del \$6;
#X obj 936 215 * \$7;
#X obj 876 348 gate 3 1;
#X obj 1157 382 list append wisper;
#X obj 1157 410 list append \$1_n_3.wav;
#X obj 905 236 bng 19 250 50 0 empty empty empty 0 -10 0 12 #fcfcfc #000000 #000000;
#X obj 705 535 outlet;
#X obj 858 159 metro 500;
#X obj 823 541 outlet;
#X obj 1022 96 * \$7;
#X obj 1022 118 + 400;
#X obj 1022 47 loadbang;
#X obj 984 49 bng 19 250 50 0 empty empty empty 0 -10 0 12 #fcfcfc #000000 #000000;
#X obj 874 286 % 3;
#X obj 874 261 random 90;
#X obj 998 304 t a a;
#X msg 998 256 1.3;
#X msg 1022 71 5;
#X obj 937 161 random 10;
#X obj 936 194 + 1;
#X msg 1033 159 200;
#X obj 998 279 * 200;
#X obj 937 239 + 200;
#X msg 273 174 1;
#X msg 320 197 0;
#X obj 260 292 t a b;
#X obj 293 373 + 1;
#X obj 276 197 tgl 19 0 empty empty empty 0 -10 0 12 #fcfcfc #000000 #000000 0 1;
#X obj 260 269 id_selector;
#X obj 408 444 list append wisper;
#X obj 240 445 list append wisper;
#X obj 294 411 gate 3 1;
#X obj 577 445 list append wisper;
#X obj 323 299 bng 19 250 50 0 empty empty empty 0 -10 0 12 #fcfcfc #000000 #000000;
#X obj 276 222 metro 500;
#X obj 340 107 + 400;
#X obj 340 36 loadbang;
#X obj 302 38 bng 19 250 50 0 empty empty empty 0 -10 0 12 #fcfcfc #000000 #000000;
#X obj 292 349 % 3;
#X obj 292 324 random 90;
#X obj 416 367 t a a;
#X msg 416 319 1.3;
#X msg 340 60 5;
#X obj 355 224 random 10;
#X obj 354 257 + 1;
#X msg 448 289 200;
#X obj 416 342 * 200;
#X obj 355 302 + 200;
#X obj 408 472 list append end_b_n_1.wav;
#X obj 238 472 list append end_b_n_2.wav;
#X obj 577 473 list append end_b_n_3.wav;
#X obj 320 170 del 3000;
#X obj 179 131 del \$4;
#X msg 728 230 1;
#X floatatom 733 330 5 0 0 0 - - - 0;
#X obj 726 280 t a a;
#X obj 728 253 + 4;
#X obj 743 196 uzi 1;
#X obj 354 278 * 100;
#X obj 340 85 * 100;
#X obj 800 178 t a a;
#X connect 0 0 6 0;
#X connect 1 0 6 0;
#X connect 3 0 10 0;
#X connect 4 0 26 1;
#X connect 4 0 32 0;
#X connect 4 1 38 0;
#X connect 5 0 26 0;
#X connect 6 0 31 0;
#X connect 8 0 19 0;
#X connect 9 0 18 0;
#X connect 10 0 16 0;
#X connect 10 1 44 0;
#X connect 10 2 8 1;
#X connect 10 2 11 1;
#X connect 10 2 9 1;
#X connect 10 2 76 0;
#X connect 11 0 4 0;
#X connect 12 0 2 0;
#X connect 13 0 2 0;
#X connect 14 0 2 0;
#X connect 15 0 2 0;
#X connect 16 0 8 0;
#X connect 17 0 9 0;
#X connect 18 0 13 0;
#X connect 19 0 12 0;
#X connect 20 0 10 0;
#X connect 21 0 14 0;
#X connect 22 0 15 0;
#X connect 23 0 24 0;
#X connect 23 0 0 0;
#X connect 24 0 1 0;
#X connect 24 0 7 0;
#X connect 25 0 46 0;
#X connect 26 0 22 0;
#X connect 26 1 21 0;
#X connect 26 2 27 0;
#X connect 27 0 28 0;
#X connect 28 0 2 0;
#X connect 29 0 38 0;
#X connect 31 0 42 0;
#X connect 31 0 84 0;
#X connect 33 0 34 0;
#X connect 34 0 31 1;
#X connect 35 0 41 0;
#X connect 36 0 41 0;
#X connect 37 0 5 0;
#X connect 38 0 37 0;
#X connect 39 0 45 1;
#X connect 39 1 46 1;
#X connect 40 0 45 0;
#X connect 41 0 33 0;
#X connect 42 0 43 0;
#X connect 43 0 25 0;
#X connect 44 0 45 1;
#X connect 44 0 46 1;
#X connect 45 0 39 0;
#X connect 46 0 30 0;
#X connect 46 0 31 1;
#X connect 46 0 40 0;
#X connect 47 0 51 0;
#X connect 48 0 51 0;
#X connect 49 0 55 1;
#X connect 49 1 63 0;
#X connect 50 0 55 0;
#X connect 51 0 58 0;
#X connect 52 0 49 0;
#X connect 53 0 72 0;
#X connect 54 0 73 0;
#X connect 55 0 54 0;
#X connect 55 1 53 0;
#X connect 55 2 56 0;
#X connect 56 0 74 0;
#X connect 57 0 63 0;
#X connect 58 0 52 0;
#X connect 58 0 67 0;
#X connect 59 0 58 1;
#X connect 60 0 66 0;
#X connect 61 0 66 0;
#X connect 62 0 50 0;
#X connect 63 0 62 0;
#X connect 64 0 70 1;
#X connect 64 1 71 1;
#X connect 65 0 70 0;
#X connect 66 0 83 0;
#X connect 67 0 68 0;
#X connect 68 0 82 0;
#X connect 69 0 70 1;
#X connect 69 0 71 1;
#X connect 70 0 64 0;
#X connect 71 0 58 1;
#X connect 71 0 65 0;
#X connect 72 0 2 0;
#X connect 73 0 2 0;
#X connect 74 0 2 0;
#X connect 75 0 48 0;
#X connect 75 0 17 0;
#X connect 75 0 23 0;
#X connect 76 0 47 0;
#X connect 76 0 75 0;
#X connect 77 0 80 0;
#X connect 79 0 78 0;
#X connect 79 0 80 1;
#X connect 79 0 81 1;
#X connect 80 0 79 0;
#X connect 81 0 11 0;
#X connect 82 0 71 0;
#X connect 83 0 59 0;
#X connect 84 0 77 0;
#X connect 84 1 81 0;
