#N canvas 73 23 1207 572 12;
#X msg 504 110 1;
#X msg 551 133 0;
#X obj 141 546 outlet;
#X obj 81 8 inlet;
#X obj 444 243 t a b;
#X obj 477 324 + 1;
#X obj 507 133 tgl 19 0 empty empty empty 0 -10 0 12 #fcfcfc #000000 #000000 0 1;
#X obj 522 538 outlet;
#X obj 72 369 id_selector;
#X obj 245 373 id_selector;
#X obj 85 85 t b b b;
#X obj 444 220 id_selector;
#X obj 72 421 list append \$1_c.wav;
#X obj 73 344 uzi \$2;
#X obj 245 345 uzi \$3;
#X obj 246 398 list append loadfile;
#X obj 72 394 list append loadfile;
#X obj 108 47 bng 19 250 50 0 empty empty empty 0 -10 0 12 #fcfcfc #000000 #000000;
#X obj 592 395 list append wisper;
#X obj 424 396 list append wisper;
#X obj 254 107 del \$4;
#X obj 551 106 del \$6;
#X obj 586 202 * \$7;
#X obj 478 362 gate 3 1;
#X obj 759 396 list append wisper;
#X obj 507 250 bng 19 250 50 0 empty empty empty 0 -10 0 12 #fcfcfc #000000 #000000;
#X obj 705 535 outlet;
#X obj 507 158 metro 500;
#X obj 823 541 outlet;
#X obj 671 95 * \$7;
#X obj 671 117 + 400;
#X obj 671 46 loadbang;
#X obj 633 48 bng 19 250 50 0 empty empty empty 0 -10 0 12 #fcfcfc #000000 #000000;
#X obj 476 300 % 3;
#X obj 476 275 random 90;
#X obj 648 291 t a a;
#X msg 648 243 1.3;
#X msg 671 70 5;
#X obj 586 160 random 10;
#X obj 586 181 + 1;
#X msg 682 158 200;
#X obj 648 266 * 200;
#X obj 587 226 + 200;
#X msg 357 284 \$1_r.wav;
#X obj 246 422 list append 003.wav;
#X obj 393 86 del 2200;
#X msg 433 41 stop;
#X obj 424 423 list append end_f_r_1.wav;
#X obj 592 423 list append end_f_r_2.wav;
#X obj 759 424 list append end_f_r_3.wav;
#X connect 0 0 6 0;
#X connect 1 0 6 0;
#X connect 3 0 10 0;
#X connect 4 0 23 1;
#X connect 4 0 28 0;
#X connect 4 1 34 0;
#X connect 5 0 23 0;
#X connect 6 0 27 0;
#X connect 8 0 16 0;
#X connect 9 0 15 0;
#X connect 10 0 13 0;
#X connect 10 1 20 0;
#X connect 10 1 40 0;
#X connect 10 2 8 1;
#X connect 10 2 11 1;
#X connect 10 2 9 1;
#X connect 11 0 4 0;
#X connect 12 0 2 0;
#X connect 13 0 8 0;
#X connect 14 0 9 0;
#X connect 15 0 44 0;
#X connect 16 0 12 0;
#X connect 17 0 10 0;
#X connect 18 0 48 0;
#X connect 19 0 47 0;
#X connect 20 0 14 0;
#X connect 20 0 45 0;
#X connect 21 0 1 0;
#X connect 21 0 7 0;
#X connect 22 0 42 0;
#X connect 23 0 19 0;
#X connect 23 1 18 0;
#X connect 23 2 24 0;
#X connect 24 0 49 0;
#X connect 25 0 34 0;
#X connect 27 0 11 0;
#X connect 27 0 38 0;
#X connect 29 0 30 0;
#X connect 30 0 27 1;
#X connect 31 0 37 0;
#X connect 32 0 37 0;
#X connect 33 0 5 0;
#X connect 34 0 33 0;
#X connect 35 0 41 1;
#X connect 35 1 42 1;
#X connect 36 0 41 0;
#X connect 37 0 29 0;
#X connect 38 0 39 0;
#X connect 39 0 22 0;
#X connect 40 0 41 1;
#X connect 40 0 42 1;
#X connect 41 0 35 0;
#X connect 42 0 26 0;
#X connect 42 0 27 1;
#X connect 42 0 36 0;
#X connect 44 0 2 0;
#X connect 45 0 21 0;
#X connect 45 0 0 0;
#X connect 47 0 2 0;
#X connect 48 0 2 0;
#X connect 49 0 2 0;
