#N canvas 73 206 1207 572 12;
#X msg 504 110 1;
#X msg 551 133 0;
#X obj 141 546 outlet;
#X obj 507 158 metro 200;
#X obj 81 8 inlet;
#X obj 478 348 gate 2 1;
#X obj 444 251 t a b;
#X obj 476 275 random 100;
#X obj 476 298 % 2;
#X obj 476 322 + 1;
#X obj 507 133 tgl 19 0 empty empty empty 0 -10 0 12 #fcfcfc #000000 #000000 0 1;
#X obj 556 606 outlet;
#X obj 85 85 t b b b;
#X obj 443 228 id_selector;
#X obj 586 160 random 20;
#X obj 61 421 list append \$1_c.wav;
#X obj 246 422 list append \$1_r.wav;
#X obj 612 413 list append \$1_n_1.wav;
#X obj 459 458 list append \$1_n_2.wav;
#X obj 246 398 list append loadfile;
#X obj 62 392 list append loadfile;
#X obj 108 47 bng 19 250 50 0 empty empty empty 0 -10 0 12 #fcfcfc #000000 #000000;
#X obj 612 385 list append wisper;
#X obj 459 431 list append wisper;
#X obj 586 208 + 400;
#X obj 254 107 del \$4;
#X obj 393 86 del \$5;
#X obj 551 106 del \$6;
#X obj 586 184 * \$7;
#X msg 61 364 all violin;
#X msg 246 357 all viola;
#X connect 0 0 10 0;
#X connect 1 0 10 0;
#X connect 3 0 13 0;
#X connect 3 0 14 0;
#X connect 4 0 12 0;
#X connect 5 0 23 0;
#X connect 5 1 22 0;
#X connect 6 0 5 1;
#X connect 6 1 7 0;
#X connect 7 0 8 0;
#X connect 8 0 9 0;
#X connect 9 0 5 0;
#X connect 10 0 3 0;
#X connect 12 0 29 0;
#X connect 12 1 25 0;
#X connect 12 2 13 1;
#X connect 13 0 6 0;
#X connect 14 0 28 0;
#X connect 15 0 2 0;
#X connect 16 0 2 0;
#X connect 17 0 2 0;
#X connect 18 0 2 0;
#X connect 19 0 16 0;
#X connect 20 0 15 0;
#X connect 21 0 12 0;
#X connect 22 0 17 0;
#X connect 23 0 18 0;
#X connect 24 0 3 1;
#X connect 25 0 26 0;
#X connect 25 0 30 0;
#X connect 26 0 27 0;
#X connect 26 0 0 0;
#X connect 27 0 1 0;
#X connect 27 0 11 0;
#X connect 28 0 24 0;
#X connect 29 0 20 0;
#X connect 30 0 19 0;
