#N canvas 47 74 1077 606 12;
#X msg 27 83 1;
#X obj 27 55 t b;
#X msg 36 135 0;
#X obj 37 109 del 11000;
#X obj 27 27 inlet;
#X obj 27 163 outlet;
#X msg 116 83 1;
#X obj 116 55 t b;
#X msg 125 135 0;
#X obj 126 109 del 11000;
#X obj 116 27 inlet;
#X obj 116 163 outlet;
#X msg 207 83 1;
#X obj 207 55 t b;
#X msg 216 135 0;
#X obj 217 109 del 11000;
#X obj 207 27 inlet;
#X obj 207 163 outlet;
#X msg 296 83 1;
#X obj 296 55 t b;
#X msg 305 135 0;
#X obj 306 109 del 11000;
#X obj 296 27 inlet;
#X obj 296 163 outlet;
#X msg 394 84 1;
#X obj 394 56 t b;
#X msg 403 136 0;
#X obj 404 110 del 11000;
#X obj 394 28 inlet;
#X obj 394 164 outlet;
#X msg 483 84 1;
#X obj 483 56 t b;
#X msg 492 136 0;
#X obj 493 110 del 11000;
#X obj 483 28 inlet;
#X obj 483 164 outlet;
#X msg 574 84 1;
#X obj 574 56 t b;
#X msg 583 136 0;
#X obj 584 110 del 11000;
#X obj 574 28 inlet;
#X obj 574 164 outlet;
#X msg 663 84 1;
#X obj 663 56 t b;
#X msg 672 136 0;
#X obj 673 110 del 11000;
#X obj 663 28 inlet;
#X obj 663 164 outlet;
#X msg 759 86 1;
#X obj 759 58 t b;
#X msg 768 138 0;
#X obj 769 112 del 11000;
#X obj 759 30 inlet;
#X obj 759 166 outlet;
#X msg 848 86 1;
#X obj 848 58 t b;
#X msg 857 138 0;
#X obj 858 112 del 11000;
#X obj 848 30 inlet;
#X obj 848 166 outlet;
#X connect 0 0 5 0;
#X connect 1 0 0 0;
#X connect 1 0 3 0;
#X connect 2 0 5 0;
#X connect 3 0 2 0;
#X connect 4 0 1 0;
#X connect 6 0 11 0;
#X connect 7 0 6 0;
#X connect 7 0 9 0;
#X connect 8 0 11 0;
#X connect 9 0 8 0;
#X connect 10 0 7 0;
#X connect 12 0 17 0;
#X connect 13 0 12 0;
#X connect 13 0 15 0;
#X connect 14 0 17 0;
#X connect 15 0 14 0;
#X connect 16 0 13 0;
#X connect 18 0 23 0;
#X connect 19 0 18 0;
#X connect 19 0 21 0;
#X connect 20 0 23 0;
#X connect 21 0 20 0;
#X connect 22 0 19 0;
#X connect 24 0 29 0;
#X connect 25 0 24 0;
#X connect 25 0 27 0;
#X connect 26 0 29 0;
#X connect 27 0 26 0;
#X connect 28 0 25 0;
#X connect 30 0 35 0;
#X connect 31 0 30 0;
#X connect 31 0 33 0;
#X connect 32 0 35 0;
#X connect 33 0 32 0;
#X connect 34 0 31 0;
#X connect 36 0 41 0;
#X connect 37 0 36 0;
#X connect 37 0 39 0;
#X connect 38 0 41 0;
#X connect 39 0 38 0;
#X connect 40 0 37 0;
#X connect 42 0 47 0;
#X connect 43 0 42 0;
#X connect 43 0 45 0;
#X connect 44 0 47 0;
#X connect 45 0 44 0;
#X connect 46 0 43 0;
#X connect 48 0 53 0;
#X connect 49 0 48 0;
#X connect 49 0 51 0;
#X connect 50 0 53 0;
#X connect 51 0 50 0;
#X connect 52 0 49 0;
#X connect 54 0 59 0;
#X connect 55 0 54 0;
#X connect 55 0 57 0;
#X connect 56 0 59 0;
#X connect 57 0 56 0;
#X connect 58 0 55 0;
