#N canvas 47 74 1077 606 12;
#X obj 27 27 inlet;
#X obj 27 213 outlet;
#X obj 116 213 outlet;
#X obj 207 213 outlet;
#X obj 296 213 outlet;
#X obj 394 214 outlet;
#X obj 483 214 outlet;
#X obj 574 214 outlet;
#X obj 663 214 outlet;
#X obj 759 216 outlet;
#X obj 848 216 outlet;
#X obj 26 112 wdidcoll 1;
#X obj 114 137 wdidcoll 2;
#X obj 206 111 wdidcoll 3;
#X obj 294 136 wdidcoll 4;
#X obj 392 114 wdidcoll 5;
#X obj 480 139 wdidcoll 6;
#X obj 572 113 wdidcoll 7;
#X obj 660 138 wdidcoll 8;
#X obj 757 114 wdidcoll 9;
#X obj 845 139 wdidcoll 10;
#X obj 985 213 outlet;
#X obj 456 46 int \$1;
#X obj 456 21 loadbang;
#X connect 0 0 11 0;
#X connect 11 0 1 0;
#X connect 11 1 12 0;
#X connect 12 0 2 0;
#X connect 12 1 13 0;
#X connect 13 0 3 0;
#X connect 13 1 14 0;
#X connect 14 0 4 0;
#X connect 14 1 15 0;
#X connect 15 0 5 0;
#X connect 15 1 16 0;
#X connect 16 0 6 0;
#X connect 16 1 17 0;
#X connect 17 0 7 0;
#X connect 17 1 18 0;
#X connect 18 0 8 0;
#X connect 18 1 19 0;
#X connect 19 0 9 0;
#X connect 19 1 20 0;
#X connect 20 0 10 0;
#X connect 20 1 21 0;
#X connect 22 0 11 1;
#X connect 22 0 13 1;
#X connect 22 0 15 1;
#X connect 22 0 12 1;
#X connect 22 0 14 1;
#X connect 22 0 16 1;
#X connect 22 0 17 1;
#X connect 22 0 18 1;
#X connect 22 0 19 1;
#X connect 22 0 20 1;
#X connect 23 0 22 0;
