#N canvas 69 136 514 371 12;
#X msg 26 133 1;
#X obj 26 105 t b;
#X msg 35 185 0;
#X obj 26 11 inlet;
#X obj 26 213 outlet;
#X obj 100 199 int \$1;
#X obj 100 311 cyclone/coll active_ids 1;
#C restore;
#X msg 100 280 \$1 1;
#X obj 185 199 int \$1;
#X msg 185 280 remove \$1;
#X obj 26 53 route \$1;
#X obj 418 226 outlet;
#X obj 408 30 inlet;
#X obj 185 240 + 0;
#X obj 100 240 + 0;
#X obj 36 159 del 61000;
#X connect 0 0 4 0;
#X connect 1 0 0 0;
#X connect 1 0 5 0;
#X connect 1 0 15 0;
#X connect 2 0 4 0;
#X connect 3 0 10 0;
#X connect 5 0 14 0;
#X connect 7 0 6 0;
#X connect 8 0 13 0;
#X connect 9 0 6 0;
#X connect 10 0 1 0;
#X connect 10 1 11 0;
#X connect 12 0 13 1;
#X connect 12 0 14 1;
#X connect 13 0 9 0;
#X connect 14 0 7 0;
#X connect 15 0 2 0;
#X connect 15 0 8 0;
